<svg xmlns="http://www.w3.org/2000/svg" viewBox="0 0 1000 720" width="1000" height="720">
<rect width="1000" height="720" fill="#0d1117"/>
<text x="500.0" y="24" text-anchor="middle" font-size="17" fill="#58a6ff" font-weight="bold">安通控股 (600179.SH)  W双底突破</text>
<text x="500.0" y="44" text-anchor="middle" font-size="13" fill="#8b949e">评分:91/100 | 突破后涨幅:0.4% | 目标空间:8.9%</text>
<line x1="80" y1="384.0" x2="920" y2="384.0" stroke="#21262d" stroke-width="0.5"/>
<text x="72" y="388.0" text-anchor="end" font-size="10" fill="#8b949e">2.02</text>
<line x1="80" y1="319.2" x2="920" y2="319.2" stroke="#21262d" stroke-width="0.5"/>
<text x="72" y="323.2" text-anchor="end" font-size="10" fill="#8b949e">2.95</text>
<line x1="80" y1="254.40000000000003" x2="920" y2="254.40000000000003" stroke="#21262d" stroke-width="0.5"/>
<text x="72" y="258.40000000000003" text-anchor="end" font-size="10" fill="#8b949e">3.88</text>
<line x1="80" y1="189.59999999999997" x2="920" y2="189.59999999999997" stroke="#21262d" stroke-width="0.5"/>
<text x="72" y="193.59999999999997" text-anchor="end" font-size="10" fill="#8b949e">4.82</text>
<line x1="80" y1="124.80000000000003" x2="920" y2="124.80000000000003" stroke="#21262d" stroke-width="0.5"/>
<text x="72" y="128.8" text-anchor="end" font-size="10" fill="#8b949e">5.75</text>
<line x1="80" y1="60.0" x2="920" y2="60.0" stroke="#21262d" stroke-width="0.5"/>
<text x="72" y="64.0" text-anchor="end" font-size="10" fill="#8b949e">6.68</text>
<text x="80.0" y="550.1999999999999" text-anchor="middle" font-size="9" fill="#8b949e">2024-05-06</text>
<text x="183.96856581532415" y="550.1999999999999" text-anchor="middle" font-size="9" fill="#8b949e">2024-08-16</text>
<text x="287.9371316306483" y="550.1999999999999" text-anchor="middle" font-size="9" fill="#8b949e">2024-11-22</text>
<text x="391.9056974459725" y="550.1999999999999" text-anchor="middle" font-size="9" fill="#8b949e">2025-02-28</text>
<text x="495.8742632612967" y="550.1999999999999" text-anchor="middle" font-size="9" fill="#8b949e">2025-06-04</text>
<text x="599.8428290766208" y="550.1999999999999" text-anchor="middle" font-size="9" fill="#8b949e">2025-09-01</text>
<text x="703.811394891945" y="550.1999999999999" text-anchor="middle" font-size="9" fill="#8b949e">2025-12-05</text>
<text x="807.7799607072691" y="550.1999999999999" text-anchor="middle" font-size="9" fill="#8b949e">2026-03-16</text>
<text x="911.7485265225934" y="550.1999999999999" text-anchor="middle" font-size="9" fill="#8b949e">2026-06-17</text>
<rect x="799.5284872298624" y="60" width="120.47151277013756" height="475.2" fill="#238636" opacity="0.08" rx="3"/>
<text x="859.7642436149313" y="54" text-anchor="middle" font-size="11" fill="#3fb950" font-weight="bold">▼ 双底区域 ▼</text>
<rect x="79.5" y="531.4159675310668" width="1" height="3.7840324689331055" fill="#3fb950" opacity="0.45"/>
<rect x="81.15029469548134" y="532.130386688487" width="1" height="3.069613311512967" fill="#f85149" opacity="0.45"/>
<rect x="82.80058939096267" y="531.8474461566617" width="1" height="3.352553843338228" fill="#f85149" opacity="0.45"/>
<rect x="84.450884086444" y="529.8237010127812" width="1" height="5.3762989872187745" fill="#3fb950" opacity="0.45"/>
<rect x="86.10117878192534" y="531.1233606722327" width="1" height="4.076639327767225" fill="#f85149" opacity="0.45"/>
<rect x="87.75147347740668" y="530.9312331066333" width="1" height="4.26876689336666" fill="#f85149" opacity="0.45"/>
<rect x="89.40176817288801" y="531.7513082593658" width="1" height="3.4486917406341036" fill="#3fb950" opacity="0.45"/>
<rect x="91.05206286836935" y="532.4876539949864" width="1" height="2.712346005013501" fill="#f85149" opacity="0.45"/>
<rect x="92.70235756385068" y="528.1822600669998" width="1" height="7.0177399330001435" fill="#f85149" opacity="0.45"/>
<rect x="94.35265225933202" y="522.8744689931067" width="1" height="12.325531006893243" fill="#f85149" opacity="0.45"/>
<rect x="96.00294695481335" y="528.4633238634026" width="1" height="6.736676136597339" fill="#f85149" opacity="0.45"/>
<rect x="97.65324165029469" y="530.1461022317794" width="1" height="5.053897768220509" fill="#f85149" opacity="0.45"/>
<rect x="99.30353634577602" y="532.0074388080097" width="1" height="3.192561191990194" fill="#3fb950" opacity="0.45"/>
<rect x="100.95383104125736" y="529.7654892749092" width="1" height="5.434510725090718" fill="#f85149" opacity="0.45"/>
<rect x="102.60412573673871" y="532.1443854278591" width="1" height="3.0556145721408257" fill="#3fb950" opacity="0.45"/>
<rect x="104.25442043222004" y="531.5846230107916" width="1" height="3.6153769892083574" fill="#3fb950" opacity="0.45"/>
<rect x="105.90471512770137" y="531.7098097978653" width="1" height="3.490190202134613" fill="#f85149" opacity="0.45"/>
<rect x="107.55500982318271" y="533.4624753910995" width="1" height="1.7375246089004577" fill="#3fb950" opacity="0.45"/>
<rect x="109.20530451866405" y="532.8486338471545" width="1" height="2.3513661528454577" fill="#3fb950" opacity="0.45"/>
<rect x="110.85559921414539" y="500.5924747681811" width="1" height="34.60752523181884" fill="#3fb950" opacity="0.45"/>
<rect x="112.50589390962672" y="514.8804897563606" width="1" height="20.319510243639343" fill="#f85149" opacity="0.45"/>
<rect x="114.15618860510806" y="521.7880827382176" width="1" height="13.411917261782378" fill="#f85149" opacity="0.45"/>
<rect x="115.80648330058939" y="525.7132455112837" width="1" height="9.486754488716201" fill="#f85149" opacity="0.45"/>
<rect x="117.45677799607073" y="523.7476026387466" width="1" height="11.452397361253361" fill="#3fb950" opacity="0.45"/>
<rect x="119.10707269155206" y="527.6537576637681" width="1" height="7.546242336231785" fill="#f85149" opacity="0.45"/>
<rect x="120.7573673870334" y="528.107617037203" width="1" height="7.092382962796933" fill="#f85149" opacity="0.45"/>
<rect x="122.40766208251473" y="529.5145029876546" width="1" height="5.685497012345309" fill="#3fb950" opacity="0.45"/>
<rect x="124.05795677799607" y="529.7973857916905" width="1" height="5.402614208309387" fill="#f85149" opacity="0.45"/>
<rect x="125.70825147347742" y="531.1284902937216" width="1" height="4.071509706278334" fill="#3fb950" opacity="0.45"/>
<rect x="127.35854616895874" y="530.8729245457832" width="1" height="4.327075454216697" fill="#3fb950" opacity="0.45"/>
<rect x="129.0088408644401" y="531.0735482445291" width="1" height="4.126451755470839" fill="#3fb950" opacity="0.45"/>
<rect x="130.65913555992142" y="529.736571312423" width="1" height="5.463428687576879" fill="#3fb950" opacity="0.45"/>
<rect x="132.30943025540273" y="530.6135317947726" width="1" height="4.586468205227334" fill="#f85149" opacity="0.45"/>
<rect x="133.9597249508841" y="532.2106021967618" width="1" height="2.9893978032381483" fill="#3fb950" opacity="0.45"/>
<rect x="135.61001964636543" y="531.3816416226204" width="1" height="3.8183583773795817" fill="#f85149" opacity="0.45"/>
<rect x="137.26031434184677" y="530.7140087589321" width="1" height="4.485991241067836" fill="#f85149" opacity="0.45"/>
<rect x="138.9106090373281" y="532.0105795657475" width="1" height="3.1894204342523835" fill="#f85149" opacity="0.45"/>
<rect x="140.56090373280944" y="531.6001111936738" width="1" height="3.5998888063261347" fill="#3fb950" opacity="0.45"/>
<rect x="142.21119842829077" y="532.0334791982415" width="1" height="3.166520801758452" fill="#3fb950" opacity="0.45"/>
<rect x="143.8614931237721" y="532.8806915692035" width="1" height="2.319308430796468" fill="#f85149" opacity="0.45"/>
<rect x="145.51178781925344" y="533.0328826508647" width="1" height="2.1671173491351965" fill="#3fb950" opacity="0.45"/>
<rect x="147.16208251473478" y="532.3823307246846" width="1" height="2.8176692753153247" fill="#3fb950" opacity="0.45"/>
<rect x="148.8123772102161" y="532.0656177724682" width="1" height="3.1343822275317734" fill="#3fb950" opacity="0.45"/>
<rect x="150.46267190569745" y="532.4029305619051" width="1" height="2.797069438094809" fill="#3fb950" opacity="0.45"/>
<rect x="152.11296660117878" y="533.3813315800451" width="1" height="1.8186684199548608" fill="#3fb950" opacity="0.45"/>
<rect x="153.76326129666012" y="532.08743688049" width="1" height="3.1125631195099004" fill="#f85149" opacity="0.45"/>
<rect x="155.41355599214145" y="531.8021097121635" width="1" height="3.3978902878363897" fill="#f85149" opacity="0.45"/>
<rect x="157.0638506876228" y="530.5507988230938" width="1" height="4.649201176906104" fill="#f85149" opacity="0.45"/>
<rect x="158.71414538310412" y="532.2795358317386" width="1" height="2.920464168261333" fill="#3fb950" opacity="0.45"/>
<rect x="160.36444007858546" y="532.9661674598963" width="1" height="2.2338325401036627" fill="#3fb950" opacity="0.45"/>
<rect x="162.0147347740668" y="532.8586307364612" width="1" height="2.341369263538695" fill="#3fb950" opacity="0.45"/>
<rect x="163.66502946954813" y="530.5550197725786" width="1" height="4.6449802274213425" fill="#3fb950" opacity="0.45"/>
<rect x="165.31532416502947" y="532.0900858706622" width="1" height="3.109914129337767" fill="#f85149" opacity="0.45"/>
<rect x="166.9656188605108" y="532.9286868192615" width="1" height="2.271313180738389" fill="#f85149" opacity="0.45"/>
<rect x="168.61591355599214" y="530.913304718523" width="1" height="4.286695281476909" fill="#f85149" opacity="0.45"/>
<rect x="170.26620825147347" y="532.4159068373197" width="1" height="2.7840931626802785" fill="#3fb950" opacity="0.45"/>
<rect x="171.91650294695484" y="533.063522798006" width="1" height="2.1364772019938982" fill="#f85149" opacity="0.45"/>
<rect x="173.56679764243614" y="532.7075284973972" width="1" height="2.4924715026027116" fill="#3fb950" opacity="0.45"/>
<rect x="175.21709233791748" y="532.9565683433397" width="1" height="2.2434316566602774" fill="#f85149" opacity="0.45"/>
<rect x="176.8673870333988" y="532.6590729222869" width="1" height="2.540927077713036" fill="#f85149" opacity="0.45"/>
<rect x="178.51768172888018" y="532.9350748067405" width="1" height="2.264925193259387" fill="#3fb950" opacity="0.45"/>
<rect x="180.16797642436148" y="533.4153295879935" width="1" height="1.7846704120064487" fill="#f85149" opacity="0.45"/>
<rect x="181.81827111984285" y="532.0365169775886" width="1" height="3.1634830224113557" fill="#3fb950" opacity="0.45"/>
<rect x="183.46856581532415" y="532.62880492807" width="1" height="2.5711950719298784" fill="#f85149" opacity="0.45"/>
<rect x="185.1188605108055" y="533.3932235046499" width="1" height="1.80677649535005" fill="#3fb950" opacity="0.45"/>
<rect x="186.76915520628683" y="532.4890294801803" width="1" height="2.7109705198196252" fill="#f85149" opacity="0.45"/>
<rect x="188.4194499017682" y="533.7343982332852" width="1" height="1.4656017667147125" fill="#f85149" opacity="0.45"/>
<rect x="190.0697445972495" y="533.5151916763333" width="1" height="1.6848083236666298" fill="#f85149" opacity="0.45"/>
<rect x="191.72003929273086" y="532.9200574297483" width="1" height="2.279942570251592" fill="#f85149" opacity="0.45"/>
<rect x="193.3703339882122" y="533.4871392979622" width="1" height="1.7128607020376876" fill="#3fb950" opacity="0.45"/>
<rect x="195.02062868369353" y="533.5561072036153" width="1" height="1.6438927963846481" fill="#3fb950" opacity="0.45"/>
<rect x="196.67092337917484" y="533.3620376884912" width="1" height="1.8379623115087043" fill="#3fb950" opacity="0.45"/>
<rect x="198.3212180746562" y="533.0554287630349" width="1" height="2.144571236965021" fill="#3fb950" opacity="0.45"/>
<rect x="199.9715127701375" y="531.6523634938803" width="1" height="3.547636506119602" fill="#3fb950" opacity="0.45"/>
<rect x="201.62180746561887" y="531.8784933928534" width="1" height="3.321506607146489" fill="#3fb950" opacity="0.45"/>
<rect x="203.2721021611002" y="533.0227137427274" width="1" height="2.177286257272499" fill="#f85149" opacity="0.45"/>
<rect x="204.92239685658154" y="533.2153119478545" width="1" height="1.9846880521454295" fill="#f85149" opacity="0.45"/>
<rect x="206.57269155206288" y="533.6046700825415" width="1" height="1.5953299174584572" fill="#3fb950" opacity="0.45"/>
<rect x="208.22298624754418" y="533.5603338094253" width="1" height="1.6396661905746441" fill="#f85149" opacity="0.45"/>
<rect x="209.87328094302552" y="533.4803773275713" width="1" height="1.7196226724286134" fill="#f85149" opacity="0.45"/>
<rect x="211.52357563850688" y="532.6702529817316" width="1" height="2.529747018268381" fill="#3fb950" opacity="0.45"/>
<rect x="213.17387033398822" y="533.3108970225452" width="1" height="1.8891029774547405" fill="#f85149" opacity="0.45"/>
<rect x="214.82416502946955" y="533.1461843341964" width="1" height="2.0538156658035405" fill="#3fb950" opacity="0.45"/>
<rect x="216.4744597249509" y="533.9250583152254" width="1" height="1.2749416847744897" fill="#3fb950" opacity="0.45"/>
<rect x="218.12475442043223" y="533.2216669955575" width="1" height="1.9783330044424474" fill="#f85149" opacity="0.45"/>
<rect x="219.77504911591353" y="531.6791310546229" width="1" height="3.5208689453770603" fill="#3fb950" opacity="0.45"/>
<rect x="221.4253438113949" y="533.0257766428128" width="1" height="2.1742233571870884" fill="#f85149" opacity="0.45"/>
<rect x="223.07563850687623" y="533.2415769274685" width="1" height="1.9584230725314455" fill="#3fb950" opacity="0.45"/>
<rect x="224.72593320235757" y="530.2098684809787" width="1" height="4.990131519021247" fill="#3fb950" opacity="0.45"/>
<rect x="226.3762278978389" y="529.8802519537625" width="1" height="5.319748046237464" fill="#3fb950" opacity="0.45"/>
<rect x="228.02652259332024" y="528.4752009817445" width="1" height="6.724799018255453" fill="#3fb950" opacity="0.45"/>
<rect x="229.67681728880157" y="530.4520200873886" width="1" height="4.747979912611299" fill="#3fb950" opacity="0.45"/>
<rect x="231.3271119842829" y="520.1577291879653" width="1" height="15.042270812034644" fill="#3fb950" opacity="0.45"/>
<rect x="232.97740667976424" y="518.9790972529546" width="1" height="16.22090274704533" fill="#3fb950" opacity="0.45"/>
<rect x="234.62770137524558" y="522.9373130949391" width="1" height="12.262686905060832" fill="#f85149" opacity="0.45"/>
<rect x="236.2779960707269" y="525.3949096928279" width="1" height="9.805090307172009" fill="#3fb950" opacity="0.45"/>
<rect x="237.92829076620825" y="529.0473662226707" width="1" height="6.1526337773292425" fill="#f85149" opacity="0.45"/>
<rect x="239.57858546168958" y="530.2090148749639" width="1" height="4.990985125035991" fill="#3fb950" opacity="0.45"/>
<rect x="241.22888015717092" y="529.19855447115" width="1" height="6.001445528849899" fill="#f85149" opacity="0.45"/>
<rect x="242.87917485265226" y="530.3920113017342" width="1" height="4.807988698265717" fill="#3fb950" opacity="0.45"/>
<rect x="244.5294695481336" y="530.1803494507608" width="1" height="5.019650549239145" fill="#f85149" opacity="0.45"/>
<rect x="246.17976424361493" y="526.649377975886" width="1" height="8.550622024113977" fill="#3fb950" opacity="0.45"/>
<rect x="247.83005893909626" y="528.1199247017086" width="1" height="7.080075298291376" fill="#f85149" opacity="0.45"/>
<rect x="249.4803536345776" y="528.0891443109754" width="1" height="7.110855689024561" fill="#f85149" opacity="0.45"/>
<rect x="251.13064833005893" y="528.2908793112567" width="1" height="6.909120688743201" fill="#3fb950" opacity="0.45"/>
<rect x="252.78094302554027" y="531.5088947983726" width="1" height="3.6911052016273516" fill="#f85149" opacity="0.45"/>
<rect x="254.43123772102163" y="528.376946953381" width="1" height="6.823053046618952" fill="#3fb950" opacity="0.45"/>
<rect x="256.0815324165029" y="524.5925528123612" width="1" height="10.60744718763874" fill="#3fb950" opacity="0.45"/>
<rect x="257.7318271119843" y="521.5221135110094" width="1" height="13.677886488990566" fill="#f85149" opacity="0.45"/>
<rect x="259.38212180746564" y="527.8883327889611" width="1" height="7.311667211038866" fill="#3fb950" opacity="0.45"/>
<rect x="261.03241650294694" y="523.458422514797" width="1" height="11.741577485202924" fill="#3fb950" opacity="0.45"/>
<rect x="262.68271119842825" y="526.2064742388761" width="1" height="8.993525761123806" fill="#f85149" opacity="0.45"/>
<rect x="264.3330058939097" y="528.8633148912542" width="1" height="6.336685108745769" fill="#3fb950" opacity="0.45"/>
<rect x="265.983300589391" y="506.18075951417126" width="1" height="29.019240485828675" fill="#3fb950" opacity="0.45"/>
<rect x="267.6335952848723" y="508.4252395873401" width="1" height="26.774760412659816" fill="#3fb950" opacity="0.45"/>
<rect x="269.2838899803536" y="514.157792733401" width="1" height="21.042207266598894" fill="#3fb950" opacity="0.45"/>
<rect x="270.93418467583496" y="518.6932636771619" width="1" height="16.506736322838037" fill="#f85149" opacity="0.45"/>
<rect x="272.5844793713163" y="523.9175181480866" width="1" height="11.282481851913303" fill="#3fb950" opacity="0.45"/>
<rect x="274.2347740667976" y="522.3117752686954" width="1" height="12.88822473130449" fill="#f85149" opacity="0.45"/>
<rect x="275.885068762279" y="527.4345196643027" width="1" height="7.765480335697248" fill="#f85149" opacity="0.45"/>
<rect x="277.53536345776035" y="526.7813001153498" width="1" height="8.418699884650096" fill="#f85149" opacity="0.45"/>
<rect x="279.18565815324166" y="527.6471713721828" width="1" height="7.552828627817121" fill="#f85149" opacity="0.45"/>
<rect x="280.83595284872297" y="526.203511821744" width="1" height="8.996488178255959" fill="#3fb950" opacity="0.45"/>
<rect x="282.4862475442043" y="526.8028061291368" width="1" height="8.397193870863134" fill="#3fb950" opacity="0.45"/>
<rect x="284.1365422396857" y="527.710853275592" width="1" height="7.489146724407988" fill="#3fb950" opacity="0.45"/>
<rect x="285.786836935167" y="530.1101622743064" width="1" height="5.089837725693542" fill="#f85149" opacity="0.45"/>
<rect x="287.4371316306483" y="520.59374252273" width="1" height="14.606257477269878" fill="#3fb950" opacity="0.45"/>
<rect x="289.0874263261297" y="518.9770506614142" width="1" height="16.22294933858575" fill="#3fb950" opacity="0.45"/>
<rect x="290.737721021611" y="526.7704452946032" width="1" height="8.429554705396754" fill="#f85149" opacity="0.45"/>
<rect x="292.38801571709234" y="528.3383009433966" width="1" height="6.861699056603356" fill="#3fb950" opacity="0.45"/>
<rect x="294.03831041257365" y="528.0805177496248" width="1" height="7.119482250375086" fill="#f85149" opacity="0.45"/>
<rect x="295.688605108055" y="527.1893680428345" width="1" height="8.010631957165401" fill="#f85149" opacity="0.45"/>
<rect x="297.3388998035364" y="525.8014785277771" width="1" height="9.398521472222797" fill="#3fb950" opacity="0.45"/>
<rect x="298.9891944990177" y="525.911721137361" width="1" height="9.28827886263889" fill="#3fb950" opacity="0.45"/>
<rect x="300.639489194499" y="527.8524101331885" width="1" height="7.347589866811404" fill="#f85149" opacity="0.45"/>
<rect x="302.2897838899803" y="528.0212065219553" width="1" height="7.178793478044668" fill="#3fb950" opacity="0.45"/>
<rect x="303.9400785854617" y="521.2251432963859" width="1" height="13.974856703614023" fill="#3fb950" opacity="0.45"/>
<rect x="305.590373280943" y="524.7245584658028" width="1" height="10.475441534197103" fill="#f85149" opacity="0.45"/>
<rect x="307.2406679764244" y="523.153341296227" width="1" height="12.046658703772891" fill="#f85149" opacity="0.45"/>
<rect x="308.8909626719057" y="515.6039137834684" width="1" height="19.59608621653149" fill="#3fb950" opacity="0.45"/>
<rect x="310.54125736738706" y="523.4651836533754" width="1" height="11.734816346624484" fill="#f85149" opacity="0.45"/>
<rect x="312.19155206286837" y="521.1720630099904" width="1" height="14.027936990009493" fill="#f85149" opacity="0.45"/>
<rect x="313.8418467583497" y="524.488920949651" width="1" height="10.711079050348985" fill="#f85149" opacity="0.45"/>
<rect x="315.49214145383104" y="527.0938317123579" width="1" height="8.106168287642049" fill="#f85149" opacity="0.45"/>
<rect x="317.1424361493124" y="530.4052495980947" width="1" height="4.794750401905276" fill="#f85149" opacity="0.45"/>
<rect x="318.7927308447937" y="528.5986339752872" width="1" height="6.601366024712775" fill="#3fb950" opacity="0.45"/>
<rect x="320.443025540275" y="530.9145918652267" width="1" height="4.285408134773206" fill="#f85149" opacity="0.45"/>
<rect x="322.09332023575644" y="530.7698326957652" width="1" height="4.430167304234715" fill="#f85149" opacity="0.45"/>
<rect x="323.74361493123774" y="531.529915033644" width="1" height="3.670084966355944" fill="#3fb950" opacity="0.45"/>
<rect x="325.39390962671905" y="531.5196408180409" width="1" height="3.6803591819590338" fill="#3fb950" opacity="0.45"/>
<rect x="327.0442043222004" y="531.8629489794444" width="1" height="3.3370510205555775" fill="#f85149" opacity="0.45"/>
<rect x="328.6944990176817" y="530.2902224028579" width="1" height="4.909777597142011" fill="#3fb950" opacity="0.45"/>
<rect x="330.3447937131631" y="531.2238106856663" width="1" height="3.9761893143336238" fill="#f85149" opacity="0.45"/>
<rect x="331.9950884086444" y="530.331410265561" width="1" height="4.868589734438956" fill="#f85149" opacity="0.45"/>
<rect x="333.64538310412576" y="528.9735089229865" width="1" height="6.2264910770134065" fill="#f85149" opacity="0.45"/>
<rect x="335.29567779960706" y="530.0904321802636" width="1" height="5.109567819736299" fill="#f85149" opacity="0.45"/>
<rect x="336.94597249508837" y="531.4626754680587" width="1" height="3.7373245319412263" fill="#3fb950" opacity="0.45"/>
<rect x="338.59626719056973" y="531.9158635687846" width="1" height="3.284136431215302" fill="#3fb950" opacity="0.45"/>
<rect x="340.24656188605104" y="530.4002287776842" width="1" height="4.799771222315712" fill="#f85149" opacity="0.45"/>
<rect x="341.8968565815324" y="531.7123659577594" width="1" height="3.487634042240529" fill="#f85149" opacity="0.45"/>
<rect x="343.54715127701377" y="531.8451503540883" width="1" height="3.3548496459115995" fill="#f85149" opacity="0.45"/>
<rect x="345.19744597249513" y="531.840159478929" width="1" height="3.3598405210709643" fill="#3fb950" opacity="0.45"/>
<rect x="346.84774066797644" y="530.4964495235077" width="1" height="4.7035504764921825" fill="#3fb950" opacity="0.45"/>
<rect x="348.49803536345775" y="531.6212763306874" width="1" height="3.5787236693125806" fill="#f85149" opacity="0.45"/>
<rect x="350.1483300589391" y="530.8020574457696" width="1" height="4.397942554230326" fill="#3fb950" opacity="0.45"/>
<rect x="351.7986247544204" y="531.8385896823288" width="1" height="3.3614103176711296" fill="#3fb950" opacity="0.45"/>
<rect x="353.4489194499018" y="531.8201227787889" width="1" height="3.379877221211018" fill="#3fb950" opacity="0.45"/>
<rect x="355.0992141453831" y="532.2140873248856" width="1" height="2.9859126751143776" fill="#f85149" opacity="0.45"/>
<rect x="356.74950884086445" y="532.9420615328762" width="1" height="2.257938467123722" fill="#f85149" opacity="0.45"/>
<rect x="358.39980353634576" y="531.0896203598049" width="1" height="4.110379640194992" fill="#3fb950" opacity="0.45"/>
<rect x="360.05009823182706" y="531.015517176338" width="1" height="4.184482823661938" fill="#3fb950" opacity="0.45"/>
<rect x="361.7003929273084" y="531.1900459179503" width="1" height="4.009954082049603" fill="#f85149" opacity="0.45"/>
<rect x="363.3506876227898" y="531.0181175886586" width="1" height="4.181882411341348" fill="#3fb950" opacity="0.45"/>
<rect x="365.00098231827116" y="531.9129763475049" width="1" height="3.2870236524950087" fill="#3fb950" opacity="0.45"/>
<rect x="366.65127701375246" y="529.6563118844468" width="1" height="5.5436881155530955" fill="#3fb950" opacity="0.45"/>
<rect x="368.3015717092338" y="530.0933416941191" width="1" height="5.106658305880842" fill="#f85149" opacity="0.45"/>
<rect x="369.95186640471513" y="530.8598050322516" width="1" height="4.340194967748289" fill="#f85149" opacity="0.45"/>
<rect x="371.6021611001965" y="530.3214065553915" width="1" height="4.878593444608441" fill="#f85149" opacity="0.45"/>
<rect x="373.2524557956778" y="531.2609369741648" width="1" height="3.9390630258351393" fill="#f85149" opacity="0.45"/>
<rect x="374.9027504911591" y="531.4888351402068" width="1" height="3.7111648597931435" fill="#f85149" opacity="0.45"/>
<rect x="376.5530451866405" y="530.537780291603" width="1" height="4.662219708396947" fill="#3fb950" opacity="0.45"/>
<rect x="378.2033398821218" y="530.6054084800007" width="1" height="4.594591519999199" fill="#f85149" opacity="0.45"/>
<rect x="379.85363457760315" y="531.2880036546918" width="1" height="3.9119963453081255" fill="#f85149" opacity="0.45"/>
<rect x="381.50392927308445" y="531.2961241413012" width="1" height="3.9038758586987115" fill="#f85149" opacity="0.45"/>
<rect x="383.1542239685658" y="530.9481852795623" width="1" height="4.251814720437665" fill="#3fb950" opacity="0.45"/>
<rect x="384.8045186640472" y="521.7850459570456" width="1" height="13.414954042954378" fill="#3fb950" opacity="0.45"/>
<rect x="386.4548133595285" y="516.4865226055986" width="1" height="18.713477394401366" fill="#f85149" opacity="0.45"/>
<rect x="388.10510805500985" y="526.2907408405177" width="1" height="8.90925915948219" fill="#3fb950" opacity="0.45"/>
<rect x="389.75540275049116" y="518.9026262319494" width="1" height="16.297373768050534" fill="#3fb950" opacity="0.45"/>
<rect x="391.4056974459725" y="526.9703812507521" width="1" height="8.229618749247834" fill="#f85149" opacity="0.45"/>
<rect x="393.0559921414538" y="526.3697277616908" width="1" height="8.830272238309135" fill="#f85149" opacity="0.45"/>
<rect x="394.7062868369352" y="529.5990798553687" width="1" height="5.600920144631232" fill="#3fb950" opacity="0.45"/>
<rect x="396.3565815324165" y="529.2835593895902" width="1" height="5.9164406104097225" fill="#f85149" opacity="0.45"/>
<rect x="398.0068762278978" y="528.6962475080052" width="1" height="6.50375249199476" fill="#3fb950" opacity="0.45"/>
<rect x="399.65717092337917" y="528.2215347608917" width="1" height="6.978465239108232" fill="#3fb950" opacity="0.45"/>
<rect x="401.3074656188605" y="523.759338681684" width="1" height="11.44066131831596" fill="#3fb950" opacity="0.45"/>
<rect x="402.95776031434184" y="528.7454658552024" width="1" height="6.454534144797549" fill="#3fb950" opacity="0.45"/>
<rect x="404.6080550098232" y="529.3797095977116" width="1" height="5.820290402288379" fill="#f85149" opacity="0.45"/>
<rect x="406.2583497053045" y="530.0898921675714" width="1" height="5.110107832428525" fill="#f85149" opacity="0.45"/>
<rect x="407.9086444007859" y="529.5911175795019" width="1" height="5.608882420498048" fill="#3fb950" opacity="0.45"/>
<rect x="409.5589390962672" y="530.9269910291102" width="1" height="4.273008970889691" fill="#f85149" opacity="0.45"/>
<rect x="411.20923379174855" y="529.3989208071002" width="1" height="5.801079192899692" fill="#3fb950" opacity="0.45"/>
<rect x="412.85952848722985" y="530.6193489924959" width="1" height="4.580651007504002" fill="#f85149" opacity="0.45"/>
<rect x="414.5098231827112" y="524.3167567183267" width="1" height="10.88324328167323" fill="#3fb950" opacity="0.45"/>
<rect x="416.1601178781925" y="525.0580810182813" width="1" height="10.141918981718618" fill="#3fb950" opacity="0.45"/>
<rect x="417.8104125736739" y="519.6283309226426" width="1" height="15.571669077357342" fill="#3fb950" opacity="0.45"/>
<rect x="419.4607072691552" y="518.9561686733847" width="1" height="16.243831326615236" fill="#f85149" opacity="0.45"/>
<rect x="421.1110019646365" y="522.8432568916722" width="1" height="12.356743108327692" fill="#3fb950" opacity="0.45"/>
<rect x="422.76129666011786" y="528.6737892352378" width="1" height="6.526210764762141" fill="#f85149" opacity="0.45"/>
<rect x="424.41159135559917" y="526.6794237097956" width="1" height="8.520576290204303" fill="#f85149" opacity="0.45"/>
<rect x="426.06188605108053" y="527.9508115587317" width="1" height="7.249188441268188" fill="#f85149" opacity="0.45"/>
<rect x="427.7121807465619" y="530.1255095481466" width="1" height="5.074490451853308" fill="#3fb950" opacity="0.45"/>
<rect x="429.36247544204326" y="530.6059336864299" width="1" height="4.594066313570011" fill="#f85149" opacity="0.45"/>
<rect x="431.01277013752457" y="529.8076483619184" width="1" height="5.39235163808155" fill="#3fb950" opacity="0.45"/>
<rect x="432.6630648330059" y="524.9278472918838" width="1" height="10.272152708116096" fill="#f85149" opacity="0.45"/>
<rect x="434.31335952848724" y="525.2270374477781" width="1" height="9.972962552221816" fill="#3fb950" opacity="0.45"/>
<rect x="435.96365422396855" y="525.4542548584485" width="1" height="9.745745141551424" fill="#3fb950" opacity="0.45"/>
<rect x="437.6139489194499" y="525.3756370956747" width="1" height="9.824362904325199" fill="#3fb950" opacity="0.45"/>
<rect x="439.2642436149312" y="525.2788399037703" width="1" height="9.921160096229642" fill="#3fb950" opacity="0.45"/>
<rect x="440.9145383104126" y="528.0809536193888" width="1" height="7.119046380611167" fill="#3fb950" opacity="0.45"/>
<rect x="442.5648330058939" y="523.3730274762818" width="1" height="11.826972523718155" fill="#3fb950" opacity="0.45"/>
<rect x="444.21512770137525" y="526.554332747525" width="1" height="8.645667252474937" fill="#f85149" opacity="0.45"/>
<rect x="445.86542239685656" y="530.4354437273591" width="1" height="4.764556272640789" fill="#f85149" opacity="0.45"/>
<rect x="447.5157170923379" y="530.6987516535697" width="1" height="4.501248346430202" fill="#3fb950" opacity="0.45"/>
<rect x="449.1660117878193" y="530.9976410260545" width="1" height="4.202358973945479" fill="#3fb950" opacity="0.45"/>
<rect x="450.8163064833006" y="522.4457212080365" width="1" height="12.75427879196343" fill="#3fb950" opacity="0.45"/>
<rect x="452.46660117878196" y="526.5387645442777" width="1" height="8.661235455722249" fill="#f85149" opacity="0.45"/>
<rect x="454.11689587426326" y="530.614592688469" width="1" height="4.5854073115309575" fill="#f85149" opacity="0.45"/>
<rect x="455.7671905697446" y="525.32703911426" width="1" height="9.872960885739985" fill="#3fb950" opacity="0.45"/>
<rect x="457.41748526522593" y="529.2689936868001" width="1" height="5.931006313199873" fill="#f85149" opacity="0.45"/>
<rect x="459.06777996070724" y="530.7896206839598" width="1" height="4.410379316040121" fill="#3fb950" opacity="0.45"/>
<rect x="460.7180746561886" y="531.1596930788558" width="1" height="4.040306921144179" fill="#f85149" opacity="0.45"/>
<rect x="462.3683693516699" y="528.9583569587276" width="1" height="6.2416430412723685" fill="#3fb950" opacity="0.45"/>
<rect x="464.0186640471513" y="529.8282877934151" width="1" height="5.371712206584789" fill="#f85149" opacity="0.45"/>
<rect x="465.6689587426326" y="531.1408879603426" width="1" height="4.059112039657293" fill="#f85149" opacity="0.45"/>
<rect x="467.31925343811395" y="530.6312151309126" width="1" height="4.568784869087381" fill="#3fb950" opacity="0.45"/>
<rect x="468.9695481335953" y="527.5860100270917" width="1" height="7.613989972908257" fill="#3fb950" opacity="0.45"/>
<rect x="470.6198428290766" y="527.8397797254227" width="1" height="7.360220274577273" fill="#3fb950" opacity="0.45"/>
<rect x="472.270137524558" y="520.5060852868676" width="1" height="14.693914713132358" fill="#3fb950" opacity="0.45"/>
<rect x="473.9204322200393" y="522.9543950306222" width="1" height="12.245604969377723" fill="#f85149" opacity="0.45"/>
<rect x="475.57072691552065" y="526.5769023168084" width="1" height="8.623097683191531" fill="#f85149" opacity="0.45"/>
<rect x="477.22102161100196" y="519.3048342065468" width="1" height="15.895165793453089" fill="#3fb950" opacity="0.45"/>
<rect x="478.8713163064833" y="524.4753283011543" width="1" height="10.724671698845668" fill="#f85149" opacity="0.45"/>
<rect x="480.52161100196463" y="529.8192481539639" width="1" height="5.3807518460359915" fill="#f85149" opacity="0.45"/>
<rect x="482.17190569744594" y="529.4003836326094" width="1" height="5.799616367390513" fill="#f85149" opacity="0.45"/>
<rect x="483.8222003929273" y="529.67848168463" width="1" height="5.521518315369917" fill="#f85149" opacity="0.45"/>
<rect x="485.4724950884086" y="531.1713519295907" width="1" height="4.02864807040919" fill="#3fb950" opacity="0.45"/>
<rect x="487.12278978388997" y="531.5323073264705" width="1" height="3.667692673529473" fill="#3fb950" opacity="0.45"/>
<rect x="488.77308447937133" y="515.4774491659914" width="1" height="19.72255083400853" fill="#f85149" opacity="0.45"/>
<rect x="490.4233791748527" y="524.096572116206" width="1" height="11.103427883793984" fill="#3fb950" opacity="0.45"/>
<rect x="492.073673870334" y="528.0773893027124" width="1" height="7.122610697287541" fill="#f85149" opacity="0.45"/>
<rect x="493.7239685658153" y="528.7038577608107" width="1" height="6.496142239189226" fill="#3fb950" opacity="0.45"/>
<rect x="495.3742632612967" y="528.8100587596906" width="1" height="6.3899412403093265" fill="#3fb950" opacity="0.45"/>
<rect x="497.024557956778" y="528.1116015855678" width="1" height="7.088398414432163" fill="#3fb950" opacity="0.45"/>
<rect x="498.67485265225935" y="530.1608031872864" width="1" height="5.039196812713499" fill="#f85149" opacity="0.45"/>
<rect x="500.32514734774065" y="529.8325336972757" width="1" height="5.36746630272421" fill="#3fb950" opacity="0.45"/>
<rect x="501.97544204322196" y="529.2946467851194" width="1" height="5.905353214880506" fill="#f85149" opacity="0.45"/>
<rect x="503.6257367387034" y="529.2367850739587" width="1" height="5.963214926041246" fill="#3fb950" opacity="0.45"/>
<rect x="505.2760314341847" y="530.2498041331044" width="1" height="4.9501958668955695" fill="#f85149" opacity="0.45"/>
<rect x="506.926326129666" y="529.3680292862134" width="1" height="5.831970713786518" fill="#f85149" opacity="0.45"/>
<rect x="508.5766208251473" y="531.8348874511355" width="1" height="3.365112548864431" fill="#3fb950" opacity="0.45"/>
<rect x="510.22691552062867" y="528.8904955300974" width="1" height="6.309504469902549" fill="#3fb950" opacity="0.45"/>
<rect x="511.87721021611003" y="527.9856626736075" width="1" height="7.21433732639241" fill="#3fb950" opacity="0.45"/>
<rect x="513.5275049115914" y="528.99287118953" width="1" height="6.207128810469953" fill="#f85149" opacity="0.45"/>
<rect x="515.1777996070728" y="528.288600810384" width="1" height="6.911399189615963" fill="#3fb950" opacity="0.45"/>
<rect x="516.8280943025541" y="528.7417183734076" width="1" height="6.458281626592338" fill="#3fb950" opacity="0.45"/>
<rect x="518.4783889980354" y="528.6939500418068" width="1" height="6.506049958193103" fill="#3fb950" opacity="0.45"/>
<rect x="520.1286836935167" y="529.802704567348" width="1" height="5.397295432651958" fill="#3fb950" opacity="0.45"/>
<rect x="521.778978388998" y="530.1897499304861" width="1" height="5.010250069513859" fill="#f85149" opacity="0.45"/>
<rect x="523.4292730844793" y="530.4686392025819" width="1" height="4.731360797418006" fill="#3fb950" opacity="0.45"/>
<rect x="525.0795677799606" y="530.9830959522149" width="1" height="4.2169040477850785" fill="#f85149" opacity="0.45"/>
<rect x="526.7298624754421" y="529.8398321867464" width="1" height="5.360167813253497" fill="#3fb950" opacity="0.45"/>
<rect x="528.3801571709234" y="529.2575366337841" width="1" height="5.942463366215861" fill="#3fb950" opacity="0.45"/>
<rect x="530.0304518664047" y="531.3901489020545" width="1" height="3.8098510979453977" fill="#f85149" opacity="0.45"/>
<rect x="531.680746561886" y="529.6994563365749" width="1" height="5.500543663424992" fill="#f85149" opacity="0.45"/>
<rect x="533.3310412573674" y="528.6827654905745" width="1" height="6.517234509425407" fill="#3fb950" opacity="0.45"/>
<rect x="534.9813359528488" y="530.3528620451713" width="1" height="4.847137954828668" fill="#3fb950" opacity="0.45"/>
<rect x="536.6316306483301" y="530.7743991801736" width="1" height="4.425600819826286" fill="#3fb950" opacity="0.45"/>
<rect x="538.2819253438114" y="528.1960451969151" width="1" height="7.003954803084866" fill="#3fb950" opacity="0.45"/>
<rect x="539.9322200392927" y="527.7530809039532" width="1" height="7.446919096046713" fill="#3fb950" opacity="0.45"/>
<rect x="541.5825147347741" y="509.3230391361929" width="1" height="25.876960863807028" fill="#3fb950" opacity="0.45"/>
<rect x="543.2328094302554" y="513.9849673774805" width="1" height="21.215032622519402" fill="#3fb950" opacity="0.45"/>
<rect x="544.8831041257367" y="522.4462783560668" width="1" height="12.75372164393309" fill="#f85149" opacity="0.45"/>
<rect x="546.533398821218" y="528.320169925755" width="1" height="6.879830074244978" fill="#f85149" opacity="0.45"/>
<rect x="548.1836935166993" y="528.4903795640043" width="1" height="6.709620435995589" fill="#3fb950" opacity="0.45"/>
<rect x="549.8339882121808" y="528.2200290138562" width="1" height="6.979970986143712" fill="#3fb950" opacity="0.45"/>
<rect x="551.4842829076621" y="524.331011655957" width="1" height="10.868988344042918" fill="#3fb950" opacity="0.45"/>
<rect x="553.1345776031435" y="525.0834829092177" width="1" height="10.116517090782281" fill="#3fb950" opacity="0.45"/>
<rect x="554.7848722986248" y="520.8828569334901" width="1" height="14.317143066509857" fill="#3fb950" opacity="0.45"/>
<rect x="556.4351669941061" y="521.7365414713587" width="1" height="13.46345852864124" fill="#f85149" opacity="0.45"/>
<rect x="558.0854616895874" y="526.3794519828514" width="1" height="8.820548017148553" fill="#3fb950" opacity="0.45"/>
<rect x="559.7357563850687" y="527.4159589323098" width="1" height="7.784041067690168" fill="#f85149" opacity="0.45"/>
<rect x="561.38605108055" y="528.9130599421431" width="1" height="6.286940057856782" fill="#3fb950" opacity="0.45"/>
<rect x="563.0363457760313" y="528.4116792854279" width="1" height="6.7883207145720235" fill="#f85149" opacity="0.45"/>
<rect x="564.6866404715129" y="526.1754078709963" width="1" height="9.024592129003622" fill="#3fb950" opacity="0.45"/>
<rect x="566.3369351669942" y="526.9941893888875" width="1" height="8.205810611112383" fill="#3fb950" opacity="0.45"/>
<rect x="567.9872298624755" y="525.1455832042888" width="1" height="10.054416795711177" fill="#3fb950" opacity="0.45"/>
<rect x="569.6375245579568" y="528.919627601128" width="1" height="6.2803723988719184" fill="#3fb950" opacity="0.45"/>
<rect x="571.2878192534381" y="528.9913030565549" width="1" height="6.208696943445034" fill="#3fb950" opacity="0.45"/>
<rect x="572.9381139489194" y="527.4221589301578" width="1" height="7.777841069842111" fill="#3fb950" opacity="0.45"/>
<rect x="574.5884086444008" y="528.5012327211259" width="1" height="6.698767278874016" fill="#3fb950" opacity="0.45"/>
<rect x="576.2387033398821" y="528.6160854020947" width="1" height="6.583914597905277" fill="#3fb950" opacity="0.45"/>
<rect x="577.8889980353634" y="528.1704120620963" width="1" height="7.0295879379036705" fill="#f85149" opacity="0.45"/>
<rect x="579.5392927308447" y="526.9039723331558" width="1" height="8.296027666844111" fill="#f85149" opacity="0.45"/>
<rect x="581.1895874263262" y="527.9380856588878" width="1" height="7.261914341112174" fill="#3fb950" opacity="0.45"/>
<rect x="582.8398821218075" y="526.8784491639531" width="1" height="8.321550836046868" fill="#3fb950" opacity="0.45"/>
<rect x="584.4901768172888" y="525.4517539309061" width="1" height="9.748246069093852" fill="#3fb950" opacity="0.45"/>
<rect x="586.1404715127701" y="527.426233147913" width="1" height="7.773766852086965" fill="#f85149" opacity="0.45"/>
<rect x="587.7907662082515" y="527.5836338714282" width="1" height="7.616366128571713" fill="#3fb950" opacity="0.45"/>
<rect x="589.4410609037328" y="527.7188237032215" width="1" height="7.481176296778472" fill="#3fb950" opacity="0.45"/>
<rect x="591.0913555992141" y="516.2176588371603" width="1" height="18.98234116283959" fill="#3fb950" opacity="0.45"/>
<rect x="592.7416502946954" y="498.9836195790406" width="1" height="36.216380420959354" fill="#3fb950" opacity="0.45"/>
<rect x="594.3919449901767" y="511.80898706587476" width="1" height="23.391012934125172" fill="#3fb950" opacity="0.45"/>
<rect x="596.0422396856582" y="519.1483619521738" width="1" height="16.051638047826145" fill="#3fb950" opacity="0.45"/>
<rect x="597.6925343811395" y="522.0137469885383" width="1" height="13.186253011461645" fill="#f85149" opacity="0.45"/>
<rect x="599.3428290766208" y="525.0432037185185" width="1" height="10.156796281481434" fill="#f85149" opacity="0.45"/>
<rect x="600.9931237721021" y="525.0817073221984" width="1" height="10.118292677801492" fill="#f85149" opacity="0.45"/>
<rect x="602.6434184675835" y="527.8207538438648" width="1" height="7.379246156135082" fill="#f85149" opacity="0.45"/>
<rect x="604.2937131630648" y="525.3484170289178" width="1" height="9.851582971082166" fill="#f85149" opacity="0.45"/>
<rect x="605.9440078585462" y="527.6997988198389" width="1" height="7.500201180161071" fill="#3fb950" opacity="0.45"/>
<rect x="607.5943025540275" y="526.5109708596024" width="1" height="8.689029140397565" fill="#3fb950" opacity="0.45"/>
<rect x="609.2445972495088" y="527.7243858672242" width="1" height="7.475614132775718" fill="#f85149" opacity="0.45"/>
<rect x="610.8948919449903" y="529.817512493946" width="1" height="5.3824875060539625" fill="#3fb950" opacity="0.45"/>
<rect x="612.5451866404716" y="528.1681104368353" width="1" height="7.031889563164668" fill="#3fb950" opacity="0.45"/>
<rect x="614.1954813359529" y="527.5335331375029" width="1" height="7.666466862497032" fill="#3fb950" opacity="0.45"/>
<rect x="615.8457760314342" y="528.1129882170495" width="1" height="7.0870117829504125" fill="#f85149" opacity="0.45"/>
<rect x="617.4960707269155" y="518.1501800994271" width="1" height="17.049819900572857" fill="#3fb950" opacity="0.45"/>
<rect x="619.1463654223969" y="526.438011584722" width="1" height="8.761988415277983" fill="#f85149" opacity="0.45"/>
<rect x="620.7966601178782" y="520.273241995355" width="1" height="14.926758004644967" fill="#3fb950" opacity="0.45"/>
<rect x="622.4469548133595" y="519.8650760803548" width="1" height="15.33492391964512" fill="#3fb950" opacity="0.45"/>
<rect x="624.0972495088408" y="524.6436961401074" width="1" height="10.556303859892523" fill="#f85149" opacity="0.45"/>
<rect x="625.7475442043223" y="519.1857863622816" width="1" height="16.014213637718285" fill="#3fb950" opacity="0.45"/>
<rect x="627.3978388998036" y="525.3588213400001" width="1" height="9.841178659999855" fill="#3fb950" opacity="0.45"/>
<rect x="629.0481335952849" y="526.1876927438386" width="1" height="9.012307256161307" fill="#f85149" opacity="0.45"/>
<rect x="630.6984282907662" y="528.2586126379011" width="1" height="6.941387362098794" fill="#f85149" opacity="0.45"/>
<rect x="632.3487229862475" y="528.7658567411162" width="1" height="6.434143258883751" fill="#3fb950" opacity="0.45"/>
<rect x="633.9990176817289" y="530.1684532007308" width="1" height="5.031546799269108" fill="#f85149" opacity="0.45"/>
<rect x="635.6493123772102" y="528.8383919579705" width="1" height="6.361608042029388" fill="#3fb950" opacity="0.45"/>
<rect x="637.2996070726915" y="529.163274972823" width="1" height="6.036725027176885" fill="#3fb950" opacity="0.45"/>
<rect x="638.9499017681728" y="527.9821712237084" width="1" height="7.217828776291526" fill="#3fb950" opacity="0.45"/>
<rect x="640.6001964636541" y="527.9793317484678" width="1" height="7.2206682515321745" fill="#f85149" opacity="0.45"/>
<rect x="642.2504911591355" y="527.168675042611" width="1" height="8.03132495738896" fill="#3fb950" opacity="0.45"/>
<rect x="643.9007858546169" y="516.4479198498655" width="1" height="18.752080150134475" fill="#3fb950" opacity="0.45"/>
<rect x="645.5510805500983" y="496.4107983136212" width="1" height="38.7892016863787" fill="#3fb950" opacity="0.45"/>
<rect x="647.2013752455796" y="493.52098710241404" width="1" height="41.67901289758589" fill="#3fb950" opacity="0.45"/>
<rect x="648.8516699410609" y="496.96177462769566" width="1" height="38.23822537230427" fill="#f85149" opacity="0.45"/>
<rect x="650.5019646365423" y="507.079811772689" width="1" height="28.120188227310905" fill="#f85149" opacity="0.45"/>
<rect x="652.1522593320236" y="518.6631921570638" width="1" height="16.536807842936128" fill="#f85149" opacity="0.45"/>
<rect x="653.8025540275049" y="518.6065931373184" width="1" height="16.59340686268149" fill="#3fb950" opacity="0.45"/>
<rect x="655.4528487229862" y="520.2090951087436" width="1" height="14.990904891256378" fill="#3fb950" opacity="0.45"/>
<rect x="657.1031434184677" y="517.4798049162013" width="1" height="17.72019508379867" fill="#3fb950" opacity="0.45"/>
<rect x="658.753438113949" y="517.2202710897861" width="1" height="17.979728910213794" fill="#3fb950" opacity="0.45"/>
<rect x="660.4037328094303" y="517.9270290874741" width="1" height="17.272970912525807" fill="#f85149" opacity="0.45"/>
<rect x="662.0540275049116" y="523.2616892032379" width="1" height="11.938310796762039" fill="#f85149" opacity="0.45"/>
<rect x="663.704322200393" y="525.0802982317784" width="1" height="10.11970176822149" fill="#f85149" opacity="0.45"/>
<rect x="665.3546168958743" y="516.8809709338606" width="1" height="18.319029066139365" fill="#3fb950" opacity="0.45"/>
<rect x="667.0049115913556" y="518.569811219206" width="1" height="16.6301887807939" fill="#3fb950" opacity="0.45"/>
<rect x="668.6552062868369" y="519.2564218856879" width="1" height="15.943578114312004" fill="#f85149" opacity="0.45"/>
<rect x="670.3055009823182" y="500.72385356770263" width="1" height="34.4761464322973" fill="#3fb950" opacity="0.45"/>
<rect x="671.9557956777996" y="503.94615471931786" width="1" height="31.25384528068207" fill="#f85149" opacity="0.45"/>
<rect x="673.606090373281" y="510.71503065154377" width="1" height="24.48496934845616" fill="#3fb950" opacity="0.45"/>
<rect x="675.2563850687623" y="517.9326120467899" width="1" height="17.267387953210005" fill="#f85149" opacity="0.45"/>
<rect x="676.9066797642436" y="523.4206439189153" width="1" height="11.779356081084643" fill="#f85149" opacity="0.45"/>
<rect x="678.5569744597249" y="501.28088880422064" width="1" height="33.919111195779294" fill="#3fb950" opacity="0.45"/>
<rect x="680.2072691552063" y="502.8417114781019" width="1" height="32.35828852189803" fill="#f85149" opacity="0.45"/>
<rect x="681.8575638506876" y="513.364519744812" width="1" height="21.835480255187917" fill="#f85149" opacity="0.45"/>
<rect x="683.5078585461689" y="515.4677893271203" width="1" height="19.73221067287966" fill="#f85149" opacity="0.45"/>
<rect x="685.1581532416502" y="520.3391940815117" width="1" height="14.860805918488268" fill="#3fb950" opacity="0.45"/>
<rect x="686.8084479371316" y="519.9409926151297" width="1" height="15.259007384870188" fill="#f85149" opacity="0.45"/>
<rect x="688.4587426326129" y="519.8814982223419" width="1" height="15.31850177765807" fill="#f85149" opacity="0.45"/>
<rect x="690.1090373280944" y="525.6371498040905" width="1" height="9.562850195909391" fill="#3fb950" opacity="0.45"/>
<rect x="691.7593320235757" y="517.2529708047431" width="1" height="17.947029195256846" fill="#3fb950" opacity="0.45"/>
<rect x="693.409626719057" y="525.610083289926" width="1" height="9.589916710073908" fill="#f85149" opacity="0.45"/>
<rect x="695.0599214145384" y="525.5416109781763" width="1" height="9.65838902182361" fill="#3fb950" opacity="0.45"/>
<rect x="696.7102161100197" y="528.0887576845131" width="1" height="7.111242315486834" fill="#3fb950" opacity="0.45"/>
<rect x="698.360510805501" y="527.2410916429992" width="1" height="7.958908357000723" fill="#3fb950" opacity="0.45"/>
<rect x="700.0108055009823" y="526.1822793079158" width="1" height="9.01772069208414" fill="#f85149" opacity="0.45"/>
<rect x="701.6611001964636" y="528.2618844892932" width="1" height="6.93811551070678" fill="#3fb950" opacity="0.45"/>
<rect x="703.311394891945" y="524.9136035005413" width="1" height="10.286396499458647" fill="#3fb950" opacity="0.45"/>
<rect x="704.9616895874263" y="516.5062972847927" width="1" height="18.693702715207223" fill="#3fb950" opacity="0.45"/>
<rect x="706.6119842829077" y="510.31467778524313" width="1" height="24.885322214756798" fill="#3fb950" opacity="0.45"/>
<rect x="708.262278978389" y="519.1806010093536" width="1" height="16.019398990646323" fill="#f85149" opacity="0.45"/>
<rect x="709.9125736738704" y="521.6285252911833" width="1" height="13.571474708816595" fill="#f85149" opacity="0.45"/>
<rect x="711.5628683693517" y="522.993662404564" width="1" height="12.206337595435912" fill="#f85149" opacity="0.45"/>
<rect x="713.213163064833" y="524.4193135465275" width="1" height="10.780686453472413" fill="#f85149" opacity="0.45"/>
<rect x="714.8634577603143" y="523.6246100067555" width="1" height="11.575389993244471" fill="#f85149" opacity="0.45"/>
<rect x="716.5137524557956" y="525.997703102795" width="1" height="9.202296897204974" fill="#3fb950" opacity="0.45"/>
<rect x="718.164047151277" y="528.6259966147112" width="1" height="6.574003385288734" fill="#f85149" opacity="0.45"/>
<rect x="719.8143418467583" y="525.7176419732117" width="1" height="9.482358026788233" fill="#3fb950" opacity="0.45"/>
<rect x="721.4646365422396" y="523.3798786169757" width="1" height="11.82012138302423" fill="#3fb950" opacity="0.45"/>
<rect x="723.114931237721" y="507.8789412205526" width="1" height="27.321058779447355" fill="#3fb950" opacity="0.45"/>
<rect x="724.7652259332023" y="485.5700190614293" width="1" height="49.62998093857061" fill="#3fb950" opacity="0.45"/>
<rect x="726.4155206286837" y="507.5506507688662" width="1" height="27.649349231133726" fill="#3fb950" opacity="0.45"/>
<rect x="728.065815324165" y="436.2" width="1" height="98.99999999999994" fill="#3fb950" opacity="0.45"/>
<rect x="729.7161100196464" y="466.0571610117813" width="1" height="69.14283898821861" fill="#f85149" opacity="0.45"/>
<rect x="731.3664047151277" y="479.0341541141213" width="1" height="56.16584588587864" fill="#f85149" opacity="0.45"/>
<rect x="733.016699410609" y="486.75667416098383" width="1" height="48.4433258390161" fill="#3fb950" opacity="0.45"/>
<rect x="734.6669941060904" y="497.77663065591156" width="1" height="37.42336934408837" fill="#f85149" opacity="0.45"/>
<rect x="736.3172888015717" y="510.79560533646753" width="1" height="24.4043946635324" fill="#3fb950" opacity="0.45"/>
<rect x="737.967583497053" y="509.4339011133841" width="1" height="25.76609888661585" fill="#3fb950" opacity="0.45"/>
<rect x="739.6178781925344" y="512.3008893852123" width="1" height="22.899110614787674" fill="#f85149" opacity="0.45"/>
<rect x="741.2681728880158" y="518.2246093534045" width="1" height="16.97539064659543" fill="#3fb950" opacity="0.45"/>
<rect x="742.9184675834971" y="508.7357784942594" width="1" height="26.46422150574051" fill="#3fb950" opacity="0.45"/>
<rect x="744.5687622789784" y="512.1536121528704" width="1" height="23.046387847129495" fill="#f85149" opacity="0.45"/>
<rect x="746.2190569744597" y="511.00172249150137" width="1" height="24.198277508498563" fill="#3fb950" opacity="0.45"/>
<rect x="747.8693516699411" y="519.6480069488711" width="1" height="15.551993051128875" fill="#3fb950" opacity="0.45"/>
<rect x="749.5196463654224" y="515.1009984326416" width="1" height="20.0990015673583" fill="#f85149" opacity="0.45"/>
<rect x="751.1699410609037" y="517.4053074535966" width="1" height="17.794692546403326" fill="#3fb950" opacity="0.45"/>
<rect x="752.820235756385" y="521.105807145899" width="1" height="14.094192854100925" fill="#f85149" opacity="0.45"/>
<rect x="754.4705304518664" y="524.7098129251443" width="1" height="10.490187074855612" fill="#f85149" opacity="0.45"/>
<rect x="756.1208251473478" y="524.7952191099473" width="1" height="10.40478089005262" fill="#3fb950" opacity="0.45"/>
<rect x="757.7711198428291" y="521.3012602979798" width="1" height="13.89873970202018" fill="#3fb950" opacity="0.45"/>
<rect x="759.4214145383104" y="524.2137834847749" width="1" height="10.98621651522501" fill="#f85149" opacity="0.45"/>
<rect x="761.0717092337917" y="526.0322629169239" width="1" height="9.167737083076076" fill="#3fb950" opacity="0.45"/>
<rect x="762.722003929273" y="525.0558519270726" width="1" height="10.14414807292735" fill="#3fb950" opacity="0.45"/>
<rect x="764.3722986247544" y="516.7300478672148" width="1" height="18.469952132785124" fill="#3fb950" opacity="0.45"/>
<rect x="766.0225933202357" y="518.1436422193307" width="1" height="17.05635778066926" fill="#f85149" opacity="0.45"/>
<rect x="767.672888015717" y="517.2701132963782" width="1" height="17.92988670362172" fill="#f85149" opacity="0.45"/>
<rect x="769.3231827111983" y="522.9483630589045" width="1" height="12.251636941095398" fill="#3fb950" opacity="0.45"/>
<rect x="770.9734774066798" y="524.2786939752858" width="1" height="10.921306024714113" fill="#3fb950" opacity="0.45"/>
<rect x="772.6237721021611" y="512.6042302856142" width="1" height="22.59576971438571" fill="#f85149" opacity="0.45"/>
<rect x="774.2740667976425" y="524.6495471094192" width="1" height="10.550452890580686" fill="#f85149" opacity="0.45"/>
<rect x="775.9243614931238" y="525.122311917958" width="1" height="10.07768808204196" fill="#3fb950" opacity="0.45"/>
<rect x="777.5746561886051" y="528.587296703275" width="1" height="6.612703296724931" fill="#f85149" opacity="0.45"/>
<rect x="779.2249508840865" y="524.935619748132" width="1" height="10.26438025186792" fill="#3fb950" opacity="0.45"/>
<rect x="780.8752455795678" y="528.7618202876497" width="1" height="6.438179712350234" fill="#f85149" opacity="0.45"/>
<rect x="782.5255402750491" y="527.5120226319283" width="1" height="7.687977368071643" fill="#f85149" opacity="0.45"/>
<rect x="784.1758349705304" y="527.350441052292" width="1" height="7.849558947707919" fill="#f85149" opacity="0.45"/>
<rect x="785.8261296660118" y="509.17348606477833" width="1" height="26.0265139352216" fill="#3fb950" opacity="0.45"/>
<rect x="787.4764243614932" y="516.1609417000362" width="1" height="19.0390582999637" fill="#f85149" opacity="0.45"/>
<rect x="789.1267190569745" y="524.0898665427043" width="1" height="11.11013345729566" fill="#3fb950" opacity="0.45"/>
<rect x="790.7770137524558" y="516.6708517623989" width="1" height="18.52914823760102" fill="#3fb950" opacity="0.45"/>
<rect x="792.4273084479371" y="489.51475488233325" width="1" height="45.68524511766668" fill="#3fb950" opacity="0.45"/>
<rect x="794.0776031434185" y="506.189628132967" width="1" height="29.010371867032916" fill="#f85149" opacity="0.45"/>
<rect x="795.7278978388998" y="513.0529811655983" width="1" height="22.147018834401592" fill="#f85149" opacity="0.45"/>
<rect x="797.3781925343811" y="523.5085786474366" width="1" height="11.691421352563339" fill="#f85149" opacity="0.45"/>
<rect x="799.0284872298624" y="522.8120610937632" width="1" height="12.38793890623674" fill="#f85149" opacity="0.45"/>
<rect x="800.6787819253437" y="525.6284843139138" width="1" height="9.571515686086173" fill="#3fb950" opacity="0.45"/>
<rect x="802.3290766208252" y="527.042651951223" width="1" height="8.157348048776953" fill="#f85149" opacity="0.45"/>
<rect x="803.9793713163065" y="527.3661729562446" width="1" height="7.833827043755377" fill="#3fb950" opacity="0.45"/>
<rect x="805.6296660117878" y="528.2058845409293" width="1" height="6.994115459070599" fill="#f85149" opacity="0.45"/>
<rect x="807.2799607072691" y="527.9413207441661" width="1" height="7.25867925583384" fill="#3fb950" opacity="0.45"/>
<rect x="808.9302554027505" y="529.0063359052601" width="1" height="6.193664094739802" fill="#f85149" opacity="0.45"/>
<rect x="810.5805500982318" y="529.1441665754628" width="1" height="6.055833424537127" fill="#3fb950" opacity="0.45"/>
<rect x="812.2308447937131" y="526.408179127544" width="1" height="8.7918208724559" fill="#f85149" opacity="0.45"/>
<rect x="813.8811394891945" y="527.5603931957984" width="1" height="7.639606804201549" fill="#f85149" opacity="0.45"/>
<rect x="815.5314341846758" y="524.8118037881021" width="1" height="10.38819621189782" fill="#f85149" opacity="0.45"/>
<rect x="817.1817288801572" y="525.0438358960388" width="1" height="10.156164103961146" fill="#3fb950" opacity="0.45"/>
<rect x="818.8320235756386" y="527.262624940237" width="1" height="7.937375059762985" fill="#3fb950" opacity="0.45"/>
<rect x="820.4823182711199" y="528.0433086125988" width="1" height="7.156691387401111" fill="#3fb950" opacity="0.45"/>
<rect x="822.1326129666012" y="528.0624060300338" width="1" height="7.137593969966133" fill="#3fb950" opacity="0.45"/>
<rect x="823.7829076620825" y="528.9403899745162" width="1" height="6.2596100254837665" fill="#3fb950" opacity="0.45"/>
<rect x="825.4332023575639" y="527.678531868972" width="1" height="7.521468131027973" fill="#f85149" opacity="0.45"/>
<rect x="827.0834970530452" y="529.5298940148338" width="1" height="5.670105985166174" fill="#3fb950" opacity="0.45"/>
<rect x="828.7337917485265" y="526.1452767931213" width="1" height="9.054723206878634" fill="#3fb950" opacity="0.45"/>
<rect x="830.3840864440078" y="527.27790334" width="1" height="7.922096659999966" fill="#f85149" opacity="0.45"/>
<rect x="832.0343811394893" y="527.0377415955162" width="1" height="8.162258404483737" fill="#3fb950" opacity="0.45"/>
<rect x="833.6846758349706" y="527.8048367784439" width="1" height="7.395163221556004" fill="#3fb950" opacity="0.45"/>
<rect x="835.3349705304519" y="528.8070446038193" width="1" height="6.392955396180582" fill="#f85149" opacity="0.45"/>
<rect x="836.9852652259332" y="529.3548367395421" width="1" height="5.845163260457866" fill="#3fb950" opacity="0.45"/>
<rect x="838.6355599214145" y="529.6354397118051" width="1" height="5.564560288194798" fill="#f85149" opacity="0.45"/>
<rect x="840.2858546168959" y="529.5293243896156" width="1" height="5.6706756103843645" fill="#3fb950" opacity="0.45"/>
<rect x="841.9361493123772" y="529.9487395708627" width="1" height="5.251260429137233" fill="#3fb950" opacity="0.45"/>
<rect x="843.5864440078585" y="529.463892851738" width="1" height="5.736107148261908" fill="#3fb950" opacity="0.45"/>
<rect x="845.2367387033398" y="530.4442965417169" width="1" height="4.755703458283051" fill="#3fb950" opacity="0.45"/>
<rect x="846.8870333988211" y="527.6092605181093" width="1" height="7.590739481890637" fill="#3fb950" opacity="0.45"/>
<rect x="848.5373280943026" y="525.7662324683138" width="1" height="9.433767531686158" fill="#3fb950" opacity="0.45"/>
<rect x="850.1876227897839" y="528.9941461917707" width="1" height="6.205853808229222" fill="#f85149" opacity="0.45"/>
<rect x="851.8379174852652" y="529.048878790569" width="1" height="6.151121209430926" fill="#f85149" opacity="0.45"/>
<rect x="853.4882121807465" y="530.3556580997981" width="1" height="4.844341900201812" fill="#f85149" opacity="0.45"/>
<rect x="855.1385068762279" y="530.0432494446815" width="1" height="5.156750555318467" fill="#f85149" opacity="0.45"/>
<rect x="856.7888015717092" y="530.7621387626195" width="1" height="4.437861237380389" fill="#3fb950" opacity="0.45"/>
<rect x="858.4390962671906" y="530.1687237061644" width="1" height="5.031276293835504" fill="#3fb950" opacity="0.45"/>
<rect x="860.0893909626719" y="530.2328566183255" width="1" height="4.967143381674418" fill="#f85149" opacity="0.45"/>
<rect x="861.7396856581532" y="530.3230520469316" width="1" height="4.876947953068338" fill="#3fb950" opacity="0.45"/>
<rect x="863.3899803536347" y="530.3346549998647" width="1" height="4.865345000135221" fill="#3fb950" opacity="0.45"/>
<rect x="865.040275049116" y="529.1279946426837" width="1" height="6.072005357316243" fill="#3fb950" opacity="0.45"/>
<rect x="866.6905697445973" y="527.9139526147794" width="1" height="7.286047385220513" fill="#f85149" opacity="0.45"/>
<rect x="868.3408644400786" y="530.4743306302512" width="1" height="4.7256693697487435" fill="#f85149" opacity="0.45"/>
<rect x="869.99115913556" y="530.9819492154658" width="1" height="4.218050784534171" fill="#3fb950" opacity="0.45"/>
<rect x="871.6414538310413" y="530.6664713384887" width="1" height="4.533528661511241" fill="#f85149" opacity="0.45"/>
<rect x="873.2917485265226" y="530.1567669001826" width="1" height="5.043233099817371" fill="#f85149" opacity="0.45"/>
<rect x="874.9420432220039" y="524.5550796580393" width="1" height="10.644920341960642" fill="#3fb950" opacity="0.45"/>
<rect x="876.5923379174852" y="528.602836458534" width="1" height="6.597163541465989" fill="#f85149" opacity="0.45"/>
<rect x="878.2426326129666" y="529.1068203557323" width="1" height="6.093179644267593" fill="#3fb950" opacity="0.45"/>
<rect x="879.892927308448" y="524.7769197334503" width="1" height="10.423080266549618" fill="#3fb950" opacity="0.45"/>
<rect x="881.5432220039293" y="528.4410820282546" width="1" height="6.758917971745291" fill="#f85149" opacity="0.45"/>
<rect x="883.1935166994106" y="529.3344618244287" width="1" height="5.86553817557126" fill="#f85149" opacity="0.45"/>
<rect x="884.8438113948919" y="526.7482869734329" width="1" height="8.451713026567063" fill="#3fb950" opacity="0.45"/>
<rect x="886.4941060903733" y="527.4052970920693" width="1" height="7.794702907930628" fill="#3fb950" opacity="0.45"/>
<rect x="888.1444007858546" y="527.1901203340835" width="1" height="8.0098796659164" fill="#3fb950" opacity="0.45"/>
<rect x="889.7946954813359" y="528.4182535989129" width="1" height="6.781746401087048" fill="#f85149" opacity="0.45"/>
<rect x="891.4449901768172" y="529.2023285709456" width="1" height="5.997671429054321" fill="#3fb950" opacity="0.45"/>
<rect x="893.0952848722986" y="529.4961284153052" width="1" height="5.7038715846947525" fill="#f85149" opacity="0.45"/>
<rect x="894.7455795677799" y="527.0971235272505" width="1" height="8.102876472749472" fill="#3fb950" opacity="0.45"/>
<rect x="896.3958742632612" y="522.4456899318855" width="1" height="12.754310068114478" fill="#3fb950" opacity="0.45"/>
<rect x="898.0461689587427" y="524.6461321862727" width="1" height="10.553867813727265" fill="#3fb950" opacity="0.45"/>
<rect x="899.696463654224" y="525.1479129448132" width="1" height="10.05208705518669" fill="#f85149" opacity="0.45"/>
<rect x="901.3467583497054" y="527.3786824184691" width="1" height="7.8213175815308205" fill="#f85149" opacity="0.45"/>
<rect x="902.9970530451867" y="529.331714514016" width="1" height="5.868285485983961" fill="#3fb950" opacity="0.45"/>
<rect x="904.647347740668" y="529.6749800866181" width="1" height="5.525019913381811" fill="#f85149" opacity="0.45"/>
<rect x="906.2976424361493" y="523.8947634173347" width="1" height="11.305236582665202" fill="#3fb950" opacity="0.45"/>
<rect x="907.9479371316306" y="526.8499665721432" width="1" height="8.350033427856715" fill="#3fb950" opacity="0.45"/>
<rect x="909.598231827112" y="527.9423849651125" width="1" height="7.257615034887408" fill="#f85149" opacity="0.45"/>
<rect x="911.2485265225934" y="523.7384951233931" width="1" height="11.461504876606796" fill="#3fb950" opacity="0.45"/>
<rect x="912.8988212180747" y="528.1417677659313" width="1" height="7.058232234068669" fill="#f85149" opacity="0.45"/>
<rect x="914.549115913556" y="523.6011873305447" width="1" height="11.598812669455242" fill="#3fb950" opacity="0.45"/>
<rect x="916.1994106090374" y="527.6024735933426" width="1" height="7.59752640665738" fill="#f85149" opacity="0.45"/>
<rect x="917.8497053045187" y="526.482860087992" width="1" height="8.717139912007951" fill="#f85149" opacity="0.45"/>
<rect x="919.5" y="525.9658531675151" width="1" height="9.23414683248484" fill="#3fb950" opacity="0.45"/>
<polyline points="80.0,365.07440922931767 81.65029469548134,365.7691812840417 83.30058939096267,367.1587253934897 84.950884086444,362.9900930651456 86.60117878192534,364.37963717459365 88.25147347740668,365.07440922931767 89.90176817288801,365.07440922931767 91.55206286836935,366.4639533387657 93.20235756385068,367.8534974482137 94.85265225933202,369.2430415576618 96.50294695481335,371.32735772183383 98.15324165029469,373.41167388600593 99.80353634577602,373.41167388600593 101.45383104125736,377.58030621435006 103.10412573673871,377.58030621435006 104.75442043222004,375.49599005017797 106.40471512770137,377.58030621435006 108.05500982318271,362.9900930651456 109.70530451866405,347.0103358064931 111.35559921414539,340.06261525925294 113.00589390962672,344.231247587597 114.65618860510806,351.17896813483725 116.30648330058939,353.2632842990093 117.95677799607073,350.4841960801132 119.60707269155206,357.4319166273534 121.2573673870334,362.29532101042156 122.90766208251473,358.8214607368015 124.55795677799607,362.9900930651456 126.20825147347742,362.29532101042156 127.85854616895874,361.60054895569755 129.5088408644401,360.90577690097354 131.15913555992142,360.2110048462495 132.80943025540273,365.07440922931767 134.4597249508841,365.07440922931767 136.11001964636543,369.9378136123858 137.76031434184677,370.6325856671098 139.4106090373281,373.41167388600593 141.06090373280944,370.6325856671098 142.71119842829077,370.6325856671098 144.3614931237721,372.71690183128186 146.01178781925344,372.0221297765579 147.66208251473478,372.0221297765579 149.3123772102161,371.32735772183383 150.96267190569745,369.9378136123858 152.61296660117878,369.9378136123858 154.26326129666012,371.32735772183383 155.91355599214145,372.71690183128186 157.5638506876228,374.10644594072994 159.21414538310412,372.71690183128186 160.86444007858546,372.0221297765579 162.5147347740668,370.6325856671098 164.16502946954813,365.7691812840417 165.81532416502947,366.4639533387657 167.4656188605108,367.1587253934897 169.11591355599214,369.2430415576618 170.76620825147347,367.1587253934897 172.41650294695484,369.2430415576618 174.06679764243614,367.8534974482137 175.71709233791748,369.2430415576618 177.3673870333988,372.0221297765579 179.01768172888018,370.6325856671098 180.66797642436148,373.41167388600593 182.31827111984285,371.32735772183383 183.96856581532415,373.41167388600593 185.6188605108055,373.41167388600593 187.26915520628683,374.80121799545395 188.9194499017682,376.190762104902 190.5697445972495,377.58030621435006 192.22003929273086,378.275078269074 193.8703339882122,376.885534159626 195.52062868369353,376.885534159626 197.17092337917484,376.885534159626 198.8212180746562,375.49599005017797 200.4715127701375,373.41167388600593 202.12180746561887,373.41167388600593 203.7721021611002,374.10644594072994 205.42239685658154,375.49599005017797 207.07269155206288,375.49599005017797 208.72298624754418,378.275078269074 210.37328094302552,378.9698503237981 212.02357563850688,378.9698503237981 213.67387033398822,379.6646223785221 215.32416502946955,378.9698503237981 216.9744597249509,377.58030621435006 218.62475442043223,379.6646223785221 220.27504911591353,375.49599005017797 221.9253438113949,376.885534159626 223.57563850687623,375.49599005017797 225.22593320235757,370.6325856671098 226.8762278978389,369.2430415576618 228.52652259332024,362.9900930651456 230.17681728880157,358.12668868207743 231.8271119842829,342.841703478149 233.47740667976424,335.89398293090875 235.12770137524558,353.9580563537333 236.7779960707269,351.17896813483725 238.42829076620825,356.0423725179054 240.07858546168958,353.2632842990093 241.72888015717092,356.7371445726294 243.37917485265226,355.3476004631814 245.0294695481336,359.51623279152545 246.67976424361493,351.17896813483725 248.33005893909626,353.2632842990093 249.9803536345776,354.65282840845737 251.63064833005893,351.87374018956126 253.28094302554027,352.5685122442852 254.93123772102163,347.0103358064931 256.5815324165029,337.28352704035683 258.2318271119843,340.7573873139769 259.88212180746564,339.36784320452887 261.53241650294694,332.4201226572887 263.18271119842825,335.89398293090875 264.8330058939097,333.80966676673665 266.483300589391,315.05082128918815 268.1335952848723,313.6612771797401 269.7838899803536,307.40832868722396 271.43418467583496,308.797872796672 273.0844793713163,305.3240125230518 274.7347740667976,311.57696101556803 276.385068762279,312.27173307029204 278.03536345776035,319.2194536175322 279.68565815324166,325.47240211004845 281.33595284872297,324.0828580006004 282.9862475442043,318.5246815628082 284.6365422396857,317.8299095080842 286.286836935167,319.2194536175322 287.9371316306483,318.5246815628082 289.5874263261297,307.40832868722396 291.237721021611,312.27173307029204 292.88801571709234,310.18741690612 294.53831041257365,310.882188960844 296.188605108055,314.3560492344641 297.8388998035364,308.10310074194797 299.4891944990177,304.6292404683278 301.139489194499,312.27173307029204 302.7897838899803,308.10310074194797 304.4400785854617,301.15538019470773 306.090373280943,303.23969635887977 307.7406679764244,304.6292404683278 309.3909626719057,291.4285714285714 311.04125736738706,296.9867478663636 312.69155206286837,309.492644851396 314.3418467583497,315.05082128918815 315.99214145383104,320.6089977269803 317.6424361493124,321.99854183642833 319.2927308447937,319.2194536175322 320.943025540275,321.3037697817043 322.59332023575644,324.77763005532444 324.24361493123774,321.99854183642833 325.89390962671905,320.6089977269803 327.5442043222004,321.99854183642833 329.1944990176817,317.8299095080842 330.8447937131631,320.6089977269803 332.4950884086444,327.55671827422054 334.14538310412576,334.5044388214607 335.79567779960706,337.9782990950808 337.44597249508837,337.28352704035683 339.09626719056973,336.5887549856328 340.74656188605104,338.67307114980485 342.3968565815324,341.45215936870096 344.04715127701377,344.231247587597 345.69744597249513,344.231247587597 347.34774066797644,339.36784320452887 348.99803536345775,340.06261525925294 350.6483300589391,339.36784320452887 352.2986247544204,337.28352704035683 353.9489194499018,336.5887549856328 355.5992141453831,340.06261525925294 357.24950884086445,341.45215936870096 358.89980353634576,340.06261525925294 360.55009823182706,337.28352704035683 362.2003929273084,340.06261525925294 363.8506876227898,337.9782990950808 365.50098231827116,337.28352704035683 367.15127701375246,333.80966676673665 368.8015717092338,335.19921087618474 370.45186640471513,337.28352704035683 372.1021611001965,337.9782990950808 373.7524557956778,338.67307114980485 375.4027504911591,340.7573873139769 377.0530451866405,340.06261525925294 378.7033398821218,342.146931423425 380.35363457760315,343.536475532873 382.00392927308445,345.6207916970451 383.6542239685658,345.6207916970451 385.3045186640472,327.55671827422054 386.9548133595285,329.6410344383926 388.60510805500985,326.86194621949653 390.25540275049116,320.6089977269803 391.9056974459725,324.77763005532444 393.5559921414538,333.1148947120127 395.2062868369352,331.7253506025646 396.8565815324165,333.80966676673665 398.5068762278978,333.1148947120127 400.15717092337917,332.4201226572887 401.8074656188605,323.38808594587636 403.45776031434184,323.38808594587636 405.1080550098232,324.77763005532444 406.7583497053045,326.86194621949653 408.4086444007859,325.47240211004845 410.0589390962672,327.55671827422054 411.70923379174855,325.47240211004845 413.35952848722985,327.55671827422054 415.0098231827112,321.3037697817043 416.6601178781925,320.6089977269803 418.3104125736739,311.57696101556803 419.9607072691552,315.05082128918815 421.6110019646365,311.57696101556803 423.26129666011786,315.05082128918815 424.91159135559917,319.9142256722563 426.56188605108053,322.6933138911524 428.2121807465619,321.99854183642833 429.86247544204326,322.6933138911524 431.51277013752457,321.99854183642833 433.1630648330059,342.146931423425 434.81335952848724,340.7573873139769 436.46365422396855,333.80966676673665 438.1139489194499,326.16717416477246 439.7642436149312,321.99854183642833 441.4145383104126,321.99854183642833 443.0648330058939,316.4403653986362 444.71512770137525,322.6933138911524 446.36542239685656,324.0828580006004 448.0157170923379,322.6933138911524 449.6660117878193,321.99854183642833 451.3163064833006,316.4403653986362 452.96660117878196,317.1351374533602 454.61689587426326,318.5246815628082 456.2671905697446,315.05082128918815 457.91748526522593,320.6089977269803 459.56777996070724,320.6089977269803 461.2180746561886,321.99854183642833 462.8683693516699,317.8299095080842 464.5186640471513,318.5246815628082 466.1689587426326,319.2194536175322 467.81925343811395,318.5246815628082 469.4695481335953,315.74559334391216 471.1198428290766,315.05082128918815 472.770137524558,309.492644851396 474.4204322200393,312.27173307029204 476.07072691552065,315.05082128918815 477.72102161100196,307.40832868722396 479.3713163064833,310.882188960844 481.02161100196463,312.27173307029204 482.67190569744594,314.3560492344641 484.3222003929273,318.5246815628082 485.9724950884086,318.5246815628082 487.62278978388997,317.1351374533602 489.27308447937133,334.5044388214607 490.9233791748527,331.03057854784066 492.573673870334,333.80966676673665 494.2239685658153,333.80966676673665 495.8742632612967,331.7253506025646 497.524557956778,331.03057854784066 499.17485265225935,332.4201226572887 500.82514734774065,331.03057854784066 502.47544204322196,332.4201226572887 504.1257367387034,332.4201226572887 505.7760314341847,333.80966676673665 507.426326129666,336.5887549856328 509.0766208251473,335.89398293090875 510.72691552062867,331.7253506025646 512.37721021611,330.3358064931166 514.0275049115914,335.89398293090875 515.6777996070728,333.1148947120127 517.3280943025541,331.7253506025646 518.9783889980354,331.7253506025646 520.6286836935167,330.3358064931166 522.278978388998,331.7253506025646 523.9292730844793,331.03057854784066 525.5795677799606,332.4201226572887 527.2298624754421,331.7253506025646 528.8801571709234,329.6410344383926 530.5304518664047,330.3358064931166 532.180746561886,331.7253506025646 533.8310412573674,328.25149032894456 535.4813359528488,326.86194621949653 537.1316306483301,326.16717416477246 538.7819253438114,323.38808594587636 540.4322200392927,321.99854183642833 542.0825147347741,313.6612771797401 543.7328094302554,306.7135566324999 545.3831041257367,311.57696101556803 547.033398821218,313.6612771797401 548.6836935166993,312.27173307029204 550.3339882121808,312.27173307029204 551.9842829076621,307.40832868722396 553.6345776031435,307.40832868722396 555.2848722986248,300.4606081399837 556.9351669941061,305.3240125230518 558.5854616895874,305.3240125230518 560.2357563850687,306.7135566324999 561.88605108055,306.0187845777758 563.5363457760313,310.18741690612 565.1866404715129,304.6292404683278 566.8369351669942,302.54492430415576 568.4872298624755,299.7658360852597 570.1375245579568,299.07106403053564 571.7878192534381,298.3762919758116 573.4381139489194,298.3762919758116 575.0884086444008,298.3762919758116 576.7387033398821,295.5972037569155 578.3889980353634,296.9867478663636 580.0392927308447,302.54492430415576 581.6895874263262,301.15538019470773 583.3398821218075,299.7658360852597 584.9901768172888,298.3762919758116 586.6404715127701,299.07106403053564 588.2907662082515,299.07106403053564 589.9410609037328,298.3762919758116 591.5913555992141,275.44881416991893 593.2416502946954,274.0592700604709 594.8919449901767,274.0592700604709 596.5422396856582,273.3644980057469 598.1925343811395,280.3122185529871 599.8428290766208,281.00699060771115 601.4931237721021,284.4808508813312 603.1434184675835,287.25993910022726 604.7937131630648,289.34425526439935 606.4440078585462,287.25993910022726 608.0943025540275,284.4808508813312 609.7445972495088,287.25993910022726 611.3948919449903,285.1756229360552 613.0451866404716,283.0913067718832 614.6954813359529,280.3122185529871 616.3457760314342,281.70176266243516 617.9960707269155,271.2801818415748 619.6463654223969,274.0592700604709 621.2966601178782,271.97495389629887 622.9469548133595,266.41677745850666 624.5972495088408,271.2801818415748 626.2475442043223,263.6376892396106 627.8978388998036,263.6376892396106 629.5481335952849,270.5854097868508 631.1984282907662,274.0592700604709 632.8487229862475,271.97495389629887 634.4990176817289,274.7540421151949 636.1493123772102,271.2801818415748 637.7996070726915,269.8906377321267 639.4499017681728,268.5010936226787 641.1001964636541,270.5854097868508 642.7504911591355,264.3324612943346 644.4007858546169,238.6258952695458 646.0510805500983,226.81477033923744 647.7013752455796,196.93957198610454 649.3516699410609,203.88729253334475 651.0019646365423,226.11999828451343 652.6522593320236,231.67817472230564 654.3025540275049,230.9834026675816 655.9528487229862,229.59385855813352 657.6031434184677,220.56182184672127 659.253438113949,215.6984174636531 660.9037328094303,224.03568212034136 662.5540275049116,226.11999828451343 664.204322200393,228.89908650340953 665.8546168958743,224.73045417506543 667.5049115913556,224.73045417506543 669.1552062868369,232.3729467770296 670.8055009823182,203.19252047862074 672.4557956777996,210.14024102586097 674.106090373281,205.97160869751684 675.7563850687623,211.529785135309 677.4066797642436,214.30887335420508 679.0569744597249,185.1284470557962 680.7072691552063,189.9918514388644 682.3575638506876,208.0559248616889 684.0078585461689,228.89908650340953 685.6581532416502,223.34091006561735 687.3084479371316,240.01543937899388 688.9587426326129,248.3527040356821 690.6090373280944,247.65793198095807 692.2593320235757,238.6258952695458 693.909626719057,244.87884376206208 695.5599214145384,236.54157910537378 697.2102161100197,233.06771883175364 698.860510805501,232.3729467770296 700.5108055009823,236.54157910537378 702.1611001964636,236.54157910537378 703.811394891945,228.89908650340953 705.4616895874263,220.56182184672127 707.1119842829077,212.919329244757 708.762278978389,214.30887335420508 710.4125736738704,227.5095423939615 712.0628683693517,235.1520349959257 713.713163064833,243.489299652614 715.3634577603143,252.52133636402624 717.0137524557956,245.57361581678603 718.664047151277,251.1317922545782 720.3143418467583,242.09975554316594 721.9646365422396,213.61410129948106 723.614931237721,182.3493588369001 725.2652259332023,148.30552815542308 726.9155206286837,110.78783720032595 728.565815324165,69.1015139168847 730.2161100196464,114.26169747394603 731.8664047151277,142.74735171763092 733.516699410609,140.66303555345888 735.1669941060904,162.8957413046275 736.8172888015717,160.8114251404554 738.467583497053,160.8114251404554 740.1178781925344,168.45391774241966 741.7681728880158,166.3696015782476 743.4184675834971,159.42188103100744 745.0687622789784,169.1486897971437 746.7190569744597,164.9800574687996 748.3693516699411,164.9800574687996 750.0196463654224,171.92777801603978 751.6699410609037,165.67482952352358 753.320235756385,174.01209418021188 754.9705304518664,177.48595445383194 756.6208251473478,171.92777801603978 758.2711198428291,163.59051335935152 759.9214145383104,170.53823390659176 761.5717092337917,169.1486897971437 763.222003929273,167.75914568769565 764.8722986247544,167.75914568769565 766.5225933202357,173.31732212548786 768.172888015717,180.95981472745203 769.8231827111983,172.62255007076385 771.4734774066798,169.84346185186774 773.1237721021611,181.65458678217612 774.7740667976425,183.73890294634816 776.4243614931238,180.95981472745203 778.0746561886051,185.1284470557962 779.7249508840865,180.26504267272804 781.3752455795678,180.95981472745203 783.0255402750491,184.43367500107217 784.6758349705304,185.82321911052023 786.3261296660118,171.92777801603978 787.9764243614932,183.0441308916241 789.6267190569745,177.48595445383194 791.2770137524558,172.62255007076385 792.9273084479371,156.64279281211134 794.5776031434185,183.73890294634816 796.2278978388998,192.77093965776047 797.8781925343811,197.63434404082855 799.5284872298624,208.0559248616889 801.1787819253437,203.88729253334475 802.8290766208252,205.97160869751684 804.4793713163065,205.97160869751684 806.1296660117878,210.14024102586097 807.7799607072691,208.0559248616889 809.4302554027505,212.22455719003298 811.0805500982318,212.22455719003298 812.7308447937131,219.86704979199726 814.3811394891945,222.64613801089334 816.0314341846758,233.76249088647768 817.6817288801572,224.73045417506543 819.3320235756386,220.56182184672127 820.9823182711199,218.47750568254918 822.6326129666012,214.30887335420508 824.2829076620825,214.30887335420508 825.9332023575639,217.08796157310118 827.5834970530452,214.30887335420508 829.2337917485265,212.22455719003298 830.8840864440078,224.03568212034136 832.5343811394893,210.835013080585 834.1846758349706,205.27683664279283 835.8349705304519,215.00364540892912 837.4852652259332,215.00364540892912 839.1355599214145,219.17227773727328 840.7858546168959,215.6984174636531 842.4361493123772,215.6984174636531 844.0864440078585,213.61410129948106 845.7367387033398,213.61410129948106 847.3870333988211,210.14024102586097 849.0373280943026,208.75069691641292 850.6876227897839,211.529785135309 852.3379174852652,218.47750568254918 853.9882121807465,222.64613801089334 855.6385068762279,228.20431444868552 857.2888015717092,228.20431444868552 858.9390962671906,227.5095423939615 860.5893909626719,231.67817472230564 862.2396856581532,228.20431444868552 863.8899803536347,224.03568212034136 865.540275049116,219.17227773727328 867.1905697445973,226.81477033923744 868.8408644400786,232.3729467770296 870.49115913556,227.5095423939615 872.1414538310413,233.06771883175364 873.7917485265226,235.1520349959257 875.4420432220039,221.25659390144529 877.0923379174852,221.95136595616935 878.7426326129666,220.56182184672127 880.392927308448,215.6984174636531 882.0432220039293,218.47750568254918 883.6935166994106,224.03568212034136 885.3438113948919,218.47750568254918 886.9941060903733,217.7827336278252 888.6444007858546,213.61410129948106 890.2946954813359,219.86704979199726 891.9449901768172,215.00364540892912 893.5952848722986,219.17227773727328 895.2455795677799,215.00364540892912 896.8958742632612,205.27683664279283 898.5461689587427,205.27683664279283 900.196463654224,214.30887335420508 901.8467583497054,220.56182184672127 903.4970530451867,219.17227773727328 905.147347740668,221.95136595616935 906.7976424361493,207.3611528069649 908.4479371316306,203.19252047862074 910.098231827112,206.66638075224083 911.7485265225934,196.24479993138056 913.3988212180747,202.49774842389675 915.049115913556,191.38139554831238 916.6994106090374,196.24479993138056 918.3497053045187,209.4454689711369 920.0,203.88729253334475" stroke="#58a6ff" stroke-width="1.8" fill="none"/>
<line x1="80" y1="205.27683664279283" x2="920" y2="205.27683664279283" stroke="#f0883e" stroke-width="2" stroke-dasharray="8,4"/>
<text x="925" y="210.27683664279283" font-size="11" fill="#f0883e" font-weight="bold">━ 颈线 4.59</text>
<line x1="80" y1="175.40163828965996" x2="920" y2="175.40163828965996" stroke="#a371f7" stroke-width="1.5" stroke-dasharray="5,5"/>
<text x="925" y="180.40163828965996" font-size="11" fill="#a371f7" font-weight="bold">▼ 目标 5.02 (+8.9%)</text>
<circle cx="816.0314341846758" cy="233.76249088647768" r="7" fill="#238636" stroke="#fff" stroke-width="2"/>
<text x="816.0314341846758" y="253.76249088647768" text-anchor="middle" font-size="10" fill="#3fb950">左底 ¥4.18</text>
<circle cx="873.7917485265226" cy="235.1520349959257" r="7" fill="#8957e5" stroke="#fff" stroke-width="2"/>
<text x="873.7917485265226" y="255.1520349959257" text-anchor="middle" font-size="10" fill="#bc8cff">右底 ¥4.16</text>
<circle cx="911.7485265225934" cy="205.27683664279283" r="8" fill="#f0883e" stroke="#fff" stroke-width="2.5"/>
<text x="911.7485265225934" y="191.27683664279283" text-anchor="middle" font-size="11" fill="#f0883e" font-weight="bold">★ 突破</text>
<line x1="920.0" y1="203.88729253334475" x2="920" y2="203.88729253334475" stroke="#88ccff" stroke-width="1.5"/>
<text x="925" y="208.88729253334475" font-size="11" fill="#88ccff" font-weight="bold">● 现价 4.61</text>
<text x="80" y="618" font-size="13" fill="#58a6ff" font-weight="bold">评分原因 (总分: 91):</text>
<text x="90" y="636" font-size="11" fill="#c9d1d9">1. 突破仅5天</text>
<text x="90" y="652" font-size="11" fill="#c9d1d9">2. 右底显著缩量(49%)</text>
<text x="90" y="668" font-size="11" fill="#c9d1d9">3. 形态跨度大(35根K线)</text>
<text x="90" y="684" font-size="11" fill="#c9d1d9">4. MACD底背离</text>
<text x="90" y="700" font-size="11" fill="#c9d1d9">5. 两底齐平</text>
<text x="90" y="716" font-size="11" fill="#c9d1d9">6. 振幅理想(10.3%)</text>
<text x="928" y="80" font-size="10" fill="#8b949e">突破日: 2026-06-17</text>
<text x="928" y="96" font-size="10" fill="#8b949e">突破后涨幅: 0.4%</text>
<text x="928" y="112" font-size="10" fill="#8b949e">目标空间: 8.9%</text>
<text x="928" y="128" font-size="10" fill="#8b949e">形态跨度: 35根K线</text>
</svg>