<svg xmlns="http://www.w3.org/2000/svg" viewBox="0 0 1000 720" width="1000" height="720">
<rect width="1000" height="720" fill="#0d1117"/>
<text x="500.0" y="24" text-anchor="middle" font-size="17" fill="#58a6ff" font-weight="bold">皓元医药 (688131.SH)  W双底突破</text>
<text x="500.0" y="44" text-anchor="middle" font-size="13" fill="#8b949e">评分:83/100 | 突破后涨幅:3.2% | 目标空间:14.1%</text>
<line x1="80" y1="384.0" x2="920" y2="384.0" stroke="#21262d" stroke-width="0.5"/>
<text x="72" y="388.0" text-anchor="end" font-size="10" fill="#8b949e">17.48</text>
<line x1="80" y1="319.2" x2="920" y2="319.2" stroke="#21262d" stroke-width="0.5"/>
<text x="72" y="323.2" text-anchor="end" font-size="10" fill="#8b949e">32.59</text>
<line x1="80" y1="254.4" x2="920" y2="254.4" stroke="#21262d" stroke-width="0.5"/>
<text x="72" y="258.4" text-anchor="end" font-size="10" fill="#8b949e">47.70</text>
<line x1="80" y1="189.59999999999997" x2="920" y2="189.59999999999997" stroke="#21262d" stroke-width="0.5"/>
<text x="72" y="193.59999999999997" text-anchor="end" font-size="10" fill="#8b949e">62.81</text>
<line x1="80" y1="124.79999999999998" x2="920" y2="124.79999999999998" stroke="#21262d" stroke-width="0.5"/>
<text x="72" y="128.79999999999998" text-anchor="end" font-size="10" fill="#8b949e">77.92</text>
<line x1="80" y1="60.0" x2="920" y2="60.0" stroke="#21262d" stroke-width="0.5"/>
<text x="72" y="64.0" text-anchor="end" font-size="10" fill="#8b949e">93.02</text>
<text x="80.0" y="550.1999999999999" text-anchor="middle" font-size="9" fill="#8b949e">2024-05-06</text>
<text x="185.20231213872833" y="550.1999999999999" text-anchor="middle" font-size="9" fill="#8b949e">2024-08-06</text>
<text x="290.40462427745666" y="550.1999999999999" text-anchor="middle" font-size="9" fill="#8b949e">2024-11-14</text>
<text x="395.60693641618496" y="550.1999999999999" text-anchor="middle" font-size="9" fill="#8b949e">2025-02-24</text>
<text x="500.8092485549133" y="550.1999999999999" text-anchor="middle" font-size="9" fill="#8b949e">2025-05-30</text>
<text x="606.0115606936416" y="550.1999999999999" text-anchor="middle" font-size="9" fill="#8b949e">2025-09-01</text>
<text x="711.2138728323699" y="550.1999999999999" text-anchor="middle" font-size="9" fill="#8b949e">2025-12-09</text>
<text x="816.4161849710982" y="550.1999999999999" text-anchor="middle" font-size="9" fill="#8b949e">2026-03-20</text>
<rect x="630.2890173410404" y="60" width="289.71098265895955" height="475.2" fill="#238636" opacity="0.08" rx="3"/>
<text x="775.1445086705203" y="54" text-anchor="middle" font-size="11" fill="#3fb950" font-weight="bold">▼ 双底区域 ▼</text>
<rect x="79.5" y="525.5060217157398" width="1" height="9.693978284260083" fill="#3fb950" opacity="0.45"/>
<rect x="81.11849710982659" y="526.4532337412861" width="1" height="8.74676625871382" fill="#3fb950" opacity="0.45"/>
<rect x="82.73699421965318" y="522.0885101963177" width="1" height="13.111489803682275" fill="#3fb950" opacity="0.45"/>
<rect x="84.35549132947978" y="524.6203215174274" width="1" height="10.57967848257249" fill="#3fb950" opacity="0.45"/>
<rect x="85.97398843930635" y="523.5221135485062" width="1" height="11.677886451493691" fill="#f85149" opacity="0.45"/>
<rect x="87.59248554913295" y="524.2619036741542" width="1" height="10.938096325845777" fill="#f85149" opacity="0.45"/>
<rect x="89.21098265895954" y="528.0917003608861" width="1" height="7.108299639113852" fill="#3fb950" opacity="0.45"/>
<rect x="90.82947976878613" y="530.6843799268249" width="1" height="4.5156200731750005" fill="#f85149" opacity="0.45"/>
<rect x="92.44797687861272" y="529.4077845194992" width="1" height="5.792215480500772" fill="#f85149" opacity="0.45"/>
<rect x="94.0664739884393" y="529.8883365131036" width="1" height="5.31166348689635" fill="#3fb950" opacity="0.45"/>
<rect x="95.68497109826589" y="529.3154592224982" width="1" height="5.884540777501684" fill="#3fb950" opacity="0.45"/>
<rect x="97.30346820809248" y="528.8625027866373" width="1" height="6.337497213362667" fill="#f85149" opacity="0.45"/>
<rect x="98.92196531791907" y="528.9100807931903" width="1" height="6.2899192068096" fill="#3fb950" opacity="0.45"/>
<rect x="100.54046242774567" y="529.0582146261963" width="1" height="6.1417853738036" fill="#f85149" opacity="0.45"/>
<rect x="102.15895953757226" y="529.2239763382386" width="1" height="5.97602366176136" fill="#f85149" opacity="0.45"/>
<rect x="103.77745664739885" y="528.4962887012256" width="1" height="6.703711298774351" fill="#f85149" opacity="0.45"/>
<rect x="105.39595375722544" y="527.5918670570267" width="1" height="7.6081329429732705" fill="#3fb950" opacity="0.45"/>
<rect x="107.01445086705202" y="530.8897036434364" width="1" height="4.310296356563526" fill="#f85149" opacity="0.45"/>
<rect x="108.63294797687861" y="530.9746460561036" width="1" height="4.22535394389638" fill="#3fb950" opacity="0.45"/>
<rect x="110.2514450867052" y="528.69523414994" width="1" height="6.5047658500599255" fill="#3fb950" opacity="0.45"/>
<rect x="111.86994219653178" y="528.4954724503709" width="1" height="6.704527549629006" fill="#f85149" opacity="0.45"/>
<rect x="113.48843930635837" y="529.9404666878851" width="1" height="5.259533312114854" fill="#3fb950" opacity="0.45"/>
<rect x="115.10693641618496" y="530.6480619961657" width="1" height="4.551938003834266" fill="#f85149" opacity="0.45"/>
<rect x="116.72543352601156" y="527.0417663046953" width="1" height="8.158233695304602" fill="#f85149" opacity="0.45"/>
<rect x="118.34393063583815" y="526.784668214957" width="1" height="8.415331785042895" fill="#3fb950" opacity="0.45"/>
<rect x="119.96242774566474" y="527.0855508377247" width="1" height="8.114449162275264" fill="#3fb950" opacity="0.45"/>
<rect x="121.58092485549133" y="522.3625454912922" width="1" height="12.837454508707765" fill="#3fb950" opacity="0.45"/>
<rect x="123.19942196531792" y="523.7865578959374" width="1" height="11.413442104062483" fill="#3fb950" opacity="0.45"/>
<rect x="124.81791907514452" y="525.8840662061681" width="1" height="9.315933793831846" fill="#f85149" opacity="0.45"/>
<rect x="126.43641618497111" y="529.1286738185688" width="1" height="6.071326181431118" fill="#f85149" opacity="0.45"/>
<rect x="128.0549132947977" y="527.9975280347074" width="1" height="7.202471965292489" fill="#f85149" opacity="0.45"/>
<rect x="129.6734104046243" y="528.6745714920847" width="1" height="6.525428507915194" fill="#f85149" opacity="0.45"/>
<rect x="131.29190751445088" y="523.4394576847079" width="1" height="11.760542315292014" fill="#3fb950" opacity="0.45"/>
<rect x="132.91040462427745" y="528.2745353199736" width="1" height="6.92546468002638" fill="#3fb950" opacity="0.45"/>
<rect x="134.52890173410404" y="527.0942313516224" width="1" height="8.105768648377534" fill="#f85149" opacity="0.45"/>
<rect x="136.14739884393063" y="528.0062085486052" width="1" height="7.193791451394759" fill="#f85149" opacity="0.45"/>
<rect x="137.76589595375722" y="527.508557146069" width="1" height="7.69144285393088" fill="#3fb950" opacity="0.45"/>
<rect x="139.38439306358381" y="527.5027125806539" width="1" height="7.697287419346026" fill="#f85149" opacity="0.45"/>
<rect x="141.0028901734104" y="526.4291543410709" width="1" height="8.770845658929034" fill="#f85149" opacity="0.45"/>
<rect x="142.621387283237" y="526.8752092713074" width="1" height="8.324790728692506" fill="#3fb950" opacity="0.45"/>
<rect x="144.23988439306356" y="528.9666480239002" width="1" height="6.233351976099698" fill="#f85149" opacity="0.45"/>
<rect x="145.85838150289015" y="528.8156520805253" width="1" height="6.384347919474635" fill="#f85149" opacity="0.45"/>
<rect x="147.47687861271675" y="527.559797816714" width="1" height="7.640202183285965" fill="#f85149" opacity="0.45"/>
<rect x="149.09537572254334" y="515.5542965269593" width="1" height="19.645703473040612" fill="#3fb950" opacity="0.45"/>
<rect x="150.71387283236993" y="518.4324650617257" width="1" height="16.767534938274252" fill="#3fb950" opacity="0.45"/>
<rect x="152.33236994219652" y="519.979548212234" width="1" height="15.22045178776591" fill="#3fb950" opacity="0.45"/>
<rect x="153.9508670520231" y="521.0991670689607" width="1" height="14.100832931039236" fill="#3fb950" opacity="0.45"/>
<rect x="155.5693641618497" y="520.5408305548001" width="1" height="14.659169445199836" fill="#3fb950" opacity="0.45"/>
<rect x="157.1878612716763" y="522.5171517749861" width="1" height="12.6828482250138" fill="#f85149" opacity="0.45"/>
<rect x="158.8063583815029" y="525.6601309235928" width="1" height="9.539869076407172" fill="#f85149" opacity="0.45"/>
<rect x="160.42485549132948" y="526.6358332433963" width="1" height="8.56416675660364" fill="#f85149" opacity="0.45"/>
<rect x="162.04335260115607" y="525.5331306623967" width="1" height="9.666869337603202" fill="#3fb950" opacity="0.45"/>
<rect x="163.66184971098266" y="526.2738469188221" width="1" height="8.926153081177858" fill="#f85149" opacity="0.45"/>
<rect x="165.28034682080926" y="526.9711553733819" width="1" height="8.22884462661807" fill="#3fb950" opacity="0.45"/>
<rect x="166.89884393063585" y="526.1885487045004" width="1" height="9.011451295499569" fill="#3fb950" opacity="0.45"/>
<rect x="168.51734104046244" y="528.0953787221097" width="1" height="7.10462127789026" fill="#f85149" opacity="0.45"/>
<rect x="170.13583815028903" y="528.2484519192624" width="1" height="6.9515480807375525" fill="#f85149" opacity="0.45"/>
<rect x="171.75433526011562" y="529.1561176373713" width="1" height="6.043882362628665" fill="#3fb950" opacity="0.45"/>
<rect x="173.37283236994222" y="530.4148183144198" width="1" height="4.785181685580142" fill="#3fb950" opacity="0.45"/>
<rect x="174.99132947976878" y="531.0215595507427" width="1" height="4.178440449257209" fill="#f85149" opacity="0.45"/>
<rect x="176.60982658959537" y="526.8086325028722" width="1" height="8.391367497127703" fill="#f85149" opacity="0.45"/>
<rect x="178.22832369942196" y="517.913057434484" width="1" height="17.286942565515915" fill="#3fb950" opacity="0.45"/>
<rect x="179.84682080924856" y="516.5283140212806" width="1" height="18.671685978719324" fill="#3fb950" opacity="0.45"/>
<rect x="181.46531791907515" y="511.8939085192298" width="1" height="23.306091480770135" fill="#f85149" opacity="0.45"/>
<rect x="183.08381502890174" y="520.5427142106187" width="1" height="14.657285789381262" fill="#f85149" opacity="0.45"/>
<rect x="184.70231213872833" y="521.8606977221823" width="1" height="13.339302277817637" fill="#3fb950" opacity="0.45"/>
<rect x="186.3208092485549" y="525.5016788426024" width="1" height="9.698321157397572" fill="#f85149" opacity="0.45"/>
<rect x="187.93930635838151" y="527.2935169048596" width="1" height="7.906483095140288" fill="#f85149" opacity="0.45"/>
<rect x="189.55780346820808" y="525.7531835210348" width="1" height="9.446816478965161" fill="#f85149" opacity="0.45"/>
<rect x="191.17630057803467" y="527.3653836067189" width="1" height="7.834616393281067" fill="#3fb950" opacity="0.45"/>
<rect x="192.79479768786126" y="528.7086813595344" width="1" height="6.491318640465579" fill="#3fb950" opacity="0.45"/>
<rect x="194.41329479768785" y="527.5133343065203" width="1" height="7.686665693479654" fill="#f85149" opacity="0.45"/>
<rect x="196.03179190751445" y="524.6514280003217" width="1" height="10.548571999678188" fill="#3fb950" opacity="0.45"/>
<rect x="197.65028901734104" y="526.4367569852501" width="1" height="8.763243014749833" fill="#f85149" opacity="0.45"/>
<rect x="199.26878612716763" y="524.0369899370286" width="1" height="11.163010062971352" fill="#f85149" opacity="0.45"/>
<rect x="200.88728323699422" y="525.0473619886501" width="1" height="10.152638011349836" fill="#f85149" opacity="0.45"/>
<rect x="202.5057803468208" y="529.0137708136305" width="1" height="6.186229186369474" fill="#f85149" opacity="0.45"/>
<rect x="204.1242774566474" y="529.127072711123" width="1" height="6.07292728887694" fill="#f85149" opacity="0.45"/>
<rect x="205.742774566474" y="528.1190447645203" width="1" height="7.080955235479678" fill="#f85149" opacity="0.45"/>
<rect x="207.3612716763006" y="530.742401758417" width="1" height="4.4575982415829" fill="#3fb950" opacity="0.45"/>
<rect x="208.97976878612715" y="530.0046260980196" width="1" height="5.195373901980361" fill="#3fb950" opacity="0.45"/>
<rect x="210.59826589595377" y="530.2373884010563" width="1" height="4.962611598943681" fill="#3fb950" opacity="0.45"/>
<rect x="212.21676300578034" y="494.7398317098341" width="1" height="40.460168290165825" fill="#3fb950" opacity="0.45"/>
<rect x="213.83526011560696" y="511.2029207764171" width="1" height="23.99707922358283" fill="#3fb950" opacity="0.45"/>
<rect x="215.45375722543352" y="513.0977424881825" width="1" height="22.10225751181747" fill="#3fb950" opacity="0.45"/>
<rect x="217.0722543352601" y="519.7094267354606" width="1" height="15.490573264539307" fill="#3fb950" opacity="0.45"/>
<rect x="218.6907514450867" y="512.3700339216604" width="1" height="22.829966078339567" fill="#3fb950" opacity="0.45"/>
<rect x="220.3092485549133" y="521.948685378423" width="1" height="13.251314621576967" fill="#3fb950" opacity="0.45"/>
<rect x="221.9277456647399" y="519.8336015129287" width="1" height="15.366398487071251" fill="#f85149" opacity="0.45"/>
<rect x="223.54624277456648" y="520.5595049092911" width="1" height="14.640495090708782" fill="#3fb950" opacity="0.45"/>
<rect x="225.16473988439307" y="527.0064896171136" width="1" height="8.193510382886302" fill="#f85149" opacity="0.45"/>
<rect x="226.78323699421964" y="513.8123282525012" width="1" height="21.387671747498757" fill="#3fb950" opacity="0.45"/>
<rect x="228.40173410404626" y="520.9308728863177" width="1" height="14.269127113682202" fill="#f85149" opacity="0.45"/>
<rect x="230.02023121387282" y="527.7778571396104" width="1" height="7.422142860389499" fill="#f85149" opacity="0.45"/>
<rect x="231.63872832369944" y="528.421570353752" width="1" height="6.778429646247901" fill="#f85149" opacity="0.45"/>
<rect x="233.257225433526" y="526.1373708223828" width="1" height="9.062629177617168" fill="#f85149" opacity="0.45"/>
<rect x="234.8757225433526" y="522.2315424614815" width="1" height="12.968457538518464" fill="#f85149" opacity="0.45"/>
<rect x="236.4942196531792" y="524.6143618397123" width="1" height="10.585638160287658" fill="#f85149" opacity="0.45"/>
<rect x="238.11271676300578" y="519.758098308864" width="1" height="15.441901691135968" fill="#3fb950" opacity="0.45"/>
<rect x="239.73121387283237" y="516.9508127890293" width="1" height="18.249187210970604" fill="#f85149" opacity="0.45"/>
<rect x="241.34971098265896" y="518.2596030137224" width="1" height="16.940396986277506" fill="#3fb950" opacity="0.45"/>
<rect x="242.96820809248555" y="523.9664784208833" width="1" height="11.233521579116655" fill="#3fb950" opacity="0.45"/>
<rect x="244.58670520231215" y="496.13694969529064" width="1" height="39.06305030470929" fill="#3fb950" opacity="0.45"/>
<rect x="246.20520231213874" y="485.27881455894703" width="1" height="49.9211854410529" fill="#3fb950" opacity="0.45"/>
<rect x="247.8236994219653" y="500.0854062338437" width="1" height="35.11459376615625" fill="#f85149" opacity="0.45"/>
<rect x="249.44219653179192" y="503.98767134582135" width="1" height="31.212328654178577" fill="#f85149" opacity="0.45"/>
<rect x="251.06069364161849" y="508.7109801701357" width="1" height="26.48901982986422" fill="#f85149" opacity="0.45"/>
<rect x="252.67919075144508" y="510.6447935573474" width="1" height="24.555206442652548" fill="#3fb950" opacity="0.45"/>
<rect x="254.29768786127167" y="515.5703703899453" width="1" height="19.62962961005462" fill="#f85149" opacity="0.45"/>
<rect x="255.91618497109823" y="525.9883684147493" width="1" height="9.211631585250643" fill="#f85149" opacity="0.45"/>
<rect x="257.5346820809249" y="524.1618396911649" width="1" height="11.038160308835018" fill="#f85149" opacity="0.45"/>
<rect x="259.1531791907514" y="507.2470761211531" width="1" height="27.952923878846832" fill="#3fb950" opacity="0.45"/>
<rect x="260.77167630057806" y="510.22268198551694" width="1" height="24.97731801448299" fill="#3fb950" opacity="0.45"/>
<rect x="262.3901734104046" y="518.9884522384903" width="1" height="16.211547761509678" fill="#f85149" opacity="0.45"/>
<rect x="264.00867052023125" y="504.64423527854797" width="1" height="30.555764721451965" fill="#3fb950" opacity="0.45"/>
<rect x="265.6271676300578" y="514.4541996698423" width="1" height="20.745800330157635" fill="#f85149" opacity="0.45"/>
<rect x="267.24566473988443" y="509.9237353423407" width="1" height="25.276264657659226" fill="#3fb950" opacity="0.45"/>
<rect x="268.86416184971097" y="518.3487627224724" width="1" height="16.851237277527503" fill="#3fb950" opacity="0.45"/>
<rect x="270.48265895953756" y="496.79202763287145" width="1" height="38.40797236712848" fill="#f85149" opacity="0.45"/>
<rect x="272.10115606936415" y="505.86387625924556" width="1" height="29.336123740754374" fill="#3fb950" opacity="0.45"/>
<rect x="273.71965317919074" y="513.1138739073184" width="1" height="22.086126092681525" fill="#3fb950" opacity="0.45"/>
<rect x="275.33815028901734" y="519.5614551061501" width="1" height="15.638544893849826" fill="#3fb950" opacity="0.45"/>
<rect x="276.9566473988439" y="510.8141080535588" width="1" height="24.38589194644112" fill="#3fb950" opacity="0.45"/>
<rect x="278.5751445086705" y="496.79918029260506" width="1" height="38.400819707394874" fill="#3fb950" opacity="0.45"/>
<rect x="280.1936416184971" y="508.4323665450465" width="1" height="26.767633454953454" fill="#f85149" opacity="0.45"/>
<rect x="281.8121387283237" y="517.7600679553677" width="1" height="17.4399320446322" fill="#f85149" opacity="0.45"/>
<rect x="283.4306358381503" y="513.2623216829609" width="1" height="21.937678317039058" fill="#3fb950" opacity="0.45"/>
<rect x="285.0491329479769" y="494.676635057118" width="1" height="40.523364942881926" fill="#3fb950" opacity="0.45"/>
<rect x="286.6676300578035" y="510.39191276369195" width="1" height="24.808087236307983" fill="#f85149" opacity="0.45"/>
<rect x="288.28612716763007" y="515.8008775383769" width="1" height="19.39912246162305" fill="#f85149" opacity="0.45"/>
<rect x="289.90462427745666" y="521.0217017234182" width="1" height="14.1782982765817" fill="#f85149" opacity="0.45"/>
<rect x="291.52312138728325" y="514.1608882969902" width="1" height="21.03911170300978" fill="#f85149" opacity="0.45"/>
<rect x="293.1416184971098" y="507.74323629616606" width="1" height="27.45676370383387" fill="#f85149" opacity="0.45"/>
<rect x="294.76011560693644" y="516.2265942181491" width="1" height="18.97340578185083" fill="#3fb950" opacity="0.45"/>
<rect x="296.37861271676303" y="515.5639868896709" width="1" height="19.63601311032903" fill="#3fb950" opacity="0.45"/>
<rect x="297.9971098265896" y="522.8926637948139" width="1" height="12.307336205186061" fill="#f85149" opacity="0.45"/>
<rect x="299.61560693641616" y="521.8492231188203" width="1" height="13.350776881179627" fill="#f85149" opacity="0.45"/>
<rect x="301.2341040462428" y="525.1092976384431" width="1" height="10.09070236155685" fill="#3fb950" opacity="0.45"/>
<rect x="302.85260115606934" y="520.5153698069844" width="1" height="14.68463019301555" fill="#3fb950" opacity="0.45"/>
<rect x="304.471098265896" y="514.8187080002625" width="1" height="20.381291999737414" fill="#f85149" opacity="0.45"/>
<rect x="306.0895953757225" y="517.0742027099063" width="1" height="18.1257972900936" fill="#f85149" opacity="0.45"/>
<rect x="307.7080924855491" y="518.8695987887099" width="1" height="16.330401211289995" fill="#3fb950" opacity="0.45"/>
<rect x="309.3265895953757" y="516.4981755281821" width="1" height="18.701824471817872" fill="#3fb950" opacity="0.45"/>
<rect x="310.94508670520236" y="519.0658181688646" width="1" height="16.13418183113538" fill="#f85149" opacity="0.45"/>
<rect x="312.5635838150289" y="523.9020207652442" width="1" height="11.297979234755758" fill="#f85149" opacity="0.45"/>
<rect x="314.1820809248555" y="522.1737717839985" width="1" height="13.026228216001414" fill="#3fb950" opacity="0.45"/>
<rect x="315.8005780346821" y="515.0883376335722" width="1" height="20.11166236642771" fill="#3fb950" opacity="0.45"/>
<rect x="317.4190751445087" y="512.8566345433936" width="1" height="22.343365456606307" fill="#3fb950" opacity="0.45"/>
<rect x="319.03757225433526" y="514.2315881787173" width="1" height="20.968411821282643" fill="#3fb950" opacity="0.45"/>
<rect x="320.65606936416185" y="522.5126833247941" width="1" height="12.687316675205807" fill="#f85149" opacity="0.45"/>
<rect x="322.27456647398844" y="514.9413915502075" width="1" height="20.258608449792405" fill="#3fb950" opacity="0.45"/>
<rect x="323.893063583815" y="511.6722650179005" width="1" height="23.527734982099446" fill="#f85149" opacity="0.45"/>
<rect x="325.5115606936416" y="521.7738193299238" width="1" height="13.426180670076178" fill="#f85149" opacity="0.45"/>
<rect x="327.1300578034682" y="524.3768903971289" width="1" height="10.823109602871" fill="#f85149" opacity="0.45"/>
<rect x="328.7485549132948" y="526.3050371197528" width="1" height="8.894962880247135" fill="#3fb950" opacity="0.45"/>
<rect x="330.36705202312135" y="526.7892413126946" width="1" height="8.41075868730536" fill="#f85149" opacity="0.45"/>
<rect x="331.985549132948" y="527.2760146028779" width="1" height="7.92398539712201" fill="#3fb950" opacity="0.45"/>
<rect x="333.60404624277453" y="526.245053146683" width="1" height="8.954946853316983" fill="#f85149" opacity="0.45"/>
<rect x="335.2225433526012" y="528.4370372609742" width="1" height="6.762962739025738" fill="#f85149" opacity="0.45"/>
<rect x="336.84104046242777" y="527.0893704731347" width="1" height="8.110629526865182" fill="#3fb950" opacity="0.45"/>
<rect x="338.4595375722543" y="526.9701350598134" width="1" height="8.22986494018653" fill="#f85149" opacity="0.45"/>
<rect x="340.0780346820809" y="526.1482227728492" width="1" height="9.051777227150751" fill="#3fb950" opacity="0.45"/>
<rect x="341.69653179190755" y="522.1551183590166" width="1" height="13.044881640983363" fill="#3fb950" opacity="0.45"/>
<rect x="343.3150289017341" y="522.7531476871782" width="1" height="12.446852312821761" fill="#f85149" opacity="0.45"/>
<rect x="344.9335260115607" y="524.8304851830175" width="1" height="10.369514816982473" fill="#f85149" opacity="0.45"/>
<rect x="346.55202312138726" y="521.2116893422394" width="1" height="13.988310657760508" fill="#f85149" opacity="0.45"/>
<rect x="348.1705202312139" y="523.9610890722911" width="1" height="11.238910927708844" fill="#3fb950" opacity="0.45"/>
<rect x="349.78901734104045" y="526.2680494448025" width="1" height="8.931950555197432" fill="#3fb950" opacity="0.45"/>
<rect x="351.40751445086704" y="523.1375966073899" width="1" height="12.062403392610008" fill="#f85149" opacity="0.45"/>
<rect x="353.02601156069363" y="527.9345092828187" width="1" height="7.265490717181251" fill="#f85149" opacity="0.45"/>
<rect x="354.6445086705202" y="527.1592593363845" width="1" height="8.040740663615452" fill="#3fb950" opacity="0.45"/>
<rect x="356.2630057803468" y="527.2570001438639" width="1" height="7.942999856135998" fill="#3fb950" opacity="0.45"/>
<rect x="357.8815028901734" y="521.6949726367809" width="1" height="13.505027363219028" fill="#3fb950" opacity="0.45"/>
<rect x="359.5" y="526.6958067517116" width="1" height="8.504193248288288" fill="#f85149" opacity="0.45"/>
<rect x="361.1184971098266" y="525.8958913788075" width="1" height="9.304108621192427" fill="#f85149" opacity="0.45"/>
<rect x="362.7369942196532" y="522.7750975098429" width="1" height="12.424902490157024" fill="#3fb950" opacity="0.45"/>
<rect x="364.3554913294798" y="515.628193391201" width="1" height="19.571806608798965" fill="#3fb950" opacity="0.45"/>
<rect x="365.97398843930637" y="521.6892955074386" width="1" height="13.51070449256133" fill="#3fb950" opacity="0.45"/>
<rect x="367.59248554913296" y="522.2141134127816" width="1" height="12.985886587218374" fill="#f85149" opacity="0.45"/>
<rect x="369.2109826589595" y="524.5683378492097" width="1" height="10.631662150790248" fill="#f85149" opacity="0.45"/>
<rect x="370.82947976878614" y="522.866664112139" width="1" height="12.333335887860926" fill="#3fb950" opacity="0.45"/>
<rect x="372.44797687861274" y="523.4820073767006" width="1" height="11.717992623299324" fill="#f85149" opacity="0.45"/>
<rect x="374.06647398843927" y="524.8550825885828" width="1" height="10.3449174114171" fill="#f85149" opacity="0.45"/>
<rect x="375.68497109826586" y="518.3179126260646" width="1" height="16.882087373935292" fill="#3fb950" opacity="0.45"/>
<rect x="377.3034682080925" y="516.9991861169281" width="1" height="18.200813883071874" fill="#3fb950" opacity="0.45"/>
<rect x="378.9219653179191" y="514.3473545259059" width="1" height="20.85264547409406" fill="#3fb950" opacity="0.45"/>
<rect x="380.54046242774564" y="520.4159127797591" width="1" height="14.784087220240849" fill="#f85149" opacity="0.45"/>
<rect x="382.1589595375723" y="525.0219744941163" width="1" height="10.178025505883625" fill="#3fb950" opacity="0.45"/>
<rect x="383.7774566473989" y="523.8766175735785" width="1" height="11.323382426421404" fill="#f85149" opacity="0.45"/>
<rect x="385.3959537572254" y="509.15674731962224" width="1" height="26.04325268037769" fill="#3fb950" opacity="0.45"/>
<rect x="387.014450867052" y="495.4575987595355" width="1" height="39.74240124046446" fill="#3fb950" opacity="0.45"/>
<rect x="388.63294797687865" y="515.2051818504793" width="1" height="19.994818149520597" fill="#f85149" opacity="0.45"/>
<rect x="390.2514450867052" y="520.0377113180125" width="1" height="15.162288681987434" fill="#3fb950" opacity="0.45"/>
<rect x="391.8699421965318" y="515.6215953634584" width="1" height="19.578404636541563" fill="#3fb950" opacity="0.45"/>
<rect x="393.4884393063584" y="503.82097303824696" width="1" height="31.37902696175297" fill="#3fb950" opacity="0.45"/>
<rect x="395.10693641618496" y="494.55866587909696" width="1" height="40.64133412090297" fill="#f85149" opacity="0.45"/>
<rect x="396.72543352601156" y="513.0012469864942" width="1" height="22.19875301350578" fill="#f85149" opacity="0.45"/>
<rect x="398.34393063583815" y="518.725493886205" width="1" height="16.474506113794973" fill="#3fb950" opacity="0.45"/>
<rect x="399.96242774566474" y="519.7912977426679" width="1" height="15.408702257332038" fill="#f85149" opacity="0.45"/>
<rect x="401.58092485549133" y="516.7846848105779" width="1" height="18.415315189422017" fill="#f85149" opacity="0.45"/>
<rect x="403.1994219653179" y="510.0543825704967" width="1" height="25.145617429503204" fill="#3fb950" opacity="0.45"/>
<rect x="404.81791907514446" y="515.9442028166679" width="1" height="19.255797183331993" fill="#f85149" opacity="0.45"/>
<rect x="406.4364161849711" y="523.3775691263103" width="1" height="11.822430873689655" fill="#f85149" opacity="0.45"/>
<rect x="408.0549132947977" y="521.5284836242976" width="1" height="13.671516375702367" fill="#3fb950" opacity="0.45"/>
<rect x="409.6734104046243" y="520.3749694275896" width="1" height="14.825030572410355" fill="#f85149" opacity="0.45"/>
<rect x="411.2919075144509" y="521.9732723192337" width="1" height="13.226727680766203" fill="#3fb950" opacity="0.45"/>
<rect x="412.9104046242775" y="524.1271542622152" width="1" height="11.072845737784746" fill="#f85149" opacity="0.45"/>
<rect x="414.52890173410407" y="524.2157331770878" width="1" height="10.984266822912105" fill="#f85149" opacity="0.45"/>
<rect x="416.1473988439306" y="524.7356535773023" width="1" height="10.464346422697645" fill="#f85149" opacity="0.45"/>
<rect x="417.76589595375725" y="523.1285236651968" width="1" height="12.071476334803151" fill="#3fb950" opacity="0.45"/>
<rect x="419.38439306358384" y="523.9674150164153" width="1" height="11.232584983584616" fill="#3fb950" opacity="0.45"/>
<rect x="421.0028901734104" y="519.4003973012772" width="1" height="15.799602698722765" fill="#3fb950" opacity="0.45"/>
<rect x="422.62138728323697" y="525.5583768827441" width="1" height="9.64162311725579" fill="#f85149" opacity="0.45"/>
<rect x="424.2398843930636" y="526.7506525302983" width="1" height="8.449347469701593" fill="#f85149" opacity="0.45"/>
<rect x="425.85838150289015" y="525.7282564757011" width="1" height="9.471743524298859" fill="#f85149" opacity="0.45"/>
<rect x="427.47687861271675" y="523.5881304525731" width="1" height="11.611869547426863" fill="#3fb950" opacity="0.45"/>
<rect x="429.09537572254334" y="524.3981757078799" width="1" height="10.801824292120045" fill="#3fb950" opacity="0.45"/>
<rect x="430.71387283236993" y="525.6544694913822" width="1" height="9.54553050861773" fill="#f85149" opacity="0.45"/>
<rect x="432.3323699421965" y="523.3494398660849" width="1" height="11.850560133914996" fill="#3fb950" opacity="0.45"/>
<rect x="433.9508670520231" y="519.0102921812322" width="1" height="16.189707818767715" fill="#f85149" opacity="0.45"/>
<rect x="435.5693641618497" y="522.1226880846718" width="1" height="13.077311915328096" fill="#f85149" opacity="0.45"/>
<rect x="437.1878612716763" y="511.22614729913664" width="1" height="23.97385270086329" fill="#3fb950" opacity="0.45"/>
<rect x="438.8063583815029" y="515.240646903643" width="1" height="19.95935309635695" fill="#3fb950" opacity="0.45"/>
<rect x="440.4248554913295" y="508.70926395038987" width="1" height="26.490736049610064" fill="#f85149" opacity="0.45"/>
<rect x="442.0433526011561" y="505.1282197116442" width="1" height="30.07178028835574" fill="#f85149" opacity="0.45"/>
<rect x="443.66184971098266" y="506.4070702735751" width="1" height="28.79292972642486" fill="#3fb950" opacity="0.45"/>
<rect x="445.28034682080926" y="509.0377892222964" width="1" height="26.162210777703535" fill="#f85149" opacity="0.45"/>
<rect x="446.89884393063585" y="516.5569141954606" width="1" height="18.643085804539282" fill="#3fb950" opacity="0.45"/>
<rect x="448.51734104046244" y="521.1517158339241" width="1" height="14.04828416607586" fill="#3fb950" opacity="0.45"/>
<rect x="450.13583815028903" y="522.1047096363582" width="1" height="13.095290363641766" fill="#3fb950" opacity="0.45"/>
<rect x="451.75433526011557" y="522.2274926014713" width="1" height="12.972507398528592" fill="#f85149" opacity="0.45"/>
<rect x="453.3728323699422" y="523.7356573298154" width="1" height="11.464342670184578" fill="#f85149" opacity="0.45"/>
<rect x="454.9913294797688" y="526.5741068886942" width="1" height="8.625893111305686" fill="#f85149" opacity="0.45"/>
<rect x="456.60982658959534" y="526.3441386751219" width="1" height="8.855861324877992" fill="#f85149" opacity="0.45"/>
<rect x="458.22832369942194" y="520.0466377536421" width="1" height="15.153362246357801" fill="#3fb950" opacity="0.45"/>
<rect x="459.8468208092486" y="519.313105551214" width="1" height="15.886894448785938" fill="#f85149" opacity="0.45"/>
<rect x="461.4653179190751" y="524.8089330210256" width="1" height="10.391066978974322" fill="#3fb950" opacity="0.45"/>
<rect x="463.0838150289017" y="525.16448875393" width="1" height="10.035511246069973" fill="#3fb950" opacity="0.45"/>
<rect x="464.70231213872836" y="525.5920315333708" width="1" height="9.607968466629131" fill="#3fb950" opacity="0.45"/>
<rect x="466.3208092485549" y="514.7318662346449" width="1" height="20.46813376535499" fill="#3fb950" opacity="0.45"/>
<rect x="467.9393063583815" y="521.4861484597731" width="1" height="13.71385154022687" fill="#3fb950" opacity="0.45"/>
<rect x="469.5578034682081" y="511.5464106473275" width="1" height="23.65358935267244" fill="#3fb950" opacity="0.45"/>
<rect x="471.1763005780347" y="504.89775442223083" width="1" height="30.3022455777691" fill="#f85149" opacity="0.45"/>
<rect x="472.79479768786126" y="509.3152935834036" width="1" height="25.884706416596316" fill="#3fb950" opacity="0.45"/>
<rect x="474.41329479768785" y="515.215923921023" width="1" height="19.984076078976955" fill="#3fb950" opacity="0.45"/>
<rect x="476.03179190751445" y="523.9332632899476" width="1" height="11.266736710052328" fill="#f85149" opacity="0.45"/>
<rect x="477.65028901734104" y="520.1342434463418" width="1" height="15.065756553658161" fill="#f85149" opacity="0.45"/>
<rect x="479.26878612716763" y="524.0031521531972" width="1" height="11.196847846802712" fill="#f85149" opacity="0.45"/>
<rect x="480.8872832369942" y="524.8085039660891" width="1" height="10.391496033910812" fill="#3fb950" opacity="0.45"/>
<rect x="482.5057803468208" y="520.6910521063384" width="1" height="14.50894789366157" fill="#f85149" opacity="0.45"/>
<rect x="484.1242774566474" y="526.1118263565307" width="1" height="9.08817364346919" fill="#f85149" opacity="0.45"/>
<rect x="485.742774566474" y="528.1483356125004" width="1" height="7.0516643874995" fill="#3fb950" opacity="0.45"/>
<rect x="487.3612716763006" y="523.4699258175748" width="1" height="11.730074182425142" fill="#3fb950" opacity="0.45"/>
<rect x="488.9797687861272" y="520.099060941551" width="1" height="15.100939058448944" fill="#3fb950" opacity="0.45"/>
<rect x="490.5982658959538" y="502.91220328853325" width="1" height="32.28779671146668" fill="#f85149" opacity="0.45"/>
<rect x="492.2167630057803" y="507.3952099541591" width="1" height="27.804790045840832" fill="#3fb950" opacity="0.45"/>
<rect x="493.83526011560696" y="518.43543181964" width="1" height="16.764568180359902" fill="#f85149" opacity="0.45"/>
<rect x="495.45375722543355" y="516.6927833361362" width="1" height="18.507216663863687" fill="#f85149" opacity="0.45"/>
<rect x="497.0722543352601" y="520.7250363967335" width="1" height="14.474963603266474" fill="#f85149" opacity="0.45"/>
<rect x="498.6907514450867" y="511.3765729133887" width="1" height="23.82342708661122" fill="#3fb950" opacity="0.45"/>
<rect x="500.3092485549133" y="464.40874003615306" width="1" height="70.79125996384687" fill="#3fb950" opacity="0.45"/>
<rect x="501.9277456647399" y="461.10013521731327" width="1" height="74.09986478268667" fill="#3fb950" opacity="0.45"/>
<rect x="503.5462427745665" y="467.39222586069167" width="1" height="67.80777413930826" fill="#3fb950" opacity="0.45"/>
<rect x="505.16473988439304" y="487.4658802386006" width="1" height="47.73411976139931" fill="#f85149" opacity="0.45"/>
<rect x="506.78323699421964" y="493.9685897643918" width="1" height="41.23141023560811" fill="#f85149" opacity="0.45"/>
<rect x="508.4017341040462" y="475.2871558668109" width="1" height="59.912844133189026" fill="#3fb950" opacity="0.45"/>
<rect x="510.0202312138728" y="459.15307868322094" width="1" height="76.04692131677899" fill="#3fb950" opacity="0.45"/>
<rect x="511.6387283236994" y="489.0515260096189" width="1" height="46.148473990381035" fill="#3fb950" opacity="0.45"/>
<rect x="513.2572254335261" y="486.72914058890353" width="1" height="48.4708594110964" fill="#3fb950" opacity="0.45"/>
<rect x="514.8757225433526" y="477.2268295165695" width="1" height="57.97317048343041" fill="#f85149" opacity="0.45"/>
<rect x="516.4942196531792" y="499.0575842040132" width="1" height="36.14241579598672" fill="#3fb950" opacity="0.45"/>
<rect x="518.1127167630058" y="497.7713559901259" width="1" height="37.428644009874006" fill="#f85149" opacity="0.45"/>
<rect x="519.7312138728323" y="514.2915930812962" width="1" height="20.90840691870369" fill="#f85149" opacity="0.45"/>
<rect x="521.349710982659" y="515.4598678142943" width="1" height="19.740132185705647" fill="#f85149" opacity="0.45"/>
<rect x="522.9682080924856" y="517.4922120979538" width="1" height="17.707787902046107" fill="#f85149" opacity="0.45"/>
<rect x="524.5867052023123" y="515.1315466051014" width="1" height="20.068453394898484" fill="#3fb950" opacity="0.45"/>
<rect x="526.2052023121387" y="512.5589855297814" width="1" height="22.64101447021858" fill="#3fb950" opacity="0.45"/>
<rect x="527.8236994219653" y="514.7896264473733" width="1" height="20.410373552626652" fill="#f85149" opacity="0.45"/>
<rect x="529.442196531792" y="511.8580301082616" width="1" height="23.34196989173836" fill="#f85149" opacity="0.45"/>
<rect x="531.0606936416185" y="514.0416738131779" width="1" height="21.158326186822023" fill="#3fb950" opacity="0.45"/>
<rect x="532.679190751445" y="490.7422379163003" width="1" height="44.457762083699606" fill="#3fb950" opacity="0.45"/>
<rect x="534.2976878612717" y="501.1430737436454" width="1" height="34.05692625635453" fill="#3fb950" opacity="0.45"/>
<rect x="535.9161849710982" y="510.77363561534395" width="1" height="24.426364384655983" fill="#f85149" opacity="0.45"/>
<rect x="537.5346820809248" y="507.9077370052853" width="1" height="27.292262994714633" fill="#3fb950" opacity="0.45"/>
<rect x="539.1531791907514" y="492.46519173174454" width="1" height="42.73480826825539" fill="#3fb950" opacity="0.45"/>
<rect x="540.7716763005781" y="508.392150493318" width="1" height="26.80784950668192" fill="#f85149" opacity="0.45"/>
<rect x="542.3901734104047" y="497.84439997687184" width="1" height="37.35560002312809" fill="#3fb950" opacity="0.45"/>
<rect x="544.0086705202312" y="500.31912082954426" width="1" height="34.88087917045567" fill="#f85149" opacity="0.45"/>
<rect x="545.6271676300578" y="513.7052424192102" width="1" height="21.494757580789724" fill="#f85149" opacity="0.45"/>
<rect x="547.2456647398844" y="485.28893920897235" width="1" height="49.91106079102758" fill="#3fb950" opacity="0.45"/>
<rect x="548.864161849711" y="488.82474954618374" width="1" height="46.37525045381619" fill="#3fb950" opacity="0.45"/>
<rect x="550.4826589595375" y="498.7924491827819" width="1" height="36.40755081721801" fill="#f85149" opacity="0.45"/>
<rect x="552.1011560693642" y="490.4815085567338" width="1" height="44.718491443266146" fill="#f85149" opacity="0.45"/>
<rect x="553.7196531791908" y="487.133326036193" width="1" height="48.06667396380692" fill="#3fb950" opacity="0.45"/>
<rect x="555.3381502890174" y="493.41356534504564" width="1" height="41.78643465495429" fill="#f85149" opacity="0.45"/>
<rect x="556.9566473988439" y="489.59051842499736" width="1" height="45.609481575002576" fill="#3fb950" opacity="0.45"/>
<rect x="558.5751445086705" y="495.9098278949554" width="1" height="39.29017210504452" fill="#f85149" opacity="0.45"/>
<rect x="560.1936416184972" y="474.03412185435025" width="1" height="61.165878145649685" fill="#3fb950" opacity="0.45"/>
<rect x="561.8121387283237" y="491.6042249808067" width="1" height="43.59577501919324" fill="#f85149" opacity="0.45"/>
<rect x="563.4306358381502" y="495.76206032835864" width="1" height="39.43793967164129" fill="#3fb950" opacity="0.45"/>
<rect x="565.0491329479769" y="495.8431203170884" width="1" height="39.35687968291154" fill="#f85149" opacity="0.45"/>
<rect x="566.6676300578034" y="465.9399376892574" width="1" height="69.26006231074251" fill="#3fb950" opacity="0.45"/>
<rect x="568.28612716763" y="440.19031555674553" width="1" height="95.0096844432544" fill="#f85149" opacity="0.45"/>
<rect x="569.9046242774566" y="476.0104273774046" width="1" height="59.189572622595335" fill="#3fb950" opacity="0.45"/>
<rect x="571.5231213872833" y="501.14388999450017" width="1" height="34.05611000549976" fill="#f85149" opacity="0.45"/>
<rect x="573.1416184971099" y="489.2637878584958" width="1" height="45.93621214150414" fill="#f85149" opacity="0.45"/>
<rect x="574.7601156069364" y="504.8796033054671" width="1" height="30.320396694532803" fill="#3fb950" opacity="0.45"/>
<rect x="576.378612716763" y="503.4349020810803" width="1" height="31.76509791891965" fill="#f85149" opacity="0.45"/>
<rect x="577.9971098265896" y="493.45596853047465" width="1" height="41.74403146952528" fill="#f85149" opacity="0.45"/>
<rect x="579.6156069364162" y="513.1160715057736" width="1" height="22.08392849422637" fill="#f85149" opacity="0.45"/>
<rect x="581.2341040462427" y="511.5981693233225" width="1" height="23.601830676677423" fill="#3fb950" opacity="0.45"/>
<rect x="582.8526011560693" y="507.20291485696" width="1" height="27.997085143039953" fill="#f85149" opacity="0.45"/>
<rect x="584.471098265896" y="495.79049829884315" width="1" height="39.409501701156785" fill="#3fb950" opacity="0.45"/>
<rect x="586.0895953757226" y="498.76169850154224" width="1" height="36.43830149845769" fill="#3fb950" opacity="0.45"/>
<rect x="587.7080924855491" y="505.94709198741225" width="1" height="29.25290801258768" fill="#3fb950" opacity="0.45"/>
<rect x="589.3265895953757" y="500.355543407749" width="1" height="34.844456592250936" fill="#3fb950" opacity="0.45"/>
<rect x="590.9450867052024" y="497.8803778030083" width="1" height="37.319622196991645" fill="#f85149" opacity="0.45"/>
<rect x="592.5635838150289" y="506.3655775217918" width="1" height="28.834422478208126" fill="#3fb950" opacity="0.45"/>
<rect x="594.1820809248555" y="508.2039837417882" width="1" height="26.99601625821174" fill="#3fb950" opacity="0.45"/>
<rect x="595.8005780346821" y="496.3600530298794" width="1" height="38.839946970120536" fill="#3fb950" opacity="0.45"/>
<rect x="597.4190751445086" y="487.7363993760469" width="1" height="47.46360062395303" fill="#3fb950" opacity="0.45"/>
<rect x="599.0375722543353" y="503.9961164027417" width="1" height="31.203883597258255" fill="#f85149" opacity="0.45"/>
<rect x="600.6560693641618" y="507.76770812467686" width="1" height="27.432291875323074" fill="#f85149" opacity="0.45"/>
<rect x="602.2745664739884" y="494.03945708219175" width="1" height="41.160542917808186" fill="#f85149" opacity="0.45"/>
<rect x="603.8930635838151" y="436.2" width="1" height="98.99999999999994" fill="#3fb950" opacity="0.45"/>
<rect x="605.5115606936416" y="479.45623036074755" width="1" height="55.74376963925238" fill="#3fb950" opacity="0.45"/>
<rect x="607.1300578034682" y="484.8280243272775" width="1" height="50.37197567272244" fill="#f85149" opacity="0.45"/>
<rect x="608.7485549132948" y="486.40206468550184" width="1" height="48.79793531449809" fill="#3fb950" opacity="0.45"/>
<rect x="610.3670520231213" y="476.9292223619754" width="1" height="58.270777638024526" fill="#f85149" opacity="0.45"/>
<rect x="611.985549132948" y="488.9247298111365" width="1" height="46.27527018886343" fill="#3fb950" opacity="0.45"/>
<rect x="613.6040462427745" y="499.3641334913687" width="1" height="35.83586650863123" fill="#f85149" opacity="0.45"/>
<rect x="615.2225433526012" y="498.6571556036065" width="1" height="36.542844396393434" fill="#f85149" opacity="0.45"/>
<rect x="616.8410404624278" y="482.60760747487905" width="1" height="52.592392525120886" fill="#3fb950" opacity="0.45"/>
<rect x="618.4595375722542" y="487.14259780872266" width="1" height="48.057402191277276" fill="#f85149" opacity="0.45"/>
<rect x="620.0780346820809" y="485.9247253715437" width="1" height="49.27527462845626" fill="#3fb950" opacity="0.45"/>
<rect x="621.6965317919075" y="491.79566720051" width="1" height="43.40433279948991" fill="#f85149" opacity="0.45"/>
<rect x="623.3150289017341" y="493.1960397246311" width="1" height="42.003960275368854" fill="#3fb950" opacity="0.45"/>
<rect x="624.9335260115607" y="496.98110481804696" width="1" height="38.21889518195297" fill="#f85149" opacity="0.45"/>
<rect x="626.5520231213873" y="497.7022938424856" width="1" height="37.49770615751436" fill="#f85149" opacity="0.45"/>
<rect x="628.1705202312138" y="501.37715460575515" width="1" height="33.82284539424478" fill="#f85149" opacity="0.45"/>
<rect x="629.7890173410404" y="495.1639472821605" width="1" height="40.036052717839425" fill="#3fb950" opacity="0.45"/>
<rect x="631.407514450867" y="498.3441181684311" width="1" height="36.85588183156881" fill="#f85149" opacity="0.45"/>
<rect x="633.0260115606936" y="507.1232676100942" width="1" height="28.076732389905715" fill="#3fb950" opacity="0.45"/>
<rect x="634.6445086705203" y="503.4484487058428" width="1" height="31.75155129415714" fill="#3fb950" opacity="0.45"/>
<rect x="636.2630057803468" y="506.55010777111613" width="1" height="28.6498922288838" fill="#f85149" opacity="0.45"/>
<rect x="637.8815028901734" y="512.2270539802694" width="1" height="22.972946019730557" fill="#f85149" opacity="0.45"/>
<rect x="639.5" y="503.94742389982923" width="1" height="31.2525761001707" fill="#3fb950" opacity="0.45"/>
<rect x="641.1184971098265" y="503.9310465589614" width="1" height="31.268953441038548" fill="#3fb950" opacity="0.45"/>
<rect x="642.7369942196532" y="502.6241609195961" width="1" height="32.57583908040385" fill="#f85149" opacity="0.45"/>
<rect x="644.3554913294798" y="495.6153287724621" width="1" height="39.584671227537854" fill="#f85149" opacity="0.45"/>
<rect x="645.9739884393064" y="501.65382701887575" width="1" height="33.54617298112419" fill="#f85149" opacity="0.45"/>
<rect x="647.592485549133" y="508.95056026076054" width="1" height="26.249439739239392" fill="#3fb950" opacity="0.45"/>
<rect x="649.2109826589596" y="508.55020491363564" width="1" height="26.649795086364293" fill="#3fb950" opacity="0.45"/>
<rect x="650.8294797687861" y="515.5747551221009" width="1" height="19.625244877899036" fill="#f85149" opacity="0.45"/>
<rect x="652.4479768786127" y="505.00848199010454" width="1" height="30.19151800989539" fill="#3fb950" opacity="0.45"/>
<rect x="654.0664739884393" y="514.6931623399487" width="1" height="20.506837660051247" fill="#3fb950" opacity="0.45"/>
<rect x="655.6849710982659" y="519.1130403737629" width="1" height="16.08695962623699" fill="#f85149" opacity="0.45"/>
<rect x="657.3034682080926" y="521.1125724195368" width="1" height="14.0874275804631" fill="#3fb950" opacity="0.45"/>
<rect x="658.921965317919" y="509.00353284828316" width="1" height="26.196467151716774" fill="#3fb950" opacity="0.45"/>
<rect x="660.5404624277456" y="499.5595889444413" width="1" height="35.640411055558616" fill="#3fb950" opacity="0.45"/>
<rect x="662.1589595375723" y="516.1426616542958" width="1" height="19.057338345704125" fill="#f85149" opacity="0.45"/>
<rect x="663.7774566473988" y="507.7698952583774" width="1" height="27.43010474162253" fill="#3fb950" opacity="0.45"/>
<rect x="665.3959537572255" y="506.1049737392798" width="1" height="29.095026260720147" fill="#f85149" opacity="0.45"/>
<rect x="667.014450867052" y="490.63852696635115" width="1" height="44.56147303364878" fill="#f85149" opacity="0.45"/>
<rect x="668.6329479768785" y="493.65455294515715" width="1" height="41.54544705484278" fill="#f85149" opacity="0.45"/>
<rect x="670.2514450867052" y="513.8741697195034" width="1" height="21.325830280496575" fill="#f85149" opacity="0.45"/>
<rect x="671.8699421965317" y="516.502968385765" width="1" height="18.697031614234902" fill="#f85149" opacity="0.45"/>
<rect x="673.4884393063584" y="511.9948358444692" width="1" height="23.205164155530724" fill="#3fb950" opacity="0.45"/>
<rect x="675.106936416185" y="522.2769019400703" width="1" height="12.923098059929657" fill="#f85149" opacity="0.45"/>
<rect x="676.7254335260116" y="521.2951823864016" width="1" height="13.904817613598311" fill="#3fb950" opacity="0.45"/>
<rect x="678.3439306358382" y="523.7948355167849" width="1" height="11.405164483215003" fill="#f85149" opacity="0.45"/>
<rect x="679.9624277456647" y="521.7430581839295" width="1" height="13.456941816070412" fill="#3fb950" opacity="0.45"/>
<rect x="681.5809248554913" y="516.938014394217" width="1" height="18.26198560578291" fill="#3fb950" opacity="0.45"/>
<rect x="683.1994219653179" y="519.098625174373" width="1" height="16.101374825626976" fill="#f85149" opacity="0.45"/>
<rect x="684.8179190751446" y="514.0971265475284" width="1" height="21.1028734524715" fill="#f85149" opacity="0.45"/>
<rect x="686.4364161849711" y="526.1786647438296" width="1" height="9.021335256170346" fill="#3fb950" opacity="0.45"/>
<rect x="688.0549132947978" y="525.7165411829844" width="1" height="9.483458817015503" fill="#3fb950" opacity="0.45"/>
<rect x="689.6734104046243" y="523.9614762682093" width="1" height="11.238523731790679" fill="#3fb950" opacity="0.45"/>
<rect x="691.2919075144508" y="524.1565497577409" width="1" height="11.043450242259041" fill="#f85149" opacity="0.45"/>
<rect x="692.9104046242775" y="520.2795727251288" width="1" height="14.920427274871145" fill="#3fb950" opacity="0.45"/>
<rect x="694.528901734104" y="521.6030973242257" width="1" height="13.596902675774231" fill="#3fb950" opacity="0.45"/>
<rect x="696.1473988439307" y="523.8706526634861" width="1" height="11.32934733651382" fill="#3fb950" opacity="0.45"/>
<rect x="697.7658959537573" y="525.8504220202959" width="1" height="9.349577979704009" fill="#f85149" opacity="0.45"/>
<rect x="699.3843930635837" y="525.5890281488156" width="1" height="9.610971851184331" fill="#3fb950" opacity="0.45"/>
<rect x="701.0028901734104" y="519.2692948562983" width="1" height="15.93070514370163" fill="#3fb950" opacity="0.45"/>
<rect x="702.621387283237" y="523.9109315037418" width="1" height="11.289068496258096" fill="#f85149" opacity="0.45"/>
<rect x="704.2398843930636" y="526.8067802413173" width="1" height="8.393219758682676" fill="#f85149" opacity="0.45"/>
<rect x="705.8583815028902" y="518.9951444490238" width="1" height="16.204855550976163" fill="#3fb950" opacity="0.45"/>
<rect x="707.4768786127167" y="524.8234162413202" width="1" height="10.376583758679772" fill="#3fb950" opacity="0.45"/>
<rect x="709.0953757225434" y="515.5627572810115" width="1" height="19.637242718988432" fill="#f85149" opacity="0.45"/>
<rect x="710.7138728323699" y="514.3488928448245" width="1" height="20.85110715517544" fill="#f85149" opacity="0.45"/>
<rect x="712.3323699421965" y="519.467329871367" width="1" height="15.73267012863289" fill="#f85149" opacity="0.45"/>
<rect x="713.9508670520231" y="513.9434045355937" width="1" height="21.256595464406246" fill="#3fb950" opacity="0.45"/>
<rect x="715.5693641618498" y="503.2333195142197" width="1" height="31.966680485780216" fill="#f85149" opacity="0.45"/>
<rect x="717.1878612716763" y="517.4929132365086" width="1" height="17.70708676349136" fill="#3fb950" opacity="0.45"/>
<rect x="718.806358381503" y="525.3718687948101" width="1" height="9.828131205189834" fill="#f85149" opacity="0.45"/>
<rect x="720.4248554913295" y="525.0474771009501" width="1" height="10.152522899049814" fill="#f85149" opacity="0.45"/>
<rect x="722.043352601156" y="521.6611714795905" width="1" height="13.538828520409425" fill="#f85149" opacity="0.45"/>
<rect x="723.6618497109827" y="519.8797301509768" width="1" height="15.320269849023134" fill="#f85149" opacity="0.45"/>
<rect x="725.2803468208092" y="516.84635360913" width="1" height="18.353646390869926" fill="#3fb950" opacity="0.45"/>
<rect x="726.8988439306358" y="525.3781947389344" width="1" height="9.821805261065492" fill="#f85149" opacity="0.45"/>
<rect x="728.5173410404625" y="523.8342562471678" width="1" height="11.365743752832145" fill="#3fb950" opacity="0.45"/>
<rect x="730.1358381502889" y="524.1516156259714" width="1" height="11.048384374028501" fill="#3fb950" opacity="0.45"/>
<rect x="731.7543352601156" y="522.2098490253032" width="1" height="12.99015097469669" fill="#f85149" opacity="0.45"/>
<rect x="733.3728323699422" y="523.9581013848675" width="1" height="11.241898615132413" fill="#3fb950" opacity="0.45"/>
<rect x="734.9913294797688" y="523.4912686844757" width="1" height="11.708731315524233" fill="#3fb950" opacity="0.45"/>
<rect x="736.6098265895954" y="526.1502163085906" width="1" height="9.049783691409289" fill="#f85149" opacity="0.45"/>
<rect x="738.228323699422" y="517.1471786757477" width="1" height="18.05282132425225" fill="#3fb950" opacity="0.45"/>
<rect x="739.8468208092486" y="520.7681511854717" width="1" height="14.43184881452828" fill="#3fb950" opacity="0.45"/>
<rect x="741.4653179190751" y="515.4409841647123" width="1" height="19.75901583528764" fill="#3fb950" opacity="0.45"/>
<rect x="743.0838150289018" y="520.1539433467785" width="1" height="15.046056653221399" fill="#f85149" opacity="0.45"/>
<rect x="744.7023121387283" y="513.9260801344393" width="1" height="21.27391986556063" fill="#3fb950" opacity="0.45"/>
<rect x="746.320809248555" y="506.92394543021607" width="1" height="28.276054569783867" fill="#3fb950" opacity="0.45"/>
<rect x="747.9393063583815" y="502.39681935941536" width="1" height="32.80318064058457" fill="#3fb950" opacity="0.45"/>
<rect x="749.5578034682081" y="503.10241589957724" width="1" height="32.097584100422694" fill="#f85149" opacity="0.45"/>
<rect x="751.1763005780347" y="518.951197712299" width="1" height="16.248802287700983" fill="#3fb950" opacity="0.45"/>
<rect x="752.7947976878612" y="518.8397009849659" width="1" height="16.360299015034002" fill="#3fb950" opacity="0.45"/>
<rect x="754.4132947976879" y="519.7784941154782" width="1" height="15.421505884521707" fill="#3fb950" opacity="0.45"/>
<rect x="756.0317919075145" y="516.3146498952942" width="1" height="18.885350104705708" fill="#f85149" opacity="0.45"/>
<rect x="757.650289017341" y="512.7954209616644" width="1" height="22.404579038335555" fill="#3fb950" opacity="0.45"/>
<rect x="759.2687861271677" y="519.3432545090672" width="1" height="15.85674549093278" fill="#3fb950" opacity="0.45"/>
<rect x="760.8872832369942" y="518.4253333315011" width="1" height="16.774666668498867" fill="#f85149" opacity="0.45"/>
<rect x="762.5057803468208" y="509.7831413649866" width="1" height="25.41685863501334" fill="#f85149" opacity="0.45"/>
<rect x="764.1242774566474" y="519.9252466008838" width="1" height="15.274753399116094" fill="#3fb950" opacity="0.45"/>
<rect x="765.7427745664739" y="498.46058042179726" width="1" height="36.73941957820267" fill="#f85149" opacity="0.45"/>
<rect x="767.3612716763006" y="494.5158964272588" width="1" height="40.68410357274115" fill="#f85149" opacity="0.45"/>
<rect x="768.9797687861272" y="507.516041242549" width="1" height="27.68395875745091" fill="#3fb950" opacity="0.45"/>
<rect x="770.5982658959538" y="501.02722891079765" width="1" height="34.172771089202286" fill="#f85149" opacity="0.45"/>
<rect x="772.2167630057803" y="510.0997996052356" width="1" height="25.10020039476433" fill="#3fb950" opacity="0.45"/>
<rect x="773.835260115607" y="519.9410640773833" width="1" height="15.258935922616615" fill="#3fb950" opacity="0.45"/>
<rect x="775.4537572254335" y="516.0430110291113" width="1" height="19.15698897088862" fill="#3fb950" opacity="0.45"/>
<rect x="777.0722543352601" y="516.9529109723162" width="1" height="18.247089027683728" fill="#f85149" opacity="0.45"/>
<rect x="778.6907514450867" y="518.7472134842697" width="1" height="16.45278651573028" fill="#3fb950" opacity="0.45"/>
<rect x="780.3092485549133" y="519.3693326774011" width="1" height="15.830667322598856" fill="#3fb950" opacity="0.45"/>
<rect x="781.9277456647399" y="521.089759254622" width="1" height="14.11024074537795" fill="#3fb950" opacity="0.45"/>
<rect x="783.5462427745664" y="520.9384441362333" width="1" height="14.261555863766603" fill="#f85149" opacity="0.45"/>
<rect x="785.164739884393" y="523.057143574424" width="1" height="12.142856425575928" fill="#f85149" opacity="0.45"/>
<rect x="786.7832369942197" y="523.6500556376117" width="1" height="11.54994436238826" fill="#3fb950" opacity="0.45"/>
<rect x="788.4017341040462" y="521.9985028424493" width="1" height="13.201497157550648" fill="#f85149" opacity="0.45"/>
<rect x="790.0202312138729" y="522.9481950148235" width="1" height="12.251804985176477" fill="#f85149" opacity="0.45"/>
<rect x="791.6387283236994" y="521.9841347344548" width="1" height="13.215865265545176" fill="#3fb950" opacity="0.45"/>
<rect x="793.257225433526" y="495.43207522319256" width="1" height="39.76792477680738" fill="#f85149" opacity="0.45"/>
<rect x="794.8757225433526" y="507.8773054990594" width="1" height="27.322694500940543" fill="#f85149" opacity="0.45"/>
<rect x="796.4942196531792" y="516.1026235033947" width="1" height="19.097376496605193" fill="#f85149" opacity="0.45"/>
<rect x="798.1127167630058" y="518.5713428193338" width="1" height="16.628657180666096" fill="#f85149" opacity="0.45"/>
<rect x="799.7312138728324" y="522.1306674600148" width="1" height="13.069332539985112" fill="#3fb950" opacity="0.45"/>
<rect x="801.349710982659" y="519.6649201343674" width="1" height="15.535079865632497" fill="#f85149" opacity="0.45"/>
<rect x="802.9682080924855" y="524.9871896499983" width="1" height="10.212810350001632" fill="#3fb950" opacity="0.45"/>
<rect x="804.5867052023121" y="523.082002598853" width="1" height="12.117997401146908" fill="#f85149" opacity="0.45"/>
<rect x="806.2052023121387" y="523.9149185752246" width="1" height="11.285081424775285" fill="#f85149" opacity="0.45"/>
<rect x="807.8236994219653" y="497.2949114126816" width="1" height="37.905088587318346" fill="#3fb950" opacity="0.45"/>
<rect x="809.442196531792" y="502.1236317095593" width="1" height="33.076368290440655" fill="#3fb950" opacity="0.45"/>
<rect x="811.0606936416185" y="505.43203769806263" width="1" height="29.767962301937303" fill="#3fb950" opacity="0.45"/>
<rect x="812.679190751445" y="518.7685144921523" width="1" height="16.431485507847583" fill="#3fb950" opacity="0.45"/>
<rect x="814.2976878612717" y="511.65412436589133" width="1" height="23.545875634108597" fill="#f85149" opacity="0.45"/>
<rect x="815.9161849710982" y="517.5354786256331" width="1" height="17.664521374366814" fill="#f85149" opacity="0.45"/>
<rect x="817.5346820809249" y="506.1545609787061" width="1" height="29.045439021293816" fill="#f85149" opacity="0.45"/>
<rect x="819.1531791907514" y="502.76410608216815" width="1" height="32.43589391783178" fill="#3fb950" opacity="0.45"/>
<rect x="820.7716763005781" y="514.9085165237946" width="1" height="20.29148347620537" fill="#3fb950" opacity="0.45"/>
<rect x="822.3901734104046" y="519.7729477955677" width="1" height="15.427052204432243" fill="#3fb950" opacity="0.45"/>
<rect x="824.0086705202311" y="515.1617949781228" width="1" height="20.03820502187716" fill="#3fb950" opacity="0.45"/>
<rect x="825.6271676300578" y="509.8355383910091" width="1" height="25.364461608990837" fill="#f85149" opacity="0.45"/>
<rect x="827.2456647398844" y="500.2041707332104" width="1" height="34.99582926678954" fill="#3fb950" opacity="0.45"/>
<rect x="828.864161849711" y="494.6208840772629" width="1" height="40.57911592273706" fill="#3fb950" opacity="0.45"/>
<rect x="830.4826589595376" y="509.3680882700989" width="1" height="25.831911729901037" fill="#f85149" opacity="0.45"/>
<rect x="832.1011560693642" y="508.1564946856488" width="1" height="27.043505314351137" fill="#f85149" opacity="0.45"/>
<rect x="833.7196531791907" y="518.9024371884819" width="1" height="16.29756281151799" fill="#3fb950" opacity="0.45"/>
<rect x="835.3381502890173" y="513.6680768434326" width="1" height="21.53192315656736" fill="#3fb950" opacity="0.45"/>
<rect x="836.9566473988439" y="515.3949497094551" width="1" height="19.80505029054484" fill="#3fb950" opacity="0.45"/>
<rect x="838.5751445086705" y="508.27807943636617" width="1" height="26.921920563633762" fill="#3fb950" opacity="0.45"/>
<rect x="840.1936416184972" y="517.0176721058374" width="1" height="18.18232789416254" fill="#f85149" opacity="0.45"/>
<rect x="841.8121387283237" y="517.2403097588488" width="1" height="17.95969024115118" fill="#3fb950" opacity="0.45"/>
<rect x="843.4306358381502" y="515.3244224961779" width="1" height="19.875577503822" fill="#f85149" opacity="0.45"/>
<rect x="845.0491329479769" y="520.6912614014293" width="1" height="14.50873859857063" fill="#f85149" opacity="0.45"/>
<rect x="846.6676300578034" y="514.2732745284598" width="1" height="20.92672547154018" fill="#f85149" opacity="0.45"/>
<rect x="848.2861271676301" y="518.2106384271917" width="1" height="16.989361572808207" fill="#3fb950" opacity="0.45"/>
<rect x="849.9046242774567" y="522.0348626321268" width="1" height="13.165137367873172" fill="#3fb950" opacity="0.45"/>
<rect x="851.5231213872833" y="520.6853331179778" width="1" height="14.514666882022084" fill="#3fb950" opacity="0.45"/>
<rect x="853.1416184971098" y="513.5790374793598" width="1" height="21.62096252064009" fill="#f85149" opacity="0.45"/>
<rect x="854.7601156069364" y="514.9306442472865" width="1" height="20.26935575271341" fill="#f85149" opacity="0.45"/>
<rect x="856.378612716763" y="513.7979810740158" width="1" height="21.40201892598418" fill="#f85149" opacity="0.45"/>
<rect x="857.9971098265896" y="513.1038068134432" width="1" height="22.096193186556775" fill="#3fb950" opacity="0.45"/>
<rect x="859.6156069364162" y="517.8221710412336" width="1" height="17.377828958766372" fill="#f85149" opacity="0.45"/>
<rect x="861.2341040462428" y="506.93562932866905" width="1" height="28.26437067133088" fill="#3fb950" opacity="0.45"/>
<rect x="862.8526011560695" y="502.22165506541154" width="1" height="32.97834493458839" fill="#f85149" opacity="0.45"/>
<rect x="864.4710982658959" y="505.59039036388486" width="1" height="29.609609636115067" fill="#3fb950" opacity="0.45"/>
<rect x="866.0895953757225" y="514.209800559748" width="1" height="20.9901994402519" fill="#f85149" opacity="0.45"/>
<rect x="867.7080924855492" y="489.71363626225605" width="1" height="45.486363737743886" fill="#f85149" opacity="0.45"/>
<rect x="869.3265895953757" y="506.6584232130665" width="1" height="28.541576786933433" fill="#3fb950" opacity="0.45"/>
<rect x="870.9450867052024" y="495.8320643039083" width="1" height="39.36793569609165" fill="#f85149" opacity="0.45"/>
<rect x="872.5635838150289" y="512.0731697646391" width="1" height="23.126830235360785" fill="#f85149" opacity="0.45"/>
<rect x="874.1820809248554" y="509.9942939498814" width="1" height="25.205706050118522" fill="#3fb950" opacity="0.45"/>
<rect x="875.8005780346821" y="512.1719884418371" width="1" height="23.028011558162802" fill="#3fb950" opacity="0.45"/>
<rect x="877.4190751445086" y="519.3076377169626" width="1" height="15.8923622830373" fill="#f85149" opacity="0.45"/>
<rect x="879.0375722543353" y="491.99407371436524" width="1" height="43.20592628563469" fill="#3fb950" opacity="0.45"/>
<rect x="880.6560693641619" y="488.3329793357037" width="1" height="46.867020664296206" fill="#f85149" opacity="0.45"/>
<rect x="882.2745664739884" y="512.9363079521459" width="1" height="22.26369204785408" fill="#3fb950" opacity="0.45"/>
<rect x="883.893063583815" y="503.715739466511" width="1" height="31.484260533488907" fill="#f85149" opacity="0.45"/>
<rect x="885.5115606936416" y="488.7094070215543" width="1" height="46.49059297844565" fill="#3fb950" opacity="0.45"/>
<rect x="887.1300578034682" y="506.4723284829372" width="1" height="28.72767151706273" fill="#f85149" opacity="0.45"/>
<rect x="888.7485549132948" y="506.0934206502587" width="1" height="29.106579349741253" fill="#f85149" opacity="0.45"/>
<rect x="890.3670520231213" y="499.734407901545" width="1" height="35.46559209845492" fill="#f85149" opacity="0.45"/>
<rect x="891.985549132948" y="487.9691459819518" width="1" height="47.23085401804815" fill="#3fb950" opacity="0.45"/>
<rect x="893.6040462427746" y="512.3903041512201" width="1" height="22.809695848779825" fill="#f85149" opacity="0.45"/>
<rect x="895.2225433526012" y="514.2861461765539" width="1" height="20.91385382344606" fill="#3fb950" opacity="0.45"/>
<rect x="896.8410404624277" y="512.9921897414328" width="1" height="22.20781025856718" fill="#f85149" opacity="0.45"/>
<rect x="898.4595375722544" y="509.19012988663076" width="1" height="26.009870113369175" fill="#f85149" opacity="0.45"/>
<rect x="900.0780346820809" y="505.624986842421" width="1" height="29.57501315757895" fill="#f85149" opacity="0.45"/>
<rect x="901.6965317919075" y="513.5906847511719" width="1" height="21.60931524882801" fill="#f85149" opacity="0.45"/>
<rect x="903.3150289017342" y="505.0848119097786" width="1" height="30.115188090221352" fill="#3fb950" opacity="0.45"/>
<rect x="904.9335260115606" y="515.3247469035689" width="1" height="19.875253096431038" fill="#3fb950" opacity="0.45"/>
<rect x="906.5520231213873" y="485.2442233127882" width="1" height="49.95577668721171" fill="#3fb950" opacity="0.45"/>
<rect x="908.1705202312139" y="509.49015963190277" width="1" height="25.70984036809716" fill="#f85149" opacity="0.45"/>
<rect x="909.7890173410404" y="518.7593264376591" width="1" height="16.440673562340862" fill="#f85149" opacity="0.45"/>
<rect x="911.4075144508671" y="519.2378325717493" width="1" height="15.96216742825061" fill="#3fb950" opacity="0.45"/>
<rect x="913.0260115606936" y="452.3575443956641" width="1" height="82.84245560433584" fill="#3fb950" opacity="0.45"/>
<rect x="914.6445086705202" y="473.410480039432" width="1" height="61.78951996056793" fill="#f85149" opacity="0.45"/>
<rect x="916.2630057803468" y="474.4164987531615" width="1" height="60.783501246838455" fill="#3fb950" opacity="0.45"/>
<rect x="917.8815028901734" y="480.00200916945045" width="1" height="55.197990830549486" fill="#3fb950" opacity="0.45"/>
<rect x="919.5" y="483.5332935003198" width="1" height="51.66670649968012" fill="#3fb950" opacity="0.45"/>
<polyline points="80.0,310.4006375042028 81.61849710982659,309.0710917788962 83.23699421965318,307.484214622885 84.85549132947978,307.441326051101 86.47398843930635,313.70305753157743 88.09248554913295,318.8496861456676 89.71098265895954,317.4343632767928 91.32947976878613,321.5087775962809 92.94797687861272,323.22432046764425 94.5664739884393,322.7096576062353 96.18497109826589,321.59455473984906 97.80346820809248,326.82696049750746 99.42196531791907,324.46808904938274 101.04046242774567,330.0436033813138 102.65895953757226,332.0164776833817 104.27745664739885,332.44536340122255 105.89595375722544,331.8878119680295 107.51445086705202,333.38891198047247 109.13294797687861,332.7026948319271 110.7514450867052,329.8720490941775 112.36994219653178,334.50401484685864 113.98843930635837,334.20379484437007 115.60693641618496,334.28957198793825 117.22543352601156,337.72065773066504 118.84393063583815,333.38891198047247 120.46242774566474,329.65760623525705 122.08092485549133,325.5403033439849 123.69942196531792,322.49521474731483 125.31791907514452,325.24008334149624 126.93641618497111,327.4702890742687 128.5549132947977,329.57182909168887 130.1734104046243,333.0029148344157 131.79190751445088,328.88561194314354 133.41040462427745,328.3709490817345 135.02890173410404,337.3346605846083 136.64739884393063,341.0230777580396 138.26589595375722,335.0615662800518 139.88439306358381,374.34749803427377 141.5028901734104,376.9208123413189 143.121387283237,376.1917066209894 144.73988439306356,377.64991806164835 146.35838150289015,378.0788037794892 147.97687861271675,381.68144380935234 149.59537572254334,373.14661802431937 151.21387283236993,372.5461780193422 152.83236994219652,368.1715436973655 154.4508670520231,366.1986693952976 156.0693641618497,363.9684636625252 157.6878612716763,364.1829065214456 159.3063583815029,366.0271151081613 160.92485549132948,366.45600082600214 162.54335260115607,365.4266751031841 164.16184971098266,366.884886543843 165.78034682080926,365.3408979596159 167.39884393063585,364.2257950932297 169.01734104046244,368.2573208409337 170.63583815028903,370.65908086084244 172.25433526011562,370.1015294276494 173.87283236994222,370.0586408558653 175.49132947976878,371.3452980093878 177.10982658959537,372.67484373469443 178.72832369942196,363.11069222684347 180.34682080924856,359.6367179123326 181.96531791907515,360.70893220693466 183.58381502890174,362.59602936543445 185.20231213872833,359.5509407687644 186.8208092485549,361.39514935548004 188.43930635838151,362.63891793721854 190.05780346820808,366.0700036799454 191.67630057803467,365.81267224924085 193.29479768786126,365.72689510567267 194.91329479768785,369.28664656375173 196.53179190751445,368.0428779820133 198.15028901734104,369.28664656375173 199.76878612716763,371.73129515544457 201.38728323699422,374.5619408931942 203.0057803468208,374.6906066085465 204.6242774566474,376.96370091310297 206.242774566474,378.5505780691141 207.8612716763006,377.993026635921 209.47976878612715,377.73569520521653 211.09826589595377,376.7063694823985 212.71676300578034,363.19646937041165 214.33526011560696,361.13781792477556 215.95375722543352,359.89404934303707 217.5722543352601,357.40651217956014 219.1907514450867,353.6323178625607 220.8092485549133,351.18766927086784 222.4277456647399,355.90541216711716 224.04624277456648,355.30497216213996 225.66473988439307,355.34786073392405 227.28323699421964,347.49925209743645 228.90173410404626,349.0432406816635 230.52023121387282,351.31633498622006 232.13872832369944,352.81743499866303 233.757225433526,353.28920928828796 235.3757225433526,356.63451788744663 236.9942196531792,356.8918493181511 238.61271676300578,352.77454642687894 240.23121387283237,353.33209786007205 241.84971098265896,349.00035210987943 243.46820809248555,339.1359805995399 245.08670520231215,315.16126897223626 246.70520231213874,286.38303730511507 248.3236994219653,304.4391260262149 249.94219653179192,305.98311461044204 251.56069364161849,321.2085575937923 253.17919075144508,317.0054775589519 254.79768786127167,322.580991890883 256.41618497109823,324.7254204800873 258.0346820809249,326.8698490692915 259.6531791907514,313.27417181373653 261.27167630057806,308.2562089149985 262.8901734104046,311.34418608345266 264.50867052023125,300.92226313991995 266.1271676300578,302.50914029593116 267.74566473988443,294.403200228739 269.36416184971097,290.7576716270918 270.98265895953756,309.0710917788962 272.60115606936415,302.6378060112834 274.21965317919074,301.7800345756017 275.83815028901734,301.6513688602495 277.4566473988439,288.87057446859205 279.0751445086705,263.8236485466863 280.6936416184971,270.0424914553787 282.3121387283237,271.71514575495803 283.9306358381503,271.20048289354895 285.5491329479769,259.4490142247096 287.1676300578035,265.28185998734523 288.78612716763007,270.77159717570817 290.40462427745666,278.79176009933207 292.02312138728325,288.87057446859205 293.6416184971098,298.77783455071574 295.26011560693644,292.47321449845515 296.87861271676303,290.6718944835236 298.4971098265896,292.30166021131885 300.11560693641616,301.13670599884045 301.7341040462428,296.2045202436706 303.35260115606934,296.2045202436706 304.971098265896,297.2338459664886 306.5895953757225,303.0666917291243 308.2080924855491,298.2202831175226 309.8265895953757,297.7056202561136 311.44508670520236,298.9922774096362 313.0635838150289,302.93802601377195 314.6820809248555,299.1209431249884 316.3005780346821,293.6312059366255 317.9190751445087,292.34454878310294 319.53757225433526,287.9699144611262 321.15606936416185,290.28589733746685 322.77456647398844,283.3379487084451 324.393063583815,296.2474088154547 326.0115606936416,298.391837404659 327.6300578034682,301.1795945706245 329.2485549132948,299.8500488453179 330.86705202312135,300.66493170921547 332.485549132948,299.2067202685566 334.10404624277453,303.15246887269245 335.7225433526012,303.2382460162606 337.34104046242777,303.0238031573401 338.9595375722543,305.6400060361694 340.5780346820809,304.953788887624 342.19653179190755,300.15026884780644 343.8150289017341,305.8544488950897 345.4335260115607,308.2133203432145 347.05202312138726,312.2019575191344 348.6705202312139,310.01464035814604 350.28901734104045,308.2562089149985 351.90751445086704,313.18839467016835 353.52601156069363,313.5743918162251 355.1445086705202,313.10261752660017 356.7630057803468,311.2155203681004 358.3815028901734,300.7078202809996 360.0,303.5813545905333 361.6184971098266,307.52710319466905 363.2369942196532,301.13670599884045 364.8554913294798,294.10298022625045 366.47398843930637,294.06009165446636 368.09248554913296,298.69205740714756 369.7109826589595,299.42116312747703 371.32947976878614,294.7891973747958 372.94797687861274,294.874974518364 374.56647398843927,295.7756345258298 376.18497109826586,291.27233448850086 377.8034682080925,289.55679161713743 379.4219653179191,282.0512915549225 381.04046242774564,284.32438585947904 382.6589595375723,283.2092829930928 384.2774566473989,286.1685944461947 385.8959537572254,276.4757772229915 387.514450867052,267.21184571762905 389.13294797687865,275.3177857848211 390.7514450867052,271.71514575495803 392.3699421965318,268.92738858899247 393.9884393063584,255.7177084794942 395.60693641618496,267.25473428941314 397.22543352601156,273.17335719561686 398.84393063583815,271.3291486089012 400.46242774566474,271.88670004209433 402.08092485549133,272.6158057624238 403.6994219653179,263.13743139814096 405.31791907514446,268.02672858152664 406.9364161849711,270.0853800271628 408.5549132947977,268.92738858899247 410.1734104046243,274.8460114951962 411.7919075144509,273.8595743441623 413.4104046242775,276.39000007942326 415.02890173410407,279.64953153501375 416.6473988439306,284.49594014661534 418.26589595375725,281.92262583957023 419.88439306358384,281.70818298064984 421.5028901734104,277.4622143740254 423.12138728323697,278.19132009435486 424.7398843930636,278.2342086661389 426.35838150289015,282.6946201316838 427.97687861271675,280.5930801142636 429.59537572254334,279.3064229607411 431.21387283236993,283.1663944213087 432.8323699421965,277.84821152008215 434.4508670520231,281.7510715524339 436.0693641618497,284.4530515748313 437.6878612716763,274.760234351628 439.3063583815029,271.07181717819674 440.9248554913295,280.5930801142636 442.5433526011561,310.7866346502596 444.16184971098266,309.6286432120893 445.78034682080926,310.9153003656118 447.39884393063585,306.02600318222613 449.01734104046244,301.9944774345221 450.63583815028903,300.8364859963518 452.25433526011557,303.92446316480596 453.8728323699422,308.04176605607813 455.4913294797688,309.499977496737 457.10982658959534,311.4728517988049 458.72832369942194,300.6220431374314 460.3468208092486,301.56559171668124 461.9653179190751,299.5927174146134 463.5838150289017,298.6491688353634 465.20231213872836,297.7485088278977 466.8208092485549,289.8141230478419 468.4393063583815,288.9134630403762 470.0578034682081,284.5388287183995 471.6763005780347,287.41236302793317 473.29479768786126,286.34014873333103 474.91329479768785,282.0512915549225 476.53179190751445,283.85261156985405 478.15028901734104,286.72614587938784 479.76878612716763,286.85481159474006 481.3872832369942,286.12570587441064 483.0057803468208,291.52966591920534 484.6242774566474,291.7869973499098 486.242774566474,291.70122020634165 487.8612716763006,289.2136830428648 489.4797687861272,288.5703544661035 491.0982658959538,299.1638316967725 492.7167630057803,291.829885921694 494.33526011560696,293.7169830801937 495.95375722543355,298.00584025860223 497.5722543352601,301.3511488577609 499.1907514450867,294.874974518364 500.8092485549133,269.8280485964582 502.4277456647399,266.35407428194736 504.0462427745665,254.43105132597168 505.66473988439304,259.148794222221 507.28323699421964,260.9930028089367 508.9017341040462,260.9072256653685 510.5202312138728,250.95707701146074 512.1387283236994,250.9141884396767 513.7572254335261,245.25289696417747 515.3757225433526,260.60700566287994 516.9942196531792,259.2345713657892 518.6127167630058,264.4669771234476 520.2312138728323,268.0696171533108 521.849710982659,272.40136290350335 523.4682080924856,272.95891433669647 525.0867052023123,272.48714004707153 526.7052023121387,266.7829599997882 528.3236994219653,266.9116257151404 529.942196531792,271.5007028960375 531.5606936416185,266.61140571265184 533.179190751445,251.60040558822203 534.7976878612717,245.89622554093873 536.4161849710982,247.18288269446128 538.0346820809248,243.4515769492459 539.6531791907514,236.4178511766559 541.2716763005781,238.04761690445113 542.8901734104047,232.25765971359962 544.5086705202312,232.47210257252004 546.1271676300578,232.68654543144052 547.7456647398844,217.46110244809026 549.364161849711,200.43433944980845 550.9826589595375,207.16784521990982 552.6011560693642,218.74775960161284 554.2196531791908,213.300910985034 555.8381502890174,214.28734813606798 557.4566473988439,211.54247954188654 559.0751445086705,217.50399101987438 560.6936416184972,205.96696520995542 562.3121387283237,209.99849095765947 563.9306358381502,208.49739094521647 565.5491329479769,210.5131538190685 567.1676300578034,196.660145132809 568.78612716763,222.99372820823726 570.4046242774566,221.74995962649876 572.0231213872833,224.66638250781656 573.6416184971099,225.26682251279377 575.2601156069364,225.26682251279377 576.878612716763,226.0817053766914 578.4971098265896,232.943876862145 580.1156069364162,233.15831972106545 581.7341040462427,229.59856826298636 583.3526011560693,232.25765971359962 584.971098265896,223.59416821321443 586.5895953757226,223.50839106964628 588.2080924855491,223.07950535180544 589.8265895953757,213.21513384146587 591.4450867052024,221.9644024854192 593.0635838150289,217.50399101987438 594.6820809248555,215.23089671531784 596.3005780346821,206.56740521493265 597.9190751445086,190.141082221628 599.5375722543353,200.0483423037517 601.1560693641618,200.09123087553579 602.7745664739884,200.64878230872893 604.3930635838151,165.26571058685863 606.0115606936416,160.89107626488195 607.6300578034682,168.6539077578014 609.2485549132948,156.64510765825753 610.8670520231213,168.26791061174458 612.485549132948,159.1755333935185 614.1040462427745,159.26131053708673 615.7225433526012,168.73968490136951 617.3410404624278,151.8844761902241 618.9595375722542,156.9882162325302 620.5780346820809,137.08791892471467 622.1965317919075,137.5168046425555 623.8150289017341,123.23491023845514 625.4335260115607,128.72464742681808 627.0520231213873,134.55749318945362 628.6705202312138,142.49187896950934 630.2890173410404,118.77449877291033 631.907514450867,131.5981817363518 633.5260115606936,125.29356168409127 635.1445086705203,118.5171673422058 636.7630057803468,119.20338449075118 638.3815028901734,125.89400168906845 640.0,104.70704722773038 641.6184971098265,92.35513855391383 643.2369942196532,111.569218713184 644.8554913294798,135.15793319443083 646.4739884393064,147.16673329397466 648.092485549133,127.86687599113637 649.7109826589596,124.90756453803448 651.3294797687861,135.8870389147603 652.9479768786127,116.63007018370608 654.5664739884393,108.69568440365028 656.1849710982659,116.28696160943335 657.8034682080926,115.72941017624025 659.421965317919,94.11356999706136 661.0404624277456,91.19714711574356 662.6589595375723,95.87200144020886 664.2774566473988,79.91745273652916 665.8959537572255,95.35733857879978 667.514450867052,116.7587358990583 669.1329479768785,135.58681891227167 670.7514450867052,136.01570463011257 672.3699421965317,138.88923893964625 673.9884393063584,125.67955883014807 675.606936416185,129.196421716443 677.2254335260116,125.76533597371619 678.8439306358382,135.58681891227167 680.4624277456647,130.78329887245417 682.0809248554913,115.72941017624025 683.6994219653179,127.86687599113637 685.3179190751446,145.10808184833857 686.9364161849711,144.20742184087283 688.5549132947978,143.1352075462707 690.1734104046243,140.5190046674415 691.7919075144508,146.73784757613384 693.4104046242775,142.49187896950934 695.028901734104,136.83058749401016 696.6473988439307,133.6139446102038 698.2658959537573,139.01790465499852 699.8843930635837,132.97061603344247 701.5028901734104,122.50580451812569 703.121387283237,134.72904747658998 704.7398843930636,135.50104176870352 706.3583815028902,135.37237605335127 707.9768786127167,135.243710337999 709.5953757225434,140.09011894960065 711.2138728323699,148.02450472965637 712.8323699421965,148.8822761653381 714.4508670520231,142.27743611058895 716.0693641618498,143.73564755124787 717.6878612716763,143.73564755124787 719.306358381503,146.60918186078158 720.9248554913295,147.50984186824735 722.543352601156,155.70155907900767 724.1618497109827,156.60221908647344 725.7803468208092,150.85515046740602 727.3988439306358,152.9566904848262 729.0173410404625,149.18249616782668 730.6358381502889,144.80786184584997 732.2543352601156,154.24334763834875 733.8728323699422,150.81226189562196 735.4913294797688,147.85295044252004 737.1098265895954,149.82582474458798 738.728323699422,138.11724464753271 740.3468208092486,137.73124750147593 741.9653179190751,124.39290167662544 743.5838150289018,124.77889882268224 745.2023121387283,105.95081580946885 746.820809248555,105.09304437378711 748.4393063583815,96.08644429912925 750.0578034682081,96.12933287091337 751.6763005780347,93.3844642767319 753.2947976878612,93.2986871331637 754.9132947976879,92.95557855889103 756.5317919075145,97.84487574227674 758.150289017341,86.99406708090319 759.7687861271677,85.1927470659716 761.3872832369942,90.98270425682315 763.0057803468208,100.50396719289004 764.6242774566474,98.70264717795845 766.2427745664739,122.07691880028489 767.8612716763006,141.20522181598682 769.4797687861272,138.1601332193168 771.0982658959538,161.74884770056366 772.7167630057803,158.40353910140502 774.335260115607,156.68799623004156 775.9537572254335,154.11468192299645 777.5722543352601,158.10331909891636 779.1907514450867,151.28403618524686 780.8092485549133,150.55493046491742 782.4277456647399,150.04026760350837 784.0462427745664,150.38337617778103 785.664739884393,156.60221908647344 787.2832369942197,152.69935905412166 788.9017341040462,155.5300047918713 790.5202312138729,157.3313248068029 792.1387283236994,152.22758476449675 793.757225433526,172.98565350799393 795.3757225433526,190.91307651374157 796.9942196531792,192.54284224153682 798.6127167630058,194.51571654360473 800.2312138728324,190.01241650627577 801.849710982659,196.40281370210445 803.4682080924855,191.3419622315824 805.0867052023121,193.9581651104116 806.7052023121387,200.09123087553579 808.3236994219653,176.54540496607308 809.942196531792,173.88631351545973 811.5606936416185,168.61101918601724 813.179190751445,163.93616486155196 814.7976878612717,177.18873354283429 816.4161849710982,178.90427641419774 818.0346820809249,197.90391371454746 819.6531791907514,176.2022963918003 821.2716763005781,172.94276493620987 822.8901734104046,170.92700206235787 824.5086705202311,165.0083791561541 826.1271676300578,170.5838934880852 827.7456647398844,161.70595912877954 829.364161849711,145.02230470477042 830.9826589595376,148.71072187820175 832.6011560693642,159.94752768563205 834.2196531791907,157.03110480431423 835.8381502890173,150.76937332383784 837.4566473988439,147.81006187073598 839.0751445086705,136.01570463011257 840.6936416184972,136.2730360608171 842.3121387283237,131.16929601851086 843.9306358381502,131.51240459278364 845.5491329479769,132.15573316954487 847.1676300578034,135.15793319443083 848.7861271676301,131.212184590295 850.4046242774567,129.58241886249976 852.0231213872833,127.48087884507957 853.6416184971098,142.4489903977253 855.2601156069364,146.0516304275885 856.878612716763,151.54136761595134 858.4971098265896,145.8800761404521 860.1156069364162,146.69495900434976 861.7341040462428,139.18945894213485 863.3526011560695,147.7671732989519 864.9710982658959,142.87787611556615 866.5895953757225,150.59781903670148 868.2080924855492,152.39913905163306 869.8265895953757,149.0967190242585 871.4450867052024,154.58645621262144 873.0635838150289,159.6044191113594 874.6820809248554,154.80089907154183 876.3005780346821,150.76937332383784 877.9190751445086,155.4871162200872 879.5375722543353,135.62970748405576 881.1560693641619,137.17369606828285 882.7745664739884,134.6432703330218 884.393063583815,142.62054468486167 886.0115606936416,121.04759307746681 887.6300578034682,123.7495730998642 889.2485549132948,133.95705318447648 890.8670520231213,140.60478181100964 892.485549132948,122.29136165920531 894.1040462427746,128.51020456789766 895.7225433526012,124.30712453305728 897.3410404624277,131.46951602099955 898.9595375722544,137.3023617836351 900.5780346820809,154.88667621510996 902.1965317919075,157.88887623999597 903.8150289017342,138.760573224294 905.4335260115606,133.99994175626054 907.0520231213873,128.51020456789766 908.6705202312139,133.35661317949925 910.2890173410404,137.73124750147593 911.9075144508671,137.08791892471467 913.5260115606936,88.53805566513023 915.1445086705202,89.6960471033006 916.7630057803468,72.6692841050188 918.3815028901734,69.28108693407606 920.0,67.82287549341713" stroke="#58a6ff" stroke-width="1.8" fill="none"/>
<line x1="80" y1="79.91745273652916" x2="920" y2="79.91745273652916" stroke="#f0883e" stroke-width="2" stroke-dasharray="8,4"/>
<text x="925" y="84.91745273652916" font-size="11" fill="#f0883e" font-weight="bold">━ 颈线 88.38</text>
<line x1="80" y1="12.668172179083662" x2="920" y2="12.668172179083662" stroke="#a371f7" stroke-width="1.5" stroke-dasharray="5,5"/>
<text x="925" y="17.668172179083662" font-size="11" fill="#a371f7" font-weight="bold">▼ 目标 104.06 (+14.1%)</text>
<circle cx="646.4739884393064" cy="147.16673329397466" r="7" fill="#238636" stroke="#fff" stroke-width="2"/>
<text x="646.4739884393064" y="167.16673329397466" text-anchor="middle" font-size="10" fill="#3fb950">左底 ¥72.70</text>
<circle cx="691.7919075144508" cy="146.73784757613384" r="7" fill="#8957e5" stroke="#fff" stroke-width="2"/>
<text x="691.7919075144508" y="166.73784757613384" text-anchor="middle" font-size="10" fill="#bc8cff">右底 ¥72.80</text>
<circle cx="916.7630057803468" cy="79.91745273652916" r="8" fill="#f0883e" stroke="#fff" stroke-width="2.5"/>
<text x="916.7630057803468" y="65.91745273652916" text-anchor="middle" font-size="11" fill="#f0883e" font-weight="bold">★ 突破</text>
<line x1="920.0" y1="67.82287549341713" x2="920" y2="67.82287549341713" stroke="#88ccff" stroke-width="1.5"/>
<text x="925" y="72.82287549341713" font-size="11" fill="#88ccff" font-weight="bold">● 现价 91.20</text>
<text x="80" y="618" font-size="13" fill="#58a6ff" font-weight="bold">评分原因 (总分: 83):</text>
<text x="90" y="636" font-size="11" fill="#c9d1d9">1. 刚刚突破(2天前)</text>
<text x="90" y="652" font-size="11" fill="#c9d1d9">2. 右底显著缩量(33%)</text>
<text x="90" y="668" font-size="11" fill="#c9d1d9">3. 形态跨度适中(28根K线)</text>
<text x="90" y="684" font-size="11" fill="#c9d1d9">4. MACD改善</text>
<text x="90" y="700" font-size="11" fill="#c9d1d9">5. 右底高于左底</text>
<text x="90" y="716" font-size="11" fill="#c9d1d9">6. 振幅理想(21.6%)</text>
<text x="928" y="80" font-size="10" fill="#8b949e">突破日: 2026-06-23</text>
<text x="928" y="96" font-size="10" fill="#8b949e">突破后涨幅: 3.2%</text>
<text x="928" y="112" font-size="10" fill="#8b949e">目标空间: 14.1%</text>
<text x="928" y="128" font-size="10" fill="#8b949e">形态跨度: 28根K线</text>
</svg>