<svg xmlns="http://www.w3.org/2000/svg" viewBox="0 0 1000 720" width="1000" height="720">
<rect width="1000" height="720" fill="#0d1117"/>
<text x="500.0" y="24" text-anchor="middle" font-size="17" fill="#58a6ff" font-weight="bold">流金科技 (920021.BJ)  W双底突破</text>
<text x="500.0" y="44" text-anchor="middle" font-size="13" fill="#8b949e">评分:70/100 | 突破后涨幅:2.6% | 目标空间:10.1%</text>
<line x1="80" y1="384.0" x2="920" y2="384.0" stroke="#21262d" stroke-width="0.5"/>
<text x="72" y="388.0" text-anchor="end" font-size="10" fill="#8b949e">2.71</text>
<line x1="80" y1="319.2" x2="920" y2="319.2" stroke="#21262d" stroke-width="0.5"/>
<text x="72" y="323.2" text-anchor="end" font-size="10" fill="#8b949e">5.48</text>
<line x1="80" y1="254.40000000000003" x2="920" y2="254.40000000000003" stroke="#21262d" stroke-width="0.5"/>
<text x="72" y="258.40000000000003" text-anchor="end" font-size="10" fill="#8b949e">8.25</text>
<line x1="80" y1="189.6" x2="920" y2="189.6" stroke="#21262d" stroke-width="0.5"/>
<text x="72" y="193.6" text-anchor="end" font-size="10" fill="#8b949e">11.03</text>
<line x1="80" y1="124.80000000000003" x2="920" y2="124.80000000000003" stroke="#21262d" stroke-width="0.5"/>
<text x="72" y="128.8" text-anchor="end" font-size="10" fill="#8b949e">13.80</text>
<line x1="80" y1="60.0" x2="920" y2="60.0" stroke="#21262d" stroke-width="0.5"/>
<text x="72" y="64.0" text-anchor="end" font-size="10" fill="#8b949e">16.57</text>
<text x="80.0" y="550.1999999999999" text-anchor="middle" font-size="9" fill="#8b949e">2024-05-06</text>
<text x="185.20231213872833" y="550.1999999999999" text-anchor="middle" font-size="9" fill="#8b949e">2024-08-06</text>
<text x="290.40462427745666" y="550.1999999999999" text-anchor="middle" font-size="9" fill="#8b949e">2024-11-14</text>
<text x="395.60693641618496" y="550.1999999999999" text-anchor="middle" font-size="9" fill="#8b949e">2025-02-24</text>
<text x="500.8092485549133" y="550.1999999999999" text-anchor="middle" font-size="9" fill="#8b949e">2025-05-30</text>
<text x="606.0115606936416" y="550.1999999999999" text-anchor="middle" font-size="9" fill="#8b949e">2025-09-01</text>
<text x="711.2138728323699" y="550.1999999999999" text-anchor="middle" font-size="9" fill="#8b949e">2025-12-09</text>
<text x="816.4161849710982" y="550.1999999999999" text-anchor="middle" font-size="9" fill="#8b949e">2026-03-20</text>
<rect x="635.1445086705203" y="60" width="119.76878612716757" height="475.2" fill="#238636" opacity="0.08" rx="3"/>
<text x="695.028901734104" y="54" text-anchor="middle" font-size="11" fill="#3fb950" font-weight="bold">▼ 双底区域 ▼</text>
<rect x="79.5" y="530.3723777628635" width="1" height="4.827622237136438" fill="#3fb950" opacity="0.45"/>
<rect x="81.11849710982659" y="530.1023355038102" width="1" height="5.097664496189736" fill="#3fb950" opacity="0.45"/>
<rect x="82.73699421965318" y="530.875275464376" width="1" height="4.324724535623886" fill="#f85149" opacity="0.45"/>
<rect x="84.35549132947978" y="531.7550955295067" width="1" height="3.4449044704932703" fill="#3fb950" opacity="0.45"/>
<rect x="85.97398843930635" y="530.8417646239873" width="1" height="4.358235376012658" fill="#f85149" opacity="0.45"/>
<rect x="87.59248554913295" y="531.9045804355441" width="1" height="3.2954195644558695" fill="#f85149" opacity="0.45"/>
<rect x="89.21098265895954" y="532.686317432067" width="1" height="2.5136825679329604" fill="#3fb950" opacity="0.45"/>
<rect x="90.82947976878613" y="532.0164845420105" width="1" height="3.183515457989415" fill="#f85149" opacity="0.45"/>
<rect x="92.44797687861272" y="532.9894319738158" width="1" height="2.2105680261840917" fill="#f85149" opacity="0.45"/>
<rect x="94.0664739884393" y="531.5208266371708" width="1" height="3.6791733628291468" fill="#3fb950" opacity="0.45"/>
<rect x="95.68497109826589" y="531.7326643819207" width="1" height="3.4673356180792325" fill="#f85149" opacity="0.45"/>
<rect x="97.30346820809248" y="532.8927041203748" width="1" height="2.307295879625144" fill="#f85149" opacity="0.45"/>
<rect x="98.92196531791907" y="525.1499702040026" width="1" height="10.050029795997375" fill="#f85149" opacity="0.45"/>
<rect x="100.54046242774567" y="523.8346752905841" width="1" height="11.365324709415859" fill="#3fb950" opacity="0.45"/>
<rect x="102.15895953757226" y="530.5706741401526" width="1" height="4.629325859847313" fill="#f85149" opacity="0.45"/>
<rect x="103.77745664739885" y="531.9640704271513" width="1" height="3.2359295728485904" fill="#f85149" opacity="0.45"/>
<rect x="105.39595375722544" y="532.6458335243566" width="1" height="2.554166475643342" fill="#f85149" opacity="0.45"/>
<rect x="107.01445086705202" y="531.1009184301499" width="1" height="4.09908156985" fill="#f85149" opacity="0.45"/>
<rect x="108.63294797687861" y="530.2469603278706" width="1" height="4.953039672129307" fill="#f85149" opacity="0.45"/>
<rect x="110.2514450867052" y="532.5104493265757" width="1" height="2.6895506734242645" fill="#f85149" opacity="0.45"/>
<rect x="111.86994219653178" y="529.3232859313154" width="1" height="5.876714068684578" fill="#3fb950" opacity="0.45"/>
<rect x="113.48843930635837" y="530.7269825725277" width="1" height="4.4730174274722" fill="#3fb950" opacity="0.45"/>
<rect x="115.10693641618496" y="531.7862417530874" width="1" height="3.4137582469124936" fill="#f85149" opacity="0.45"/>
<rect x="116.72543352601156" y="530.5741344322465" width="1" height="4.625865567753408" fill="#f85149" opacity="0.45"/>
<rect x="118.34393063583815" y="532.2582074772365" width="1" height="2.9417925227634214" fill="#3fb950" opacity="0.45"/>
<rect x="119.96242774566474" y="533.0629759421222" width="1" height="2.1370240578777384" fill="#3fb950" opacity="0.45"/>
<rect x="121.58092485549133" y="529.4820610709779" width="1" height="5.7179389290220115" fill="#3fb950" opacity="0.45"/>
<rect x="123.19942196531792" y="532.3861146258221" width="1" height="2.8138853741778576" fill="#f85149" opacity="0.45"/>
<rect x="124.81791907514452" y="533.0117890698568" width="1" height="2.1882109301431" fill="#3fb950" opacity="0.45"/>
<rect x="126.43641618497111" y="532.9453252919809" width="1" height="2.2546747080190244" fill="#f85149" opacity="0.45"/>
<rect x="128.0549132947977" y="533.375395815384" width="1" height="1.8246041846159642" fill="#3fb950" opacity="0.45"/>
<rect x="129.6734104046243" y="529.9242063098844" width="1" height="5.275793690115506" fill="#3fb950" opacity="0.45"/>
<rect x="131.29190751445088" y="532.7689079109526" width="1" height="2.431092089047297" fill="#f85149" opacity="0.45"/>
<rect x="132.91040462427745" y="530.319919073288" width="1" height="4.880080926711912" fill="#3fb950" opacity="0.45"/>
<rect x="134.52890173410404" y="532.6904334038596" width="1" height="2.509566596140303" fill="#f85149" opacity="0.45"/>
<rect x="136.14739884393063" y="531.4840100783013" width="1" height="3.7159899216986787" fill="#3fb950" opacity="0.45"/>
<rect x="137.76589595375722" y="518.6288157356969" width="1" height="16.571184264303042" fill="#3fb950" opacity="0.45"/>
<rect x="139.38439306358381" y="523.292804189088" width="1" height="11.907195810911958" fill="#f85149" opacity="0.45"/>
<rect x="141.0028901734104" y="529.4713652958934" width="1" height="5.7286347041065255" fill="#f85149" opacity="0.45"/>
<rect x="142.621387283237" y="531.3166025415533" width="1" height="3.883397458446666" fill="#3fb950" opacity="0.45"/>
<rect x="144.23988439306356" y="531.20483359713" width="1" height="3.995166402869927" fill="#3fb950" opacity="0.45"/>
<rect x="145.85838150289015" y="532.3408274329507" width="1" height="2.8591725670491996" fill="#f85149" opacity="0.45"/>
<rect x="147.47687861271675" y="533.2564381195276" width="1" height="1.9435618804723163" fill="#f85149" opacity="0.45"/>
<rect x="149.09537572254334" y="530.9192261347038" width="1" height="4.280773865296169" fill="#3fb950" opacity="0.45"/>
<rect x="150.71387283236993" y="531.7444342638801" width="1" height="3.4555657361198655" fill="#f85149" opacity="0.45"/>
<rect x="152.33236994219652" y="532.3351865744904" width="1" height="2.86481342550951" fill="#3fb950" opacity="0.45"/>
<rect x="153.9508670520231" y="532.861575151523" width="1" height="2.3384248484769614" fill="#3fb950" opacity="0.45"/>
<rect x="155.5693641618497" y="531.4248881875774" width="1" height="3.7751118124225513" fill="#3fb950" opacity="0.45"/>
<rect x="157.1878612716763" y="531.5818070059878" width="1" height="3.6181929940121336" fill="#3fb950" opacity="0.45"/>
<rect x="158.8063583815029" y="529.9070608609219" width="1" height="5.292939139078044" fill="#3fb950" opacity="0.45"/>
<rect x="160.42485549132948" y="525.994492126408" width="1" height="9.205507873591955" fill="#3fb950" opacity="0.45"/>
<rect x="162.04335260115607" y="516.0379218506167" width="1" height="19.162078149383206" fill="#3fb950" opacity="0.45"/>
<rect x="163.66184971098266" y="524.0062699748813" width="1" height="11.193730025118612" fill="#f85149" opacity="0.45"/>
<rect x="165.28034682080926" y="525.6643041960486" width="1" height="9.535695803951285" fill="#3fb950" opacity="0.45"/>
<rect x="166.89884393063585" y="529.0436809577095" width="1" height="6.15631904229042" fill="#3fb950" opacity="0.45"/>
<rect x="168.51734104046244" y="529.4743287955841" width="1" height="5.725671204415789" fill="#f85149" opacity="0.45"/>
<rect x="170.13583815028903" y="531.0650767634639" width="1" height="4.134923236535997" fill="#f85149" opacity="0.45"/>
<rect x="171.75433526011562" y="531.9207294239119" width="1" height="3.279270576088038" fill="#3fb950" opacity="0.45"/>
<rect x="173.37283236994222" y="531.185806663769" width="1" height="4.01419333623096" fill="#3fb950" opacity="0.45"/>
<rect x="174.99132947976878" y="532.4899413623165" width="1" height="2.71005863768346" fill="#f85149" opacity="0.45"/>
<rect x="176.60982658959537" y="531.6898906278942" width="1" height="3.510109372105717" fill="#3fb950" opacity="0.45"/>
<rect x="178.22832369942196" y="530.0085963132061" width="1" height="5.191403686793819" fill="#3fb950" opacity="0.45"/>
<rect x="179.84682080924856" y="531.6007642014861" width="1" height="3.5992357985138597" fill="#f85149" opacity="0.45"/>
<rect x="181.46531791907515" y="530.6913975699343" width="1" height="4.508602430065594" fill="#f85149" opacity="0.45"/>
<rect x="183.08381502890174" y="529.6539893467009" width="1" height="5.546010653299049" fill="#f85149" opacity="0.45"/>
<rect x="184.70231213872833" y="531.3505663185759" width="1" height="3.8494336814239887" fill="#3fb950" opacity="0.45"/>
<rect x="186.3208092485549" y="532.6808067030206" width="1" height="2.5191932969793243" fill="#f85149" opacity="0.45"/>
<rect x="187.93930635838151" y="532.0209844315214" width="1" height="3.179015568478576" fill="#f85149" opacity="0.45"/>
<rect x="189.55780346820808" y="532.4409098932712" width="1" height="2.759090106728763" fill="#f85149" opacity="0.45"/>
<rect x="191.17630057803467" y="531.5708322794526" width="1" height="3.6291677205473434" fill="#f85149" opacity="0.45"/>
<rect x="192.79479768786126" y="533.9603383149803" width="1" height="1.2396616850196551" fill="#3fb950" opacity="0.45"/>
<rect x="194.41329479768785" y="532.6928691964243" width="1" height="2.507130803575592" fill="#3fb950" opacity="0.45"/>
<rect x="196.03179190751445" y="532.1992372843378" width="1" height="3.0007627156621766" fill="#3fb950" opacity="0.45"/>
<rect x="197.65028901734104" y="531.9130136842999" width="1" height="3.2869863157000054" fill="#3fb950" opacity="0.45"/>
<rect x="199.26878612716763" y="532.7658689218229" width="1" height="2.4341310781770744" fill="#f85149" opacity="0.45"/>
<rect x="200.88728323699422" y="529.0349795417084" width="1" height="6.165020458291565" fill="#3fb950" opacity="0.45"/>
<rect x="202.5057803468208" y="530.6131617532579" width="1" height="4.586838246741991" fill="#f85149" opacity="0.45"/>
<rect x="204.1242774566474" y="531.0992324993458" width="1" height="4.100767500654115" fill="#f85149" opacity="0.45"/>
<rect x="205.742774566474" y="533.1076160826593" width="1" height="2.0923839173406122" fill="#f85149" opacity="0.45"/>
<rect x="207.3612716763006" y="533.4268903969815" width="1" height="1.7731096030183835" fill="#3fb950" opacity="0.45"/>
<rect x="208.97976878612715" y="533.6801229553391" width="1" height="1.5198770446608023" fill="#f85149" opacity="0.45"/>
<rect x="210.59826589595377" y="533.7796949632625" width="1" height="1.4203050367374317" fill="#3fb950" opacity="0.45"/>
<rect x="212.21676300578034" y="533.7470159445968" width="1" height="1.4529840554031352" fill="#3fb950" opacity="0.45"/>
<rect x="213.83526011560696" y="531.421248158724" width="1" height="3.778751841275948" fill="#3fb950" opacity="0.45"/>
<rect x="215.45375722543352" y="532.4353186421565" width="1" height="2.764681357843415" fill="#f85149" opacity="0.45"/>
<rect x="217.0722543352601" y="533.4352344963047" width="1" height="1.76476550369523" fill="#3fb950" opacity="0.45"/>
<rect x="218.6907514450867" y="533.2614405530181" width="1" height="1.9385594469817988" fill="#f85149" opacity="0.45"/>
<rect x="220.3092485549133" y="533.44626745755" width="1" height="1.7537325424499386" fill="#3fb950" opacity="0.45"/>
<rect x="221.9277456647399" y="533.9724827683464" width="1" height="1.2275172316535645" fill="#f85149" opacity="0.45"/>
<rect x="223.54624277456648" y="533.3994711948459" width="1" height="1.8005288051540447" fill="#f85149" opacity="0.45"/>
<rect x="225.16473988439307" y="533.4059287771413" width="1" height="1.7940712228586335" fill="#f85149" opacity="0.45"/>
<rect x="226.78323699421964" y="533.6826831257415" width="1" height="1.5173168742584267" fill="#3fb950" opacity="0.45"/>
<rect x="228.40173410404626" y="532.9929080827446" width="1" height="2.2070919172552976" fill="#f85149" opacity="0.45"/>
<rect x="230.02023121387282" y="530.1044456133668" width="1" height="5.095554386633125" fill="#3fb950" opacity="0.45"/>
<rect x="231.63872832369944" y="532.7244050892997" width="1" height="2.475594910700238" fill="#f85149" opacity="0.45"/>
<rect x="233.257225433526" y="532.2212126195016" width="1" height="2.9787873804983747" fill="#3fb950" opacity="0.45"/>
<rect x="234.8757225433526" y="533.4904539425062" width="1" height="1.7095460574937533" fill="#f85149" opacity="0.45"/>
<rect x="236.4942196531792" y="532.5164949522184" width="1" height="2.683505047781523" fill="#f85149" opacity="0.45"/>
<rect x="238.11271676300578" y="531.1191135417879" width="1" height="4.080886458212035" fill="#3fb950" opacity="0.45"/>
<rect x="239.73121387283237" y="525.9247154405807" width="1" height="9.27528455941922" fill="#3fb950" opacity="0.45"/>
<rect x="241.34971098265896" y="523.3848020899659" width="1" height="11.815197910034044" fill="#3fb950" opacity="0.45"/>
<rect x="242.96820809248555" y="516.6603107066878" width="1" height="18.539689293312108" fill="#3fb950" opacity="0.45"/>
<rect x="244.58670520231215" y="506.6338451188082" width="1" height="28.56615488119172" fill="#3fb950" opacity="0.45"/>
<rect x="246.20520231213874" y="498.64474674513247" width="1" height="36.555253254867466" fill="#3fb950" opacity="0.45"/>
<rect x="247.8236994219653" y="506.76902010300097" width="1" height="28.430979896998963" fill="#f85149" opacity="0.45"/>
<rect x="249.44219653179192" y="516.0108362399067" width="1" height="19.189163760093265" fill="#3fb950" opacity="0.45"/>
<rect x="251.06069364161849" y="520.9235070358517" width="1" height="14.276492964148247" fill="#f85149" opacity="0.45"/>
<rect x="252.67919075144508" y="523.5626163850891" width="1" height="11.637383614910846" fill="#3fb950" opacity="0.45"/>
<rect x="254.29768786127167" y="518.9851107898475" width="1" height="16.214889210152478" fill="#f85149" opacity="0.45"/>
<rect x="255.91618497109823" y="518.5900414840429" width="1" height="16.609958515957032" fill="#f85149" opacity="0.45"/>
<rect x="257.5346820809249" y="512.747802363725" width="1" height="22.452197636274946" fill="#3fb950" opacity="0.45"/>
<rect x="259.1531791907514" y="508.61549681335435" width="1" height="26.584503186645577" fill="#3fb950" opacity="0.45"/>
<rect x="260.77167630057806" y="491.2273413960895" width="1" height="43.97265860391042" fill="#3fb950" opacity="0.45"/>
<rect x="262.3901734104046" y="462.801912489171" width="1" height="72.39808751082893" fill="#3fb950" opacity="0.45"/>
<rect x="264.00867052023125" y="467.5048498983463" width="1" height="67.69515010165361" fill="#f85149" opacity="0.45"/>
<rect x="265.6271676300578" y="487.703636735495" width="1" height="47.49636326450491" fill="#f85149" opacity="0.45"/>
<rect x="267.24566473988443" y="473.0068494897665" width="1" height="62.19315051023341" fill="#3fb950" opacity="0.45"/>
<rect x="268.86416184971097" y="480.20801713818685" width="1" height="54.991982861813085" fill="#3fb950" opacity="0.45"/>
<rect x="270.48265895953756" y="481.6733721152731" width="1" height="53.52662788472685" fill="#f85149" opacity="0.45"/>
<rect x="272.10115606936415" y="500.99763105643797" width="1" height="34.202368943561964" fill="#f85149" opacity="0.45"/>
<rect x="273.71965317919074" y="506.75541474925365" width="1" height="28.444585250746286" fill="#3fb950" opacity="0.45"/>
<rect x="275.33815028901734" y="512.3985407684473" width="1" height="22.8014592315526" fill="#f85149" opacity="0.45"/>
<rect x="276.9566473988439" y="518.9784368044936" width="1" height="16.221563195506292" fill="#3fb950" opacity="0.45"/>
<rect x="278.5751445086705" y="506.9467107392336" width="1" height="28.253289260766337" fill="#3fb950" opacity="0.45"/>
<rect x="280.1936416184971" y="500.95144589871614" width="1" height="34.24855410128379" fill="#3fb950" opacity="0.45"/>
<rect x="281.8121387283237" y="495.9476435330739" width="1" height="39.25235646692602" fill="#3fb950" opacity="0.45"/>
<rect x="283.4306358381503" y="505.8138134083056" width="1" height="29.386186591694354" fill="#f85149" opacity="0.45"/>
<rect x="285.0491329479769" y="515.1905126369066" width="1" height="20.009487363093285" fill="#f85149" opacity="0.45"/>
<rect x="286.6676300578035" y="518.7180212462792" width="1" height="16.481978753720682" fill="#f85149" opacity="0.45"/>
<rect x="288.28612716763007" y="517.2854754172727" width="1" height="17.914524582727267" fill="#3fb950" opacity="0.45"/>
<rect x="289.90462427745666" y="522.3204664243708" width="1" height="12.879533575629125" fill="#f85149" opacity="0.45"/>
<rect x="291.52312138728325" y="516.4292871412814" width="1" height="18.770712858718525" fill="#3fb950" opacity="0.45"/>
<rect x="293.1416184971098" y="517.4915853109708" width="1" height="17.708414689029155" fill="#f85149" opacity="0.45"/>
<rect x="294.76011560693644" y="519.3001131208698" width="1" height="15.899886879130122" fill="#3fb950" opacity="0.45"/>
<rect x="296.37861271676303" y="520.3318567603908" width="1" height="14.86814323960914" fill="#3fb950" opacity="0.45"/>
<rect x="297.9971098265896" y="517.9142161704245" width="1" height="17.285783829575394" fill="#3fb950" opacity="0.45"/>
<rect x="299.61560693641616" y="512.7292830069729" width="1" height="22.470716993027054" fill="#f85149" opacity="0.45"/>
<rect x="301.2341040462428" y="511.02941613345183" width="1" height="24.1705838665481" fill="#3fb950" opacity="0.45"/>
<rect x="302.85260115606934" y="502.13463429390004" width="1" height="33.0653657060999" fill="#3fb950" opacity="0.45"/>
<rect x="304.471098265896" y="511.91003494874167" width="1" height="23.289965051258264" fill="#f85149" opacity="0.45"/>
<rect x="306.0895953757225" y="510.05548158736326" width="1" height="25.14451841263667" fill="#f85149" opacity="0.45"/>
<rect x="307.7080924855491" y="513.4438538143637" width="1" height="21.756146185636226" fill="#3fb950" opacity="0.45"/>
<rect x="309.3265895953757" y="511.05700644498256" width="1" height="24.14299355501737" fill="#3fb950" opacity="0.45"/>
<rect x="310.94508670520236" y="514.7271088530332" width="1" height="20.47289114696673" fill="#f85149" opacity="0.45"/>
<rect x="312.5635838150289" y="516.9306693024379" width="1" height="18.269330697562054" fill="#f85149" opacity="0.45"/>
<rect x="314.1820809248555" y="520.2753144516394" width="1" height="14.924685548360571" fill="#3fb950" opacity="0.45"/>
<rect x="315.8005780346821" y="499.4377855890929" width="1" height="35.762214410907006" fill="#3fb950" opacity="0.45"/>
<rect x="317.4190751445087" y="512.9054228744445" width="1" height="22.294577125555406" fill="#f85149" opacity="0.45"/>
<rect x="319.03757225433526" y="513.9071325014526" width="1" height="21.292867498547366" fill="#3fb950" opacity="0.45"/>
<rect x="320.65606936416185" y="520.5480951799605" width="1" height="14.651904820039476" fill="#f85149" opacity="0.45"/>
<rect x="322.27456647398844" y="516.8466718441988" width="1" height="18.353328155801137" fill="#f85149" opacity="0.45"/>
<rect x="323.893063583815" y="515.835604402544" width="1" height="19.364395597455882" fill="#f85149" opacity="0.45"/>
<rect x="325.5115606936416" y="513.2682394971769" width="1" height="21.931760502823067" fill="#3fb950" opacity="0.45"/>
<rect x="327.1300578034682" y="521.3099360361534" width="1" height="13.8900639638465" fill="#f85149" opacity="0.45"/>
<rect x="328.7485549132948" y="520.1020992607183" width="1" height="15.097900739281613" fill="#f85149" opacity="0.45"/>
<rect x="330.36705202312135" y="514.4153331563174" width="1" height="20.784666843682544" fill="#f85149" opacity="0.45"/>
<rect x="331.985549132948" y="520.5178001896727" width="1" height="14.682199810327234" fill="#f85149" opacity="0.45"/>
<rect x="333.60404624277453" y="524.8708246375539" width="1" height="10.329175362445994" fill="#f85149" opacity="0.45"/>
<rect x="335.2225433526012" y="526.9141706153259" width="1" height="8.285829384674003" fill="#f85149" opacity="0.45"/>
<rect x="336.84104046242777" y="523.5763784692907" width="1" height="11.623621530709215" fill="#f85149" opacity="0.45"/>
<rect x="338.4595375722543" y="523.9105263599354" width="1" height="11.289473640064557" fill="#f85149" opacity="0.45"/>
<rect x="340.0780346820809" y="525.3477108352312" width="1" height="9.852289164768763" fill="#3fb950" opacity="0.45"/>
<rect x="341.69653179190755" y="524.6344211914621" width="1" height="10.565578808537794" fill="#f85149" opacity="0.45"/>
<rect x="343.3150289017341" y="523.5234639672931" width="1" height="11.67653603270685" fill="#f85149" opacity="0.45"/>
<rect x="344.9335260115607" y="526.9797608725507" width="1" height="8.22023912744919" fill="#f85149" opacity="0.45"/>
<rect x="346.55202312138726" y="526.5222395133422" width="1" height="8.67776048665769" fill="#3fb950" opacity="0.45"/>
<rect x="348.1705202312139" y="527.6966776041265" width="1" height="7.503322395873397" fill="#3fb950" opacity="0.45"/>
<rect x="349.78901734104045" y="522.6534575292313" width="1" height="12.5465424707686" fill="#3fb950" opacity="0.45"/>
<rect x="351.40751445086704" y="523.2718979281697" width="1" height="11.928102071830267" fill="#f85149" opacity="0.45"/>
<rect x="353.02601156069363" y="522.4326911812162" width="1" height="12.767308818783704" fill="#3fb950" opacity="0.45"/>
<rect x="354.6445086705202" y="524.569562103375" width="1" height="10.630437896624926" fill="#f85149" opacity="0.45"/>
<rect x="356.2630057803468" y="527.8457829061279" width="1" height="7.35421709387208" fill="#f85149" opacity="0.45"/>
<rect x="357.8815028901734" y="515.6112842993201" width="1" height="19.588715700679813" fill="#3fb950" opacity="0.45"/>
<rect x="359.5" y="503.4185874301435" width="1" height="31.781412569856457" fill="#3fb950" opacity="0.45"/>
<rect x="361.1184971098266" y="513.4330279098654" width="1" height="21.766972090134573" fill="#f85149" opacity="0.45"/>
<rect x="362.7369942196532" y="523.5838015974582" width="1" height="11.616198402541727" fill="#f85149" opacity="0.45"/>
<rect x="364.3554913294798" y="523.2252698990724" width="1" height="11.974730100927559" fill="#3fb950" opacity="0.45"/>
<rect x="365.97398843930637" y="526.1106495235513" width="1" height="9.089350476448658" fill="#f85149" opacity="0.45"/>
<rect x="367.59248554913296" y="526.8118773928636" width="1" height="8.388122607136324" fill="#f85149" opacity="0.45"/>
<rect x="369.2109826589595" y="524.6681484349093" width="1" height="10.53185156509062" fill="#3fb950" opacity="0.45"/>
<rect x="370.82947976878614" y="526.9835633834348" width="1" height="8.216436616565147" fill="#3fb950" opacity="0.45"/>
<rect x="372.44797687861274" y="527.0862620920265" width="1" height="8.113737907973473" fill="#f85149" opacity="0.45"/>
<rect x="374.06647398843927" y="527.8692651542833" width="1" height="7.33073484571662" fill="#3fb950" opacity="0.45"/>
<rect x="375.68497109826586" y="517.763555067033" width="1" height="17.43644493296688" fill="#3fb950" opacity="0.45"/>
<rect x="377.3034682080925" y="508.4403397464837" width="1" height="26.759660253516245" fill="#3fb950" opacity="0.45"/>
<rect x="378.9219653179191" y="510.93419159826726" width="1" height="24.26580840173267" fill="#3fb950" opacity="0.45"/>
<rect x="380.54046242774564" y="479.53027223597707" width="1" height="55.669727764022866" fill="#3fb950" opacity="0.45"/>
<rect x="382.1589595375723" y="493.9014864723833" width="1" height="41.29851352761665" fill="#f85149" opacity="0.45"/>
<rect x="383.7774566473989" y="491.8135068245975" width="1" height="43.38649317540245" fill="#3fb950" opacity="0.45"/>
<rect x="385.3959537572254" y="506.7297440263144" width="1" height="28.47025597368554" fill="#f85149" opacity="0.45"/>
<rect x="387.014450867052" y="506.3104030685066" width="1" height="28.889596931493315" fill="#3fb950" opacity="0.45"/>
<rect x="388.63294797687865" y="514.2410589564095" width="1" height="20.95894104359047" fill="#f85149" opacity="0.45"/>
<rect x="390.2514450867052" y="518.2682738613928" width="1" height="16.931726138607132" fill="#3fb950" opacity="0.45"/>
<rect x="391.8699421965318" y="517.9006704892814" width="1" height="17.299329510718508" fill="#f85149" opacity="0.45"/>
<rect x="393.4884393063584" y="512.4932153091478" width="1" height="22.706784690852146" fill="#3fb950" opacity="0.45"/>
<rect x="395.10693641618496" y="515.2126137878022" width="1" height="19.987386212197748" fill="#f85149" opacity="0.45"/>
<rect x="396.72543352601156" y="521.018727257354" width="1" height="14.181272742645888" fill="#f85149" opacity="0.45"/>
<rect x="398.34393063583815" y="523.3199020218976" width="1" height="11.880097978102299" fill="#f85149" opacity="0.45"/>
<rect x="399.96242774566474" y="519.4045754065459" width="1" height="15.795424593454072" fill="#3fb950" opacity="0.45"/>
<rect x="401.58092485549133" y="521.5215401231161" width="1" height="13.678459876883835" fill="#f85149" opacity="0.45"/>
<rect x="403.1994219653179" y="523.6402037115372" width="1" height="11.559796288462735" fill="#3fb950" opacity="0.45"/>
<rect x="404.81791907514446" y="516.1277456556518" width="1" height="19.072254344348153" fill="#3fb950" opacity="0.45"/>
<rect x="406.4364161849711" y="513.9667684393085" width="1" height="21.23323156069148" fill="#3fb950" opacity="0.45"/>
<rect x="408.0549132947977" y="508.8782086884081" width="1" height="26.321791311591824" fill="#3fb950" opacity="0.45"/>
<rect x="409.6734104046243" y="509.39874000392194" width="1" height="25.801259996077988" fill="#3fb950" opacity="0.45"/>
<rect x="411.2919075144509" y="522.2589396558049" width="1" height="12.94106034419508" fill="#f85149" opacity="0.45"/>
<rect x="412.9104046242775" y="512.6862842225235" width="1" height="22.513715777476477" fill="#3fb950" opacity="0.45"/>
<rect x="414.52890173410407" y="501.6793244157805" width="1" height="33.52067558421942" fill="#3fb950" opacity="0.45"/>
<rect x="416.1473988439306" y="508.1690774343069" width="1" height="27.030922565693004" fill="#f85149" opacity="0.45"/>
<rect x="417.76589595375725" y="506.3858062338532" width="1" height="28.81419376614673" fill="#3fb950" opacity="0.45"/>
<rect x="419.38439306358384" y="510.4312852693903" width="1" height="24.768714730609645" fill="#3fb950" opacity="0.45"/>
<rect x="421.0028901734104" y="516.2604215799404" width="1" height="18.939578420059547" fill="#f85149" opacity="0.45"/>
<rect x="422.62138728323697" y="517.2910896746924" width="1" height="17.908910325307488" fill="#f85149" opacity="0.45"/>
<rect x="424.2398843930636" y="519.445603557164" width="1" height="15.754396442835969" fill="#f85149" opacity="0.45"/>
<rect x="425.85838150289015" y="523.2857894228381" width="1" height="11.914210577161839" fill="#f85149" opacity="0.45"/>
<rect x="427.47687861271675" y="523.79482333732" width="1" height="11.405176662679878" fill="#3fb950" opacity="0.45"/>
<rect x="429.09537572254334" y="525.4237473929182" width="1" height="9.776252607081688" fill="#3fb950" opacity="0.45"/>
<rect x="430.71387283236993" y="526.904621560767" width="1" height="8.295378439232877" fill="#f85149" opacity="0.45"/>
<rect x="432.3323699421965" y="528.2422742891736" width="1" height="6.957725710826367" fill="#f85149" opacity="0.45"/>
<rect x="433.9508670520231" y="514.9543356591319" width="1" height="20.245664340868075" fill="#3fb950" opacity="0.45"/>
<rect x="435.5693641618497" y="520.7102824422653" width="1" height="14.489717557734593" fill="#f85149" opacity="0.45"/>
<rect x="437.1878612716763" y="528.598792216906" width="1" height="6.601207783093969" fill="#f85149" opacity="0.45"/>
<rect x="438.8063583815029" y="528.3331793905538" width="1" height="6.866820609446108" fill="#3fb950" opacity="0.45"/>
<rect x="440.4248554913295" y="527.8480281777275" width="1" height="7.3519718222723895" fill="#3fb950" opacity="0.45"/>
<rect x="442.0433526011561" y="520.8869162263521" width="1" height="14.313083773647804" fill="#f85149" opacity="0.45"/>
<rect x="443.66184971098266" y="522.2162255743825" width="1" height="12.983774425617412" fill="#3fb950" opacity="0.45"/>
<rect x="445.28034682080926" y="514.6535016173875" width="1" height="20.546498382612413" fill="#3fb950" opacity="0.45"/>
<rect x="446.89884393063585" y="507.2562900527482" width="1" height="27.943709947251705" fill="#3fb950" opacity="0.45"/>
<rect x="448.51734104046244" y="512.6420905480969" width="1" height="22.557909451903015" fill="#3fb950" opacity="0.45"/>
<rect x="450.13583815028903" y="521.7853757123903" width="1" height="13.414624287609627" fill="#3fb950" opacity="0.45"/>
<rect x="451.75433526011557" y="522.7165257202468" width="1" height="12.483474279753182" fill="#3fb950" opacity="0.45"/>
<rect x="453.3728323699422" y="515.1097037087812" width="1" height="20.090296291218692" fill="#3fb950" opacity="0.45"/>
<rect x="454.9913294797688" y="518.5436356095804" width="1" height="16.656364390419526" fill="#f85149" opacity="0.45"/>
<rect x="456.60982658959534" y="523.79051253088" width="1" height="11.409487469119881" fill="#f85149" opacity="0.45"/>
<rect x="458.22832369942194" y="520.1854180329535" width="1" height="15.01458196704641" fill="#3fb950" opacity="0.45"/>
<rect x="459.8468208092486" y="521.2683880868268" width="1" height="13.931611913173128" fill="#f85149" opacity="0.45"/>
<rect x="461.4653179190751" y="523.5924836018892" width="1" height="11.60751639811076" fill="#f85149" opacity="0.45"/>
<rect x="463.0838150289017" y="522.9648593734873" width="1" height="12.235140626512589" fill="#f85149" opacity="0.45"/>
<rect x="464.70231213872836" y="529.3273817725909" width="1" height="5.872618227409021" fill="#f85149" opacity="0.45"/>
<rect x="466.3208092485549" y="526.968057133719" width="1" height="8.231942866280974" fill="#f85149" opacity="0.45"/>
<rect x="467.9393063583815" y="530.1217305380546" width="1" height="5.078269461945297" fill="#3fb950" opacity="0.45"/>
<rect x="469.5578034682081" y="527.7557772074922" width="1" height="7.4442227925077304" fill="#3fb950" opacity="0.45"/>
<rect x="471.1763005780347" y="527.0158067201954" width="1" height="8.184193279804504" fill="#3fb950" opacity="0.45"/>
<rect x="472.79479768786126" y="524.8617659048749" width="1" height="10.338234095125017" fill="#3fb950" opacity="0.45"/>
<rect x="474.41329479768785" y="527.253339632084" width="1" height="7.946660367915911" fill="#3fb950" opacity="0.45"/>
<rect x="476.03179190751445" y="514.040958741002" width="1" height="21.159041258997945" fill="#3fb950" opacity="0.45"/>
<rect x="477.65028901734104" y="518.9946965107052" width="1" height="16.205303489294693" fill="#3fb950" opacity="0.45"/>
<rect x="479.26878612716763" y="520.1939433069302" width="1" height="15.006056693069695" fill="#f85149" opacity="0.45"/>
<rect x="480.8872832369942" y="525.6721666008564" width="1" height="9.52783339914356" fill="#3fb950" opacity="0.45"/>
<rect x="482.5057803468208" y="514.934762326022" width="1" height="20.265237673977936" fill="#3fb950" opacity="0.45"/>
<rect x="484.1242774566474" y="522.9312543510366" width="1" height="12.268745648963318" fill="#3fb950" opacity="0.45"/>
<rect x="485.742774566474" y="524.9263014667949" width="1" height="10.273698533204993" fill="#3fb950" opacity="0.45"/>
<rect x="487.3612716763006" y="515.760911556871" width="1" height="19.43908844312898" fill="#3fb950" opacity="0.45"/>
<rect x="488.9797687861272" y="520.3482918896797" width="1" height="14.85170811032026" fill="#f85149" opacity="0.45"/>
<rect x="490.5982658959538" y="522.7722311746459" width="1" height="12.427768825354065" fill="#f85149" opacity="0.45"/>
<rect x="492.2167630057803" y="526.2142850201335" width="1" height="8.98571497986643" fill="#f85149" opacity="0.45"/>
<rect x="493.83526011560696" y="527.7294220469728" width="1" height="7.470577953027146" fill="#3fb950" opacity="0.45"/>
<rect x="495.45375722543355" y="527.6239280722972" width="1" height="7.576071927702742" fill="#3fb950" opacity="0.45"/>
<rect x="497.0722543352601" y="529.255205960498" width="1" height="5.944794039501971" fill="#f85149" opacity="0.45"/>
<rect x="498.6907514450867" y="526.4006598176383" width="1" height="8.799340182361675" fill="#3fb950" opacity="0.45"/>
<rect x="500.3092485549133" y="526.8563270124357" width="1" height="8.343672987564219" fill="#f85149" opacity="0.45"/>
<rect x="501.9277456647399" y="529.0572474883168" width="1" height="6.14275251168317" fill="#3fb950" opacity="0.45"/>
<rect x="503.5462427745665" y="528.3453569154836" width="1" height="6.854643084516283" fill="#f85149" opacity="0.45"/>
<rect x="505.16473988439304" y="525.7495986347442" width="1" height="9.450401365255743" fill="#3fb950" opacity="0.45"/>
<rect x="506.78323699421964" y="510.7806633340881" width="1" height="24.41933666591183" fill="#3fb950" opacity="0.45"/>
<rect x="508.4017341040462" y="492.37508785914065" width="1" height="42.82491214085928" fill="#3fb950" opacity="0.45"/>
<rect x="510.0202312138728" y="498.18605422119913" width="1" height="37.0139457788008" fill="#f85149" opacity="0.45"/>
<rect x="511.6387283236994" y="512.012422353266" width="1" height="23.187577646733985" fill="#f85149" opacity="0.45"/>
<rect x="513.2572254335261" y="506.8256458096088" width="1" height="28.37435419039116" fill="#3fb950" opacity="0.45"/>
<rect x="514.8757225433526" y="511.4042240738312" width="1" height="23.795775926168744" fill="#f85149" opacity="0.45"/>
<rect x="516.4942196531792" y="519.0093752523803" width="1" height="16.19062474761961" fill="#3fb950" opacity="0.45"/>
<rect x="518.1127167630058" y="521.631504510474" width="1" height="13.568495489525958" fill="#f85149" opacity="0.45"/>
<rect x="519.7312138728323" y="517.6512713565305" width="1" height="17.548728643469417" fill="#3fb950" opacity="0.45"/>
<rect x="521.349710982659" y="498.4839779653335" width="1" height="36.71602203466642" fill="#3fb950" opacity="0.45"/>
<rect x="522.9682080924856" y="510.3376891492468" width="1" height="24.862310850753147" fill="#f85149" opacity="0.45"/>
<rect x="524.5867052023123" y="516.9443228256367" width="1" height="18.2556771743632" fill="#3fb950" opacity="0.45"/>
<rect x="526.2052023121387" y="504.88276692882255" width="1" height="30.317233071177384" fill="#3fb950" opacity="0.45"/>
<rect x="527.8236994219653" y="496.68893544502646" width="1" height="38.51106455497347" fill="#3fb950" opacity="0.45"/>
<rect x="529.442196531792" y="497.37230610780875" width="1" height="37.82769389219118" fill="#f85149" opacity="0.45"/>
<rect x="531.0606936416185" y="513.3055693842315" width="1" height="21.894430615768442" fill="#f85149" opacity="0.45"/>
<rect x="532.679190751445" y="510.9307902598304" width="1" height="24.269209740169515" fill="#3fb950" opacity="0.45"/>
<rect x="534.2976878612717" y="516.0769139432232" width="1" height="19.123086056776742" fill="#f85149" opacity="0.45"/>
<rect x="535.9161849710982" y="520.5242850919556" width="1" height="14.67571490804437" fill="#f85149" opacity="0.45"/>
<rect x="537.5346820809248" y="526.0465726498414" width="1" height="9.153427350158495" fill="#3fb950" opacity="0.45"/>
<rect x="539.1531791907514" y="521.7131617961043" width="1" height="13.486838203895672" fill="#f85149" opacity="0.45"/>
<rect x="540.7716763005781" y="526.0670727056832" width="1" height="9.132927294316687" fill="#f85149" opacity="0.45"/>
<rect x="542.3901734104047" y="526.893046513455" width="1" height="8.306953486544899" fill="#3fb950" opacity="0.45"/>
<rect x="544.0086705202312" y="515.4983959543587" width="1" height="19.70160404564126" fill="#3fb950" opacity="0.45"/>
<rect x="545.6271676300578" y="520.275402163178" width="1" height="14.924597836821931" fill="#3fb950" opacity="0.45"/>
<rect x="547.2456647398844" y="520.0532820378903" width="1" height="15.14671796210962" fill="#3fb950" opacity="0.45"/>
<rect x="548.864161849711" y="523.0079796599861" width="1" height="12.192020340013869" fill="#f85149" opacity="0.45"/>
<rect x="550.4826589595375" y="525.0582095556471" width="1" height="10.141790444352864" fill="#f85149" opacity="0.45"/>
<rect x="552.1011560693642" y="526.927659499653" width="1" height="8.2723405003469" fill="#3fb950" opacity="0.45"/>
<rect x="553.7196531791908" y="528.242696311085" width="1" height="6.957303688914976" fill="#3fb950" opacity="0.45"/>
<rect x="555.3381502890174" y="528.9155329618662" width="1" height="6.284467038133698" fill="#f85149" opacity="0.45"/>
<rect x="556.9566473988439" y="527.176491383191" width="1" height="8.023508616808954" fill="#3fb950" opacity="0.45"/>
<rect x="558.5751445086705" y="522.8220010022993" width="1" height="12.377998997700615" fill="#3fb950" opacity="0.45"/>
<rect x="560.1936416184972" y="524.623694501655" width="1" height="10.576305498344936" fill="#f85149" opacity="0.45"/>
<rect x="561.8121387283237" y="527.0275960137247" width="1" height="8.172403986275185" fill="#3fb950" opacity="0.45"/>
<rect x="563.4306358381502" y="519.8421675538606" width="1" height="15.357832446139355" fill="#3fb950" opacity="0.45"/>
<rect x="565.0491329479769" y="518.7825546513582" width="1" height="16.417445348641763" fill="#3fb950" opacity="0.45"/>
<rect x="566.6676300578034" y="521.6276581438207" width="1" height="13.572341856179264" fill="#f85149" opacity="0.45"/>
<rect x="568.28612716763" y="515.10311887286" width="1" height="20.09688112713991" fill="#3fb950" opacity="0.45"/>
<rect x="569.9046242774566" y="521.050862033112" width="1" height="14.149137966887906" fill="#f85149" opacity="0.45"/>
<rect x="571.5231213872833" y="526.0904154781134" width="1" height="9.109584521886518" fill="#3fb950" opacity="0.45"/>
<rect x="573.1416184971099" y="528.3455122080438" width="1" height="6.854487791956103" fill="#3fb950" opacity="0.45"/>
<rect x="574.7601156069364" y="525.3547083467521" width="1" height="9.845291653247841" fill="#3fb950" opacity="0.45"/>
<rect x="576.378612716763" y="525.1973861990534" width="1" height="10.002613800946506" fill="#f85149" opacity="0.45"/>
<rect x="577.9971098265896" y="527.5185419396774" width="1" height="7.681458060322484" fill="#f85149" opacity="0.45"/>
<rect x="579.6156069364162" y="526.6540807401198" width="1" height="8.54591925988018" fill="#f85149" opacity="0.45"/>
<rect x="581.2341040462427" y="525.4047024858813" width="1" height="9.795297514118602" fill="#3fb950" opacity="0.45"/>
<rect x="582.8526011560693" y="529.3406118359844" width="1" height="5.859388164015513" fill="#f85149" opacity="0.45"/>
<rect x="584.471098265896" y="527.757609084545" width="1" height="7.442390915454894" fill="#f85149" opacity="0.45"/>
<rect x="586.0895953757226" y="524.6915214031151" width="1" height="10.508478596884856" fill="#f85149" opacity="0.45"/>
<rect x="587.7080924855491" y="529.5745075948076" width="1" height="5.62549240519229" fill="#3fb950" opacity="0.45"/>
<rect x="589.3265895953757" y="498.1599111500559" width="1" height="37.04008884994403" fill="#3fb950" opacity="0.45"/>
<rect x="590.9450867052024" y="493.432600717345" width="1" height="41.767399282654935" fill="#3fb950" opacity="0.45"/>
<rect x="592.5635838150289" y="512.8557400393827" width="1" height="22.34425996061725" fill="#f85149" opacity="0.45"/>
<rect x="594.1820809248555" y="518.6272419606307" width="1" height="16.572758039369205" fill="#f85149" opacity="0.45"/>
<rect x="595.8005780346821" y="522.7734663256572" width="1" height="12.42653367434275" fill="#f85149" opacity="0.45"/>
<rect x="597.4190751445086" y="522.9307956628263" width="1" height="12.269204337173619" fill="#3fb950" opacity="0.45"/>
<rect x="599.0375722543353" y="525.452584358613" width="1" height="9.747415641386965" fill="#f85149" opacity="0.45"/>
<rect x="600.6560693641618" y="518.4473211506862" width="1" height="16.752678849313725" fill="#f85149" opacity="0.45"/>
<rect x="602.2745664739884" y="522.0572721358546" width="1" height="13.142727864145286" fill="#f85149" opacity="0.45"/>
<rect x="603.8930635838151" y="526.6344930280692" width="1" height="8.565506971930745" fill="#f85149" opacity="0.45"/>
<rect x="605.5115606936416" y="528.3179233344072" width="1" height="6.882076665592763" fill="#3fb950" opacity="0.45"/>
<rect x="607.1300578034682" y="524.5035706737029" width="1" height="10.696429326296993" fill="#3fb950" opacity="0.45"/>
<rect x="608.7485549132948" y="523.3206109036771" width="1" height="11.879389096322825" fill="#f85149" opacity="0.45"/>
<rect x="610.3670520231213" y="526.2382539954338" width="1" height="8.96174600456618" fill="#3fb950" opacity="0.45"/>
<rect x="611.985549132948" y="523.2830006272776" width="1" height="11.91699937272233" fill="#3fb950" opacity="0.45"/>
<rect x="613.6040462427745" y="516.4367756936293" width="1" height="18.763224306370603" fill="#3fb950" opacity="0.45"/>
<rect x="615.2225433526012" y="520.1851175130915" width="1" height="15.014882486908391" fill="#f85149" opacity="0.45"/>
<rect x="616.8410404624278" y="525.459470433343" width="1" height="9.74052956665696" fill="#3fb950" opacity="0.45"/>
<rect x="618.4595375722542" y="525.444945546334" width="1" height="9.755054453665934" fill="#f85149" opacity="0.45"/>
<rect x="620.0780346820809" y="528.1492418235079" width="1" height="7.0507581764920815" fill="#f85149" opacity="0.45"/>
<rect x="621.6965317919075" y="531.1761742113538" width="1" height="4.02382578864615" fill="#f85149" opacity="0.45"/>
<rect x="623.3150289017341" y="529.4967987663101" width="1" height="5.703201233689811" fill="#3fb950" opacity="0.45"/>
<rect x="624.9335260115607" y="528.6181728722096" width="1" height="6.581827127790348" fill="#f85149" opacity="0.45"/>
<rect x="626.5520231213873" y="524.4030834462001" width="1" height="10.79691655379986" fill="#f85149" opacity="0.45"/>
<rect x="628.1705202312138" y="528.0250667289966" width="1" height="7.174933271003283" fill="#f85149" opacity="0.45"/>
<rect x="629.7890173410404" y="529.73284345783" width="1" height="5.46715654216996" fill="#f85149" opacity="0.45"/>
<rect x="631.407514450867" y="527.5155388978997" width="1" height="7.684461102100272" fill="#f85149" opacity="0.45"/>
<rect x="633.0260115606936" y="530.7976378116352" width="1" height="4.402362188364691" fill="#3fb950" opacity="0.45"/>
<rect x="634.6445086705203" y="530.968560280452" width="1" height="4.231439719547893" fill="#f85149" opacity="0.45"/>
<rect x="636.2630057803468" y="530.806785693747" width="1" height="4.393214306252958" fill="#f85149" opacity="0.45"/>
<rect x="637.8815028901734" y="532.1627909831928" width="1" height="3.0372090168070827" fill="#3fb950" opacity="0.45"/>
<rect x="639.5" y="532.190579724106" width="1" height="3.0094202758939446" fill="#3fb950" opacity="0.45"/>
<rect x="641.1184971098265" y="531.4823126443445" width="1" height="3.717687355655471" fill="#f85149" opacity="0.45"/>
<rect x="642.7369942196532" y="531.9042288704425" width="1" height="3.2957711295574654" fill="#3fb950" opacity="0.45"/>
<rect x="644.3554913294798" y="531.3304897225395" width="1" height="3.8695102774604493" fill="#f85149" opacity="0.45"/>
<rect x="645.9739884393064" y="530.7978125157655" width="1" height="4.402187484234446" fill="#f85149" opacity="0.45"/>
<rect x="647.592485549133" y="532.0371039430606" width="1" height="3.162896056939303" fill="#3fb950" opacity="0.45"/>
<rect x="649.2109826589596" y="531.7541975646562" width="1" height="3.445802435343694" fill="#f85149" opacity="0.45"/>
<rect x="650.8294797687861" y="530.7029927477633" width="1" height="4.497007252236585" fill="#f85149" opacity="0.45"/>
<rect x="652.4479768786127" y="533.0702013598542" width="1" height="2.1297986401457365" fill="#3fb950" opacity="0.45"/>
<rect x="654.0664739884393" y="530.692204947458" width="1" height="4.507795052541951" fill="#3fb950" opacity="0.45"/>
<rect x="655.6849710982659" y="530.6411877466937" width="1" height="4.5588122533062005" fill="#3fb950" opacity="0.45"/>
<rect x="657.3034682080926" y="517.9142348630476" width="1" height="17.285765136952364" fill="#3fb950" opacity="0.45"/>
<rect x="658.921965317919" y="525.5078936731942" width="1" height="9.692106326805742" fill="#f85149" opacity="0.45"/>
<rect x="660.5404624277456" y="530.816016254768" width="1" height="4.383983745231944" fill="#f85149" opacity="0.45"/>
<rect x="662.1589595375723" y="531.8115148983146" width="1" height="3.388485101685319" fill="#3fb950" opacity="0.45"/>
<rect x="663.7774566473988" y="527.2887010421485" width="1" height="7.911298957851386" fill="#3fb950" opacity="0.45"/>
<rect x="665.3959537572255" y="526.0074238267806" width="1" height="9.192576173219322" fill="#f85149" opacity="0.45"/>
<rect x="667.014450867052" y="518.8925211955572" width="1" height="16.30747880444278" fill="#3fb950" opacity="0.45"/>
<rect x="668.6329479768785" y="518.2675541954078" width="1" height="16.932445804592135" fill="#3fb950" opacity="0.45"/>
<rect x="670.2514450867052" y="523.7438528681132" width="1" height="11.456147131886723" fill="#f85149" opacity="0.45"/>
<rect x="671.8699421965317" y="526.1966923861133" width="1" height="9.00330761388659" fill="#3fb950" opacity="0.45"/>
<rect x="673.4884393063584" y="528.1150019708226" width="1" height="7.084998029177314" fill="#f85149" opacity="0.45"/>
<rect x="675.106936416185" y="530.5234666397427" width="1" height="4.676533360257281" fill="#f85149" opacity="0.45"/>
<rect x="676.7254335260116" y="529.8991812013853" width="1" height="5.300818798614614" fill="#3fb950" opacity="0.45"/>
<rect x="678.3439306358382" y="529.7570834761635" width="1" height="5.442916523836402" fill="#f85149" opacity="0.45"/>
<rect x="679.9624277456647" y="531.3368883511778" width="1" height="3.863111648822155" fill="#3fb950" opacity="0.45"/>
<rect x="681.5809248554913" y="531.0011559012614" width="1" height="4.198844098738505" fill="#3fb950" opacity="0.45"/>
<rect x="683.1994219653179" y="531.3055005613924" width="1" height="3.8944994386075678" fill="#f85149" opacity="0.45"/>
<rect x="684.8179190751446" y="532.1786552685336" width="1" height="3.0213447314663426" fill="#3fb950" opacity="0.45"/>
<rect x="686.4364161849711" y="524.6614500053561" width="1" height="10.538549994643859" fill="#3fb950" opacity="0.45"/>
<rect x="688.0549132947978" y="527.5286985044834" width="1" height="7.671301495516559" fill="#f85149" opacity="0.45"/>
<rect x="689.6734104046243" y="530.9700183050452" width="1" height="4.229981694954745" fill="#f85149" opacity="0.45"/>
<rect x="691.2919075144508" y="529.1008336524961" width="1" height="6.099166347503797" fill="#f85149" opacity="0.45"/>
<rect x="692.9104046242775" y="529.8520901703955" width="1" height="5.3479098296044185" fill="#3fb950" opacity="0.45"/>
<rect x="694.528901734104" y="529.5160435406235" width="1" height="5.683956459376418" fill="#3fb950" opacity="0.45"/>
<rect x="696.1473988439307" y="530.2242552614632" width="1" height="4.975744738536719" fill="#3fb950" opacity="0.45"/>
<rect x="697.7658959537573" y="532.2421950888059" width="1" height="2.957804911193989" fill="#f85149" opacity="0.45"/>
<rect x="699.3843930635837" y="531.9569988640854" width="1" height="3.243001135914483" fill="#f85149" opacity="0.45"/>
<rect x="701.0028901734104" y="531.1555066408521" width="1" height="4.04449335914785" fill="#3fb950" opacity="0.45"/>
<rect x="702.621387283237" y="532.8226520778321" width="1" height="2.3773479221678144" fill="#f85149" opacity="0.45"/>
<rect x="704.2398843930636" y="532.9637087677428" width="1" height="2.2362912322571447" fill="#f85149" opacity="0.45"/>
<rect x="705.8583815028902" y="532.7700424093786" width="1" height="2.4299575906213704" fill="#f85149" opacity="0.45"/>
<rect x="707.4768786127167" y="533.0348514529422" width="1" height="2.165148547057697" fill="#3fb950" opacity="0.45"/>
<rect x="709.0953757225434" y="531.6989802752959" width="1" height="3.501019724704065" fill="#3fb950" opacity="0.45"/>
<rect x="710.7138728323699" y="532.4275985888623" width="1" height="2.7724014111375936" fill="#f85149" opacity="0.45"/>
<rect x="712.3323699421965" y="532.3799971054756" width="1" height="2.8200028945243503" fill="#f85149" opacity="0.45"/>
<rect x="713.9508670520231" y="527.5142915247886" width="1" height="7.6857084752113" fill="#3fb950" opacity="0.45"/>
<rect x="715.5693641618498" y="528.0036270093761" width="1" height="7.196372990623786" fill="#3fb950" opacity="0.45"/>
<rect x="717.1878612716763" y="529.5772741030098" width="1" height="5.622725896990119" fill="#3fb950" opacity="0.45"/>
<rect x="718.806358381503" y="529.9805868555522" width="1" height="5.219413144447685" fill="#f85149" opacity="0.45"/>
<rect x="720.4248554913295" y="531.6474583737108" width="1" height="3.5525416262890985" fill="#f85149" opacity="0.45"/>
<rect x="722.043352601156" y="530.5360791276305" width="1" height="4.663920872369431" fill="#3fb950" opacity="0.45"/>
<rect x="723.6618497109827" y="531.3206955070407" width="1" height="3.8793044929592497" fill="#3fb950" opacity="0.45"/>
<rect x="725.2803468208092" y="529.0732045178254" width="1" height="6.126795482174543" fill="#3fb950" opacity="0.45"/>
<rect x="726.8988439306358" y="530.0264010366025" width="1" height="5.173598963397467" fill="#f85149" opacity="0.45"/>
<rect x="728.5173410404625" y="531.9795277884685" width="1" height="3.220472211531387" fill="#3fb950" opacity="0.45"/>
<rect x="730.1358381502889" y="519.6346981313136" width="1" height="15.565301868686333" fill="#3fb950" opacity="0.45"/>
<rect x="731.7543352601156" y="517.7214362737582" width="1" height="17.47856372624176" fill="#f85149" opacity="0.45"/>
<rect x="733.3728323699422" y="526.3094930195361" width="1" height="8.890506980463783" fill="#f85149" opacity="0.45"/>
<rect x="734.9913294797688" y="526.8429560354227" width="1" height="8.357043964577201" fill="#f85149" opacity="0.45"/>
<rect x="736.6098265895954" y="526.8140881550055" width="1" height="8.385911844994439" fill="#3fb950" opacity="0.45"/>
<rect x="738.228323699422" y="526.1640148053417" width="1" height="9.035985194658224" fill="#3fb950" opacity="0.45"/>
<rect x="739.8468208092486" y="526.9858345371279" width="1" height="8.214165462872074" fill="#3fb950" opacity="0.45"/>
<rect x="741.4653179190751" y="527.6847351748781" width="1" height="7.51526482512179" fill="#f85149" opacity="0.45"/>
<rect x="743.0838150289018" y="520.4808225866667" width="1" height="14.719177413333227" fill="#3fb950" opacity="0.45"/>
<rect x="744.7023121387283" y="510.2404113013216" width="1" height="24.959588698678317" fill="#3fb950" opacity="0.45"/>
<rect x="746.320809248555" y="489.67454592339925" width="1" height="45.52545407660068" fill="#3fb950" opacity="0.45"/>
<rect x="747.9393063583815" y="436.2" width="1" height="98.99999999999994" fill="#3fb950" opacity="0.45"/>
<rect x="749.5578034682081" y="444.18833557086833" width="1" height="91.0116644291316" fill="#3fb950" opacity="0.45"/>
<rect x="751.1763005780347" y="474.43904015893634" width="1" height="60.760959841063595" fill="#f85149" opacity="0.45"/>
<rect x="752.7947976878612" y="482.88393082419407" width="1" height="52.316069175805865" fill="#f85149" opacity="0.45"/>
<rect x="754.4132947976879" y="497.8974854159233" width="1" height="37.30251458407662" fill="#3fb950" opacity="0.45"/>
<rect x="756.0317919075145" y="474.6979538367883" width="1" height="60.50204616321162" fill="#3fb950" opacity="0.45"/>
<rect x="757.650289017341" y="492.15283976128023" width="1" height="43.0471602387197" fill="#f85149" opacity="0.45"/>
<rect x="759.2687861271677" y="485.4579172317814" width="1" height="49.74208276821855" fill="#3fb950" opacity="0.45"/>
<rect x="760.8872832369942" y="478.7914743512993" width="1" height="56.40852564870062" fill="#3fb950" opacity="0.45"/>
<rect x="762.5057803468208" y="492.3555964859931" width="1" height="42.84440351400684" fill="#f85149" opacity="0.45"/>
<rect x="764.1242774566474" y="490.9111297961492" width="1" height="44.288870203850706" fill="#3fb950" opacity="0.45"/>
<rect x="765.7427745664739" y="494.0257183637105" width="1" height="41.174281636289436" fill="#f85149" opacity="0.45"/>
<rect x="767.3612716763006" y="462.8350933328693" width="1" height="72.36490666713064" fill="#3fb950" opacity="0.45"/>
<rect x="768.9797687861272" y="481.1658012580135" width="1" height="54.034198741986415" fill="#3fb950" opacity="0.45"/>
<rect x="770.5982658959538" y="483.8441270113333" width="1" height="51.35587298866665" fill="#3fb950" opacity="0.45"/>
<rect x="772.2167630057803" y="485.94620089685225" width="1" height="49.253799103147685" fill="#3fb950" opacity="0.45"/>
<rect x="773.835260115607" y="491.5324042843114" width="1" height="43.66759571568855" fill="#f85149" opacity="0.45"/>
<rect x="775.4537572254335" y="495.0104270501107" width="1" height="40.189572949889225" fill="#3fb950" opacity="0.45"/>
<rect x="777.0722543352601" y="499.5910377776095" width="1" height="35.60896222239046" fill="#f85149" opacity="0.45"/>
<rect x="778.6907514450867" y="477.25991513621784" width="1" height="57.94008486378209" fill="#3fb950" opacity="0.45"/>
<rect x="780.3092485549133" y="465.41881931598056" width="1" height="69.78118068401938" fill="#3fb950" opacity="0.45"/>
<rect x="781.9277456647399" y="488.2039692339759" width="1" height="46.996030766024035" fill="#f85149" opacity="0.45"/>
<rect x="783.5462427745664" y="495.610066984005" width="1" height="39.589933015994916" fill="#f85149" opacity="0.45"/>
<rect x="785.164739884393" y="500.6165589305164" width="1" height="34.58344106948351" fill="#3fb950" opacity="0.45"/>
<rect x="786.7832369942197" y="505.2823131178328" width="1" height="29.917686882167118" fill="#f85149" opacity="0.45"/>
<rect x="788.4017341040462" y="504.7004592147118" width="1" height="30.499540785288104" fill="#f85149" opacity="0.45"/>
<rect x="790.0202312138729" y="505.4638501207188" width="1" height="29.73614987928113" fill="#f85149" opacity="0.45"/>
<rect x="791.6387283236994" y="508.62685401971385" width="1" height="26.573145980286085" fill="#f85149" opacity="0.45"/>
<rect x="793.257225433526" y="499.91369258090447" width="1" height="35.286307419095465" fill="#f85149" opacity="0.45"/>
<rect x="794.8757225433526" y="507.6166917323799" width="1" height="27.583308267620055" fill="#f85149" opacity="0.45"/>
<rect x="796.4942196531792" y="511.6192302181777" width="1" height="23.580769781822255" fill="#3fb950" opacity="0.45"/>
<rect x="798.1127167630058" y="514.0817402927862" width="1" height="21.118259707213724" fill="#f85149" opacity="0.45"/>
<rect x="799.7312138728324" y="521.7870321663659" width="1" height="13.41296783363407" fill="#3fb950" opacity="0.45"/>
<rect x="801.349710982659" y="518.3081164683454" width="1" height="16.89188353165457" fill="#f85149" opacity="0.45"/>
<rect x="802.9682080924855" y="514.6500168810943" width="1" height="20.54998311890563" fill="#3fb950" opacity="0.45"/>
<rect x="804.5867052023121" y="517.1157118910811" width="1" height="18.084288108918827" fill="#f85149" opacity="0.45"/>
<rect x="806.2052023121387" y="521.9869059134563" width="1" height="13.213094086543606" fill="#f85149" opacity="0.45"/>
<rect x="807.8236994219653" y="523.6947983927627" width="1" height="11.505201607237268" fill="#f85149" opacity="0.45"/>
<rect x="809.442196531792" y="524.9232409092542" width="1" height="10.276759090745713" fill="#3fb950" opacity="0.45"/>
<rect x="811.0606936416185" y="523.7515261898499" width="1" height="11.448473810150062" fill="#f85149" opacity="0.45"/>
<rect x="812.679190751445" y="526.3211931636328" width="1" height="8.878806836367175" fill="#3fb950" opacity="0.45"/>
<rect x="814.2976878612717" y="523.9369153109656" width="1" height="11.263084689034372" fill="#f85149" opacity="0.45"/>
<rect x="815.9161849710982" y="523.3711751678075" width="1" height="11.828824832192481" fill="#f85149" opacity="0.45"/>
<rect x="817.5346820809249" y="523.9663504405958" width="1" height="11.23364955940417" fill="#f85149" opacity="0.45"/>
<rect x="819.1531791907514" y="524.9912705537789" width="1" height="10.208729446221014" fill="#3fb950" opacity="0.45"/>
<rect x="820.7716763005781" y="517.2603741003875" width="1" height="17.93962589961245" fill="#3fb950" opacity="0.45"/>
<rect x="822.3901734104046" y="513.7044462335493" width="1" height="21.4955537664506" fill="#3fb950" opacity="0.45"/>
<rect x="824.0086705202311" y="523.3127089567823" width="1" height="11.887291043217601" fill="#f85149" opacity="0.45"/>
<rect x="825.6271676300578" y="523.1630004582162" width="1" height="12.036999541783757" fill="#f85149" opacity="0.45"/>
<rect x="827.2456647398844" y="511.4592688159024" width="1" height="23.740731184097513" fill="#3fb950" opacity="0.45"/>
<rect x="828.864161849711" y="518.3611503155513" width="1" height="16.838849684448633" fill="#f85149" opacity="0.45"/>
<rect x="830.4826589595376" y="519.6819998137854" width="1" height="15.518000186214522" fill="#f85149" opacity="0.45"/>
<rect x="832.1011560693642" y="523.8558389345419" width="1" height="11.344161065458024" fill="#f85149" opacity="0.45"/>
<rect x="833.7196531791907" y="525.3518649112168" width="1" height="9.848135088783124" fill="#3fb950" opacity="0.45"/>
<rect x="835.3381502890173" y="499.39575235051564" width="1" height="35.804247649484296" fill="#3fb950" opacity="0.45"/>
<rect x="836.9566473988439" y="509.81039973157567" width="1" height="25.38960026842426" fill="#f85149" opacity="0.45"/>
<rect x="838.5751445086705" y="516.8408936668543" width="1" height="18.359106333145633" fill="#f85149" opacity="0.45"/>
<rect x="840.1936416184972" y="523.4903276983111" width="1" height="11.709672301688784" fill="#f85149" opacity="0.45"/>
<rect x="841.8121387283237" y="517.2281746193961" width="1" height="17.971825380603832" fill="#3fb950" opacity="0.45"/>
<rect x="843.4306358381502" y="520.3630223955415" width="1" height="14.836977604458411" fill="#f85149" opacity="0.45"/>
<rect x="845.0491329479769" y="519.73430824343" width="1" height="15.465691756569981" fill="#3fb950" opacity="0.45"/>
<rect x="846.6676300578034" y="512.0087657886306" width="1" height="23.191234211369306" fill="#3fb950" opacity="0.45"/>
<rect x="848.2861271676301" y="507.77371407916377" width="1" height="27.426285920836165" fill="#3fb950" opacity="0.45"/>
<rect x="849.9046242774567" y="517.1518670186757" width="1" height="18.048132981324216" fill="#f85149" opacity="0.45"/>
<rect x="851.5231213872833" y="522.9293333245511" width="1" height="12.270666675448865" fill="#f85149" opacity="0.45"/>
<rect x="853.1416184971098" y="520.4965495531231" width="1" height="14.703450446876786" fill="#f85149" opacity="0.45"/>
<rect x="854.7601156069364" y="522.7472456082339" width="1" height="12.452754391766007" fill="#f85149" opacity="0.45"/>
<rect x="856.378612716763" y="526.5825260982676" width="1" height="8.617473901732296" fill="#3fb950" opacity="0.45"/>
<rect x="857.9971098265896" y="524.6147040689447" width="1" height="10.58529593105527" fill="#f85149" opacity="0.45"/>
<rect x="859.6156069364162" y="527.131080531429" width="1" height="8.068919468570925" fill="#3fb950" opacity="0.45"/>
<rect x="861.2341040462428" y="520.3139096854809" width="1" height="14.886090314519038" fill="#3fb950" opacity="0.45"/>
<rect x="862.8526011560695" y="520.5636862654268" width="1" height="14.63631373457315" fill="#3fb950" opacity="0.45"/>
<rect x="864.4710982658959" y="514.120567027574" width="1" height="21.079432972425934" fill="#3fb950" opacity="0.45"/>
<rect x="866.0895953757225" y="514.1257765178113" width="1" height="21.074223482188586" fill="#f85149" opacity="0.45"/>
<rect x="867.7080924855492" y="519.5757020563215" width="1" height="15.62429794367847" fill="#3fb950" opacity="0.45"/>
<rect x="869.3265895953757" y="520.5243785550705" width="1" height="14.675621444929448" fill="#3fb950" opacity="0.45"/>
<rect x="870.9450867052024" y="520.0553993369173" width="1" height="15.144600663082656" fill="#3fb950" opacity="0.45"/>
<rect x="872.5635838150289" y="520.6062191721956" width="1" height="14.59378082780438" fill="#f85149" opacity="0.45"/>
<rect x="874.1820809248554" y="520.0476871920406" width="1" height="15.152312807959333" fill="#3fb950" opacity="0.45"/>
<rect x="875.8005780346821" y="522.5182027419173" width="1" height="12.68179725808261" fill="#3fb950" opacity="0.45"/>
<rect x="877.4190751445086" y="507.85717376501833" width="1" height="27.3428262349816" fill="#3fb950" opacity="0.45"/>
<rect x="879.0375722543353" y="515.70935227004" width="1" height="19.49064772995996" fill="#f85149" opacity="0.45"/>
<rect x="880.6560693641619" y="521.5555973632537" width="1" height="13.644402636746236" fill="#f85149" opacity="0.45"/>
<rect x="882.2745664739884" y="523.2080539933002" width="1" height="11.991946006699777" fill="#3fb950" opacity="0.45"/>
<rect x="883.893063583815" y="522.4047277361728" width="1" height="12.795272263827087" fill="#f85149" opacity="0.45"/>
<rect x="885.5115606936416" y="525.1636553608711" width="1" height="10.036344639128856" fill="#f85149" opacity="0.45"/>
<rect x="887.1300578034682" y="523.1177384284911" width="1" height="12.082261571508866" fill="#3fb950" opacity="0.45"/>
<rect x="888.7485549132948" y="514.0214946878419" width="1" height="21.178505312157995" fill="#f85149" opacity="0.45"/>
<rect x="890.3670520231213" y="521.7911502949995" width="1" height="13.40884970500042" fill="#f85149" opacity="0.45"/>
<rect x="891.985549132948" y="516.6423161812734" width="1" height="18.55768381872656" fill="#3fb950" opacity="0.45"/>
<rect x="893.6040462427746" y="521.4922315281646" width="1" height="13.70776847183538" fill="#f85149" opacity="0.45"/>
<rect x="895.2225433526012" y="524.5814254484492" width="1" height="10.61857455155075" fill="#f85149" opacity="0.45"/>
<rect x="896.8410404624277" y="524.5864142219459" width="1" height="10.613585778054016" fill="#f85149" opacity="0.45"/>
<rect x="898.4595375722544" y="520.8751470633399" width="1" height="14.324852936660022" fill="#3fb950" opacity="0.45"/>
<rect x="900.0780346820809" y="515.5605237626484" width="1" height="19.639476237351573" fill="#3fb950" opacity="0.45"/>
<rect x="901.6965317919075" y="521.8164924591424" width="1" height="13.383507540857522" fill="#f85149" opacity="0.45"/>
<rect x="903.3150289017342" y="518.1251329440189" width="1" height="17.07486705598103" fill="#f85149" opacity="0.45"/>
<rect x="904.9335260115606" y="520.0096117569075" width="1" height="15.190388243092457" fill="#f85149" opacity="0.45"/>
<rect x="906.5520231213873" y="524.3849782029419" width="1" height="10.81502179705808" fill="#f85149" opacity="0.45"/>
<rect x="908.1705202312139" y="525.9770051776023" width="1" height="9.222994822397595" fill="#3fb950" opacity="0.45"/>
<rect x="909.7890173410404" y="526.7350046997713" width="1" height="8.46499530022868" fill="#f85149" opacity="0.45"/>
<rect x="911.4075144508671" y="522.4933559322836" width="1" height="12.706644067716297" fill="#f85149" opacity="0.45"/>
<rect x="913.0260115606936" y="524.3088733452862" width="1" height="10.89112665471373" fill="#f85149" opacity="0.45"/>
<rect x="914.6445086705202" y="522.3700277573831" width="1" height="12.829972242616805" fill="#3fb950" opacity="0.45"/>
<rect x="916.2630057803468" y="524.8475408187809" width="1" height="10.352459181219047" fill="#f85149" opacity="0.45"/>
<rect x="917.8815028901734" y="527.5774352052431" width="1" height="7.6225647947568405" fill="#f85149" opacity="0.45"/>
<rect x="919.5" y="527.6402445753249" width="1" height="7.559755424675018" fill="#f85149" opacity="0.45"/>
<polyline points="80.0,355.87921001968465 81.61849710982659,354.94473166194376 83.23699421965318,355.4119708408142 84.85549132947978,355.4119708408142 86.47398843930635,358.682645092907 88.09248554913295,361.25246057669426 89.71098265895954,360.0843626295183 91.32947976878613,360.5516018083887 92.94797687861272,361.4860801661295 94.5664739884393,360.31798221895343 96.18497109826589,361.4860801661295 97.80346820809248,363.1214172921759 99.42196531791907,366.8593307231392 101.04046242774567,363.1214172921759 102.65895953757226,367.0929503125744 104.27745664739885,368.4946678491856 105.89595375722544,369.19552661749117 107.51445086705202,371.9989616907136 109.13294797687861,375.2696359428065 110.7514450867052,375.73687512167686 112.36994219653178,372.93344004845443 113.98843930635837,372.466200869584 115.60693641618496,375.50325553224167 117.22543352601156,380.64288649981614 118.84393063583815,379.2411689632049 120.46242774566474,378.54031019489935 122.08092485549133,375.2696359428065 123.69942196531792,376.6713534794177 125.31791907514452,376.20411430054725 126.93641618497111,377.83945142659366 128.5549132947977,377.1385926582881 130.1734104046243,375.2696359428065 131.79190751445088,376.6713534794177 133.41040462427745,374.56877717450084 135.02890173410404,376.9049730688529 136.64739884393063,375.73687512167686 138.26589595375722,366.8593307231392 139.88439306358381,371.5317225118432 141.5028901734104,372.466200869584 143.121387283237,371.298102922408 144.73988439306356,371.0644833329728 146.35838150289015,373.1670596378896 147.97687861271675,374.33515758506564 149.59537572254334,372.466200869584 151.21387283236993,376.20411430054725 152.83236994219652,375.50325553224167 154.4508670520231,375.50325553224167 156.0693641618497,373.63429881676007 157.6878612716763,373.1670596378896 159.3063583815029,371.76534210127846 160.92485549132948,369.19552661749117 162.54335260115607,360.7852213978239 164.16184971098266,366.15847195483354 165.78034682080926,365.92485236539835 167.39884393063585,365.92485236539835 169.01734104046244,368.0274286703152 170.63583815028903,371.0644833329728 172.25433526011562,370.3636245646672 173.87283236994222,368.4946678491856 175.49132947976878,369.8963853857968 177.10982658959537,368.961907028056 178.72832369942196,366.8593307231392 180.34682080924856,367.0929503125744 181.96531791907515,369.42914620692636 183.58381502890174,371.298102922408 185.20231213872833,370.5972441541024 186.8208092485549,371.0644833329728 188.43930635838151,371.9989616907136 190.05780346820808,373.63429881676007 191.67630057803467,375.97049471111205 193.29479768786126,375.73687512167686 194.91329479768785,375.2696359428065 196.53179190751445,373.86791840619526 198.15028901734104,373.86791840619526 199.76878612716763,374.33515758506564 201.38728323699422,372.466200869584 203.0057803468208,372.93344004845443 204.6242774566474,375.50325553224167 206.242774566474,376.6713534794177 207.8612716763006,375.73687512167686 209.47976878612715,377.6058318371585 211.09826589595377,377.1385926582881 212.71676300578034,377.1385926582881 214.33526011560696,375.50325553224167 215.95375722543352,376.4377338899825 217.5722543352601,376.4377338899825 219.1907514450867,377.6058318371585 220.8092485549133,377.6058318371585 222.4277456647399,379.00754937376973 224.04624277456648,380.40926691038095 225.66473988439307,380.64288649981614 227.28323699421964,380.64288649981614 228.90173410404626,382.04460403642736 230.52023121387282,380.64288649981614 232.13872832369944,381.3437452681217 233.757225433526,379.4747885526401 235.3757225433526,380.64288649981614 236.9942196531792,381.5773648575569 238.61271676300578,379.2411689632049 240.23121387283237,375.73687512167686 241.84971098265896,371.298102922408 243.46820809248555,364.75675441822233 245.08670520231215,341.394795474702 246.70520231213874,309.8561509009496 248.3236994219653,336.0215449176923 249.94219653179192,335.32068614938675 251.56069364161849,346.7680460317117 253.17919075144508,340.6939367063964 254.79768786127167,342.09565424300763 256.41618497109823,343.26375219018365 258.0346820809249,339.2922191697852 259.6531791907514,330.41467477124746 261.27167630057806,298.8760301974951 262.8901734104046,254.48830820480651 264.50867052023125,264.300330961085 266.1271676300578,265.0011897293906 267.74566473988443,253.7874494365009 269.36416184971097,221.54794609444286 270.98265895953756,236.26598022886068 272.60115606936415,255.65640615198254 274.21965317919074,250.98401436327848 275.83815028901734,279.25198468493795 277.4566473988439,269.2063423392243 279.0751445086705,245.1435246273984 280.6936416184971,236.26598022886068 282.3121387283237,217.81003266347963 283.9306358381503,232.99530597676784 285.5491329479769,236.26598022886068 287.1676300578035,245.37714421683356 288.78612716763007,236.96683899716626 290.40462427745666,245.844383395704 292.02312138728325,243.27456791191676 293.6416184971098,261.4968958878626 295.26011560693644,260.0951783512514 296.87861271676303,252.3857318998897 298.4971098265896,248.88143805836162 300.11560693641616,253.55382984706574 301.7341040462428,238.36855653377754 303.35260115606934,233.9297843345086 304.971098265896,236.4995998182959 306.5895953757225,244.676285448528 308.2080924855491,243.74180709078712 309.8265895953757,232.76168638733262 311.44508670520236,236.26598022886068 313.0635838150289,251.21763395271364 314.6820809248555,248.64781846892643 316.3005780346821,232.2944472084622 317.9190751445087,250.98401436327848 319.53757225433526,247.71334011118566 321.15606936416185,248.88143805836162 322.77456647398844,259.16069999351055 324.393063583815,264.300330961085 326.0115606936416,257.0581236885937 327.6300578034682,278.78474550606757 329.2485549132948,289.76486620952215 330.86705202312135,291.40020333556856 332.485549132948,293.035540461615 334.10404624277453,301.9130848601527 335.7225433526012,303.5484219861991 337.34104046242777,313.82768392134807 338.9595375722543,314.7621622790889 340.5780346820809,313.12682515304243 342.19653179190755,321.06989119383934 343.8150289017341,322.00436955158017 345.4335260115607,323.4060870881914 347.05202312138726,321.770749962145 348.6705202312139,319.9017932466633 350.28901734104045,311.95872720586647 351.90751445086704,312.42596638473685 353.52601156069363,312.19234679530166 355.1445086705202,322.7052283198858 356.7630057803468,328.0784788768955 358.3815028901734,310.5570096692552 360.0,302.8475632178935 361.6184971098266,305.1837591122455 363.2369942196532,308.92167254320884 364.8554913294798,307.51995500659757 366.47398843930637,309.155292132644 368.09248554913296,315.69664063682967 369.7109826589595,314.52854268965365 371.32947976878614,312.19234679530166 372.94797687861274,318.5000757100521 374.56647398843927,316.6311189945705 376.18497109826586,304.71651993337514 377.8034682080925,298.8760301974951 379.4219653179191,291.40020333556856 381.04046242774564,255.65640615198254 382.6589595375723,269.4399619286595 384.2774566473989,264.06671137164983 385.8959537572254,272.4770165913171 387.514450867052,269.4399619286595 389.13294797687865,279.95284345324364 390.7514450867052,274.3459733067988 392.3699421965318,274.81321248566917 393.9884393063584,267.57100521317784 395.60693641618496,270.8416794652707 397.22543352601156,277.85026714832685 398.84393063583815,279.0183650955028 400.46242774566474,275.51407125397475 402.08092485549133,286.2605723679941 403.6994219653179,282.0554197581605 405.31791907514446,271.77615782301154 406.9364161849711,269.4399619286595 408.5549132947977,268.03824439204834 410.1734104046243,266.87014644487226 411.7919075144509,268.03824439204834 413.4104046242775,263.3658526033442 415.02890173410407,255.1891669731121 416.6473988439306,266.63652685543707 418.26589595375725,256.82450409915856 419.88439306358384,253.7874494365009 421.5028901734104,258.69346081464016 423.12138728323697,270.60805987583547 424.7398843930636,280.6537022215492 426.35838150289015,286.49419195742934 427.97687861271675,283.6907568842069 429.59537572254334,282.98989811590127 431.21387283236993,285.5597135996885 432.8323699421965,287.89590949404055 434.4508670520231,281.58818057929005 436.0693641618497,295.371736355967 437.6878612716763,296.30621471370785 439.3063583815029,295.371736355967 440.9248554913295,294.203638408791 442.5433526011561,324.8078046248026 444.16184971098266,313.3604447424776 445.78034682080926,298.6424106080599 447.39884393063585,290.4657249778278 449.01734104046244,290.4657249778278 450.63583815028903,289.76486620952215 452.25433526011557,289.76486620952215 453.8728323699422,287.195050725735 455.4913294797688,287.42867031517017 457.10982658959534,288.59676826234613 458.72832369942194,283.2235177053365 460.3468208092486,286.96143113629967 461.9653179190751,290.2321053883926 463.5838150289017,300.5113673235415 465.20231213872836,301.9130848601527 466.8208092485549,302.8475632178935 468.4393063583815,301.9130848601527 470.0578034682081,296.53983430314304 471.6763005780347,290.9329641566982 473.29479768786126,290.2321053883926 474.91329479768785,288.8303878517813 476.53179190751445,284.85885483138287 478.15028901734104,281.35456098985486 479.76878612716763,286.96143113629967 481.3872832369942,284.1579960630773 483.0057803468208,282.5226589370309 484.6242774566474,281.8218001687253 486.242774566474,280.18646304267884 487.8612716763006,275.04683207510436 489.4797687861272,281.35456098985486 491.0982658959538,286.96143113629967 492.7167630057803,290.699344567263 494.33526011560696,285.3260940102533 495.95375722543355,285.09247442081806 497.5722543352601,287.89590949404055 499.1907514450867,282.0554197581605 500.8092485549133,285.5597135996885 502.4277456647399,284.3916156525125 504.0462427745665,285.7933331891237 505.66473988439304,282.98989811590127 507.28323699421964,276.6821692011508 508.9017341040462,256.5908845097233 510.5202312138728,265.0011897293906 512.1387283236994,267.33738562374265 513.7572254335261,260.796037119557 515.3757225433526,275.51407125397475 516.9942196531792,272.24339700188193 518.6127167630058,276.4485496117155 520.2312138728323,272.9442557701875 521.849710982659,265.2348093188258 523.4682080924856,274.81321248566917 525.0867052023123,271.77615782301154 526.7052023121387,263.132233013909 528.3236994219653,253.7874494365009 529.942196531792,257.7589824568994 531.5606936416185,260.32879794068657 533.179190751445,251.91849272101928 534.7976878612717,258.2262216357698 536.4161849710982,263.83309178221464 538.0346820809248,263.5994721927794 539.6531791907514,267.57100521317784 541.2716763005781,270.60805987583547 542.8901734104047,268.2718639814835 544.5086705202312,264.06671137164983 546.1271676300578,263.5994721927794 547.7456647398844,261.2632762984274 549.364161849711,265.9356680871315 550.9826589595375,270.60805987583547 552.6011560693642,269.6735815180947 554.2196531791908,269.6735815180947 555.8381502890174,270.60805987583547 557.4566473988439,268.03824439204834 559.0751445086705,265.7020484976963 560.6936416184972,271.54253823357635 562.3121387283237,267.80462480261303 563.9306358381502,266.1692876765667 565.5491329479769,261.964135066733 567.1676300578034,264.5339505505202 568.78612716763,262.19775465616823 570.4046242774566,268.73910316035386 572.0231213872833,268.73910316035386 573.6416184971099,268.2718639814835 575.2601156069364,268.2718639814835 576.878612716763,269.2063423392243 578.4971098265896,270.1408206969651 580.1156069364162,274.3459733067988 581.7341040462427,269.6735815180947 583.3526011560693,272.24339700188193 584.971098265896,273.8787341279284 586.5895953757226,281.35456098985486 588.2080924855491,277.3830279694564 589.8265895953757,259.62793917238093 591.4450867052024,258.92708040407535 593.0635838150289,261.964135066733 594.6820809248555,263.132233013909 596.3005780346821,265.7020484976963 597.9190751445086,265.0011897293906 599.5375722543353,265.46842890826105 601.1560693641618,269.6735815180947 602.7745664739884,271.30891864414116 604.3930635838151,273.1778753596227 606.0115606936416,272.4770165913171 607.6300578034682,271.07529905470585 609.2485549132948,275.28045166453956 610.8670520231213,273.64511453849315 612.485549132948,268.97272274978906 614.1040462427745,264.5339505505202 615.7225433526012,272.4770165913171 617.3410404624278,270.1408206969651 618.9595375722542,272.24339700188193 620.5780346820809,274.579592896234 622.1965317919075,274.81321248566917 623.8150289017341,273.4114949490579 625.4335260115607,275.28045166453956 627.0520231213873,275.51407125397475 628.6705202312138,279.25198468493795 630.2890173410404,282.0554197581605 631.907514450867,289.0640074412166 633.5260115606936,285.5597135996885 635.1445086705203,286.96143113629967 636.7630057803468,289.76486620952215 638.3815028901734,289.531246620087 640.0,287.42867031517017 641.6184971098265,288.36314867291094 643.2369942196532,288.12952908347575 644.8554913294798,290.9329641566982 646.4739884393064,291.40020333556856 648.092485549133,291.16658374613337 649.7109826589596,294.203638408791 651.3294797687861,299.1096497869303 652.9479768786127,297.94155183975425 654.5664739884393,293.2691600510502 656.1849710982659,293.035540461615 657.8034682080926,285.5597135996885 659.421965317919,289.0640074412166 661.0404624277456,289.531246620087 662.6589595375723,289.2976270306517 664.2774566473988,284.3916156525125 665.8959537572255,287.195050725735 667.514450867052,282.28903934759563 669.1329479768785,277.3830279694564 670.7514450867052,282.0554197581605 672.3699421965317,281.35456098985486 673.9884393063584,285.7933331891237 675.606936416185,286.7278115468645 677.2254335260116,284.3916156525125 678.8439306358382,286.2605723679941 680.4624277456647,286.0269527785589 682.0809248554913,284.85885483138287 683.6994219653179,286.96143113629967 685.3179190751446,286.7278115468645 686.9364161849711,283.45713729477166 688.5549132947978,290.699344567263 690.1734104046243,295.371736355967 691.7919075144508,296.07259512427265 693.4104046242775,292.80192087217983 695.028901734104,291.40020333556856 696.6473988439307,290.699344567263 698.2658959537573,294.4372579982262 699.8843930635837,294.6708775876614 701.5028901734104,290.4657249778278 703.121387283237,292.3346816933094 704.7398843930636,296.07259512427265 706.3583815028902,298.8760301974951 707.9768786127167,296.30621471370785 709.5953757225434,294.4372579982262 711.2138728323699,297.707932250319 712.8323699421965,299.34326937636547 714.4508670520231,294.203638408791 716.0693641618498,293.035540461615 717.6878612716763,292.5683012827446 719.306358381503,292.80192087217983 720.9248554913295,295.1381167665318 722.543352601156,293.9700188193558 724.1618497109827,291.63382292500376 725.7803468208092,290.4657249778278 727.3988439306358,295.60535594540227 729.0173410404625,293.5027796404854 730.6358381502889,285.7933331891237 732.2543352601156,288.12952908347575 733.8728323699422,292.10106210387414 735.4913294797688,293.5027796404854 737.1098265895954,290.2321053883926 738.728323699422,289.99848579895735 740.3468208092486,288.59676826234613 741.9653179190751,290.699344567263 743.5838150289018,284.6252352419477 745.2023121387283,276.2149300222804 746.820809248555,225.05223993597093 748.4393063583815,203.32561811849706 750.0578034682081,130.2026866252785 751.6763005780347,182.533474658764 753.2947976878612,219.44536978952604 754.9132947976879,218.27727184235002 756.5317919075145,181.13175712215275 758.150289017341,193.74721495165375 759.7687861271677,178.5619416383655 761.3872832369942,155.66722187371562 763.0057803468208,170.38525600813344 764.6242774566474,161.74133119903087 766.2427745664739,193.74721495165375 767.8612716763006,143.51900322308506 769.4797687861272,141.18280732873308 771.0982658959538,133.70698046680656 772.7167630057803,123.42771853165763 774.335260115607,142.11728568647385 775.9537572254335,135.80955677172335 777.5722543352601,154.96636310541004 779.1907514450867,122.2596205844816 780.8092485549133,67.59263665664407 782.4277456647399,89.08563888468275 784.0462427745664,91.18821518959957 785.664739884393,88.85201929524756 787.2832369942197,114.08293495424951 788.9017341040462,122.4932401739168 790.5202312138729,141.18280732873308 792.1387283236994,144.6871011702611 793.757225433526,178.09470245949512 795.3757225433526,202.15752017132104 796.9942196531792,188.14034480520885 798.6127167630058,197.01788920374656 800.2312138728324,194.68169330939452 801.849710982659,197.48512838261695 803.4682080924855,189.77568193125526 805.0867052023121,200.7558026347098 806.7052023121387,210.3342058015531 808.3236994219653,212.90402128534038 809.942196531792,208.23162949663632 811.5606936416185,220.37984814726687 813.179190751445,215.70745635856278 814.7976878612717,227.62205541975814 816.4161849710982,239.5366544809535 818.0346820809249,245.844383395704 819.6531791907514,238.36855653377754 821.2716763005781,226.45395747258215 822.8901734104046,217.34279348460925 824.5086705202311,221.0807069155725 826.1271676300578,222.01518527331328 827.7456647398844,209.6333470332475 829.364161849711,210.10058621211792 830.9826589595376,221.78156568387806 832.6011560693642,235.79874104999027 834.2196531791907,230.19187090354544 835.8381502890173,190.9437798784313 837.4566473988439,201.92390058188582 839.0751445086705,207.2971511388955 840.6936416184972,208.4652490860715 842.3121387283237,201.69028099245062 843.9306358381502,207.2971511388955 845.5491329479769,201.92390058188582 847.1676300578034,194.4480737199593 848.7861271676301,185.57052932142165 850.4046242774567,199.3540850980986 852.0231213872833,199.82132427696902 853.6416184971098,212.43678210646993 855.2601156069364,220.14622855783165 856.878612716763,215.941075947998 858.4971098265896,229.25739254580455 860.1156069364162,225.75309870427654 861.7341040462428,212.90402128534038 863.3526011560695,208.4652490860715 864.9710982658959,199.12046550866341 866.5895953757225,200.98942222414502 868.2080924855492,200.52218304527457 869.8265895953757,198.88684591922816 871.4450867052024,197.25150879318178 873.0635838150289,212.43678210646993 874.6820809248554,203.79285729736745 876.3005780346821,202.15752017132104 877.9190751445086,192.5791170044777 879.5375722543353,209.3997274438123 881.1560693641619,218.27727184235002 882.7745664739884,214.772978000822 884.393063583815,223.1832832204893 886.0115606936416,231.5935884401566 887.6300578034682,227.15481624088778 889.2485549132948,240.00389365982394 890.8670520231213,243.9754266802224 892.485549132948,228.32291418806378 894.1040462427746,235.56512146055502 895.7225433526012,242.10646996474074 897.3410404624277,252.3857318998897 898.9595375722544,242.57370914361115 900.5780346820809,231.5935884401566 902.1965317919075,232.06082761902698 903.8150289017342,232.2944472084622 905.4335260115606,249.11505764779682 907.0520231213873,253.08659066819524 908.6705202312139,250.98401436327848 910.2890173410404,253.3202102576305 911.9075144508671,262.8986134244738 913.5260115606936,269.4399619286595 915.1445086705202,259.16069999351055 916.7630057803468,264.06671137164983 918.3815028901734,268.5054835709187 920.0,272.9442557701875" stroke="#58a6ff" stroke-width="1.8" fill="none"/>
<line x1="80" y1="277.3830279694564" x2="920" y2="277.3830279694564" stroke="#f0883e" stroke-width="2" stroke-dasharray="8,4"/>
<text x="925" y="282.3830279694564" font-size="11" fill="#f0883e" font-weight="bold">━ 颈线 7.27</text>
<line x1="80" y1="255.42278656254734" x2="920" y2="255.42278656254734" stroke="#a371f7" stroke-width="1.5" stroke-dasharray="5,5"/>
<text x="925" y="260.42278656254734" font-size="11" fill="#a371f7" font-weight="bold">▼ 目标 8.21 (+10.1%)</text>
<circle cx="651.3294797687861" cy="299.1096497869303" r="7" fill="#238636" stroke="#fff" stroke-width="2"/>
<text x="651.3294797687861" y="319.1096497869303" text-anchor="middle" font-size="10" fill="#3fb950">左底 ¥6.34</text>
<circle cx="712.8323699421965" cy="299.34326937636547" r="7" fill="#8957e5" stroke="#fff" stroke-width="2"/>
<text x="712.8323699421965" y="319.34326937636547" text-anchor="middle" font-size="10" fill="#bc8cff">右底 ¥6.33</text>
<circle cx="746.820809248555" cy="277.3830279694564" r="8" fill="#f0883e" stroke="#fff" stroke-width="2.5"/>
<text x="746.820809248555" y="263.3830279694564" text-anchor="middle" font-size="11" fill="#f0883e" font-weight="bold">★ 突破</text>
<line x1="920.0" y1="272.9442557701875" x2="920" y2="272.9442557701875" stroke="#88ccff" stroke-width="1.5"/>
<text x="925" y="277.9442557701875" font-size="11" fill="#88ccff" font-weight="bold">● 现价 7.46</text>
<text x="80" y="618" font-size="13" fill="#58a6ff" font-weight="bold">评分原因 (总分: 70):</text>
<text x="90" y="636" font-size="11" fill="#c9d1d9">1. 突破已107天</text>
<text x="90" y="652" font-size="11" fill="#c9d1d9">2. 右底缩量(63%)</text>
<text x="90" y="668" font-size="11" fill="#c9d1d9">3. 形态跨度大(38根K线)</text>
<text x="90" y="684" font-size="11" fill="#c9d1d9">4. MACD底背离</text>
<text x="90" y="700" font-size="11" fill="#c9d1d9">5. 两底齐平</text>
<text x="90" y="716" font-size="11" fill="#c9d1d9">6. 振幅理想(14.8%)</text>
<text x="928" y="80" font-size="10" fill="#8b949e">突破日: 2026-01-12</text>
<text x="928" y="96" font-size="10" fill="#8b949e">突破后涨幅: 2.6%</text>
<text x="928" y="112" font-size="10" fill="#8b949e">目标空间: 10.1%</text>
<text x="928" y="128" font-size="10" fill="#8b949e">形态跨度: 38根K线</text>
</svg>