<svg xmlns="http://www.w3.org/2000/svg" viewBox="0 0 1000 720" width="1000" height="720">
<rect width="1000" height="720" fill="#0d1117"/>
<text x="500.0" y="24" text-anchor="middle" font-size="17" fill="#58a6ff" font-weight="bold">长高电气 (002452.SZ)  W双底突破</text>
<text x="500.0" y="44" text-anchor="middle" font-size="13" fill="#8b949e">评分:63/100 | 突破后涨幅:4.0% | 目标空间:9.6%</text>
<line x1="80" y1="384.0" x2="920" y2="384.0" stroke="#21262d" stroke-width="0.5"/>
<text x="72" y="388.0" text-anchor="end" font-size="10" fill="#8b949e">6.43</text>
<line x1="80" y1="319.2" x2="920" y2="319.2" stroke="#21262d" stroke-width="0.5"/>
<text x="72" y="323.2" text-anchor="end" font-size="10" fill="#8b949e">7.78</text>
<line x1="80" y1="254.39999999999995" x2="920" y2="254.39999999999995" stroke="#21262d" stroke-width="0.5"/>
<text x="72" y="258.4" text-anchor="end" font-size="10" fill="#8b949e">9.13</text>
<line x1="80" y1="189.59999999999997" x2="920" y2="189.59999999999997" stroke="#21262d" stroke-width="0.5"/>
<text x="72" y="193.59999999999997" text-anchor="end" font-size="10" fill="#8b949e">10.49</text>
<line x1="80" y1="124.79999999999998" x2="920" y2="124.79999999999998" stroke="#21262d" stroke-width="0.5"/>
<text x="72" y="128.79999999999998" text-anchor="end" font-size="10" fill="#8b949e">11.84</text>
<line x1="80" y1="60.0" x2="920" y2="60.0" stroke="#21262d" stroke-width="0.5"/>
<text x="72" y="64.0" text-anchor="end" font-size="10" fill="#8b949e">13.19</text>
<text x="80.0" y="550.1999999999999" text-anchor="middle" font-size="9" fill="#8b949e">2024-05-06</text>
<text x="185.20231213872833" y="550.1999999999999" text-anchor="middle" font-size="9" fill="#8b949e">2024-08-06</text>
<text x="290.40462427745666" y="550.1999999999999" text-anchor="middle" font-size="9" fill="#8b949e">2024-11-14</text>
<text x="395.60693641618496" y="550.1999999999999" text-anchor="middle" font-size="9" fill="#8b949e">2025-02-24</text>
<text x="500.8092485549133" y="550.1999999999999" text-anchor="middle" font-size="9" fill="#8b949e">2025-05-30</text>
<text x="606.0115606936416" y="550.1999999999999" text-anchor="middle" font-size="9" fill="#8b949e">2025-09-01</text>
<text x="711.2138728323699" y="550.1999999999999" text-anchor="middle" font-size="9" fill="#8b949e">2025-12-09</text>
<text x="816.4161849710982" y="550.1999999999999" text-anchor="middle" font-size="9" fill="#8b949e">2026-03-20</text>
<rect x="858.4971098265896" y="60" width="61.50289017341038" height="475.2" fill="#238636" opacity="0.08" rx="3"/>
<text x="889.2485549132948" y="54" text-anchor="middle" font-size="11" fill="#3fb950" font-weight="bold">▼ 双底区域 ▼</text>
<rect x="79.5" y="521.6892264324136" width="1" height="13.510773567586284" fill="#3fb950" opacity="0.45"/>
<rect x="81.11849710982659" y="513.1358181339523" width="1" height="22.064181866047647" fill="#3fb950" opacity="0.45"/>
<rect x="82.73699421965318" y="519.4756190105003" width="1" height="15.72438098949965" fill="#f85149" opacity="0.45"/>
<rect x="84.35549132947978" y="523.5074642193073" width="1" height="11.692535780692651" fill="#3fb950" opacity="0.45"/>
<rect x="85.97398843930635" y="519.1663384638675" width="1" height="16.0336615361324" fill="#3fb950" opacity="0.45"/>
<rect x="87.59248554913295" y="500.836755879546" width="1" height="34.36324412045394" fill="#3fb950" opacity="0.45"/>
<rect x="89.21098265895954" y="508.8038771388634" width="1" height="26.39612286113652" fill="#f85149" opacity="0.45"/>
<rect x="90.82947976878613" y="518.1580290583577" width="1" height="17.041970941642262" fill="#f85149" opacity="0.45"/>
<rect x="92.44797687861272" y="523.8543069614236" width="1" height="11.345693038576314" fill="#f85149" opacity="0.45"/>
<rect x="94.0664739884393" y="525.687783789109" width="1" height="9.512216210890983" fill="#f85149" opacity="0.45"/>
<rect x="95.68497109826589" y="524.1088076730673" width="1" height="11.091192326932628" fill="#3fb950" opacity="0.45"/>
<rect x="97.30346820809248" y="528.1167457791802" width="1" height="7.083254220819754" fill="#f85149" opacity="0.45"/>
<rect x="98.92196531791907" y="527.8254534654286" width="1" height="7.374546534571323" fill="#f85149" opacity="0.45"/>
<rect x="100.54046242774567" y="528.5803534620524" width="1" height="6.619646537947574" fill="#f85149" opacity="0.45"/>
<rect x="102.15895953757226" y="526.6912237571719" width="1" height="8.508776242828048" fill="#3fb950" opacity="0.45"/>
<rect x="103.77745664739885" y="520.2565668449417" width="1" height="14.943433155058187" fill="#3fb950" opacity="0.45"/>
<rect x="105.39595375722544" y="519.0027508442288" width="1" height="16.197249155771146" fill="#3fb950" opacity="0.45"/>
<rect x="107.01445086705202" y="524.9219262219406" width="1" height="10.278073778059365" fill="#f85149" opacity="0.45"/>
<rect x="108.63294797687861" y="527.8966456030312" width="1" height="7.303354396968757" fill="#f85149" opacity="0.45"/>
<rect x="110.2514450867052" y="528.1142825529561" width="1" height="7.085717447043862" fill="#f85149" opacity="0.45"/>
<rect x="111.86994219653178" y="528.5249687335348" width="1" height="6.675031266465112" fill="#f85149" opacity="0.45"/>
<rect x="113.48843930635837" y="507.211240584876" width="1" height="27.988759415123923" fill="#3fb950" opacity="0.45"/>
<rect x="115.10693641618496" y="509.80928412446804" width="1" height="25.390715875531896" fill="#f85149" opacity="0.45"/>
<rect x="116.72543352601156" y="520.1247401444135" width="1" height="15.07525985558641" fill="#f85149" opacity="0.45"/>
<rect x="118.34393063583815" y="524.6328931276119" width="1" height="10.56710687238808" fill="#f85149" opacity="0.45"/>
<rect x="119.96242774566474" y="527.5417272205093" width="1" height="7.6582727794906305" fill="#3fb950" opacity="0.45"/>
<rect x="121.58092485549133" y="528.994540720049" width="1" height="6.205459279950901" fill="#3fb950" opacity="0.45"/>
<rect x="123.19942196531792" y="520.2979677535535" width="1" height="14.902032246446424" fill="#3fb950" opacity="0.45"/>
<rect x="124.81791907514452" y="523.1265576865471" width="1" height="12.073442313452801" fill="#3fb950" opacity="0.45"/>
<rect x="126.43641618497111" y="502.47742400861387" width="1" height="32.722575991386066" fill="#3fb950" opacity="0.45"/>
<rect x="128.0549132947977" y="510.05701697729637" width="1" height="25.14298302270356" fill="#3fb950" opacity="0.45"/>
<rect x="129.6734104046243" y="514.166043571411" width="1" height="21.03395642858891" fill="#f85149" opacity="0.45"/>
<rect x="131.29190751445088" y="517.7618015257416" width="1" height="17.438198474258343" fill="#f85149" opacity="0.45"/>
<rect x="132.91040462427745" y="520.2418952815839" width="1" height="14.958104718416052" fill="#f85149" opacity="0.45"/>
<rect x="134.52890173410404" y="521.9625420944561" width="1" height="13.237457905543806" fill="#f85149" opacity="0.45"/>
<rect x="136.14739884393063" y="526.7819854030798" width="1" height="8.418014596920102" fill="#f85149" opacity="0.45"/>
<rect x="137.76589595375722" y="522.3177108084676" width="1" height="12.882289191532323" fill="#3fb950" opacity="0.45"/>
<rect x="139.38439306358381" y="528.0267244374286" width="1" height="7.173275562571348" fill="#f85149" opacity="0.45"/>
<rect x="141.0028901734104" y="510.32409751444106" width="1" height="24.875902485558868" fill="#3fb950" opacity="0.45"/>
<rect x="142.621387283237" y="501.9414019290507" width="1" height="33.25859807094923" fill="#3fb950" opacity="0.45"/>
<rect x="144.23988439306356" y="515.2392315939991" width="1" height="19.960768406000852" fill="#f85149" opacity="0.45"/>
<rect x="145.85838150289015" y="524.3980091398214" width="1" height="10.801990860178535" fill="#f85149" opacity="0.45"/>
<rect x="147.47687861271675" y="505.1118609361647" width="1" height="30.08813906383523" fill="#3fb950" opacity="0.45"/>
<rect x="149.09537572254334" y="519.8021278869513" width="1" height="15.397872113048606" fill="#f85149" opacity="0.45"/>
<rect x="150.71387283236993" y="509.19957817357766" width="1" height="26.00042182642227" fill="#3fb950" opacity="0.45"/>
<rect x="152.33236994219652" y="505.72647463145597" width="1" height="29.47352536854396" fill="#3fb950" opacity="0.45"/>
<rect x="153.9508670520231" y="517.5306573656867" width="1" height="17.66934263431324" fill="#3fb950" opacity="0.45"/>
<rect x="155.5693641618497" y="515.7587709930566" width="1" height="19.44122900694333" fill="#f85149" opacity="0.45"/>
<rect x="157.1878612716763" y="513.9193343160262" width="1" height="21.28066568397378" fill="#f85149" opacity="0.45"/>
<rect x="158.8063583815029" y="494.2186050945207" width="1" height="40.98139490547925" fill="#f85149" opacity="0.45"/>
<rect x="160.42485549132948" y="517.7031651604364" width="1" height="17.496834839563576" fill="#f85149" opacity="0.45"/>
<rect x="162.04335260115607" y="508.60200750935076" width="1" height="26.597992490649176" fill="#f85149" opacity="0.45"/>
<rect x="163.66184971098266" y="518.6768548790407" width="1" height="16.52314512095927" fill="#3fb950" opacity="0.45"/>
<rect x="165.28034682080926" y="525.5837964446396" width="1" height="9.616203555360357" fill="#f85149" opacity="0.45"/>
<rect x="166.89884393063585" y="516.6167621295996" width="1" height="18.583237870400353" fill="#3fb950" opacity="0.45"/>
<rect x="168.51734104046244" y="520.1222047585785" width="1" height="15.077795241421427" fill="#f85149" opacity="0.45"/>
<rect x="170.13583815028903" y="524.3297737645472" width="1" height="10.87022623545272" fill="#f85149" opacity="0.45"/>
<rect x="171.75433526011562" y="523.1990397885521" width="1" height="12.000960211447818" fill="#3fb950" opacity="0.45"/>
<rect x="173.37283236994222" y="523.4738850561738" width="1" height="11.726114943826133" fill="#3fb950" opacity="0.45"/>
<rect x="174.99132947976878" y="520.6002621808194" width="1" height="14.599737819180518" fill="#3fb950" opacity="0.45"/>
<rect x="176.60982658959537" y="523.9884855307516" width="1" height="11.2115144692483" fill="#f85149" opacity="0.45"/>
<rect x="178.22832369942196" y="519.3602037217262" width="1" height="15.839796278273752" fill="#3fb950" opacity="0.45"/>
<rect x="179.84682080924856" y="528.1168660451983" width="1" height="7.08313395480161" fill="#f85149" opacity="0.45"/>
<rect x="181.46531791907515" y="528.6943211043115" width="1" height="6.5056788956884475" fill="#f85149" opacity="0.45"/>
<rect x="183.08381502890174" y="525.2836659148413" width="1" height="9.91633408515861" fill="#f85149" opacity="0.45"/>
<rect x="184.70231213872833" y="527.4154158304887" width="1" height="7.784584169511277" fill="#3fb950" opacity="0.45"/>
<rect x="186.3208092485549" y="522.4100350217524" width="1" height="12.789964978247554" fill="#3fb950" opacity="0.45"/>
<rect x="187.93930635838151" y="528.2830095404382" width="1" height="6.916990459561703" fill="#f85149" opacity="0.45"/>
<rect x="189.55780346820808" y="528.0723230755043" width="1" height="7.127676924495631" fill="#3fb950" opacity="0.45"/>
<rect x="191.17630057803467" y="529.5319961923769" width="1" height="5.668003807622995" fill="#f85149" opacity="0.45"/>
<rect x="192.79479768786126" y="526.5893094425121" width="1" height="8.610690557487828" fill="#3fb950" opacity="0.45"/>
<rect x="194.41329479768785" y="527.7699653972214" width="1" height="7.430034602778505" fill="#f85149" opacity="0.45"/>
<rect x="196.03179190751445" y="528.0232358320421" width="1" height="7.176764167957799" fill="#f85149" opacity="0.45"/>
<rect x="197.65028901734104" y="527.146786088858" width="1" height="8.053213911141938" fill="#f85149" opacity="0.45"/>
<rect x="199.26878612716763" y="530.6914496935119" width="1" height="4.508550306488019" fill="#f85149" opacity="0.45"/>
<rect x="200.88728323699422" y="523.1136883317432" width="1" height="12.086311668256712" fill="#f85149" opacity="0.45"/>
<rect x="202.5057803468208" y="530.2181360975435" width="1" height="4.981863902456439" fill="#3fb950" opacity="0.45"/>
<rect x="204.1242774566474" y="529.287722546575" width="1" height="5.912277453424963" fill="#3fb950" opacity="0.45"/>
<rect x="205.742774566474" y="530.7016054906022" width="1" height="4.498394509397713" fill="#f85149" opacity="0.45"/>
<rect x="207.3612716763006" y="530.5723417925502" width="1" height="4.627658207449713" fill="#3fb950" opacity="0.45"/>
<rect x="208.97976878612715" y="530.4307842348626" width="1" height="4.769215765137346" fill="#f85149" opacity="0.45"/>
<rect x="210.59826589595377" y="532.533746920056" width="1" height="2.6662530799438855" fill="#3fb950" opacity="0.45"/>
<rect x="212.21676300578034" y="526.1170648778161" width="1" height="9.082935122183812" fill="#3fb950" opacity="0.45"/>
<rect x="213.83526011560696" y="525.2692339926605" width="1" height="9.930766007339457" fill="#3fb950" opacity="0.45"/>
<rect x="215.45375722543352" y="529.1055418005265" width="1" height="6.094458199473479" fill="#f85149" opacity="0.45"/>
<rect x="217.0722543352601" y="529.6510613320878" width="1" height="5.548938667912125" fill="#3fb950" opacity="0.45"/>
<rect x="218.6907514450867" y="529.7867365451975" width="1" height="5.413263454802404" fill="#f85149" opacity="0.45"/>
<rect x="220.3092485549133" y="531.4275668106751" width="1" height="3.772433189324829" fill="#f85149" opacity="0.45"/>
<rect x="221.9277456647399" y="530.9565694491307" width="1" height="4.2434305508692205" fill="#f85149" opacity="0.45"/>
<rect x="223.54624277456648" y="529.3701270405089" width="1" height="5.829872959491013" fill="#f85149" opacity="0.45"/>
<rect x="225.16473988439307" y="530.5498921358244" width="1" height="4.6501078641755385" fill="#3fb950" opacity="0.45"/>
<rect x="226.78323699421964" y="531.6760274956283" width="1" height="3.5239725043716135" fill="#3fb950" opacity="0.45"/>
<rect x="228.40173410404626" y="525.2815233979991" width="1" height="9.918476602000851" fill="#3fb950" opacity="0.45"/>
<rect x="230.02023121387282" y="530.620982715456" width="1" height="4.579017284543966" fill="#f85149" opacity="0.45"/>
<rect x="231.63872832369944" y="523.1253808612879" width="1" height="12.074619138712023" fill="#3fb950" opacity="0.45"/>
<rect x="233.257225433526" y="525.6481628175661" width="1" height="9.551837182433815" fill="#3fb950" opacity="0.45"/>
<rect x="234.8757225433526" y="528.8834505536322" width="1" height="6.3165494463677305" fill="#f85149" opacity="0.45"/>
<rect x="236.4942196531792" y="529.5292363099747" width="1" height="5.670763690025183" fill="#f85149" opacity="0.45"/>
<rect x="238.11271676300578" y="523.5122810960501" width="1" height="11.687718903949872" fill="#3fb950" opacity="0.45"/>
<rect x="239.73121387283237" y="517.5719905689845" width="1" height="17.62800943101547" fill="#3fb950" opacity="0.45"/>
<rect x="241.34971098265896" y="517.9657254770165" width="1" height="17.23427452298347" fill="#3fb950" opacity="0.45"/>
<rect x="242.96820809248555" y="506.11382831364955" width="1" height="29.086171686350383" fill="#3fb950" opacity="0.45"/>
<rect x="244.58670520231215" y="498.3868604754374" width="1" height="36.81313952456253" fill="#3fb950" opacity="0.45"/>
<rect x="246.20520231213874" y="491.27718158327633" width="1" height="43.9228184167236" fill="#3fb950" opacity="0.45"/>
<rect x="247.8236994219653" y="492.9322362006959" width="1" height="42.26776379930402" fill="#3fb950" opacity="0.45"/>
<rect x="249.44219653179192" y="503.67420808179" width="1" height="31.525791918209904" fill="#f85149" opacity="0.45"/>
<rect x="251.06069364161849" y="517.142745114653" width="1" height="18.05725488534688" fill="#f85149" opacity="0.45"/>
<rect x="252.67919075144508" y="518.1529556141095" width="1" height="17.047044385890445" fill="#3fb950" opacity="0.45"/>
<rect x="254.29768786127167" y="505.9432786278476" width="1" height="29.256721372152356" fill="#f85149" opacity="0.45"/>
<rect x="255.91618497109823" y="511.55053384254256" width="1" height="23.64946615745737" fill="#f85149" opacity="0.45"/>
<rect x="257.5346820809249" y="512.2032852284858" width="1" height="22.99671477151412" fill="#f85149" opacity="0.45"/>
<rect x="259.1531791907514" y="503.31448262197875" width="1" height="31.885517378021177" fill="#3fb950" opacity="0.45"/>
<rect x="260.77167630057806" y="512.2522637871019" width="1" height="22.947736212898008" fill="#3fb950" opacity="0.45"/>
<rect x="262.3901734104046" y="510.6754943297789" width="1" height="24.524505670221004" fill="#3fb950" opacity="0.45"/>
<rect x="264.00867052023125" y="511.209779233524" width="1" height="23.990220766475943" fill="#f85149" opacity="0.45"/>
<rect x="265.6271676300578" y="516.563765795117" width="1" height="18.636234204882953" fill="#3fb950" opacity="0.45"/>
<rect x="267.24566473988443" y="514.7731286139646" width="1" height="20.426871386035373" fill="#3fb950" opacity="0.45"/>
<rect x="268.86416184971097" y="487.9263547289804" width="1" height="47.27364527101952" fill="#f85149" opacity="0.45"/>
<rect x="270.48265895953756" y="502.2545799855317" width="1" height="32.945420014468255" fill="#f85149" opacity="0.45"/>
<rect x="272.10115606936415" y="509.9785233561016" width="1" height="25.221476643898313" fill="#f85149" opacity="0.45"/>
<rect x="273.71965317919074" y="510.96777817003584" width="1" height="24.23222182996409" fill="#3fb950" opacity="0.45"/>
<rect x="275.33815028901734" y="513.6110025346479" width="1" height="21.58899746535201" fill="#f85149" opacity="0.45"/>
<rect x="276.9566473988439" y="519.7270195314533" width="1" height="15.472980468546666" fill="#3fb950" opacity="0.45"/>
<rect x="278.5751445086705" y="507.38487442589957" width="1" height="27.815125574100364" fill="#3fb950" opacity="0.45"/>
<rect x="280.1936416184971" y="511.9607835020183" width="1" height="23.23921649798166" fill="#3fb950" opacity="0.45"/>
<rect x="281.8121387283237" y="469.5629194876914" width="1" height="65.63708051230856" fill="#3fb950" opacity="0.45"/>
<rect x="283.4306358381503" y="497.31852050967086" width="1" height="37.88147949032907" fill="#f85149" opacity="0.45"/>
<rect x="285.0491329479769" y="505.9528624932069" width="1" height="29.247137506793024" fill="#3fb950" opacity="0.45"/>
<rect x="286.6676300578035" y="503.5676604074225" width="1" height="31.63233959257741" fill="#f85149" opacity="0.45"/>
<rect x="288.28612716763007" y="516.741421866304" width="1" height="18.458578133695937" fill="#3fb950" opacity="0.45"/>
<rect x="289.90462427745666" y="516.5511948782099" width="1" height="18.64880512179002" fill="#f85149" opacity="0.45"/>
<rect x="291.52312138728325" y="518.5163727952489" width="1" height="16.68362720475102" fill="#f85149" opacity="0.45"/>
<rect x="293.1416184971098" y="520.1963242601494" width="1" height="15.003675739850564" fill="#f85149" opacity="0.45"/>
<rect x="294.76011560693644" y="522.4415999517964" width="1" height="12.758400048203498" fill="#3fb950" opacity="0.45"/>
<rect x="296.37861271676303" y="522.3602012381182" width="1" height="12.839798761881752" fill="#3fb950" opacity="0.45"/>
<rect x="297.9971098265896" y="478.7858424733107" width="1" height="56.41415752668922" fill="#3fb950" opacity="0.45"/>
<rect x="299.61560693641616" y="498.8526694718719" width="1" height="36.347330528128055" fill="#f85149" opacity="0.45"/>
<rect x="301.2341040462428" y="510.49789438273376" width="1" height="24.70210561726617" fill="#3fb950" opacity="0.45"/>
<rect x="302.85260115606934" y="504.642566006922" width="1" height="30.55743399307795" fill="#3fb950" opacity="0.45"/>
<rect x="304.471098265896" y="514.0755857085564" width="1" height="21.124414291443486" fill="#f85149" opacity="0.45"/>
<rect x="306.0895953757225" y="518.317234540638" width="1" height="16.882765459361963" fill="#f85149" opacity="0.45"/>
<rect x="307.7080924855491" y="513.7936589996127" width="1" height="21.406341000387215" fill="#3fb950" opacity="0.45"/>
<rect x="309.3265895953757" y="513.490057681616" width="1" height="21.709942318383924" fill="#3fb950" opacity="0.45"/>
<rect x="310.94508670520236" y="517.8688552082448" width="1" height="17.33114479175515" fill="#f85149" opacity="0.45"/>
<rect x="312.5635838150289" y="516.5630433081485" width="1" height="18.636956691851424" fill="#f85149" opacity="0.45"/>
<rect x="314.1820809248555" y="524.7487939347557" width="1" height="10.451206065244264" fill="#3fb950" opacity="0.45"/>
<rect x="315.8005780346821" y="522.5648708387057" width="1" height="12.63512916129423" fill="#3fb950" opacity="0.45"/>
<rect x="317.4190751445087" y="517.765810393014" width="1" height="17.43418960698591" fill="#3fb950" opacity="0.45"/>
<rect x="319.03757225433526" y="509.38990048362683" width="1" height="25.8100995163731" fill="#3fb950" opacity="0.45"/>
<rect x="320.65606936416185" y="519.7707607276928" width="1" height="15.429239272307086" fill="#3fb950" opacity="0.45"/>
<rect x="322.27456647398844" y="520.189820986574" width="1" height="15.010179013425955" fill="#f85149" opacity="0.45"/>
<rect x="323.893063583815" y="521.9709161727586" width="1" height="13.229083827241311" fill="#f85149" opacity="0.45"/>
<rect x="325.5115606936416" y="524.362250043751" width="1" height="10.8377499562489" fill="#f85149" opacity="0.45"/>
<rect x="327.1300578034682" y="520.0797490724444" width="1" height="15.120250927555503" fill="#f85149" opacity="0.45"/>
<rect x="328.7485549132948" y="521.2463802277159" width="1" height="13.953619772284014" fill="#3fb950" opacity="0.45"/>
<rect x="330.36705202312135" y="524.7790831541475" width="1" height="10.420916845852389" fill="#3fb950" opacity="0.45"/>
<rect x="331.985549132948" y="525.3417499473223" width="1" height="9.85825005267759" fill="#3fb950" opacity="0.45"/>
<rect x="333.60404624277453" y="524.4739638117436" width="1" height="10.72603618825633" fill="#f85149" opacity="0.45"/>
<rect x="335.2225433526012" y="525.453730973133" width="1" height="9.746269026866912" fill="#3fb950" opacity="0.45"/>
<rect x="336.84104046242777" y="525.2391977773364" width="1" height="9.960802222663574" fill="#f85149" opacity="0.45"/>
<rect x="338.4595375722543" y="526.5325527905279" width="1" height="8.667447209472016" fill="#f85149" opacity="0.45"/>
<rect x="340.0780346820809" y="522.4801224937065" width="1" height="12.719877506293415" fill="#3fb950" opacity="0.45"/>
<rect x="341.69653179190755" y="527.685155582924" width="1" height="7.514844417075892" fill="#f85149" opacity="0.45"/>
<rect x="343.3150289017341" y="524.9242932353501" width="1" height="10.27570676464984" fill="#f85149" opacity="0.45"/>
<rect x="344.9335260115607" y="525.3169172417179" width="1" height="9.883082758282058" fill="#f85149" opacity="0.45"/>
<rect x="346.55202312138726" y="526.0505176810933" width="1" height="9.149482318906621" fill="#f85149" opacity="0.45"/>
<rect x="348.1705202312139" y="525.237425858002" width="1" height="9.962574141997948" fill="#3fb950" opacity="0.45"/>
<rect x="349.78901734104045" y="523.8522597665365" width="1" height="11.347740233463469" fill="#3fb950" opacity="0.45"/>
<rect x="351.40751445086704" y="525.1439078931294" width="1" height="10.056092106870551" fill="#f85149" opacity="0.45"/>
<rect x="353.02601156069363" y="527.762073273851" width="1" height="7.43792672614893" fill="#3fb950" opacity="0.45"/>
<rect x="354.6445086705202" y="527.7713016863122" width="1" height="7.4286983136877325" fill="#f85149" opacity="0.45"/>
<rect x="356.2630057803468" y="529.1351316952943" width="1" height="6.064868304705669" fill="#f85149" opacity="0.45"/>
<rect x="357.8815028901734" y="526.4530970411878" width="1" height="8.746902958812143" fill="#3fb950" opacity="0.45"/>
<rect x="359.5" y="530.4225473489068" width="1" height="4.7774526510930855" fill="#f85149" opacity="0.45"/>
<rect x="361.1184971098266" y="527.2130482105748" width="1" height="7.98695178942512" fill="#3fb950" opacity="0.45"/>
<rect x="362.7369942196532" y="525.3983916784446" width="1" height="9.801608321555364" fill="#3fb950" opacity="0.45"/>
<rect x="364.3554913294798" y="512.5483854496276" width="1" height="22.6516145503723" fill="#3fb950" opacity="0.45"/>
<rect x="365.97398843930637" y="522.1135846321104" width="1" height="13.086415367889572" fill="#f85149" opacity="0.45"/>
<rect x="367.59248554913296" y="523.3906787887854" width="1" height="11.809321211214524" fill="#3fb950" opacity="0.45"/>
<rect x="369.2109826589595" y="523.7068447876734" width="1" height="11.493155212326542" fill="#f85149" opacity="0.45"/>
<rect x="370.82947976878614" y="519.7288903361805" width="1" height="15.471109663819448" fill="#3fb950" opacity="0.45"/>
<rect x="372.44797687861274" y="523.4940184784755" width="1" height="11.70598152152445" fill="#f85149" opacity="0.45"/>
<rect x="374.06647398843927" y="524.8835809610497" width="1" height="10.316419038950244" fill="#f85149" opacity="0.45"/>
<rect x="375.68497109826586" y="525.2051812022405" width="1" height="9.994818797759422" fill="#3fb950" opacity="0.45"/>
<rect x="377.3034682080925" y="521.1541103568542" width="1" height="14.045889643145756" fill="#3fb950" opacity="0.45"/>
<rect x="378.9219653179191" y="524.8641602262632" width="1" height="10.33583977373678" fill="#3fb950" opacity="0.45"/>
<rect x="380.54046242774564" y="526.7105554060191" width="1" height="8.489444593980807" fill="#f85149" opacity="0.45"/>
<rect x="382.1589595375723" y="519.7382889027858" width="1" height="15.461711097214106" fill="#3fb950" opacity="0.45"/>
<rect x="383.7774566473989" y="523.096249759108" width="1" height="12.10375024089194" fill="#f85149" opacity="0.45"/>
<rect x="385.3959537572254" y="521.8854827568855" width="1" height="13.314517243114437" fill="#f85149" opacity="0.45"/>
<rect x="387.014450867052" y="523.759316405973" width="1" height="11.44068359402695" fill="#3fb950" opacity="0.45"/>
<rect x="388.63294797687865" y="519.3297496933463" width="1" height="15.870250306653588" fill="#f85149" opacity="0.45"/>
<rect x="390.2514450867052" y="523.3964257227353" width="1" height="11.803574277264602" fill="#3fb950" opacity="0.45"/>
<rect x="391.8699421965318" y="522.4399536436365" width="1" height="12.760046356363432" fill="#f85149" opacity="0.45"/>
<rect x="393.4884393063584" y="518.4991774272282" width="1" height="16.7008225727717" fill="#3fb950" opacity="0.45"/>
<rect x="395.10693641618496" y="522.1559833032433" width="1" height="13.044016696756671" fill="#3fb950" opacity="0.45"/>
<rect x="396.72543352601156" y="521.698131462915" width="1" height="13.501868537084988" fill="#3fb950" opacity="0.45"/>
<rect x="398.34393063583815" y="520.3177626492856" width="1" height="14.882237350714377" fill="#3fb950" opacity="0.45"/>
<rect x="399.96242774566474" y="513.9621062572452" width="1" height="21.23789374275475" fill="#f85149" opacity="0.45"/>
<rect x="401.58092485549133" y="522.0054521188812" width="1" height="13.194547881118751" fill="#f85149" opacity="0.45"/>
<rect x="403.1994219653179" y="522.4470947725379" width="1" height="12.752905227462065" fill="#3fb950" opacity="0.45"/>
<rect x="404.81791907514446" y="512.8788051988179" width="1" height="22.32119480118206" fill="#3fb950" opacity="0.45"/>
<rect x="406.4364161849711" y="506.06689071390485" width="1" height="29.133109286095078" fill="#3fb950" opacity="0.45"/>
<rect x="408.0549132947977" y="519.2641485892998" width="1" height="15.935851410700138" fill="#f85149" opacity="0.45"/>
<rect x="409.6734104046243" y="520.6007387905952" width="1" height="14.599261209404744" fill="#3fb950" opacity="0.45"/>
<rect x="411.2919075144509" y="519.5691583559983" width="1" height="15.630841644001634" fill="#3fb950" opacity="0.45"/>
<rect x="412.9104046242775" y="525.265804183994" width="1" height="9.934195816005968" fill="#f85149" opacity="0.45"/>
<rect x="414.52890173410407" y="515.8481607154979" width="1" height="19.351839284502034" fill="#3fb950" opacity="0.45"/>
<rect x="416.1473988439306" y="523.4503984391135" width="1" height="11.74960156088639" fill="#f85149" opacity="0.45"/>
<rect x="417.76589595375725" y="521.5334151244241" width="1" height="13.666584875575836" fill="#3fb950" opacity="0.45"/>
<rect x="419.38439306358384" y="523.76655196597" width="1" height="11.43344803402988" fill="#f85149" opacity="0.45"/>
<rect x="421.0028901734104" y="524.9946533102787" width="1" height="10.205346689721182" fill="#3fb950" opacity="0.45"/>
<rect x="422.62138728323697" y="515.9525373655225" width="1" height="19.247462634477415" fill="#3fb950" opacity="0.45"/>
<rect x="424.2398843930636" y="523.0517958753534" width="1" height="12.148204124646554" fill="#3fb950" opacity="0.45"/>
<rect x="425.85838150289015" y="521.3899867620094" width="1" height="13.810013237990574" fill="#f85149" opacity="0.45"/>
<rect x="427.47687861271675" y="520.5652291351552" width="1" height="14.634770864844768" fill="#f85149" opacity="0.45"/>
<rect x="429.09537572254334" y="521.7022329795643" width="1" height="13.497767020435617" fill="#3fb950" opacity="0.45"/>
<rect x="430.71387283236993" y="523.2215019173093" width="1" height="11.978498082690635" fill="#f85149" opacity="0.45"/>
<rect x="432.3323699421965" y="524.0658611234071" width="1" height="11.134138876592829" fill="#f85149" opacity="0.45"/>
<rect x="433.9508670520231" y="523.7920109457284" width="1" height="11.407989054271525" fill="#f85149" opacity="0.45"/>
<rect x="435.5693641618497" y="524.2023407825495" width="1" height="10.997659217450405" fill="#f85149" opacity="0.45"/>
<rect x="437.1878612716763" y="525.663350188513" width="1" height="9.536649811486882" fill="#3fb950" opacity="0.45"/>
<rect x="438.8063583815029" y="527.8839063136986" width="1" height="7.316093686301315" fill="#3fb950" opacity="0.45"/>
<rect x="440.4248554913295" y="516.2458973639273" width="1" height="18.954102636072662" fill="#3fb950" opacity="0.45"/>
<rect x="442.0433526011561" y="513.0356837563613" width="1" height="22.16431624363861" fill="#f85149" opacity="0.45"/>
<rect x="443.66184971098266" y="514.9442047976684" width="1" height="20.25579520233157" fill="#f85149" opacity="0.45"/>
<rect x="445.28034682080926" y="518.7238227680049" width="1" height="16.476177231995052" fill="#3fb950" opacity="0.45"/>
<rect x="446.89884393063585" y="520.6840697782987" width="1" height="14.515930221701183" fill="#3fb950" opacity="0.45"/>
<rect x="448.51734104046244" y="527.5613581981129" width="1" height="7.638641801887047" fill="#f85149" opacity="0.45"/>
<rect x="450.13583815028903" y="526.4644964779918" width="1" height="8.735503522008116" fill="#3fb950" opacity="0.45"/>
<rect x="451.75433526011557" y="527.6642203871678" width="1" height="7.53577961283213" fill="#3fb950" opacity="0.45"/>
<rect x="453.3728323699422" y="527.2040906193694" width="1" height="7.9959093806305646" fill="#f85149" opacity="0.45"/>
<rect x="454.9913294797688" y="530.7293112177518" width="1" height="4.470688782248089" fill="#3fb950" opacity="0.45"/>
<rect x="456.60982658959534" y="530.403119487245" width="1" height="4.79688051275491" fill="#3fb950" opacity="0.45"/>
<rect x="458.22832369942194" y="529.9218362631389" width="1" height="5.2781637368610745" fill="#3fb950" opacity="0.45"/>
<rect x="459.8468208092486" y="529.5784990527375" width="1" height="5.6215009472624615" fill="#3fb950" opacity="0.45"/>
<rect x="461.4653179190751" y="527.9258657911504" width="1" height="7.274134208849546" fill="#3fb950" opacity="0.45"/>
<rect x="463.0838150289017" y="520.680655114242" width="1" height="14.51934488575796" fill="#3fb950" opacity="0.45"/>
<rect x="464.70231213872836" y="527.3985661159128" width="1" height="7.801433884087146" fill="#3fb950" opacity="0.45"/>
<rect x="466.3208092485549" y="526.7346976955932" width="1" height="8.465302304406691" fill="#f85149" opacity="0.45"/>
<rect x="467.9393063583815" y="520.4707855673723" width="1" height="14.7292144326276" fill="#f85149" opacity="0.45"/>
<rect x="469.5578034682081" y="523.9925433952908" width="1" height="11.207456604709137" fill="#f85149" opacity="0.45"/>
<rect x="471.1763005780347" y="521.9875752434241" width="1" height="13.212424756575842" fill="#3fb950" opacity="0.45"/>
<rect x="472.79479768786126" y="521.5829094906293" width="1" height="13.617090509370655" fill="#3fb950" opacity="0.45"/>
<rect x="474.41329479768785" y="522.4412899327273" width="1" height="12.75871006727266" fill="#3fb950" opacity="0.45"/>
<rect x="476.03179190751445" y="528.3671084489392" width="1" height="6.832891551060698" fill="#f85149" opacity="0.45"/>
<rect x="477.65028901734104" y="527.7495647171015" width="1" height="7.450435282898411" fill="#3fb950" opacity="0.45"/>
<rect x="479.26878612716763" y="527.8746413760023" width="1" height="7.3253586239976585" fill="#f85149" opacity="0.45"/>
<rect x="480.8872832369942" y="527.8428376956408" width="1" height="7.357162304359122" fill="#3fb950" opacity="0.45"/>
<rect x="482.5057803468208" y="528.7953445595774" width="1" height="6.404655440422516" fill="#f85149" opacity="0.45"/>
<rect x="484.1242774566474" y="529.2983522808628" width="1" height="5.901647719137145" fill="#f85149" opacity="0.45"/>
<rect x="485.742774566474" y="528.2222547114943" width="1" height="6.977745288505616" fill="#3fb950" opacity="0.45"/>
<rect x="487.3612716763006" y="528.7605627362622" width="1" height="6.439437263737773" fill="#3fb950" opacity="0.45"/>
<rect x="488.9797687861272" y="529.0302410193995" width="1" height="6.169758980600477" fill="#3fb950" opacity="0.45"/>
<rect x="490.5982658959538" y="527.1240852097832" width="1" height="8.075914790216757" fill="#f85149" opacity="0.45"/>
<rect x="492.2167630057803" y="524.8792121865821" width="1" height="10.320787813417837" fill="#f85149" opacity="0.45"/>
<rect x="493.83526011560696" y="525.9704427844745" width="1" height="9.22955721552546" fill="#f85149" opacity="0.45"/>
<rect x="495.45375722543355" y="529.6234785435345" width="1" height="5.576521456465457" fill="#3fb950" opacity="0.45"/>
<rect x="497.0722543352601" y="527.8997591566127" width="1" height="7.300240843387201" fill="#f85149" opacity="0.45"/>
<rect x="498.6907514450867" y="529.0821968301099" width="1" height="6.117803169890067" fill="#3fb950" opacity="0.45"/>
<rect x="500.3092485549133" y="526.5980042301964" width="1" height="8.60199576980358" fill="#3fb950" opacity="0.45"/>
<rect x="501.9277456647399" y="528.0592568407743" width="1" height="7.140743159225622" fill="#f85149" opacity="0.45"/>
<rect x="503.5462427745665" y="526.4435639548138" width="1" height="8.756436045186092" fill="#3fb950" opacity="0.45"/>
<rect x="505.16473988439304" y="524.7204654968897" width="1" height="10.479534503110244" fill="#3fb950" opacity="0.45"/>
<rect x="506.78323699421964" y="521.3073150102573" width="1" height="13.892684989742634" fill="#3fb950" opacity="0.45"/>
<rect x="508.4017341040462" y="527.6852446688633" width="1" height="7.514755331136598" fill="#3fb950" opacity="0.45"/>
<rect x="510.0202312138728" y="526.443566627392" width="1" height="8.756433372607944" fill="#f85149" opacity="0.45"/>
<rect x="511.6387283236994" y="526.5466372775452" width="1" height="8.653362722454744" fill="#3fb950" opacity="0.45"/>
<rect x="513.2572254335261" y="524.1550361487346" width="1" height="11.04496385126538" fill="#3fb950" opacity="0.45"/>
<rect x="514.8757225433526" y="526.2870408501685" width="1" height="8.912959149831408" fill="#f85149" opacity="0.45"/>
<rect x="516.4942196531792" y="528.6600230176471" width="1" height="6.539976982352869" fill="#3fb950" opacity="0.45"/>
<rect x="518.1127167630058" y="525.8720242020761" width="1" height="9.327975797923841" fill="#3fb950" opacity="0.45"/>
<rect x="519.7312138728323" y="523.3718282040109" width="1" height="11.828171795989078" fill="#3fb950" opacity="0.45"/>
<rect x="521.349710982659" y="520.5038141794004" width="1" height="14.696185820599567" fill="#f85149" opacity="0.45"/>
<rect x="522.9682080924856" y="528.8316025369083" width="1" height="6.368397463091583" fill="#f85149" opacity="0.45"/>
<rect x="524.5867052023123" y="529.0585044245296" width="1" height="6.141495575470344" fill="#3fb950" opacity="0.45"/>
<rect x="526.2052023121387" y="524.2861403622943" width="1" height="10.913859637705627" fill="#3fb950" opacity="0.45"/>
<rect x="527.8236994219653" y="523.9751716371102" width="1" height="11.224828362889752" fill="#f85149" opacity="0.45"/>
<rect x="529.442196531792" y="527.959985705936" width="1" height="7.24001429406394" fill="#f85149" opacity="0.45"/>
<rect x="531.0606936416185" y="526.4263676959338" width="1" height="8.773632304066155" fill="#3fb950" opacity="0.45"/>
<rect x="532.679190751445" y="526.4215606186444" width="1" height="8.778439381355497" fill="#3fb950" opacity="0.45"/>
<rect x="534.2976878612717" y="523.508772891757" width="1" height="11.69122710824297" fill="#3fb950" opacity="0.45"/>
<rect x="535.9161849710982" y="525.3494113381097" width="1" height="9.850588661890242" fill="#3fb950" opacity="0.45"/>
<rect x="537.5346820809248" y="526.0950570873498" width="1" height="9.104942912650131" fill="#3fb950" opacity="0.45"/>
<rect x="539.1531791907514" y="523.1345567130448" width="1" height="12.065443286955087" fill="#3fb950" opacity="0.45"/>
<rect x="540.7716763005781" y="515.646256342469" width="1" height="19.55374365753096" fill="#3fb950" opacity="0.45"/>
<rect x="542.3901734104047" y="522.1612037392914" width="1" height="13.038796260708523" fill="#f85149" opacity="0.45"/>
<rect x="544.0086705202312" y="522.5064669877024" width="1" height="12.693533012297507" fill="#3fb950" opacity="0.45"/>
<rect x="545.6271676300578" y="524.8700933498263" width="1" height="10.329906650173598" fill="#3fb950" opacity="0.45"/>
<rect x="547.2456647398844" y="523.0138782269717" width="1" height="12.186121773028276" fill="#3fb950" opacity="0.45"/>
<rect x="548.864161849711" y="522.2314052412479" width="1" height="12.968594758752033" fill="#3fb950" opacity="0.45"/>
<rect x="550.4826589595375" y="525.0766301917035" width="1" height="10.123369808296388" fill="#f85149" opacity="0.45"/>
<rect x="552.1011560693642" y="522.1012310848954" width="1" height="13.098768915104529" fill="#3fb950" opacity="0.45"/>
<rect x="553.7196531791908" y="525.970073077826" width="1" height="9.229926922173945" fill="#f85149" opacity="0.45"/>
<rect x="555.3381502890174" y="521.1921268906285" width="1" height="14.007873109371417" fill="#3fb950" opacity="0.45"/>
<rect x="556.9566473988439" y="465.7655404536191" width="1" height="69.43445954638082" fill="#3fb950" opacity="0.45"/>
<rect x="558.5751445086705" y="436.42804842366115" width="1" height="98.77195157633878" fill="#3fb950" opacity="0.45"/>
<rect x="560.1936416184972" y="479.3837347377788" width="1" height="55.81626526222112" fill="#f85149" opacity="0.45"/>
<rect x="561.8121387283237" y="500.344700383649" width="1" height="34.85529961635092" fill="#f85149" opacity="0.45"/>
<rect x="563.4306358381502" y="511.59006661900537" width="1" height="23.609933380994562" fill="#f85149" opacity="0.45"/>
<rect x="565.0491329479769" y="519.456633015098" width="1" height="15.743366984901968" fill="#f85149" opacity="0.45"/>
<rect x="566.6676300578034" y="522.0408432900218" width="1" height="13.159156709978106" fill="#3fb950" opacity="0.45"/>
<rect x="568.28612716763" y="523.0475197502627" width="1" height="12.15248024973721" fill="#f85149" opacity="0.45"/>
<rect x="569.9046242774566" y="523.9053870573499" width="1" height="11.29461294265002" fill="#f85149" opacity="0.45"/>
<rect x="571.5231213872833" y="523.4905004747291" width="1" height="11.709499525270871" fill="#3fb950" opacity="0.45"/>
<rect x="573.1416184971099" y="527.1841362598058" width="1" height="8.015863740194163" fill="#3fb950" opacity="0.45"/>
<rect x="574.7601156069364" y="528.2738256709466" width="1" height="6.92617432905331" fill="#3fb950" opacity="0.45"/>
<rect x="576.378612716763" y="526.356328330387" width="1" height="8.843671669612945" fill="#3fb950" opacity="0.45"/>
<rect x="577.9971098265896" y="523.5809066677388" width="1" height="11.619093332261173" fill="#f85149" opacity="0.45"/>
<rect x="579.6156069364162" y="526.6498424474668" width="1" height="8.550157552533165" fill="#3fb950" opacity="0.45"/>
<rect x="581.2341040462427" y="525.6093641092439" width="1" height="9.590635890756062" fill="#3fb950" opacity="0.45"/>
<rect x="582.8526011560693" y="526.7387065628658" width="1" height="8.461293437134145" fill="#f85149" opacity="0.45"/>
<rect x="584.471098265896" y="525.1258893710287" width="1" height="10.074110628971198" fill="#3fb950" opacity="0.45"/>
<rect x="586.0895953757226" y="523.784794984638" width="1" height="11.415205015361948" fill="#f85149" opacity="0.45"/>
<rect x="587.7080924855491" y="524.7618004819063" width="1" height="10.438199518093597" fill="#3fb950" opacity="0.45"/>
<rect x="589.3265895953757" y="517.8860167236085" width="1" height="17.31398327639147" fill="#3fb950" opacity="0.45"/>
<rect x="590.9450867052024" y="522.5912224595768" width="1" height="12.608777540423148" fill="#3fb950" opacity="0.45"/>
<rect x="592.5635838150289" y="524.7383690981285" width="1" height="10.461630901871445" fill="#3fb950" opacity="0.45"/>
<rect x="594.1820809248555" y="526.063078798547" width="1" height="9.136921201452878" fill="#f85149" opacity="0.45"/>
<rect x="595.8005780346821" y="521.8095815365269" width="1" height="13.390418463472997" fill="#3fb950" opacity="0.45"/>
<rect x="597.4190751445086" y="518.2864072421721" width="1" height="16.913592757827814" fill="#3fb950" opacity="0.45"/>
<rect x="599.0375722543353" y="521.5911356862723" width="1" height="13.608864313727622" fill="#f85149" opacity="0.45"/>
<rect x="600.6560693641618" y="517.9420179268266" width="1" height="17.257982073173366" fill="#f85149" opacity="0.45"/>
<rect x="602.2745664739884" y="519.695729876962" width="1" height="15.50427012303794" fill="#f85149" opacity="0.45"/>
<rect x="603.8930635838151" y="525.8281716484123" width="1" height="9.371828351587624" fill="#3fb950" opacity="0.45"/>
<rect x="605.5115606936416" y="524.8633744882777" width="1" height="10.336625511722218" fill="#f85149" opacity="0.45"/>
<rect x="607.1300578034682" y="521.948977869325" width="1" height="13.251022130674983" fill="#3fb950" opacity="0.45"/>
<rect x="608.7485549132948" y="526.3089738084458" width="1" height="8.891026191554147" fill="#f85149" opacity="0.45"/>
<rect x="610.3670520231213" y="528.1292293918666" width="1" height="7.07077060813333" fill="#3fb950" opacity="0.45"/>
<rect x="611.985549132948" y="521.5733879854274" width="1" height="13.626612014572515" fill="#3fb950" opacity="0.45"/>
<rect x="613.6040462427745" y="525.9594442343976" width="1" height="9.24055576560238" fill="#3fb950" opacity="0.45"/>
<rect x="615.2225433526012" y="527.4580479067828" width="1" height="7.741952093217151" fill="#3fb950" opacity="0.45"/>
<rect x="616.8410404624278" y="529.0439834164094" width="1" height="6.156016583590485" fill="#3fb950" opacity="0.45"/>
<rect x="618.4595375722542" y="528.7344988629754" width="1" height="6.465501137024489" fill="#3fb950" opacity="0.45"/>
<rect x="620.0780346820809" y="528.7292427925515" width="1" height="6.4707572074484005" fill="#f85149" opacity="0.45"/>
<rect x="621.6965317919075" y="516.2575186247204" width="1" height="18.9424813752795" fill="#3fb950" opacity="0.45"/>
<rect x="623.3150289017341" y="524.708886106488" width="1" height="10.491113893511965" fill="#f85149" opacity="0.45"/>
<rect x="624.9335260115607" y="525.9107445147717" width="1" height="9.289255485228182" fill="#3fb950" opacity="0.45"/>
<rect x="626.5520231213873" y="523.5289401667155" width="1" height="11.671059833284403" fill="#f85149" opacity="0.45"/>
<rect x="628.1705202312138" y="528.2303909303387" width="1" height="6.96960906966126" fill="#f85149" opacity="0.45"/>
<rect x="629.7890173410404" y="482.93060500115143" width="1" height="52.2693949988485" fill="#3fb950" opacity="0.45"/>
<rect x="631.407514450867" y="509.2137294750495" width="1" height="25.98627052495044" fill="#f85149" opacity="0.45"/>
<rect x="633.0260115606936" y="522.2260128693367" width="1" height="12.973987130663204" fill="#3fb950" opacity="0.45"/>
<rect x="634.6445086705203" y="516.4857861997925" width="1" height="18.714213800207403" fill="#f85149" opacity="0.45"/>
<rect x="636.2630057803468" y="521.7390949595643" width="1" height="13.460905040435591" fill="#f85149" opacity="0.45"/>
<rect x="637.8815028901734" y="521.272596437959" width="1" height="13.927403562040922" fill="#f85149" opacity="0.45"/>
<rect x="639.5" y="520.3888389751669" width="1" height="14.81116102483304" fill="#3fb950" opacity="0.45"/>
<rect x="641.1184971098265" y="514.8460855440264" width="1" height="20.353914455973495" fill="#3fb950" opacity="0.45"/>
<rect x="642.7369942196532" y="513.6869687877422" width="1" height="21.513031212257715" fill="#3fb950" opacity="0.45"/>
<rect x="644.3554913294798" y="517.7988434593391" width="1" height="17.40115654066085" fill="#f85149" opacity="0.45"/>
<rect x="645.9739884393064" y="517.2271460244887" width="1" height="17.97285397551127" fill="#f85149" opacity="0.45"/>
<rect x="647.592485549133" y="512.583128965989" width="1" height="22.616871034010956" fill="#3fb950" opacity="0.45"/>
<rect x="649.2109826589596" y="518.8647870133361" width="1" height="16.335212986663805" fill="#f85149" opacity="0.45"/>
<rect x="650.8294797687861" y="513.2431907441185" width="1" height="21.956809255881467" fill="#f85149" opacity="0.45"/>
<rect x="652.4479768786127" y="516.3913747029478" width="1" height="18.808625297052117" fill="#3fb950" opacity="0.45"/>
<rect x="654.0664739884393" y="521.4741907919189" width="1" height="13.725809208081046" fill="#3fb950" opacity="0.45"/>
<rect x="655.6849710982659" y="525.3046153643478" width="1" height="9.895384635652135" fill="#f85149" opacity="0.45"/>
<rect x="657.3034682080926" y="524.7511101691797" width="1" height="10.448889830820235" fill="#f85149" opacity="0.45"/>
<rect x="658.921965317919" y="526.6317143496607" width="1" height="8.568285650339249" fill="#f85149" opacity="0.45"/>
<rect x="660.5404624277456" y="521.4096489196917" width="1" height="13.790351080308255" fill="#3fb950" opacity="0.45"/>
<rect x="662.1589595375723" y="524.7594842474822" width="1" height="10.44051575251774" fill="#3fb950" opacity="0.45"/>
<rect x="663.7774566473988" y="436.2" width="1" height="98.99999999999994" fill="#3fb950" opacity="0.45"/>
<rect x="665.3959537572255" y="444.3585161640768" width="1" height="90.84148383592316" fill="#f85149" opacity="0.45"/>
<rect x="667.014450867052" y="476.4706717353386" width="1" height="58.72932826466132" fill="#3fb950" opacity="0.45"/>
<rect x="668.6329479768785" y="471.5371440818752" width="1" height="63.662855918124706" fill="#3fb950" opacity="0.45"/>
<rect x="670.2514450867052" y="483.8582880680776" width="1" height="51.341711931922305" fill="#f85149" opacity="0.45"/>
<rect x="671.8699421965317" y="464.67515082699464" width="1" height="70.5248491730053" fill="#3fb950" opacity="0.45"/>
<rect x="673.4884393063584" y="469.3731539647634" width="1" height="65.82684603523654" fill="#3fb950" opacity="0.45"/>
<rect x="675.106936416185" y="493.98681951570217" width="1" height="41.213180484297766" fill="#f85149" opacity="0.45"/>
<rect x="676.7254335260116" y="501.6509158430506" width="1" height="33.549084156949334" fill="#f85149" opacity="0.45"/>
<rect x="678.3439306358382" y="511.8020234494349" width="1" height="23.397976550565033" fill="#f85149" opacity="0.45"/>
<rect x="679.9624277456647" y="511.0028192334347" width="1" height="24.197180766565225" fill="#f85149" opacity="0.45"/>
<rect x="681.5809248554913" y="515.7392807712373" width="1" height="19.460719228762628" fill="#3fb950" opacity="0.45"/>
<rect x="683.1994219653179" y="518.7371099358646" width="1" height="16.46289006413531" fill="#f85149" opacity="0.45"/>
<rect x="684.8179190751446" y="512.74900609427" width="1" height="22.450993905729888" fill="#f85149" opacity="0.45"/>
<rect x="686.4364161849711" y="521.979932560684" width="1" height="13.220067439315926" fill="#f85149" opacity="0.45"/>
<rect x="688.0549132947978" y="520.7467862796279" width="1" height="14.453213720371991" fill="#f85149" opacity="0.45"/>
<rect x="689.6734104046243" y="525.0724119724736" width="1" height="10.127588027526372" fill="#f85149" opacity="0.45"/>
<rect x="691.2919075144508" y="513.517013305156" width="1" height="21.682986694843976" fill="#f85149" opacity="0.45"/>
<rect x="692.9104046242775" y="521.550163281029" width="1" height="13.64983671897096" fill="#3fb950" opacity="0.45"/>
<rect x="694.528901734104" y="520.5951620107895" width="1" height="14.60483798921041" fill="#3fb950" opacity="0.45"/>
<rect x="696.1473988439307" y="523.5626146518042" width="1" height="11.637385348195721" fill="#f85149" opacity="0.45"/>
<rect x="697.7658959537573" y="523.2942833480706" width="1" height="11.90571665192931" fill="#3fb950" opacity="0.45"/>
<rect x="699.3843930635837" y="523.4865352595668" width="1" height="11.713464740433096" fill="#3fb950" opacity="0.45"/>
<rect x="701.0028901734104" y="521.7998292987421" width="1" height="13.40017070125782" fill="#3fb950" opacity="0.45"/>
<rect x="702.621387283237" y="523.915216799902" width="1" height="11.284783200097877" fill="#f85149" opacity="0.45"/>
<rect x="704.2398843930636" y="525.8134136716933" width="1" height="9.386586328306635" fill="#f85149" opacity="0.45"/>
<rect x="705.8583815028902" y="527.2537863197975" width="1" height="7.946213680202391" fill="#f85149" opacity="0.45"/>
<rect x="707.4768786127167" y="520.18750475215" width="1" height="15.012495247849984" fill="#3fb950" opacity="0.45"/>
<rect x="709.0953757225434" y="524.0127160154059" width="1" height="11.187283984594046" fill="#3fb950" opacity="0.45"/>
<rect x="710.7138728323699" y="522.946376919838" width="1" height="12.253623080161901" fill="#f85149" opacity="0.45"/>
<rect x="712.3323699421965" y="523.9026556824483" width="1" height="11.29734431755162" fill="#f85149" opacity="0.45"/>
<rect x="713.9508670520231" y="523.6834490382714" width="1" height="11.516550961728512" fill="#f85149" opacity="0.45"/>
<rect x="715.5693641618498" y="511.77361127078586" width="1" height="23.426388729214068" fill="#3fb950" opacity="0.45"/>
<rect x="717.1878612716763" y="516.9965631058518" width="1" height="18.203436894148126" fill="#3fb950" opacity="0.45"/>
<rect x="718.806358381503" y="520.9215728927072" width="1" height="14.278427107292714" fill="#f85149" opacity="0.45"/>
<rect x="720.4248554913295" y="518.0164180491065" width="1" height="17.183581950893426" fill="#3fb950" opacity="0.45"/>
<rect x="722.043352601156" y="525.7936080856487" width="1" height="9.406391914351275" fill="#3fb950" opacity="0.45"/>
<rect x="723.6618497109827" y="522.741776806283" width="1" height="12.45822319371689" fill="#3fb950" opacity="0.45"/>
<rect x="725.2803468208092" y="523.349177213062" width="1" height="11.850822786937897" fill="#3fb950" opacity="0.45"/>
<rect x="726.8988439306358" y="523.9492476287483" width="1" height="11.250752371251679" fill="#3fb950" opacity="0.45"/>
<rect x="728.5173410404625" y="518.8530713214471" width="1" height="16.346928678552786" fill="#3fb950" opacity="0.45"/>
<rect x="730.1358381502889" y="522.5294814492838" width="1" height="12.67051855071611" fill="#3fb950" opacity="0.45"/>
<rect x="731.7543352601156" y="523.6076556118994" width="1" height="11.592344388100514" fill="#f85149" opacity="0.45"/>
<rect x="733.3728323699422" y="524.9590367517113" width="1" height="10.240963248288608" fill="#f85149" opacity="0.45"/>
<rect x="734.9913294797688" y="526.5183079488198" width="1" height="8.681692051180107" fill="#f85149" opacity="0.45"/>
<rect x="736.6098265895954" y="523.1959333618456" width="1" height="12.004066638154313" fill="#3fb950" opacity="0.45"/>
<rect x="738.228323699422" y="514.4923680399675" width="1" height="20.707631960032472" fill="#3fb950" opacity="0.45"/>
<rect x="739.8468208092486" y="515.9430212054771" width="1" height="19.256978794522865" fill="#3fb950" opacity="0.45"/>
<rect x="741.4653179190751" y="523.1906095861078" width="1" height="12.009390413892106" fill="#f85149" opacity="0.45"/>
<rect x="743.0838150289018" y="523.6987130231262" width="1" height="11.501286976873757" fill="#3fb950" opacity="0.45"/>
<rect x="744.7023121387283" y="522.8356359703035" width="1" height="12.36436402969639" fill="#3fb950" opacity="0.45"/>
<rect x="746.320809248555" y="520.1217593288816" width="1" height="15.078240671118351" fill="#f85149" opacity="0.45"/>
<rect x="747.9393063583815" y="509.1289312419242" width="1" height="26.07106875807574" fill="#3fb950" opacity="0.45"/>
<rect x="749.5578034682081" y="512.6415835959779" width="1" height="22.55841640402207" fill="#f85149" opacity="0.45"/>
<rect x="751.1763005780347" y="514.2127780552139" width="1" height="20.98722194478603" fill="#3fb950" opacity="0.45"/>
<rect x="752.7947976878612" y="455.6106939103587" width="1" height="79.58930608964124" fill="#3fb950" opacity="0.45"/>
<rect x="754.4132947976879" y="454.33309018211037" width="1" height="80.86690981788956" fill="#3fb950" opacity="0.45"/>
<rect x="756.0317919075145" y="475.27524176844116" width="1" height="59.92475823155877" fill="#f85149" opacity="0.45"/>
<rect x="757.650289017341" y="498.0006114588922" width="1" height="37.19938854110774" fill="#f85149" opacity="0.45"/>
<rect x="759.2687861271677" y="511.3209976836936" width="1" height="23.879002316306355" fill="#3fb950" opacity="0.45"/>
<rect x="760.8872832369942" y="499.61863037873" width="1" height="35.581369621269914" fill="#3fb950" opacity="0.45"/>
<rect x="762.5057803468208" y="506.04484461648445" width="1" height="29.155155383515478" fill="#f85149" opacity="0.45"/>
<rect x="764.1242774566474" y="510.6751219505523" width="1" height="24.524878049447636" fill="#3fb950" opacity="0.45"/>
<rect x="765.7427745664739" y="518.7332142077352" width="1" height="16.466785792264773" fill="#3fb950" opacity="0.45"/>
<rect x="767.3612716763006" y="514.9455099066804" width="1" height="20.254490093319532" fill="#f85149" opacity="0.45"/>
<rect x="768.9797687861272" y="514.1171371724058" width="1" height="21.082862827594113" fill="#f85149" opacity="0.45"/>
<rect x="770.5982658959538" y="502.4506715010156" width="1" height="32.74932849898431" fill="#3fb950" opacity="0.45"/>
<rect x="772.2167630057803" y="501.2681153432191" width="1" height="33.931884656780824" fill="#3fb950" opacity="0.45"/>
<rect x="773.835260115607" y="490.44482759837047" width="1" height="44.755172401629466" fill="#3fb950" opacity="0.45"/>
<rect x="775.4537572254335" y="481.64298890417524" width="1" height="53.55701109582469" fill="#f85149" opacity="0.45"/>
<rect x="777.0722543352601" y="505.7450526132559" width="1" height="29.45494738674404" fill="#3fb950" opacity="0.45"/>
<rect x="778.6907514450867" y="515.2777354278619" width="1" height="19.922264572138033" fill="#3fb950" opacity="0.45"/>
<rect x="780.3092485549133" y="519.4504620320765" width="1" height="15.749537967923402" fill="#f85149" opacity="0.45"/>
<rect x="781.9277456647399" y="512.6843011947738" width="1" height="22.51569880522618" fill="#3fb950" opacity="0.45"/>
<rect x="783.5462427745664" y="511.8617395363255" width="1" height="23.33826046367443" fill="#3fb950" opacity="0.45"/>
<rect x="785.164739884393" y="520.8642906336806" width="1" height="14.335709366319293" fill="#f85149" opacity="0.45"/>
<rect x="786.7832369942197" y="509.3483196214175" width="1" height="25.851680378582444" fill="#3fb950" opacity="0.45"/>
<rect x="788.4017341040462" y="508.0356383045351" width="1" height="27.164361695464834" fill="#3fb950" opacity="0.45"/>
<rect x="790.0202312138729" y="496.0371778445464" width="1" height="39.16282215545351" fill="#3fb950" opacity="0.45"/>
<rect x="791.6387283236994" y="504.30525189688257" width="1" height="30.894748103117365" fill="#f85149" opacity="0.45"/>
<rect x="793.257225433526" y="491.66836239742605" width="1" height="43.53163760257388" fill="#3fb950" opacity="0.45"/>
<rect x="794.8757225433526" y="502.4255492661082" width="1" height="32.77445073389174" fill="#f85149" opacity="0.45"/>
<rect x="796.4942196531792" y="507.0634131587743" width="1" height="28.136586841225608" fill="#3fb950" opacity="0.45"/>
<rect x="798.1127167630058" y="483.9889049815489" width="1" height="51.21109501845103" fill="#3fb950" opacity="0.45"/>
<rect x="799.7312138728324" y="461.8980677115769" width="1" height="73.30193228842302" fill="#3fb950" opacity="0.45"/>
<rect x="801.349710982659" y="462.2962373176716" width="1" height="72.9037626823283" fill="#f85149" opacity="0.45"/>
<rect x="802.9682080924855" y="476.80113959093603" width="1" height="58.3988604090639" fill="#3fb950" opacity="0.45"/>
<rect x="804.5867052023121" y="445.61703590238943" width="1" height="89.5829640976105" fill="#3fb950" opacity="0.45"/>
<rect x="806.2052023121387" y="473.86056328697526" width="1" height="61.33943671302467" fill="#f85149" opacity="0.45"/>
<rect x="807.8236994219653" y="501.0965117707542" width="1" height="34.10348822924573" fill="#f85149" opacity="0.45"/>
<rect x="809.442196531792" y="504.82968389573136" width="1" height="30.370316104268568" fill="#f85149" opacity="0.45"/>
<rect x="811.0606936416185" y="494.8702161804398" width="1" height="40.329783819560134" fill="#f85149" opacity="0.45"/>
<rect x="812.679190751445" y="508.8112196019878" width="1" height="26.38878039801216" fill="#f85149" opacity="0.45"/>
<rect x="814.2976878612717" y="508.4534246344831" width="1" height="26.746575365516833" fill="#f85149" opacity="0.45"/>
<rect x="815.9161849710982" y="513.4182544144692" width="1" height="21.781745585530757" fill="#f85149" opacity="0.45"/>
<rect x="817.5346820809249" y="514.3860341718546" width="1" height="20.813965828145342" fill="#f85149" opacity="0.45"/>
<rect x="819.1531791907514" y="513.5519884449598" width="1" height="21.64801155504017" fill="#3fb950" opacity="0.45"/>
<rect x="820.7716763005781" y="511.1861803681801" width="1" height="24.013819631819842" fill="#3fb950" opacity="0.45"/>
<rect x="822.3901734104046" y="517.7907794001057" width="1" height="17.409220599894184" fill="#f85149" opacity="0.45"/>
<rect x="824.0086705202311" y="471.61916372455096" width="1" height="63.58083627544897" fill="#3fb950" opacity="0.45"/>
<rect x="825.6271676300578" y="494.42614949837235" width="1" height="40.77385050162758" fill="#f85149" opacity="0.45"/>
<rect x="827.2456647398844" y="500.4531224261812" width="1" height="34.74687757381872" fill="#f85149" opacity="0.45"/>
<rect x="828.864161849711" y="511.3288906979233" width="1" height="23.871109302076604" fill="#3fb950" opacity="0.45"/>
<rect x="830.4826589595376" y="518.5466593420626" width="1" height="16.653340657937292" fill="#f85149" opacity="0.45"/>
<rect x="832.1011560693642" y="521.3726711279705" width="1" height="13.827328872029398" fill="#f85149" opacity="0.45"/>
<rect x="833.7196531791907" y="524.4681402638859" width="1" height="10.731859736114075" fill="#f85149" opacity="0.45"/>
<rect x="835.3381502890173" y="511.8096242617835" width="1" height="23.39037573821645" fill="#3fb950" opacity="0.45"/>
<rect x="836.9566473988439" y="524.4247883732014" width="1" height="10.775211626798523" fill="#f85149" opacity="0.45"/>
<rect x="838.5751445086705" y="523.2925595351435" width="1" height="11.90744046485645" fill="#3fb950" opacity="0.45"/>
<rect x="840.1936416184972" y="520.8488698575726" width="1" height="14.351130142427337" fill="#f85149" opacity="0.45"/>
<rect x="841.8121387283237" y="512.9569121870356" width="1" height="22.24308781296429" fill="#3fb950" opacity="0.45"/>
<rect x="843.4306358381502" y="508.25722443415304" width="1" height="26.942775565846887" fill="#3fb950" opacity="0.45"/>
<rect x="845.0491329479769" y="517.058361131146" width="1" height="18.14163886885399" fill="#f85149" opacity="0.45"/>
<rect x="846.6676300578034" y="520.3335878755584" width="1" height="14.866412124441581" fill="#f85149" opacity="0.45"/>
<rect x="848.2861271676301" y="509.905397162755" width="1" height="25.294602837244952" fill="#3fb950" opacity="0.45"/>
<rect x="849.9046242774567" y="519.1086864981926" width="1" height="16.09131350180735" fill="#f85149" opacity="0.45"/>
<rect x="851.5231213872833" y="515.4382567094669" width="1" height="19.76174329053299" fill="#3fb950" opacity="0.45"/>
<rect x="853.1416184971098" y="518.2930521623911" width="1" height="16.906947837608868" fill="#f85149" opacity="0.45"/>
<rect x="854.7601156069364" y="520.9866947143998" width="1" height="14.213305285600086" fill="#f85149" opacity="0.45"/>
<rect x="856.378612716763" y="520.8706103902209" width="1" height="14.329389609779014" fill="#f85149" opacity="0.45"/>
<rect x="857.9971098265896" y="513.7270378615602" width="1" height="21.472962138439698" fill="#3fb950" opacity="0.45"/>
<rect x="859.6156069364162" y="520.9340885763318" width="1" height="14.265911423668172" fill="#f85149" opacity="0.45"/>
<rect x="861.2341040462428" y="511.08759252249695" width="1" height="24.112407477502984" fill="#3fb950" opacity="0.45"/>
<rect x="862.8526011560695" y="509.96863481682954" width="1" height="25.231365183170396" fill="#3fb950" opacity="0.45"/>
<rect x="864.4710982658959" y="510.2251239266404" width="1" height="24.974876073359553" fill="#f85149" opacity="0.45"/>
<rect x="866.0895953757225" y="499.29501679530915" width="1" height="35.90498320469078" fill="#3fb950" opacity="0.45"/>
<rect x="867.7080924855492" y="501.7759907202326" width="1" height="33.42400927976735" fill="#f85149" opacity="0.45"/>
<rect x="869.3265895953757" y="510.4949554375934" width="1" height="24.705044562406556" fill="#f85149" opacity="0.45"/>
<rect x="870.9450867052024" y="496.81805975539265" width="1" height="38.38194024460728" fill="#3fb950" opacity="0.45"/>
<rect x="872.5635838150289" y="504.11042718345675" width="1" height="31.089572816543182" fill="#f85149" opacity="0.45"/>
<rect x="874.1820809248554" y="509.42069838373266" width="1" height="25.779301616267276" fill="#f85149" opacity="0.45"/>
<rect x="875.8005780346821" y="482.3264660306134" width="1" height="52.87353396938653" fill="#3fb950" opacity="0.45"/>
<rect x="877.4190751445086" y="498.7830978075068" width="1" height="36.416902192493126" fill="#3fb950" opacity="0.45"/>
<rect x="879.0375722543353" y="514.6912657625421" width="1" height="20.508734237457816" fill="#f85149" opacity="0.45"/>
<rect x="880.6560693641619" y="508.1195412239695" width="1" height="27.08045877603041" fill="#f85149" opacity="0.45"/>
<rect x="882.2745664739884" y="519.4876162139577" width="1" height="15.71238378604221" fill="#3fb950" opacity="0.45"/>
<rect x="883.893063583815" y="473.8792918240128" width="1" height="61.320708175987136" fill="#3fb950" opacity="0.45"/>
<rect x="885.5115606936416" y="502.4986995126585" width="1" height="32.70130048734143" fill="#f85149" opacity="0.45"/>
<rect x="887.1300578034682" y="490.3234399882198" width="1" height="44.87656001178016" fill="#3fb950" opacity="0.45"/>
<rect x="888.7485549132948" y="499.6705505550648" width="1" height="35.52944944493515" fill="#3fb950" opacity="0.45"/>
<rect x="890.3670520231213" y="502.04952553368594" width="1" height="33.150474466313995" fill="#f85149" opacity="0.45"/>
<rect x="891.985549132948" y="509.98776334973496" width="1" height="25.21223665026497" fill="#3fb950" opacity="0.45"/>
<rect x="893.6040462427746" y="506.4641186816202" width="1" height="28.73588131837971" fill="#f85149" opacity="0.45"/>
<rect x="895.2225433526012" y="515.5459384478429" width="1" height="19.65406155215703" fill="#f85149" opacity="0.45"/>
<rect x="896.8410404624277" y="517.6684448064193" width="1" height="17.53155519358063" fill="#f85149" opacity="0.45"/>
<rect x="898.4595375722544" y="511.2180152286204" width="1" height="23.98198477137953" fill="#3fb950" opacity="0.45"/>
<rect x="900.0780346820809" y="517.8641790872863" width="1" height="17.335820912713643" fill="#f85149" opacity="0.45"/>
<rect x="901.6965317919075" y="518.0269034641724" width="1" height="17.17309653582754" fill="#3fb950" opacity="0.45"/>
<rect x="903.3150289017342" y="511.35267575288054" width="1" height="23.84732424711939" fill="#f85149" opacity="0.45"/>
<rect x="904.9335260115606" y="518.8992935610986" width="1" height="16.30070643890133" fill="#f85149" opacity="0.45"/>
<rect x="906.5520231213873" y="522.6147331298406" width="1" height="12.58526687015933" fill="#f85149" opacity="0.45"/>
<rect x="908.1705202312139" y="519.0999222234756" width="1" height="16.10007777652436" fill="#3fb950" opacity="0.45"/>
<rect x="909.7890173410404" y="521.6503368564332" width="1" height="13.549663143566704" fill="#3fb950" opacity="0.45"/>
<rect x="911.4075144508671" y="522.6914539408416" width="1" height="12.508546059158334" fill="#3fb950" opacity="0.45"/>
<rect x="913.0260115606936" y="521.065411050443" width="1" height="14.134588949556928" fill="#f85149" opacity="0.45"/>
<rect x="914.6445086705202" y="515.5112875808585" width="1" height="19.68871241914144" fill="#3fb950" opacity="0.45"/>
<rect x="916.2630057803468" y="518.8249807430393" width="1" height="16.375019256960627" fill="#f85149" opacity="0.45"/>
<rect x="917.8815028901734" y="465.3796923238011" width="1" height="69.82030767619881" fill="#3fb950" opacity="0.45"/>
<rect x="919.5" y="449.98689098242244" width="1" height="85.2131090175775" fill="#3fb950" opacity="0.45"/>
<polyline points="80.0,356.24364039955606 81.61849710982659,345.2158934517203 83.23699421965318,351.92843507214207 84.85549132947978,344.73642619311875 86.47398843930635,341.38015538290784 88.09248554913295,317.40679245283013 89.71098265895954,326.99613762486126 91.32947976878613,336.58548279689234 92.94797687861272,341.8596226415094 94.5664739884393,346.1748279689234 96.18497109826589,339.94175360710324 97.80346820809248,347.613229744728 99.42196531791907,348.09269700332965 101.04046242774567,353.8463041065483 102.65895953757226,351.92843507214207 104.27745664739885,338.5033518312985 105.89595375722544,330.8318756936737 107.51445086705202,335.1470810210877 109.13294797687861,341.8596226415094 110.7514450867052,345.69536071032184 112.36994219653178,351.4489678135405 113.98843930635837,325.5577358490566 115.60693641618496,334.6676137624861 117.22543352601156,339.94175360710324 118.84393063583815,352.40790233074364 120.46242774566474,349.05163152053274 122.08092485549133,347.1337624861265 123.69942196531792,335.1470810210877 125.31791907514452,328.91400665926744 126.93641618497111,309.7353163152053 128.5549132947977,299.18703662597113 130.1734104046243,302.543307436182 131.79190751445088,303.0227746947836 133.41040462427745,311.65318534961153 135.02890173410404,320.2835960044395 136.64739884393063,323.63986681465036 138.26589595375722,322.68093229744727 139.88439306358381,331.3113429522752 141.5028901734104,295.35129855715877 143.121387283237,284.8030188679245 144.73988439306356,292.4744950055494 146.35838150289015,304.46117647058827 147.97687861271675,284.8030188679245 149.59537572254334,286.7208879023307 151.21387283236993,279.0494117647059 152.83236994219652,261.78859045504987 154.4508670520231,261.78859045504987 156.0693641618497,262.74752497225296 157.6878612716763,286.7208879023307 159.3063583815029,314.0505216426193 160.92485549132948,321.2425305216426 162.54335260115607,342.339089900111 164.16184971098266,337.06495005549385 165.78034682080926,339.94175360710324 167.39884393063585,332.7497447280799 169.01734104046244,350.4900332963374 170.63583815028903,356.24364039955606 172.25433526011562,354.3257713651499 173.87283236994222,342.339089900111 175.49132947976878,332.27027746947834 177.10982658959537,347.613229744728 178.72832369942196,332.27027746947834 180.34682080924856,336.1060155382908 181.96531791907515,343.77749167591566 183.58381502890174,355.7641731409545 185.20231213872833,346.1748279689234 186.8208092485549,335.1470810210877 188.43930635838151,342.8185571587125 190.05780346820808,342.8185571587125 191.67630057803467,348.09269700332965 193.29479768786126,337.06495005549385 194.91329479768785,346.1748279689234 196.53179190751445,347.1337624861265 198.15028901734104,353.3668368479467 199.76878612716763,355.7641731409545 201.38728323699422,370.6276581576027 203.0057803468208,368.2303218645949 204.6242774566474,367.2713873473918 206.242774566474,371.58659267480573 207.8612716763006,366.3124528301887 209.47976878612715,374.4633962264151 211.09826589595377,371.58659267480573 212.71676300578034,359.5999112097669 214.33526011560696,349.53109877913425 215.95375722543352,352.88736958934516 217.5722543352601,344.73642619311875 219.1907514450867,347.1337624861265 220.8092485549133,348.09269700332965 222.4277456647399,352.88736958934516 224.04624277456648,359.5999112097669 225.66473988439307,358.6409766925638 227.28323699421964,357.20257491675915 228.90173410404626,347.613229744728 230.52023121387282,357.68204217536066 232.13872832369944,345.2158934517203 233.757225433526,343.77749167591566 235.3757225433526,349.05163152053274 236.9942196531792,351.92843507214207 238.61271676300578,345.69536071032184 240.23121387283237,340.42122086570475 241.84971098265896,337.06495005549385 243.46820809248555,315.0094561598224 245.08670520231215,288.15928967813534 246.70520231213874,281.44674805771365 248.3236994219653,277.6110099889012 249.94219653179192,294.87183129855714 251.56069364161849,308.7763817980022 253.17919075144508,307.8174472807991 254.79768786127167,329.393473917869 256.41618497109823,336.1060155382908 258.0346820809249,343.2980244173141 259.6531791907514,335.1470810210877 261.27167630057806,334.6676137624861 262.8901734104046,320.7630632630411 264.50867052023125,329.393473917869 266.1271676300578,324.11933407325193 267.74566473988443,320.2835960044395 269.36416184971097,328.91400665926744 270.98265895953756,332.7497447280799 272.60115606936415,334.1881465038846 274.21965317919074,330.8318756936737 275.83815028901734,342.8185571587125 277.4566473988439,340.42122086570475 279.0751445086705,335.1470810210877 280.6936416184971,334.6676137624861 282.3121387283237,308.29691453940063 283.9306358381503,316.9273251942286 285.5491329479769,307.3379800221976 287.1676300578035,313.5710543840177 288.78612716763007,313.0915871254162 290.40462427745666,325.5577358490566 292.02312138728325,333.708679245283 293.6416184971098,338.5033518312985 295.26011560693644,329.8729411764706 296.87861271676303,327.4756048834628 298.4971098265896,302.06384017758046 300.11560693641616,318.3657269700333 301.7341040462428,312.1326526082131 303.35260115606934,306.8585127635961 304.971098265896,309.2558490566038 306.5895953757225,313.5710543840177 308.2080924855491,313.0915871254162 309.8265895953757,306.8585127635961 311.44508670520236,310.69425083240844 313.0635838150289,319.32466148723637 314.6820809248555,316.9273251942286 316.3005780346821,314.0505216426193 317.9190751445087,309.2558490566038 319.53757225433526,308.7763817980022 321.15606936416185,307.3379800221976 322.77456647398844,309.7353163152053 324.393063583815,317.40679245283013 326.0115606936416,320.7630632630411 327.6300578034682,330.3524084350721 329.2485549132948,329.393473917869 330.86705202312135,326.5166703662597 332.485549132948,325.078268590455 334.10404624277453,334.1881465038846 335.7225433526012,330.3524084350721 337.34104046242777,336.58548279689234 338.9595375722543,337.06495005549385 340.5780346820809,330.3524084350721 342.19653179190755,331.79081021087677 343.8150289017341,336.58548279689234 345.4335260115607,343.77749167591566 347.05202312138726,349.05163152053274 348.6705202312139,342.339089900111 350.28901734104045,335.6265482796892 351.90751445086704,339.4622863485016 353.52601156069363,337.06495005549385 355.1445086705202,341.38015538290784 356.7630057803468,348.09269700332965 358.3815028901734,339.94175360710324 360.0,343.2980244173141 361.6184971098266,338.9828190899001 363.2369942196532,334.6676137624861 364.8554913294798,322.68093229744727 366.47398843930637,323.1603995560488 368.09248554913296,320.2835960044395 369.7109826589595,326.99613762486126 371.32947976878614,325.5577358490566 372.94797687861274,330.3524084350721 374.56647398843927,331.3113429522752 376.18497109826586,326.5166703662597 377.8034682080925,325.5577358490566 379.4219653179191,324.59880133185345 381.04046242774564,327.4756048834628 382.6589595375723,321.2425305216426 384.2774566473989,326.5166703662597 385.8959537572254,329.393473917869 387.514450867052,329.393473917869 389.13294797687865,331.3113429522752 390.7514450867052,327.9550721420644 392.3699421965318,330.3524084350721 393.9884393063584,329.8729411764706 395.60693641618496,329.393473917869 397.22543352601156,329.393473917869 398.84393063583815,325.5577358490566 400.46242774566474,333.708679245283 402.08092485549133,338.023884572697 403.6994219653179,335.1470810210877 405.31791907514446,324.59880133185345 406.9364161849711,318.3657269700333 408.5549132947977,320.2835960044395 410.1734104046243,320.2835960044395 411.7919075144509,317.88625971143176 413.4104046242775,318.84519422863485 415.02890173410407,315.0094561598224 416.6473988439306,316.9273251942286 418.26589595375725,316.44785793562704 419.88439306358384,317.88625971143176 421.5028901734104,316.9273251942286 423.12138728323697,315.0094561598224 424.7398843930636,313.0915871254162 426.35838150289015,315.48892341842395 427.97687861271675,317.40679245283013 429.59537572254334,317.40679245283013 431.21387283236993,317.88625971143176 432.8323699421965,319.32466148723637 434.4508670520231,323.63986681465036 436.0693641618497,327.4756048834628 437.6878612716763,323.63986681465036 439.3063583815029,323.63986681465036 440.9248554913295,320.2835960044395 442.5433526011561,357.68204217536066 444.16184971098266,365.35351831298556 445.78034682080926,362.95618201997775 447.39884393063585,356.7231076581576 449.01734104046244,358.16150943396224 450.63583815028903,355.2847058823529 452.25433526011557,352.88736958934516 453.8728323699422,361.03831298557157 455.4913294797688,360.0793784683685 457.10982658959534,360.0793784683685 458.72832369942194,356.7231076581576 460.3468208092486,355.2847058823529 461.9653179190751,350.4900332963374 463.5838150289017,346.1748279689234 465.20231213872836,345.69536071032184 466.8208092485549,351.92843507214207 468.4393063583815,358.6409766925638 470.0578034682081,361.5177802441731 471.6763005780347,354.80523862375134 473.29479768786126,353.3668368479467 474.91329479768785,346.6542952275249 476.53179190751445,349.53109877913425 478.15028901734104,348.09269700332965 479.76878612716763,349.05163152053274 481.3872832369942,349.05163152053274 483.0057803468208,352.40790233074364 484.6242774566474,352.88736958934516 486.242774566474,351.92843507214207 487.8612716763006,350.9695005549389 489.4797687861272,350.9695005549389 491.0982658959538,354.3257713651499 492.7167630057803,359.5999112097669 494.33526011560696,360.0793784683685 495.95375722543355,359.5999112097669 497.5722543352601,362.95618201997775 499.1907514450867,359.5999112097669 500.8092485549133,359.5999112097669 502.4277456647399,361.5177802441731 504.0462427745665,361.5177802441731 505.66473988439304,360.55884572697005 507.28323699421964,356.24364039955606 508.9017341040462,356.24364039955606 510.5202312138728,358.6409766925638 512.1387283236994,357.68204217536066 513.7572254335261,355.7641731409545 515.3757225433526,358.16150943396224 516.9942196531792,357.68204217536066 518.6127167630058,355.2847058823529 520.2312138728323,354.3257713651499 521.849710982659,363.9151165371809 523.4682080924856,367.75085460599337 525.0867052023123,365.35351831298556 526.7052023121387,358.6409766925638 528.3236994219653,359.1204439511654 529.942196531792,361.5177802441731 531.5606936416185,359.5999112097669 533.179190751445,359.1204439511654 534.7976878612717,357.68204217536066 536.4161849710982,357.20257491675915 538.0346820809248,356.7231076581576 539.6531791907514,356.7231076581576 541.2716763005781,351.4489678135405 542.8901734104047,352.40790233074364 544.5086705202312,350.9695005549389 546.1271676300578,350.9695005549389 547.7456647398844,350.4900332963374 549.364161849711,346.6542952275249 550.9826589595375,349.53109877913425 552.6011560693642,345.69536071032184 554.2196531791908,348.57216426193116 555.8381502890174,346.1748279689234 557.4566473988439,324.11933407325193 559.0751445086705,311.65318534961153 560.6936416184972,323.1603995560488 562.3121387283237,327.4756048834628 563.9306358381502,336.58548279689234 565.5491329479769,337.5444173140954 567.1676300578034,337.5444173140954 568.78612716763,339.94175360710324 570.4046242774566,340.9006881243063 572.0231213872833,338.023884572697 573.6416184971099,337.5444173140954 575.2601156069364,336.58548279689234 576.878612716763,334.6676137624861 578.4971098265896,337.5444173140954 580.1156069364162,336.1060155382908 581.7341040462427,334.6676137624861 583.3526011560693,335.6265482796892 584.971098265896,334.6676137624861 586.5895953757226,340.42122086570475 588.2080924855491,335.6265482796892 589.8265895953757,330.8318756936737 591.4450867052024,329.393473917869 593.0635838150289,327.9550721420644 594.6820809248555,329.393473917869 596.3005780346821,329.393473917869 597.9190751445086,326.0372031076582 599.5375722543353,327.9550721420644 601.1560693641618,334.6676137624861 602.7745664739884,336.58548279689234 604.3930635838151,336.58548279689234 606.0115606936416,339.4622863485016 607.6300578034682,339.4622863485016 609.2485549132948,347.1337624861265 610.8670520231213,346.1748279689234 612.485549132948,339.94175360710324 614.1040462427745,338.023884572697 615.7225433526012,337.5444173140954 617.3410404624278,337.5444173140954 618.9595375722542,336.1060155382908 620.5780346820809,337.06495005549385 622.1965317919075,330.8318756936737 623.8150289017341,334.6676137624861 625.4335260115607,331.3113429522752 627.0520231213873,334.6676137624861 628.6705202312138,335.1470810210877 630.2890173410404,317.40679245283013 631.907514450867,326.5166703662597 633.5260115606936,326.0372031076582 635.1445086705203,326.5166703662597 636.7630057803468,327.4756048834628 638.3815028901734,327.9550721420644 640.0,323.1603995560488 641.6184971098265,318.84519422863485 643.2369942196532,314.5299889012209 644.8554913294798,315.9683906770255 646.4739884393064,317.88625971143176 648.092485549133,311.17371809100996 649.7109826589596,315.0094561598224 651.3294797687861,329.393473917869 652.9479768786127,323.63986681465036 654.5664739884393,323.1603995560488 656.1849710982659,327.9550721420644 657.8034682080926,329.8729411764706 659.421965317919,332.27027746947834 661.0404624277456,328.4345394006659 662.6589595375723,326.0372031076582 664.2774566473988,289.59769145394006 665.8959537572255,300.6254384017758 667.514450867052,296.7897003329634 669.1329479768785,281.92621531631517 670.7514450867052,286.24142064372916 672.3699421965317,263.70645948945617 673.9884393063584,262.74752497225296 675.606936416185,265.62432852386235 677.2254335260116,267.5421975582686 678.8439306358382,268.02166481687016 680.4624277456647,275.693140954495 682.0809248554913,275.693140954495 683.6994219653179,280.48781354051056 685.3179190751446,287.2003551609323 686.9364161849711,293.912896781354 688.5549132947978,299.66650388457276 690.1734104046243,303.5022419533851 691.7919075144508,321.7219977802441 693.4104046242775,320.2835960044395 695.028901734104,315.9683906770255 696.6473988439307,318.84519422863485 698.2658959537573,316.44785793562704 699.8843930635837,312.1326526082131 701.5028901734104,312.1326526082131 703.121387283237,313.0915871254162 704.7398843930636,313.5710543840177 706.3583815028902,315.48892341842395 707.9768786127167,306.3790455049944 709.5953757225434,305.4201109877913 711.2138728323699,308.7763817980022 712.8323699421965,310.69425083240844 714.4508670520231,313.0915871254162 716.0693641618498,303.9817092119867 717.6878612716763,303.5022419533851 719.306358381503,309.7353163152053 720.9248554913295,309.7353163152053 722.543352601156,309.2558490566038 724.1618497109827,303.5022419533851 725.7803468208092,302.06384017758046 727.3988439306358,302.06384017758046 729.0173410404625,293.912896781354 730.6358381502889,291.9950277469478 732.2543352601156,295.8307658157603 733.8728323699422,297.74863485016647 735.4913294797688,298.228102108768 737.1098265895954,297.74863485016647 738.728323699422,288.63875693673697 740.3468208092486,280.008346281909 741.9653179190751,281.44674805771365 743.5838150289018,277.6110099889012 745.2023121387283,275.2136736958935 746.820809248555,275.693140954495 748.4393063583815,271.8574028856826 750.0578034682081,274.73420643729185 751.6763005780347,263.22699223085465 753.2947976878612,236.85629300776912 754.9132947976879,202.33465038845722 756.5317919075145,209.52665926748054 758.150289017341,217.67760266370695 759.7687861271677,215.7597336293008 761.3872832369942,201.3757158712541 763.0057803468208,207.1293229744728 764.6242774566474,206.17038845726967 766.2427745664739,204.731986681465 767.8612716763006,210.00612652608208 769.4797687861272,211.44452830188678 771.0982658959538,203.29358490566037 772.7167630057803,193.70423973362924 774.335260115607,177.40235294117642 775.9537572254335,218.63653718091004 777.5722543352601,215.7597336293008 779.1907514450867,207.1293229744728 780.8092485549133,212.4034628190899 782.4277456647399,207.60879023307436 784.0462427745664,193.70423973362924 785.664739884393,204.25251942286346 787.2832369942197,182.67649278579353 788.9017341040462,178.84075471698105 790.5202312138729,156.3057935627081 792.1387283236994,160.62099889012208 793.757225433526,149.59325194228632 795.3757225433526,174.52554938956712 796.9942196531792,165.89513873473913 798.6127167630058,151.51112097669258 800.2312138728324,113.1537402885682 801.849710982659,126.09935627081016 803.4682080924855,121.78415094339617 805.0867052023121,74.79635960044388 806.7052023121387,89.18037735849052 808.3236994219653,97.33132075471693 809.942196531792,107.4001331853496 811.5606936416185,135.20923418423973 813.179190751445,140.00390677025524 814.7976878612717,155.34685904550497 816.4161849710982,163.4978024417314 818.0346820809249,182.19702552719195 819.6531791907514,179.79968923418423 821.2716763005781,172.6076803551609 822.8901734104046,183.15596004439513 824.5086705202311,150.5521864594894 826.1271676300578,165.4156714761376 827.7456647398844,202.81411764705877 829.364161849711,188.90956714761373 830.9826589595376,202.81411764705877 832.6011560693642,214.32133185349608 834.2196531791907,217.67760266370695 835.8381502890173,188.90956714761373 837.4566473988439,196.10157602663705 839.0751445086705,191.78637069922308 840.6936416184972,198.9783795782464 842.3121387283237,176.92288568257487 843.9306358381502,166.37460599334068 845.5491329479769,170.68981132075464 847.1676300578034,172.6076803551609 848.7861271676301,157.74419533851272 850.4046242774567,166.85407325194222 852.0231213872833,150.5521864594894 853.6416184971098,154.86739178690337 855.2601156069364,163.97726970033295 856.878612716763,168.29247502774695 858.4971098265896,165.89513873473913 860.1156069364162,168.77194228634846 861.7341040462428,166.85407325194222 863.3526011560695,154.86739178690337 864.9710982658959,156.78526082130963 866.5895953757225,144.31911209766926 868.2080924855492,150.5521864594894 869.8265895953757,151.51112097669258 871.4450867052024,138.086037735849 873.0635838150289,164.93620421753604 874.6820809248554,174.52554938956712 876.3005780346821,138.086037735849 877.9190751445086,121.78415094339617 879.5375722543353,135.20923418423973 881.1560693641619,151.51112097669258 882.7745664739884,139.04497225305215 884.393063583815,105.96173140954488 886.0115606936416,116.5100110987791 887.6300578034682,101.16705882352937 889.2485549132948,96.37238623751384 890.8670520231213,137.60657047724743 892.485549132948,124.18148723640398 894.1040462427746,145.75751387347387 895.7225433526012,152.47005549389567 897.3410404624277,161.57993340732514 898.9595375722544,151.99058823529413 900.5780346820809,158.22366259711427 902.1965317919075,145.75751387347387 903.8150289017342,171.16927857935627 905.4335260115606,177.40235294117642 907.0520231213873,179.79968923418423 908.6705202312139,158.70312985571582 910.2890173410404,154.38792452830182 911.9075144508671,154.38792452830182 913.5260115606936,162.53886792452823 915.1445086705202,151.03165371809104 916.7630057803468,163.97726970033295 918.3815028901734,111.23587125416205 920.0,72.39902330743614" stroke="#58a6ff" stroke-width="1.8" fill="none"/>
<line x1="80" y1="96.37238623751384" x2="920" y2="96.37238623751384" stroke="#f0883e" stroke-width="2" stroke-dasharray="8,4"/>
<text x="925" y="101.37238623751384" font-size="11" fill="#f0883e" font-weight="bold">━ 颈线 12.43</text>
<line x1="80" y1="12.945083240843438" x2="920" y2="12.945083240843438" stroke="#a371f7" stroke-width="1.5" stroke-dasharray="5,5"/>
<text x="925" y="17.945083240843438" font-size="11" fill="#a371f7" font-weight="bold">▼ 目标 14.17 (+9.6%)</text>
<circle cx="874.6820809248554" cy="174.52554938956712" r="7" fill="#238636" stroke="#fff" stroke-width="2"/>
<text x="874.6820809248554" y="194.52554938956712" text-anchor="middle" font-size="10" fill="#3fb950">左底 ¥10.80</text>
<circle cx="907.0520231213873" cy="179.79968923418423" r="7" fill="#8957e5" stroke="#fff" stroke-width="2"/>
<text x="907.0520231213873" y="199.79968923418423" text-anchor="middle" font-size="10" fill="#bc8cff">右底 ¥10.69</text>
<circle cx="920.0" cy="96.37238623751384" r="8" fill="#f0883e" stroke="#fff" stroke-width="2.5"/>
<text x="920.0" y="82.37238623751384" text-anchor="middle" font-size="11" fill="#f0883e" font-weight="bold">★ 突破</text>
<line x1="920.0" y1="72.39902330743614" x2="920" y2="72.39902330743614" stroke="#88ccff" stroke-width="1.5"/>
<text x="925" y="77.39902330743614" font-size="11" fill="#88ccff" font-weight="bold">● 现价 12.93</text>
<text x="80" y="618" font-size="13" fill="#58a6ff" font-weight="bold">评分原因 (总分: 63):</text>
<text x="90" y="636" font-size="11" fill="#c9d1d9">1. 刚刚突破(0天前)</text>
<text x="90" y="652" font-size="11" fill="#c9d1d9">2. 右底显著缩量(49%)</text>
<text x="90" y="668" font-size="11" fill="#c9d1d9">3. 形态跨度适中(20根K线)</text>
<text x="90" y="684" font-size="11" fill="#c9d1d9">4. 振幅理想(16.3%)</text>
<text x="928" y="80" font-size="10" fill="#8b949e">突破日: 2026-06-25</text>
<text x="928" y="96" font-size="10" fill="#8b949e">突破后涨幅: 4.0%</text>
<text x="928" y="112" font-size="10" fill="#8b949e">目标空间: 9.6%</text>
<text x="928" y="128" font-size="10" fill="#8b949e">形态跨度: 20根K线</text>
</svg>