<svg xmlns="http://www.w3.org/2000/svg" viewBox="0 0 1000 720" width="1000" height="720">
<rect width="1000" height="720" fill="#0d1117"/>
<text x="500.0" y="24" text-anchor="middle" font-size="17" fill="#58a6ff" font-weight="bold">上海贝岭 (600171.SH)  W双底突破</text>
<text x="500.0" y="44" text-anchor="middle" font-size="13" fill="#8b949e">评分:60/100 | 突破后涨幅:2.7% | 目标空间:13.3%</text>
<line x1="80" y1="384.0" x2="920" y2="384.0" stroke="#21262d" stroke-width="0.5"/>
<text x="72" y="388.0" text-anchor="end" font-size="10" fill="#8b949e">11.56</text>
<line x1="80" y1="319.2" x2="920" y2="319.2" stroke="#21262d" stroke-width="0.5"/>
<text x="72" y="323.2" text-anchor="end" font-size="10" fill="#8b949e">19.72</text>
<line x1="80" y1="254.4" x2="920" y2="254.4" stroke="#21262d" stroke-width="0.5"/>
<text x="72" y="258.4" text-anchor="end" font-size="10" fill="#8b949e">27.88</text>
<line x1="80" y1="189.59999999999997" x2="920" y2="189.59999999999997" stroke="#21262d" stroke-width="0.5"/>
<text x="72" y="193.59999999999997" text-anchor="end" font-size="10" fill="#8b949e">36.04</text>
<line x1="80" y1="124.79999999999998" x2="920" y2="124.79999999999998" stroke="#21262d" stroke-width="0.5"/>
<text x="72" y="128.79999999999998" text-anchor="end" font-size="10" fill="#8b949e">44.20</text>
<line x1="80" y1="60.0" x2="920" y2="60.0" stroke="#21262d" stroke-width="0.5"/>
<text x="72" y="64.0" text-anchor="end" font-size="10" fill="#8b949e">52.36</text>
<text x="80.0" y="550.1999999999999" text-anchor="middle" font-size="9" fill="#8b949e">2024-05-06</text>
<text x="185.20231213872833" y="550.1999999999999" text-anchor="middle" font-size="9" fill="#8b949e">2024-08-06</text>
<text x="290.40462427745666" y="550.1999999999999" text-anchor="middle" font-size="9" fill="#8b949e">2024-11-14</text>
<text x="395.60693641618496" y="550.1999999999999" text-anchor="middle" font-size="9" fill="#8b949e">2025-02-24</text>
<text x="500.8092485549133" y="550.1999999999999" text-anchor="middle" font-size="9" fill="#8b949e">2025-05-30</text>
<text x="606.0115606936416" y="550.1999999999999" text-anchor="middle" font-size="9" fill="#8b949e">2025-09-01</text>
<text x="711.2138728323699" y="550.1999999999999" text-anchor="middle" font-size="9" fill="#8b949e">2025-12-09</text>
<text x="816.4161849710982" y="550.1999999999999" text-anchor="middle" font-size="9" fill="#8b949e">2026-03-20</text>
<rect x="816.4161849710982" y="60" width="103.58381502890177" height="475.2" fill="#238636" opacity="0.08" rx="3"/>
<text x="868.2080924855491" y="54" text-anchor="middle" font-size="11" fill="#3fb950" font-weight="bold">▼ 双底区域 ▼</text>
<rect x="79.5" y="532.5875694584271" width="1" height="2.6124305415728486" fill="#3fb950" opacity="0.45"/>
<rect x="81.11849710982659" y="533.0409004168405" width="1" height="2.1590995831594455" fill="#f85149" opacity="0.45"/>
<rect x="82.73699421965318" y="533.3421162431813" width="1" height="1.8578837568186373" fill="#f85149" opacity="0.45"/>
<rect x="84.35549132947978" y="532.0470974313662" width="1" height="3.152902568633749" fill="#3fb950" opacity="0.45"/>
<rect x="85.97398843930635" y="532.7130962964209" width="1" height="2.4869037035790598" fill="#f85149" opacity="0.45"/>
<rect x="87.59248554913295" y="532.8045048699646" width="1" height="2.3954951300353287" fill="#f85149" opacity="0.45"/>
<rect x="89.21098265895954" y="533.5152249272046" width="1" height="1.6847750727953326" fill="#f85149" opacity="0.45"/>
<rect x="90.82947976878613" y="533.6526271531357" width="1" height="1.5473728468642776" fill="#f85149" opacity="0.45"/>
<rect x="92.44797687861272" y="533.2436434741371" width="1" height="1.956356525862816" fill="#3fb950" opacity="0.45"/>
<rect x="94.0664739884393" y="533.3320872834566" width="1" height="1.8679127165432874" fill="#3fb950" opacity="0.45"/>
<rect x="95.68497109826589" y="532.8701838899507" width="1" height="2.3298161100492507" fill="#3fb950" opacity="0.45"/>
<rect x="97.30346820809248" y="533.7557001720165" width="1" height="1.4442998279834" fill="#f85149" opacity="0.45"/>
<rect x="98.92196531791907" y="533.0230757671144" width="1" height="2.17692423288554" fill="#3fb950" opacity="0.45"/>
<rect x="100.54046242774567" y="532.7283164854931" width="1" height="2.4716835145068217" fill="#f85149" opacity="0.45"/>
<rect x="102.15895953757226" y="533.1421202029086" width="1" height="2.0578797970913456" fill="#f85149" opacity="0.45"/>
<rect x="103.77745664739885" y="531.9711546929551" width="1" height="3.2288453070448213" fill="#3fb950" opacity="0.45"/>
<rect x="105.39595375722544" y="520.4143540452836" width="1" height="14.785645954716301" fill="#3fb950" opacity="0.45"/>
<rect x="107.01445086705202" y="509.30938087965336" width="1" height="25.89061912034657" fill="#3fb950" opacity="0.45"/>
<rect x="108.63294797687861" y="510.1932021358567" width="1" height="25.00679786414321" fill="#3fb950" opacity="0.45"/>
<rect x="110.2514450867052" y="490.82062941099815" width="1" height="44.37937058900178" fill="#3fb950" opacity="0.45"/>
<rect x="111.86994219653178" y="494.03259999047833" width="1" height="41.1674000095216" fill="#3fb950" opacity="0.45"/>
<rect x="113.48843930635837" y="503.95359589001606" width="1" height="31.24640410998387" fill="#f85149" opacity="0.45"/>
<rect x="115.10693641618496" y="488.05535224285165" width="1" height="47.14464775714828" fill="#3fb950" opacity="0.45"/>
<rect x="116.72543352601156" y="476.4749226216456" width="1" height="58.72507737835434" fill="#3fb950" opacity="0.45"/>
<rect x="118.34393063583815" y="486.45911896561586" width="1" height="48.740881034384074" fill="#f85149" opacity="0.45"/>
<rect x="119.96242774566474" y="493.5186012597562" width="1" height="41.68139874024371" fill="#3fb950" opacity="0.45"/>
<rect x="121.58092485549133" y="480.8091704370881" width="1" height="54.39082956291185" fill="#3fb950" opacity="0.45"/>
<rect x="123.19942196531792" y="481.7947493829903" width="1" height="53.40525061700964" fill="#f85149" opacity="0.45"/>
<rect x="124.81791907514452" y="494.6557394019102" width="1" height="40.54426059808975" fill="#f85149" opacity="0.45"/>
<rect x="126.43641618497111" y="501.5809203263441" width="1" height="33.61907967365585" fill="#3fb950" opacity="0.45"/>
<rect x="128.0549132947977" y="483.18010674499754" width="1" height="52.01989325500239" fill="#3fb950" opacity="0.45"/>
<rect x="129.6734104046243" y="478.48214455327286" width="1" height="56.71785544672707" fill="#f85149" opacity="0.45"/>
<rect x="131.29190751445088" y="493.2585835439457" width="1" height="41.94141645605424" fill="#f85149" opacity="0.45"/>
<rect x="132.91040462427745" y="500.8445758466165" width="1" height="34.35542415338341" fill="#f85149" opacity="0.45"/>
<rect x="134.52890173410404" y="499.9894737449853" width="1" height="35.210526255014656" fill="#f85149" opacity="0.45"/>
<rect x="136.14739884393063" y="489.54325356608894" width="1" height="45.656746433910996" fill="#3fb950" opacity="0.45"/>
<rect x="137.76589595375722" y="489.895931221385" width="1" height="45.30406877861492" fill="#f85149" opacity="0.45"/>
<rect x="139.38439306358381" y="501.807765276876" width="1" height="33.39223472312392" fill="#f85149" opacity="0.45"/>
<rect x="141.0028901734104" y="510.52069494582594" width="1" height="24.679305054173994" fill="#f85149" opacity="0.45"/>
<rect x="142.621387283237" y="515.1329603452552" width="1" height="20.06703965474469" fill="#f85149" opacity="0.45"/>
<rect x="144.23988439306356" y="515.7038969067906" width="1" height="19.496103093209285" fill="#3fb950" opacity="0.45"/>
<rect x="145.85838150289015" y="513.1819590396002" width="1" height="22.01804096039973" fill="#3fb950" opacity="0.45"/>
<rect x="147.47687861271675" y="513.4484088035701" width="1" height="21.751591196429786" fill="#f85149" opacity="0.45"/>
<rect x="149.09537572254334" y="517.6140597250259" width="1" height="17.585940274974064" fill="#3fb950" opacity="0.45"/>
<rect x="150.71387283236993" y="506.7346859278957" width="1" height="28.465314072104206" fill="#3fb950" opacity="0.45"/>
<rect x="152.33236994219652" y="492.097075407316" width="1" height="43.102924592683905" fill="#3fb950" opacity="0.45"/>
<rect x="153.9508670520231" y="504.34782991803297" width="1" height="30.85217008196696" fill="#f85149" opacity="0.45"/>
<rect x="155.5693641618497" y="505.981098591743" width="1" height="29.218901408256954" fill="#3fb950" opacity="0.45"/>
<rect x="157.1878612716763" y="505.9033645423792" width="1" height="29.29663545762071" fill="#3fb950" opacity="0.45"/>
<rect x="158.8063583815029" y="504.5433594188591" width="1" height="30.656640581140834" fill="#3fb950" opacity="0.45"/>
<rect x="160.42485549132948" y="504.75157133318373" width="1" height="30.4484286668162" fill="#3fb950" opacity="0.45"/>
<rect x="162.04335260115607" y="511.6381909295912" width="1" height="23.561809070408742" fill="#f85149" opacity="0.45"/>
<rect x="163.66184971098266" y="503.1575505716412" width="1" height="32.042449428358736" fill="#3fb950" opacity="0.45"/>
<rect x="165.28034682080926" y="504.35724170053675" width="1" height="30.842758299463185" fill="#3fb950" opacity="0.45"/>
<rect x="166.89884393063585" y="468.13360032475947" width="1" height="67.06639967524046" fill="#3fb950" opacity="0.45"/>
<rect x="168.51734104046244" y="479.4873615748038" width="1" height="55.71263842519613" fill="#f85149" opacity="0.45"/>
<rect x="170.13583815028903" y="471.8520927404709" width="1" height="63.34790725952905" fill="#f85149" opacity="0.45"/>
<rect x="171.75433526011562" y="489.1319893253971" width="1" height="46.06801067460282" fill="#f85149" opacity="0.45"/>
<rect x="173.37283236994222" y="492.25435352964615" width="1" height="42.94564647035378" fill="#f85149" opacity="0.45"/>
<rect x="174.99132947976878" y="482.3608441313887" width="1" height="52.839155868611215" fill="#3fb950" opacity="0.45"/>
<rect x="176.60982658959537" y="473.1799284369839" width="1" height="62.02007156301602" fill="#3fb950" opacity="0.45"/>
<rect x="178.22832369942196" y="455.48003696932307" width="1" height="79.71996303067687" fill="#f85149" opacity="0.45"/>
<rect x="179.84682080924856" y="466.6457905233923" width="1" height="68.55420947660764" fill="#3fb950" opacity="0.45"/>
<rect x="181.46531791907515" y="489.6958307305022" width="1" height="45.50416926949771" fill="#f85149" opacity="0.45"/>
<rect x="183.08381502890174" y="494.75129980215" width="1" height="40.44870019784992" fill="#f85149" opacity="0.45"/>
<rect x="184.70231213872833" y="502.1556467098551" width="1" height="33.04435329014484" fill="#f85149" opacity="0.45"/>
<rect x="186.3208092485549" y="507.30110729709463" width="1" height="27.8988927029053" fill="#3fb950" opacity="0.45"/>
<rect x="187.93930635838151" y="489.8645558911991" width="1" height="45.33544410880086" fill="#3fb950" opacity="0.45"/>
<rect x="189.55780346820808" y="485.6223161345613" width="1" height="49.577683865438644" fill="#3fb950" opacity="0.45"/>
<rect x="191.17630057803467" y="502.75365979552015" width="1" height="32.44634020447978" fill="#f85149" opacity="0.45"/>
<rect x="192.79479768786126" y="507.52978302525923" width="1" height="27.670216974740697" fill="#3fb950" opacity="0.45"/>
<rect x="194.41329479768785" y="482.9933007413842" width="1" height="52.20669925861574" fill="#3fb950" opacity="0.45"/>
<rect x="196.03179190751445" y="498.75757100056256" width="1" height="36.44242899943737" fill="#f85149" opacity="0.45"/>
<rect x="197.65028901734104" y="492.9993449548364" width="1" height="42.20065504516356" fill="#f85149" opacity="0.45"/>
<rect x="199.26878612716763" y="502.5915126416529" width="1" height="32.60848735834702" fill="#f85149" opacity="0.45"/>
<rect x="200.88728323699422" y="514.8215563315496" width="1" height="20.37844366845036" fill="#f85149" opacity="0.45"/>
<rect x="202.5057803468208" y="510.81645586456875" width="1" height="24.38354413543118" fill="#f85149" opacity="0.45"/>
<rect x="204.1242774566474" y="512.8730288382282" width="1" height="22.32697116177178" fill="#3fb950" opacity="0.45"/>
<rect x="205.742774566474" y="511.7476333943113" width="1" height="23.45236660568861" fill="#f85149" opacity="0.45"/>
<rect x="207.3612716763006" y="512.5163259217962" width="1" height="22.683674078203694" fill="#f85149" opacity="0.45"/>
<rect x="208.97976878612715" y="515.0682118543205" width="1" height="20.13178814567948" fill="#f85149" opacity="0.45"/>
<rect x="210.59826589595377" y="518.4634850890989" width="1" height="16.736514910901064" fill="#3fb950" opacity="0.45"/>
<rect x="212.21676300578034" y="515.8161401448749" width="1" height="19.383859855125024" fill="#3fb950" opacity="0.45"/>
<rect x="213.83526011560696" y="501.59746605149826" width="1" height="33.60253394850167" fill="#3fb950" opacity="0.45"/>
<rect x="215.45375722543352" y="509.6016826799811" width="1" height="25.59831732001885" fill="#f85149" opacity="0.45"/>
<rect x="217.0722543352601" y="519.6252330878789" width="1" height="15.57476691212105" fill="#f85149" opacity="0.45"/>
<rect x="218.6907514450867" y="522.3982086402467" width="1" height="12.801791359753224" fill="#f85149" opacity="0.45"/>
<rect x="220.3092485549133" y="515.0072919715813" width="1" height="20.19270802841868" fill="#3fb950" opacity="0.45"/>
<rect x="221.9277456647399" y="500.0505480921446" width="1" height="35.14945190785534" fill="#3fb950" opacity="0.45"/>
<rect x="223.54624277456648" y="498.8145326474759" width="1" height="36.38546735252402" fill="#3fb950" opacity="0.45"/>
<rect x="225.16473988439307" y="507.42974213614286" width="1" height="27.77025786385707" fill="#f85149" opacity="0.45"/>
<rect x="226.78323699421964" y="511.60810439064716" width="1" height="23.591895609352775" fill="#3fb950" opacity="0.45"/>
<rect x="228.40173410404626" y="515.2461164204308" width="1" height="19.95388357956915" fill="#f85149" opacity="0.45"/>
<rect x="230.02023121387282" y="514.7868508301187" width="1" height="20.413149169881194" fill="#f85149" opacity="0.45"/>
<rect x="231.63872832369944" y="520.4663735112098" width="1" height="14.73362648879015" fill="#f85149" opacity="0.45"/>
<rect x="233.257225433526" y="512.5721869246579" width="1" height="22.627813075342033" fill="#3fb950" opacity="0.45"/>
<rect x="234.8757225433526" y="503.8122854420693" width="1" height="31.38771455793062" fill="#3fb950" opacity="0.45"/>
<rect x="236.4942196531792" y="516.3138769022632" width="1" height="18.886123097736686" fill="#f85149" opacity="0.45"/>
<rect x="238.11271676300578" y="505.43123213390834" width="1" height="29.768767866091594" fill="#3fb950" opacity="0.45"/>
<rect x="239.73121387283237" y="501.97629582601263" width="1" height="33.2237041739873" fill="#f85149" opacity="0.45"/>
<rect x="241.34971098265896" y="503.78945532857585" width="1" height="31.410544671424077" fill="#3fb950" opacity="0.45"/>
<rect x="242.96820809248555" y="508.3306296694011" width="1" height="26.869370330598827" fill="#3fb950" opacity="0.45"/>
<rect x="244.58670520231215" y="492.07831308370857" width="1" height="43.12168691629137" fill="#3fb950" opacity="0.45"/>
<rect x="246.20520231213874" y="508.77600945270285" width="1" height="26.42399054729708" fill="#3fb950" opacity="0.45"/>
<rect x="247.8236994219653" y="472.3498686243093" width="1" height="62.85013137569064" fill="#3fb950" opacity="0.45"/>
<rect x="249.44219653179192" y="489.33251476355053" width="1" height="45.8674852364494" fill="#f85149" opacity="0.45"/>
<rect x="251.06069364161849" y="506.9120485076153" width="1" height="28.28795149238465" fill="#f85149" opacity="0.45"/>
<rect x="252.67919075144508" y="496.67227649072106" width="1" height="38.52772350927887" fill="#3fb950" opacity="0.45"/>
<rect x="254.29768786127167" y="497.0211422090916" width="1" height="38.17885779090835" fill="#f85149" opacity="0.45"/>
<rect x="255.91618497109823" y="513.221427080578" width="1" height="21.978572919421936" fill="#f85149" opacity="0.45"/>
<rect x="257.5346820809249" y="510.0822323786643" width="1" height="25.117767621335645" fill="#f85149" opacity="0.45"/>
<rect x="259.1531791907514" y="492.6482820311226" width="1" height="42.55171796887731" fill="#3fb950" opacity="0.45"/>
<rect x="260.77167630057806" y="532.4042695249689" width="1" height="2.795730475031064" fill="#3fb950" opacity="0.45"/>
<rect x="262.3901734104046" y="513.7823210731888" width="1" height="21.417678926811163" fill="#3fb950" opacity="0.45"/>
<rect x="264.00867052023125" y="436.2" width="1" height="98.99999999999994" fill="#f85149" opacity="0.45"/>
<rect x="265.6271676300578" y="483.2533456755947" width="1" height="51.946654324405245" fill="#3fb950" opacity="0.45"/>
<rect x="267.24566473988443" y="451.30104835138786" width="1" height="83.89895164861207" fill="#3fb950" opacity="0.45"/>
<rect x="268.86416184971097" y="461.33485567311067" width="1" height="73.86514432688926" fill="#3fb950" opacity="0.45"/>
<rect x="270.48265895953756" y="458.6715018866733" width="1" height="76.52849811332663" fill="#f85149" opacity="0.45"/>
<rect x="272.10115606936415" y="465.9352184662025" width="1" height="69.26478153379742" fill="#3fb950" opacity="0.45"/>
<rect x="273.71965317919074" y="465.41239689110745" width="1" height="69.78760310889248" fill="#3fb950" opacity="0.45"/>
<rect x="275.33815028901734" y="491.1387795051537" width="1" height="44.061220494846225" fill="#f85149" opacity="0.45"/>
<rect x="276.9566473988439" y="483.25445414493635" width="1" height="51.945545855063585" fill="#f85149" opacity="0.45"/>
<rect x="278.5751445086705" y="493.69252411417074" width="1" height="41.507475885829194" fill="#3fb950" opacity="0.45"/>
<rect x="280.1936416184971" y="484.7003404654122" width="1" height="50.49965953458775" fill="#3fb950" opacity="0.45"/>
<rect x="281.8121387283237" y="495.0023579011274" width="1" height="40.19764209887251" fill="#f85149" opacity="0.45"/>
<rect x="283.4306358381503" y="497.94352309217135" width="1" height="37.256476907828585" fill="#f85149" opacity="0.45"/>
<rect x="285.0491329479769" y="501.1984630195644" width="1" height="34.00153698043556" fill="#3fb950" opacity="0.45"/>
<rect x="286.6676300578035" y="491.20847187822574" width="1" height="43.991528121774195" fill="#3fb950" opacity="0.45"/>
<rect x="288.28612716763007" y="507.74571373760523" width="1" height="27.454286262394703" fill="#f85149" opacity="0.45"/>
<rect x="289.90462427745666" y="515.8991103339463" width="1" height="19.30088966605365" fill="#f85149" opacity="0.45"/>
<rect x="291.52312138728325" y="504.3913660891267" width="1" height="30.808633910873255" fill="#f85149" opacity="0.45"/>
<rect x="293.1416184971098" y="509.5755611814629" width="1" height="25.624438818537044" fill="#3fb950" opacity="0.45"/>
<rect x="294.76011560693644" y="508.80503243266537" width="1" height="26.39496756733456" fill="#3fb950" opacity="0.45"/>
<rect x="296.37861271676303" y="511.7711892183958" width="1" height="23.428810781604113" fill="#3fb950" opacity="0.45"/>
<rect x="297.9971098265896" y="512.4558816805977" width="1" height="22.74411831940222" fill="#3fb950" opacity="0.45"/>
<rect x="299.61560693641616" y="512.94266065036" width="1" height="22.257339349639892" fill="#f85149" opacity="0.45"/>
<rect x="301.2341040462428" y="515.9150290152096" width="1" height="19.284970984790334" fill="#f85149" opacity="0.45"/>
<rect x="302.85260115606934" y="516.980013560468" width="1" height="18.219986439531908" fill="#3fb950" opacity="0.45"/>
<rect x="304.471098265896" y="516.751771285324" width="1" height="18.448228714675906" fill="#3fb950" opacity="0.45"/>
<rect x="306.0895953757225" y="513.9155139735536" width="1" height="21.284486026446302" fill="#f85149" opacity="0.45"/>
<rect x="307.7080924855491" y="512.9994137362831" width="1" height="22.200586263716787" fill="#3fb950" opacity="0.45"/>
<rect x="309.3265895953757" y="516.086740374621" width="1" height="19.113259625378987" fill="#3fb950" opacity="0.45"/>
<rect x="310.94508670520236" y="506.69161076845273" width="1" height="28.5083892315472" fill="#3fb950" opacity="0.45"/>
<rect x="312.5635838150289" y="498.20155896822894" width="1" height="36.998441031770994" fill="#3fb950" opacity="0.45"/>
<rect x="314.1820809248555" y="514.0263592065659" width="1" height="21.17364079343406" fill="#f85149" opacity="0.45"/>
<rect x="315.8005780346821" y="516.4504687003332" width="1" height="18.749531299666728" fill="#f85149" opacity="0.45"/>
<rect x="317.4190751445087" y="521.5940226386499" width="1" height="13.605977361350028" fill="#f85149" opacity="0.45"/>
<rect x="319.03757225433526" y="519.7765813415303" width="1" height="15.423418658469586" fill="#f85149" opacity="0.45"/>
<rect x="320.65606936416185" y="491.3422003006114" width="1" height="43.85779969938852" fill="#3fb950" opacity="0.45"/>
<rect x="322.27456647398844" y="506.7243708347406" width="1" height="28.475629165259306" fill="#f85149" opacity="0.45"/>
<rect x="323.893063583815" y="493.45941076610956" width="1" height="41.740589233890375" fill="#3fb950" opacity="0.45"/>
<rect x="325.5115606936416" y="503.6676050159676" width="1" height="31.53239498403235" fill="#f85149" opacity="0.45"/>
<rect x="327.1300578034682" y="516.4449763674352" width="1" height="18.755023632564757" fill="#f85149" opacity="0.45"/>
<rect x="328.7485549132948" y="514.0522422038538" width="1" height="21.147757796146152" fill="#3fb950" opacity="0.45"/>
<rect x="330.36705202312135" y="518.7240621430302" width="1" height="16.475937856969722" fill="#f85149" opacity="0.45"/>
<rect x="331.985549132948" y="494.73896646463197" width="1" height="40.46103353536796" fill="#3fb950" opacity="0.45"/>
<rect x="333.60404624277453" y="483.08088921248236" width="1" height="52.11911078751757" fill="#f85149" opacity="0.45"/>
<rect x="335.2225433526012" y="485.1415493691378" width="1" height="50.058450630862126" fill="#3fb950" opacity="0.45"/>
<rect x="336.84104046242777" y="504.6702689515748" width="1" height="30.529731048425106" fill="#f85149" opacity="0.45"/>
<rect x="338.4595375722543" y="507.2430807302797" width="1" height="27.95691926972023" fill="#f85149" opacity="0.45"/>
<rect x="340.0780346820809" y="501.8943174073927" width="1" height="33.30568259260724" fill="#f85149" opacity="0.45"/>
<rect x="341.69653179190755" y="513.5981606980592" width="1" height="21.601839301940686" fill="#f85149" opacity="0.45"/>
<rect x="343.3150289017341" y="512.2095466544873" width="1" height="22.990453345512606" fill="#f85149" opacity="0.45"/>
<rect x="344.9335260115607" y="508.65180781056114" width="1" height="26.548192189438794" fill="#f85149" opacity="0.45"/>
<rect x="346.55202312138726" y="515.3467765281481" width="1" height="19.853223471851834" fill="#f85149" opacity="0.45"/>
<rect x="348.1705202312139" y="517.8943180637959" width="1" height="17.305681936203996" fill="#f85149" opacity="0.45"/>
<rect x="349.78901734104045" y="514.6993654487108" width="1" height="20.50063455128918" fill="#3fb950" opacity="0.45"/>
<rect x="351.40751445086704" y="516.1068139446503" width="1" height="19.093186055349634" fill="#f85149" opacity="0.45"/>
<rect x="353.02601156069363" y="513.8492677901568" width="1" height="21.35073220984316" fill="#3fb950" opacity="0.45"/>
<rect x="354.6445086705202" y="511.66317333806774" width="1" height="23.536826661932196" fill="#f85149" opacity="0.45"/>
<rect x="356.2630057803468" y="521.3576992205341" width="1" height="13.842300779465859" fill="#f85149" opacity="0.45"/>
<rect x="357.8815028901734" y="512.7969483066669" width="1" height="22.403051693333055" fill="#3fb950" opacity="0.45"/>
<rect x="359.5" y="510.70386287004396" width="1" height="24.49613712995597" fill="#3fb950" opacity="0.45"/>
<rect x="361.1184971098266" y="512.545561205279" width="1" height="22.65443879472093" fill="#3fb950" opacity="0.45"/>
<rect x="362.7369942196532" y="508.72562513215917" width="1" height="26.474374867840766" fill="#3fb950" opacity="0.45"/>
<rect x="364.3554913294798" y="518.2411104205435" width="1" height="16.958889579456468" fill="#f85149" opacity="0.45"/>
<rect x="365.97398843930637" y="520.9533372258624" width="1" height="14.246662774137576" fill="#3fb950" opacity="0.45"/>
<rect x="367.59248554913296" y="512.1954672566067" width="1" height="23.00453274339327" fill="#3fb950" opacity="0.45"/>
<rect x="369.2109826589595" y="513.9500565048143" width="1" height="21.249943495185676" fill="#f85149" opacity="0.45"/>
<rect x="370.82947976878614" y="521.4064511175354" width="1" height="13.793548882464506" fill="#3fb950" opacity="0.45"/>
<rect x="372.44797687861274" y="522.9966817168724" width="1" height="12.203318283127487" fill="#f85149" opacity="0.45"/>
<rect x="374.06647398843927" y="521.382928295761" width="1" height="13.81707170423897" fill="#3fb950" opacity="0.45"/>
<rect x="375.68497109826586" y="516.4459266298265" width="1" height="18.754073370173387" fill="#3fb950" opacity="0.45"/>
<rect x="377.3034682080925" y="508.1117702572109" width="1" height="27.088229742789053" fill="#3fb950" opacity="0.45"/>
<rect x="378.9219653179191" y="517.355829237408" width="1" height="17.844170762591943" fill="#3fb950" opacity="0.45"/>
<rect x="380.54046242774564" y="520.6375847325203" width="1" height="14.56241526747965" fill="#f85149" opacity="0.45"/>
<rect x="382.1589595375723" y="497.22017539846286" width="1" height="37.979824601537075" fill="#3fb950" opacity="0.45"/>
<rect x="383.7774566473989" y="511.25815878225507" width="1" height="23.941841217744866" fill="#f85149" opacity="0.45"/>
<rect x="385.3959537572254" y="518.3038552970053" width="1" height="16.89614470299466" fill="#f85149" opacity="0.45"/>
<rect x="387.014450867052" y="514.9423720047263" width="1" height="20.25762799527365" fill="#3fb950" opacity="0.45"/>
<rect x="388.63294797687865" y="516.308896955746" width="1" height="18.891103044253896" fill="#f85149" opacity="0.45"/>
<rect x="390.2514450867052" y="510.58411824090877" width="1" height="24.615881759091167" fill="#3fb950" opacity="0.45"/>
<rect x="391.8699421965318" y="520.3512393388113" width="1" height="14.848760661188635" fill="#f85149" opacity="0.45"/>
<rect x="393.4884393063584" y="504.3858666113986" width="1" height="30.814133388601306" fill="#3fb950" opacity="0.45"/>
<rect x="395.10693641618496" y="516.5865208936223" width="1" height="18.613479106377667" fill="#f85149" opacity="0.45"/>
<rect x="396.72543352601156" y="513.0628332888359" width="1" height="22.137166711164014" fill="#f85149" opacity="0.45"/>
<rect x="398.34393063583815" y="518.3421321927513" width="1" height="16.85786780724868" fill="#f85149" opacity="0.45"/>
<rect x="399.96242774566474" y="517.9813196381433" width="1" height="17.218680361856627" fill="#f85149" opacity="0.45"/>
<rect x="401.58092485549133" y="519.0106732563696" width="1" height="16.189326743630318" fill="#f85149" opacity="0.45"/>
<rect x="403.1994219653179" y="525.8475195853142" width="1" height="9.352480414685715" fill="#f85149" opacity="0.45"/>
<rect x="404.81791907514446" y="523.6267781513545" width="1" height="11.573221848645403" fill="#3fb950" opacity="0.45"/>
<rect x="406.4364161849711" y="526.1112635000901" width="1" height="9.088736499909828" fill="#f85149" opacity="0.45"/>
<rect x="408.0549132947977" y="522.8810763259232" width="1" height="12.3189236740767" fill="#3fb950" opacity="0.45"/>
<rect x="409.6734104046243" y="525.1126659934489" width="1" height="10.087334006551032" fill="#f85149" opacity="0.45"/>
<rect x="411.2919075144509" y="528.370398868916" width="1" height="6.829601131083905" fill="#3fb950" opacity="0.45"/>
<rect x="412.9104046242775" y="528.4244617562251" width="1" height="6.775538243774804" fill="#f85149" opacity="0.45"/>
<rect x="414.52890173410407" y="527.2499901761164" width="1" height="7.9500098238835335" fill="#3fb950" opacity="0.45"/>
<rect x="416.1473988439306" y="525.4782526554238" width="1" height="9.721747344576102" fill="#f85149" opacity="0.45"/>
<rect x="417.76589595375725" y="527.3270879953793" width="1" height="7.872912004620616" fill="#3fb950" opacity="0.45"/>
<rect x="419.38439306358384" y="529.3393092666338" width="1" height="5.860690733366141" fill="#3fb950" opacity="0.45"/>
<rect x="421.0028901734104" y="528.2063290753159" width="1" height="6.993670924684011" fill="#3fb950" opacity="0.45"/>
<rect x="422.62138728323697" y="530.2084172764656" width="1" height="4.991582723534293" fill="#f85149" opacity="0.45"/>
<rect x="424.2398843930636" y="530.1504424246108" width="1" height="5.049557575389144" fill="#f85149" opacity="0.45"/>
<rect x="425.85838150289015" y="527.7371005298993" width="1" height="7.462899470100638" fill="#f85149" opacity="0.45"/>
<rect x="427.47687861271675" y="525.768136441138" width="1" height="9.431863558861892" fill="#f85149" opacity="0.45"/>
<rect x="429.09537572254334" y="530.4063607091452" width="1" height="4.793639290854685" fill="#f85149" opacity="0.45"/>
<rect x="430.71387283236993" y="530.4025613607297" width="1" height="4.79743863927024" fill="#3fb950" opacity="0.45"/>
<rect x="432.3323699421965" y="529.1332496472922" width="1" height="6.066750352707686" fill="#3fb950" opacity="0.45"/>
<rect x="433.9508670520231" y="530.8155849307541" width="1" height="4.384415069245847" fill="#f85149" opacity="0.45"/>
<rect x="435.5693641618497" y="530.0858939889163" width="1" height="5.114106011083663" fill="#3fb950" opacity="0.45"/>
<rect x="437.1878612716763" y="530.462214907407" width="1" height="4.737785092592958" fill="#3fb950" opacity="0.45"/>
<rect x="438.8063583815029" y="531.5594365854427" width="1" height="3.6405634145572776" fill="#f85149" opacity="0.45"/>
<rect x="440.4248554913295" y="530.6694411754203" width="1" height="4.530558824579657" fill="#f85149" opacity="0.45"/>
<rect x="442.0433526011561" y="528.4171747100744" width="1" height="6.78282528992554" fill="#f85149" opacity="0.45"/>
<rect x="443.66184971098266" y="523.8023589465614" width="1" height="11.39764105343852" fill="#f85149" opacity="0.45"/>
<rect x="445.28034682080926" y="519.2133805895162" width="1" height="15.98661941048374" fill="#3fb950" opacity="0.45"/>
<rect x="446.89884393063585" y="522.3203000528927" width="1" height="12.87969994710727" fill="#3fb950" opacity="0.45"/>
<rect x="448.51734104046244" y="517.1161113445772" width="1" height="18.083888655422697" fill="#3fb950" opacity="0.45"/>
<rect x="450.13583815028903" y="498.1028092519644" width="1" height="37.09719074803553" fill="#3fb950" opacity="0.45"/>
<rect x="451.75433526011557" y="506.06301474827285" width="1" height="29.136985251727083" fill="#3fb950" opacity="0.45"/>
<rect x="453.3728323699422" y="511.0978226726805" width="1" height="24.102177327319453" fill="#f85149" opacity="0.45"/>
<rect x="454.9913294797688" y="495.7894323750792" width="1" height="39.41056762492076" fill="#3fb950" opacity="0.45"/>
<rect x="456.60982658959534" y="510.50582689480416" width="1" height="24.694173105195773" fill="#f85149" opacity="0.45"/>
<rect x="458.22832369942194" y="518.8047310163782" width="1" height="16.39526898362169" fill="#3fb950" opacity="0.45"/>
<rect x="459.8468208092486" y="517.4197577740415" width="1" height="17.780242225958432" fill="#3fb950" opacity="0.45"/>
<rect x="461.4653179190751" y="519.042406168286" width="1" height="16.15759383171394" fill="#f85149" opacity="0.45"/>
<rect x="463.0838150289017" y="521.1296464535003" width="1" height="14.070353546499632" fill="#f85149" opacity="0.45"/>
<rect x="464.70231213872836" y="522.9258226951288" width="1" height="12.27417730487116" fill="#3fb950" opacity="0.45"/>
<rect x="466.3208092485549" y="522.5342179645558" width="1" height="12.665782035444181" fill="#f85149" opacity="0.45"/>
<rect x="467.9393063583815" y="525.5903206750578" width="1" height="9.609679324942135" fill="#3fb950" opacity="0.45"/>
<rect x="469.5578034682081" y="526.4093604380164" width="1" height="8.79063956198354" fill="#3fb950" opacity="0.45"/>
<rect x="471.1763005780347" y="522.8639743247182" width="1" height="12.33602567528169" fill="#3fb950" opacity="0.45"/>
<rect x="472.79479768786126" y="523.434408366543" width="1" height="11.765591633456893" fill="#f85149" opacity="0.45"/>
<rect x="474.41329479768785" y="527.8901281588332" width="1" height="7.309871841166682" fill="#3fb950" opacity="0.45"/>
<rect x="476.03179190751445" y="525.7089092026514" width="1" height="9.491090797348534" fill="#f85149" opacity="0.45"/>
<rect x="477.65028901734104" y="527.8478634272514" width="1" height="7.352136572748577" fill="#3fb950" opacity="0.45"/>
<rect x="479.26878612716763" y="528.4560629991313" width="1" height="6.743937000868641" fill="#f85149" opacity="0.45"/>
<rect x="480.8872832369942" y="527.467622378695" width="1" height="7.732377621304977" fill="#3fb950" opacity="0.45"/>
<rect x="482.5057803468208" y="528.1720389947158" width="1" height="7.027961005284169" fill="#f85149" opacity="0.45"/>
<rect x="484.1242774566474" y="530.2910196769064" width="1" height="4.908980323093488" fill="#f85149" opacity="0.45"/>
<rect x="485.742774566474" y="530.786733086482" width="1" height="4.413266913517987" fill="#3fb950" opacity="0.45"/>
<rect x="487.3612716763006" y="528.6645049089364" width="1" height="6.535495091063581" fill="#3fb950" opacity="0.45"/>
<rect x="488.9797687861272" y="530.4888753302461" width="1" height="4.711124669753872" fill="#f85149" opacity="0.45"/>
<rect x="490.5982658959538" y="529.5177337041849" width="1" height="5.682266295814998" fill="#f85149" opacity="0.45"/>
<rect x="492.2167630057803" y="528.9261530069092" width="1" height="6.273846993090729" fill="#f85149" opacity="0.45"/>
<rect x="493.83526011560696" y="529.5144151007601" width="1" height="5.6855848992398705" fill="#3fb950" opacity="0.45"/>
<rect x="495.45375722543355" y="531.2272785417066" width="1" height="3.9727214582933357" fill="#f85149" opacity="0.45"/>
<rect x="497.0722543352601" y="530.9778593306415" width="1" height="4.222140669358396" fill="#f85149" opacity="0.45"/>
<rect x="498.6907514450867" y="527.8634374555241" width="1" height="7.3365625444757825" fill="#3fb950" opacity="0.45"/>
<rect x="500.3092485549133" y="531.0119047858714" width="1" height="4.188095214128566" fill="#f85149" opacity="0.45"/>
<rect x="501.9277456647399" y="530.6003618968092" width="1" height="4.599638103190728" fill="#3fb950" opacity="0.45"/>
<rect x="503.5462427745665" y="531.9053671395989" width="1" height="3.294632860401066" fill="#3fb950" opacity="0.45"/>
<rect x="505.16473988439304" y="529.2619654610806" width="1" height="5.938034538919283" fill="#3fb950" opacity="0.45"/>
<rect x="506.78323699421964" y="530.3279740986405" width="1" height="4.872025901359393" fill="#f85149" opacity="0.45"/>
<rect x="508.4017341040462" y="531.0099654748685" width="1" height="4.190034525131409" fill="#3fb950" opacity="0.45"/>
<rect x="510.0202312138728" y="529.6467683134838" width="1" height="5.553231686516142" fill="#f85149" opacity="0.45"/>
<rect x="511.6387283236994" y="531.3736995844909" width="1" height="3.826300415509081" fill="#3fb950" opacity="0.45"/>
<rect x="513.2572254335261" y="530.0381304600664" width="1" height="5.161869539933491" fill="#f85149" opacity="0.45"/>
<rect x="514.8757225433526" y="525.1545918559502" width="1" height="10.045408144049702" fill="#f85149" opacity="0.45"/>
<rect x="516.4942196531792" y="530.1207696053474" width="1" height="5.079230394652541" fill="#3fb950" opacity="0.45"/>
<rect x="518.1127167630058" y="531.9416196668419" width="1" height="3.2583803331580157" fill="#f85149" opacity="0.45"/>
<rect x="519.7312138728323" y="531.5179227414719" width="1" height="3.682077258528011" fill="#3fb950" opacity="0.45"/>
<rect x="521.349710982659" y="530.3456269322164" width="1" height="4.854373067783513" fill="#f85149" opacity="0.45"/>
<rect x="522.9682080924856" y="531.2133529277862" width="1" height="3.9866470722137137" fill="#f85149" opacity="0.45"/>
<rect x="524.5867052023123" y="529.1514648810589" width="1" height="6.048535118941004" fill="#3fb950" opacity="0.45"/>
<rect x="526.2052023121387" y="528.9467767288494" width="1" height="6.253223271150546" fill="#3fb950" opacity="0.45"/>
<rect x="527.8236994219653" y="519.0844844538276" width="1" height="16.115515546172333" fill="#3fb950" opacity="0.45"/>
<rect x="529.442196531792" y="524.1426794482394" width="1" height="11.05732055176054" fill="#f85149" opacity="0.45"/>
<rect x="531.0606936416185" y="527.5980669011158" width="1" height="7.60193309888416" fill="#3fb950" opacity="0.45"/>
<rect x="532.679190751445" y="524.5754948778527" width="1" height="10.624505122147184" fill="#3fb950" opacity="0.45"/>
<rect x="534.2976878612717" y="513.0933995520807" width="1" height="22.106600447919277" fill="#3fb950" opacity="0.45"/>
<rect x="535.9161849710982" y="522.6282282769133" width="1" height="12.571771723086613" fill="#f85149" opacity="0.45"/>
<rect x="537.5346820809248" y="528.9720449305264" width="1" height="6.2279550694735235" fill="#3fb950" opacity="0.45"/>
<rect x="539.1531791907514" y="528.3923688809682" width="1" height="6.807631119031726" fill="#f85149" opacity="0.45"/>
<rect x="540.7716763005781" y="531.1627865841922" width="1" height="4.0372134158077415" fill="#f85149" opacity="0.45"/>
<rect x="542.3901734104047" y="530.3841270188427" width="1" height="4.815872981157213" fill="#3fb950" opacity="0.45"/>
<rect x="544.0086705202312" y="530.600198926639" width="1" height="4.599801073360936" fill="#f85149" opacity="0.45"/>
<rect x="545.6271676300578" y="531.2234805542109" width="1" height="3.9765194457889947" fill="#3fb950" opacity="0.45"/>
<rect x="547.2456647398844" y="528.2180870839031" width="1" height="6.981912916096803" fill="#3fb950" opacity="0.45"/>
<rect x="548.864161849711" y="530.281777328943" width="1" height="4.918222671056924" fill="#f85149" opacity="0.45"/>
<rect x="550.4826589595375" y="530.7679598755144" width="1" height="4.432040124485525" fill="#f85149" opacity="0.45"/>
<rect x="552.1011560693642" y="530.4976178803388" width="1" height="4.702382119661138" fill="#3fb950" opacity="0.45"/>
<rect x="553.7196531791908" y="526.8892347801485" width="1" height="8.310765219851419" fill="#3fb950" opacity="0.45"/>
<rect x="555.3381502890174" y="528.7140485211489" width="1" height="6.485951478851007" fill="#f85149" opacity="0.45"/>
<rect x="556.9566473988439" y="530.9677524582468" width="1" height="4.232247541753168" fill="#3fb950" opacity="0.45"/>
<rect x="558.5751445086705" y="529.6307479034504" width="1" height="5.569252096549576" fill="#f85149" opacity="0.45"/>
<rect x="560.1936416184972" y="529.3908928979293" width="1" height="5.809107102070584" fill="#f85149" opacity="0.45"/>
<rect x="561.8121387283237" y="527.5206288518525" width="1" height="7.679371148147425" fill="#3fb950" opacity="0.45"/>
<rect x="563.4306358381502" y="522.3652087118084" width="1" height="12.834791288191582" fill="#3fb950" opacity="0.45"/>
<rect x="565.0491329479769" y="527.4968590230977" width="1" height="7.703140976902205" fill="#f85149" opacity="0.45"/>
<rect x="566.6676300578034" y="520.6811831657042" width="1" height="14.518816834295762" fill="#3fb950" opacity="0.45"/>
<rect x="568.28612716763" y="525.3330455532813" width="1" height="9.866954446718637" fill="#f85149" opacity="0.45"/>
<rect x="569.9046242774566" y="526.396101674897" width="1" height="8.803898325102978" fill="#f85149" opacity="0.45"/>
<rect x="571.5231213872833" y="527.6110269422948" width="1" height="7.588973057705175" fill="#3fb950" opacity="0.45"/>
<rect x="573.1416184971099" y="530.1675713039858" width="1" height="5.032428696014108" fill="#f85149" opacity="0.45"/>
<rect x="574.7601156069364" y="530.5748997640319" width="1" height="4.625100235968034" fill="#3fb950" opacity="0.45"/>
<rect x="576.378612716763" y="527.0275583489209" width="1" height="8.172441651078998" fill="#3fb950" opacity="0.45"/>
<rect x="577.9971098265896" y="517.8166558029624" width="1" height="17.38334419703756" fill="#3fb950" opacity="0.45"/>
<rect x="579.6156069364162" y="524.8626034074529" width="1" height="10.337396592547066" fill="#f85149" opacity="0.45"/>
<rect x="581.2341040462427" y="528.7707145081918" width="1" height="6.429285491808173" fill="#3fb950" opacity="0.45"/>
<rect x="582.8526011560693" y="524.1488695928684" width="1" height="11.051130407131495" fill="#3fb950" opacity="0.45"/>
<rect x="584.471098265896" y="523.5762625020305" width="1" height="11.623737497969387" fill="#3fb950" opacity="0.45"/>
<rect x="586.0895953757226" y="521.2542264314027" width="1" height="13.945773568597247" fill="#f85149" opacity="0.45"/>
<rect x="587.7080924855491" y="522.491348984493" width="1" height="12.708651015506916" fill="#3fb950" opacity="0.45"/>
<rect x="589.3265895953757" y="519.9577919225555" width="1" height="15.242208077444388" fill="#3fb950" opacity="0.45"/>
<rect x="590.9450867052024" y="520.2348126326409" width="1" height="14.965187367359022" fill="#3fb950" opacity="0.45"/>
<rect x="592.5635838150289" y="517.4704489820457" width="1" height="17.729551017954236" fill="#3fb950" opacity="0.45"/>
<rect x="594.1820809248555" y="513.4241344137247" width="1" height="21.775865586275245" fill="#f85149" opacity="0.45"/>
<rect x="595.8005780346821" y="515.2349932810246" width="1" height="19.96500671897536" fill="#3fb950" opacity="0.45"/>
<rect x="597.4190751445086" y="512.8355375335533" width="1" height="22.36446246644664" fill="#3fb950" opacity="0.45"/>
<rect x="599.0375722543353" y="505.26339157121276" width="1" height="29.936608428787167" fill="#3fb950" opacity="0.45"/>
<rect x="600.6560693641618" y="509.00035541388115" width="1" height="26.19964458611878" fill="#f85149" opacity="0.45"/>
<rect x="602.2745664739884" y="512.8870405303387" width="1" height="22.312959469661223" fill="#3fb950" opacity="0.45"/>
<rect x="603.8930635838151" y="520.7729938911084" width="1" height="14.427006108891533" fill="#f85149" opacity="0.45"/>
<rect x="605.5115606936416" y="523.4661623727195" width="1" height="11.733837627280423" fill="#f85149" opacity="0.45"/>
<rect x="607.1300578034682" y="520.423435804687" width="1" height="14.776564195312972" fill="#f85149" opacity="0.45"/>
<rect x="608.7485549132948" y="525.1799801588173" width="1" height="10.020019841182602" fill="#f85149" opacity="0.45"/>
<rect x="610.3670520231213" y="525.7186465852656" width="1" height="9.481353414734372" fill="#f85149" opacity="0.45"/>
<rect x="611.985549132948" y="528.1495021594827" width="1" height="7.05049784051721" fill="#3fb950" opacity="0.45"/>
<rect x="613.6040462427745" y="528.8959861736851" width="1" height="6.304013826314872" fill="#3fb950" opacity="0.45"/>
<rect x="615.2225433526012" y="528.6939473924895" width="1" height="6.506052607510469" fill="#f85149" opacity="0.45"/>
<rect x="616.8410404624278" y="530.5928135540181" width="1" height="4.607186445981824" fill="#f85149" opacity="0.45"/>
<rect x="618.4595375722542" y="526.1061168408726" width="1" height="9.093883159127358" fill="#3fb950" opacity="0.45"/>
<rect x="620.0780346820809" y="523.6778623250093" width="1" height="11.522137674990631" fill="#3fb950" opacity="0.45"/>
<rect x="621.6965317919075" y="520.812278888346" width="1" height="14.387721111653946" fill="#3fb950" opacity="0.45"/>
<rect x="623.3150289017341" y="501.00678832464394" width="1" height="34.193211675356" fill="#f85149" opacity="0.45"/>
<rect x="624.9335260115607" y="514.4841873251258" width="1" height="20.715812674874087" fill="#f85149" opacity="0.45"/>
<rect x="626.5520231213873" y="503.7812401349839" width="1" height="31.418759865016057" fill="#3fb950" opacity="0.45"/>
<rect x="628.1705202312138" y="517.0925708308428" width="1" height="18.10742916915717" fill="#f85149" opacity="0.45"/>
<rect x="629.7890173410404" y="522.4825969079602" width="1" height="12.717403092039717" fill="#3fb950" opacity="0.45"/>
<rect x="631.407514450867" y="521.9977028124006" width="1" height="13.202297187599356" fill="#f85149" opacity="0.45"/>
<rect x="633.0260115606936" y="511.79724165022395" width="1" height="23.40275834977598" fill="#3fb950" opacity="0.45"/>
<rect x="634.6445086705203" y="520.3172639709616" width="1" height="14.88273602903837" fill="#f85149" opacity="0.45"/>
<rect x="636.2630057803468" y="524.1658120262033" width="1" height="11.034187973796634" fill="#f85149" opacity="0.45"/>
<rect x="637.8815028901734" y="525.7884042824977" width="1" height="9.411595717502223" fill="#f85149" opacity="0.45"/>
<rect x="639.5" y="523.4575685031368" width="1" height="11.742431496863105" fill="#3fb950" opacity="0.45"/>
<rect x="641.1184971098265" y="518.2879845881721" width="1" height="16.912015411827838" fill="#3fb950" opacity="0.45"/>
<rect x="642.7369942196532" y="522.7078179406998" width="1" height="12.492182059300148" fill="#f85149" opacity="0.45"/>
<rect x="644.3554913294798" y="523.9795493699007" width="1" height="11.220450630099208" fill="#3fb950" opacity="0.45"/>
<rect x="645.9739884393064" y="524.6284486153603" width="1" height="10.571551384639633" fill="#f85149" opacity="0.45"/>
<rect x="647.592485549133" y="528.6160534350255" width="1" height="6.58394656497444" fill="#3fb950" opacity="0.45"/>
<rect x="649.2109826589596" y="529.7811846809304" width="1" height="5.418815319069495" fill="#f85149" opacity="0.45"/>
<rect x="650.8294797687861" y="528.7286699054202" width="1" height="6.4713300945796846" fill="#f85149" opacity="0.45"/>
<rect x="652.4479768786127" y="530.8028147379155" width="1" height="4.397185262084463" fill="#3fb950" opacity="0.45"/>
<rect x="654.0664739884393" y="530.3324818059172" width="1" height="4.867518194082777" fill="#3fb950" opacity="0.45"/>
<rect x="655.6849710982659" y="529.7094536496954" width="1" height="5.4905463503044984" fill="#f85149" opacity="0.45"/>
<rect x="657.3034682080926" y="530.7032382627497" width="1" height="4.496761737250267" fill="#f85149" opacity="0.45"/>
<rect x="658.921965317919" y="526.7736994765795" width="1" height="8.426300523420423" fill="#3fb950" opacity="0.45"/>
<rect x="660.5404624277456" y="527.6484944308696" width="1" height="7.551505569130313" fill="#3fb950" opacity="0.45"/>
<rect x="662.1589595375723" y="529.3553300168973" width="1" height="5.844669983102676" fill="#f85149" opacity="0.45"/>
<rect x="663.7774566473988" y="530.9007809044888" width="1" height="4.299219095511148" fill="#3fb950" opacity="0.45"/>
<rect x="665.3959537572255" y="530.5411319364825" width="1" height="4.658868063517389" fill="#f85149" opacity="0.45"/>
<rect x="667.014450867052" y="530.5446169123776" width="1" height="4.65538308762234" fill="#f85149" opacity="0.45"/>
<rect x="668.6329479768785" y="530.0765301788426" width="1" height="5.1234698211573" fill="#f85149" opacity="0.45"/>
<rect x="670.2514450867052" y="531.7138373826585" width="1" height="3.4861626173413924" fill="#f85149" opacity="0.45"/>
<rect x="671.8699421965317" y="529.9395239806322" width="1" height="5.260476019367729" fill="#f85149" opacity="0.45"/>
<rect x="673.4884393063584" y="531.5561332923678" width="1" height="3.643866707632128" fill="#3fb950" opacity="0.45"/>
<rect x="675.106936416185" y="531.3860080852188" width="1" height="3.813991914781127" fill="#f85149" opacity="0.45"/>
<rect x="676.7254335260116" y="531.9665680523184" width="1" height="3.233431947681538" fill="#3fb950" opacity="0.45"/>
<rect x="678.3439306358382" y="531.6517389431976" width="1" height="3.548261056802289" fill="#f85149" opacity="0.45"/>
<rect x="679.9624277456647" y="531.2133410197362" width="1" height="3.986658980263769" fill="#f85149" opacity="0.45"/>
<rect x="681.5809248554913" y="531.2619479787572" width="1" height="3.9380520212426973" fill="#3fb950" opacity="0.45"/>
<rect x="683.1994219653179" y="531.6628103676439" width="1" height="3.5371896323559895" fill="#f85149" opacity="0.45"/>
<rect x="684.8179190751446" y="532.1010585899052" width="1" height="3.098941410094767" fill="#3fb950" opacity="0.45"/>
<rect x="686.4364161849711" y="529.0010706323288" width="1" height="6.198929367671099" fill="#3fb950" opacity="0.45"/>
<rect x="688.0549132947978" y="531.8885652212542" width="1" height="3.3114347787457064" fill="#f85149" opacity="0.45"/>
<rect x="689.6734104046243" y="532.9316192211406" width="1" height="2.268380778859296" fill="#f85149" opacity="0.45"/>
<rect x="691.2919075144508" y="530.5693672839939" width="1" height="4.630632716006062" fill="#f85149" opacity="0.45"/>
<rect x="692.9104046242775" y="532.1141081115743" width="1" height="3.0858918884256354" fill="#3fb950" opacity="0.45"/>
<rect x="694.528901734104" y="531.8862094687308" width="1" height="3.313790531269092" fill="#3fb950" opacity="0.45"/>
<rect x="696.1473988439307" y="527.0764051700925" width="1" height="8.12359482990746" fill="#3fb950" opacity="0.45"/>
<rect x="697.7658959537573" y="529.7752820306519" width="1" height="5.42471796934808" fill="#f85149" opacity="0.45"/>
<rect x="699.3843930635837" y="531.6709993635259" width="1" height="3.529000636474052" fill="#3fb950" opacity="0.45"/>
<rect x="701.0028901734104" y="530.3795975368462" width="1" height="4.820402463153755" fill="#3fb950" opacity="0.45"/>
<rect x="702.621387283237" y="532.0316700422236" width="1" height="3.1683299577763364" fill="#f85149" opacity="0.45"/>
<rect x="704.2398843930636" y="532.1830373487552" width="1" height="3.0169626512447394" fill="#f85149" opacity="0.45"/>
<rect x="705.8583815028902" y="532.4138456385629" width="1" height="2.7861543614370703" fill="#3fb950" opacity="0.45"/>
<rect x="707.4768786127167" y="532.3206161540564" width="1" height="2.8793838459434937" fill="#3fb950" opacity="0.45"/>
<rect x="709.0953757225434" y="531.9957594461312" width="1" height="3.2042405538687717" fill="#3fb950" opacity="0.45"/>
<rect x="710.7138728323699" y="529.6138810011756" width="1" height="5.586118998824304" fill="#3fb950" opacity="0.45"/>
<rect x="712.3323699421965" y="532.0198538543063" width="1" height="3.180146145693584" fill="#f85149" opacity="0.45"/>
<rect x="713.9508670520231" y="532.4483381560134" width="1" height="2.7516618439865397" fill="#f85149" opacity="0.45"/>
<rect x="715.5693641618498" y="532.2297716818535" width="1" height="2.9702283181463827" fill="#3fb950" opacity="0.45"/>
<rect x="717.1878612716763" y="532.8263326658765" width="1" height="2.373667334123411" fill="#f85149" opacity="0.45"/>
<rect x="718.806358381503" y="531.9743647630098" width="1" height="3.225635236990115" fill="#f85149" opacity="0.45"/>
<rect x="720.4248554913295" y="532.7701596721043" width="1" height="2.4298403278955902" fill="#3fb950" opacity="0.45"/>
<rect x="722.043352601156" y="533.1233412080311" width="1" height="2.076658791968839" fill="#f85149" opacity="0.45"/>
<rect x="723.6618497109827" y="532.5012646751209" width="1" height="2.698735324879067" fill="#3fb950" opacity="0.45"/>
<rect x="725.2803468208092" y="532.2300339991839" width="1" height="2.9699660008160436" fill="#3fb950" opacity="0.45"/>
<rect x="726.8988439306358" y="532.7387700522584" width="1" height="2.4612299477415718" fill="#f85149" opacity="0.45"/>
<rect x="728.5173410404625" y="529.0069855308875" width="1" height="6.193014469112427" fill="#3fb950" opacity="0.45"/>
<rect x="730.1358381502889" y="529.7253879815388" width="1" height="5.47461201846113" fill="#3fb950" opacity="0.45"/>
<rect x="731.7543352601156" y="531.2131467484058" width="1" height="3.986853251594084" fill="#f85149" opacity="0.45"/>
<rect x="733.3728323699422" y="532.303167798711" width="1" height="2.8968322012889303" fill="#f85149" opacity="0.45"/>
<rect x="734.9913294797688" y="532.1409927459836" width="1" height="3.0590072540163646" fill="#f85149" opacity="0.45"/>
<rect x="736.6098265895954" y="531.9900725016728" width="1" height="3.209927498327147" fill="#f85149" opacity="0.45"/>
<rect x="738.228323699422" y="529.1602489392118" width="1" height="6.039751060788149" fill="#3fb950" opacity="0.45"/>
<rect x="739.8468208092486" y="528.8724041518906" width="1" height="6.327595848109354" fill="#3fb950" opacity="0.45"/>
<rect x="741.4653179190751" y="525.4064175138087" width="1" height="9.793582486191212" fill="#3fb950" opacity="0.45"/>
<rect x="743.0838150289018" y="528.936210886184" width="1" height="6.26378911381596" fill="#3fb950" opacity="0.45"/>
<rect x="744.7023121387283" y="528.8106700987603" width="1" height="6.389329901239648" fill="#3fb950" opacity="0.45"/>
<rect x="746.320809248555" y="526.7213207277729" width="1" height="8.478679272227055" fill="#3fb950" opacity="0.45"/>
<rect x="747.9393063583815" y="526.7240514137568" width="1" height="8.475948586243135" fill="#f85149" opacity="0.45"/>
<rect x="749.5578034682081" y="527.2274138742034" width="1" height="7.972586125796511" fill="#3fb950" opacity="0.45"/>
<rect x="751.1763005780347" y="525.5629644818678" width="1" height="9.637035518132166" fill="#3fb950" opacity="0.45"/>
<rect x="752.7947976878612" y="514.5872766750467" width="1" height="20.61272332495321" fill="#3fb950" opacity="0.45"/>
<rect x="754.4132947976879" y="524.5009008111637" width="1" height="10.699099188836271" fill="#f85149" opacity="0.45"/>
<rect x="756.0317919075145" y="525.815933992988" width="1" height="9.384066007011938" fill="#3fb950" opacity="0.45"/>
<rect x="757.650289017341" y="521.9938167053349" width="1" height="13.206183294665038" fill="#3fb950" opacity="0.45"/>
<rect x="759.2687861271677" y="524.6930229085348" width="1" height="10.50697709146516" fill="#f85149" opacity="0.45"/>
<rect x="760.8872832369942" y="526.4865433147793" width="1" height="8.713456685220649" fill="#3fb950" opacity="0.45"/>
<rect x="762.5057803468208" y="526.6525929067523" width="1" height="8.54740709324767" fill="#f85149" opacity="0.45"/>
<rect x="764.1242774566474" y="524.2050619797507" width="1" height="10.994938020249265" fill="#3fb950" opacity="0.45"/>
<rect x="765.7427745664739" y="515.9144921322688" width="1" height="19.2855078677311" fill="#3fb950" opacity="0.45"/>
<rect x="767.3612716763006" y="524.2839722042262" width="1" height="10.916027795773743" fill="#f85149" opacity="0.45"/>
<rect x="768.9797687861272" y="527.2254976988406" width="1" height="7.974502301159305" fill="#f85149" opacity="0.45"/>
<rect x="770.5982658959538" y="526.1131106087628" width="1" height="9.08688939123715" fill="#f85149" opacity="0.45"/>
<rect x="772.2167630057803" y="530.2932913926198" width="1" height="4.9067086073800965" fill="#3fb950" opacity="0.45"/>
<rect x="773.835260115607" y="530.3332490245683" width="1" height="4.866750975431614" fill="#f85149" opacity="0.45"/>
<rect x="775.4537572254335" y="530.8080627856731" width="1" height="4.391937214326845" fill="#f85149" opacity="0.45"/>
<rect x="777.0722543352601" y="532.0516932582129" width="1" height="3.148306741786996" fill="#f85149" opacity="0.45"/>
<rect x="778.6907514450867" y="530.9846595076615" width="1" height="4.215340492338441" fill="#3fb950" opacity="0.45"/>
<rect x="780.3092485549133" y="532.3735140938438" width="1" height="2.8264859061561083" fill="#f85149" opacity="0.45"/>
<rect x="781.9277456647399" y="533.1579636933418" width="1" height="2.042036306658133" fill="#f85149" opacity="0.45"/>
<rect x="783.5462427745664" y="532.0200212474666" width="1" height="3.179978752533316" fill="#3fb950" opacity="0.45"/>
<rect x="785.164739884393" y="532.0282840732586" width="1" height="3.1717159267412853" fill="#f85149" opacity="0.45"/>
<rect x="786.7832369942197" y="532.1433512203471" width="1" height="3.0566487796528463" fill="#3fb950" opacity="0.45"/>
<rect x="788.4017341040462" y="531.6476834015917" width="1" height="3.552316598408197" fill="#3fb950" opacity="0.45"/>
<rect x="790.0202312138729" y="531.0483539660547" width="1" height="4.151646033945212" fill="#3fb950" opacity="0.45"/>
<rect x="791.6387283236994" y="531.8363058931777" width="1" height="3.3636941068222086" fill="#f85149" opacity="0.45"/>
<rect x="793.257225433526" y="529.2481790012305" width="1" height="5.951820998769449" fill="#f85149" opacity="0.45"/>
<rect x="794.8757225433526" y="529.2585121265756" width="1" height="5.9414878734243075" fill="#f85149" opacity="0.45"/>
<rect x="796.4942196531792" y="532.2237115050847" width="1" height="2.976288494915252" fill="#f85149" opacity="0.45"/>
<rect x="798.1127167630058" y="531.8442271280494" width="1" height="3.355772871950535" fill="#3fb950" opacity="0.45"/>
<rect x="799.7312138728324" y="533.0230403831944" width="1" height="2.1769596168055614" fill="#3fb950" opacity="0.45"/>
<rect x="801.349710982659" y="531.4381684063652" width="1" height="3.7618315936347244" fill="#f85149" opacity="0.45"/>
<rect x="802.9682080924855" y="522.6852525261468" width="1" height="12.514747473853163" fill="#3fb950" opacity="0.45"/>
<rect x="804.5867052023121" y="528.0528713956613" width="1" height="7.147128604338604" fill="#f85149" opacity="0.45"/>
<rect x="806.2052023121387" y="531.1323271531676" width="1" height="4.067672846832352" fill="#f85149" opacity="0.45"/>
<rect x="807.8236994219653" y="531.7902067694903" width="1" height="3.409793230509649" fill="#f85149" opacity="0.45"/>
<rect x="809.442196531792" y="530.2351243108147" width="1" height="4.964875689185192" fill="#3fb950" opacity="0.45"/>
<rect x="811.0606936416185" y="531.4759785065505" width="1" height="3.7240214934494134" fill="#f85149" opacity="0.45"/>
<rect x="812.679190751445" y="532.3675682343552" width="1" height="2.832431765644742" fill="#3fb950" opacity="0.45"/>
<rect x="814.2976878612717" y="532.2354616883819" width="1" height="2.964538311618071" fill="#f85149" opacity="0.45"/>
<rect x="815.9161849710982" y="532.0970523816493" width="1" height="3.1029476183506404" fill="#f85149" opacity="0.45"/>
<rect x="817.5346820809249" y="530.391794101904" width="1" height="4.808205898095935" fill="#f85149" opacity="0.45"/>
<rect x="819.1531791907514" y="532.0625387699388" width="1" height="3.137461230061149" fill="#3fb950" opacity="0.45"/>
<rect x="820.7716763005781" y="532.4199241877518" width="1" height="2.7800758122481284" fill="#3fb950" opacity="0.45"/>
<rect x="822.3901734104046" y="532.9633895583571" width="1" height="2.2366104416428243" fill="#f85149" opacity="0.45"/>
<rect x="824.0086705202311" y="533.1209898784977" width="1" height="2.0790101215022787" fill="#3fb950" opacity="0.45"/>
<rect x="825.6271676300578" y="532.6561458770975" width="1" height="2.5438541229024167" fill="#f85149" opacity="0.45"/>
<rect x="827.2456647398844" y="532.7468338435002" width="1" height="2.4531661564997194" fill="#f85149" opacity="0.45"/>
<rect x="828.864161849711" y="533.182031223347" width="1" height="2.0179687766528787" fill="#3fb950" opacity="0.45"/>
<rect x="830.4826589595376" y="532.1314054047996" width="1" height="3.068594595200352" fill="#f85149" opacity="0.45"/>
<rect x="832.1011560693642" y="533.272244568899" width="1" height="1.927755431100877" fill="#f85149" opacity="0.45"/>
<rect x="833.7196531791907" y="533.3744275460986" width="1" height="1.8255724539013727" fill="#3fb950" opacity="0.45"/>
<rect x="835.3381502890173" y="530.5261556923206" width="1" height="4.67384430767936" fill="#3fb950" opacity="0.45"/>
<rect x="836.9566473988439" y="532.012793401336" width="1" height="3.18720659866392" fill="#f85149" opacity="0.45"/>
<rect x="838.5751445086705" y="531.9969590971128" width="1" height="3.2030409028870963" fill="#3fb950" opacity="0.45"/>
<rect x="840.1936416184972" y="532.7988335760863" width="1" height="2.4011664239136508" fill="#f85149" opacity="0.45"/>
<rect x="841.8121387283237" y="532.0295817104806" width="1" height="3.1704182895193753" fill="#3fb950" opacity="0.45"/>
<rect x="843.4306358381502" y="532.344898369192" width="1" height="2.8551016308078943" fill="#f85149" opacity="0.45"/>
<rect x="845.0491329479769" y="533.0677445638797" width="1" height="2.1322554361202037" fill="#3fb950" opacity="0.45"/>
<rect x="846.6676300578034" y="531.5680644780252" width="1" height="3.6319355219746967" fill="#3fb950" opacity="0.45"/>
<rect x="848.2861271676301" y="532.1654188784094" width="1" height="3.034581121590577" fill="#3fb950" opacity="0.45"/>
<rect x="849.9046242774567" y="532.5116692487661" width="1" height="2.6883307512338206" fill="#f85149" opacity="0.45"/>
<rect x="851.5231213872833" y="531.0178979373302" width="1" height="4.182102062669742" fill="#3fb950" opacity="0.45"/>
<rect x="853.1416184971098" y="527.844911251537" width="1" height="7.35508874846289" fill="#3fb950" opacity="0.45"/>
<rect x="854.7601156069364" y="530.2846267551971" width="1" height="4.915373244802822" fill="#3fb950" opacity="0.45"/>
<rect x="856.378612716763" y="526.666099697542" width="1" height="8.533900302457937" fill="#3fb950" opacity="0.45"/>
<rect x="857.9971098265896" y="529.4191806408608" width="1" height="5.780819359139173" fill="#f85149" opacity="0.45"/>
<rect x="859.6156069364162" y="530.8391213617285" width="1" height="4.3608786382714015" fill="#f85149" opacity="0.45"/>
<rect x="861.2341040462428" y="530.0527950535479" width="1" height="5.147204946452007" fill="#3fb950" opacity="0.45"/>
<rect x="862.8526011560695" y="524.7204321776048" width="1" height="10.479567822395097" fill="#3fb950" opacity="0.45"/>
<rect x="864.4710982658959" y="528.8736507546124" width="1" height="6.326349245387519" fill="#f85149" opacity="0.45"/>
<rect x="866.0895953757225" y="529.7752078605117" width="1" height="5.424792139488204" fill="#f85149" opacity="0.45"/>
<rect x="867.7080924855492" y="526.6972222368375" width="1" height="8.502777763162385" fill="#3fb950" opacity="0.45"/>
<rect x="869.3265895953757" y="529.9303867637387" width="1" height="5.269613236261193" fill="#f85149" opacity="0.45"/>
<rect x="870.9450867052024" y="527.3477134184694" width="1" height="7.852286581530507" fill="#3fb950" opacity="0.45"/>
<rect x="872.5635838150289" y="529.6076949393066" width="1" height="5.59230506069332" fill="#f85149" opacity="0.45"/>
<rect x="874.1820809248554" y="527.8072304387518" width="1" height="7.3927695612480875" fill="#f85149" opacity="0.45"/>
<rect x="875.8005780346821" y="530.3051793690672" width="1" height="4.894820630932713" fill="#3fb950" opacity="0.45"/>
<rect x="877.4190751445086" y="528.4548007458295" width="1" height="6.745199254170416" fill="#3fb950" opacity="0.45"/>
<rect x="879.0375722543353" y="524.6362953398617" width="1" height="10.563704660138228" fill="#3fb950" opacity="0.45"/>
<rect x="880.6560693641619" y="524.5233593934965" width="1" height="10.676640606503383" fill="#f85149" opacity="0.45"/>
<rect x="882.2745664739884" y="527.3560252373816" width="1" height="7.843974762618359" fill="#3fb950" opacity="0.45"/>
<rect x="883.893063583815" y="524.213465320533" width="1" height="10.9865346794669" fill="#3fb950" opacity="0.45"/>
<rect x="885.5115606936416" y="526.1411527056339" width="1" height="9.058847294366046" fill="#f85149" opacity="0.45"/>
<rect x="887.1300578034682" y="518.6963327175296" width="1" height="16.50366728247036" fill="#3fb950" opacity="0.45"/>
<rect x="888.7485549132948" y="519.9716219318458" width="1" height="15.228378068154143" fill="#3fb950" opacity="0.45"/>
<rect x="890.3670520231213" y="520.962008327655" width="1" height="14.237991672344947" fill="#f85149" opacity="0.45"/>
<rect x="891.985549132948" y="525.7723512103842" width="1" height="9.427648789615773" fill="#f85149" opacity="0.45"/>
<rect x="893.6040462427746" y="529.7427870035342" width="1" height="5.457212996465728" fill="#f85149" opacity="0.45"/>
<rect x="895.2225433526012" y="528.7881410888173" width="1" height="6.411858911182662" fill="#3fb950" opacity="0.45"/>
<rect x="896.8410404624277" y="522.6443861398669" width="1" height="12.555613860133008" fill="#3fb950" opacity="0.45"/>
<rect x="898.4595375722544" y="526.682427335266" width="1" height="8.517572664733962" fill="#f85149" opacity="0.45"/>
<rect x="900.0780346820809" y="529.0667217534549" width="1" height="6.133278246545046" fill="#f85149" opacity="0.45"/>
<rect x="901.6965317919075" y="530.2604146274417" width="1" height="4.939585372558213" fill="#3fb950" opacity="0.45"/>
<rect x="903.3150289017342" y="531.0818812509938" width="1" height="4.1181187490061575" fill="#f85149" opacity="0.45"/>
<rect x="904.9335260115606" y="531.4884401107787" width="1" height="3.7115598892212347" fill="#f85149" opacity="0.45"/>
<rect x="906.5520231213873" y="530.5476908904321" width="1" height="4.6523091095677955" fill="#3fb950" opacity="0.45"/>
<rect x="908.1705202312139" y="529.9983483867982" width="1" height="5.201651613201761" fill="#3fb950" opacity="0.45"/>
<rect x="909.7890173410404" y="529.4074376023935" width="1" height="5.792562397606389" fill="#3fb950" opacity="0.45"/>
<rect x="911.4075144508671" y="529.2876552077282" width="1" height="5.9123447922717105" fill="#3fb950" opacity="0.45"/>
<rect x="913.0260115606936" y="529.0270162319368" width="1" height="6.172983768063091" fill="#3fb950" opacity="0.45"/>
<rect x="914.6445086705202" y="528.2039743434825" width="1" height="6.996025656517418" fill="#f85149" opacity="0.45"/>
<rect x="916.2630057803468" y="521.4026616357899" width="1" height="13.797338364210077" fill="#3fb950" opacity="0.45"/>
<rect x="917.8815028901734" y="510.99291615432696" width="1" height="24.20708384567297" fill="#3fb950" opacity="0.45"/>
<rect x="919.5" y="512.800506772242" width="1" height="22.399493227757944" fill="#3fb950" opacity="0.45"/>
<polyline points="80.0,375.3619485122885 81.61849710982659,375.44137156752674 83.23699421965318,377.2681018380064 84.85549132947978,374.4088718494296 86.47398843930635,375.6796407332415 88.09248554913295,377.74464016943585 89.71098265895954,377.90348627991233 91.32947976878613,378.85656294277123 92.94797687861272,378.69771683229476 94.5664739884393,377.5063710037211 96.18497109826589,376.8709865618152 97.80346820809248,378.0623323903888 99.42196531791907,376.5532943408622 101.04046242774567,379.2536782189625 102.65895953757226,381.15983154468034 104.27745664739885,378.1417554456271 105.89595375722544,368.372719651323 107.51445086705202,366.54598938084337 109.13294797687861,355.5856077579656 110.7514450867052,343.5927264169907 112.36994219653178,342.5602266988935 113.98843930635837,348.1198405655706 115.60693641618496,340.0981119865079 117.22543352601156,326.51676954076805 118.84393063583815,338.98618921317245 120.46242774566474,325.3254237121944 122.08092485549133,322.30734761314113 123.69942196531792,324.53119315981195 125.31791907514452,328.7406150874389 126.93641618497111,328.50234592172416 128.5549132947977,318.5744640169436 130.1734104046243,319.52754067980254 131.79190751445088,328.1052306455329 133.41040462427745,328.58176897696245 135.02890173410404,328.8994611979154 136.64739884393063,323.895808717906 138.26589595375722,331.28215285506275 139.88439306358381,343.19561114079943 141.5028901734104,343.35445725127596 143.121387283237,344.3869569693731 144.73988439306356,343.75157252746715 146.35838150289015,343.51330336175243 147.97687861271675,349.9465708360502 149.59537572254334,348.9934941731913 151.21387283236993,344.9429183560408 152.83236994219652,332.6323447941129 154.4508670520231,334.300228954116 156.0693641618497,331.4409989655392 157.6878612716763,328.4229228664859 159.3063583815029,327.7081153693417 160.92485549132948,322.8633089998088 162.54335260115607,327.78753842457996 164.16184971098266,313.01485015026645 165.78034682080926,296.7331238264263 167.39884393063585,280.7690897235392 169.01734104046244,286.4081266454545 170.63583815028903,303.32523741120065 172.25433526011562,305.86677517882447 173.87283236994222,310.3938893274044 175.49132947976878,297.4479313235705 177.10982658959537,279.57774389496547 178.72832369942196,283.2312044359247 180.34682080924856,276.5596677959122 181.96531791907515,284.50197331973663 183.58381502890174,289.50562579974604 185.20231213872833,296.25658549499684 186.8208092485549,294.8269705007085 188.43930635838151,293.3179324511818 190.05780346820808,283.62831971211597 191.67630057803467,293.1590863407053 193.29479768786126,290.06158718641376 194.91329479768785,279.2600516740125 196.53179190751445,281.8810124968745 198.15028901734104,294.9063935559467 199.76878612716763,301.5779301959592 201.38728323699422,303.9606218531066 203.0057803468208,308.2494668359718 204.6242774566474,307.3758132283511 206.242774566474,314.04734986836365 207.8612716763006,318.73331012742005 209.47976878612715,323.7369626074295 211.09826589595377,323.3398473312383 212.71676300578034,321.9896553921881 214.33526011560696,311.902927376931 215.95375722543352,320.71888650837616 217.5722543352601,321.35427095028217 219.1907514450867,323.10157816552356 220.8092485549133,318.4156179064671 222.4277456647399,314.2856190340784 224.04624277456648,304.51658323977426 225.66473988439307,306.8992748969216 227.28323699421964,306.8198518416834 228.90173410404626,312.1411965426458 230.52023121387282,318.9715792931348 232.13872832369944,320.4806173426615 233.757225433526,314.9210034759843 235.3757225433526,310.71158154835734 236.9942196531792,316.430041525511 238.61271676300578,309.5202357197837 240.23121387283237,310.1556201616896 241.84971098265896,303.4046604664389 243.46820809248555,292.20600967784634 245.08670520231215,273.85928391781187 246.70520231213874,253.68582788729773 248.3236994219653,233.98891018821305 249.94219653179192,255.83025037873034 251.56069364161849,259.8014031406426 253.17919075144508,243.8373690377554 254.79768786127167,249.79409818062373 256.41618497109823,250.8265978987209 258.0346820809249,253.2887126111065 259.6531791907514,231.05025714439796 261.27167630057806,206.58795613101864 262.8901734104046,179.66354040525374 264.50867052023125,194.59507479004372 266.1271676300578,166.47931323570506 267.74566473988443,138.99893612327247 269.36416184971097,105.32356070225677 270.98265895953756,116.04567315941972 272.60115606936415,90.78914159365799 274.21965317919074,68.1535708507582 275.83815028901734,108.89759818797768 277.4566473988439,138.84009001279594 279.0751445086705,126.76778561658273 280.6936416184971,105.085291536542 282.3121387283237,117.15759593275516 283.9306358381503,122.79663285467048 285.5491329479769,120.09624897657028 287.1676300578035,107.78567541464224 288.78612716763007,121.04932563942913 290.40462427745666,128.4356697765859 292.02312138728325,163.14354491569884 293.6416184971098,159.0135460433101 295.26011560693644,151.94489412710632 296.87861271676303,150.19758691186493 298.4971098265896,149.9593177461502 300.11560693641616,170.84758127380854 301.7341040462428,179.74296346049192 303.35260115606934,177.2014256928681 304.971098265896,174.50104181476783 306.5895953757225,175.13642625667376 308.2080924855491,170.29161988714083 309.8265895953757,167.03527462237278 311.44508670520236,162.90527574998407 313.0635838150289,155.91604688901856 314.6820809248555,160.919699369028 316.3005780346821,165.0496982414167 317.9190751445087,173.2302729309559 319.53757225433526,174.42161875952954 321.15606936416185,149.32393330424426 322.77456647398844,155.1218163366361 324.393063583815,142.2552813880405 326.0115606936416,150.5152791328179 327.6300578034682,167.67065906427877 329.2485549132948,158.6958538223571 330.86705202312135,161.31681464521915 332.485549132948,129.86528477087427 334.10404624277453,130.34182310230378 335.7225433526012,110.4860592927426 337.34104046242777,117.87240342989938 338.9595375722543,118.42836481656707 340.5780346820809,132.8039378146894 342.19653179190755,141.61989694613453 343.8150289017341,160.68143020331325 345.4335260115607,182.04623206240103 347.05202312138726,196.97776644719104 348.6705202312139,208.57353251197478 350.28901734104045,197.6925739443352 351.90751445086704,200.6312269881503 353.52601156069363,194.83334395575844 355.1445086705202,199.99584254624438 356.7630057803468,205.2377641919685 358.3815028901734,186.7321923214575 360.0,183.3964240014512 361.6184971098266,182.5227703938305 363.2369942196532,177.83681013477405 364.8554913294798,180.53719401287438 366.47398843930637,180.14007873668322 368.09248554913296,173.7862343176236 369.7109826589595,177.67796402429758 371.32947976878614,176.40719514048567 372.94797687861274,189.19430703384305 374.56647398843927,181.9668090071628 376.18497109826586,173.3096959861941 377.8034682080925,168.6237357271377 379.4219653179191,167.11469767761108 381.04046242774564,174.2627726490531 382.6589595375723,152.97739384520355 384.2774566473989,163.3023910261753 385.8959537572254,166.87642851189634 387.514450867052,163.3023910261753 389.13294797687865,179.42527123953897 390.7514450867052,164.57315990998723 392.3699421965318,168.5443126718995 393.9884393063584,158.13989243568938 395.60693641618496,159.8871996509308 397.22543352601156,160.52258409283672 398.84393063583815,160.68143020331325 400.46242774566474,169.65623544523493 402.08092485549133,187.2881537081252 403.6994219653179,189.03546092336657 405.31791907514446,181.33142456525687 406.9364161849711,182.44334733859228 408.5549132947977,177.59854096905937 410.1734104046243,182.68161650430702 411.7919075144509,182.2845012281158 413.4104046242775,184.98488510621613 415.02890173410407,182.99930872526 416.6473988439306,191.81526785670516 418.26589595375725,186.7321923214575 419.88439306358384,185.8585387138368 421.5028901734104,183.317000946213 423.12138728323697,186.09680787955156 424.7398843930636,188.55892259193712 426.35838150289015,196.8983433919528 427.97687861271675,203.72872614244184 429.59537572254334,207.93814807006882 431.21387283236993,206.1114177995892 432.8323699421965,203.88757225291832 434.4508670520231,206.74680224149512 436.0693641618497,205.79372557863618 437.6878612716763,205.07891808149196 439.3063583815029,206.58795613101864 440.9248554913295,209.68545528531018 442.5433526011561,236.29217879012216 444.16184971098266,241.61352349108455 445.78034682080926,228.42929632153593 447.39884393063585,225.1729510567679 449.01734104046244,200.07526560148258 450.63583815028903,183.63469316716595 452.25433526011557,181.64911678620985 453.8728323699422,184.19065455383367 455.4913294797688,170.68873516333204 457.10982658959534,185.8585387138368 458.72832369942194,185.30257732716908 460.3468208092486,182.68161650430702 461.9653179190751,183.07873178049823 463.5838150289017,191.5769986909904 465.20231213872836,189.27373008908134 466.8208092485549,199.2016119938619 468.4393063583815,198.88391977290894 470.0578034682081,197.45430477862052 471.6763005780347,187.92353815003113 473.29479768786126,190.5444989728932 474.91329479768785,190.38565286241675 476.53179190751445,199.2016119938619 478.15028901734104,196.2629589500468 479.76878612716763,199.83699643576784 481.3872832369942,197.613150889097 483.0057803468208,205.63487946815968 484.6242774566474,206.6673791862569 486.242774566474,205.4760333576832 487.8612716763006,201.98141892720048 489.4797687861272,204.44353363958604 491.0982658959538,206.58795613101864 492.7167630057803,213.73603110246066 494.33526011560696,209.84430139578666 495.95375722543355,213.25949277103118 497.5722543352601,215.16564609674907 499.1907514450867,209.2089169538807 500.8092485549133,214.13314637865187 502.4277456647399,212.46526221864877 504.0462427745665,212.30641610817224 505.66473988439304,209.0500708434042 507.28323699421964,209.36776306435723 508.9017341040462,208.8118016776895 510.5202312138728,214.45083859960488 512.1387283236994,213.57718499198415 513.7572254335261,215.32449220722557 515.3757225433526,219.21622191389952 516.9942196531792,217.38949164341994 518.6127167630058,219.13679885866128 520.2312138728323,218.8191066377083 521.849710982659,222.4725671786676 523.4682080924856,227.3173735482005 525.0867052023123,222.39314412342932 526.7052023121387,217.2306455329434 528.3236994219653,206.1908408548274 529.942196531792,210.0825705615014 531.5606936416185,209.36776306435723 533.179190751445,203.80814919768008 534.7976878612717,196.3423820052851 536.4161849710982,207.14391751768636 538.0346820809248,207.14391751768636 539.6531791907514,210.71795500340733 541.2716763005781,212.38583916341048 542.8901734104047,209.6060322300719 544.5086705202312,211.75045472150452 546.1271676300578,209.84430139578666 547.7456647398844,207.0644944624481 549.364161849711,208.97064778816596 550.9826589595375,209.28834000911894 552.6011560693642,208.17641723578353 554.2196531791908,203.96699530815658 555.8381502890174,205.396610302445 557.4566473988439,205.3171872472067 559.0751445086705,205.79372557863618 560.6936416184972,207.14391751768636 562.3121387283237,203.80814919768008 563.9306358381502,198.24853533100293 565.5491329479769,200.5518039329121 567.1676300578034,193.72142118242297 568.78612716763,198.16911227576472 570.4046242774566,204.44353363958604 572.0231213872833,202.9344955900594 573.6416184971099,204.28468752910956 575.2601156069364,203.56988003196534 576.878612716763,199.5987272700531 578.4971098265896,195.7069975633791 580.1156069364162,202.61680336910644 581.7341040462427,201.26661143005623 583.3526011560693,198.40738144147946 584.971098265896,196.10411283957038 586.5895953757226,199.67815032529134 588.2080924855491,193.72142118242297 589.8265895953757,190.86219119384617 591.4450867052024,190.30622980717845 593.0635838150289,184.34950066431014 594.6820809248555,188.08238426050764 596.3005780346821,179.5841173500155 597.9190751445086,177.9956562452506 599.5375722543353,166.71758240141983 601.1560693641618,175.05700320143552 602.7745664739884,166.55873629094336 604.3930635838151,171.72123488142927 606.0115606936416,175.85123375381795 607.6300578034682,186.255653990028 609.2485549132948,198.01026616528824 610.8670520231213,204.99949502625375 612.485549132948,199.5987272700531 614.1040462427745,199.43988115957666 615.7225433526012,206.1908408548274 617.3410404624278,206.2702639100657 618.9595375722542,198.08968922052645 620.5780346820809,194.75392090052017 622.1965317919075,166.63815934618157 623.8150289017341,175.85123375381795 625.4335260115607,178.7104637423948 627.0520231213873,176.64546430620038 628.6705202312138,186.89103843193396 630.2890173410404,182.60219344906875 631.907514450867,186.4145001005045 633.5260115606936,174.58046487000604 635.1445086705203,177.36027180334463 636.7630057803468,185.93796176907506 638.3815028901734,187.36757676336342 640.0,181.5696937309716 641.6184971098265,176.40719514048567 643.2369942196532,189.51199925479605 644.8554913294798,184.11123149859543 646.4739884393064,195.38930534242616 648.092485549133,193.95969034813774 649.7109826589596,198.16911227576472 651.3294797687861,206.50853307578043 652.9479768786127,204.12584141863306 654.5664739884393,201.26661143005623 656.1849710982659,201.4254575405328 657.8034682080926,202.9344955900594 659.421965317919,196.2629589500468 661.0404624277456,195.94526672909387 662.6589595375723,199.83699643576784 664.2774566473988,198.24853533100293 665.8959537572255,202.29911114815343 667.514450867052,204.44353363958604 669.1329479768785,205.4760333576832 670.7514450867052,208.09699418054527 672.3699421965317,211.5121855557898 673.9884393063584,209.44718611959547 675.606936416185,213.10064666055473 677.2254335260116,211.82987777674276 678.8439306358382,212.9418005500782 680.4624277456647,218.18372219580237 682.0809248554913,217.54833775389636 683.6994219653179,220.88410607390264 685.3179190751446,220.40756774247322 686.9364161849711,215.4039152624638 688.5549132947978,220.0898755215202 690.1734104046243,220.88410607390264 691.7919075144508,229.77948826058608 693.4104046242775,226.6025660510563 695.028901734104,225.49064327772086 696.6473988439307,216.91295331199044 698.2658959537573,221.36064440533215 699.8843930635837,219.6133371900908 701.5028901734104,216.118722759608 703.121387283237,220.5664138529497 704.7398843930636,223.9816052281942 706.3583815028902,223.9816052281942 707.9768786127167,223.02852856533528 709.5953757225434,221.1223752396174 711.2138728323699,218.10429914056408 712.8323699421965,221.1223752396174 714.4508670520231,225.49064327772086 716.0693641618498,223.02852856533528 717.6878612716763,227.476219658677 719.306358381503,233.83006407773655 720.9248554913295,231.52679547582744 722.543352601156,233.5917949120218 724.1618497109827,231.2091032548745 725.7803468208092,229.85891131582432 727.3988439306358,232.00333380725692 729.0173410404625,224.8552588358149 730.6358381502889,222.31372106819106 732.2543352601156,223.66391300724126 733.8728323699422,224.37872050438546 735.4913294797688,225.49064327772086 737.1098265895954,227.63506576915347 738.728323699422,221.20179829485565 740.3468208092486,218.8191066377083 741.9653179190751,218.10429914056408 743.5838150289018,216.83353025675223 745.2023121387283,215.64218442817852 746.820809248555,211.75045472150452 748.4393063583815,220.32814468723492 750.0578034682081,218.6602605272318 751.6763005780347,214.60968471008135 753.2947976878612,204.20526447387127 754.9132947976879,210.47968583769267 756.5317919075145,208.97064778816596 758.150289017341,202.61680336910644 759.7687861271677,206.3496869653039 761.3872832369942,205.79372557863618 763.0057803468208,214.6891077653196 764.6242774566474,207.0644944624481 766.2427745664739,202.14026503767693 767.8612716763006,212.14756999769574 769.4797687861272,214.9273769310343 771.0982658959538,227.71448882439174 772.7167630057803,222.94910551009704 774.335260115607,226.04660466438858 775.9537572254335,228.03218104534471 777.5722543352601,228.90583465296538 779.1907514450867,224.21987439390898 780.8092485549133,226.04660466438858 782.4277456647399,226.84083521677104 784.0462427745664,226.04660466438858 785.664739884393,229.14410381868015 787.2832369942197,226.99968132724754 788.9017341040462,225.3317971672444 790.5202312138729,224.14045133867072 792.1387283236994,225.49064327772086 793.757225433526,233.7506410224983 795.3757225433526,243.44025376156415 796.9942196531792,243.99621514823187 798.6127167630058,242.01063876727574 800.2312138728324,241.45467738060802 801.849710982659,241.61352349108455 803.4682080924855,226.12602771962682 805.0867052023121,230.65314186820677 806.7052023121387,232.71814130440112 808.3236994219653,235.8950635139309 809.942196531792,229.93833437106255 811.5606936416185,236.4510249005986 813.179190751445,234.06833324345126 814.7976878612717,238.516024336793 816.4161849710982,245.02871486632907 818.0346820809249,259.0071725882601 819.6531791907514,256.2273656549215 821.2716763005781,252.73275122443877 822.8901734104046,257.33928842825696 824.5086705202311,256.78332704158925 826.1271676300578,257.73640370444815 827.7456647398844,261.3104411901692 829.364161849711,259.2454417539749 830.9826589595376,266.23467061494034 832.6011560693642,269.09390060351717 834.2196531791907,267.4260164435141 835.8381502890173,257.49813453873344 837.4566473988439,259.8014031406426 839.0751445086705,258.2129420358777 840.6936416184972,258.6100573120689 842.3121387283237,255.5125581577774 843.9306358381502,258.13351898063945 845.5491329479769,256.5450578758746 847.1676300578034,254.48005843968014 848.7861271676301,253.92409705301242 850.4046242774567,256.06851954444505 852.0231213872833,252.01794372729458 853.6416184971098,251.7002515063416 855.2601156069364,249.9529442911002 856.878612716763,242.56660015394345 858.4971098265896,248.76159846252656 860.1156069364162,251.62082845110334 861.7341040462428,247.88794485490587 863.3526011560695,238.43660128155477 864.9710982658959,238.67487044726946 866.5895953757225,239.62794711012845 868.2080924855492,235.259679072025 869.8265895953757,239.38967794441368 871.4450867052024,235.57737129297794 873.0635838150289,241.6929465463228 874.6820809248554,243.28140765108768 876.3005780346821,242.9637154301347 877.9190751445086,239.07198572346073 879.5375722543353,235.41852518250144 881.1560693641619,250.03236734633848 882.7745664739884,241.13698515965507 884.393063583815,232.95641047011588 886.0115606936416,238.9925626682225 887.6300578034682,236.13333267964566 889.2485549132948,228.66756548725064 890.8670520231213,245.981791529188 892.485549132948,259.8808261958808 894.1040462427746,262.26351785302813 895.7225433526012,259.32486480921307 897.3410404624277,248.2850601310971 898.9595375722544,257.49813453873344 900.5780346820809,267.108324222561 902.1965317919075,260.7544798035015 903.8150289017342,265.83755533874915 905.4335260115606,267.50543949875225 907.0520231213873,266.79063200160806 908.6705202312139,260.11909536159556 910.2890173410404,257.9746728701629 911.9075144508671,253.68582788729773 913.5260115606936,252.73275122443877 915.1445086705202,253.44755872158296 916.7630057803468,231.2091032548745 918.3815028901734,230.81198797868325 920.0,222.07545190247637" stroke="#58a6ff" stroke-width="1.8" fill="none"/>
<line x1="80" y1="228.66756548725064" x2="920" y2="228.66756548725064" stroke="#f0883e" stroke-width="2" stroke-dasharray="8,4"/>
<text x="925" y="233.66756548725064" font-size="11" fill="#f0883e" font-weight="bold">━ 颈线 31.12</text>
<line x1="80" y1="188.2412303709841" x2="920" y2="188.2412303709841" stroke="#a371f7" stroke-width="1.5" stroke-dasharray="5,5"/>
<text x="925" y="193.2412303709841" font-size="11" fill="#a371f7" font-weight="bold">▼ 目标 36.21 (+13.3%)</text>
<circle cx="832.6011560693642" cy="269.09390060351717" r="7" fill="#238636" stroke="#fff" stroke-width="2"/>
<text x="832.6011560693642" y="289.09390060351717" text-anchor="middle" font-size="10" fill="#3fb950">左底 ¥26.03</text>
<circle cx="905.4335260115606" cy="267.50543949875225" r="7" fill="#8957e5" stroke="#fff" stroke-width="2"/>
<text x="905.4335260115606" y="287.50543949875225" text-anchor="middle" font-size="10" fill="#bc8cff">右底 ¥26.23</text>
<circle cx="920.0" cy="228.66756548725064" r="8" fill="#f0883e" stroke="#fff" stroke-width="2.5"/>
<text x="920.0" y="214.66756548725064" text-anchor="middle" font-size="11" fill="#f0883e" font-weight="bold">★ 突破</text>
<line x1="920.0" y1="222.07545190247637" x2="920" y2="222.07545190247637" stroke="#88ccff" stroke-width="1.5"/>
<text x="925" y="227.07545190247637" font-size="11" fill="#88ccff" font-weight="bold">● 现价 31.95</text>
<text x="80" y="618" font-size="13" fill="#58a6ff" font-weight="bold">评分原因 (总分: 60):</text>
<text x="90" y="636" font-size="11" fill="#c9d1d9">1. 刚刚突破(0天前)</text>
<text x="90" y="652" font-size="11" fill="#c9d1d9">2. 形态跨度大(45根K线)</text>
<text x="90" y="668" font-size="11" fill="#c9d1d9">3. 右底高于左底</text>
<text x="90" y="684" font-size="11" fill="#c9d1d9">4. 振幅理想(19.6%)</text>
<text x="928" y="80" font-size="10" fill="#8b949e">突破日: 2026-06-25</text>
<text x="928" y="96" font-size="10" fill="#8b949e">突破后涨幅: 2.7%</text>
<text x="928" y="112" font-size="10" fill="#8b949e">目标空间: 13.3%</text>
<text x="928" y="128" font-size="10" fill="#8b949e">形态跨度: 45根K线</text>
</svg>