<svg xmlns="http://www.w3.org/2000/svg" viewBox="0 0 1000 720" width="1000" height="720">
<rect width="1000" height="720" fill="#0d1117"/>
<text x="500.0" y="24" text-anchor="middle" font-size="17" fill="#58a6ff" font-weight="bold">宁波韵升 (600366.SH)  W双底突破</text>
<text x="500.0" y="44" text-anchor="middle" font-size="13" fill="#8b949e">评分:60/100 | 突破后涨幅:2.3% | 目标空间:15.0%</text>
<line x1="80" y1="384.0" x2="920" y2="384.0" stroke="#21262d" stroke-width="0.5"/>
<text x="72" y="388.0" text-anchor="end" font-size="10" fill="#8b949e">4.89</text>
<line x1="80" y1="319.2" x2="920" y2="319.2" stroke="#21262d" stroke-width="0.5"/>
<text x="72" y="323.2" text-anchor="end" font-size="10" fill="#8b949e">7.52</text>
<line x1="80" y1="254.4" x2="920" y2="254.4" stroke="#21262d" stroke-width="0.5"/>
<text x="72" y="258.4" text-anchor="end" font-size="10" fill="#8b949e">10.15</text>
<line x1="80" y1="189.6" x2="920" y2="189.6" stroke="#21262d" stroke-width="0.5"/>
<text x="72" y="193.6" text-anchor="end" font-size="10" fill="#8b949e">12.78</text>
<line x1="80" y1="124.79999999999998" x2="920" y2="124.79999999999998" stroke="#21262d" stroke-width="0.5"/>
<text x="72" y="128.79999999999998" text-anchor="end" font-size="10" fill="#8b949e">15.41</text>
<line x1="80" y1="60.0" x2="920" y2="60.0" stroke="#21262d" stroke-width="0.5"/>
<text x="72" y="64.0" text-anchor="end" font-size="10" fill="#8b949e">18.04</text>
<text x="80.0" y="550.1999999999999" text-anchor="middle" font-size="9" fill="#8b949e">2024-05-06</text>
<text x="185.20231213872833" y="550.1999999999999" text-anchor="middle" font-size="9" fill="#8b949e">2024-08-06</text>
<text x="290.40462427745666" y="550.1999999999999" text-anchor="middle" font-size="9" fill="#8b949e">2024-11-14</text>
<text x="395.60693641618496" y="550.1999999999999" text-anchor="middle" font-size="9" fill="#8b949e">2025-02-24</text>
<text x="500.8092485549133" y="550.1999999999999" text-anchor="middle" font-size="9" fill="#8b949e">2025-05-30</text>
<text x="606.0115606936416" y="550.1999999999999" text-anchor="middle" font-size="9" fill="#8b949e">2025-09-01</text>
<text x="711.2138728323699" y="550.1999999999999" text-anchor="middle" font-size="9" fill="#8b949e">2025-12-09</text>
<text x="816.4161849710982" y="550.1999999999999" text-anchor="middle" font-size="9" fill="#8b949e">2026-03-20</text>
<rect x="690.1734104046243" y="60" width="229.8265895953757" height="475.2" fill="#238636" opacity="0.08" rx="3"/>
<text x="805.0867052023121" y="54" text-anchor="middle" font-size="11" fill="#3fb950" font-weight="bold">▼ 双底区域 ▼</text>
<rect x="79.5" y="531.4179708626826" width="1" height="3.782029137317295" fill="#3fb950" opacity="0.45"/>
<rect x="81.11849710982659" y="532.1566208494008" width="1" height="3.043379150599094" fill="#3fb950" opacity="0.45"/>
<rect x="82.73699421965318" y="532.1471865634196" width="1" height="3.0528134365803226" fill="#f85149" opacity="0.45"/>
<rect x="84.35549132947978" y="531.6229115253836" width="1" height="3.577088474616289" fill="#3fb950" opacity="0.45"/>
<rect x="85.97398843930635" y="532.3565558925816" width="1" height="2.8434441074183496" fill="#f85149" opacity="0.45"/>
<rect x="87.59248554913295" y="530.920680833526" width="1" height="4.279319166473897" fill="#f85149" opacity="0.45"/>
<rect x="89.21098265895954" y="532.3657855651554" width="1" height="2.8342144348445117" fill="#f85149" opacity="0.45"/>
<rect x="90.82947976878613" y="533.0553425214778" width="1" height="2.144657478522163" fill="#f85149" opacity="0.45"/>
<rect x="92.44797687861272" y="532.8686001563108" width="1" height="2.331399843689155" fill="#f85149" opacity="0.45"/>
<rect x="94.0664739884393" y="532.5591944179936" width="1" height="2.640805582006351" fill="#3fb950" opacity="0.45"/>
<rect x="95.68497109826589" y="532.1504405156189" width="1" height="3.0495594843810068" fill="#3fb950" opacity="0.45"/>
<rect x="97.30346820809248" y="531.2274102032529" width="1" height="3.972589796747002" fill="#f85149" opacity="0.45"/>
<rect x="98.92196531791907" y="532.8293235250698" width="1" height="2.3706764749301783" fill="#3fb950" opacity="0.45"/>
<rect x="100.54046242774567" y="532.3413709925014" width="1" height="2.8586290074985072" fill="#f85149" opacity="0.45"/>
<rect x="102.15895953757226" y="533.5799473370546" width="1" height="1.6200526629453407" fill="#f85149" opacity="0.45"/>
<rect x="103.77745664739885" y="532.1750206075933" width="1" height="3.0249793924066353" fill="#3fb950" opacity="0.45"/>
<rect x="105.39595375722544" y="532.8383555202839" width="1" height="2.3616444797160057" fill="#f85149" opacity="0.45"/>
<rect x="107.01445086705202" y="532.2390138448384" width="1" height="2.9609861551615495" fill="#3fb950" opacity="0.45"/>
<rect x="108.63294797687861" y="533.1142623551001" width="1" height="2.0857376448998366" fill="#f85149" opacity="0.45"/>
<rect x="110.2514450867052" y="533.4946843942407" width="1" height="1.7053156057592105" fill="#f85149" opacity="0.45"/>
<rect x="111.86994219653178" y="532.0506405626356" width="1" height="3.1493594373642964" fill="#f85149" opacity="0.45"/>
<rect x="113.48843930635837" y="532.6679790749567" width="1" height="2.5320209250431844" fill="#f85149" opacity="0.45"/>
<rect x="115.10693641618496" y="532.4521541770288" width="1" height="2.7478458229711578" fill="#f85149" opacity="0.45"/>
<rect x="116.72543352601156" y="531.1281711243092" width="1" height="4.071828875690699" fill="#f85149" opacity="0.45"/>
<rect x="118.34393063583815" y="532.5546970216053" width="1" height="2.645302978394625" fill="#3fb950" opacity="0.45"/>
<rect x="119.96242774566474" y="532.8957582511078" width="1" height="2.304241748892082" fill="#3fb950" opacity="0.45"/>
<rect x="121.58092485549133" y="533.4617627590738" width="1" height="1.7382372409260824" fill="#3fb950" opacity="0.45"/>
<rect x="123.19942196531792" y="533.3062751706998" width="1" height="1.8937248293001403" fill="#f85149" opacity="0.45"/>
<rect x="124.81791907514452" y="532.7480251640702" width="1" height="2.451974835929718" fill="#f85149" opacity="0.45"/>
<rect x="126.43641618497111" y="533.208379478087" width="1" height="1.991620521912978" fill="#f85149" opacity="0.45"/>
<rect x="128.0549132947977" y="532.7166250455505" width="1" height="2.4833749544494594" fill="#3fb950" opacity="0.45"/>
<rect x="129.6734104046243" y="533.505833775655" width="1" height="1.69416622434494" fill="#f85149" opacity="0.45"/>
<rect x="131.29190751445088" y="532.6271021083448" width="1" height="2.5728978916550886" fill="#f85149" opacity="0.45"/>
<rect x="132.91040462427745" y="533.4740206470217" width="1" height="1.7259793529782428" fill="#f85149" opacity="0.45"/>
<rect x="134.52890173410404" y="531.5211953315838" width="1" height="3.6788046684160918" fill="#f85149" opacity="0.45"/>
<rect x="136.14739884393063" y="532.4412056257232" width="1" height="2.758794374276704" fill="#3fb950" opacity="0.45"/>
<rect x="137.76589595375722" y="532.4728415698651" width="1" height="2.727158430134864" fill="#3fb950" opacity="0.45"/>
<rect x="139.38439306358381" y="532.9561431671709" width="1" height="2.2438568328290103" fill="#f85149" opacity="0.45"/>
<rect x="141.0028901734104" y="532.7037530021056" width="1" height="2.496246997894332" fill="#3fb950" opacity="0.45"/>
<rect x="142.621387283237" y="528.3358778465314" width="1" height="6.864122153468543" fill="#3fb950" opacity="0.45"/>
<rect x="144.23988439306356" y="530.7264535270584" width="1" height="4.473546472941507" fill="#f85149" opacity="0.45"/>
<rect x="145.85838150289015" y="532.3296758702426" width="1" height="2.870324129757364" fill="#3fb950" opacity="0.45"/>
<rect x="147.47687861271675" y="532.5605311835517" width="1" height="2.639468816448243" fill="#f85149" opacity="0.45"/>
<rect x="149.09537572254334" y="533.1854854762553" width="1" height="2.0145145237446513" fill="#3fb950" opacity="0.45"/>
<rect x="150.71387283236993" y="532.525649169083" width="1" height="2.6743508309169783" fill="#f85149" opacity="0.45"/>
<rect x="152.33236994219652" y="532.3699307994851" width="1" height="2.8300692005147994" fill="#3fb950" opacity="0.45"/>
<rect x="153.9508670520231" y="529.9177582861957" width="1" height="5.282241713804183" fill="#3fb950" opacity="0.45"/>
<rect x="155.5693641618497" y="530.2758339559986" width="1" height="4.9241660440013675" fill="#3fb950" opacity="0.45"/>
<rect x="157.1878612716763" y="532.1321939810258" width="1" height="3.0678060189741245" fill="#3fb950" opacity="0.45"/>
<rect x="158.8063583815029" y="532.4625402779204" width="1" height="2.7374597220795067" fill="#3fb950" opacity="0.45"/>
<rect x="160.42485549132948" y="531.7615533455266" width="1" height="3.438446654473296" fill="#3fb950" opacity="0.45"/>
<rect x="162.04335260115607" y="532.0264807320973" width="1" height="3.173519267902634" fill="#f85149" opacity="0.45"/>
<rect x="163.66184971098266" y="532.3454206985376" width="1" height="2.8545793014623086" fill="#f85149" opacity="0.45"/>
<rect x="165.28034682080926" y="532.8426076328033" width="1" height="2.357392367196667" fill="#f85149" opacity="0.45"/>
<rect x="166.89884393063585" y="533.4201471033812" width="1" height="1.7798528966187632" fill="#3fb950" opacity="0.45"/>
<rect x="168.51734104046244" y="533.0368330476215" width="1" height="2.1631669523784467" fill="#f85149" opacity="0.45"/>
<rect x="170.13583815028903" y="532.8064645187515" width="1" height="2.3935354812484775" fill="#f85149" opacity="0.45"/>
<rect x="171.75433526011562" y="533.0755311494288" width="1" height="2.1244688505711338" fill="#3fb950" opacity="0.45"/>
<rect x="173.37283236994222" y="533.4249616663145" width="1" height="1.7750383336854156" fill="#3fb950" opacity="0.45"/>
<rect x="174.99132947976878" y="533.6091225606349" width="1" height="1.5908774393650447" fill="#f85149" opacity="0.45"/>
<rect x="176.60982658959537" y="533.1733004168084" width="1" height="2.0266995831915438" fill="#3fb950" opacity="0.45"/>
<rect x="178.22832369942196" y="532.099223793525" width="1" height="3.1007762064749613" fill="#3fb950" opacity="0.45"/>
<rect x="179.84682080924856" y="530.9415113611649" width="1" height="4.258488638835047" fill="#f85149" opacity="0.45"/>
<rect x="181.46531791907515" y="532.5943160413832" width="1" height="2.605683958616737" fill="#f85149" opacity="0.45"/>
<rect x="183.08381502890174" y="532.3282293890206" width="1" height="2.871770610979297" fill="#f85149" opacity="0.45"/>
<rect x="184.70231213872833" y="533.0013923660374" width="1" height="2.1986076339625242" fill="#3fb950" opacity="0.45"/>
<rect x="186.3208092485549" y="533.3609665374199" width="1" height="1.839033462580005" fill="#3fb950" opacity="0.45"/>
<rect x="187.93930635838151" y="533.3128833325152" width="1" height="1.8871166674847473" fill="#3fb950" opacity="0.45"/>
<rect x="189.55780346820808" y="533.5352498692556" width="1" height="1.6647501307443235" fill="#f85149" opacity="0.45"/>
<rect x="191.17630057803467" y="533.3841427102834" width="1" height="1.8158572897165186" fill="#f85149" opacity="0.45"/>
<rect x="192.79479768786126" y="533.6138592506691" width="1" height="1.5861407493308661" fill="#3fb950" opacity="0.45"/>
<rect x="194.41329479768785" y="533.6153435648783" width="1" height="1.5846564351215875" fill="#f85149" opacity="0.45"/>
<rect x="196.03179190751445" y="532.7554700654591" width="1" height="2.4445299345408102" fill="#3fb950" opacity="0.45"/>
<rect x="197.65028901734104" y="533.6021300787215" width="1" height="1.5978699212784022" fill="#f85149" opacity="0.45"/>
<rect x="199.26878612716763" y="533.0330525863462" width="1" height="2.166947413653702" fill="#3fb950" opacity="0.45"/>
<rect x="200.88728323699422" y="533.0116914510578" width="1" height="2.188308548942132" fill="#f85149" opacity="0.45"/>
<rect x="202.5057803468208" y="532.8673441011259" width="1" height="2.332655898874009" fill="#3fb950" opacity="0.45"/>
<rect x="204.1242774566474" y="533.2390216757573" width="1" height="1.9609783242426602" fill="#f85149" opacity="0.45"/>
<rect x="205.742774566474" y="533.2068819223321" width="1" height="1.993118077667873" fill="#f85149" opacity="0.45"/>
<rect x="207.3612716763006" y="532.0935327663814" width="1" height="3.1064672336185595" fill="#3fb950" opacity="0.45"/>
<rect x="208.97976878612715" y="532.899254334427" width="1" height="2.30074566557289" fill="#f85149" opacity="0.45"/>
<rect x="210.59826589595377" y="533.3606559916476" width="1" height="1.8393440083523274" fill="#3fb950" opacity="0.45"/>
<rect x="212.21676300578034" y="532.6000540444863" width="1" height="2.59994595551359" fill="#3fb950" opacity="0.45"/>
<rect x="213.83526011560696" y="532.1435864393846" width="1" height="3.056413560615283" fill="#3fb950" opacity="0.45"/>
<rect x="215.45375722543352" y="528.5008422829977" width="1" height="6.699157717002208" fill="#3fb950" opacity="0.45"/>
<rect x="217.0722543352601" y="531.7853521863093" width="1" height="3.4146478136906353" fill="#f85149" opacity="0.45"/>
<rect x="218.6907514450867" y="533.0755075038117" width="1" height="2.1244924961882816" fill="#3fb950" opacity="0.45"/>
<rect x="220.3092485549133" y="533.3697031200568" width="1" height="1.8302968799431483" fill="#f85149" opacity="0.45"/>
<rect x="221.9277456647399" y="532.6391796590522" width="1" height="2.560820340947771" fill="#f85149" opacity="0.45"/>
<rect x="223.54624277456648" y="532.6242785063782" width="1" height="2.5757214936216997" fill="#3fb950" opacity="0.45"/>
<rect x="225.16473988439307" y="533.1417972033977" width="1" height="2.058202796602245" fill="#3fb950" opacity="0.45"/>
<rect x="226.78323699421964" y="532.8663352214595" width="1" height="2.333664778540424" fill="#3fb950" opacity="0.45"/>
<rect x="228.40173410404626" y="533.4688570747787" width="1" height="1.7311429252212065" fill="#f85149" opacity="0.45"/>
<rect x="230.02023121387282" y="533.5301528200156" width="1" height="1.6698471799843446" fill="#f85149" opacity="0.45"/>
<rect x="231.63872832369944" y="533.3230298244861" width="1" height="1.8769701755138612" fill="#f85149" opacity="0.45"/>
<rect x="233.257225433526" y="532.8667255317804" width="1" height="2.3332744682195425" fill="#3fb950" opacity="0.45"/>
<rect x="234.8757225433526" y="532.9445542925519" width="1" height="2.255445707448075" fill="#3fb950" opacity="0.45"/>
<rect x="236.4942196531792" y="533.387547048608" width="1" height="1.812452951391947" fill="#f85149" opacity="0.45"/>
<rect x="238.11271676300578" y="531.1824538947645" width="1" height="4.017546105235397" fill="#3fb950" opacity="0.45"/>
<rect x="239.73121387283237" y="531.1417941525557" width="1" height="4.058205847444242" fill="#f85149" opacity="0.45"/>
<rect x="241.34971098265896" y="531.2288721329446" width="1" height="3.9711278670553156" fill="#3fb950" opacity="0.45"/>
<rect x="242.96820809248555" y="529.9675250590439" width="1" height="5.232474940956081" fill="#3fb950" opacity="0.45"/>
<rect x="244.58670520231215" y="523.9356157620136" width="1" height="11.264384237986292" fill="#3fb950" opacity="0.45"/>
<rect x="246.20520231213874" y="522.7592002770114" width="1" height="12.440799722988572" fill="#3fb950" opacity="0.45"/>
<rect x="247.8236994219653" y="524.8128593318157" width="1" height="10.387140668184202" fill="#f85149" opacity="0.45"/>
<rect x="249.44219653179192" y="528.636663653923" width="1" height="6.5633363460768805" fill="#f85149" opacity="0.45"/>
<rect x="251.06069364161849" y="529.1822055600536" width="1" height="6.017794439946329" fill="#f85149" opacity="0.45"/>
<rect x="252.67919075144508" y="529.7453268790978" width="1" height="5.454673120902157" fill="#3fb950" opacity="0.45"/>
<rect x="254.29768786127167" y="530.9587663562108" width="1" height="4.241233643789087" fill="#f85149" opacity="0.45"/>
<rect x="255.91618497109823" y="532.0341050249019" width="1" height="3.1658949750980128" fill="#3fb950" opacity="0.45"/>
<rect x="257.5346820809249" y="531.5347808421177" width="1" height="3.665219157882234" fill="#f85149" opacity="0.45"/>
<rect x="259.1531791907514" y="529.4831118024555" width="1" height="5.716888197544449" fill="#3fb950" opacity="0.45"/>
<rect x="260.77167630057806" y="529.1594751858928" width="1" height="6.04052481410713" fill="#3fb950" opacity="0.45"/>
<rect x="262.3901734104046" y="528.8532732710667" width="1" height="6.346726728933277" fill="#3fb950" opacity="0.45"/>
<rect x="264.00867052023125" y="530.2417328774467" width="1" height="4.958267122553252" fill="#3fb950" opacity="0.45"/>
<rect x="265.6271676300578" y="532.0664761901007" width="1" height="3.133523809899202" fill="#f85149" opacity="0.45"/>
<rect x="267.24566473988443" y="529.9608979807347" width="1" height="5.23910201926526" fill="#3fb950" opacity="0.45"/>
<rect x="268.86416184971097" y="530.4021359167209" width="1" height="4.797864083279023" fill="#3fb950" opacity="0.45"/>
<rect x="270.48265895953756" y="528.4072434719395" width="1" height="6.7927565280604085" fill="#f85149" opacity="0.45"/>
<rect x="272.10115606936415" y="530.6139933953604" width="1" height="4.586006604639579" fill="#3fb950" opacity="0.45"/>
<rect x="273.71965317919074" y="525.7426954833569" width="1" height="9.457304516643035" fill="#3fb950" opacity="0.45"/>
<rect x="275.33815028901734" y="516.4872558075315" width="1" height="18.71274419246845" fill="#3fb950" opacity="0.45"/>
<rect x="276.9566473988439" y="488.1612510115507" width="1" height="47.03874898844924" fill="#3fb950" opacity="0.45"/>
<rect x="278.5751445086705" y="493.4844358996951" width="1" height="41.715564100304846" fill="#3fb950" opacity="0.45"/>
<rect x="280.1936416184971" y="501.0624346843963" width="1" height="34.13756531560364" fill="#f85149" opacity="0.45"/>
<rect x="281.8121387283237" y="512.7172912946509" width="1" height="22.48270870534907" fill="#3fb950" opacity="0.45"/>
<rect x="283.4306358381503" y="514.5094304539582" width="1" height="20.69056954604173" fill="#f85149" opacity="0.45"/>
<rect x="285.0491329479769" y="522.7513474099073" width="1" height="12.448652590092593" fill="#3fb950" opacity="0.45"/>
<rect x="286.6676300578035" y="524.2718469801127" width="1" height="10.92815301988719" fill="#f85149" opacity="0.45"/>
<rect x="288.28612716763007" y="526.6169827204612" width="1" height="8.583017279538694" fill="#3fb950" opacity="0.45"/>
<rect x="289.90462427745666" y="526.8412705424165" width="1" height="8.358729457583422" fill="#f85149" opacity="0.45"/>
<rect x="291.52312138728325" y="528.3137985150304" width="1" height="6.886201484969547" fill="#f85149" opacity="0.45"/>
<rect x="293.1416184971098" y="528.0889141929723" width="1" height="7.111085807027621" fill="#f85149" opacity="0.45"/>
<rect x="294.76011560693644" y="528.9316688961007" width="1" height="6.268331103899186" fill="#3fb950" opacity="0.45"/>
<rect x="296.37861271676303" y="529.2077775068501" width="1" height="5.992222493149825" fill="#3fb950" opacity="0.45"/>
<rect x="297.9971098265896" y="530.4492272668035" width="1" height="4.750772733196413" fill="#3fb950" opacity="0.45"/>
<rect x="299.61560693641616" y="518.3609773905195" width="1" height="16.83902260948048" fill="#3fb950" opacity="0.45"/>
<rect x="301.2341040462428" y="525.1152092179653" width="1" height="10.084790782034588" fill="#f85149" opacity="0.45"/>
<rect x="302.85260115606934" y="528.3738394661821" width="1" height="6.82616053381787" fill="#f85149" opacity="0.45"/>
<rect x="304.471098265896" y="528.3036605354818" width="1" height="6.896339464518178" fill="#3fb950" opacity="0.45"/>
<rect x="306.0895953757225" y="530.694589323892" width="1" height="4.505410676107886" fill="#f85149" opacity="0.45"/>
<rect x="307.7080924855491" y="529.0298117642318" width="1" height="6.170188235768137" fill="#3fb950" opacity="0.45"/>
<rect x="309.3265895953757" y="528.3534235250312" width="1" height="6.846576474968742" fill="#3fb950" opacity="0.45"/>
<rect x="310.94508670520236" y="525.8254472616259" width="1" height="9.374552738374064" fill="#3fb950" opacity="0.45"/>
<rect x="312.5635838150289" y="525.1670700466713" width="1" height="10.032929953328676" fill="#f85149" opacity="0.45"/>
<rect x="314.1820809248555" y="527.2889315738544" width="1" height="7.911068426145562" fill="#3fb950" opacity="0.45"/>
<rect x="315.8005780346821" y="528.7646769267797" width="1" height="6.435323073220275" fill="#f85149" opacity="0.45"/>
<rect x="317.4190751445087" y="529.482647402534" width="1" height="5.717352597465947" fill="#f85149" opacity="0.45"/>
<rect x="319.03757225433526" y="520.7380870496979" width="1" height="14.461912950302008" fill="#3fb950" opacity="0.45"/>
<rect x="320.65606936416185" y="521.7011402489833" width="1" height="13.498859751016653" fill="#3fb950" opacity="0.45"/>
<rect x="322.27456647398844" y="527.2716617608884" width="1" height="7.928338239111554" fill="#f85149" opacity="0.45"/>
<rect x="323.893063583815" y="527.793058023851" width="1" height="7.406941976148914" fill="#f85149" opacity="0.45"/>
<rect x="325.5115606936416" y="524.2766246558834" width="1" height="10.923375344116494" fill="#3fb950" opacity="0.45"/>
<rect x="327.1300578034682" y="527.3017733509091" width="1" height="7.898226649090816" fill="#f85149" opacity="0.45"/>
<rect x="328.7485549132948" y="530.5759892135986" width="1" height="4.6240107864013" fill="#f85149" opacity="0.45"/>
<rect x="330.36705202312135" y="531.516893090356" width="1" height="3.683106909643925" fill="#f85149" opacity="0.45"/>
<rect x="331.985549132948" y="529.5633669188248" width="1" height="5.636633081175091" fill="#3fb950" opacity="0.45"/>
<rect x="333.60404624277453" y="530.2863222059564" width="1" height="4.913677794043565" fill="#f85149" opacity="0.45"/>
<rect x="335.2225433526012" y="532.314622124519" width="1" height="2.8853778754809127" fill="#3fb950" opacity="0.45"/>
<rect x="336.84104046242777" y="531.3430025910405" width="1" height="3.856997408959387" fill="#f85149" opacity="0.45"/>
<rect x="338.4595375722543" y="531.4051174204567" width="1" height="3.7948825795432413" fill="#3fb950" opacity="0.45"/>
<rect x="340.0780346820809" y="531.9991331570878" width="1" height="3.2008668429120917" fill="#3fb950" opacity="0.45"/>
<rect x="341.69653179190755" y="531.6356735378898" width="1" height="3.5643264621101025" fill="#f85149" opacity="0.45"/>
<rect x="343.3150289017341" y="530.3114105210627" width="1" height="4.888589478937206" fill="#f85149" opacity="0.45"/>
<rect x="344.9335260115607" y="530.2943541492012" width="1" height="4.905645850798692" fill="#f85149" opacity="0.45"/>
<rect x="346.55202312138726" y="529.4960900935401" width="1" height="5.703909906459785" fill="#f85149" opacity="0.45"/>
<rect x="348.1705202312139" y="531.3607563509715" width="1" height="3.83924364902839" fill="#3fb950" opacity="0.45"/>
<rect x="349.78901734104045" y="530.878993610432" width="1" height="4.32100638956797" fill="#3fb950" opacity="0.45"/>
<rect x="351.40751445086704" y="529.6643081669308" width="1" height="5.535691833069109" fill="#f85149" opacity="0.45"/>
<rect x="353.02601156069363" y="531.5657339008353" width="1" height="3.63426609916462" fill="#3fb950" opacity="0.45"/>
<rect x="354.6445086705202" y="524.1826213471338" width="1" height="11.017378652866114" fill="#3fb950" opacity="0.45"/>
<rect x="356.2630057803468" y="525.1280364923749" width="1" height="10.071963507625014" fill="#f85149" opacity="0.45"/>
<rect x="357.8815028901734" y="523.3484887818552" width="1" height="11.851511218144765" fill="#3fb950" opacity="0.45"/>
<rect x="359.5" y="526.4155318355816" width="1" height="8.784468164418286" fill="#f85149" opacity="0.45"/>
<rect x="361.1184971098266" y="525.8297208128381" width="1" height="9.370279187161827" fill="#3fb950" opacity="0.45"/>
<rect x="362.7369942196532" y="529.6782729531644" width="1" height="5.521727046835508" fill="#f85149" opacity="0.45"/>
<rect x="364.3554913294798" y="529.5147234704303" width="1" height="5.685276529569592" fill="#f85149" opacity="0.45"/>
<rect x="365.97398843930637" y="529.6252099812809" width="1" height="5.574790018719" fill="#f85149" opacity="0.45"/>
<rect x="367.59248554913296" y="530.9499367674797" width="1" height="4.250063232520233" fill="#f85149" opacity="0.45"/>
<rect x="369.2109826589595" y="530.110794799382" width="1" height="5.089205200617926" fill="#f85149" opacity="0.45"/>
<rect x="370.82947976878614" y="530.585523126447" width="1" height="4.614476873552917" fill="#3fb950" opacity="0.45"/>
<rect x="372.44797687861274" y="530.5137539491723" width="1" height="4.686246050827663" fill="#f85149" opacity="0.45"/>
<rect x="374.06647398843927" y="525.0834455874907" width="1" height="10.116554412509231" fill="#3fb950" opacity="0.45"/>
<rect x="375.68497109826586" y="509.7197228475077" width="1" height="25.48027715249225" fill="#3fb950" opacity="0.45"/>
<rect x="377.3034682080925" y="510.30250376322783" width="1" height="24.8974962367721" fill="#3fb950" opacity="0.45"/>
<rect x="378.9219653179191" y="522.2091925019821" width="1" height="12.99080749801783" fill="#f85149" opacity="0.45"/>
<rect x="380.54046242774564" y="525.5692403786724" width="1" height="9.63075962132757" fill="#f85149" opacity="0.45"/>
<rect x="382.1589595375723" y="525.949489962445" width="1" height="9.250510037554932" fill="#f85149" opacity="0.45"/>
<rect x="383.7774566473989" y="526.0833654567136" width="1" height="9.116634543286295" fill="#f85149" opacity="0.45"/>
<rect x="385.3959537572254" y="529.4092192487578" width="1" height="5.790780751242096" fill="#f85149" opacity="0.45"/>
<rect x="387.014450867052" y="527.7354948181052" width="1" height="7.464505181894765" fill="#3fb950" opacity="0.45"/>
<rect x="388.63294797687865" y="525.2999940413044" width="1" height="9.900005958695488" fill="#f85149" opacity="0.45"/>
<rect x="390.2514450867052" y="519.6388886921693" width="1" height="15.561111307830629" fill="#3fb950" opacity="0.45"/>
<rect x="391.8699421965318" y="511.3760258179695" width="1" height="23.82397418203044" fill="#3fb950" opacity="0.45"/>
<rect x="393.4884393063584" y="508.4062255225467" width="1" height="26.793774477453212" fill="#3fb950" opacity="0.45"/>
<rect x="395.10693641618496" y="516.1945662594634" width="1" height="19.005433740536546" fill="#f85149" opacity="0.45"/>
<rect x="396.72543352601156" y="521.2842651805682" width="1" height="13.915734819431691" fill="#f85149" opacity="0.45"/>
<rect x="398.34393063583815" y="520.8447458080389" width="1" height="14.35525419196108" fill="#3fb950" opacity="0.45"/>
<rect x="399.96242774566474" y="522.4952360552472" width="1" height="12.704763944752699" fill="#f85149" opacity="0.45"/>
<rect x="401.58092485549133" y="522.6890298587332" width="1" height="12.51097014126674" fill="#f85149" opacity="0.45"/>
<rect x="403.1994219653179" y="519.9292568711799" width="1" height="15.270743128820072" fill="#3fb950" opacity="0.45"/>
<rect x="404.81791907514446" y="520.9587249341848" width="1" height="14.241275065815103" fill="#3fb950" opacity="0.45"/>
<rect x="406.4364161849711" y="523.6530247841322" width="1" height="11.546975215867747" fill="#3fb950" opacity="0.45"/>
<rect x="408.0549132947977" y="521.9960931555281" width="1" height="13.203906844471817" fill="#3fb950" opacity="0.45"/>
<rect x="409.6734104046243" y="517.8695937212603" width="1" height="17.330406278739588" fill="#3fb950" opacity="0.45"/>
<rect x="411.2919075144509" y="524.7128692680703" width="1" height="10.487130731929597" fill="#f85149" opacity="0.45"/>
<rect x="412.9104046242775" y="526.7682724235981" width="1" height="8.43172757640184" fill="#3fb950" opacity="0.45"/>
<rect x="414.52890173410407" y="524.7298487128572" width="1" height="10.470151287142698" fill="#3fb950" opacity="0.45"/>
<rect x="416.1473988439306" y="524.7034636721046" width="1" height="10.496536327895342" fill="#f85149" opacity="0.45"/>
<rect x="417.76589595375725" y="528.3490260707849" width="1" height="6.850973929215002" fill="#3fb950" opacity="0.45"/>
<rect x="419.38439306358384" y="529.6180894977598" width="1" height="5.5819105022401345" fill="#f85149" opacity="0.45"/>
<rect x="421.0028901734104" y="530.1105665403575" width="1" height="5.089433459642464" fill="#f85149" opacity="0.45"/>
<rect x="422.62138728323697" y="524.0582204940331" width="1" height="11.141779505966838" fill="#3fb950" opacity="0.45"/>
<rect x="424.2398843930636" y="526.3556469455033" width="1" height="8.84435305449665" fill="#f85149" opacity="0.45"/>
<rect x="425.85838150289015" y="526.1831940997124" width="1" height="9.016805900287522" fill="#f85149" opacity="0.45"/>
<rect x="427.47687861271675" y="529.0457813835276" width="1" height="6.154218616472349" fill="#f85149" opacity="0.45"/>
<rect x="429.09537572254334" y="531.1848752059641" width="1" height="4.015124794035842" fill="#f85149" opacity="0.45"/>
<rect x="430.71387283236993" y="526.2028158634009" width="1" height="8.997184136599003" fill="#3fb950" opacity="0.45"/>
<rect x="432.3323699421965" y="529.8936564662382" width="1" height="5.306343533761719" fill="#f85149" opacity="0.45"/>
<rect x="433.9508670520231" y="529.9115413805259" width="1" height="5.2884586194739995" fill="#f85149" opacity="0.45"/>
<rect x="435.5693641618497" y="530.7590497985328" width="1" height="4.440950201467103" fill="#f85149" opacity="0.45"/>
<rect x="437.1878612716763" y="532.1756085952738" width="1" height="3.0243914047260887" fill="#3fb950" opacity="0.45"/>
<rect x="438.8063583815029" y="532.0287901207089" width="1" height="3.171209879291041" fill="#3fb950" opacity="0.45"/>
<rect x="440.4248554913295" y="531.2660282252366" width="1" height="3.933971774763336" fill="#f85149" opacity="0.45"/>
<rect x="442.0433526011561" y="528.0000697273424" width="1" height="7.199930272657525" fill="#f85149" opacity="0.45"/>
<rect x="443.66184971098266" y="524.2160521512574" width="1" height="10.98394784874256" fill="#3fb950" opacity="0.45"/>
<rect x="445.28034682080926" y="525.380629694473" width="1" height="9.819370305526945" fill="#f85149" opacity="0.45"/>
<rect x="446.89884393063585" y="526.5238839353877" width="1" height="8.676116064612188" fill="#3fb950" opacity="0.45"/>
<rect x="448.51734104046244" y="529.9863119748084" width="1" height="5.213688025191573" fill="#f85149" opacity="0.45"/>
<rect x="450.13583815028903" y="530.4176026725579" width="1" height="4.782397327442027" fill="#3fb950" opacity="0.45"/>
<rect x="451.75433526011557" y="531.0244939206576" width="1" height="4.175506079342313" fill="#f85149" opacity="0.45"/>
<rect x="453.3728323699422" y="530.3158937300807" width="1" height="4.8841062699192435" fill="#f85149" opacity="0.45"/>
<rect x="454.9913294797688" y="531.3847907021013" width="1" height="3.8152092978986047" fill="#f85149" opacity="0.45"/>
<rect x="456.60982658959534" y="531.6705104680484" width="1" height="3.5294895319515263" fill="#f85149" opacity="0.45"/>
<rect x="458.22832369942194" y="531.0748486811865" width="1" height="4.125151318813437" fill="#3fb950" opacity="0.45"/>
<rect x="459.8468208092486" y="530.9434421046267" width="1" height="4.256557895373248" fill="#f85149" opacity="0.45"/>
<rect x="461.4653179190751" y="525.5721910364219" width="1" height="9.62780896357799" fill="#3fb950" opacity="0.45"/>
<rect x="463.0838150289017" y="528.6193421358743" width="1" height="6.580657864125669" fill="#f85149" opacity="0.45"/>
<rect x="464.70231213872836" y="530.5779549525739" width="1" height="4.622045047426013" fill="#3fb950" opacity="0.45"/>
<rect x="466.3208092485549" y="531.0958753098105" width="1" height="4.104124690189451" fill="#f85149" opacity="0.45"/>
<rect x="467.9393063583815" y="530.8173636738055" width="1" height="4.382636326194415" fill="#3fb950" opacity="0.45"/>
<rect x="469.5578034682081" y="527.209544724548" width="1" height="7.99045527545195" fill="#3fb950" opacity="0.45"/>
<rect x="471.1763005780347" y="518.7195470960839" width="1" height="16.48045290391599" fill="#3fb950" opacity="0.45"/>
<rect x="472.79479768786126" y="521.373479148376" width="1" height="13.826520851623968" fill="#3fb950" opacity="0.45"/>
<rect x="474.41329479768785" y="527.3640820743863" width="1" height="7.835917925613671" fill="#f85149" opacity="0.45"/>
<rect x="476.03179190751445" y="528.0607134840949" width="1" height="7.139286515905042" fill="#3fb950" opacity="0.45"/>
<rect x="477.65028901734104" y="521.1980305605255" width="1" height="14.001969439474465" fill="#3fb950" opacity="0.45"/>
<rect x="479.26878612716763" y="523.1693480097003" width="1" height="12.030651990299589" fill="#f85149" opacity="0.45"/>
<rect x="480.8872832369942" y="525.0579054834587" width="1" height="10.142094516541192" fill="#3fb950" opacity="0.45"/>
<rect x="482.5057803468208" y="526.6259816118114" width="1" height="8.574018388188506" fill="#f85149" opacity="0.45"/>
<rect x="484.1242774566474" y="525.6124519558875" width="1" height="9.587548044112395" fill="#f85149" opacity="0.45"/>
<rect x="485.742774566474" y="526.8769193054318" width="1" height="8.323080694568148" fill="#f85149" opacity="0.45"/>
<rect x="487.3612716763006" y="529.1312861421866" width="1" height="6.06871385781335" fill="#3fb950" opacity="0.45"/>
<rect x="488.9797687861272" y="530.2513717768352" width="1" height="4.9486282231647465" fill="#f85149" opacity="0.45"/>
<rect x="490.5982658959538" y="529.6880584553795" width="1" height="5.511941544620413" fill="#f85149" opacity="0.45"/>
<rect x="492.2167630057803" y="530.2034733230195" width="1" height="4.996526676980466" fill="#f85149" opacity="0.45"/>
<rect x="493.83526011560696" y="531.8399136597724" width="1" height="3.3600863402275536" fill="#3fb950" opacity="0.45"/>
<rect x="495.45375722543355" y="531.0802840203896" width="1" height="4.119715979610305" fill="#f85149" opacity="0.45"/>
<rect x="497.0722543352601" y="531.490626908239" width="1" height="3.709373091760881" fill="#f85149" opacity="0.45"/>
<rect x="498.6907514450867" y="531.5884661666455" width="1" height="3.6115338333544287" fill="#3fb950" opacity="0.45"/>
<rect x="500.3092485549133" y="531.071852308577" width="1" height="4.128147691422896" fill="#f85149" opacity="0.45"/>
<rect x="501.9277456647399" y="531.5363922121101" width="1" height="3.663607787889873" fill="#3fb950" opacity="0.45"/>
<rect x="503.5462427745665" y="528.5004771946684" width="1" height="6.699522805331526" fill="#3fb950" opacity="0.45"/>
<rect x="505.16473988439304" y="518.4180263829103" width="1" height="16.781973617089648" fill="#3fb950" opacity="0.45"/>
<rect x="506.78323699421964" y="525.4288002305238" width="1" height="9.771199769476084" fill="#f85149" opacity="0.45"/>
<rect x="508.4017341040462" y="517.8197834404765" width="1" height="17.380216559523433" fill="#3fb950" opacity="0.45"/>
<rect x="510.0202312138728" y="513.2154224772294" width="1" height="21.984577522770564" fill="#3fb950" opacity="0.45"/>
<rect x="511.6387283236994" y="486.99108931938105" width="1" height="48.208910680618885" fill="#3fb950" opacity="0.45"/>
<rect x="513.2572254335261" y="472.70480151087116" width="1" height="62.49519848912877" fill="#3fb950" opacity="0.45"/>
<rect x="514.8757225433526" y="439.50594922677413" width="1" height="95.6940507732258" fill="#3fb950" opacity="0.45"/>
<rect x="516.4942196531792" y="450.9731122875012" width="1" height="84.22688771249875" fill="#3fb950" opacity="0.45"/>
<rect x="518.1127167630058" y="444.72621041826784" width="1" height="90.47378958173209" fill="#3fb950" opacity="0.45"/>
<rect x="519.7312138728323" y="464.49510722564486" width="1" height="70.70489277435507" fill="#f85149" opacity="0.45"/>
<rect x="521.349710982659" y="475.68728310842675" width="1" height="59.51271689157318" fill="#f85149" opacity="0.45"/>
<rect x="522.9682080924856" y="503.5125396249192" width="1" height="31.687460375080718" fill="#f85149" opacity="0.45"/>
<rect x="524.5867052023123" y="507.5217161274965" width="1" height="27.678283872503414" fill="#3fb950" opacity="0.45"/>
<rect x="526.2052023121387" y="504.4673877950419" width="1" height="30.73261220495806" fill="#3fb950" opacity="0.45"/>
<rect x="527.8236994219653" y="508.32195821785365" width="1" height="26.878041782146283" fill="#3fb950" opacity="0.45"/>
<rect x="529.442196531792" y="512.190417760924" width="1" height="23.00958223907594" fill="#f85149" opacity="0.45"/>
<rect x="531.0606936416185" y="497.19050900912185" width="1" height="38.00949099087808" fill="#3fb950" opacity="0.45"/>
<rect x="532.679190751445" y="481.5317488689218" width="1" height="53.66825113107814" fill="#3fb950" opacity="0.45"/>
<rect x="534.2976878612717" y="471.53438097801205" width="1" height="63.66561902198788" fill="#3fb950" opacity="0.45"/>
<rect x="535.9161849710982" y="494.6214454907491" width="1" height="40.57855450925081" fill="#f85149" opacity="0.45"/>
<rect x="537.5346820809248" y="503.934125530827" width="1" height="31.265874469172957" fill="#3fb950" opacity="0.45"/>
<rect x="539.1531791907514" y="508.2408178095769" width="1" height="26.959182190423007" fill="#f85149" opacity="0.45"/>
<rect x="540.7716763005781" y="496.8481702857417" width="1" height="38.35182971425826" fill="#3fb950" opacity="0.45"/>
<rect x="542.3901734104047" y="486.0676122624877" width="1" height="49.132387737512204" fill="#3fb950" opacity="0.45"/>
<rect x="544.0086705202312" y="502.6008790711196" width="1" height="32.599120928880325" fill="#f85149" opacity="0.45"/>
<rect x="545.6271676300578" y="470.3633002595212" width="1" height="64.8366997404787" fill="#3fb950" opacity="0.45"/>
<rect x="547.2456647398844" y="462.0435305819085" width="1" height="73.15646941809143" fill="#3fb950" opacity="0.45"/>
<rect x="548.864161849711" y="488.179339593421" width="1" height="47.02066040657894" fill="#f85149" opacity="0.45"/>
<rect x="550.4826589595375" y="457.6156494706959" width="1" height="77.584350529304" fill="#3fb950" opacity="0.45"/>
<rect x="552.1011560693642" y="474.07026528162817" width="1" height="61.129734718371765" fill="#f85149" opacity="0.45"/>
<rect x="553.7196531791908" y="503.0852976873812" width="1" height="32.114702312618704" fill="#3fb950" opacity="0.45"/>
<rect x="555.3381502890174" y="485.55674302829516" width="1" height="49.64325697170477" fill="#3fb950" opacity="0.45"/>
<rect x="556.9566473988439" y="496.5363549013962" width="1" height="38.66364509860375" fill="#3fb950" opacity="0.45"/>
<rect x="558.5751445086705" y="504.13839150525104" width="1" height="31.061608494748896" fill="#f85149" opacity="0.45"/>
<rect x="560.1936416184972" y="511.49618370152285" width="1" height="23.70381629847708" fill="#f85149" opacity="0.45"/>
<rect x="561.8121387283237" y="475.78513876112777" width="1" height="59.41486123887216" fill="#3fb950" opacity="0.45"/>
<rect x="563.4306358381502" y="476.9259430008274" width="1" height="58.27405699917256" fill="#3fb950" opacity="0.45"/>
<rect x="565.0491329479769" y="500.31246349144567" width="1" height="34.88753650855426" fill="#3fb950" opacity="0.45"/>
<rect x="566.6676300578034" y="510.1556351599544" width="1" height="25.044364840045546" fill="#f85149" opacity="0.45"/>
<rect x="568.28612716763" y="507.4447975653492" width="1" height="27.755202434650755" fill="#f85149" opacity="0.45"/>
<rect x="569.9046242774566" y="517.9362756228167" width="1" height="17.26372437718328" fill="#f85149" opacity="0.45"/>
<rect x="571.5231213872833" y="521.0582635242795" width="1" height="14.14173647572045" fill="#f85149" opacity="0.45"/>
<rect x="573.1416184971099" y="522.4510379828831" width="1" height="12.74896201711681" fill="#3fb950" opacity="0.45"/>
<rect x="574.7601156069364" y="518.8578279264713" width="1" height="16.342172073528673" fill="#3fb950" opacity="0.45"/>
<rect x="576.378612716763" y="515.5503294388593" width="1" height="19.649670561140624" fill="#3fb950" opacity="0.45"/>
<rect x="577.9971098265896" y="483.3120690029362" width="1" height="51.887930997063734" fill="#3fb950" opacity="0.45"/>
<rect x="579.6156069364162" y="494.73658924236" width="1" height="40.463410757639906" fill="#3fb950" opacity="0.45"/>
<rect x="581.2341040462427" y="436.2" width="1" height="98.99999999999994" fill="#3fb950" opacity="0.45"/>
<rect x="582.8526011560693" y="471.2661583382307" width="1" height="63.933841661769236" fill="#f85149" opacity="0.45"/>
<rect x="584.471098265896" y="457.7131822819037" width="1" height="77.48681771809623" fill="#3fb950" opacity="0.45"/>
<rect x="586.0895953757226" y="439.37268378942883" width="1" height="95.8273162105711" fill="#3fb950" opacity="0.45"/>
<rect x="587.7080924855491" y="449.0629657347046" width="1" height="86.13703426529531" fill="#3fb950" opacity="0.45"/>
<rect x="589.3265895953757" y="448.85759535232063" width="1" height="86.3424046476793" fill="#3fb950" opacity="0.45"/>
<rect x="590.9450867052024" y="468.25535843426155" width="1" height="66.94464156573838" fill="#f85149" opacity="0.45"/>
<rect x="592.5635838150289" y="490.16754821041195" width="1" height="45.03245178958798" fill="#f85149" opacity="0.45"/>
<rect x="594.1820809248555" y="501.5709100363053" width="1" height="33.62908996369464" fill="#f85149" opacity="0.45"/>
<rect x="595.8005780346821" y="490.2161055887599" width="1" height="44.983894411240044" fill="#3fb950" opacity="0.45"/>
<rect x="597.4190751445086" y="476.84914802643914" width="1" height="58.35085197356079" fill="#3fb950" opacity="0.45"/>
<rect x="599.0375722543353" y="500.1271997655399" width="1" height="35.07280023446003" fill="#f85149" opacity="0.45"/>
<rect x="600.6560693641618" y="492.34881131125815" width="1" height="42.851188688741786" fill="#3fb950" opacity="0.45"/>
<rect x="602.2745664739884" y="500.2261238848627" width="1" height="34.973876115137216" fill="#3fb950" opacity="0.45"/>
<rect x="603.8930635838151" y="485.39647524195124" width="1" height="49.803524758048695" fill="#3fb950" opacity="0.45"/>
<rect x="605.5115606936416" y="503.54485940031" width="1" height="31.655140599689958" fill="#f85149" opacity="0.45"/>
<rect x="607.1300578034682" y="498.254966595335" width="1" height="36.94503340466491" fill="#f85149" opacity="0.45"/>
<rect x="608.7485549132948" y="512.0269247123963" width="1" height="23.173075287603638" fill="#f85149" opacity="0.45"/>
<rect x="610.3670520231213" y="512.7198267353627" width="1" height="22.480173264637187" fill="#f85149" opacity="0.45"/>
<rect x="611.985549132948" y="518.9844347580178" width="1" height="16.215565241982176" fill="#3fb950" opacity="0.45"/>
<rect x="613.6040462427745" y="516.3465952822309" width="1" height="18.85340471776908" fill="#3fb950" opacity="0.45"/>
<rect x="615.2225433526012" y="519.3082356328011" width="1" height="15.891764367198789" fill="#f85149" opacity="0.45"/>
<rect x="616.8410404624278" y="521.6930944336431" width="1" height="13.506905566356863" fill="#f85149" opacity="0.45"/>
<rect x="618.4595375722542" y="518.2233167058521" width="1" height="16.976683294147847" fill="#3fb950" opacity="0.45"/>
<rect x="620.0780346820809" y="515.0331231792616" width="1" height="20.166876820738366" fill="#3fb950" opacity="0.45"/>
<rect x="621.6965317919075" y="520.5719352879742" width="1" height="14.628064712025775" fill="#f85149" opacity="0.45"/>
<rect x="623.3150289017341" y="515.9048147581491" width="1" height="19.295185241850845" fill="#f85149" opacity="0.45"/>
<rect x="624.9335260115607" y="520.7642936448597" width="1" height="14.435706355140269" fill="#3fb950" opacity="0.45"/>
<rect x="626.5520231213873" y="514.1750347663021" width="1" height="21.0249652336978" fill="#f85149" opacity="0.45"/>
<rect x="628.1705202312138" y="522.1066206521151" width="1" height="13.09337934788482" fill="#f85149" opacity="0.45"/>
<rect x="629.7890173410404" y="525.2060496889604" width="1" height="9.993950311039498" fill="#3fb950" opacity="0.45"/>
<rect x="631.407514450867" y="519.85903096452" width="1" height="15.34096903547993" fill="#f85149" opacity="0.45"/>
<rect x="633.0260115606936" y="524.6106164763978" width="1" height="10.589383523602123" fill="#3fb950" opacity="0.45"/>
<rect x="634.6445086705203" y="523.0013436926889" width="1" height="12.198656307311012" fill="#3fb950" opacity="0.45"/>
<rect x="636.2630057803468" y="524.6495270734848" width="1" height="10.550472926515113" fill="#f85149" opacity="0.45"/>
<rect x="637.8815028901734" y="525.3974994235963" width="1" height="9.802500576403645" fill="#3fb950" opacity="0.45"/>
<rect x="639.5" y="523.2766313276097" width="1" height="11.923368672390211" fill="#3fb950" opacity="0.45"/>
<rect x="641.1184971098265" y="501.58406803408053" width="1" height="33.6159319659194" fill="#3fb950" opacity="0.45"/>
<rect x="642.7369942196532" y="504.6893387994696" width="1" height="30.510661200530308" fill="#f85149" opacity="0.45"/>
<rect x="644.3554913294798" y="490.9113315029831" width="1" height="44.28866849701683" fill="#3fb950" opacity="0.45"/>
<rect x="645.9739884393064" y="500.4955004307626" width="1" height="34.70449956923733" fill="#f85149" opacity="0.45"/>
<rect x="647.592485549133" y="514.5620069566775" width="1" height="20.637993043322467" fill="#f85149" opacity="0.45"/>
<rect x="649.2109826589596" y="521.8946386398918" width="1" height="13.305361360108122" fill="#f85149" opacity="0.45"/>
<rect x="650.8294797687861" y="521.1826760425514" width="1" height="14.017323957448525" fill="#f85149" opacity="0.45"/>
<rect x="652.4479768786127" y="525.7576946865235" width="1" height="9.442305313476481" fill="#3fb950" opacity="0.45"/>
<rect x="654.0664739884393" y="526.2926748836455" width="1" height="8.9073251163544" fill="#3fb950" opacity="0.45"/>
<rect x="655.6849710982659" y="526.144185136858" width="1" height="9.055814863141904" fill="#f85149" opacity="0.45"/>
<rect x="657.3034682080926" y="523.9990229032276" width="1" height="11.200977096772363" fill="#f85149" opacity="0.45"/>
<rect x="658.921965317919" y="525.2678943277909" width="1" height="9.93210567220899" fill="#3fb950" opacity="0.45"/>
<rect x="660.5404624277456" y="524.2035877582529" width="1" height="10.996412241747066" fill="#3fb950" opacity="0.45"/>
<rect x="662.1589595375723" y="525.6139763100086" width="1" height="9.586023689991293" fill="#f85149" opacity="0.45"/>
<rect x="663.7774566473988" y="526.7709037078782" width="1" height="8.429096292121699" fill="#3fb950" opacity="0.45"/>
<rect x="665.3959537572255" y="514.1024830767362" width="1" height="21.097516923263697" fill="#3fb950" opacity="0.45"/>
<rect x="667.014450867052" y="522.070175819988" width="1" height="13.129824180011951" fill="#f85149" opacity="0.45"/>
<rect x="668.6329479768785" y="525.7843152376232" width="1" height="9.415684762376713" fill="#f85149" opacity="0.45"/>
<rect x="670.2514450867052" y="527.5252865424455" width="1" height="7.67471345755439" fill="#f85149" opacity="0.45"/>
<rect x="671.8699421965317" y="529.0425775600366" width="1" height="6.157422439963284" fill="#f85149" opacity="0.45"/>
<rect x="673.4884393063584" y="529.5344344569144" width="1" height="5.665565543085563" fill="#3fb950" opacity="0.45"/>
<rect x="675.106936416185" y="529.273871105451" width="1" height="5.926128894548924" fill="#f85149" opacity="0.45"/>
<rect x="676.7254335260116" y="529.5378696921787" width="1" height="5.662130307821258" fill="#f85149" opacity="0.45"/>
<rect x="678.3439306358382" y="528.1264047919287" width="1" height="7.073595208071197" fill="#f85149" opacity="0.45"/>
<rect x="679.9624277456647" y="526.7641754263275" width="1" height="8.435824573672448" fill="#f85149" opacity="0.45"/>
<rect x="681.5809248554913" y="526.5377500405789" width="1" height="8.662249959421047" fill="#3fb950" opacity="0.45"/>
<rect x="683.1994219653179" y="529.914826229665" width="1" height="5.28517377033495" fill="#f85149" opacity="0.45"/>
<rect x="684.8179190751446" y="530.8979258679234" width="1" height="4.302074132076541" fill="#3fb950" opacity="0.45"/>
<rect x="686.4364161849711" y="529.3893512553757" width="1" height="5.810648744624245" fill="#f85149" opacity="0.45"/>
<rect x="688.0549132947978" y="528.7180815041081" width="1" height="6.481918495891819" fill="#f85149" opacity="0.45"/>
<rect x="689.6734104046243" y="529.1443423061704" width="1" height="6.055657693829517" fill="#3fb950" opacity="0.45"/>
<rect x="691.2919075144508" y="526.9361096449147" width="1" height="8.26389035508521" fill="#f85149" opacity="0.45"/>
<rect x="692.9104046242775" y="527.8535718873464" width="1" height="7.346428112653484" fill="#3fb950" opacity="0.45"/>
<rect x="694.528901734104" y="529.2083118977985" width="1" height="5.991688102201465" fill="#3fb950" opacity="0.45"/>
<rect x="696.1473988439307" y="530.5899467485096" width="1" height="4.610053251490285" fill="#f85149" opacity="0.45"/>
<rect x="697.7658959537573" y="531.2289872082815" width="1" height="3.971012791718408" fill="#f85149" opacity="0.45"/>
<rect x="699.3843930635837" y="531.0634890114168" width="1" height="4.136510988583154" fill="#3fb950" opacity="0.45"/>
<rect x="701.0028901734104" y="528.0807523564704" width="1" height="7.1192476435295475" fill="#3fb950" opacity="0.45"/>
<rect x="702.621387283237" y="528.8603325912579" width="1" height="6.339667408742002" fill="#f85149" opacity="0.45"/>
<rect x="704.2398843930636" y="521.6332987663602" width="1" height="13.56670123363972" fill="#3fb950" opacity="0.45"/>
<rect x="705.8583815028902" y="525.0875334417893" width="1" height="10.112466558210599" fill="#f85149" opacity="0.45"/>
<rect x="707.4768786127167" y="515.9424393489362" width="1" height="19.257560651063727" fill="#3fb950" opacity="0.45"/>
<rect x="709.0953757225434" y="491.58742180740717" width="1" height="43.612578192592764" fill="#3fb950" opacity="0.45"/>
<rect x="710.7138728323699" y="516.0749698804995" width="1" height="19.12503011950048" fill="#f85149" opacity="0.45"/>
<rect x="712.3323699421965" y="521.6641758438279" width="1" height="13.535824156171998" fill="#3fb950" opacity="0.45"/>
<rect x="713.9508670520231" y="509.1718526362718" width="1" height="26.028147363728124" fill="#3fb950" opacity="0.45"/>
<rect x="715.5693641618498" y="515.5568171656646" width="1" height="19.643182834335335" fill="#f85149" opacity="0.45"/>
<rect x="717.1878612716763" y="521.2594104841596" width="1" height="13.940589515840315" fill="#f85149" opacity="0.45"/>
<rect x="718.806358381503" y="520.738613243499" width="1" height="14.461386756500929" fill="#f85149" opacity="0.45"/>
<rect x="720.4248554913295" y="525.9087082088516" width="1" height="9.291291791148296" fill="#3fb950" opacity="0.45"/>
<rect x="722.043352601156" y="526.0248649387026" width="1" height="9.175135061297283" fill="#f85149" opacity="0.45"/>
<rect x="723.6618497109827" y="518.9291752659353" width="1" height="16.270824734064604" fill="#3fb950" opacity="0.45"/>
<rect x="725.2803468208092" y="524.9704693507882" width="1" height="10.22953064921171" fill="#3fb950" opacity="0.45"/>
<rect x="726.8988439306358" y="524.9059537030407" width="1" height="10.294046296959209" fill="#3fb950" opacity="0.45"/>
<rect x="728.5173410404625" y="525.7943267919386" width="1" height="9.40567320806133" fill="#f85149" opacity="0.45"/>
<rect x="730.1358381502889" y="522.2904810894598" width="1" height="12.9095189105401" fill="#3fb950" opacity="0.45"/>
<rect x="731.7543352601156" y="523.5813271742588" width="1" height="11.6186728257411" fill="#f85149" opacity="0.45"/>
<rect x="733.3728323699422" y="526.2799907440385" width="1" height="8.920009255961418" fill="#f85149" opacity="0.45"/>
<rect x="734.9913294797688" y="527.1117092494403" width="1" height="8.088290750559622" fill="#3fb950" opacity="0.45"/>
<rect x="736.6098265895954" y="528.2192267656437" width="1" height="6.980773234356207" fill="#f85149" opacity="0.45"/>
<rect x="738.228323699422" y="527.5164033569821" width="1" height="7.683596643017836" fill="#3fb950" opacity="0.45"/>
<rect x="739.8468208092486" y="524.3262899102151" width="1" height="10.873710089784822" fill="#3fb950" opacity="0.45"/>
<rect x="741.4653179190751" y="507.38691750833306" width="1" height="27.813082491666876" fill="#3fb950" opacity="0.45"/>
<rect x="743.0838150289018" y="517.2606588612861" width="1" height="17.93934113871387" fill="#f85149" opacity="0.45"/>
<rect x="744.7023121387283" y="510.58548851945415" width="1" height="24.614511480545787" fill="#3fb950" opacity="0.45"/>
<rect x="746.320809248555" y="513.1327580301065" width="1" height="22.067241969893416" fill="#3fb950" opacity="0.45"/>
<rect x="747.9393063583815" y="518.829094087745" width="1" height="16.370905912254898" fill="#f85149" opacity="0.45"/>
<rect x="749.5578034682081" y="518.2562891002771" width="1" height="16.943710899722873" fill="#f85149" opacity="0.45"/>
<rect x="751.1763005780347" y="525.1460339598003" width="1" height="10.053966040199612" fill="#3fb950" opacity="0.45"/>
<rect x="752.7947976878612" y="518.0639014228263" width="1" height="17.136098577173584" fill="#3fb950" opacity="0.45"/>
<rect x="754.4132947976879" y="522.5438325276823" width="1" height="12.656167472317634" fill="#3fb950" opacity="0.45"/>
<rect x="756.0317919075145" y="523.4811378567792" width="1" height="11.71886214322069" fill="#f85149" opacity="0.45"/>
<rect x="757.650289017341" y="523.7918504095394" width="1" height="11.408149590460539" fill="#3fb950" opacity="0.45"/>
<rect x="759.2687861271677" y="523.0712707187475" width="1" height="12.12872928125239" fill="#3fb950" opacity="0.45"/>
<rect x="760.8872832369942" y="516.2014651047328" width="1" height="18.998534895267085" fill="#3fb950" opacity="0.45"/>
<rect x="762.5057803468208" y="519.3701959775184" width="1" height="15.82980402248154" fill="#f85149" opacity="0.45"/>
<rect x="764.1242774566474" y="522.5799176311533" width="1" height="12.620082368846624" fill="#f85149" opacity="0.45"/>
<rect x="765.7427745664739" y="514.7772240046063" width="1" height="20.422775995393636" fill="#3fb950" opacity="0.45"/>
<rect x="767.3612716763006" y="484.16481003838834" width="1" height="51.03518996161159" fill="#3fb950" opacity="0.45"/>
<rect x="768.9797687861272" y="502.65552440770506" width="1" height="32.54447559229487" fill="#f85149" opacity="0.45"/>
<rect x="770.5982658959538" y="518.2404213147727" width="1" height="16.959578685227257" fill="#f85149" opacity="0.45"/>
<rect x="772.2167630057803" y="518.3275692861885" width="1" height="16.872430713811468" fill="#3fb950" opacity="0.45"/>
<rect x="773.835260115607" y="525.7091483427969" width="1" height="9.490851657203052" fill="#f85149" opacity="0.45"/>
<rect x="775.4537572254335" y="524.0948339982294" width="1" height="11.105166001770499" fill="#f85149" opacity="0.45"/>
<rect x="777.0722543352601" y="526.9359955154025" width="1" height="8.264004484597422" fill="#f85149" opacity="0.45"/>
<rect x="778.6907514450867" y="519.739613346422" width="1" height="15.460386653577984" fill="#3fb950" opacity="0.45"/>
<rect x="780.3092485549133" y="524.6867200529397" width="1" height="10.513279947060255" fill="#3fb950" opacity="0.45"/>
<rect x="781.9277456647399" y="520.7253959740434" width="1" height="14.474604025956523" fill="#3fb950" opacity="0.45"/>
<rect x="783.5462427745664" y="519.0039669836358" width="1" height="16.19603301636414" fill="#3fb950" opacity="0.45"/>
<rect x="785.164739884393" y="524.6150363151618" width="1" height="10.584963684838158" fill="#f85149" opacity="0.45"/>
<rect x="786.7832369942197" y="526.5794927520546" width="1" height="8.620507247945284" fill="#3fb950" opacity="0.45"/>
<rect x="788.4017341040462" y="511.9980612956879" width="1" height="23.201938704312056" fill="#3fb950" opacity="0.45"/>
<rect x="790.0202312138729" y="520.0586333926858" width="1" height="15.141366607314126" fill="#f85149" opacity="0.45"/>
<rect x="791.6387283236994" y="517.0151271863036" width="1" height="18.184872813696302" fill="#3fb950" opacity="0.45"/>
<rect x="793.257225433526" y="519.3521285190661" width="1" height="15.847871480933804" fill="#f85149" opacity="0.45"/>
<rect x="794.8757225433526" y="518.5435117816525" width="1" height="16.656488218347477" fill="#f85149" opacity="0.45"/>
<rect x="796.4942196531792" y="524.1521345799872" width="1" height="11.047865420012727" fill="#f85149" opacity="0.45"/>
<rect x="798.1127167630058" y="523.2275543762335" width="1" height="11.972445623766475" fill="#f85149" opacity="0.45"/>
<rect x="799.7312138728324" y="526.1274446704421" width="1" height="9.072555329557872" fill="#f85149" opacity="0.45"/>
<rect x="801.349710982659" y="521.2559140855655" width="1" height="13.944085914434481" fill="#f85149" opacity="0.45"/>
<rect x="802.9682080924855" y="526.0331957625486" width="1" height="9.166804237451288" fill="#3fb950" opacity="0.45"/>
<rect x="804.5867052023121" y="526.2805891357907" width="1" height="8.919410864209226" fill="#f85149" opacity="0.45"/>
<rect x="806.2052023121387" y="526.8940639542641" width="1" height="8.305936045735848" fill="#3fb950" opacity="0.45"/>
<rect x="807.8236994219653" y="526.8243945077953" width="1" height="8.375605492204613" fill="#f85149" opacity="0.45"/>
<rect x="809.442196531792" y="528.4964230747836" width="1" height="6.703576925216339" fill="#f85149" opacity="0.45"/>
<rect x="811.0606936416185" y="528.5342756093204" width="1" height="6.665724390679543" fill="#f85149" opacity="0.45"/>
<rect x="812.679190751445" y="529.3567991223867" width="1" height="5.843200877613185" fill="#3fb950" opacity="0.45"/>
<rect x="814.2976878612717" y="526.9899696317348" width="1" height="8.210030368265166" fill="#f85149" opacity="0.45"/>
<rect x="815.9161849710982" y="529.2908767180543" width="1" height="5.909123281945654" fill="#f85149" opacity="0.45"/>
<rect x="817.5346820809249" y="526.0918059962235" width="1" height="9.108194003776475" fill="#f85149" opacity="0.45"/>
<rect x="819.1531791907514" y="528.5258010201219" width="1" height="6.674198979878042" fill="#3fb950" opacity="0.45"/>
<rect x="820.7716763005781" y="528.4120463697018" width="1" height="6.787953630298148" fill="#3fb950" opacity="0.45"/>
<rect x="822.3901734104046" y="530.2070062935015" width="1" height="4.992993706498396" fill="#f85149" opacity="0.45"/>
<rect x="824.0086705202311" y="529.6964605313519" width="1" height="5.503539468648" fill="#3fb950" opacity="0.45"/>
<rect x="825.6271676300578" y="530.285337287182" width="1" height="4.914662712817972" fill="#3fb950" opacity="0.45"/>
<rect x="827.2456647398844" y="530.1400207822205" width="1" height="5.059979217779414" fill="#3fb950" opacity="0.45"/>
<rect x="828.864161849711" y="528.9069790884625" width="1" height="6.293020911537383" fill="#3fb950" opacity="0.45"/>
<rect x="830.4826589595376" y="530.3155053114091" width="1" height="4.8844946885908485" fill="#f85149" opacity="0.45"/>
<rect x="832.1011560693642" y="532.1918023750205" width="1" height="3.0081976249794025" fill="#f85149" opacity="0.45"/>
<rect x="833.7196531791907" y="530.3149737579348" width="1" height="4.885026242065123" fill="#3fb950" opacity="0.45"/>
<rect x="835.3381502890173" y="527.1162712771821" width="1" height="8.083728722817796" fill="#3fb950" opacity="0.45"/>
<rect x="836.9566473988439" y="526.4846949505677" width="1" height="8.715305049432231" fill="#3fb950" opacity="0.45"/>
<rect x="838.5751445086705" y="527.729493875739" width="1" height="7.4705061242609645" fill="#3fb950" opacity="0.45"/>
<rect x="840.1936416184972" y="525.3381076234549" width="1" height="9.861892376545029" fill="#3fb950" opacity="0.45"/>
<rect x="841.8121387283237" y="527.3481238049867" width="1" height="7.851876195013233" fill="#f85149" opacity="0.45"/>
<rect x="843.4306358381502" y="528.5078202622659" width="1" height="6.692179737734023" fill="#f85149" opacity="0.45"/>
<rect x="845.0491329479769" y="530.2039232202957" width="1" height="4.996076779704254" fill="#3fb950" opacity="0.45"/>
<rect x="846.6676300578034" y="529.721701124233" width="1" height="5.478298875766882" fill="#3fb950" opacity="0.45"/>
<rect x="848.2861271676301" y="528.970974847907" width="1" height="6.229025152092959" fill="#3fb950" opacity="0.45"/>
<rect x="849.9046242774567" y="529.2623452858112" width="1" height="5.937654714188739" fill="#3fb950" opacity="0.45"/>
<rect x="851.5231213872833" y="529.0730611744344" width="1" height="6.126938825565503" fill="#3fb950" opacity="0.45"/>
<rect x="853.1416184971098" y="523.2982204066478" width="1" height="11.901779593352103" fill="#3fb950" opacity="0.45"/>
<rect x="854.7601156069364" y="529.0963410727386" width="1" height="6.1036589272613355" fill="#f85149" opacity="0.45"/>
<rect x="856.378612716763" y="525.5371167042667" width="1" height="9.662883295733195" fill="#3fb950" opacity="0.45"/>
<rect x="857.9971098265896" y="528.0632180278669" width="1" height="7.136781972133008" fill="#f85149" opacity="0.45"/>
<rect x="859.6156069364162" y="520.0934104206142" width="1" height="15.10658957938574" fill="#3fb950" opacity="0.45"/>
<rect x="861.2341040462428" y="526.5068660270634" width="1" height="8.693133972936494" fill="#f85149" opacity="0.45"/>
<rect x="862.8526011560695" y="523.9525144964273" width="1" height="11.247485503572648" fill="#3fb950" opacity="0.45"/>
<rect x="864.4710982658959" y="526.4785344791043" width="1" height="8.721465520895663" fill="#3fb950" opacity="0.45"/>
<rect x="866.0895953757225" y="527.1122843108502" width="1" height="8.087715689149718" fill="#3fb950" opacity="0.45"/>
<rect x="867.7080924855492" y="521.568192293458" width="1" height="13.631807706541963" fill="#3fb950" opacity="0.45"/>
<rect x="869.3265895953757" y="524.4486585013377" width="1" height="10.751341498662214" fill="#f85149" opacity="0.45"/>
<rect x="870.9450867052024" y="526.2067858048886" width="1" height="8.993214195111364" fill="#3fb950" opacity="0.45"/>
<rect x="872.5635838150289" y="526.3536660733331" width="1" height="8.84633392666683" fill="#f85149" opacity="0.45"/>
<rect x="874.1820809248554" y="524.5391755002897" width="1" height="10.660824499710202" fill="#3fb950" opacity="0.45"/>
<rect x="875.8005780346821" y="527.2460387395588" width="1" height="7.953961260441133" fill="#f85149" opacity="0.45"/>
<rect x="877.4190751445086" y="527.3624174229366" width="1" height="7.837582577063358" fill="#f85149" opacity="0.45"/>
<rect x="879.0375722543353" y="526.5968123784542" width="1" height="8.603187621545771" fill="#3fb950" opacity="0.45"/>
<rect x="880.6560693641619" y="526.2897961085721" width="1" height="8.910203891427841" fill="#f85149" opacity="0.45"/>
<rect x="882.2745664739884" y="527.9668542559727" width="1" height="7.233145744027183" fill="#3fb950" opacity="0.45"/>
<rect x="883.893063583815" y="527.7724857063517" width="1" height="7.427514293648187" fill="#3fb950" opacity="0.45"/>
<rect x="885.5115606936416" y="528.2302831409638" width="1" height="6.969716859036112" fill="#f85149" opacity="0.45"/>
<rect x="887.1300578034682" y="526.9691614886135" width="1" height="8.230838511386423" fill="#f85149" opacity="0.45"/>
<rect x="888.7485549132948" y="525.7972484443978" width="1" height="9.402751555602094" fill="#3fb950" opacity="0.45"/>
<rect x="890.3670520231213" y="522.3628641069565" width="1" height="12.83713589304341" fill="#f85149" opacity="0.45"/>
<rect x="891.985549132948" y="528.9128904927584" width="1" height="6.287109507241553" fill="#f85149" opacity="0.45"/>
<rect x="893.6040462427746" y="527.4484291436279" width="1" height="7.751570856372041" fill="#3fb950" opacity="0.45"/>
<rect x="895.2225433526012" y="526.1028677312166" width="1" height="9.097132268783298" fill="#3fb950" opacity="0.45"/>
<rect x="896.8410404624277" y="527.8199058881506" width="1" height="7.380094111849303" fill="#f85149" opacity="0.45"/>
<rect x="898.4595375722544" y="524.56653600157" width="1" height="10.633463998429988" fill="#3fb950" opacity="0.45"/>
<rect x="900.0780346820809" y="520.5542947117308" width="1" height="14.645705288269141" fill="#3fb950" opacity="0.45"/>
<rect x="901.6965317919075" y="522.7765306227573" width="1" height="12.423469377242668" fill="#3fb950" opacity="0.45"/>
<rect x="903.3150289017342" y="508.90477223743784" width="1" height="26.295227762562092" fill="#3fb950" opacity="0.45"/>
<rect x="904.9335260115606" y="514.9802206823" width="1" height="20.21977931769993" fill="#f85149" opacity="0.45"/>
<rect x="906.5520231213873" y="516.8123032792528" width="1" height="18.387696720747158" fill="#3fb950" opacity="0.45"/>
<rect x="908.1705202312139" y="518.306782897035" width="1" height="16.893217102964968" fill="#3fb950" opacity="0.45"/>
<rect x="909.7890173410404" y="487.9357954113815" width="1" height="47.26420458861844" fill="#3fb950" opacity="0.45"/>
<rect x="911.4075144508671" y="504.50491086731256" width="1" height="30.69508913268737" fill="#f85149" opacity="0.45"/>
<rect x="913.0260115606936" y="499.07244444896935" width="1" height="36.12755555103058" fill="#3fb950" opacity="0.45"/>
<rect x="914.6445086705202" y="502.6691367166051" width="1" height="32.53086328339481" fill="#3fb950" opacity="0.45"/>
<rect x="916.2630057803468" y="504.0203160123842" width="1" height="31.179683987615704" fill="#f85149" opacity="0.45"/>
<rect x="917.8815028901734" y="506.69884833424396" width="1" height="28.50115166575597" fill="#3fb950" opacity="0.45"/>
<rect x="919.5" y="499.5384034048084" width="1" height="35.661596595191554" fill="#3fb950" opacity="0.45"/>
<polyline points="80.0,351.9522006841505 81.61849710982659,349.48925883694415 83.23699421965318,352.1984948688712 84.85549132947978,347.51890535917903 86.47398843930635,349.48925883694415 88.09248554913295,354.4151425313569 89.71098265895954,354.6614367160775 91.32947976878613,355.40031927023944 92.94797687861272,356.6317901938426 94.5664739884393,354.6614367160775 96.18497109826589,352.4447890535918 97.80346820809248,356.6317901938426 99.42196531791907,355.1540250855188 101.04046242774567,359.34102622576967 102.65895953757226,360.57249714937285 104.27745664739885,360.3262029646522 105.89595375722544,361.3113797035348 107.51445086705202,358.1095553021665 109.13294797687861,359.833614595211 110.7514450867052,360.3262029646522 112.36994219653178,364.2669099201824 113.98843930635837,365.252086659065 115.60693641618496,367.7150285062714 117.22543352601156,372.8872063854048 118.84393063583815,369.9316761687571 120.46242774566474,369.9316761687571 122.08092485549133,368.70020524515394 123.69942196531792,370.67055872291905 125.31791907514452,370.9168529076397 126.93641618497111,371.1631470923603 128.5549132947977,368.70020524515394 130.1734104046243,369.6853819840365 131.79190751445088,373.1335005701254 133.41040462427745,374.8575598631699 135.02890173410404,380.27603192702395 136.64739884393063,379.78344355758264 138.26589595375722,374.3649714937286 139.88439306358381,377.07420752565565 141.5028901734104,375.84273660205247 143.121387283237,371.6557354618016 144.73988439306356,376.0890307867731 146.35838150289015,374.61126567844923 147.97687861271675,378.30567844925883 149.59537572254334,376.827913340935 151.21387283236993,379.537149372862 152.83236994219652,378.0593842645382 154.4508670520231,375.35014823261116 156.0693641618497,369.4390877993158 157.6878612716763,369.4390877993158 159.3063583815029,369.1927936145952 160.92485549132948,365.74467502850626 162.54335260115607,365.9909692132269 164.16184971098266,366.97614595210945 165.78034682080926,367.7150285062714 167.39884393063585,367.46873432155076 169.01734104046244,371.1631470923603 170.63583815028903,372.39461801596354 172.25433526011562,371.6557354618016 173.87283236994222,369.4390877993158 175.49132947976878,370.67055872291905 177.10982658959537,369.4390877993158 178.72832369942196,364.7594982896237 180.34682080924856,366.4835575826682 181.96531791907515,367.2224401368301 183.58381502890174,370.67055872291905 185.20231213872833,368.94649942987456 186.8208092485549,368.94649942987456 188.43930635838151,368.70020524515394 190.05780346820808,370.17797035347775 191.67630057803467,371.1631470923603 193.29479768786126,369.4390877993158 194.91329479768785,371.1631470923603 196.53179190751445,368.70020524515394 198.15028901734104,370.9168529076397 199.76878612716763,369.9316761687571 201.38728323699422,372.64091220068417 203.0057803468208,370.9168529076397 204.6242774566474,372.39461801596354 206.242774566474,373.1335005701254 207.8612716763006,369.9316761687571 209.47976878612715,372.39461801596354 211.09826589595377,372.14832383124286 212.71676300578034,368.4539110604333 214.33526011560696,367.2224401368301 215.95375722543352,364.0206157354618 217.5722543352601,365.0057924743444 219.1907514450867,364.7594982896237 220.8092485549133,365.0057924743444 222.4277456647399,368.20761687571263 224.04624277456648,367.961322690992 225.66473988439307,366.7298517673888 227.28323699421964,365.49838084378564 228.90173410404626,366.97614595210945 230.52023121387282,368.20761687571263 232.13872832369944,370.67055872291905 233.757225433526,367.2224401368301 235.3757225433526,367.2224401368301 236.9942196531792,368.70020524515394 238.61271676300578,362.7891448118586 240.23121387283237,363.28173318129984 241.84971098265896,359.09473204104904 243.46820809248555,352.93737742303307 245.08670520231215,339.1449030786773 246.70520231213874,327.81537058152793 248.3236994219653,340.6226681870011 249.94219653179192,341.8541391106043 251.56069364161849,349.24296465222346 253.17919075144508,345.5485518814139 254.79768786127167,349.24296465222346 256.41618497109823,348.99667046750284 258.0346820809249,351.45961231470926 259.6531791907514,345.5485518814139 261.27167630057806,344.809669327252 262.8901734104046,341.11525655644243 264.50867052023125,340.1300798175599 266.1271676300578,341.36155074116306 267.74566473988443,336.18937286202964 269.36416184971097,333.7264310148233 270.98265895953756,338.4060205245154 272.60115606936415,337.4208437856328 274.21965317919074,332.4949600912201 275.83815028901734,315.25436716077536 277.4566473988439,306.6340706955531 279.0751445086705,295.5508323831243 280.6936416184971,301.70818700114023 282.3121387283237,300.96930444697836 283.9306358381503,307.6192474344356 285.5491329479769,306.1414823261117 287.1676300578035,310.8210718358039 288.78612716763007,309.5896009122007 290.40462427745666,318.4561915621437 292.02312138728325,323.1357810718358 293.6416184971098,328.3079589509692 295.26011560693644,325.10613454960094 296.87861271676303,322.88948688711514 298.4971098265896,322.6431927023945 300.11560693641616,318.20989737742303 301.7341040462428,321.65801596351196 303.35260115606934,326.3376054732041 304.971098265896,324.8598403648803 306.5895953757225,327.3227822120866 308.2080924855491,323.6283694412771 309.8265895953757,318.70248574686434 311.44508670520236,315.25436716077536 313.0635838150289,315.9932497149373 314.6820809248555,314.0228962371722 316.3005780346821,314.7617787913341 317.9190751445087,315.74695553021667 319.53757225433526,310.08218928164194 321.15606936416185,306.3877765108324 322.77456647398844,307.3729532497149 324.393063583815,314.5154846066134 326.0115606936416,309.34330672748007 327.6300578034682,316.73213226909917 329.2485549132948,317.47101482326116 330.86705202312135,318.4561915621437 332.485549132948,314.0228962371722 334.10404624277453,321.65801596351196 335.7225433526012,321.65801596351196 337.34104046242777,324.6135461801597 338.9595375722543,320.18025085518815 340.5780346820809,319.9339566704675 342.19653179190755,320.4265450399088 343.8150289017341,323.1357810718358 345.4335260115607,328.55425313568986 347.05202312138726,331.50978335233754 348.6705202312139,330.03201824401367 350.28901734104045,324.367251995439 351.90751445086704,327.81537058152793 353.52601156069363,327.3227822120866 355.1445086705202,320.18025085518815 356.7630057803468,321.41172177879133 358.3815028901734,311.06736602052456 360.0,312.05254275940706 361.6184971098266,311.3136602052451 363.2369942196532,312.05254275940706 364.8554913294798,314.0228962371722 366.47398843930637,318.20989737742303 368.09248554913296,320.6728392246294 369.7109826589595,321.16542759407065 371.32947976878614,315.9932497149373 372.94797687861274,317.47101482326116 374.56647398843927,310.3284834663626 376.18497109826586,294.5656556442417 377.8034682080925,292.10271379703534 379.4219653179191,295.058244013683 381.04046242774564,296.04342075256557 382.6589595375723,297.27489167616875 384.2774566473989,303.67854047890535 385.8959537572254,304.4174230330673 387.514450867052,303.4322462941847 389.13294797687865,304.4174230330673 390.7514450867052,298.0137742303307 392.3699421965318,288.4083010262258 393.9884393063584,277.57135689851765 395.60693641618496,280.773181299886 397.22543352601156,286.68424173318135 398.84393063583815,283.482417331813 400.46242774566474,284.9601824401368 402.08092485549133,288.4083010262258 403.6994219653179,287.1768301026226 405.31791907514446,282.7435347776511 406.9364161849711,282.2509464082098 408.5549132947977,282.2509464082098 410.1734104046243,280.773181299886 411.7919075144509,284.71388825541624 413.4104046242775,283.482417331813 415.02890173410407,282.98982896237175 416.6473988439306,290.87124287343215 418.26589595375725,288.6545952109464 419.88439306358384,288.90088939566704 421.5028901734104,289.14718358038766 423.12138728323697,285.69906499429874 424.7398843930636,289.3934777651083 426.35838150289015,297.76748004561 427.97687861271675,298.26006841505136 429.59537572254334,299.7378335233751 431.21387283236993,293.3341847206385 432.8323699421965,297.27489167616875 434.4508670520231,301.4618928164196 436.0693641618497,303.924834663626 437.6878612716763,303.924834663626 439.3063583815029,302.44706955530216 440.9248554913295,303.1859521094641 442.5433526011561,323.38207525655645 444.16184971098266,318.20989737742303 445.78034682080926,320.18025085518815 447.39884393063585,320.18025085518815 449.01734104046244,320.91913340935 450.63583815028903,318.94877993158497 452.25433526011557,322.3968985176739 453.8728323699422,326.58389965792475 455.4913294797688,327.076488027366 457.10982658959534,328.8005473204105 458.72832369942194,327.076488027366 460.3468208092486,328.8005473204105 461.9653179190751,322.3968985176739 463.5838150289017,324.6135461801597 465.20231213872836,323.8746636259977 466.8208092485549,327.3227822120866 468.4393063583815,324.1209578107183 470.0578034682081,320.6728392246294 471.6763005780347,305.4025997719498 473.29479768786126,305.1563055872292 474.91329479768785,305.64889395667046 476.53179190751445,305.4025997719498 478.15028901734104,296.28971493728625 479.76878612716763,299.7378335233751 481.3872832369942,298.26006841505136 483.0057803468208,298.9989509692133 484.6242774566474,299.7378335233751 486.242774566474,303.4322462941847 487.8612716763006,300.72301026225773 489.4797687861272,303.67854047890535 491.0982658959538,306.88036488027365 492.7167630057803,308.3581299885975 494.33526011560696,306.88036488027365 495.95375722543355,308.1118358038769 497.5722543352601,311.06736602052456 499.1907514450867,308.85071835803876 500.8092485549133,311.80624857468644 502.4277456647399,310.8210718358039 504.0462427745665,306.3877765108324 505.66473988439304,298.0137742303307 507.28323699421964,299.9841277080958 508.9017341040462,291.610125427594 510.5202312138728,289.14718358038766 512.1387283236994,267.7195895096922 513.7572254335261,244.07534777651085 515.3757225433526,229.7902850627138 516.9942196531792,218.70704675028506 518.6127167630058,213.53486887115164 520.2312138728323,242.597582668187 521.849710982659,265.0103534777651 523.4682080924856,268.7047662485747 525.0867052023123,265.0103534777651 526.7052023121387,262.05482326111746 528.3236994219653,261.56223489167616 529.942196531792,266.2418244013683 531.5606936416185,261.31594070695553 533.179190751445,236.93281641961235 534.7976878612717,227.3273432155074 536.4161849710982,238.6568757126568 538.0346820809248,234.96246294184726 539.6531791907514,244.07534777651085 541.2716763005781,231.021755986317 542.8901734104047,226.83475484606615 544.5086705202312,234.46987457240593 546.1271676300578,214.52004561003423 547.7456647398844,202.2053363740023 549.364161849711,216.2441049030787 550.9826589595375,201.71274800456104 552.6011560693642,223.63293044469782 554.2196531791908,221.6625769669327 555.8381502890174,214.76633979475486 557.4566473988439,211.81080957810718 559.0751445086705,217.7218700114025 560.6936416184972,219.19963511972637 562.3121387283237,199.98868871151655 563.9306358381502,191.61468643101486 565.5491329479769,189.64433295324974 567.1676300578034,196.78686431014825 568.78612716763,204.42198403648806 570.4046242774566,211.56451539338653 572.0231213872833,217.22928164196122 573.6416184971099,215.99781071835804 575.2601156069364,214.76633979475486 576.878612716763,209.59416191562144 578.4971098265896,180.03885974914482 580.1156069364162,147.52802736602052 581.7341040462427,134.96702394526795 583.3526011560693,151.96132269099203 584.971098265896,116.74125427594072 586.5895953757226,101.71730900798174 588.2080924855491,80.28971493728625 589.8265895953757,68.71388825541618 591.4450867052024,88.66371721778795 593.0635838150289,95.31366020524518 594.6820809248555,98.26919042189286 596.3005780346821,89.15630558722924 597.9190751445086,77.0878905359179 599.5375722543353,93.5896009122007 601.1560693641618,93.5896009122007 602.7745664739884,90.38777651083242 604.3930635838151,77.0878905359179 606.0115606936416,88.66371721778795 607.6300578034682,117.97272519954393 609.2485549132948,135.7059064994299 610.8670520231213,143.09473204104904 612.485549132948,132.99667046750284 614.1040462427745,127.82449258836948 615.7225433526012,140.38549600912205 617.3410404624278,144.32620296465225 618.9595375722542,133.73555302166477 620.5780346820809,130.28743443557588 622.1965317919075,130.5337286202965 623.8150289017341,135.21331812998864 625.4335260115607,132.01149372862034 627.0520231213873,143.58732041049035 628.6705202312138,150.97614595210948 630.2890173410404,149.0057924743444 631.907514450867,160.58161915621434 633.5260115606936,155.90202964652224 635.1445086705203,151.7150285062714 636.7630057803468,160.82791334093503 638.3815028901734,153.43908779931587 640.0,151.96132269099203 641.6184971098265,125.60784492588371 643.2369942196532,127.33190421892819 644.8554913294798,101.96360319270241 646.4739884393064,119.94307867730903 648.092485549133,128.31708095781073 649.7109826589596,138.16884834663628 651.3294797687861,156.3946180159635 652.9479768786127,155.409441277081 654.5664739884393,154.42426453819837 656.1849710982659,157.87238312428735 657.8034682080926,164.76862029646526 659.421965317919,157.3797947548461 661.0404624277456,153.43908779931587 662.6589595375723,159.59644241733182 664.2774566473988,154.91685290763974 665.8959537572255,146.0502622576967 667.514450867052,152.94649942987456 669.1329479768785,158.8575598631699 670.7514450867052,165.2612086659065 672.3699421965317,166.985267958951 673.9884393063584,165.01491448118588 675.606936416185,166.24638540478904 677.2254335260116,167.72415051311287 678.8439306358382,173.3889167616876 680.4624277456647,180.28515393386544 682.0809248554913,172.15744583808439 683.6994219653179,176.83703534777652 685.3179190751446,175.3592702394527 686.9364161849711,181.02403648802735 688.5549132947978,183.73327251995443 690.1734104046243,181.51662485746868 691.7919075144508,195.06280501710376 693.4104046242775,186.68880273660204 695.028901734104,181.27033067274806 696.6473988439307,184.22586088939568 698.2658959537573,184.96474344355758 699.8843930635837,181.7629190421893 701.5028901734104,175.60556442417334 703.121387283237,179.7925655644242 704.7398843930636,178.06850627137973 706.3583815028902,190.136921322691 707.9768786127167,158.61126567844929 709.5953757225434,146.29655644241734 711.2138728323699,156.14832383124286 712.8323699421965,153.6853819840365 714.4508670520231,143.58732041049035 716.0693641618498,153.43908779931587 717.6878612716763,164.27603192702395 719.306358381503,182.9943899657925 720.9248554913295,176.34444697833527 722.543352601156,182.7480957810718 724.1618497109827,168.70932725199543 725.7803468208092,164.52232611174458 727.3988439306358,161.32050171037628 729.0173410404625,163.53714937286207 730.6358381502889,156.14832383124286 732.2543352601156,160.33532497149372 733.8728323699422,161.81309007981758 735.4913294797688,160.82791334093503 737.1098265895954,164.76862029646526 738.728323699422,162.0593842645382 740.3468208092486,158.8575598631699 741.9653179190751,148.51320410490314 743.5838150289018,151.46873432155076 745.2023121387283,141.86326111744586 746.820809248555,138.90773090079819 748.4393063583815,150.97614595210948 750.0578034682081,154.42426453819837 751.6763005780347,153.43908779931587 753.2947976878612,146.54285062713802 754.9132947976879,145.06508551881416 756.5317919075145,149.49838084378564 758.150289017341,148.75949828962376 759.7687861271677,144.8187913340935 761.3872832369942,136.9373774230331 763.0057803468208,140.13920182440143 764.6242774566474,144.8187913340935 766.2427745664739,136.1984948688712 767.8612716763006,123.14490307867732 769.4797687861272,156.14832383124286 771.0982658959538,176.0981527936146 772.7167630057803,159.84273660205247 774.335260115607,162.0593842645382 775.9537572254335,175.60556442417334 777.5722543352601,177.08332953249717 779.1907514450867,161.81309007981758 780.8092485549133,158.11867730900798 782.4277456647399,152.20761687571266 784.0462427745664,143.58732041049035 785.664739884393,154.42426453819837 787.2832369942197,150.97614595210948 788.9017341040462,133.73555302166477 790.5202312138729,141.86326111744586 792.1387283236994,130.28743443557588 793.757225433526,138.16884834663628 795.3757225433526,163.29085518814142 796.9942196531792,163.53714937286207 798.6127167630058,168.95562143671611 800.2312138728324,171.41856328392248 801.849710982659,180.77774230330672 803.4682080924855,171.91115165336376 805.0867052023121,174.8666818700114 806.7052023121387,173.63521094640822 808.3236994219653,182.25550741163056 809.942196531792,186.44250855188142 811.5606936416185,193.3387457240593 813.179190751445,192.84615735461804 814.7976878612717,207.37751425313567 816.4161849710982,213.78116305587227 818.0346820809249,228.31251995438996 819.6531791907514,223.87922462941845 821.2716763005781,215.2589281641961 822.8901734104046,220.1848118586089 824.5086705202311,215.2589281641961 826.1271676300578,215.2589281641961 827.7456647398844,215.01263397947548 829.364161849711,208.36269099201826 830.9826589595376,212.54969213226912 832.6011560693642,216.9829874572406 834.2196531791907,210.08675028506272 835.8381502890173,200.48127708095782 837.4566473988439,198.5109236031927 839.0751445086705,196.54057012542762 840.6936416184972,194.07762827822123 842.3121387283237,195.55539338654506 843.9306358381502,197.2794526795895 845.5491329479769,195.30909920182438 847.1676300578034,193.83133409350057 848.7861271676301,190.62950969213227 850.4046242774567,189.39803876852912 852.0231213872833,189.39803876852912 853.6416184971098,187.42768529076397 855.2601156069364,189.39803876852912 856.878612716763,180.77774230330672 858.4971098265896,189.1517445838084 860.1156069364162,174.3740935005701 861.7341040462428,177.57591790193845 863.3526011560695,172.65003420752566 864.9710982658959,172.15744583808439 866.5895953757225,170.67968072976055 868.2080924855492,161.81309007981758 869.8265895953757,171.91115165336376 871.4450867052024,166.4926795895097 873.0635838150289,176.34444697833527 874.6820809248554,175.60556442417334 876.3005780346821,179.54627137970357 877.9190751445086,184.22586088939568 879.5375722543353,183.24068415051315 881.1560693641619,190.62950969213227 882.7745664739884,181.51662485746868 884.393063583815,177.08332953249717 886.0115606936416,178.80738882554164 887.6300578034682,188.41286202964653 889.2485549132948,179.7925655644242 890.8670520231213,201.71274800456104 892.485549132948,204.9145724059293 894.1040462427746,199.24980615735458 895.7225433526012,192.35356898517674 897.3410404624277,197.03315849486887 898.9595375722544,190.8758038768529 900.5780346820809,188.90545039908778 902.1965317919075,184.47215507411633 903.8150289017342,166.985267958951 905.4335260115606,184.22586088939568 907.0520231213873,177.3296237172178 908.6705202312139,177.08332953249717 910.2890173410404,149.9909692132269 911.9075144508671,157.62608893956673 913.5260115606936,137.18367160775372 915.1445086705202,131.76519954389966 916.7630057803468,133.98184720638545 918.3815028901734,126.8393158494869 920.0,114.52460661345498" stroke="#58a6ff" stroke-width="1.8" fill="none"/>
<line x1="80" y1="123.14490307867732" x2="920" y2="123.14490307867732" stroke="#f0883e" stroke-width="2" stroke-dasharray="8,4"/>
<text x="925" y="128.14490307867732" font-size="11" fill="#f0883e" font-weight="bold">━ 颈线 15.48</text>
<line x1="80" y1="56.15288483466362" x2="920" y2="56.15288483466362" stroke="#a371f7" stroke-width="1.5" stroke-dasharray="5,5"/>
<text x="925" y="61.15288483466362" font-size="11" fill="#a371f7" font-weight="bold">▼ 目标 18.20 (+15.0%)</text>
<circle cx="706.3583815028902" cy="190.136921322691" r="7" fill="#238636" stroke="#fff" stroke-width="2"/>
<text x="706.3583815028902" y="210.136921322691" text-anchor="middle" font-size="10" fill="#3fb950">左底 ¥12.76</text>
<circle cx="777.5722543352601" cy="177.08332953249717" r="7" fill="#8957e5" stroke="#fff" stroke-width="2"/>
<text x="777.5722543352601" y="197.08332953249717" text-anchor="middle" font-size="10" fill="#bc8cff">右底 ¥13.29</text>
<circle cx="920.0" cy="123.14490307867732" r="8" fill="#f0883e" stroke="#fff" stroke-width="2.5"/>
<text x="920.0" y="109.14490307867732" text-anchor="middle" font-size="11" fill="#f0883e" font-weight="bold">★ 突破</text>
<line x1="920.0" y1="114.52460661345498" x2="920" y2="114.52460661345498" stroke="#88ccff" stroke-width="1.5"/>
<text x="925" y="119.52460661345498" font-size="11" fill="#88ccff" font-weight="bold">● 现价 15.83</text>
<text x="80" y="618" font-size="13" fill="#58a6ff" font-weight="bold">评分原因 (总分: 60):</text>
<text x="90" y="636" font-size="11" fill="#c9d1d9">1. 刚刚突破(0天前)</text>
<text x="90" y="652" font-size="11" fill="#c9d1d9">2. 形态跨度大(44根K线)</text>
<text x="90" y="668" font-size="11" fill="#c9d1d9">3. 右底高于左底</text>
<text x="90" y="684" font-size="11" fill="#c9d1d9">4. 振幅理想(21.3%)</text>
<text x="928" y="80" font-size="10" fill="#8b949e">突破日: 2026-06-25</text>
<text x="928" y="96" font-size="10" fill="#8b949e">突破后涨幅: 2.3%</text>
<text x="928" y="112" font-size="10" fill="#8b949e">目标空间: 15.0%</text>
<text x="928" y="128" font-size="10" fill="#8b949e">形态跨度: 44根K线</text>
</svg>