<svg xmlns="http://www.w3.org/2000/svg" viewBox="0 0 1000 720" width="1000" height="720">
<rect width="1000" height="720" fill="#0d1117"/>
<text x="500.0" y="24" text-anchor="middle" font-size="17" fill="#58a6ff" font-weight="bold">赛微微电 (688325.SH)  W双底突破</text>
<text x="500.0" y="44" text-anchor="middle" font-size="13" fill="#8b949e">评分:63/100 | 突破后涨幅:0.8% | 目标空间:14.9%</text>
<line x1="80" y1="384.0" x2="920" y2="384.0" stroke="#21262d" stroke-width="0.5"/>
<text x="72" y="388.0" text-anchor="end" font-size="10" fill="#8b949e">27.81</text>
<line x1="80" y1="319.2" x2="920" y2="319.2" stroke="#21262d" stroke-width="0.5"/>
<text x="72" y="323.2" text-anchor="end" font-size="10" fill="#8b949e">53.01</text>
<line x1="80" y1="254.39999999999995" x2="920" y2="254.39999999999995" stroke="#21262d" stroke-width="0.5"/>
<text x="72" y="258.4" text-anchor="end" font-size="10" fill="#8b949e">78.21</text>
<line x1="80" y1="189.59999999999997" x2="920" y2="189.59999999999997" stroke="#21262d" stroke-width="0.5"/>
<text x="72" y="193.59999999999997" text-anchor="end" font-size="10" fill="#8b949e">103.41</text>
<line x1="80" y1="124.79999999999995" x2="920" y2="124.79999999999995" stroke="#21262d" stroke-width="0.5"/>
<text x="72" y="128.79999999999995" text-anchor="end" font-size="10" fill="#8b949e">128.61</text>
<line x1="80" y1="60.0" x2="920" y2="60.0" stroke="#21262d" stroke-width="0.5"/>
<text x="72" y="64.0" text-anchor="end" font-size="10" fill="#8b949e">153.81</text>
<text x="80.0" y="550.1999999999999" text-anchor="middle" font-size="9" fill="#8b949e">2024-05-06</text>
<text x="185.20231213872833" y="550.1999999999999" text-anchor="middle" font-size="9" fill="#8b949e">2024-08-06</text>
<text x="290.40462427745666" y="550.1999999999999" text-anchor="middle" font-size="9" fill="#8b949e">2024-11-14</text>
<text x="395.60693641618496" y="550.1999999999999" text-anchor="middle" font-size="9" fill="#8b949e">2025-02-24</text>
<text x="500.8092485549133" y="550.1999999999999" text-anchor="middle" font-size="9" fill="#8b949e">2025-05-30</text>
<text x="606.0115606936416" y="550.1999999999999" text-anchor="middle" font-size="9" fill="#8b949e">2025-09-01</text>
<text x="711.2138728323699" y="550.1999999999999" text-anchor="middle" font-size="9" fill="#8b949e">2025-12-09</text>
<text x="816.4161849710982" y="550.1999999999999" text-anchor="middle" font-size="9" fill="#8b949e">2026-03-20</text>
<rect x="816.4161849710982" y="60" width="92.25433526011568" height="475.2" fill="#238636" opacity="0.08" rx="3"/>
<text x="862.5433526011561" y="54" text-anchor="middle" font-size="11" fill="#3fb950" font-weight="bold">▼ 双底区域 ▼</text>
<rect x="79.5" y="523.609577417867" width="1" height="11.590422582132987" fill="#3fb950" opacity="0.45"/>
<rect x="81.11849710982659" y="527.7642018655032" width="1" height="7.435798134496736" fill="#3fb950" opacity="0.45"/>
<rect x="82.73699421965318" y="527.173631135206" width="1" height="8.02636886479388" fill="#f85149" opacity="0.45"/>
<rect x="84.35549132947978" y="527.4098338273221" width="1" height="7.7901661726778" fill="#3fb950" opacity="0.45"/>
<rect x="85.97398843930635" y="525.3831242756228" width="1" height="9.816875724377155" fill="#f85149" opacity="0.45"/>
<rect x="87.59248554913295" y="523.640809421232" width="1" height="11.559190578767925" fill="#f85149" opacity="0.45"/>
<rect x="89.21098265895954" y="530.2525541336086" width="1" height="4.9474458663913765" fill="#3fb950" opacity="0.45"/>
<rect x="90.82947976878613" y="530.757748854707" width="1" height="4.442251145292971" fill="#f85149" opacity="0.45"/>
<rect x="92.44797687861272" y="530.3938021488271" width="1" height="4.806197851172783" fill="#3fb950" opacity="0.45"/>
<rect x="94.0664739884393" y="530.4050981500442" width="1" height="4.79490184995575" fill="#3fb950" opacity="0.45"/>
<rect x="95.68497109826589" y="527.662100521169" width="1" height="7.537899478830923" fill="#f85149" opacity="0.45"/>
<rect x="97.30346820809248" y="528.8347619808497" width="1" height="6.365238019150183" fill="#f85149" opacity="0.45"/>
<rect x="98.92196531791907" y="529.2350820239819" width="1" height="5.9649179760180004" fill="#3fb950" opacity="0.45"/>
<rect x="100.54046242774567" y="530.5779941686727" width="1" height="4.622005831327215" fill="#f85149" opacity="0.45"/>
<rect x="102.15895953757226" y="531.1312635616176" width="1" height="4.068736438382302" fill="#f85149" opacity="0.45"/>
<rect x="103.77745664739885" y="528.85654331653" width="1" height="6.343456683469981" fill="#3fb950" opacity="0.45"/>
<rect x="105.39595375722544" y="528.1165645701349" width="1" height="7.083435429865062" fill="#3fb950" opacity="0.45"/>
<rect x="107.01445086705202" y="531.6977276226507" width="1" height="3.502272377349186" fill="#f85149" opacity="0.45"/>
<rect x="108.63294797687861" y="528.3190072586135" width="1" height="6.880992741386422" fill="#3fb950" opacity="0.45"/>
<rect x="110.2514450867052" y="527.8039565364531" width="1" height="7.396043463546789" fill="#3fb950" opacity="0.45"/>
<rect x="111.86994219653178" y="526.7423884220755" width="1" height="8.457611577924467" fill="#f85149" opacity="0.45"/>
<rect x="113.48843930635837" y="525.3797642752608" width="1" height="9.820235724739177" fill="#f85149" opacity="0.45"/>
<rect x="115.10693641618496" y="529.7375034114482" width="1" height="5.462496588551744" fill="#f85149" opacity="0.45"/>
<rect x="116.72543352601156" y="523.0727346933586" width="1" height="12.127265306641334" fill="#f85149" opacity="0.45"/>
<rect x="118.34393063583815" y="530.5759141684487" width="1" height="4.62408583155127" fill="#3fb950" opacity="0.45"/>
<rect x="119.96242774566474" y="526.7685750915637" width="1" height="8.43142490843627" fill="#3fb950" opacity="0.45"/>
<rect x="121.58092485549133" y="529.2904846966179" width="1" height="5.9095153033820225" fill="#3fb950" opacity="0.45"/>
<rect x="123.19942196531792" y="505.9929781864488" width="1" height="29.207021813551137" fill="#3fb950" opacity="0.45"/>
<rect x="124.81791907514452" y="519.5234223109411" width="1" height="15.676577689058831" fill="#f85149" opacity="0.45"/>
<rect x="126.43641618497111" y="521.3476038408193" width="1" height="13.852396159180671" fill="#3fb950" opacity="0.45"/>
<rect x="128.0549132947977" y="521.9811505757468" width="1" height="13.218849424253108" fill="#3fb950" opacity="0.45"/>
<rect x="129.6734104046243" y="521.5240091931593" width="1" height="13.675990806840673" fill="#f85149" opacity="0.45"/>
<rect x="131.29190751445088" y="477.63130046397845" width="1" height="57.568699536021484" fill="#3fb950" opacity="0.45"/>
<rect x="132.91040462427745" y="500.9453829759335" width="1" height="34.25461702406642" fill="#f85149" opacity="0.45"/>
<rect x="134.52890173410404" y="504.78946872344443" width="1" height="30.410531276555503" fill="#f85149" opacity="0.45"/>
<rect x="136.14739884393063" y="516.1040299425217" width="1" height="19.095970057478212" fill="#f85149" opacity="0.45"/>
<rect x="137.76589595375722" y="515.946152592178" width="1" height="19.253847407821922" fill="#3fb950" opacity="0.45"/>
<rect x="139.38439306358381" y="519.2398596137223" width="1" height="15.960140386277658" fill="#f85149" opacity="0.45"/>
<rect x="141.0028901734104" y="522.7914759963879" width="1" height="12.408524003612001" fill="#3fb950" opacity="0.45"/>
<rect x="142.621387283237" y="518.7365528928273" width="1" height="16.46344710717267" fill="#f85149" opacity="0.45"/>
<rect x="144.23988439306356" y="527.8636472095512" width="1" height="7.3363527904487" fill="#f85149" opacity="0.45"/>
<rect x="145.85838150289015" y="523.2709427147144" width="1" height="11.92905728528558" fill="#3fb950" opacity="0.45"/>
<rect x="147.47687861271675" y="525.6288736354342" width="1" height="9.571126364565771" fill="#f85149" opacity="0.45"/>
<rect x="149.09537572254334" y="526.8133217630515" width="1" height="8.386678236948455" fill="#f85149" opacity="0.45"/>
<rect x="150.71387283236993" y="525.5367776255114" width="1" height="9.663222374488555" fill="#3fb950" opacity="0.45"/>
<rect x="152.33236994219652" y="522.4641266277847" width="1" height="12.735873372215224" fill="#3fb950" opacity="0.45"/>
<rect x="153.9508670520231" y="526.7535670899466" width="1" height="8.446432910053318" fill="#f85149" opacity="0.45"/>
<rect x="155.5693641618497" y="525.4649589511066" width="1" height="9.735041048893322" fill="#3fb950" opacity="0.45"/>
<rect x="157.1878612716763" y="529.2536846926529" width="1" height="5.946315307347049" fill="#f85149" opacity="0.45"/>
<rect x="158.8063583815029" y="528.2739405870913" width="1" height="6.926059412908671" fill="#f85149" opacity="0.45"/>
<rect x="160.42485549132948" y="525.6451296371856" width="1" height="9.554870362814313" fill="#3fb950" opacity="0.45"/>
<rect x="162.04335260115607" y="526.8121484295917" width="1" height="8.387851570408202" fill="#f85149" opacity="0.45"/>
<rect x="163.66184971098266" y="523.1856093721868" width="1" height="12.0143906278131" fill="#f85149" opacity="0.45"/>
<rect x="165.28034682080926" y="519.2342169464475" width="1" height="15.9657830535524" fill="#3fb950" opacity="0.45"/>
<rect x="166.89884393063585" y="525.1398495827448" width="1" height="10.060150417255159" fill="#3fb950" opacity="0.45"/>
<rect x="168.51734104046244" y="527.3584844884563" width="1" height="7.841515511543662" fill="#f85149" opacity="0.45"/>
<rect x="170.13583815028903" y="477.898948492816" width="1" height="57.301051507183956" fill="#3fb950" opacity="0.45"/>
<rect x="171.75433526011562" y="502.53315914700704" width="1" height="32.66684085299289" fill="#f85149" opacity="0.45"/>
<rect x="173.37283236994222" y="500.2280388986439" width="1" height="34.971961101356044" fill="#3fb950" opacity="0.45"/>
<rect x="174.99132947976878" y="513.2030376299568" width="1" height="21.996962370043093" fill="#f85149" opacity="0.45"/>
<rect x="176.60982658959537" y="496.20517979853787" width="1" height="38.99482020146206" fill="#3fb950" opacity="0.45"/>
<rect x="178.22832369942196" y="501.78244973278913" width="1" height="33.4175502672108" fill="#3fb950" opacity="0.45"/>
<rect x="179.84682080924856" y="497.5331906082899" width="1" height="37.666809391710046" fill="#3fb950" opacity="0.45"/>
<rect x="181.46531791907515" y="511.1611067432842" width="1" height="24.03889325671571" fill="#f85149" opacity="0.45"/>
<rect x="183.08381502890174" y="512.0984295109419" width="1" height="23.101570489058076" fill="#f85149" opacity="0.45"/>
<rect x="184.70231213872833" y="521.0565851427971" width="1" height="14.143414857202856" fill="#3fb950" opacity="0.45"/>
<rect x="186.3208092485549" y="526.1755723610044" width="1" height="9.024427638995576" fill="#f85149" opacity="0.45"/>
<rect x="187.93930635838151" y="518.3670381863475" width="1" height="16.832961813652446" fill="#3fb950" opacity="0.45"/>
<rect x="189.55780346820808" y="516.2196566216464" width="1" height="18.980343378353496" fill="#3fb950" opacity="0.45"/>
<rect x="191.17630057803467" y="511.8500028175087" width="1" height="23.349997182491222" fill="#3fb950" opacity="0.45"/>
<rect x="192.79479768786126" y="520.2917530603909" width="1" height="14.908246939609057" fill="#3fb950" opacity="0.45"/>
<rect x="194.41329479768785" y="523.352905390212" width="1" height="11.847094609787973" fill="#f85149" opacity="0.45"/>
<rect x="196.03179190751445" y="516.8794113593979" width="1" height="18.320588640602068" fill="#f85149" opacity="0.45"/>
<rect x="197.65028901734104" y="518.9249582464602" width="1" height="16.275041753539767" fill="#f85149" opacity="0.45"/>
<rect x="199.26878612716763" y="521.7239878813724" width="1" height="13.476012118627523" fill="#3fb950" opacity="0.45"/>
<rect x="200.88728323699422" y="526.6468364117803" width="1" height="8.553163588219604" fill="#f85149" opacity="0.45"/>
<rect x="202.5057803468208" y="529.6636367368228" width="1" height="5.5363632631771225" fill="#f85149" opacity="0.45"/>
<rect x="204.1242774566474" y="529.7333647443356" width="1" height="5.4666352556643005" fill="#f85149" opacity="0.45"/>
<rect x="205.742774566474" y="528.5113059459993" width="1" height="6.688694054000621" fill="#f85149" opacity="0.45"/>
<rect x="207.3612716763006" y="528.3550072624923" width="1" height="6.844992737507596" fill="#3fb950" opacity="0.45"/>
<rect x="208.97976878612715" y="528.8376099811566" width="1" height="6.362390018843371" fill="#f85149" opacity="0.45"/>
<rect x="210.59826589595377" y="526.5197537314212" width="1" height="8.680246268578685" fill="#3fb950" opacity="0.45"/>
<rect x="212.21676300578034" y="524.4198601718367" width="1" height="10.780139828163215" fill="#3fb950" opacity="0.45"/>
<rect x="213.83526011560696" y="514.2898110803836" width="1" height="20.910188919616303" fill="#3fb950" opacity="0.45"/>
<rect x="215.45375722543352" y="522.8441906687343" width="1" height="12.355809331265618" fill="#f85149" opacity="0.45"/>
<rect x="217.0722543352601" y="529.3547193702054" width="1" height="5.845280629794502" fill="#3fb950" opacity="0.45"/>
<rect x="218.6907514450867" y="528.6715832966015" width="1" height="6.52841670339842" fill="#f85149" opacity="0.45"/>
<rect x="220.3092485549133" y="529.9133220970582" width="1" height="5.286677902941733" fill="#f85149" opacity="0.45"/>
<rect x="221.9277456647399" y="526.2353270341093" width="1" height="8.9646729658906" fill="#f85149" opacity="0.45"/>
<rect x="223.54624277456648" y="530.7041061822606" width="1" height="4.495893817739329" fill="#f85149" opacity="0.45"/>
<rect x="225.16473988439307" y="528.9535779936515" width="1" height="6.246422006348439" fill="#3fb950" opacity="0.45"/>
<rect x="226.78323699421964" y="531.1429115628725" width="1" height="4.0570884371273905" fill="#3fb950" opacity="0.45"/>
<rect x="228.40173410404626" y="526.371593715458" width="1" height="8.828406284541984" fill="#f85149" opacity="0.45"/>
<rect x="230.02023121387282" y="530.6254181737824" width="1" height="4.574581826217582" fill="#f85149" opacity="0.45"/>
<rect x="231.63872832369944" y="531.0724155552771" width="1" height="4.1275844447228565" fill="#f85149" opacity="0.45"/>
<rect x="233.257225433526" y="529.2212153558212" width="1" height="5.978784644178745" fill="#3fb950" opacity="0.45"/>
<rect x="234.8757225433526" y="530.9303035399653" width="1" height="4.269696460034652" fill="#f85149" opacity="0.45"/>
<rect x="236.4942196531792" y="531.18722090098" width="1" height="4.012779099019895" fill="#f85149" opacity="0.45"/>
<rect x="238.11271676300578" y="527.3264524850049" width="1" height="7.873547514995039" fill="#3fb950" opacity="0.45"/>
<rect x="239.73121387283237" y="525.5961482985749" width="1" height="9.603851701425015" fill="#3fb950" opacity="0.45"/>
<rect x="241.34971098265896" y="526.8875191043792" width="1" height="8.312480895620752" fill="#3fb950" opacity="0.45"/>
<rect x="242.96820809248555" y="525.5721909626603" width="1" height="9.627809037339603" fill="#3fb950" opacity="0.45"/>
<rect x="244.58670520231215" y="498.1880386788459" width="1" height="37.01196132115405" fill="#3fb950" opacity="0.45"/>
<rect x="246.20520231213874" y="478.83541792704835" width="1" height="56.36458207295158" fill="#3fb950" opacity="0.45"/>
<rect x="247.8236994219653" y="456.2450688264047" width="1" height="78.95493117359524" fill="#f85149" opacity="0.45"/>
<rect x="249.44219653179192" y="500.68755894815445" width="1" height="34.512441051845485" fill="#f85149" opacity="0.45"/>
<rect x="251.06069364161849" y="510.61225335081514" width="1" height="24.587746649184794" fill="#f85149" opacity="0.45"/>
<rect x="252.67919075144508" y="496.3793024839652" width="1" height="38.82069751603473" fill="#3fb950" opacity="0.45"/>
<rect x="254.29768786127167" y="499.93805486739984" width="1" height="35.26194513260009" fill="#f85149" opacity="0.45"/>
<rect x="255.91618497109823" y="514.177768401645" width="1" height="21.022231598354892" fill="#f85149" opacity="0.45"/>
<rect x="257.5346820809249" y="511.0005520593187" width="1" height="24.19944794068124" fill="#3fb950" opacity="0.45"/>
<rect x="259.1531791907514" y="475.7297322590957" width="1" height="59.470267740904205" fill="#3fb950" opacity="0.45"/>
<rect x="260.77167630057806" y="472.13142787139964" width="1" height="63.068572128600294" fill="#3fb950" opacity="0.45"/>
<rect x="262.3901734104046" y="501.5494043743466" width="1" height="33.65059562565335" fill="#f85149" opacity="0.45"/>
<rect x="264.00867052023125" y="510.7098746946666" width="1" height="24.490125305333322" fill="#f85149" opacity="0.45"/>
<rect x="265.6271676300578" y="514.1241577292021" width="1" height="21.075842270797807" fill="#f85149" opacity="0.45"/>
<rect x="267.24566473988443" y="511.60503212444786" width="1" height="23.594967875552072" fill="#f85149" opacity="0.45"/>
<rect x="268.86416184971097" y="521.372126510128" width="1" height="13.827873489871877" fill="#3fb950" opacity="0.45"/>
<rect x="270.48265895953756" y="515.3001578559092" width="1" height="19.899842144090712" fill="#f85149" opacity="0.45"/>
<rect x="272.10115606936415" y="512.9866749399785" width="1" height="22.213325060021475" fill="#3fb950" opacity="0.45"/>
<rect x="273.71965317919074" y="512.7128615771433" width="1" height="22.487138422856674" fill="#3fb950" opacity="0.45"/>
<rect x="275.33815028901734" y="512.7596242488484" width="1" height="22.440375751151578" fill="#f85149" opacity="0.45"/>
<rect x="276.9566473988439" y="525.4225162798671" width="1" height="9.777483720132864" fill="#3fb950" opacity="0.45"/>
<rect x="278.5751445086705" y="514.3317950849072" width="1" height="20.868204915092747" fill="#3fb950" opacity="0.45"/>
<rect x="280.1936416184971" y="512.7996669198294" width="1" height="22.400333080170526" fill="#f85149" opacity="0.45"/>
<rect x="281.8121387283237" y="517.831368795299" width="1" height="17.368631204700932" fill="#3fb950" opacity="0.45"/>
<rect x="283.4306358381503" y="503.51714858635944" width="1" height="31.682851413640492" fill="#3fb950" opacity="0.45"/>
<rect x="285.0491329479769" y="461.25079736574247" width="1" height="73.94920263425746" fill="#3fb950" opacity="0.45"/>
<rect x="286.6676300578035" y="473.14461198056426" width="1" height="62.05538801943567" fill="#f85149" opacity="0.45"/>
<rect x="288.28612716763007" y="500.85975096670717" width="1" height="34.340249033292764" fill="#3fb950" opacity="0.45"/>
<rect x="289.90462427745666" y="504.7888607233789" width="1" height="30.411139276621043" fill="#f85149" opacity="0.45"/>
<rect x="291.52312138728325" y="510.18926663857417" width="1" height="25.010733361425764" fill="#f85149" opacity="0.45"/>
<rect x="293.1416184971098" y="518.4732461977908" width="1" height="16.726753802209146" fill="#f85149" opacity="0.45"/>
<rect x="294.76011560693644" y="519.0429422591722" width="1" height="16.15705774082778" fill="#3fb950" opacity="0.45"/>
<rect x="296.37861271676303" y="518.1617794975655" width="1" height="17.038220502434456" fill="#3fb950" opacity="0.45"/>
<rect x="297.9971098265896" y="518.2221528374037" width="1" height="16.977847162596277" fill="#f85149" opacity="0.45"/>
<rect x="299.61560693641616" y="513.8262163637673" width="1" height="21.373783636232588" fill="#f85149" opacity="0.45"/>
<rect x="301.2341040462428" y="523.0094706865423" width="1" height="12.19052931345766" fill="#3fb950" opacity="0.45"/>
<rect x="302.85260115606934" y="526.2525963693033" width="1" height="8.947403630696613" fill="#f85149" opacity="0.45"/>
<rect x="304.471098265896" y="523.8905694481422" width="1" height="11.309430551857758" fill="#3fb950" opacity="0.45"/>
<rect x="306.0895953757225" y="521.2280304946025" width="1" height="13.971969505397396" fill="#3fb950" opacity="0.45"/>
<rect x="307.7080924855491" y="518.7345795592813" width="1" height="16.465420440718617" fill="#3fb950" opacity="0.45"/>
<rect x="309.3265895953757" y="521.8769478978529" width="1" height="13.323052102147017" fill="#3fb950" opacity="0.45"/>
<rect x="310.94508670520236" y="524.2638494883608" width="1" height="10.936150511639084" fill="#f85149" opacity="0.45"/>
<rect x="312.5635838150289" y="520.3176197298445" width="1" height="14.882380270155409" fill="#f85149" opacity="0.45"/>
<rect x="314.1820809248555" y="526.1165856879823" width="1" height="9.08341431201768" fill="#3fb950" opacity="0.45"/>
<rect x="315.8005780346821" y="522.2039985997574" width="1" height="12.996001400242562" fill="#3fb950" opacity="0.45"/>
<rect x="317.4190751445087" y="527.0647671234766" width="1" height="8.135232876523332" fill="#f85149" opacity="0.45"/>
<rect x="319.03757225433526" y="518.3746435205003" width="1" height="16.825356479499646" fill="#3fb950" opacity="0.45"/>
<rect x="320.65606936416185" y="502.82018851126605" width="1" height="32.37981148873388" fill="#3fb950" opacity="0.45"/>
<rect x="322.27456647398844" y="519.676360994086" width="1" height="15.523639005913878" fill="#f85149" opacity="0.45"/>
<rect x="323.893063583815" y="505.54272747127027" width="1" height="29.657272528729663" fill="#3fb950" opacity="0.45"/>
<rect x="325.5115606936416" y="519.0469635929388" width="1" height="16.15303640706111" fill="#f85149" opacity="0.45"/>
<rect x="327.1300578034682" y="518.9428569150552" width="1" height="16.257143084944687" fill="#f85149" opacity="0.45"/>
<rect x="328.7485549132948" y="518.9027395773995" width="1" height="16.297260422600402" fill="#3fb950" opacity="0.45"/>
<rect x="330.36705202312135" y="519.843145012056" width="1" height="15.356854987943962" fill="#3fb950" opacity="0.45"/>
<rect x="331.985549132948" y="506.93683962147765" width="1" height="28.263160378522286" fill="#3fb950" opacity="0.45"/>
<rect x="333.60404624277453" y="519.2446169475681" width="1" height="15.955383052431785" fill="#f85149" opacity="0.45"/>
<rect x="335.2225433526012" y="518.2713261760351" width="1" height="16.9286738239648" fill="#3fb950" opacity="0.45"/>
<rect x="336.84104046242777" y="523.002238685763" width="1" height="12.197761314236914" fill="#f85149" opacity="0.45"/>
<rect x="338.4595375722543" y="516.5967766622789" width="1" height="18.603223337721033" fill="#3fb950" opacity="0.45"/>
<rect x="340.0780346820809" y="518.3088515134116" width="1" height="16.89114848658835" fill="#f85149" opacity="0.45"/>
<rect x="341.69653179190755" y="525.0886922438995" width="1" height="10.111307756100473" fill="#f85149" opacity="0.45"/>
<rect x="343.3150289017341" y="521.2903451679833" width="1" height="13.9096548320166" fill="#f85149" opacity="0.45"/>
<rect x="344.9335260115607" y="515.8132352445236" width="1" height="19.386764755476293" fill="#f85149" opacity="0.45"/>
<rect x="346.55202312138726" y="521.6712518756904" width="1" height="13.528748124309573" fill="#f85149" opacity="0.45"/>
<rect x="348.1705202312139" y="524.3742175002524" width="1" height="10.825782499747561" fill="#3fb950" opacity="0.45"/>
<rect x="349.78901734104045" y="524.7620788753754" width="1" height="10.437921124624495" fill="#3fb950" opacity="0.45"/>
<rect x="351.40751445086704" y="523.068244026208" width="1" height="12.131755973791883" fill="#3fb950" opacity="0.45"/>
<rect x="353.02601156069363" y="525.0695029084986" width="1" height="10.130497091501297" fill="#f85149" opacity="0.45"/>
<rect x="354.6445086705202" y="524.3033801592867" width="1" height="10.896619840713242" fill="#f85149" opacity="0.45"/>
<rect x="356.2630057803468" y="528.0149752258559" width="1" height="7.18502477414404" fill="#f85149" opacity="0.45"/>
<rect x="357.8815028901734" y="526.0179296773526" width="1" height="9.182070322647292" fill="#3fb950" opacity="0.45"/>
<rect x="359.5" y="529.1849273519114" width="1" height="6.015072648088562" fill="#f85149" opacity="0.45"/>
<rect x="361.1184971098266" y="527.1026231275554" width="1" height="8.097376872444556" fill="#f85149" opacity="0.45"/>
<rect x="362.7369942196532" y="508.52670645944306" width="1" height="26.67329354055687" fill="#3fb950" opacity="0.45"/>
<rect x="364.3554913294798" y="522.6991666531088" width="1" height="12.500833346891113" fill="#3fb950" opacity="0.45"/>
<rect x="365.97398843930637" y="519.7173743318383" width="1" height="15.482625668161631" fill="#3fb950" opacity="0.45"/>
<rect x="367.59248554913296" y="520.2788890590049" width="1" height="14.92111094099505" fill="#f85149" opacity="0.45"/>
<rect x="369.2109826589595" y="522.4707292951628" width="1" height="12.729270704837177" fill="#f85149" opacity="0.45"/>
<rect x="370.82947976878614" y="524.1540361431958" width="1" height="11.045963856804178" fill="#3fb950" opacity="0.45"/>
<rect x="372.44797687861274" y="526.1170443546984" width="1" height="9.082955645301581" fill="#f85149" opacity="0.45"/>
<rect x="374.06647398843927" y="526.0684896828002" width="1" height="9.13151031719974" fill="#3fb950" opacity="0.45"/>
<rect x="375.68497109826586" y="522.0994225884899" width="1" height="13.100577411510017" fill="#3fb950" opacity="0.45"/>
<rect x="377.3034682080925" y="519.1696516061577" width="1" height="16.030348393842246" fill="#f85149" opacity="0.45"/>
<rect x="378.9219653179191" y="523.0537266913107" width="1" height="12.146273308689274" fill="#3fb950" opacity="0.45"/>
<rect x="380.54046242774564" y="525.2241482584941" width="1" height="9.975851741505835" fill="#f85149" opacity="0.45"/>
<rect x="382.1589595375723" y="523.7523080999119" width="1" height="11.447691900087989" fill="#3fb950" opacity="0.45"/>
<rect x="383.7774566473989" y="522.249971938044" width="1" height="12.95002806195589" fill="#f85149" opacity="0.45"/>
<rect x="385.3959537572254" y="527.5082231712563" width="1" height="7.6917768287436274" fill="#f85149" opacity="0.45"/>
<rect x="387.014450867052" y="527.572052511467" width="1" height="7.627947488532982" fill="#f85149" opacity="0.45"/>
<rect x="388.63294797687865" y="527.1253217966677" width="1" height="8.074678203332269" fill="#f85149" opacity="0.45"/>
<rect x="390.2514450867052" y="526.9739724470273" width="1" height="8.226027552972596" fill="#3fb950" opacity="0.45"/>
<rect x="391.8699421965318" y="528.6602232953776" width="1" height="6.539776704622341" fill="#f85149" opacity="0.45"/>
<rect x="393.4884393063584" y="521.1985051580881" width="1" height="14.001494841911835" fill="#3fb950" opacity="0.45"/>
<rect x="395.10693641618496" y="521.4120198477597" width="1" height="13.787980152240266" fill="#3fb950" opacity="0.45"/>
<rect x="396.72543352601156" y="520.4492037440219" width="1" height="14.750796255978003" fill="#f85149" opacity="0.45"/>
<rect x="398.34393063583815" y="520.475337080171" width="1" height="14.724662919828916" fill="#3fb950" opacity="0.45"/>
<rect x="399.96242774566474" y="502.90134052000974" width="1" height="32.29865947999019" fill="#3fb950" opacity="0.45"/>
<rect x="401.58092485549133" y="509.91762927597347" width="1" height="25.282370724026464" fill="#f85149" opacity="0.45"/>
<rect x="403.1994219653179" y="522.6318493125225" width="1" height="12.568150687477441" fill="#f85149" opacity="0.45"/>
<rect x="404.81791907514446" y="520.1535770455032" width="1" height="15.046422954496734" fill="#3fb950" opacity="0.45"/>
<rect x="406.4364161849711" y="517.1089793841325" width="1" height="18.09102061586748" fill="#f85149" opacity="0.45"/>
<rect x="408.0549132947977" y="506.9812449595954" width="1" height="28.218755040404517" fill="#3fb950" opacity="0.45"/>
<rect x="409.6734104046243" y="506.96141562412555" width="1" height="28.23858437587438" fill="#3fb950" opacity="0.45"/>
<rect x="411.2919075144509" y="515.851869915353" width="1" height="19.348130084646982" fill="#3fb950" opacity="0.45"/>
<rect x="412.9104046242775" y="519.5190383104688" width="1" height="15.68096168953116" fill="#f85149" opacity="0.45"/>
<rect x="414.52890173410407" y="518.0448728183028" width="1" height="17.15512718169714" fill="#f85149" opacity="0.45"/>
<rect x="416.1473988439306" y="520.2393797214146" width="1" height="14.960620278585338" fill="#f85149" opacity="0.45"/>
<rect x="417.76589595375725" y="523.2646600473707" width="1" height="11.935339952629192" fill="#3fb950" opacity="0.45"/>
<rect x="419.38439306358384" y="525.3324362701615" width="1" height="9.86756372983848" fill="#3fb950" opacity="0.45"/>
<rect x="421.0028901734104" y="523.9422387870426" width="1" height="11.257761212957348" fill="#3fb950" opacity="0.45"/>
<rect x="422.62138728323697" y="527.9734498880484" width="1" height="7.2265501119514965" fill="#f85149" opacity="0.45"/>
<rect x="424.2398843930636" y="528.9390926587574" width="1" height="6.2609073412425005" fill="#f85149" opacity="0.45"/>
<rect x="425.85838150289015" y="525.2815349313438" width="1" height="9.918465068656133" fill="#f85149" opacity="0.45"/>
<rect x="427.47687861271675" y="528.7450553045177" width="1" height="6.454944695482254" fill="#3fb950" opacity="0.45"/>
<rect x="429.09537572254334" y="530.7830395240985" width="1" height="4.416960475901419" fill="#f85149" opacity="0.45"/>
<rect x="430.71387283236993" y="528.581961953612" width="1" height="6.618038046387937" fill="#3fb950" opacity="0.45"/>
<rect x="432.3323699421965" y="528.9693859953547" width="1" height="6.23061400464519" fill="#f85149" opacity="0.45"/>
<rect x="433.9508670520231" y="530.1818127926532" width="1" height="5.0181872073467275" fill="#f85149" opacity="0.45"/>
<rect x="435.5693641618497" y="529.4393273793214" width="1" height="5.76067262067852" fill="#f85149" opacity="0.45"/>
<rect x="437.1878612716763" y="529.8126607528793" width="1" height="5.387339247120622" fill="#3fb950" opacity="0.45"/>
<rect x="438.8063583815029" y="530.0244901090359" width="1" height="5.175509890964008" fill="#3fb950" opacity="0.45"/>
<rect x="440.4248554913295" y="528.5080739456511" width="1" height="6.691926054348869" fill="#f85149" opacity="0.45"/>
<rect x="442.0433526011561" y="521.7733105533533" width="1" height="13.426689446646606" fill="#f85149" opacity="0.45"/>
<rect x="443.66184971098266" y="518.9711342514353" width="1" height="16.228865748564658" fill="#3fb950" opacity="0.45"/>
<rect x="445.28034682080926" y="521.9002012336916" width="1" height="13.2997987663083" fill="#3fb950" opacity="0.45"/>
<rect x="446.89884393063585" y="523.6706867577844" width="1" height="11.529313242215494" fill="#3fb950" opacity="0.45"/>
<rect x="448.51734104046244" y="516.6351979997519" width="1" height="18.56480200024805" fill="#3fb950" opacity="0.45"/>
<rect x="450.13583815028903" y="523.0062600195297" width="1" height="12.19373998047024" fill="#f85149" opacity="0.45"/>
<rect x="451.75433526011557" y="528.1912632448499" width="1" height="7.008736755150039" fill="#f85149" opacity="0.45"/>
<rect x="453.3728323699422" y="527.9405965511753" width="1" height="7.259403448824628" fill="#3fb950" opacity="0.45"/>
<rect x="454.9913294797688" y="516.9642647018736" width="1" height="18.235735298126315" fill="#3fb950" opacity="0.45"/>
<rect x="456.60982658959534" y="526.8993377723192" width="1" height="8.300662227680732" fill="#f85149" opacity="0.45"/>
<rect x="458.22832369942194" y="528.5180686133946" width="1" height="6.681931386605356" fill="#3fb950" opacity="0.45"/>
<rect x="459.8468208092486" y="524.6584841975471" width="1" height="10.541515802452864" fill="#3fb950" opacity="0.45"/>
<rect x="461.4653179190751" y="527.3008098155755" width="1" height="7.899190184424469" fill="#f85149" opacity="0.45"/>
<rect x="463.0838150289017" y="526.2495670356436" width="1" height="8.95043296435631" fill="#3fb950" opacity="0.45"/>
<rect x="464.70231213872836" y="525.8744736618961" width="1" height="9.325526338103828" fill="#f85149" opacity="0.45"/>
<rect x="466.3208092485549" y="519.6505796579748" width="1" height="15.549420342025087" fill="#f85149" opacity="0.45"/>
<rect x="467.9393063583815" y="526.4880523946723" width="1" height="8.711947605327623" fill="#3fb950" opacity="0.45"/>
<rect x="469.5578034682081" y="524.039625464202" width="1" height="11.160374535797928" fill="#3fb950" opacity="0.45"/>
<rect x="471.1763005780347" y="522.830708000615" width="1" height="12.369291999384927" fill="#3fb950" opacity="0.45"/>
<rect x="472.79479768786126" y="525.4683936181434" width="1" height="9.731606381856523" fill="#3fb950" opacity="0.45"/>
<rect x="474.41329479768785" y="527.6864631904607" width="1" height="7.513536809539232" fill="#3fb950" opacity="0.45"/>
<rect x="476.03179190751445" y="528.9095993222463" width="1" height="6.29040067775361" fill="#f85149" opacity="0.45"/>
<rect x="477.65028901734104" y="529.4235833776252" width="1" height="5.776416622374768" fill="#3fb950" opacity="0.45"/>
<rect x="479.26878612716763" y="527.8487138746088" width="1" height="7.351286125391084" fill="#3fb950" opacity="0.45"/>
<rect x="480.8872832369942" y="526.6767990816753" width="1" height="8.52320091832462" fill="#f85149" opacity="0.45"/>
<rect x="482.5057803468208" y="529.4535140475166" width="1" height="5.74648595248334" fill="#f85149" opacity="0.45"/>
<rect x="484.1242774566474" y="531.0479568859752" width="1" height="4.152043114024764" fill="#f85149" opacity="0.45"/>
<rect x="485.742774566474" y="531.0703675550565" width="1" height="4.129632444943468" fill="#f85149" opacity="0.45"/>
<rect x="487.3612716763006" y="531.0962022245067" width="1" height="4.103797775493263" fill="#3fb950" opacity="0.45"/>
<rect x="488.9797687861272" y="529.6701220708549" width="1" height="5.529877929145073" fill="#f85149" opacity="0.45"/>
<rect x="490.5982658959538" y="529.4586553814039" width="1" height="5.741344618596031" fill="#f85149" opacity="0.45"/>
<rect x="492.2167630057803" y="529.9520634345657" width="1" height="5.247936565434202" fill="#f85149" opacity="0.45"/>
<rect x="493.83526011560696" y="531.2733435769259" width="1" height="3.926656423074064" fill="#3fb950" opacity="0.45"/>
<rect x="495.45375722543355" y="532.3627730276388" width="1" height="2.8372269723611225" fill="#f85149" opacity="0.45"/>
<rect x="497.0722543352601" y="530.4157648178601" width="1" height="4.78423518213981" fill="#f85149" opacity="0.45"/>
<rect x="498.6907514450867" y="529.1482233479567" width="1" height="6.051776652043259" fill="#3fb950" opacity="0.45"/>
<rect x="500.3092485549133" y="531.9605329842998" width="1" height="3.239467015700143" fill="#f85149" opacity="0.45"/>
<rect x="501.9277456647399" y="531.7348262933145" width="1" height="3.465173706685391" fill="#3fb950" opacity="0.45"/>
<rect x="503.5462427745665" y="531.7787729647163" width="1" height="3.421227035283664" fill="#3fb950" opacity="0.45"/>
<rect x="505.16473988439304" y="529.4689807158497" width="1" height="5.731019284150193" fill="#3fb950" opacity="0.45"/>
<rect x="506.78323699421964" y="528.3608952631267" width="1" height="6.839104736873196" fill="#3fb950" opacity="0.45"/>
<rect x="508.4017341040462" y="530.0835301153971" width="1" height="5.116469884602793" fill="#3fb950" opacity="0.45"/>
<rect x="510.0202312138728" y="530.199327461207" width="1" height="5.000672538792969" fill="#f85149" opacity="0.45"/>
<rect x="511.6387283236994" y="531.8168636354869" width="1" height="3.383136364513007" fill="#3fb950" opacity="0.45"/>
<rect x="513.2572254335261" y="526.1159990212524" width="1" height="9.084000978747554" fill="#3fb950" opacity="0.45"/>
<rect x="514.8757225433526" y="530.3217701410662" width="1" height="4.878229858933764" fill="#f85149" opacity="0.45"/>
<rect x="516.4942196531792" y="530.1319354539459" width="1" height="5.0680645460540745" fill="#3fb950" opacity="0.45"/>
<rect x="518.1127167630058" y="530.4355088199875" width="1" height="4.764491180012442" fill="#f85149" opacity="0.45"/>
<rect x="519.7312138728323" y="530.057983445978" width="1" height="5.142016554021893" fill="#3fb950" opacity="0.45"/>
<rect x="521.349710982659" y="527.8271885389563" width="1" height="7.372811461043625" fill="#3fb950" opacity="0.45"/>
<rect x="522.9682080924856" y="529.7599460805329" width="1" height="5.440053919467005" fill="#f85149" opacity="0.45"/>
<rect x="524.5867052023123" y="529.9662394360931" width="1" height="5.233760563906799" fill="#3fb950" opacity="0.45"/>
<rect x="526.2052023121387" y="527.8214072050001" width="1" height="7.378592794999804" fill="#3fb950" opacity="0.45"/>
<rect x="527.8236994219653" y="523.1844467053949" width="1" height="12.01555329460507" fill="#3fb950" opacity="0.45"/>
<rect x="529.442196531792" y="524.6834975335755" width="1" height="10.516502466424413" fill="#f85149" opacity="0.45"/>
<rect x="531.0606936416185" y="526.7854817600519" width="1" height="8.414518239948052" fill="#3fb950" opacity="0.45"/>
<rect x="532.679190751445" y="511.4264614385413" width="1" height="23.773538561458622" fill="#3fb950" opacity="0.45"/>
<rect x="534.2976878612717" y="520.569449090311" width="1" height="14.630550909688964" fill="#f85149" opacity="0.45"/>
<rect x="535.9161849710982" y="512.5506962263377" width="1" height="22.649303773662268" fill="#3fb950" opacity="0.45"/>
<rect x="537.5346820809248" y="524.7834655443464" width="1" height="10.416534455653505" fill="#3fb950" opacity="0.45"/>
<rect x="539.1531791907514" y="521.8015238897265" width="1" height="13.398476110273464" fill="#f85149" opacity="0.45"/>
<rect x="540.7716763005781" y="526.3477857128927" width="1" height="8.852214287107245" fill="#3fb950" opacity="0.45"/>
<rect x="542.3901734104047" y="525.1699829193248" width="1" height="10.03001708067518" fill="#f85149" opacity="0.45"/>
<rect x="544.0086705202312" y="518.2111341695498" width="1" height="16.988865830450095" fill="#3fb950" opacity="0.45"/>
<rect x="545.6271676300578" y="527.0663244569777" width="1" height="8.133675543022264" fill="#f85149" opacity="0.45"/>
<rect x="547.2456647398844" y="526.2145803652073" width="1" height="8.985419634792606" fill="#3fb950" opacity="0.45"/>
<rect x="548.864161849711" y="527.9324045502927" width="1" height="7.267595449707187" fill="#3fb950" opacity="0.45"/>
<rect x="550.4826589595375" y="526.2710177046214" width="1" height="8.928982295378546" fill="#f85149" opacity="0.45"/>
<rect x="552.1011560693642" y="526.2231030327922" width="1" height="8.976896967207722" fill="#3fb950" opacity="0.45"/>
<rect x="553.7196531791908" y="527.9004898801875" width="1" height="7.299510119812453" fill="#3fb950" opacity="0.45"/>
<rect x="555.3381502890174" y="530.1182714524737" width="1" height="5.081728547526268" fill="#3fb950" opacity="0.45"/>
<rect x="556.9566473988439" y="528.3690232640025" width="1" height="6.83097673599741" fill="#3fb950" opacity="0.45"/>
<rect x="558.5751445086705" y="516.1565312815118" width="1" height="19.043468718488157" fill="#3fb950" opacity="0.45"/>
<rect x="560.1936416184972" y="523.583668081742" width="1" height="11.61633191825797" fill="#f85149" opacity="0.45"/>
<rect x="561.8121387283237" y="523.5195934081717" width="1" height="11.680406591828273" fill="#3fb950" opacity="0.45"/>
<rect x="563.4306358381502" y="469.93432896800846" width="1" height="65.26567103199147" fill="#3fb950" opacity="0.45"/>
<rect x="565.0491329479769" y="476.47226033909874" width="1" height="58.72773966090119" fill="#3fb950" opacity="0.45"/>
<rect x="566.6676300578034" y="500.0469188791293" width="1" height="35.15308112087064" fill="#3fb950" opacity="0.45"/>
<rect x="568.28612716763" y="504.6102687041367" width="1" height="30.58973129586326" fill="#3fb950" opacity="0.45"/>
<rect x="569.9046242774566" y="514.5770111113278" width="1" height="20.622988888672126" fill="#f85149" opacity="0.45"/>
<rect x="571.5231213872833" y="519.1185262673159" width="1" height="16.081473732684003" fill="#f85149" opacity="0.45"/>
<rect x="573.1416184971099" y="518.1556674969069" width="1" height="17.044332503093074" fill="#3fb950" opacity="0.45"/>
<rect x="574.7601156069364" y="524.1476041425028" width="1" height="11.052395857497118" fill="#f85149" opacity="0.45"/>
<rect x="576.378612716763" y="524.3455881638343" width="1" height="10.854411836165582" fill="#f85149" opacity="0.45"/>
<rect x="577.9971098265896" y="492.73121675757216" width="1" height="42.468783242427776" fill="#3fb950" opacity="0.45"/>
<rect x="579.6156069364162" y="502.3404764595799" width="1" height="32.859523540420014" fill="#3fb950" opacity="0.45"/>
<rect x="581.2341040462427" y="511.86984281964635" width="1" height="23.33015718035358" fill="#3fb950" opacity="0.45"/>
<rect x="582.8526011560693" y="511.6555281298885" width="1" height="23.54447187011141" fill="#3fb950" opacity="0.45"/>
<rect x="584.471098265896" y="521.0067291374253" width="1" height="14.19327086257465" fill="#f85149" opacity="0.45"/>
<rect x="586.0895953757226" y="514.1595283996799" width="1" height="21.040471600320075" fill="#f85149" opacity="0.45"/>
<rect x="587.7080924855491" y="516.8820140263449" width="1" height="18.317985973655027" fill="#3fb950" opacity="0.45"/>
<rect x="589.3265895953757" y="515.0822911657688" width="1" height="20.117708834231166" fill="#3fb950" opacity="0.45"/>
<rect x="590.9450867052024" y="511.3142374264498" width="1" height="23.885762573550153" fill="#3fb950" opacity="0.45"/>
<rect x="592.5635838150289" y="510.75685069972803" width="1" height="24.443149300271898" fill="#3fb950" opacity="0.45"/>
<rect x="594.1820809248555" y="517.2210327295388" width="1" height="17.978967270461112" fill="#f85149" opacity="0.45"/>
<rect x="595.8005780346821" y="515.4032405336825" width="1" height="19.79675946631744" fill="#3fb950" opacity="0.45"/>
<rect x="597.4190751445086" y="516.0714326056763" width="1" height="19.12856739432368" fill="#f85149" opacity="0.45"/>
<rect x="599.0375722543353" y="523.0620893588783" width="1" height="12.137910641121607" fill="#f85149" opacity="0.45"/>
<rect x="600.6560693641618" y="510.62610935230805" width="1" height="24.573890647691883" fill="#f85149" opacity="0.45"/>
<rect x="602.2745664739884" y="510.6407013538803" width="1" height="24.559298646119657" fill="#3fb950" opacity="0.45"/>
<rect x="603.8930635838151" y="517.4873260915638" width="1" height="17.71267390843616" fill="#f85149" opacity="0.45"/>
<rect x="605.5115606936416" y="515.8683819171321" width="1" height="19.331618082867863" fill="#f85149" opacity="0.45"/>
<rect x="607.1300578034682" y="509.53676523493766" width="1" height="25.66323476506227" fill="#3fb950" opacity="0.45"/>
<rect x="608.7485549132948" y="511.2917520906938" width="1" height="23.908247909306112" fill="#f85149" opacity="0.45"/>
<rect x="610.3670520231213" y="509.5115812322242" width="1" height="25.688418767775715" fill="#f85149" opacity="0.45"/>
<rect x="611.985549132948" y="505.06978875364723" width="1" height="30.1302112463527" fill="#3fb950" opacity="0.45"/>
<rect x="613.6040462427745" y="519.2335236130396" width="1" height="15.96647638696038" fill="#f85149" opacity="0.45"/>
<rect x="615.2225433526012" y="520.0302383655476" width="1" height="15.169761634452357" fill="#f85149" opacity="0.45"/>
<rect x="616.8410404624278" y="517.4320194189381" width="1" height="17.767980581061806" fill="#f85149" opacity="0.45"/>
<rect x="618.4595375722542" y="480.01748738774273" width="1" height="55.1825126122572" fill="#3fb950" opacity="0.45"/>
<rect x="620.0780346820809" y="436.2" width="1" height="98.99999999999994" fill="#3fb950" opacity="0.45"/>
<rect x="621.6965317919075" y="461.549794731291" width="1" height="73.65020526870893" fill="#3fb950" opacity="0.45"/>
<rect x="623.3150289017341" y="487.7932535588691" width="1" height="47.40674644113085" fill="#f85149" opacity="0.45"/>
<rect x="624.9335260115607" y="498.631825393328" width="1" height="36.56817460667196" fill="#3fb950" opacity="0.45"/>
<rect x="626.5520231213873" y="473.19557731938875" width="1" height="62.004422680611185" fill="#3fb950" opacity="0.45"/>
<rect x="628.1705202312138" y="493.4030034966199" width="1" height="41.79699650338006" fill="#3fb950" opacity="0.45"/>
<rect x="629.7890173410404" y="490.50434718430677" width="1" height="44.695652815693165" fill="#3fb950" opacity="0.45"/>
<rect x="631.407514450867" y="492.739280758441" width="1" height="42.460719241558934" fill="#3fb950" opacity="0.45"/>
<rect x="633.0260115606936" y="503.3411272340608" width="1" height="31.85887276593911" fill="#f85149" opacity="0.45"/>
<rect x="634.6445086705203" y="507.3625463340117" width="1" height="27.83745366598822" fill="#f85149" opacity="0.45"/>
<rect x="636.2630057803468" y="465.4878538222603" width="1" height="69.71214617773961" fill="#3fb950" opacity="0.45"/>
<rect x="637.8815028901734" y="491.9484860065709" width="1" height="43.25151399342906" fill="#f85149" opacity="0.45"/>
<rect x="639.5" y="500.0374788781122" width="1" height="35.16252112188772" fill="#f85149" opacity="0.45"/>
<rect x="641.1184971098265" y="497.06447589112196" width="1" height="38.13552410887797" fill="#f85149" opacity="0.45"/>
<rect x="642.7369942196532" y="505.1776714319376" width="1" height="30.022328568062335" fill="#f85149" opacity="0.45"/>
<rect x="644.3554913294798" y="505.4079327900803" width="1" height="29.79206720991965" fill="#3fb950" opacity="0.45"/>
<rect x="645.9739884393064" y="497.0838145598723" width="1" height="38.11618544012765" fill="#f85149" opacity="0.45"/>
<rect x="647.592485549133" y="515.9260352566772" width="1" height="19.273964743322722" fill="#3fb950" opacity="0.45"/>
<rect x="649.2109826589596" y="522.8729906718373" width="1" height="12.327009328162603" fill="#f85149" opacity="0.45"/>
<rect x="650.8294797687861" y="512.7165202442042" width="1" height="22.48347975579577" fill="#f85149" opacity="0.45"/>
<rect x="652.4479768786127" y="519.2906756191974" width="1" height="15.909324380802559" fill="#f85149" opacity="0.45"/>
<rect x="654.0664739884393" y="517.8541314644182" width="1" height="17.345868535581758" fill="#3fb950" opacity="0.45"/>
<rect x="655.6849710982659" y="524.777054876989" width="1" height="10.42294512301089" fill="#f85149" opacity="0.45"/>
<rect x="657.3034682080926" y="523.3062067185139" width="1" height="11.893793281486069" fill="#3fb950" opacity="0.45"/>
<rect x="658.921965317919" y="513.1886482950732" width="1" height="22.01135170492671" fill="#3fb950" opacity="0.45"/>
<rect x="660.5404624277456" y="516.7468246784457" width="1" height="18.453175321554227" fill="#3fb950" opacity="0.45"/>
<rect x="662.1589595375723" y="504.74091405154627" width="1" height="30.459085948453662" fill="#3fb950" opacity="0.45"/>
<rect x="663.7774566473988" y="508.0162957377827" width="1" height="27.183704262217248" fill="#3fb950" opacity="0.45"/>
<rect x="665.3959537572255" y="514.9046058132908" width="1" height="20.29539418670913" fill="#f85149" opacity="0.45"/>
<rect x="667.014450867052" y="523.0103026866319" width="1" height="12.189697313368015" fill="#f85149" opacity="0.45"/>
<rect x="668.6329479768785" y="522.3746652848124" width="1" height="12.825334715187523" fill="#3fb950" opacity="0.45"/>
<rect x="670.2514450867052" y="527.8479352078583" width="1" height="7.3520647921416185" fill="#f85149" opacity="0.45"/>
<rect x="671.8699421965317" y="526.7094924185311" width="1" height="8.490507581468819" fill="#3fb950" opacity="0.45"/>
<rect x="673.4884393063584" y="521.4029211801127" width="1" height="13.797078819887247" fill="#3fb950" opacity="0.45"/>
<rect x="675.106936416185" y="526.1614176928126" width="1" height="9.038582307187312" fill="#f85149" opacity="0.45"/>
<rect x="676.7254335260116" y="526.8243404309053" width="1" height="8.375659569094637" fill="#f85149" opacity="0.45"/>
<rect x="678.3439306358382" y="517.4782060905811" width="1" height="17.721793909418807" fill="#f85149" opacity="0.45"/>
<rect x="679.9624277456647" y="524.7792948772304" width="1" height="10.420705122769505" fill="#3fb950" opacity="0.45"/>
<rect x="681.5809248554913" y="524.9986975675364" width="1" height="10.201302432463535" fill="#f85149" opacity="0.45"/>
<rect x="683.1994219653179" y="522.7189746552431" width="1" height="12.481025344756858" fill="#3fb950" opacity="0.45"/>
<rect x="684.8179190751446" y="515.9930432638969" width="1" height="19.206956736103052" fill="#f85149" opacity="0.45"/>
<rect x="686.4364161849711" y="509.9913999505885" width="1" height="25.208600049411416" fill="#3fb950" opacity="0.45"/>
<rect x="688.0549132947978" y="521.1596144872311" width="1" height="14.040385512768808" fill="#f85149" opacity="0.45"/>
<rect x="689.6734104046243" y="528.4115192685812" width="1" height="6.788480731418758" fill="#f85149" opacity="0.45"/>
<rect x="691.2919075144508" y="523.9268467853841" width="1" height="11.273153214615832" fill="#f85149" opacity="0.45"/>
<rect x="692.9104046242775" y="526.2585483699446" width="1" height="8.941451630055326" fill="#3fb950" opacity="0.45"/>
<rect x="694.528901734104" y="524.5423241850315" width="1" height="10.657675814968457" fill="#3fb950" opacity="0.45"/>
<rect x="696.1473988439307" y="518.5115822019213" width="1" height="16.688417798078603" fill="#3fb950" opacity="0.45"/>
<rect x="697.7658959537573" y="524.4888735126059" width="1" height="10.71112648739404" fill="#f85149" opacity="0.45"/>
<rect x="699.3843930635837" y="527.5426871749696" width="1" height="7.657312825030317" fill="#3fb950" opacity="0.45"/>
<rect x="701.0028901734104" y="524.6466015296002" width="1" height="10.55339847039977" fill="#3fb950" opacity="0.45"/>
<rect x="702.621387283237" y="526.429599055041" width="1" height="8.770400944958965" fill="#f85149" opacity="0.45"/>
<rect x="704.2398843930636" y="528.9083726554476" width="1" height="6.291627344552353" fill="#f85149" opacity="0.45"/>
<rect x="705.8583815028902" y="530.9200955388654" width="1" height="4.2799044611344925" fill="#f85149" opacity="0.45"/>
<rect x="707.4768786127167" y="529.2112206880777" width="1" height="5.988779311922258" fill="#f85149" opacity="0.45"/>
<rect x="709.0953757225434" y="484.5038452044547" width="1" height="50.696154795545226" fill="#3fb950" opacity="0.45"/>
<rect x="710.7138728323699" y="506.7479969344643" width="1" height="28.45200306553562" fill="#f85149" opacity="0.45"/>
<rect x="712.3323699421965" y="514.2661204111645" width="1" height="20.933879588835453" fill="#f85149" opacity="0.45"/>
<rect x="713.9508670520231" y="515.0348884939947" width="1" height="20.165111506005246" fill="#3fb950" opacity="0.45"/>
<rect x="715.5693641618498" y="516.1372566127684" width="1" height="19.062743387231535" fill="#f85149" opacity="0.45"/>
<rect x="717.1878612716763" y="522.2988572766445" width="1" height="12.901142723355406" fill="#3fb950" opacity="0.45"/>
<rect x="718.806358381503" y="523.4776840703229" width="1" height="11.722315929677052" fill="#f85149" opacity="0.45"/>
<rect x="720.4248554913295" y="517.1669420570443" width="1" height="18.03305794295568" fill="#f85149" opacity="0.45"/>
<rect x="722.043352601156" y="525.2527455949086" width="1" height="9.947254405091371" fill="#3fb950" opacity="0.45"/>
<rect x="723.6618497109827" y="527.6272631840822" width="1" height="7.572736815917779" fill="#f85149" opacity="0.45"/>
<rect x="725.2803468208092" y="527.4010978263809" width="1" height="7.7989021736190125" fill="#3fb950" opacity="0.45"/>
<rect x="726.8988439306358" y="526.4254070545893" width="1" height="8.774592945410632" fill="#f85149" opacity="0.45"/>
<rect x="728.5173410404625" y="528.4226766031167" width="1" height="6.777323396883276" fill="#3fb950" opacity="0.45"/>
<rect x="730.1358381502889" y="528.0391778951303" width="1" height="7.1608221048696805" fill="#3fb950" opacity="0.45"/>
<rect x="731.7543352601156" y="524.2448414863129" width="1" height="10.955158513687024" fill="#f85149" opacity="0.45"/>
<rect x="733.3728323699422" y="525.8557216598757" width="1" height="9.34427834012422" fill="#f85149" opacity="0.45"/>
<rect x="734.9913294797688" y="527.7894178682201" width="1" height="7.410582131779847" fill="#f85149" opacity="0.45"/>
<rect x="736.6098265895954" y="528.792095309586" width="1" height="6.407904690413943" fill="#f85149" opacity="0.45"/>
<rect x="738.228323699422" y="527.1740044685796" width="1" height="8.025995531420335" fill="#3fb950" opacity="0.45"/>
<rect x="739.8468208092486" y="526.4611937251118" width="1" height="8.738806274888134" fill="#3fb950" opacity="0.45"/>
<rect x="741.4653179190751" y="525.4906336205396" width="1" height="9.709366379460334" fill="#3fb950" opacity="0.45"/>
<rect x="743.0838150289018" y="528.477535275694" width="1" height="6.722464724305951" fill="#f85149" opacity="0.45"/>
<rect x="744.7023121387283" y="526.5831457382513" width="1" height="8.616854261748585" fill="#f85149" opacity="0.45"/>
<rect x="746.320809248555" y="491.28677926860917" width="1" height="43.913220731390766" fill="#3fb950" opacity="0.45"/>
<rect x="747.9393063583815" y="495.3813077097705" width="1" height="39.81869229022942" fill="#f85149" opacity="0.45"/>
<rect x="749.5578034682081" y="511.3878587677154" width="1" height="23.812141232284546" fill="#3fb950" opacity="0.45"/>
<rect x="751.1763005780347" y="519.6666969930448" width="1" height="15.53330300695518" fill="#f85149" opacity="0.45"/>
<rect x="752.7947976878612" y="516.1644139490277" width="1" height="19.035586050972256" fill="#3fb950" opacity="0.45"/>
<rect x="754.4132947976879" y="515.8629312498781" width="1" height="19.33706875012183" fill="#3fb950" opacity="0.45"/>
<rect x="756.0317919075145" y="520.7726704455403" width="1" height="14.427329554459675" fill="#f85149" opacity="0.45"/>
<rect x="757.650289017341" y="517.2814060693771" width="1" height="17.91859393062282" fill="#3fb950" opacity="0.45"/>
<rect x="759.2687861271677" y="524.047390798372" width="1" height="11.15260920162791" fill="#f85149" opacity="0.45"/>
<rect x="760.8872832369942" y="520.9367664632206" width="1" height="14.263233536779353" fill="#3fb950" opacity="0.45"/>
<rect x="762.5057803468208" y="515.5246485467635" width="1" height="19.67535145323643" fill="#f85149" opacity="0.45"/>
<rect x="764.1242774566474" y="518.6269102143472" width="1" height="16.57308978565277" fill="#3fb950" opacity="0.45"/>
<rect x="765.7427745664739" y="506.71034359707403" width="1" height="28.489656402925903" fill="#3fb950" opacity="0.45"/>
<rect x="767.3612716763006" y="508.759677151211" width="1" height="26.440322848788924" fill="#3fb950" opacity="0.45"/>
<rect x="768.9797687861272" y="516.0451819361812" width="1" height="19.154818063818766" fill="#3fb950" opacity="0.45"/>
<rect x="770.5982658959538" y="516.9564887010358" width="1" height="18.24351129896411" fill="#f85149" opacity="0.45"/>
<rect x="772.2167630057803" y="522.2021639328931" width="1" height="12.997836067106846" fill="#3fb950" opacity="0.45"/>
<rect x="773.835260115607" y="522.504499965468" width="1" height="12.69550003453196" fill="#f85149" opacity="0.45"/>
<rect x="775.4537572254335" y="526.3035830414635" width="1" height="8.896416958536406" fill="#f85149" opacity="0.45"/>
<rect x="777.0722543352601" y="525.6995189763791" width="1" height="9.500481023620864" fill="#f85149" opacity="0.45"/>
<rect x="778.6907514450867" y="524.8017375463152" width="1" height="10.398262453684765" fill="#3fb950" opacity="0.45"/>
<rect x="780.3092485549133" y="521.0162651384528" width="1" height="14.183734861547123" fill="#3fb950" opacity="0.45"/>
<rect x="781.9277456647399" y="528.0615352308724" width="1" height="7.138464769127495" fill="#f85149" opacity="0.45"/>
<rect x="783.5462427745664" y="529.7580687469973" width="1" height="5.441931253002622" fill="#f85149" opacity="0.45"/>
<rect x="785.164739884393" y="521.6832518769834" width="1" height="13.516748123016555" fill="#3fb950" opacity="0.45"/>
<rect x="786.7832369942197" y="521.3469638407503" width="1" height="13.853036159249655" fill="#3fb950" opacity="0.45"/>
<rect x="788.4017341040462" y="496.414203821059" width="1" height="38.78579617894093" fill="#3fb950" opacity="0.45"/>
<rect x="790.0202312138729" y="510.52156534104404" width="1" height="24.678434658955894" fill="#3fb950" opacity="0.45"/>
<rect x="791.6387283236994" y="515.5334912143828" width="1" height="19.66650878561711" fill="#3fb950" opacity="0.45"/>
<rect x="793.257225433526" y="518.6017262116338" width="1" height="16.5982737883661" fill="#f85149" opacity="0.45"/>
<rect x="794.8757225433526" y="512.8765522614467" width="1" height="22.323447738553227" fill="#f85149" opacity="0.45"/>
<rect x="796.4942196531792" y="522.4077639550452" width="1" height="12.792236044954734" fill="#f85149" opacity="0.45"/>
<rect x="798.1127167630058" y="520.3403290656247" width="1" height="14.859670934375231" fill="#3fb950" opacity="0.45"/>
<rect x="799.7312138728324" y="520.9089904602279" width="1" height="14.291009539772062" fill="#f85149" opacity="0.45"/>
<rect x="801.349710982659" y="520.0453850338462" width="1" height="15.154614966153758" fill="#3fb950" opacity="0.45"/>
<rect x="802.9682080924855" y="521.3297371722275" width="1" height="13.870262827772422" fill="#3fb950" opacity="0.45"/>
<rect x="804.5867052023121" y="523.0672306927656" width="1" height="12.132769307234298" fill="#f85149" opacity="0.45"/>
<rect x="806.2052023121387" y="518.4107821910607" width="1" height="16.78921780893927" fill="#3fb950" opacity="0.45"/>
<rect x="807.8236994219653" y="492.35500338370406" width="1" height="42.84499661629587" fill="#3fb950" opacity="0.45"/>
<rect x="809.442196531792" y="499.6546095035269" width="1" height="35.54539049647303" fill="#3fb950" opacity="0.45"/>
<rect x="811.0606936416185" y="513.5691710027389" width="1" height="21.630828997261005" fill="#f85149" opacity="0.45"/>
<rect x="812.679190751445" y="506.4667489041615" width="1" height="28.733251095838455" fill="#3fb950" opacity="0.45"/>
<rect x="814.2976878612717" y="514.4215657612461" width="1" height="20.77843423875379" fill="#f85149" opacity="0.45"/>
<rect x="815.9161849710982" y="503.76582061315236" width="1" height="31.434179386847575" fill="#3fb950" opacity="0.45"/>
<rect x="817.5346820809249" y="514.4366377628701" width="1" height="20.763362237129854" fill="#f85149" opacity="0.45"/>
<rect x="819.1531791907514" y="499.67163350536117" width="1" height="35.52836649463876" fill="#3fb950" opacity="0.45"/>
<rect x="820.7716763005781" y="504.0186099737223" width="1" height="31.181390026277654" fill="#f85149" opacity="0.45"/>
<rect x="822.3901734104046" y="514.7399977955553" width="1" height="20.460002204444663" fill="#f85149" opacity="0.45"/>
<rect x="824.0086705202311" y="519.4087236319164" width="1" height="15.791276368083572" fill="#f85149" opacity="0.45"/>
<rect x="825.6271676300578" y="524.5470708522096" width="1" height="10.65292914779036" fill="#f85149" opacity="0.45"/>
<rect x="827.2456647398844" y="509.3812665515169" width="1" height="25.818733448483044" fill="#f85149" opacity="0.45"/>
<rect x="828.864161849711" y="516.0162432663966" width="1" height="19.18375673360333" fill="#3fb950" opacity="0.45"/>
<rect x="830.4826589595376" y="520.140670377446" width="1" height="15.059329622553946" fill="#f85149" opacity="0.45"/>
<rect x="832.1011560693642" y="502.94923385850325" width="1" height="32.25076614149668" fill="#f85149" opacity="0.45"/>
<rect x="833.7196531791907" y="521.3435931737205" width="1" height="13.856406826279454" fill="#3fb950" opacity="0.45"/>
<rect x="835.3381502890173" y="516.6877953387524" width="1" height="18.51220466124755" fill="#3fb950" opacity="0.45"/>
<rect x="836.9566473988439" y="522.4453106257573" width="1" height="12.754689374242616" fill="#f85149" opacity="0.45"/>
<rect x="838.5751445086705" y="523.1132253643879" width="1" height="12.086774635612073" fill="#f85149" opacity="0.45"/>
<rect x="840.1936416184972" y="524.6338441948923" width="1" height="10.566155805107655" fill="#f85149" opacity="0.45"/>
<rect x="841.8121387283237" y="523.1097800306834" width="1" height="12.090219969316536" fill="#3fb950" opacity="0.45"/>
<rect x="843.4306358381502" y="521.5448945287428" width="1" height="13.655105471257116" fill="#f85149" opacity="0.45"/>
<rect x="845.0491329479769" y="521.8671345634623" width="1" height="13.332865436537645" fill="#f85149" opacity="0.45"/>
<rect x="846.6676300578034" y="520.2826757260796" width="1" height="14.917324273920372" fill="#3fb950" opacity="0.45"/>
<rect x="848.2861271676301" y="515.0986218341949" width="1" height="20.101378165805045" fill="#3fb950" opacity="0.45"/>
<rect x="849.9046242774567" y="523.6813747589359" width="1" height="11.518625241064" fill="#f85149" opacity="0.45"/>
<rect x="851.5231213872833" y="522.5611826382419" width="1" height="12.638817361758015" fill="#3fb950" opacity="0.45"/>
<rect x="853.1416184971098" y="517.8601154650629" width="1" height="17.339884534937028" fill="#f85149" opacity="0.45"/>
<rect x="854.7601156069364" y="525.6898763086735" width="1" height="9.510123691326385" fill="#f85149" opacity="0.45"/>
<rect x="856.378612716763" y="522.7406706575806" width="1" height="12.459329342419323" fill="#3fb950" opacity="0.45"/>
<rect x="857.9971098265896" y="520.5917317593785" width="1" height="14.608268240621442" fill="#f85149" opacity="0.45"/>
<rect x="859.6156069364162" y="519.6824303280732" width="1" height="15.517569671926708" fill="#f85149" opacity="0.45"/>
<rect x="861.2341040462428" y="513.6375336767712" width="1" height="21.562466323228705" fill="#3fb950" opacity="0.45"/>
<rect x="862.8526011560695" y="511.39777876878424" width="1" height="23.802221231215697" fill="#f85149" opacity="0.45"/>
<rect x="864.4710982658959" y="513.9729363795756" width="1" height="21.22706362042436" fill="#3fb950" opacity="0.45"/>
<rect x="866.0895953757225" y="519.3604569600492" width="1" height="15.83954303995074" fill="#f85149" opacity="0.45"/>
<rect x="867.7080924855492" y="505.3378314491939" width="1" height="29.862168550806018" fill="#3fb950" opacity="0.45"/>
<rect x="869.3265895953757" y="514.3509204203011" width="1" height="20.84907957969881" fill="#f85149" opacity="0.45"/>
<rect x="870.9450867052024" y="512.7024402426871" width="1" height="22.497559757312843" fill="#f85149" opacity="0.45"/>
<rect x="872.5635838150289" y="504.7814793892503" width="1" height="30.418520610749624" fill="#f85149" opacity="0.45"/>
<rect x="874.1820809248554" y="512.6252882343745" width="1" height="22.574711765625466" fill="#f85149" opacity="0.45"/>
<rect x="875.8005780346821" y="494.76909431047477" width="1" height="40.43090568952516" fill="#3fb950" opacity="0.45"/>
<rect x="877.4190751445086" y="505.0841354218597" width="1" height="30.115864578140247" fill="#3fb950" opacity="0.45"/>
<rect x="879.0375722543353" y="510.23521864352523" width="1" height="24.964781356474703" fill="#3fb950" opacity="0.45"/>
<rect x="880.6560693641619" y="505.14384742829327" width="1" height="30.05615257170666" fill="#f85149" opacity="0.45"/>
<rect x="882.2745664739884" y="513.575197670055" width="1" height="21.62480232994494" fill="#f85149" opacity="0.45"/>
<rect x="883.893063583815" y="518.6826328870177" width="1" height="16.517367112982242" fill="#f85149" opacity="0.45"/>
<rect x="885.5115606936416" y="512.9966162743829" width="1" height="22.203383725617073" fill="#f85149" opacity="0.45"/>
<rect x="887.1300578034682" y="515.9061952545395" width="1" height="19.29380474546042" fill="#f85149" opacity="0.45"/>
<rect x="888.7485549132948" y="521.1896198237974" width="1" height="14.010380176202489" fill="#f85149" opacity="0.45"/>
<rect x="890.3670520231213" y="514.9751871542289" width="1" height="20.224812845770998" fill="#3fb950" opacity="0.45"/>
<rect x="891.985549132948" y="518.1384194950485" width="1" height="17.061580504951394" fill="#f85149" opacity="0.45"/>
<rect x="893.6040462427746" y="510.33006665374455" width="1" height="24.86993334625538" fill="#3fb950" opacity="0.45"/>
<rect x="895.2225433526012" y="511.0006053926578" width="1" height="24.19939460734213" fill="#3fb950" opacity="0.45"/>
<rect x="896.8410404624277" y="518.7865475648805" width="1" height="16.41345243511944" fill="#3fb950" opacity="0.45"/>
<rect x="898.4595375722544" y="503.3653299033352" width="1" height="31.834670096664752" fill="#3fb950" opacity="0.45"/>
<rect x="900.0780346820809" y="469.3315022363908" width="1" height="65.86849776360913" fill="#3fb950" opacity="0.45"/>
<rect x="901.6965317919075" y="490.7046352058866" width="1" height="44.49536479411336" fill="#3fb950" opacity="0.45"/>
<rect x="903.3150289017342" y="502.33714845922134" width="1" height="32.86285154077859" fill="#f85149" opacity="0.45"/>
<rect x="904.9335260115606" y="497.97488665588" width="1" height="37.225113344119904" fill="#f85149" opacity="0.45"/>
<rect x="906.5520231213873" y="505.16664209741595" width="1" height="30.033357902583987" fill="#f85149" opacity="0.45"/>
<rect x="908.1705202312139" y="507.5182156841175" width="1" height="27.681784315882453" fill="#3fb950" opacity="0.45"/>
<rect x="909.7890173410404" y="516.7642966803282" width="1" height="18.43570331967169" fill="#3fb950" opacity="0.45"/>
<rect x="911.4075144508671" y="517.2640727341761" width="1" height="17.935927265823807" fill="#3fb950" opacity="0.45"/>
<rect x="913.0260115606936" y="516.1548566146646" width="1" height="19.045143385335336" fill="#3fb950" opacity="0.45"/>
<rect x="914.6445086705202" y="511.4425147736043" width="1" height="23.75748522639566" fill="#f85149" opacity="0.45"/>
<rect x="916.2630057803468" y="515.1527871733642" width="1" height="20.0472128266357" fill="#f85149" opacity="0.45"/>
<rect x="917.8815028901734" y="517.5493634315812" width="1" height="17.65063656841869" fill="#f85149" opacity="0.45"/>
<rect x="919.5" y="515.5076352115971" width="1" height="19.69236478840287" fill="#f85149" opacity="0.45"/>
<polyline points="80.0,369.9078557318135 81.61849710982659,369.62498938457526 83.23699421965318,372.2479318771484 84.85549132947978,371.2964723455287 86.47398843930635,374.6394382674357 88.09248554913295,378.0081193118189 89.71098265895954,376.74807831048474 91.32947976878613,377.69953784210435 92.94797687861272,377.26238076000885 94.5664739884393,375.8994792687699 96.18497109826589,375.9766246361985 97.80346820809248,376.0537700036271 99.42196531791907,374.8194441247692 101.04046242774567,376.95379929029434 102.65895953757226,378.98529396591476 104.27745664739885,377.69953784210435 105.89595375722544,377.1080900251516 107.51445086705202,377.2109505150565 109.13294797687861,375.7194734114364 110.7514450867052,374.51086265505467 112.36994219653178,375.53946755410294 113.98843930635837,378.18812516915233 115.60693641618496,378.98529396591476 117.22543352601156,381.7882423158214 118.84393063583815,380.73392229429686 120.46242774566474,377.90525882191406 122.08092485549133,377.1080900251516 123.69942196531792,371.6564840601956 125.31791907514452,372.8393796941012 126.93641618497111,372.196501632196 128.5549132947977,370.65359428362353 130.1734104046243,371.1164664881953 131.79190751445088,364.68768586914337 133.41040462427745,367.02776201447824 135.02890173410404,371.9136352849577 136.64739884393063,374.12513581791154 138.26589595375722,372.2479318771484 139.88439306358381,375.2823163293409 141.5028901734104,374.84515924724536 143.121387283237,377.030944657723 144.73988439306356,377.57096222972336 146.35838150289015,377.18523539258024 147.97687861271675,380.37391057963 149.59537572254334,380.4253408245824 151.21387283236993,380.4253408245824 152.83236994219652,377.3652412499137 154.4508670520231,377.57096222972336 156.0693641618497,375.9766246361985 157.6878612716763,376.82522367791336 159.3063583815029,377.4166714948661 160.92485549132948,375.92519439124607 162.54335260115607,377.3138110049613 164.16184971098266,378.2909856590572 165.78034682080926,374.4080021651498 167.39884393063585,373.53368800095876 169.01734104046244,376.9795144127706 170.63583815028903,369.11068693505104 172.25433526011562,372.22221675467216 173.87283236994222,369.1621171800035 175.49132947976878,371.70791430514805 177.10982658959537,365.30484880857233 178.72832369942196,365.1248429512389 180.34682080924856,360.9589931100933 181.96531791907515,364.71340099161955 183.58381502890174,369.8821406093373 185.20231213872833,369.2135474249559 186.8208092485549,370.1907220790518 188.43930635838151,369.1621171800035 190.05780346820808,368.08208203600276 191.67630057803467,364.4819648893337 193.29479768786126,364.3276741544765 194.91329479768785,365.7934361356203 196.53179190751445,367.36205860666894 198.15028901734104,369.72784987448006 199.76878612716763,368.90496595524144 201.38728323699422,370.5507337937187 203.0057803468208,370.75645477352833 204.6242774566474,371.4250479579097 206.242774566474,371.73362942762424 207.8612716763006,369.98500109924214 209.47976878612715,371.2707572230525 211.09826589595377,369.5221288946704 212.71676300578034,367.2077678718117 214.33526011560696,366.0763024828586 215.95375722543352,369.75356499695624 217.5722543352601,369.5735591396228 219.1907514450867,370.42215818133764 220.8092485549133,370.57644891619486 222.4277456647399,374.12513581791154 224.04624277456648,374.3308567977212 225.66473988439307,372.9165250615298 227.28323699421964,372.8393796941012 228.90173410404626,376.25949098343676 230.52023121387282,377.3909563723899 232.13872832369944,377.90525882191406 233.757225433526,377.030944657723 235.3757225433526,377.90525882191406 236.9942196531792,378.8824334760099 238.61271676300578,375.82233390134127 240.23121387283237,375.10231047200745 241.84971098265896,373.3279670211491 243.46820809248555,367.9277913011455 245.08670520231215,353.1673109998024 246.70520231213874,332.6980735087412 248.3236994219653,336.8124931049344 249.94219653179192,344.93847180741597 251.56069364161849,347.8699957697036 253.17919075144508,336.3239057778864 254.79768786127167,341.72408149789 256.41618497109823,342.1869537024617 258.0346820809249,341.3383546607469 259.6531791907514,329.0722412395959 261.27167630057806,329.0465261171197 262.8901734104046,331.0008754253115 264.50867052023125,333.36666669312257 266.1271676300578,334.5238472045519 267.74566473988443,335.34673112379056 269.36416184971097,335.03814965407605 270.98265895953756,336.94106871731543 272.60115606936415,334.6524228169329 274.21965317919074,331.5151778748356 275.83815028901734,341.2354941708421 277.4566473988439,338.66398192322134 279.0751445086705,332.0809105693122 280.6936416184971,333.72667840778945 282.3121387283237,331.6180383647404 283.9306358381503,326.21786264473684 285.5491329479769,300.34844943367204 287.1676300578035,312.5117023649182 288.78612716763007,309.52874815767814 290.40462427745666,314.54319704053864 292.02312138728325,322.0005825586388 293.6416184971098,326.60358948187996 295.26011560693644,321.82057670130536 296.87861271676303,319.68622153578013 298.4971098265896,322.8748967228299 300.11560693641616,330.56371834321595 301.7341040462428,330.38371248588254 303.35260115606934,332.90379448855083 304.971098265896,330.33228224093006 306.5895953757225,330.0237007712156 308.2080924855491,327.96649097311894 309.8265895953757,326.26929288968927 311.44508670520236,328.8665202597862 313.0635838150289,331.30945689502596 314.6820809248555,330.38371248588254 316.3005780346821,328.8665202597862 317.9190751445087,330.2808519959776 319.53757225433526,328.89223538226247 321.15606936416185,320.92054741463807 322.77456647398844,322.3605942733057 324.393063583815,319.01762835139874 326.0115606936416,321.79486157882917 327.6300578034682,330.25513687350144 329.2485549132948,326.4235836245465 330.86705202312135,322.79775135540126 332.485549132948,317.3975756353977 334.10404624277453,322.026297681115 335.7225433526012,318.76047712663666 337.34104046242777,319.789082025685 338.9595375722543,315.62323218453935 340.5780346820809,318.1947444321601 342.19653179190755,321.2034137618764 343.8150289017341,327.96649097311894 345.4335260115607,335.6553125935051 347.05202312138726,342.13552345750935 348.6705202312139,339.3840053525551 350.28901734104045,333.54667255045604 351.90751445086704,333.3409515706463 353.52601156069363,335.34673112379056 355.1445086705202,339.25542974017407 356.7630057803468,339.66687169979343 358.3815028901734,333.64953304036084 360.0,334.8838589192188 361.6184971098266,336.1953301655054 363.2369942196532,328.7893748923576 364.8554913294798,328.48079342264316 366.47398843930637,324.10922260168786 368.09248554913296,324.13493772416405 369.7109826589595,327.09217680892795 371.32947976878614,324.4178040714023 372.94797687861274,328.2750724428335 374.56647398843927,327.2464675437852 376.18497109826586,322.026297681115 377.8034682080925,323.44062941730647 379.4219653179191,321.15198351692396 381.04046242774564,321.8720069462578 382.6589595375723,319.8919425155898 384.2774566473989,325.6778450727365 385.8959537572254,325.70356019521273 387.514450867052,326.08928703235586 389.13294797687865,329.2779622194056 390.7514450867052,325.240687990641 392.3699421965318,325.29211823559336 393.9884393063584,321.1262683944478 395.60693641618496,320.0976634953995 397.22543352601156,321.5119952315909 398.84393063583815,321.07483814949535 400.46242774566474,314.08032483596685 402.08092485549133,327.73505487083315 403.6994219653179,330.7180090780732 405.31791907514446,326.83502558416586 406.9364161849711,329.457968076739 408.5549132947977,327.58076413597587 410.1734104046243,325.70356019521273 411.7919075144509,325.4206938479744 413.4104046242775,328.09506658550004 415.02890173410407,329.3808227093104 416.6473988439306,332.929509611027 418.26589595375725,331.1808812826449 419.88439306358384,330.0494158936918 421.5028901734104,328.8665202597862 423.12138728323697,330.20370662854907 424.7398843930636,331.48946275235943 426.35838150289015,335.1410101439809 427.97687861271675,333.80382377521806 429.59537572254334,335.68102771598126 431.21387283236993,333.88096914264673 432.8323699421965,333.98382963255153 434.4508670520231,335.70674283845744 436.0693641618497,336.42676626779127 437.6878612716763,336.2210452879816 439.3063583815029,335.2181555114095 440.9248554913295,337.68680726912544 442.5433526011561,357.461736453329 444.16184971098266,350.72437436456266 445.78034682080926,349.5414787306571 447.39884393063585,346.9956816055126 449.01734104046244,338.74112729064996 450.63583815028903,338.8954180255072 452.25433526011557,341.31263953827073 453.8728323699422,341.05548831350865 455.4913294797688,338.0468189837923 457.10982658959534,340.05259853693656 458.72832369942194,338.7925575356023 460.3468208092486,336.52962675769606 461.9653179190751,336.8382082274106 463.5838150289017,336.3496209003626 465.20231213872836,336.70963261502953 466.8208092485549,342.49553517217623 468.4393063583815,341.41550002817553 470.0578034682081,339.92402292455546 471.6763005780347,336.70963261502953 473.29479768786126,336.5039116352199 474.91329479768785,336.5039116352199 476.53179190751445,338.76684241312614 478.15028901734104,337.45537116683954 479.76878612716763,337.1982199420775 481.3872832369942,337.76395263655405 483.0057803468208,340.5411858639845 484.6242774566474,340.849767333699 486.242774566474,341.15834880341345 487.8612716763006,341.0040580685562 489.4797687861272,342.44410492722386 491.0982658959538,343.3184190914149 492.7167630057803,345.0156171748446 494.33526011560696,344.4755996028442 495.95375722543355,344.93847180741597 497.5722543352601,346.0699371963691 499.1907514450867,343.78129129598665 500.8092485549133,345.6584952367498 502.4277456647399,344.9127566849398 504.0462427745665,344.1155878881773 505.66473988439304,342.70125615198594 507.28323699421964,342.13552345750935 508.9017341040462,341.92980247769964 510.5202312138728,343.70414592855803 512.1387283236994,342.77840151941456 513.7572254335261,340.48975561903205 515.3757225433526,341.7497966203662 516.9942196531792,340.79833708874656 518.6127167630058,340.82405221122275 520.2312138728323,340.0011682919841 521.849710982659,339.6411565773172 523.4682080924856,341.4669302731279 525.0867052023123,340.82405221122275 526.7052023121387,339.15256925026927 528.3236994219653,337.84109800398267 529.942196531792,339.48686584245996 531.5606936416185,338.0468189837923 533.179190751445,332.0809105693122 534.7976878612717,333.1095154683605 536.4161849710982,332.0809105693122 538.0346820809248,331.8494744670263 539.6531791907514,332.33806179407424 541.2716763005781,331.97805007940735 542.8901734104047,334.3438413472185 544.5086705202312,332.8523642435984 546.1271676300578,334.1124052449326 547.7456647398844,333.98382963255153 549.364161849711,333.9066842651229 550.9826589595375,334.8838589192188 552.6011560693642,334.1895506123612 554.2196531791908,333.5723876729322 555.8381502890174,333.2638062032177 557.4566473988439,333.2638062032177 559.0751445086705,330.0494158936918 560.6936416184972,330.89801493540665 562.3121387283237,330.075131016168 563.9306358381502,314.74891802034824 565.5491329479769,311.123085751203 567.1676300578034,308.9630154632016 568.78612716763,306.62293931786667 570.4046242774566,310.2744867094882 572.0231213872833,311.8431091805368 573.6416184971099,306.9572359100574 575.2601156069364,308.9373003407254 576.878612716763,310.4287774443454 578.4971098265896,300.73417627081517 580.1156069364162,300.2455889437672 581.7341040462427,296.0797391026216 583.3526011560693,296.0797391026216 584.971098265896,296.95405326681265 586.5895953757226,298.9598328199569 588.2080924855491,296.59404155214577 589.8265895953757,295.05113420357327 591.4450867052024,293.99681418204875 593.0635838150289,291.4510170569042 594.6820809248555,298.0855186557658 596.3005780346821,295.8225878778595 597.9190751445086,297.7255069410989 599.5375722543353,297.8283674310037 601.1560693641618,301.22276359786315 602.7745664739884,300.96561237310107 604.3930635838151,301.47991482262523 606.0115606936416,302.37994410929247 607.6300578034682,301.99421727214934 609.2485549132948,306.3657880931046 610.8670520231213,312.87171407958516 612.485549132948,301.6342055574824 614.1040462427745,302.4056592317687 615.7225433526012,307.54868372701014 617.3410404624278,311.32880673101266 618.9595375722542,282.502154435184 620.5780346820809,263.4729638027904 622.1965317919075,249.792518645448 623.8150289017341,256.7098865915478 625.4335260115607,254.93554314068948 627.0520231213873,233.33484026067515 628.6705202312138,231.0976246052451 630.2890173410404,212.55702129989942 631.907514450867,198.33655857055666 633.5260115606936,200.0337566539864 635.1445086705203,213.25132960675708 636.7630057803468,169.66419700958522 638.3815028901734,175.21866346444608 640.0,179.7188098977824 641.6184971098265,185.5561426998815 643.2369942196532,202.37383279932126 644.8554913294798,193.73355164731552 646.4739884393064,216.41428967133058 648.092485549133,209.7026427050404 649.7109826589596,213.7913471787574 651.3294797687861,218.9343716739989 652.9479768786127,224.15454153666906 654.5664739884393,224.07739616924042 656.1849710982659,225.15743131324115 657.8034682080926,223.79452982200215 659.421965317919,222.58591906562037 661.0404624277456,220.09155218542824 662.6589595375723,215.38568477228227 664.2774566473988,212.50559105494702 665.8959537572255,219.75725559323755 667.514450867052,225.41458253800323 669.1329479768785,223.22879712752558 670.7514450867052,226.8289142741946 672.3699421965317,226.7774840292422 673.9884393063584,218.9086565515227 675.606936416185,223.56309371971628 677.2254335260116,224.10311129171666 678.8439306358382,233.92628807762793 680.4624277456647,233.0776890359131 682.0809248554913,236.9349574073442 683.6994219653179,236.16350373305798 685.3179190751446,237.08924814220146 686.9364161849711,230.50617678829232 688.5549132947978,234.36344515972343 690.1734104046243,237.06353301972524 691.7919075144508,245.3952327020165 693.4104046242775,240.43221406410845 695.028901734104,232.66624707629376 696.6473988439307,228.19181576543363 698.2658959537573,231.53478168734065 699.8843930635837,229.27185090943436 701.5028901734104,224.12882641419282 703.121387283237,230.09473482867304 704.7398843930636,234.8520324867714 706.3583815028902,235.08346858905728 707.9768786127167,236.49780032524868 709.5953757225434,195.27645899588796 711.2138728323699,200.0337566539864 712.8323699421965,203.60815867817922 714.4508670520231,202.219542064464 716.0693641618498,210.19123003208833 717.6878612716763,210.1140846646597 719.306358381503,214.09992864847192 720.9248554913295,214.58851597551984 722.543352601156,211.7341373806608 724.1618497109827,212.55702129989942 725.7803468208092,211.86271299304187 727.3988439306358,217.1343131006644 729.0173410404625,216.87716187590232 730.6358381502889,213.48276570904292 732.2543352601156,220.40013365514272 733.8728323699422,224.84884984352666 735.4913294797688,227.16321086638538 737.1098265895954,230.4290314208637 738.728323699422,223.35737273990662 740.3468208092486,222.04590149362 741.9653179190751,218.16291799971273 743.5838150289018,218.96008679647514 745.2023121387283,220.60585463495244 746.820809248555,173.6243258709212 748.4393063583815,203.09385622865508 750.0578034682081,203.06814110617887 751.6763005780347,205.30535676160892 753.2947976878612,198.10512246827082 754.9132947976879,190.36487060293234 756.5317919075145,199.1594424897953 758.150289017341,190.5191613377896 759.7687861271677,192.08778380883825 761.3872832369942,189.85056815340815 763.0057803468208,198.31084344808045 764.6242774566474,188.05050958007362 766.2427745664739,175.9644020162561 767.8612716763006,172.36428486958704 769.4797687861272,168.68702235548935 771.0982658959538,185.9161544145484 772.7167630057803,185.89043929207224 774.335260115607,198.748000530176 775.9537572254335,203.5310133107506 777.5722543352601,208.59689243856351 779.1907514450867,205.87108945608549 780.8092485549133,198.7994307751284 782.4277456647399,200.93378594065362 784.0462427745664,201.1395069204633 785.664739884393,198.10512246827082 787.2832369942197,191.44490574693305 788.9017341040462,168.7898828453942 790.5202312138729,162.2582417364374 792.1387283236994,155.5208796476711 793.757225433526,167.8641384362507 795.3757225433526,187.1504802934064 796.9942196531792,187.74192811035914 798.6127167630058,168.7384526004418 800.2312138728324,172.9043024415874 801.849710982659,169.8184877444425 803.4682080924855,162.90111979834262 805.0867052023121,168.27558039587 806.7052023121387,165.4469169234872 808.3236994219653,141.3004169183283 809.942196531792,118.4911032819322 811.5606936416185,129.6771815590825 813.179190751445,110.82799678402236 814.7976878612717,125.25418049317476 816.4161849710982,109.6451011501168 818.0346820809249,144.36051649299702 819.6531791907514,101.93056440725452 821.2716763005781,111.05943288630823 822.8901734104046,118.465388159456 824.5086705202311,126.46279124955656 826.1271676300578,128.21141957793867 827.7456647398844,148.0120638846185 829.364161849711,143.0747603691866 830.9826589595376,153.3865244821459 832.6011560693642,167.5041267215838 834.2196531791907,162.92683492081886 835.8381502890173,143.0747603691866 837.4566473988439,145.6205574943312 839.0751445086705,145.67198773928357 840.6936416184972,149.34925025338129 842.3121387283237,143.20333598156765 843.9306358381502,150.3778551524296 845.5491329479769,153.9779722990986 847.1676300578034,142.50902767471007 848.7861271676301,135.36022362632434 850.4046242774567,144.10336526823494 852.0231213872833,141.84043449032865 853.6416184971098,145.44055163699772 855.2601156069364,149.78640733547678 856.878612716763,139.73179444727964 858.4971098265896,145.54341212690252 860.1156069364162,148.55208145661885 861.7341040462428,142.02044034766212 863.3526011560695,146.469156536046 864.9710982658959,140.888974958709 866.5895953757225,145.1319701672832 868.2080924855492,133.1487230933705 869.8265895953757,134.58876995203815 871.4450867052024,141.8661496128049 873.0635838150289,165.00975984139166 874.6820809248554,166.60409743491655 876.3005780346821,139.06320126289825 877.9190751445086,123.27411606250682 879.5375722543353,120.36830722269534 881.1560693641619,144.977679432426 882.7745664739884,148.1149243745233 884.393063583815,149.47782586576227 886.0115606936416,156.18947283205247 887.6300578034682,167.73556282386966 889.2485549132948,173.41860489111153 890.8670520231213,172.15856388977735 892.485549132948,172.981447809016 894.1040462427746,152.07505323585926 895.7225433526012,147.98634876214226 897.3410404624277,147.39490094518953 898.9595375722544,134.7430606868954 900.5780346820809,92.15881786629565 902.1965317919075,67.7551666363747 903.8150289017342,84.75286259314788 905.4335260115606,108.25648453640162 907.0520231213873,116.74247495355006 908.6705202312139,94.01030668458257 910.2890173410404,92.15881786629565 911.9075144508671,90.46161978286594 913.5260115606936,89.27872414896046 915.1445086705202,97.73899944363274 916.7630057803468,99.8733546091579 918.3815028901734,108.12790892402053 920.0,117.66821936269358" stroke="#58a6ff" stroke-width="1.8" fill="none"/>
<line x1="80" y1="120.36830722269534" x2="920" y2="120.36830722269534" stroke="#f0883e" stroke-width="2" stroke-dasharray="8,4"/>
<text x="925" y="125.36830722269534" font-size="11" fill="#f0883e" font-weight="bold">━ 颈线 130.33</text>
<line x1="80" y1="67.31800955427906" x2="920" y2="67.31800955427906" stroke="#a371f7" stroke-width="1.5" stroke-dasharray="5,5"/>
<text x="925" y="72.31800955427906" font-size="11" fill="#a371f7" font-weight="bold">▼ 目标 150.96 (+14.9%)</text>
<circle cx="832.6011560693642" cy="167.5041267215838" r="7" fill="#238636" stroke="#fff" stroke-width="2"/>
<text x="832.6011560693642" y="187.5041267215838" text-anchor="middle" font-size="10" fill="#3fb950">左底 ¥112.00</text>
<circle cx="889.2485549132948" cy="173.41860489111153" r="7" fill="#8957e5" stroke="#fff" stroke-width="2"/>
<text x="889.2485549132948" y="193.41860489111153" text-anchor="middle" font-size="10" fill="#bc8cff">右底 ¥109.70</text>
<circle cx="900.5780346820809" cy="120.36830722269534" r="8" fill="#f0883e" stroke="#fff" stroke-width="2.5"/>
<text x="900.5780346820809" y="106.36830722269534" text-anchor="middle" font-size="11" fill="#f0883e" font-weight="bold">★ 突破</text>
<line x1="920.0" y1="117.66821936269358" x2="920" y2="117.66821936269358" stroke="#88ccff" stroke-width="1.5"/>
<text x="925" y="122.66821936269358" font-size="11" fill="#88ccff" font-weight="bold">● 现价 131.38</text>
<text x="80" y="618" font-size="13" fill="#58a6ff" font-weight="bold">评分原因 (总分: 63):</text>
<text x="90" y="636" font-size="11" fill="#c9d1d9">1. 突破已12天</text>
<text x="90" y="652" font-size="11" fill="#c9d1d9">2. 右底显著缩量(43%)</text>
<text x="90" y="668" font-size="11" fill="#c9d1d9">3. 形态跨度大(35根K线)</text>
<text x="90" y="684" font-size="11" fill="#c9d1d9">4. MACD底背离</text>
<text x="90" y="700" font-size="11" fill="#c9d1d9">5. 振幅理想(18.8%)</text>
<text x="928" y="80" font-size="10" fill="#8b949e">突破日: 2026-06-08</text>
<text x="928" y="96" font-size="10" fill="#8b949e">突破后涨幅: 0.8%</text>
<text x="928" y="112" font-size="10" fill="#8b949e">目标空间: 14.9%</text>
<text x="928" y="128" font-size="10" fill="#8b949e">形态跨度: 35根K线</text>
</svg>