<svg xmlns="http://www.w3.org/2000/svg" viewBox="0 0 1000 720" width="1000" height="720">
<rect width="1000" height="720" fill="#0d1117"/>
<text x="500.0" y="24" text-anchor="middle" font-size="17" fill="#58a6ff" font-weight="bold">四会富仕 (300852.SZ)  三角收敛上涨中继  评分:83/100</text>
<line x1="80" y1="374.0" x2="915" y2="374.0" stroke="#21262d" stroke-width="0.5"/>
<text x="72" y="378.0" text-anchor="end" font-size="10" fill="#8b949e">19.32</text>
<line x1="80" y1="310.20000000000005" x2="915" y2="310.20000000000005" stroke="#21262d" stroke-width="0.5"/>
<text x="72" y="314.20000000000005" text-anchor="end" font-size="10" fill="#8b949e">28.50</text>
<line x1="80" y1="246.4" x2="915" y2="246.4" stroke="#21262d" stroke-width="0.5"/>
<text x="72" y="250.4" text-anchor="end" font-size="10" fill="#8b949e">37.67</text>
<line x1="80" y1="182.60000000000002" x2="915" y2="182.60000000000002" stroke="#21262d" stroke-width="0.5"/>
<text x="72" y="186.60000000000002" text-anchor="end" font-size="10" fill="#8b949e">46.85</text>
<line x1="80" y1="118.79999999999998" x2="915" y2="118.79999999999998" stroke="#21262d" stroke-width="0.5"/>
<text x="72" y="122.79999999999998" text-anchor="end" font-size="10" fill="#8b949e">56.02</text>
<line x1="80" y1="55.0" x2="915" y2="55.0" stroke="#21262d" stroke-width="0.5"/>
<text x="72" y="59.0" text-anchor="end" font-size="10" fill="#8b949e">65.20</text>
<text x="80.0" y="554.0" text-anchor="middle" font-size="9" fill="#8b949e">2024-05-06</text>
<text x="183.5658914728682" y="554.0" text-anchor="middle" font-size="9" fill="#8b949e">2024-08-05</text>
<text x="287.1317829457364" y="554.0" text-anchor="middle" font-size="9" fill="#8b949e">2024-11-12</text>
<text x="390.69767441860466" y="554.0" text-anchor="middle" font-size="9" fill="#8b949e">2025-02-19</text>
<text x="494.26356589147287" y="554.0" text-anchor="middle" font-size="9" fill="#8b949e">2025-05-26</text>
<text x="597.8294573643411" y="554.0" text-anchor="middle" font-size="9" fill="#8b949e">2025-08-25</text>
<text x="701.3953488372093" y="554.0" text-anchor="middle" font-size="9" fill="#8b949e">2025-12-01</text>
<text x="804.9612403100775" y="554.0" text-anchor="middle" font-size="9" fill="#8b949e">2026-03-11</text>
<text x="908.5271317829457" y="554.0" text-anchor="middle" font-size="9" fill="#8b949e">2026-06-15</text>
<rect x="861.5988372093024" y="55" width="38.837209302325505" height="484.0" fill="#FFD700" opacity="0.06" rx="2"/>
<rect x="79.43471953578337" y="534.4589614040365" width="1.1305609284332687" height="4.541038595963528" fill="#3fb950" opacity="0.5"/>
<rect x="81.05293659004694" y="533.8283064545013" width="1.1305609284332687" height="5.17169354549867" fill="#3fb950" opacity="0.5"/>
<rect x="82.67115364431051" y="532.2370782403692" width="1.1305609284332687" height="6.762921759630785" fill="#f85149" opacity="0.5"/>
<rect x="84.28937069857407" y="531.6077535756145" width="1.1305609284332687" height="7.392246424385462" fill="#3fb950" opacity="0.5"/>
<rect x="85.90758775283764" y="531.0223821351669" width="1.1305609284332687" height="7.977617864833064" fill="#f85149" opacity="0.5"/>
<rect x="87.52580480710121" y="533.989286291952" width="1.1305609284332687" height="5.0107137080480015" fill="#f85149" opacity="0.5"/>
<rect x="89.14402186136476" y="534.1280895900567" width="1.1305609284332687" height="4.871910409943325" fill="#f85149" opacity="0.5"/>
<rect x="90.76223891562833" y="534.6828798595685" width="1.1305609284332687" height="4.317120140431484" fill="#f85149" opacity="0.5"/>
<rect x="92.3804559698919" y="533.7267203722199" width="1.1305609284332687" height="5.273279627780084" fill="#3fb950" opacity="0.5"/>
<rect x="93.99867302415547" y="523.0628653707572" width="1.1305609284332687" height="15.937134629242792" fill="#3fb950" opacity="0.5"/>
<rect x="95.61689007841903" y="526.3174301546791" width="1.1305609284332687" height="12.682569845320927" fill="#f85149" opacity="0.5"/>
<rect x="97.2351071326826" y="517.2493940032671" width="1.1305609284332687" height="21.75060599673293" fill="#3fb950" opacity="0.5"/>
<rect x="98.85332418694617" y="521.8993583163268" width="1.1305609284332687" height="17.10064168367319" fill="#f85149" opacity="0.5"/>
<rect x="100.47154124120972" y="521.2545508284193" width="1.1305609284332687" height="17.74544917158073" fill="#f85149" opacity="0.5"/>
<rect x="102.08975829547329" y="526.3492608705676" width="1.1305609284332687" height="12.650739129432395" fill="#f85149" opacity="0.5"/>
<rect x="103.70797534973686" y="529.3580651531835" width="1.1305609284332687" height="9.641934846816525" fill="#f85149" opacity="0.5"/>
<rect x="105.32619240400042" y="532.8614662413721" width="1.1305609284332687" height="6.1385337586278865" fill="#f85149" opacity="0.5"/>
<rect x="106.94440945826399" y="530.7291773731936" width="1.1305609284332687" height="8.27082262680642" fill="#3fb950" opacity="0.5"/>
<rect x="108.56262651252756" y="531.1202195825902" width="1.1305609284332687" height="7.879780417409847" fill="#3fb950" opacity="0.5"/>
<rect x="110.18084356679113" y="530.6651968268593" width="1.1305609284332687" height="8.334803173140699" fill="#3fb950" opacity="0.5"/>
<rect x="111.79906062105469" y="523.0756760900881" width="1.1305609284332687" height="15.924323909911891" fill="#3fb950" opacity="0.5"/>
<rect x="113.41727767531826" y="511.5304459055102" width="1.1305609284332687" height="27.46955409448981" fill="#3fb950" opacity="0.5"/>
<rect x="115.03549472958183" y="521.6935832535087" width="1.1305609284332687" height="17.306416746491323" fill="#f85149" opacity="0.5"/>
<rect x="116.6537117838454" y="498.6212201400223" width="1.1305609284332687" height="40.378779859977726" fill="#3fb950" opacity="0.5"/>
<rect x="118.27192883810896" y="499.6688540074192" width="1.1305609284332687" height="39.33114599258079" fill="#3fb950" opacity="0.5"/>
<rect x="119.89014589237253" y="508.6766813158773" width="1.1305609284332687" height="30.323318684122682" fill="#3fb950" opacity="0.5"/>
<rect x="121.50836294663608" y="514.2097509512175" width="1.1305609284332687" height="24.79024904878247" fill="#f85149" opacity="0.5"/>
<rect x="123.12658000089965" y="515.8094606920134" width="1.1305609284332687" height="23.19053930798657" fill="#f85149" opacity="0.5"/>
<rect x="124.74479705516322" y="517.8735359400331" width="1.1305609284332687" height="21.126464059966906" fill="#3fb950" opacity="0.5"/>
<rect x="126.36301410942679" y="501.5912577710734" width="1.1305609284332687" height="37.4087422289266" fill="#3fb950" opacity="0.5"/>
<rect x="127.98123116369034" y="512.8139631019559" width="1.1305609284332687" height="26.186036898044108" fill="#f85149" opacity="0.5"/>
<rect x="129.59944821795392" y="519.0335942503939" width="1.1305609284332687" height="19.96640574960611" fill="#f85149" opacity="0.5"/>
<rect x="131.21766527221746" y="513.6744920305056" width="1.1305609284332687" height="25.325507969494424" fill="#f85149" opacity="0.5"/>
<rect x="132.83588232648103" y="500.33590724023935" width="1.1305609284332687" height="38.66409275976065" fill="#3fb950" opacity="0.5"/>
<rect x="134.4540993807446" y="505.1732187116295" width="1.1305609284332687" height="33.82678128837051" fill="#f85149" opacity="0.5"/>
<rect x="136.07231643500816" y="513.2718617334549" width="1.1305609284332687" height="25.728138266545102" fill="#f85149" opacity="0.5"/>
<rect x="137.69053348927173" y="480.1898130816747" width="1.1305609284332687" height="58.810186918325314" fill="#3fb950" opacity="0.5"/>
<rect x="139.3087505435353" y="499.46866152697453" width="1.1305609284332687" height="39.53133847302547" fill="#f85149" opacity="0.5"/>
<rect x="140.92696759779886" y="502.7466485504414" width="1.1305609284332687" height="36.25335144955858" fill="#3fb950" opacity="0.5"/>
<rect x="142.54518465206243" y="512.8893010507222" width="1.1305609284332687" height="26.110698949277776" fill="#f85149" opacity="0.5"/>
<rect x="144.163401706326" y="505.0755388991081" width="1.1305609284332687" height="33.924461100891904" fill="#3fb950" opacity="0.5"/>
<rect x="145.78161876058957" y="517.5159161745572" width="1.1305609284332687" height="21.48408382544278" fill="#f85149" opacity="0.5"/>
<rect x="147.39983581485313" y="510.3288604104275" width="1.1305609284332687" height="28.671139589572476" fill="#3fb950" opacity="0.5"/>
<rect x="149.01805286911667" y="512.9896568118194" width="1.1305609284332687" height="26.010343188180627" fill="#f85149" opacity="0.5"/>
<rect x="150.63626992338027" y="518.7691021090577" width="1.1305609284332687" height="20.230897890942288" fill="#f85149" opacity="0.5"/>
<rect x="152.2544869776438" y="511.96025861122513" width="1.1305609284332687" height="27.03974138877487" fill="#3fb950" opacity="0.5"/>
<rect x="153.8727040319074" y="512.1169169455162" width="1.1305609284332687" height="26.88308305448379" fill="#3fb950" opacity="0.5"/>
<rect x="155.49092108617094" y="512.7687718669572" width="1.1305609284332687" height="26.231228133042805" fill="#3fb950" opacity="0.5"/>
<rect x="157.10913814043454" y="522.409610958969" width="1.1305609284332687" height="16.590389041031017" fill="#f85149" opacity="0.5"/>
<rect x="158.72735519469808" y="524.2237656821784" width="1.1305609284332687" height="14.776234317821604" fill="#f85149" opacity="0.5"/>
<rect x="160.34557224896167" y="523.4412198929413" width="1.1305609284332687" height="15.558780107058737" fill="#3fb950" opacity="0.5"/>
<rect x="161.9637893032252" y="519.534688689721" width="1.1305609284332687" height="19.46531131027905" fill="#f85149" opacity="0.5"/>
<rect x="163.58200635748878" y="523.0341412158588" width="1.1305609284332687" height="15.965858784141233" fill="#f85149" opacity="0.5"/>
<rect x="165.20022341175235" y="527.9387627902881" width="1.1305609284332687" height="11.061237209711862" fill="#f85149" opacity="0.5"/>
<rect x="166.81844046601591" y="529.0213685373471" width="1.1305609284332687" height="9.978631462652856" fill="#3fb950" opacity="0.5"/>
<rect x="168.43665752027948" y="529.7487651795007" width="1.1305609284332687" height="9.251234820499349" fill="#f85149" opacity="0.5"/>
<rect x="170.05487457454305" y="529.2807702247835" width="1.1305609284332687" height="9.71922977521649" fill="#f85149" opacity="0.5"/>
<rect x="171.67309162880662" y="530.7310882157828" width="1.1305609284332687" height="8.268911784217153" fill="#f85149" opacity="0.5"/>
<rect x="173.29130868307018" y="532.4210881524874" width="1.1305609284332687" height="6.578911847512586" fill="#3fb950" opacity="0.5"/>
<rect x="174.90952573733375" y="531.8329638683902" width="1.1305609284332687" height="7.167036131609848" fill="#f85149" opacity="0.5"/>
<rect x="176.5277427915973" y="531.7393825633137" width="1.1305609284332687" height="7.260617436686289" fill="#3fb950" opacity="0.5"/>
<rect x="178.1459598458609" y="527.9557296883695" width="1.1305609284332687" height="11.044270311630498" fill="#3fb950" opacity="0.5"/>
<rect x="179.76417690012445" y="530.035572271316" width="1.1305609284332687" height="8.964427728683972" fill="#f85149" opacity="0.5"/>
<rect x="181.38239395438802" y="526.3186950786467" width="1.1305609284332687" height="12.68130492135333" fill="#f85149" opacity="0.5"/>
<rect x="183.00061100865156" y="528.3273828048532" width="1.1305609284332687" height="10.672617195146813" fill="#f85149" opacity="0.5"/>
<rect x="184.61882806291516" y="533.0732506542246" width="1.1305609284332687" height="5.92674934577542" fill="#3fb950" opacity="0.5"/>
<rect x="186.2370451171787" y="533.3086726128292" width="1.1305609284332687" height="5.691327387170759" fill="#3fb950" opacity="0.5"/>
<rect x="187.8552621714423" y="533.5984286307331" width="1.1305609284332687" height="5.40157136926689" fill="#f85149" opacity="0.5"/>
<rect x="189.47347922570583" y="533.5033863192504" width="1.1305609284332687" height="5.496613680749647" fill="#3fb950" opacity="0.5"/>
<rect x="191.0916962799694" y="534.9174098353146" width="1.1305609284332687" height="4.082590164685371" fill="#f85149" opacity="0.5"/>
<rect x="192.70991333423297" y="534.035038860991" width="1.1305609284332687" height="4.964961139009006" fill="#3fb950" opacity="0.5"/>
<rect x="194.32813038849653" y="534.2491147470491" width="1.1305609284332687" height="4.750885252950866" fill="#3fb950" opacity="0.5"/>
<rect x="195.9463474427601" y="533.6817521329359" width="1.1305609284332687" height="5.318247867064088" fill="#3fb950" opacity="0.5"/>
<rect x="197.56456449702367" y="529.9586771973009" width="1.1305609284332687" height="9.041322802699142" fill="#3fb950" opacity="0.5"/>
<rect x="199.18278155128723" y="531.7427967046" width="1.1305609284332687" height="7.257203295400018" fill="#f85149" opacity="0.5"/>
<rect x="200.8009986055508" y="533.963757127379" width="1.1305609284332687" height="5.03624287262096" fill="#f85149" opacity="0.5"/>
<rect x="202.41921565981437" y="528.4101603520305" width="1.1305609284332687" height="10.589839647969484" fill="#f85149" opacity="0.5"/>
<rect x="204.0374327140779" y="531.5644770279589" width="1.1305609284332687" height="7.435522972041099" fill="#f85149" opacity="0.5"/>
<rect x="205.6556497683415" y="533.7111568092392" width="1.1305609284332687" height="5.288843190760758" fill="#3fb950" opacity="0.5"/>
<rect x="207.27386682260504" y="535.234371330405" width="1.1305609284332687" height="3.765628669595003" fill="#3fb950" opacity="0.5"/>
<rect x="208.89208387686864" y="535.2532106235387" width="1.1305609284332687" height="3.7467893764612654" fill="#f85149" opacity="0.5"/>
<rect x="210.5103009311322" y="535.8872874038675" width="1.1305609284332687" height="3.1127125961324964" fill="#f85149" opacity="0.5"/>
<rect x="212.12851798539577" y="533.9321532519588" width="1.1305609284332687" height="5.067846748041234" fill="#3fb950" opacity="0.5"/>
<rect x="213.74673503965934" y="531.3865418266879" width="1.1305609284332687" height="7.613458173312097" fill="#3fb950" opacity="0.5"/>
<rect x="215.3649520939229" y="533.7745952453017" width="1.1305609284332687" height="5.225404754698275" fill="#f85149" opacity="0.5"/>
<rect x="216.98316914818645" y="535.4498005697658" width="1.1305609284332687" height="3.5501994302342155" fill="#3fb950" opacity="0.5"/>
<rect x="218.60138620245002" y="535.0590505616506" width="1.1305609284332687" height="3.940949438349435" fill="#f85149" opacity="0.5"/>
<rect x="220.21960325671358" y="533.7292271516328" width="1.1305609284332687" height="5.270772848367187" fill="#3fb950" opacity="0.5"/>
<rect x="221.83782031097715" y="534.497178255822" width="1.1305609284332687" height="4.50282174417805" fill="#f85149" opacity="0.5"/>
<rect x="223.45603736524072" y="535.6991251577525" width="1.1305609284332687" height="3.300874842247481" fill="#3fb950" opacity="0.5"/>
<rect x="225.07425441950429" y="535.6991559157821" width="1.1305609284332687" height="3.3008440842179425" fill="#3fb950" opacity="0.5"/>
<rect x="226.69247147376785" y="536.4523893028047" width="1.1305609284332687" height="2.547610697195296" fill="#f85149" opacity="0.5"/>
<rect x="228.31068852803142" y="534.9430158949617" width="1.1305609284332687" height="4.056984105038282" fill="#f85149" opacity="0.5"/>
<rect x="229.928905582295" y="535.4050014996446" width="1.1305609284332687" height="3.5949985003553593" fill="#f85149" opacity="0.5"/>
<rect x="231.54712263655856" y="534.985231290596" width="1.1305609284332687" height="4.014768709404052" fill="#f85149" opacity="0.5"/>
<rect x="233.16533969082212" y="534.4420444877532" width="1.1305609284332687" height="4.557955512246849" fill="#3fb950" opacity="0.5"/>
<rect x="234.7835567450857" y="535.5533705449568" width="1.1305609284332687" height="3.446629455043194" fill="#f85149" opacity="0.5"/>
<rect x="236.40177379934926" y="535.0478238808444" width="1.1305609284332687" height="3.952176119155638" fill="#3fb950" opacity="0.5"/>
<rect x="238.01999085361282" y="530.4954278824487" width="1.1305609284332687" height="8.504572117551334" fill="#3fb950" opacity="0.5"/>
<rect x="239.6382079078764" y="528.4612225259302" width="1.1305609284332687" height="10.538777474069775" fill="#f85149" opacity="0.5"/>
<rect x="241.25642496213996" y="530.7077121132822" width="1.1305609284332687" height="8.292287886717759" fill="#3fb950" opacity="0.5"/>
<rect x="242.8746420164035" y="526.8060406787397" width="1.1305609284332687" height="12.193959321260309" fill="#3fb950" opacity="0.5"/>
<rect x="244.49285907066707" y="514.028416987675" width="1.1305609284332687" height="24.971583012325027" fill="#3fb950" opacity="0.5"/>
<rect x="246.11107612493063" y="503.75449690654295" width="1.1305609284332687" height="35.245503093457046" fill="#3fb950" opacity="0.5"/>
<rect x="247.7292931791942" y="515.4567122294765" width="1.1305609284332687" height="23.543287770523534" fill="#f85149" opacity="0.5"/>
<rect x="249.34751023345777" y="526.3415482946439" width="1.1305609284332687" height="12.658451705356129" fill="#3fb950" opacity="0.5"/>
<rect x="250.96572728772134" y="525.627146919999" width="1.1305609284332687" height="13.37285308000105" fill="#f85149" opacity="0.5"/>
<rect x="252.5839443419849" y="528.4008868061043" width="1.1305609284332687" height="10.599113193895732" fill="#3fb950" opacity="0.5"/>
<rect x="254.20216139624847" y="528.611460121541" width="1.1305609284332687" height="10.388539878459028" fill="#f85149" opacity="0.5"/>
<rect x="255.820378450512" y="531.6662399689105" width="1.1305609284332687" height="7.333760031089469" fill="#f85149" opacity="0.5"/>
<rect x="257.4385955047756" y="530.8961434921564" width="1.1305609284332687" height="8.103856507843602" fill="#3fb950" opacity="0.5"/>
<rect x="259.0568125590392" y="519.7656507340328" width="1.1305609284332687" height="19.23434926596724" fill="#3fb950" opacity="0.5"/>
<rect x="260.67502961330274" y="520.4900869158367" width="1.1305609284332687" height="18.50991308416326" fill="#3fb950" opacity="0.5"/>
<rect x="262.2932466675663" y="520.0827352612415" width="1.1305609284332687" height="18.91726473875849" fill="#f85149" opacity="0.5"/>
<rect x="263.9114637218299" y="527.7651836949601" width="1.1305609284332687" height="11.234816305039885" fill="#f85149" opacity="0.5"/>
<rect x="265.52968077609347" y="530.5168739185915" width="1.1305609284332687" height="8.4831260814085" fill="#3fb950" opacity="0.5"/>
<rect x="267.147897830357" y="528.2408258647881" width="1.1305609284332687" height="10.759174135211879" fill="#3fb950" opacity="0.5"/>
<rect x="268.76611488462055" y="506.8760985732316" width="1.1305609284332687" height="32.123901426768384" fill="#3fb950" opacity="0.5"/>
<rect x="270.38433193888415" y="516.9459814202182" width="1.1305609284332687" height="22.05401857978177" fill="#f85149" opacity="0.5"/>
<rect x="272.0025489931477" y="524.4153343800723" width="1.1305609284332687" height="14.584665619927705" fill="#f85149" opacity="0.5"/>
<rect x="273.6207660474112" y="525.4857983949444" width="1.1305609284332687" height="13.514201605055632" fill="#f85149" opacity="0.5"/>
<rect x="275.2389831016748" y="525.4090417320624" width="1.1305609284332687" height="13.590958267937594" fill="#f85149" opacity="0.5"/>
<rect x="276.8572001559384" y="531.9385369602592" width="1.1305609284332687" height="7.061463039740829" fill="#3fb950" opacity="0.5"/>
<rect x="278.475417210202" y="529.113492680771" width="1.1305609284332687" height="9.886507319229054" fill="#3fb950" opacity="0.5"/>
<rect x="280.09363426446555" y="526.2493011191017" width="1.1305609284332687" height="12.750698880898312" fill="#f85149" opacity="0.5"/>
<rect x="281.7118513187291" y="529.8816398673988" width="1.1305609284332687" height="9.118360132601197" fill="#3fb950" opacity="0.5"/>
<rect x="283.3300683729927" y="524.8894578721885" width="1.1305609284332687" height="14.110542127811527" fill="#3fb950" opacity="0.5"/>
<rect x="284.9482854272562" y="524.1599120127162" width="1.1305609284332687" height="14.840087987283823" fill="#3fb950" opacity="0.5"/>
<rect x="286.56650248151976" y="525.1024303139345" width="1.1305609284332687" height="13.89756968606548" fill="#f85149" opacity="0.5"/>
<rect x="288.18471953578336" y="529.6518812309953" width="1.1305609284332687" height="9.348118769004714" fill="#3fb950" opacity="0.5"/>
<rect x="289.80293659004695" y="529.7942293920121" width="1.1305609284332687" height="9.205770607987915" fill="#f85149" opacity="0.5"/>
<rect x="291.4211536443105" y="525.7182252904162" width="1.1305609284332687" height="13.281774709583829" fill="#3fb950" opacity="0.5"/>
<rect x="293.03937069857403" y="527.6387528142644" width="1.1305609284332687" height="11.361247185735579" fill="#f85149" opacity="0.5"/>
<rect x="294.6575877528376" y="529.8534962703093" width="1.1305609284332687" height="9.146503729690721" fill="#3fb950" opacity="0.5"/>
<rect x="296.2758048071012" y="530.5414649632615" width="1.1305609284332687" height="8.458535036738454" fill="#f85149" opacity="0.5"/>
<rect x="297.89402186136476" y="531.4793388020094" width="1.1305609284332687" height="7.520661197990648" fill="#f85149" opacity="0.5"/>
<rect x="299.5122389156283" y="529.6504048455743" width="1.1305609284332687" height="9.349595154425742" fill="#f85149" opacity="0.5"/>
<rect x="301.1304559698919" y="532.2536568183269" width="1.1305609284332687" height="6.746343181673069" fill="#3fb950" opacity="0.5"/>
<rect x="302.74867302415544" y="534.356244964167" width="1.1305609284332687" height="4.64375503583301" fill="#f85149" opacity="0.5"/>
<rect x="304.366890078419" y="530.9895479385625" width="1.1305609284332687" height="8.01045206143749" fill="#3fb950" opacity="0.5"/>
<rect x="305.9851071326826" y="533.3940722820305" width="1.1305609284332687" height="5.605927717969507" fill="#f85149" opacity="0.5"/>
<rect x="307.60332418694617" y="532.1426972265231" width="1.1305609284332687" height="6.857302773476931" fill="#3fb950" opacity="0.5"/>
<rect x="309.2215412412097" y="531.6592117591455" width="1.1305609284332687" height="7.340788240854522" fill="#3fb950" opacity="0.5"/>
<rect x="310.83975829547325" y="533.28792632186" width="1.1305609284332687" height="5.712073678139973" fill="#3fb950" opacity="0.5"/>
<rect x="312.45797534973684" y="531.3742078568158" width="1.1305609284332687" height="7.625792143184185" fill="#f85149" opacity="0.5"/>
<rect x="314.07619240400044" y="531.5609090965246" width="1.1305609284332687" height="7.439090903475403" fill="#3fb950" opacity="0.5"/>
<rect x="315.694409458264" y="532.8768760142048" width="1.1305609284332687" height="6.123123985795246" fill="#f85149" opacity="0.5"/>
<rect x="317.3126265125275" y="517.3838757982122" width="1.1305609284332687" height="21.616124201787784" fill="#3fb950" opacity="0.5"/>
<rect x="318.9308435667911" y="516.3623939454878" width="1.1305609284332687" height="22.637606054512162" fill="#3fb950" opacity="0.5"/>
<rect x="320.5490606210547" y="527.603592541671" width="1.1305609284332687" height="11.396407458329008" fill="#f85149" opacity="0.5"/>
<rect x="322.16727767531825" y="528.483645129513" width="1.1305609284332687" height="10.516354870487021" fill="#f85149" opacity="0.5"/>
<rect x="323.7854947295818" y="529.3578037099319" width="1.1305609284332687" height="9.642196290068114" fill="#f85149" opacity="0.5"/>
<rect x="325.4037117838454" y="526.5035662155938" width="1.1305609284332687" height="12.496433784406236" fill="#3fb950" opacity="0.5"/>
<rect x="327.021928838109" y="505.912603295822" width="1.1305609284332687" height="33.08739670417799" fill="#3fb950" opacity="0.5"/>
<rect x="328.64014589237246" y="500.9509524897494" width="1.1305609284332687" height="38.0490475102506" fill="#3fb950" opacity="0.5"/>
<rect x="330.25836294663605" y="514.0208505123919" width="1.1305609284332687" height="24.979149487608083" fill="#f85149" opacity="0.5"/>
<rect x="331.87658000089965" y="510.29093960467696" width="1.1305609284332687" height="28.709060395323036" fill="#3fb950" opacity="0.5"/>
<rect x="333.4947970551632" y="519.2718613267372" width="1.1305609284332687" height="19.728138673262833" fill="#f85149" opacity="0.5"/>
<rect x="335.11301410942673" y="518.960190212739" width="1.1305609284332687" height="20.039809787260992" fill="#3fb950" opacity="0.5"/>
<rect x="336.7312311636903" y="524.9124072070283" width="1.1305609284332687" height="14.08759279297169" fill="#f85149" opacity="0.5"/>
<rect x="338.3494482179539" y="516.3808526080052" width="1.1305609284332687" height="22.61914739199483" fill="#3fb950" opacity="0.5"/>
<rect x="339.96766527221746" y="521.8374808502668" width="1.1305609284332687" height="17.162519149733157" fill="#f85149" opacity="0.5"/>
<rect x="341.58588232648106" y="525.481692197992" width="1.1305609284332687" height="13.518307802008053" fill="#f85149" opacity="0.5"/>
<rect x="343.2040993807446" y="517.1368003911405" width="1.1305609284332687" height="21.86319960885953" fill="#f85149" opacity="0.5"/>
<rect x="344.8223164350082" y="521.1631571881985" width="1.1305609284332687" height="17.83684281180149" fill="#f85149" opacity="0.5"/>
<rect x="346.44053348927173" y="526.1082793981116" width="1.1305609284332687" height="12.891720601888437" fill="#f85149" opacity="0.5"/>
<rect x="348.0587505435353" y="530.5414649632615" width="1.1305609284332687" height="8.458535036738454" fill="#f85149" opacity="0.5"/>
<rect x="349.67696759779886" y="528.69352254453" width="1.1305609284332687" height="10.30647745547003" fill="#3fb950" opacity="0.5"/>
<rect x="351.29518465206246" y="524.125339987439" width="1.1305609284332687" height="14.87466001256098" fill="#3fb950" opacity="0.5"/>
<rect x="352.913401706326" y="503.95782286125376" width="1.1305609284332687" height="35.04217713874624" fill="#3fb950" opacity="0.5"/>
<rect x="354.53161876058954" y="518.08292507133" width="1.1305609284332687" height="20.91707492866999" fill="#f85149" opacity="0.5"/>
<rect x="356.14983581485313" y="525.1768647455812" width="1.1305609284332687" height="13.823135254418844" fill="#f85149" opacity="0.5"/>
<rect x="357.7680528691167" y="521.751819737814" width="1.1305609284332687" height="17.248180262185997" fill="#3fb950" opacity="0.5"/>
<rect x="359.38626992338027" y="527.8030775874347" width="1.1305609284332687" height="11.1969224125653" fill="#f85149" opacity="0.5"/>
<rect x="361.0044869776438" y="525.8166778984314" width="1.1305609284332687" height="13.183322101568592" fill="#f85149" opacity="0.5"/>
<rect x="362.6227040319074" y="503.20569676329694" width="1.1305609284332687" height="35.79430323670306" fill="#3fb950" opacity="0.5"/>
<rect x="364.24092108617094" y="513.4691975618999" width="1.1305609284332687" height="25.530802438100068" fill="#3fb950" opacity="0.5"/>
<rect x="365.85913814043454" y="522.8631073474806" width="1.1305609284332687" height="16.13689265251935" fill="#f85149" opacity="0.5"/>
<rect x="367.4773551946981" y="509.5267717381294" width="1.1305609284332687" height="29.473228261870588" fill="#3fb950" opacity="0.5"/>
<rect x="369.0955722489617" y="516.5751241677506" width="1.1305609284332687" height="22.424875832249427" fill="#f85149" opacity="0.5"/>
<rect x="370.7137893032252" y="499.72162325196206" width="1.1305609284332687" height="39.27837674803794" fill="#3fb950" opacity="0.5"/>
<rect x="372.3320063574888" y="505.5536224875361" width="1.1305609284332687" height="33.446377512463926" fill="#3fb950" opacity="0.5"/>
<rect x="373.95022341175235" y="482.3633792255845" width="1.1305609284332687" height="56.63662077441552" fill="#3fb950" opacity="0.5"/>
<rect x="375.56844046601594" y="471.36055151409454" width="1.1305609284332687" height="67.63944848590546" fill="#3fb950" opacity="0.5"/>
<rect x="377.1866575202795" y="466.84275445425203" width="1.1305609284332687" height="72.15724554574797" fill="#3fb950" opacity="0.5"/>
<rect x="378.8048745745431" y="502.27525867820646" width="1.1305609284332687" height="36.724741321793545" fill="#f85149" opacity="0.5"/>
<rect x="380.4230916288066" y="482.6601403847311" width="1.1305609284332687" height="56.33985961526889" fill="#3fb950" opacity="0.5"/>
<rect x="382.04130868307016" y="504.8198627780078" width="1.1305609284332687" height="34.1801372219922" fill="#f85149" opacity="0.5"/>
<rect x="383.65952573733375" y="494.9921186743411" width="1.1305609284332687" height="44.0078813256589" fill="#f85149" opacity="0.5"/>
<rect x="385.2777427915973" y="493.0339010299644" width="1.1305609284332687" height="45.9660989700356" fill="#3fb950" opacity="0.5"/>
<rect x="386.8959598458609" y="497.9981162867554" width="1.1305609284332687" height="41.00188371324458" fill="#3fb950" opacity="0.5"/>
<rect x="388.5141769001244" y="492.26082871384585" width="1.1305609284332687" height="46.739171286154146" fill="#f85149" opacity="0.5"/>
<rect x="390.132393954388" y="489.16616339158475" width="1.1305609284332687" height="49.833836608415254" fill="#3fb950" opacity="0.5"/>
<rect x="391.75061100865156" y="486.30498611681685" width="1.1305609284332687" height="52.69501388318315" fill="#f85149" opacity="0.5"/>
<rect x="393.36882806291516" y="490.4163350391838" width="1.1305609284332687" height="48.58366496081618" fill="#f85149" opacity="0.5"/>
<rect x="394.9870451171787" y="513.3663657794195" width="1.1305609284332687" height="25.63363422058046" fill="#f85149" opacity="0.5"/>
<rect x="396.6052621714423" y="514.159277024634" width="1.1305609284332687" height="24.84072297536602" fill="#f85149" opacity="0.5"/>
<rect x="398.22347922570583" y="513.768650048637" width="1.1305609284332687" height="25.231349951362972" fill="#3fb950" opacity="0.5"/>
<rect x="399.8416962799694" y="495.2308817239118" width="1.1305609284332687" height="43.76911827608819" fill="#3fb950" opacity="0.5"/>
<rect x="401.45991333423297" y="499.90838985248377" width="1.1305609284332687" height="39.091610147516235" fill="#f85149" opacity="0.5"/>
<rect x="403.07813038849656" y="520.3092220122458" width="1.1305609284332687" height="18.690777987754245" fill="#3fb950" opacity="0.5"/>
<rect x="404.6963474427601" y="526.654480487856" width="1.1305609284332687" height="12.345519512144051" fill="#3fb950" opacity="0.5"/>
<rect x="406.31456449702364" y="517.3735103422349" width="1.1305609284332687" height="21.62648965776509" fill="#3fb950" opacity="0.5"/>
<rect x="407.93278155128723" y="518.8811766794348" width="1.1305609284332687" height="20.118823320565184" fill="#f85149" opacity="0.5"/>
<rect x="409.5509986055508" y="522.1091972838067" width="1.1305609284332687" height="16.89080271619332" fill="#f85149" opacity="0.5"/>
<rect x="411.16921565981437" y="528.3668568910989" width="1.1305609284332687" height="10.633143108901095" fill="#f85149" opacity="0.5"/>
<rect x="412.7874327140779" y="523.9905275436757" width="1.1305609284332687" height="15.00947245632426" fill="#f85149" opacity="0.5"/>
<rect x="414.4056497683415" y="522.1825090473727" width="1.1305609284332687" height="16.81749095262728" fill="#f85149" opacity="0.5"/>
<rect x="416.02386682260504" y="524.7649070760525" width="1.1305609284332687" height="14.23509292394749" fill="#f85149" opacity="0.5"/>
<rect x="417.64208387686864" y="523.2706358607461" width="1.1305609284332687" height="15.729364139253903" fill="#3fb950" opacity="0.5"/>
<rect x="419.2603009311322" y="526.6479751645942" width="1.1305609284332687" height="12.352024835405814" fill="#f85149" opacity="0.5"/>
<rect x="420.8785179853958" y="520.171164596359" width="1.1305609284332687" height="18.82883540364105" fill="#3fb950" opacity="0.5"/>
<rect x="422.4967350396593" y="525.5405476876431" width="1.1305609284332687" height="13.459452312356916" fill="#f85149" opacity="0.5"/>
<rect x="424.1149520939229" y="530.3107028461421" width="1.1305609284332687" height="8.689297153857865" fill="#f85149" opacity="0.5"/>
<rect x="425.73316914818645" y="528.6779436025345" width="1.1305609284332687" height="10.32205639746553" fill="#f85149" opacity="0.5"/>
<rect x="427.35138620245004" y="530.3842145369006" width="1.1305609284332687" height="8.615785463099428" fill="#f85149" opacity="0.5"/>
<rect x="428.9696032567136" y="532.6642303765233" width="1.1305609284332687" height="6.335769623476722" fill="#f85149" opacity="0.5"/>
<rect x="430.5878203109772" y="533.8386488419563" width="1.1305609284332687" height="5.161351158043658" fill="#3fb950" opacity="0.5"/>
<rect x="432.2060373652407" y="532.6718429888508" width="1.1305609284332687" height="6.328157011149187" fill="#f85149" opacity="0.5"/>
<rect x="433.82425441950426" y="534.5401895154723" width="1.1305609284332687" height="4.459810484527679" fill="#f85149" opacity="0.5"/>
<rect x="435.44247147376785" y="523.4245874884317" width="1.1305609284332687" height="15.575412511568288" fill="#f85149" opacity="0.5"/>
<rect x="437.0606885280314" y="531.3014497377827" width="1.1305609284332687" height="7.698550262217282" fill="#f85149" opacity="0.5"/>
<rect x="438.678905582295" y="533.4644927908136" width="1.1305609284332687" height="5.535507209186449" fill="#3fb950" opacity="0.5"/>
<rect x="440.2971226365585" y="530.9006649225084" width="1.1305609284332687" height="8.09933507749156" fill="#f85149" opacity="0.5"/>
<rect x="441.9153396908221" y="525.5041071120673" width="1.1305609284332687" height="13.495892887932655" fill="#f85149" opacity="0.5"/>
<rect x="443.53355674508566" y="523.1910340801256" width="1.1305609284332687" height="15.808965919874368" fill="#3fb950" opacity="0.5"/>
<rect x="445.15177379934926" y="525.0292415824869" width="1.1305609284332687" height="13.970758417513139" fill="#3fb950" opacity="0.5"/>
<rect x="446.7699908536128" y="525.2478927254489" width="1.1305609284332687" height="13.752107274551122" fill="#3fb950" opacity="0.5"/>
<rect x="448.3882079078764" y="526.3109517446933" width="1.1305609284332687" height="12.689048255306716" fill="#3fb950" opacity="0.5"/>
<rect x="450.00642496213993" y="529.0113298854344" width="1.1305609284332687" height="9.988670114565593" fill="#3fb950" opacity="0.5"/>
<rect x="451.6246420164035" y="531.3151063029278" width="1.1305609284332687" height="7.684893697072198" fill="#f85149" opacity="0.5"/>
<rect x="453.24285907066707" y="532.4688707514804" width="1.1305609284332687" height="6.531129248519619" fill="#f85149" opacity="0.5"/>
<rect x="454.86107612493066" y="533.0232073400555" width="1.1305609284332687" height="5.976792659944522" fill="#3fb950" opacity="0.5"/>
<rect x="456.47929317919426" y="533.5492926784375" width="1.1305609284332687" height="5.450707321562504" fill="#3fb950" opacity="0.5"/>
<rect x="458.09751023345774" y="527.6428282531872" width="1.1305609284332687" height="11.35717174681281" fill="#3fb950" opacity="0.5"/>
<rect x="459.71572728772134" y="530.1074691655201" width="1.1305609284332687" height="8.892530834479885" fill="#f85149" opacity="0.5"/>
<rect x="461.3339443419849" y="526.6361179441811" width="1.1305609284332687" height="12.363882055818863" fill="#3fb950" opacity="0.5"/>
<rect x="462.95216139624847" y="529.4744458477054" width="1.1305609284332687" height="9.525554152294603" fill="#f85149" opacity="0.5"/>
<rect x="464.570378450512" y="530.5856796308203" width="1.1305609284332687" height="8.414320369179677" fill="#f85149" opacity="0.5"/>
<rect x="466.1885955047756" y="533.9654334399925" width="1.1305609284332687" height="5.0345665600075336" fill="#f85149" opacity="0.5"/>
<rect x="467.80681255903914" y="532.6201694991126" width="1.1305609284332687" height="6.379830500887351" fill="#3fb950" opacity="0.5"/>
<rect x="469.42502961330274" y="532.3755970267001" width="1.1305609284332687" height="6.62440297329988" fill="#3fb950" opacity="0.5"/>
<rect x="471.0432466675663" y="529.9396379769747" width="1.1305609284332687" height="9.060362023025277" fill="#3fb950" opacity="0.5"/>
<rect x="472.6614637218299" y="528.9728054533529" width="1.1305609284332687" height="10.027194546647138" fill="#f85149" opacity="0.5"/>
<rect x="474.2796807760934" y="528.7711865692852" width="1.1305609284332687" height="10.228813430714808" fill="#3fb950" opacity="0.5"/>
<rect x="475.897897830357" y="512.8306685567857" width="1.1305609284332687" height="26.169331443214332" fill="#3fb950" opacity="0.5"/>
<rect x="477.5161148846206" y="520.0722313941311" width="1.1305609284332687" height="18.92776860586889" fill="#3fb950" opacity="0.5"/>
<rect x="479.13433193888415" y="477.4624178566783" width="1.1305609284332687" height="61.537582143321686" fill="#3fb950" opacity="0.5"/>
<rect x="480.75254899314774" y="499.8686350992179" width="1.1305609284332687" height="39.1313649007821" fill="#f85149" opacity="0.5"/>
<rect x="482.3707660474113" y="520.1145505981153" width="1.1305609284332687" height="18.88544940188467" fill="#f85149" opacity="0.5"/>
<rect x="483.9889831016748" y="514.774668301977" width="1.1305609284332687" height="24.225331698022956" fill="#3fb950" opacity="0.5"/>
<rect x="485.60720015593836" y="526.3339971983756" width="1.1305609284332687" height="12.666002801624359" fill="#f85149" opacity="0.5"/>
<rect x="487.22541721020195" y="518.1341371906241" width="1.1305609284332687" height="20.865862809375926" fill="#3fb950" opacity="0.5"/>
<rect x="488.8436342644655" y="527.057656739932" width="1.1305609284332687" height="11.942343260068014" fill="#f85149" opacity="0.5"/>
<rect x="490.4618513187291" y="530.6584223708386" width="1.1305609284332687" height="8.341577629161407" fill="#f85149" opacity="0.5"/>
<rect x="492.0800683729926" y="529.7885083985054" width="1.1305609284332687" height="9.211491601494572" fill="#f85149" opacity="0.5"/>
<rect x="493.6982854272562" y="529.9302260199153" width="1.1305609284332687" height="9.069773980084733" fill="#3fb950" opacity="0.5"/>
<rect x="495.31650248151976" y="531.0814221729959" width="1.1305609284332687" height="7.918577827004128" fill="#f85149" opacity="0.5"/>
<rect x="496.93471953578336" y="534.6134436077328" width="1.1305609284332687" height="4.386556392267153" fill="#f85149" opacity="0.5"/>
<rect x="498.55293659004695" y="532.0944878598692" width="1.1305609284332687" height="6.9055121401307815" fill="#3fb950" opacity="0.5"/>
<rect x="500.1711536443105" y="531.9616900670451" width="1.1305609284332687" height="7.038309932954917" fill="#f85149" opacity="0.5"/>
<rect x="501.7893706985741" y="535.1055874604444" width="1.1305609284332687" height="3.89441253955556" fill="#f85149" opacity="0.5"/>
<rect x="503.4075877528376" y="533.5252398992855" width="1.1305609284332687" height="5.474760100714548" fill="#3fb950" opacity="0.5"/>
<rect x="505.0258048071012" y="531.7527776852071" width="1.1305609284332687" height="7.247222314792907" fill="#3fb950" opacity="0.5"/>
<rect x="506.64402186136476" y="534.0708104494229" width="1.1305609284332687" height="4.929189550577121" fill="#f85149" opacity="0.5"/>
<rect x="508.26223891562836" y="531.0218284906341" width="1.1305609284332687" height="7.978171509365893" fill="#3fb950" opacity="0.5"/>
<rect x="509.8804559698919" y="532.2542104628598" width="1.1305609284332687" height="6.74578953714024" fill="#f85149" opacity="0.5"/>
<rect x="511.4986730241555" y="533.0280824877481" width="1.1305609284332687" height="5.971917512251935" fill="#3fb950" opacity="0.5"/>
<rect x="513.1168900784191" y="531.8692122062808" width="1.1305609284332687" height="7.130787793719151" fill="#3fb950" opacity="0.5"/>
<rect x="514.7351071326827" y="533.0815399432034" width="1.1305609284332687" height="5.918460056796562" fill="#f85149" opacity="0.5"/>
<rect x="516.3533241869462" y="534.7717705651299" width="1.1305609284332687" height="4.228229434870059" fill="#3fb950" opacity="0.5"/>
<rect x="517.9715412412098" y="533.7609079221271" width="1.1305609284332687" height="5.239092077872897" fill="#f85149" opacity="0.5"/>
<rect x="519.5897582954733" y="518.4068840181558" width="1.1305609284332687" height="20.59311598184422" fill="#3fb950" opacity="0.5"/>
<rect x="521.2079753497369" y="524.0465302260809" width="1.1305609284332687" height="14.953469773919096" fill="#f85149" opacity="0.5"/>
<rect x="522.8261924040005" y="529.4725465393773" width="1.1305609284332687" height="9.527453460622723" fill="#f85149" opacity="0.5"/>
<rect x="524.444409458264" y="530.127231199542" width="1.1305609284332687" height="8.872768800457948" fill="#3fb950" opacity="0.5"/>
<rect x="526.0626265125276" y="527.3586240596272" width="1.1305609284332687" height="11.641375940372768" fill="#3fb950" opacity="0.5"/>
<rect x="527.680843566791" y="529.1086905833987" width="1.1305609284332687" height="9.891309416601302" fill="#f85149" opacity="0.5"/>
<rect x="529.2990606210547" y="520.8068100361976" width="1.1305609284332687" height="18.19318996380241" fill="#3fb950" opacity="0.5"/>
<rect x="530.9172776753182" y="526.1729481553583" width="1.1305609284332687" height="12.827051844641687" fill="#3fb950" opacity="0.5"/>
<rect x="532.5354947295818" y="527.887692926881" width="1.1305609284332687" height="11.112307073119041" fill="#3fb950" opacity="0.5"/>
<rect x="534.1537117838454" y="528.7255877903942" width="1.1305609284332687" height="10.27441220960577" fill="#f85149" opacity="0.5"/>
<rect x="535.771928838109" y="530.0784028275425" width="1.1305609284332687" height="8.921597172457496" fill="#f85149" opacity="0.5"/>
<rect x="537.3901458923725" y="522.9910607506419" width="1.1305609284332687" height="16.00893924935815" fill="#3fb950" opacity="0.5"/>
<rect x="539.0083629466361" y="509.3030608992972" width="1.1305609284332687" height="29.69693910070282" fill="#3fb950" opacity="0.5"/>
<rect x="540.6265800008997" y="524.518946647554" width="1.1305609284332687" height="14.481053352445997" fill="#f85149" opacity="0.5"/>
<rect x="542.2447970551632" y="517.5499653133312" width="1.1305609284332687" height="21.4500346866688" fill="#3fb950" opacity="0.5"/>
<rect x="543.8630141094268" y="522.8034829070893" width="1.1305609284332687" height="16.196517092910653" fill="#f85149" opacity="0.5"/>
<rect x="545.4812311636904" y="526.3667391208912" width="1.1305609284332687" height="12.633260879108775" fill="#f85149" opacity="0.5"/>
<rect x="547.099448217954" y="526.2375861545754" width="1.1305609284332687" height="12.76241384542459" fill="#f85149" opacity="0.5"/>
<rect x="548.7176652722176" y="530.7172163444305" width="1.1305609284332687" height="8.28278365556946" fill="#3fb950" opacity="0.5"/>
<rect x="550.3358823264812" y="524.1087614094814" width="1.1305609284332687" height="14.891238590518583" fill="#3fb950" opacity="0.5"/>
<rect x="551.9540993807447" y="529.9324098400173" width="1.1305609284332687" height="9.067590159982728" fill="#f85149" opacity="0.5"/>
<rect x="553.5723164350082" y="518.7968189384865" width="1.1305609284332687" height="20.203181061513533" fill="#3fb950" opacity="0.5"/>
<rect x="555.1905334892717" y="528.9152110429155" width="1.1305609284332687" height="10.08478895708447" fill="#f85149" opacity="0.5"/>
<rect x="556.8087505435353" y="521.6656741863949" width="1.1305609284332687" height="17.33432581360512" fill="#f85149" opacity="0.5"/>
<rect x="558.4269675977989" y="525.4034130126445" width="1.1305609284332687" height="13.596586987355522" fill="#f85149" opacity="0.5"/>
<rect x="560.0451846520625" y="528.404320171159" width="1.1305609284332687" height="10.595679828840957" fill="#f85149" opacity="0.5"/>
<rect x="561.6634017063261" y="527.7603239262824" width="1.1305609284332687" height="11.239676073717646" fill="#3fb950" opacity="0.5"/>
<rect x="563.2816187605897" y="531.9813406032097" width="1.1305609284332687" height="7.018659396790326" fill="#3fb950" opacity="0.5"/>
<rect x="564.8998358148532" y="516.8395009664757" width="1.1305609284332687" height="22.160499033524275" fill="#3fb950" opacity="0.5"/>
<rect x="566.5180528691168" y="525.4276349609593" width="1.1305609284332687" height="13.572365039040733" fill="#3fb950" opacity="0.5"/>
<rect x="568.1362699233803" y="526.3770123027797" width="1.1305609284332687" height="12.62298769722031" fill="#3fb950" opacity="0.5"/>
<rect x="569.7544869776439" y="521.4663044832421" width="1.1305609284332687" height="17.533695516757916" fill="#f85149" opacity="0.5"/>
<rect x="571.3727040319075" y="530.9394738663639" width="1.1305609284332687" height="8.060526133636131" fill="#f85149" opacity="0.5"/>
<rect x="572.990921086171" y="530.962457803987" width="1.1305609284332687" height="8.037542196012964" fill="#3fb950" opacity="0.5"/>
<rect x="574.6091381404347" y="529.0587433880722" width="1.1305609284332687" height="9.94125661192777" fill="#3fb950" opacity="0.5"/>
<rect x="576.227355194698" y="530.1060850541879" width="1.1305609284332687" height="8.893914945812071" fill="#3fb950" opacity="0.5"/>
<rect x="577.8455722489616" y="528.44562820492" width="1.1305609284332687" height="10.554371795079987" fill="#f85149" opacity="0.5"/>
<rect x="579.4637893032252" y="516.9919223821886" width="1.1305609284332687" height="22.00807761781141" fill="#3fb950" opacity="0.5"/>
<rect x="581.0820063574888" y="509.82989211989707" width="1.1305609284332687" height="29.170107880102933" fill="#3fb950" opacity="0.5"/>
<rect x="582.7002234117524" y="520.5772628612476" width="1.1305609284332687" height="18.42273713875238" fill="#f85149" opacity="0.5"/>
<rect x="584.318440466016" y="517.1472158289158" width="1.1305609284332687" height="21.85278417108418" fill="#3fb950" opacity="0.5"/>
<rect x="585.9366575202796" y="514.8557310890038" width="1.1305609284332687" height="24.144268910996175" fill="#f85149" opacity="0.5"/>
<rect x="587.5548745745431" y="518.8715609504292" width="1.1305609284332687" height="20.12843904957083" fill="#3fb950" opacity="0.5"/>
<rect x="589.1730916288067" y="516.2208954750388" width="1.1305609284332687" height="22.779104524961213" fill="#3fb950" opacity="0.5"/>
<rect x="590.7913086830702" y="518.9377522301414" width="1.1305609284332687" height="20.062247769858573" fill="#3fb950" opacity="0.5"/>
<rect x="592.4095257373338" y="499.79164775111394" width="1.1305609284332687" height="39.20835224888606" fill="#3fb950" opacity="0.5"/>
<rect x="594.0277427915973" y="512.3654533589942" width="1.1305609284332687" height="26.63454664100584" fill="#f85149" opacity="0.5"/>
<rect x="595.645959845861" y="521.8699190372402" width="1.1305609284332687" height="17.13008096275985" fill="#f85149" opacity="0.5"/>
<rect x="597.2641769001245" y="519.0655672221694" width="1.1305609284332687" height="19.93443277783058" fill="#3fb950" opacity="0.5"/>
<rect x="598.882393954388" y="523.583233560386" width="1.1305609284332687" height="15.41676643961398" fill="#f85149" opacity="0.5"/>
<rect x="600.5006110086516" y="518.839084315919" width="1.1305609284332687" height="20.160915684081033" fill="#f85149" opacity="0.5"/>
<rect x="602.1188280629152" y="501.4169327935274" width="1.1305609284332687" height="37.583067206472606" fill="#3fb950" opacity="0.5"/>
<rect x="603.7370451171788" y="479.90187563227136" width="1.1305609284332687" height="59.098124367728644" fill="#3fb950" opacity="0.5"/>
<rect x="605.3552621714423" y="507.0910164603502" width="1.1305609284332687" height="31.908983539649796" fill="#f85149" opacity="0.5"/>
<rect x="606.9734792257059" y="515.4005942044602" width="1.1305609284332687" height="23.599405795539838" fill="#f85149" opacity="0.5"/>
<rect x="608.5916962799695" y="508.2024463259038" width="1.1305609284332687" height="30.797553674096207" fill="#3fb950" opacity="0.5"/>
<rect x="610.2099133342331" y="510.0151285084458" width="1.1305609284332687" height="28.984871491554202" fill="#f85149" opacity="0.5"/>
<rect x="611.8281303884966" y="520.2731428435178" width="1.1305609284332687" height="18.726857156482197" fill="#3fb950" opacity="0.5"/>
<rect x="613.4463474427602" y="523.4413583040745" width="1.1305609284332687" height="15.55864169592553" fill="#3fb950" opacity="0.5"/>
<rect x="615.0645644970238" y="526.4655646700155" width="1.1305609284332687" height="12.53443532998449" fill="#f85149" opacity="0.5"/>
<rect x="616.6827815512873" y="515.5639962367424" width="1.1305609284332687" height="23.436003763257645" fill="#3fb950" opacity="0.5"/>
<rect x="618.3009986055508" y="497.1745700440534" width="1.1305609284332687" height="41.82542995594662" fill="#3fb950" opacity="0.5"/>
<rect x="619.9192156598144" y="438.1666666666667" width="1.1305609284332687" height="100.83333333333331" fill="#3fb950" opacity="0.5"/>
<rect x="621.537432714078" y="477.95152435396636" width="1.1305609284332687" height="61.04847564603364" fill="#f85149" opacity="0.5"/>
<rect x="623.1556497683416" y="485.7074998574582" width="1.1305609284332687" height="53.292500142541826" fill="#f85149" opacity="0.5"/>
<rect x="624.7738668226052" y="467.4382875787307" width="1.1305609284332687" height="71.5617124212693" fill="#3fb950" opacity="0.5"/>
<rect x="626.3920838768687" y="479.896869762953" width="1.1305609284332687" height="59.103130237047026" fill="#f85149" opacity="0.5"/>
<rect x="628.0103009311322" y="504.7253625767969" width="1.1305609284332687" height="34.2746374232031" fill="#f85149" opacity="0.5"/>
<rect x="629.6285179853958" y="508.21910179893547" width="1.1305609284332687" height="30.78089820106453" fill="#3fb950" opacity="0.5"/>
<rect x="631.2467350396594" y="504.85817959338954" width="1.1305609284332687" height="34.141820406610464" fill="#f85149" opacity="0.5"/>
<rect x="632.864952093923" y="517.6352919322121" width="1.1305609284332687" height="21.364708067787888" fill="#3fb950" opacity="0.5"/>
<rect x="634.4831691481864" y="512.0836136889602" width="1.1305609284332687" height="26.916386311039787" fill="#3fb950" opacity="0.5"/>
<rect x="636.10138620245" y="516.6535532984924" width="1.1305609284332687" height="22.346446701507602" fill="#f85149" opacity="0.5"/>
<rect x="637.7196032567136" y="521.0055607340046" width="1.1305609284332687" height="17.994439265995425" fill="#f85149" opacity="0.5"/>
<rect x="639.3378203109772" y="515.0322475761592" width="1.1305609284332687" height="23.967752423840807" fill="#f85149" opacity="0.5"/>
<rect x="640.9560373652407" y="508.69219489705984" width="1.1305609284332687" height="30.307805102940165" fill="#f85149" opacity="0.5"/>
<rect x="642.5742544195043" y="492.2194245612424" width="1.1305609284332687" height="46.78057543875758" fill="#3fb950" opacity="0.5"/>
<rect x="644.1924714737679" y="505.9002193441519" width="1.1305609284332687" height="33.09978065584812" fill="#f85149" opacity="0.5"/>
<rect x="645.8106885280315" y="508.80232017731066" width="1.1305609284332687" height="30.197679822689338" fill="#f85149" opacity="0.5"/>
<rect x="647.428905582295" y="517.3513645609186" width="1.1305609284332687" height="21.64863543908143" fill="#3fb950" opacity="0.5"/>
<rect x="649.0471226365586" y="516.957496457552" width="1.1305609284332687" height="22.042503542448003" fill="#f85149" opacity="0.5"/>
<rect x="650.6653396908222" y="517.7833418629671" width="1.1305609284332687" height="21.216658137032937" fill="#f85149" opacity="0.5"/>
<rect x="652.2835567450858" y="520.7420605391231" width="1.1305609284332687" height="18.257939460876855" fill="#3fb950" opacity="0.5"/>
<rect x="653.9017737993493" y="519.2328832137189" width="1.1305609284332687" height="19.76711678628112" fill="#3fb950" opacity="0.5"/>
<rect x="655.5199908536129" y="524.6000248135955" width="1.1305609284332687" height="14.399975186404504" fill="#f85149" opacity="0.5"/>
<rect x="657.1382079078764" y="524.0903450392548" width="1.1305609284332687" height="14.909654960745229" fill="#f85149" opacity="0.5"/>
<rect x="658.75642496214" y="509.84925045478036" width="1.1305609284332687" height="29.15074954521964" fill="#3fb950" opacity="0.5"/>
<rect x="660.3746420164035" y="490.9792684970338" width="1.1305609284332687" height="48.020731502966214" fill="#3fb950" opacity="0.5"/>
<rect x="661.9928590706671" y="506.27867382993213" width="1.1305609284332687" height="32.72132617006787" fill="#f85149" opacity="0.5"/>
<rect x="663.6110761249307" y="505.6987004236804" width="1.1305609284332687" height="33.30129957631959" fill="#3fb950" opacity="0.5"/>
<rect x="665.2292931791943" y="514.5482930488301" width="1.1305609284332687" height="24.451706951169854" fill="#f85149" opacity="0.5"/>
<rect x="666.8475102334579" y="510.6694325379942" width="1.1305609284332687" height="28.330567462005774" fill="#f85149" opacity="0.5"/>
<rect x="668.4657272877214" y="517.4366296637403" width="1.1305609284332687" height="21.56337033625971" fill="#3fb950" opacity="0.5"/>
<rect x="670.083944341985" y="522.3747313533958" width="1.1305609284332687" height="16.62526864660424" fill="#f85149" opacity="0.5"/>
<rect x="671.7021613962486" y="521.8931451943464" width="1.1305609284332687" height="17.106854805653597" fill="#f85149" opacity="0.5"/>
<rect x="673.3203784505122" y="515.5594594273755" width="1.1305609284332687" height="23.440540572624514" fill="#3fb950" opacity="0.5"/>
<rect x="674.9385955047757" y="522.9777809713594" width="1.1305609284332687" height="16.02221902864062" fill="#f85149" opacity="0.5"/>
<rect x="676.5568125590393" y="521.8333285162701" width="1.1305609284332687" height="17.166671483729942" fill="#f85149" opacity="0.5"/>
<rect x="678.1750296133029" y="520.2718202482448" width="1.1305609284332687" height="18.728179751755192" fill="#3fb950" opacity="0.5"/>
<rect x="679.7932466675663" y="520.0506584811161" width="1.1305609284332687" height="18.949341518883898" fill="#3fb950" opacity="0.5"/>
<rect x="681.4114637218299" y="522.9237198895731" width="1.1305609284332687" height="16.076280110426865" fill="#3fb950" opacity="0.5"/>
<rect x="683.0296807760934" y="524.2773384802447" width="1.1305609284332687" height="14.72266151975532" fill="#f85149" opacity="0.5"/>
<rect x="684.647897830357" y="524.2885113344992" width="1.1305609284332687" height="14.711488665500838" fill="#f85149" opacity="0.5"/>
<rect x="686.2661148846206" y="528.2146738501156" width="1.1305609284332687" height="10.78532614988444" fill="#f85149" opacity="0.5"/>
<rect x="687.8843319388842" y="525.0161655751506" width="1.1305609284332687" height="13.98383442484942" fill="#f85149" opacity="0.5"/>
<rect x="689.5025489931477" y="529.0097996734615" width="1.1305609284332687" height="9.990200326538456" fill="#3fb950" opacity="0.5"/>
<rect x="691.1207660474113" y="523.9285001322214" width="1.1305609284332687" height="15.071499867778584" fill="#f85149" opacity="0.5"/>
<rect x="692.7389831016749" y="528.3942584507241" width="1.1305609284332687" height="10.605741549275876" fill="#3fb950" opacity="0.5"/>
<rect x="694.3572001559385" y="521.1863833453049" width="1.1305609284332687" height="17.813616654695124" fill="#3fb950" opacity="0.5"/>
<rect x="695.975417210202" y="529.9620067540058" width="1.1305609284332687" height="9.037993245994244" fill="#f85149" opacity="0.5"/>
<rect x="697.5936342644655" y="528.8543101442956" width="1.1305609284332687" height="10.145689855704404" fill="#3fb950" opacity="0.5"/>
<rect x="699.2118513187291" y="531.0254387143591" width="1.1305609284332687" height="7.9745612856409025" fill="#f85149" opacity="0.5"/>
<rect x="700.8300683729927" y="526.0894670182538" width="1.1305609284332687" height="12.9105329817462" fill="#3fb950" opacity="0.5"/>
<rect x="702.4482854272562" y="515.839453615633" width="1.1305609284332687" height="23.160546384366967" fill="#3fb950" opacity="0.5"/>
<rect x="704.0665024815198" y="522.5091747008038" width="1.1305609284332687" height="16.490825299196217" fill="#f85149" opacity="0.5"/>
<rect x="705.6847195357834" y="503.64055763062106" width="1.1305609284332687" height="35.35944236937894" fill="#3fb950" opacity="0.5"/>
<rect x="707.302936590047" y="506.2143203424889" width="1.1305609284332687" height="32.78567965751108" fill="#f85149" opacity="0.5"/>
<rect x="708.9211536443106" y="511.6475917060185" width="1.1305609284332687" height="27.35240829398151" fill="#3fb950" opacity="0.5"/>
<rect x="710.5393706985741" y="510.17696188121806" width="1.1305609284332687" height="28.823038118781938" fill="#3fb950" opacity="0.5"/>
<rect x="712.1575877528377" y="525.0705688400163" width="1.1305609284332687" height="13.929431159983665" fill="#f85149" opacity="0.5"/>
<rect x="713.7758048071013" y="523.1016781593663" width="1.1305609284332687" height="15.898321840633685" fill="#f85149" opacity="0.5"/>
<rect x="715.3940218613649" y="525.0533289644221" width="1.1305609284332687" height="13.946671035577879" fill="#f85149" opacity="0.5"/>
<rect x="717.0122389156284" y="527.4867043396606" width="1.1305609284332687" height="11.513295660339395" fill="#f85149" opacity="0.5"/>
<rect x="718.630455969892" y="527.2717326259901" width="1.1305609284332687" height="11.728267374009874" fill="#f85149" opacity="0.5"/>
<rect x="720.2486730241556" y="525.6455133084274" width="1.1305609284332687" height="13.35448669157256" fill="#3fb950" opacity="0.5"/>
<rect x="721.8668900784191" y="527.8133046322787" width="1.1305609284332687" height="11.186695367721313" fill="#f85149" opacity="0.5"/>
<rect x="723.4851071326826" y="527.9740384054926" width="1.1305609284332687" height="11.025961594507407" fill="#f85149" opacity="0.5"/>
<rect x="725.1033241869462" y="509.8957873535743" width="1.1305609284332687" height="29.104212646425708" fill="#3fb950" opacity="0.5"/>
<rect x="726.7215412412098" y="523.3957479909224" width="1.1305609284332687" height="15.60425200907764" fill="#f85149" opacity="0.5"/>
<rect x="728.3397582954734" y="516.3259995069565" width="1.1305609284332687" height="22.674000493043536" fill="#3fb950" opacity="0.5"/>
<rect x="729.9579753497369" y="523.5318868747124" width="1.1305609284332687" height="15.468113125287573" fill="#f85149" opacity="0.5"/>
<rect x="731.5761924040005" y="524.6498412872962" width="1.1305609284332687" height="14.350158712703774" fill="#f85149" opacity="0.5"/>
<rect x="733.194409458264" y="524.4170798982525" width="1.1305609284332687" height="14.582920101747504" fill="#3fb950" opacity="0.5"/>
<rect x="734.8126265125276" y="511.1235979136498" width="1.1305609284332687" height="27.876402086350197" fill="#3fb950" opacity="0.5"/>
<rect x="736.4308435667912" y="521.2410403639147" width="1.1305609284332687" height="17.75895963608525" fill="#f85149" opacity="0.5"/>
<rect x="738.0490606210547" y="521.5461177253161" width="1.1305609284332687" height="17.453882274683906" fill="#3fb950" opacity="0.5"/>
<rect x="739.6672776753182" y="520.5854867894136" width="1.1305609284332687" height="18.414513210586392" fill="#f85149" opacity="0.5"/>
<rect x="741.2854947295818" y="499.32311068612495" width="1.1305609284332687" height="39.67688931387505" fill="#3fb950" opacity="0.5"/>
<rect x="742.9037117838454" y="511.7809585223904" width="1.1305609284332687" height="27.219041477609608" fill="#f85149" opacity="0.5"/>
<rect x="744.5219288381089" y="520.0097233884642" width="1.1305609284332687" height="18.99027661153582" fill="#f85149" opacity="0.5"/>
<rect x="746.1401458923725" y="514.0416006481149" width="1.1305609284332687" height="24.958399351885078" fill="#3fb950" opacity="0.5"/>
<rect x="747.7583629466361" y="515.4873933640085" width="1.1305609284332687" height="23.51260663599146" fill="#f85149" opacity="0.5"/>
<rect x="749.3765800008997" y="516.2804545546172" width="1.1305609284332687" height="22.719545445382778" fill="#3fb950" opacity="0.5"/>
<rect x="750.9947970551633" y="510.56244457676326" width="1.1305609284332687" height="28.437555423236745" fill="#3fb950" opacity="0.5"/>
<rect x="752.6130141094268" y="516.0438099643357" width="1.1305609284332687" height="22.95619003566435" fill="#3fb950" opacity="0.5"/>
<rect x="754.2312311636904" y="497.91074041415203" width="1.1305609284332687" height="41.08925958584797" fill="#3fb950" opacity="0.5"/>
<rect x="755.849448217954" y="507.3300178846503" width="1.1305609284332687" height="31.669982115349683" fill="#f85149" opacity="0.5"/>
<rect x="757.4676652722176" y="502.52912392031374" width="1.1305609284332687" height="36.47087607968626" fill="#3fb950" opacity="0.5"/>
<rect x="759.085882326481" y="465.3739624217205" width="1.1305609284332687" height="73.62603757827952" fill="#3fb950" opacity="0.5"/>
<rect x="760.7040993807447" y="489.78381922885757" width="1.1305609284332687" height="49.21618077114243" fill="#f85149" opacity="0.5"/>
<rect x="762.3223164350082" y="483.49648581250295" width="1.1305609284332687" height="55.503514187497046" fill="#3fb950" opacity="0.5"/>
<rect x="763.9405334892718" y="474.5137762799719" width="1.1305609284332687" height="64.48622372002808" fill="#3fb950" opacity="0.5"/>
<rect x="765.5587505435353" y="474.19539222601225" width="1.1305609284332687" height="64.80460777398775" fill="#3fb950" opacity="0.5"/>
<rect x="767.1769675977989" y="489.1520223874734" width="1.1305609284332687" height="49.84797761252662" fill="#f85149" opacity="0.5"/>
<rect x="768.7951846520625" y="494.3104746012266" width="1.1305609284332687" height="44.68952539877341" fill="#f85149" opacity="0.5"/>
<rect x="770.4134017063261" y="505.03098973797745" width="1.1305609284332687" height="33.96901026202255" fill="#3fb950" opacity="0.5"/>
<rect x="772.0316187605896" y="499.7805325681651" width="1.1305609284332687" height="39.219467431834914" fill="#3fb950" opacity="0.5"/>
<rect x="773.6498358148532" y="507.5136164081225" width="1.1305609284332687" height="31.486383591877484" fill="#f85149" opacity="0.5"/>
<rect x="775.2680528691168" y="516.1801910676089" width="1.1305609284332687" height="22.819808932391084" fill="#f85149" opacity="0.5"/>
<rect x="776.8862699233804" y="511.05981344975424" width="1.1305609284332687" height="27.940186550245755" fill="#f85149" opacity="0.5"/>
<rect x="778.5044869776439" y="515.5910133209976" width="1.1305609284332687" height="23.408986679002396" fill="#3fb950" opacity="0.5"/>
<rect x="780.1227040319075" y="499.2616792114943" width="1.1305609284332687" height="39.73832078850569" fill="#3fb950" opacity="0.5"/>
<rect x="781.740921086171" y="510.2799359195854" width="1.1305609284332687" height="28.720064080414602" fill="#f85149" opacity="0.5"/>
<rect x="783.3591381404347" y="511.6981463724298" width="1.1305609284332687" height="27.30185362757021" fill="#3fb950" opacity="0.5"/>
<rect x="784.9773551946981" y="508.0931784257283" width="1.1305609284332687" height="30.906821574271703" fill="#3fb950" opacity="0.5"/>
<rect x="786.5955722489616" y="502.9183590954709" width="1.1305609284332687" height="36.08164090452908" fill="#3fb950" opacity="0.5"/>
<rect x="788.2137893032252" y="489.2336541980478" width="1.1305609284332687" height="49.766345801952184" fill="#3fb950" opacity="0.5"/>
<rect x="789.8320063574888" y="474.5721742439327" width="1.1305609284332687" height="64.4278257560673" fill="#3fb950" opacity="0.5"/>
<rect x="791.4502234117524" y="497.8070012697982" width="1.1305609284332687" height="41.19299873020179" fill="#f85149" opacity="0.5"/>
<rect x="793.068440466016" y="491.41674379687436" width="1.1305609284332687" height="47.58325620312564" fill="#3fb950" opacity="0.5"/>
<rect x="794.6866575202795" y="490.10786660501844" width="1.1305609284332687" height="48.892133394981556" fill="#f85149" opacity="0.5"/>
<rect x="796.3048745745431" y="513.5847516343762" width="1.1305609284332687" height="25.415248365623825" fill="#3fb950" opacity="0.5"/>
<rect x="797.9230916288067" y="508.39423801951233" width="1.1305609284332687" height="30.60576198048767" fill="#f85149" opacity="0.5"/>
<rect x="799.5413086830703" y="511.71024581232604" width="1.1305609284332687" height="27.289754187673964" fill="#f85149" opacity="0.5"/>
<rect x="801.1595257373338" y="509.0654743443589" width="1.1305609284332687" height="29.934525655641096" fill="#f85149" opacity="0.5"/>
<rect x="802.7777427915973" y="505.45699229277494" width="1.1305609284332687" height="33.54300770722506" fill="#3fb950" opacity="0.5"/>
<rect x="804.395959845861" y="511.5653255110834" width="1.1305609284332687" height="27.434674488916585" fill="#3fb950" opacity="0.5"/>
<rect x="806.0141769001245" y="516.4090346526317" width="1.1305609284332687" height="22.590965347368297" fill="#f85149" opacity="0.5"/>
<rect x="807.632393954388" y="516.4125064652235" width="1.1305609284332687" height="22.587493534776513" fill="#3fb950" opacity="0.5"/>
<rect x="809.2506110086516" y="503.2383079641868" width="1.1305609284332687" height="35.76169203581321" fill="#3fb950" opacity="0.5"/>
<rect x="810.8688280629152" y="504.80030836068573" width="1.1305609284332687" height="34.19969163931427" fill="#f85149" opacity="0.5"/>
<rect x="812.4870451171788" y="512.272575643845" width="1.1305609284332687" height="26.727424356154984" fill="#3fb950" opacity="0.5"/>
<rect x="814.1052621714423" y="521.5212037213352" width="1.1305609284332687" height="17.478796278664845" fill="#f85149" opacity="0.5"/>
<rect x="815.7234792257059" y="517.8857468777867" width="1.1305609284332687" height="21.114253122213313" fill="#f85149" opacity="0.5"/>
<rect x="817.3416962799695" y="511.937955195007" width="1.1305609284332687" height="27.06204480499298" fill="#f85149" opacity="0.5"/>
<rect x="818.9599133342331" y="518.8096296578175" width="1.1305609284332687" height="20.19037034218252" fill="#3fb950" opacity="0.5"/>
<rect x="820.5781303884966" y="522.8117068352552" width="1.1305609284332687" height="16.188293164744778" fill="#3fb950" opacity="0.5"/>
<rect x="822.1963474427602" y="526.8000813105035" width="1.1305609284332687" height="12.199918689496485" fill="#f85149" opacity="0.5"/>
<rect x="823.8145644970238" y="527.3258360000672" width="1.1305609284332687" height="11.67416399993283" fill="#f85149" opacity="0.5"/>
<rect x="825.4327815512873" y="527.8211133270449" width="1.1305609284332687" height="11.178886672955059" fill="#f85149" opacity="0.5"/>
<rect x="827.0509986055508" y="503.764427905352" width="1.1305609284332687" height="35.23557209464798" fill="#f85149" opacity="0.5"/>
<rect x="828.6692156598144" y="514.9426071436261" width="1.1305609284332687" height="24.057392856373895" fill="#3fb950" opacity="0.5"/>
<rect x="830.287432714078" y="516.1526357178356" width="1.1305609284332687" height="22.84736428216445" fill="#f85149" opacity="0.5"/>
<rect x="831.9056497683416" y="528.1433690479813" width="1.1305609284332687" height="10.85663095201869" fill="#f85149" opacity="0.5"/>
<rect x="833.5238668226052" y="526.6719933409629" width="1.1305609284332687" height="12.3280066590371" fill="#3fb950" opacity="0.5"/>
<rect x="835.1420838768687" y="518.9768610647856" width="1.1305609284332687" height="20.023138935214433" fill="#3fb950" opacity="0.5"/>
<rect x="836.7603009311322" y="524.8282993750705" width="1.1305609284332687" height="14.171700624929485" fill="#f85149" opacity="0.5"/>
<rect x="838.3785179853958" y="524.6258000424054" width="1.1305609284332687" height="14.374199957594556" fill="#3fb950" opacity="0.5"/>
<rect x="839.9967350396594" y="523.0580671181386" width="1.1305609284332687" height="15.941932881861362" fill="#3fb950" opacity="0.5"/>
<rect x="841.614952093923" y="516.4779710864863" width="1.1305609284332687" height="22.522028913513736" fill="#3fb950" opacity="0.5"/>
<rect x="843.2331691481864" y="520.692751572911" width="1.1305609284332687" height="18.307248427089007" fill="#f85149" opacity="0.5"/>
<rect x="844.85138620245" y="522.0844678280034" width="1.1305609284332687" height="16.915532171996574" fill="#3fb950" opacity="0.5"/>
<rect x="846.4696032567136" y="521.4638592198884" width="1.1305609284332687" height="17.536140780111623" fill="#3fb950" opacity="0.5"/>
<rect x="848.0878203109772" y="521.7042370660134" width="1.1305609284332687" height="17.295762933986566" fill="#f85149" opacity="0.5"/>
<rect x="849.7060373652407" y="523.048566731744" width="1.1305609284332687" height="15.951433268255983" fill="#3fb950" opacity="0.5"/>
<rect x="851.3242544195043" y="517.1791888006912" width="1.1305609284332687" height="21.820811199308764" fill="#3fb950" opacity="0.5"/>
<rect x="852.9424714737679" y="487.4072770028237" width="1.1305609284332687" height="51.59272299717628" fill="#3fb950" opacity="0.5"/>
<rect x="854.5606885280315" y="506.4236364234655" width="1.1305609284332687" height="32.576363576534504" fill="#f85149" opacity="0.5"/>
<rect x="856.178905582295" y="504.13861855927814" width="1.1305609284332687" height="34.86138144072186" fill="#3fb950" opacity="0.5"/>
<rect x="857.7971226365586" y="514.1929032405008" width="1.1305609284332687" height="24.807096759499245" fill="#f85149" opacity="0.5"/>
<rect x="859.4153396908222" y="521.1884172200125" width="1.1305609284332687" height="17.811582779987475" fill="#3fb950" opacity="0.5"/>
<rect x="861.0335567450858" y="518.0983848259608" width="1.1305609284332687" height="20.901615174039193" fill="#f85149" opacity="0.5"/>
<rect x="862.6517737993493" y="509.90782527741135" width="1.1305609284332687" height="29.092174722588652" fill="#3fb950" opacity="0.5"/>
<rect x="864.2699908536129" y="512.3102273168365" width="1.1305609284332687" height="26.689772683163483" fill="#3fb950" opacity="0.5"/>
<rect x="865.8882079078764" y="481.5931674062193" width="1.1305609284332687" height="57.40683259378068" fill="#3fb950" opacity="0.5"/>
<rect x="867.50642496214" y="455.78363570382925" width="1.1305609284332687" height="83.21636429617075" fill="#3fb950" opacity="0.5"/>
<rect x="869.1246420164035" y="473.9665409514821" width="1.1305609284332687" height="65.0334590485179" fill="#f85149" opacity="0.5"/>
<rect x="870.7428590706671" y="458.7243032613603" width="1.1305609284332687" height="80.27569673863968" fill="#3fb950" opacity="0.5"/>
<rect x="872.3610761249307" y="468.16264686546066" width="1.1305609284332687" height="70.83735313453934" fill="#3fb950" opacity="0.5"/>
<rect x="873.9792931791943" y="483.6200523516916" width="1.1305609284332687" height="55.379947648308416" fill="#f85149" opacity="0.5"/>
<rect x="875.5975102334579" y="497.05732043519515" width="1.1305609284332687" height="41.94267956480485" fill="#3fb950" opacity="0.5"/>
<rect x="877.2157272877214" y="502.2753278837731" width="1.1305609284332687" height="36.724672116226884" fill="#f85149" opacity="0.5"/>
<rect x="878.833944341985" y="504.82686791925056" width="1.1305609284332687" height="34.17313208074944" fill="#f85149" opacity="0.5"/>
<rect x="880.4521613962486" y="500.4466938181267" width="1.1305609284332687" height="38.553306181873324" fill="#f85149" opacity="0.5"/>
<rect x="882.0703784505122" y="488.5145468448731" width="1.1305609284332687" height="50.48545315512689" fill="#3fb950" opacity="0.5"/>
<rect x="883.6885955047757" y="489.06920639275904" width="1.1305609284332687" height="49.93079360724096" fill="#3fb950" opacity="0.5"/>
<rect x="885.3068125590393" y="489.84557750755283" width="1.1305609284332687" height="49.15442249244717" fill="#3fb950" opacity="0.5"/>
<rect x="886.9250296133029" y="503.0743445978643" width="1.1305609284332687" height="35.9256554021357" fill="#f85149" opacity="0.5"/>
<rect x="888.5432466675663" y="488.5912227679273" width="1.1305609284332687" height="50.40877723207268" fill="#3fb950" opacity="0.5"/>
<rect x="890.1614637218299" y="479.8956202180002" width="1.1305609284332687" height="59.104379781999796" fill="#f85149" opacity="0.5"/>
<rect x="891.7796807760934" y="502.7108385144726" width="1.1305609284332687" height="36.289161485527416" fill="#f85149" opacity="0.5"/>
<rect x="893.397897830357" y="511.2373564861478" width="1.1305609284332687" height="27.762643513852197" fill="#3fb950" opacity="0.5"/>
<rect x="895.0161148846206" y="501.87257455460406" width="1.1305609284332687" height="37.12742544539594" fill="#f85149" opacity="0.5"/>
<rect x="896.6343319388842" y="507.63273841203306" width="1.1305609284332687" height="31.367261587966937" fill="#3fb950" opacity="0.5"/>
<rect x="898.2525489931477" y="497.18194812640513" width="1.1305609284332687" height="41.81805187359487" fill="#f85149" opacity="0.5"/>
<rect x="899.8707660474113" y="504.0318728175303" width="1.1305609284332687" height="34.968127182469686" fill="#f85149" opacity="0.5"/>
<rect x="901.4889831016749" y="505.9190355687634" width="1.1305609284332687" height="33.08096443123662" fill="#3fb950" opacity="0.5"/>
<rect x="903.1072001559385" y="514.4380216679388" width="1.1305609284332687" height="24.561978332061244" fill="#f85149" opacity="0.5"/>
<rect x="904.725417210202" y="499.1657679856752" width="1.1305609284332687" height="39.83423201432481" fill="#3fb950" opacity="0.5"/>
<rect x="906.3436342644655" y="493.1232607954774" width="1.1305609284332687" height="45.87673920452261" fill="#f85149" opacity="0.5"/>
<rect x="907.9618513187291" y="474.435516318393" width="1.1305609284332687" height="64.56448368160699" fill="#3fb950" opacity="0.5"/>
<rect x="909.5800683729927" y="492.2959466941486" width="1.1305609284332687" height="46.7040533058514" fill="#3fb950" opacity="0.5"/>
<rect x="911.1982854272562" y="487.66197271173036" width="1.1305609284332687" height="51.33802728826964" fill="#3fb950" opacity="0.5"/>
<rect x="912.8165024815198" y="487.83152250518003" width="1.1305609284332687" height="51.16847749481997" fill="#3fb950" opacity="0.5"/>
<rect x="914.4347195357834" y="488.5783582220446" width="1.1305609284332687" height="50.421641777955415" fill="#f85149" opacity="0.5"/>
<polyline points="861.5988372093024,104.62071233327167 863.2170542635658,105.07765241041031 864.8352713178294,105.5345924875489 866.453488372093,105.99153256468753 868.0717054263566,106.44847264182613 869.6899224806201,106.90541271896473 871.3081395348837,107.36235279610335 872.9263565891473,107.81929287324195 874.5445736434109,108.27623295038057 876.1627906976745,108.73317302751917 877.781007751938,109.19011310465777 879.3992248062016,109.64705318179637 881.0174418604652,110.10399325893496 882.6356589147288,110.56093333607356 884.2538759689922,111.01787341321219 885.8720930232558,111.47481349035078 887.4903100775194,111.93175356748942 889.1085271317829,112.388693644628 890.7267441860465,112.8456337217666 892.34496124031,113.30257379890524 893.9631782945736,113.75951387604384 895.5813953488372,114.21645395318248 897.1996124031008,114.67339403032106 898.8178294573643,115.13033410745966 900.4360465116279,115.5872741845983 902.0542635658915,116.04421426173685 903.672480620155,116.50115433887545 905.2906976744185,116.95809441601409 906.9089147286821,117.41503449315267 908.5271317829457,117.87197457029131 910.1453488372093,118.32891464742991" stroke="#f85149" stroke-width="2.8" fill="none"/>
<polyline points="861.5988372093024,201.3628734474656 863.2170542635658,200.5342556626545 864.8352713178294,199.7056378778433 866.453488372093,198.87702009303217 868.0717054263566,198.04840230822106 869.6899224806201,197.21978452340994 871.3081395348837,196.3911667385988 872.9263565891473,195.56254895378763 874.5445736434109,194.73393116897648 876.1627906976745,193.90531338416537 877.781007751938,193.0766955993542 879.3992248062016,192.24807781454305 881.0174418604652,191.41946002973194 882.6356589147288,190.59084224492082 884.2538759689922,189.7622244601097 885.8720930232558,188.9336066752985 887.4903100775194,188.1049888904874 889.1085271317829,187.27637110567628 890.7267441860465,186.4477533208651 892.34496124031,185.61913553605396 893.9631782945736,184.79051775124282 895.5813953488372,183.9618999664317 897.1996124031008,183.1332821816206 898.8178294573643,182.30466439680941 900.4360465116279,181.47604661199827 902.0542635658915,180.64742882718716 903.672480620155,179.818811042376 905.2906976744185,178.99019325756487 906.9089147286821,178.16157547275373 908.5271317829457,177.3329576879426 910.1453488372093,176.50433990313147" stroke="#3fb950" stroke-width="2.8" fill="none"/>
<polygon points="861.5988372093024,104.62071233327167 863.2170542635658,105.07765241041031 864.8352713178294,105.5345924875489 866.453488372093,105.99153256468753 868.0717054263566,106.44847264182613 869.6899224806201,106.90541271896473 871.3081395348837,107.36235279610335 872.9263565891473,107.81929287324195 874.5445736434109,108.27623295038057 876.1627906976745,108.73317302751917 877.781007751938,109.19011310465777 879.3992248062016,109.64705318179637 881.0174418604652,110.10399325893496 882.6356589147288,110.56093333607356 884.2538759689922,111.01787341321219 885.8720930232558,111.47481349035078 887.4903100775194,111.93175356748942 889.1085271317829,112.388693644628 890.7267441860465,112.8456337217666 892.34496124031,113.30257379890524 893.9631782945736,113.75951387604384 895.5813953488372,114.21645395318248 897.1996124031008,114.67339403032106 898.8178294573643,115.13033410745966 900.4360465116279,115.5872741845983 900.4360465116279,181.47604661199827 898.8178294573643,182.30466439680941 897.1996124031008,183.1332821816206 895.5813953488372,183.9618999664317 893.9631782945736,184.79051775124282 892.34496124031,185.61913553605396 890.7267441860465,186.4477533208651 889.1085271317829,187.27637110567628 887.4903100775194,188.1049888904874 885.8720930232558,188.9336066752985 884.2538759689922,189.7622244601097 882.6356589147288,190.59084224492082 881.0174418604652,191.41946002973194 879.3992248062016,192.24807781454305 877.781007751938,193.0766955993542 876.1627906976745,193.90531338416537 874.5445736434109,194.73393116897648 872.9263565891473,195.56254895378763 871.3081395348837,196.3911667385988 869.6899224806201,197.21978452340994 868.0717054263566,198.04840230822106 866.453488372093,198.87702009303217 864.8352713178294,199.7056378778433 863.2170542635658,200.5342556626545 861.5988372093024,201.3628734474656" fill="#FFD700" opacity="0.10"/>
<polygon points="861.0717054263566,97.44847264182613 875.0717054263566,97.44847264182613 868.0717054263566,107.44847264182613" fill="#f85149" stroke="#fff" stroke-width="1.5"/>
<text x="868.0717054263566" y="93.44847264182613" text-anchor="middle" font-size="9" fill="#f85149">¥57.80</text>
<polygon points="883.7267441860465,103.8456337217666 897.7267441860465,103.8456337217666 890.7267441860465,113.8456337217666" fill="#f85149" stroke="#fff" stroke-width="1.5"/>
<text x="890.7267441860465" y="99.8456337217666" text-anchor="middle" font-size="9" fill="#f85149">¥56.88</text>
<polygon points="854.5988372093024,210.3628734474656 868.5988372093024,210.3628734474656 861.5988372093024,200.3628734474656" fill="#3fb950" stroke="#fff" stroke-width="1.5"/>
<text x="861.5988372093024" y="219.3628734474656" text-anchor="middle" font-size="9" fill="#3fb950">¥44.15</text>
<polygon points="893.4360465116279,190.47604661199827 907.4360465116279,190.47604661199827 900.4360465116279,180.47604661199827" fill="#3fb950" stroke="#fff" stroke-width="1.5"/>
<text x="900.4360465116279" y="199.47604661199827" text-anchor="middle" font-size="9" fill="#3fb950">¥47.01</text>
<circle cx="908.5271317829457" cy="98.31295257277128" r="8" fill="#f0883e" stroke="#fff" stroke-width="2.5"/>
<text x="908.5271317829457" y="84.31295257277128" text-anchor="middle" font-size="11" fill="#f0883e" font-weight="bold">★ Break ¥58.97</text>
<polyline points="80.0,283.9001582506114 81.61821705426357,282.43993669975544 83.23643410852713,351.0008152304225 84.8546511627907,345.2294633865631 86.47286821705427,351.76569318563276 88.09108527131784,352.6696398599722 89.70930232558139,353.6431208938762 91.32751937984496,353.7126552534408 92.94573643410853,351.6961588260682 94.56395348837209,344.32551671222365 96.18217054263566,348.42804392653335 97.80038759689923,339.5971802618328 99.4186046511628,342.3090202848511 101.03682170542635,342.5176233635448 102.65503875968992,346.62015057785453 104.27325581395348,348.1499064882751 105.89147286821705,351.2094183091162 107.50968992248062,347.9413034095814 109.12790697674419,347.5936316117585 110.74612403100775,345.7857382630797 112.36434108527132,342.169951565722 113.98255813953489,333.8258284179734 115.60077519379846,340.1534551383494 117.21899224806202,329.51469812497004 118.83720930232559,323.04800268546495 120.45542635658916,321.03150625809235 122.07364341085271,324.71682731501465 123.69186046511628,334.52117201361915 125.31007751937985,331.94840070973004 126.92829457364341,317.76339135855756 128.54651162790697,319.2931472689781 130.16472868217056,327.4982016975975 131.7829457364341,329.65376684409915 133.40116279069767,316.09456672900785 135.01937984496124,322.0049872919964 136.6375968992248,327.28959861890377 138.25581395348837,299.8235265908982 139.87403100775194,311.1576271999233 141.4922480620155,305.8730158730159 143.11046511627907,308.445787176905 144.72868217054264,302.74396969261016 146.3468992248062,311.6443677168753 147.96511627906978,309.9755430873256 149.58333333333331,321.2401093367861 151.2015503875969,329.7928355632283 152.81976744186045,318.8064067520261 154.43798449612405,314.7038795377164 156.05620155038758,309.9755430873256 157.67441860465118,312.75691746990844 159.29263565891472,318.87594111159063 160.91085271317831,318.7368723924615 162.52906976744185,330.69678223756773 164.14728682170542,337.44161511533116 165.765503875969,337.85882127271856 167.38372093023256,335.6337217666523 169.00193798449612,340.1534551383494 170.6201550387597,344.18644799309453 172.23837209302326,344.9513259483048 173.85658914728683,344.1169136335299 175.4748062015504,345.71620390351507 177.09302325581393,343.6997074761425 178.71124031007753,338.9018366661871 180.3294573643411,340.29252385747856 181.94767441860466,348.2194408478397 183.5658914728682,356.8417014338465 185.1841085271318,354.0603270512636 186.80232558139534,352.25243370258477 188.42054263565893,353.0868460173596 190.03875968992247,351.6961588260682 191.65697674418604,352.53057114084305 193.2751937984496,349.0538531626145 194.89341085271317,348.9843188030499 196.51162790697674,348.9843188030499 198.1298449612403,346.34201313959625 199.74806201550388,351.55709010693903 201.36627906976744,353.29544909605335 202.984496124031,357.4675106699276 204.60271317829455,361.9872440416247 206.22093023255815,360.805159929027 207.83914728682169,358.6495947825253 209.45736434108528,361.5005035246727 211.07558139534885,362.0567784011893 212.69379844961242,358.2323886251379 214.31201550387598,354.47753320865104 215.93023255813955,357.2589075912339 217.5484496124031,355.5205486021196 219.16666666666666,357.81518246775045 220.78488372093022,355.72915168081335 222.4031007751938,360.805159929027 224.02131782945736,360.24888505251045 225.63953488372093,359.5535414568647 227.2577519379845,361.43096916510814 228.87596899224806,363.725603030739 230.49418604651163,366.15930561549897 232.1124031007752,366.8546492111447 233.73062015503876,365.4639620198533 235.34883720930233,366.29837433462814 236.9670542635659,365.2553589411596 238.58527131782947,361.43096916510814 240.20348837209303,361.91770968206015 241.8217054263566,357.39797631036305 243.43992248062014,348.70618136479163 245.0581395348837,324.29962115762726 246.67635658914728,297.11168656787993 248.29457364341084,320.61430010070495 249.9127906976744,320.61430010070495 251.53100775193798,332.5046755862466 253.14922480620154,328.05447657411406 254.7674418604651,332.5046755862466 256.38565891472865,334.52117201361915 258.00387596899225,332.921881743634 259.62209302325584,322.28312473025466 261.2403100775194,319.7798877859301 262.8585271317829,323.2566057641586 264.4767441860465,324.0910180789335 266.0949612403101,323.60427756198146 267.71317829457365,321.8659185728672 269.3313953488372,305.45580971562845 270.9496124031008,315.5382918524912 272.5678294573643,319.5017503476718 274.18604651162786,320.26662830288205 275.80426356589146,331.32259147364886 277.42248062015506,326.7333237423872 279.04069767441865,321.79638421330264 280.6589147286822,322.1440560111255 282.27713178294573,319.36268162854265 283.8953488372093,318.8064067520261 285.51356589147287,312.68738311034383 287.1317829457364,314.773413897281 288.75,312.826451829473 290.3682170542636,319.5017503476718 291.98643410852713,319.5017503476718 293.6046511627907,328.8193545293243 295.22286821705427,320.75336881983407 296.84108527131787,321.6573154941735 298.4593023255814,324.29962115762726 300.07751937984494,332.9914161031986 301.69573643410854,330.6272478780032 303.3139534883721,331.39212583321347 304.9321705426356,326.17704886587063 306.5503875968992,327.7068047762912 308.1686046511628,325.2035678319666 309.78682170542635,321.5877811346089 311.4050387596899,320.89243753896324 313.0232558139535,323.2566057641586 314.6414728682171,320.8229031793987 316.2596899224806,320.9619718985278 317.87790697674416,315.0515513355393 319.49612403100775,313.66086414424785 321.11434108527135,314.286673380329 322.7325581395349,314.4257420994581 324.3507751937984,317.69385699899294 325.968992248062,316.4422385268307 327.5872093023256,310.7404210425359 329.2054263565891,304.4127943221599 330.8236434108527,307.959046659953 332.4418604651163,305.31674099649933 334.06007751937983,315.9554980098787 335.67829457364337,307.7504435812593 337.29651162790697,312.68738311034383 338.91472868217056,304.3432599625953 340.5329457364341,306.9160312664844 342.1511627906977,310.879489761665 343.76937984496124,326.0379801467415 345.38759689922483,327.7068047762912 347.00581395348837,336.6072028005563 348.62403100775197,337.65021819402483 350.2422480620155,328.6107514506306 351.8604651162791,325.3426365510958 353.47868217054264,310.879489761665 355.0968992248062,317.8329257181221 356.7151162790698,320.9619718985278 358.3333333333333,310.7404210425359 359.9515503875969,314.1476046611998 361.56976744186045,317.0680477629118 363.18798449612405,305.52534407519306 364.8062015503876,304.8300004795473 366.4244186046512,306.012084592145 368.0426356589147,303.2307102095622 369.6608527131783,309.0715964129862 371.27906976744185,294.88658706181366 372.89728682170545,293.8435716683451 374.515503875969,280.21483719368916 376.1337209302326,259.70220112214076 377.7519379844961,259.70220112214076 379.3701550387597,261.44056011125497 380.98837209302326,240.64978660144823 382.6065891472868,244.8913825348871 384.2248062015504,249.27204718745506 385.84302325581393,237.86841221886542 387.4612403100775,237.72934349973625 389.07945736434107,238.3551527358174 390.69767441860466,221.94504387857864 392.3158914728682,237.52074042104252 393.9341085271318,245.79532920922648 395.55232558139534,250.7322687383111 397.17054263565893,258.033376492591 398.7887596899225,252.2620246487316 400.40697674418607,244.47417637749965 402.0251937984496,264.56960629166065 403.6434108527132,259.3545293243178 405.26162790697674,256.22548314391213 406.8798449612403,243.91790150098308 408.4980620155039,246.35160408574305 410.1162790697674,246.56020716443678 411.734496124031,249.20251282789042 413.35271317829455,255.73874262696015 414.97093023255815,260.953819594303 416.5891472868217,267.76818683163094 418.2073643410853,259.56313240301154 419.8255813953488,264.9868124490481 421.4437984496124,256.0168800652184 423.06201550387595,263.1789191003693 424.68023255813955,264.43053757253153 426.2984496124031,273.53953867549035 427.9166666666667,274.721622788088 429.5348837209302,280.91018078933485 431.1531007751938,280.562508991512 432.77131782945736,280.91018078933485 434.3895348837209,284.1782956888697 436.0077519379845,294.8170527022491 437.62596899224803,295.16472450007194 439.24418604651163,292.6614875557474 440.86240310077517,301.35328250131874 442.48062015503876,342.72622644223856 444.0988372093023,341.05740181268885 445.7170542635659,338.4150961492351 447.33527131782944,331.32259147364886 448.95348837209303,326.1075145063061 450.5717054263566,323.60427756198146 452.18992248062017,324.36915551719176 453.8081395348837,328.4021483719369 455.4263565891473,327.9154078549849 457.0445736434109,326.3161175849998 458.6627906976744,320.26662830288205 460.281007751938,322.3526590898192 461.8992248062015,316.23363544813697 463.5174418604651,319.98849086462377 465.13565891472865,320.89243753896324 466.75387596899225,322.4221934493838 468.3720930232558,319.98849086462377 469.9903100775194,318.52826931376785 471.6085271317829,312.40924567208555 473.2267441860465,314.286673380329 474.84496124031006,309.41926821080904 476.46317829457365,306.35975638996786 478.08139534883725,304.27372560303075 479.6996124031008,276.3209130580732 481.3178294573644,280.00623411499544 482.9360465116279,288.7675634201314 484.55426356589146,283.0657459358366 486.172480620155,286.75106699275887 487.7906976744186,278.0592720471875 489.40891472868213,281.1187838680286 491.02713178294573,286.890135711888 492.64534883720927,287.93315110535656 494.26356589147287,287.93315110535656 495.8817829457364,293.7740373087805 497.5,295.02565578094277 499.1182170542636,293.8435716683451 500.73643410852713,300.2407327482856 502.35465116279073,300.51887018654395 503.97286821705427,297.7374958039611 505.59108527131787,294.8170527022491 507.2093023255814,297.8765645230902 508.827519379845,296.34680861266963 510.44573643410854,300.7274732652377 512.0639534883721,298.4328393996068 513.6821705426357,296.13820553397596 515.3003875968993,303.02210713086845 516.9186046511628,300.0321296695919 518.5368217054264,301.9790917373999 520.1550387596899,289.88011317316455 521.7732558139535,293.6349685896514 523.3914728682171,298.15470196134845 525.0096899224806,293.49589987052224 526.6279069767442,289.4629070157771 528.2461240310076,290.5059224092457 529.8643410852712,287.0987387905817 531.4825581395348,286.890135711888 533.1007751937984,283.96969261017597 534.718992248062,285.36037980146745 536.3372093023256,291.1317316453268 537.9554263565891,282.9266772167074 539.5736434108527,279.17182180022064 541.1918604651163,284.7345705653863 542.8100775193798,277.9897376876229 544.4282945736434,279.24135615978514 546.046511627907,284.2478300484343 547.6647286821706,288.0722198244857 549.2829457364342,285.2213110823383 550.9011627906978,283.83062389104686 552.5193798449612,286.40339519493597 554.1375968992248,278.2678751258811 555.7558139534883,281.6055243849806 557.3740310077519,287.44641058840455 558.9922480620155,291.06219728576224 560.6104651162791,293.49589987052224 562.2286821705427,291.8966096005371 563.8468992248063,291.68800652184336 565.4651162790698,280.21483719368916 567.0833333333334,278.6155469237041 568.7015503875969,276.80765357502514 570.3197674418604,281.39692130628686 571.937984496124,284.31736440799887 573.5562015503876,280.91018078933485 575.1744186046512,278.8936843619623 576.7926356589146,278.1983407663166 578.4108527131782,279.9366997554309 580.0290697674418,276.9467222941543 581.6472868217054,263.9437970555796 583.265503875969,270.7581642929075 584.8837209302326,268.74166786553496 586.5019379844962,277.2248597324126 588.1201550387597,271.1753704502949 589.7383720930233,263.45705653862757 591.3565891472867,260.6061477964801 592.9748062015503,251.84481849134417 594.5930232558139,260.8147508751738 596.2112403100775,263.1789191003693 597.8294573643411,261.5796288303841 599.4476744186046,266.0298278425166 601.0658914728682,271.80117968637603 602.6841085271318,256.43408622260586 604.3023255813954,233.3486788471683 605.9205426356589,237.10353426365512 607.5387596899225,248.2290317939865 609.1569767441861,244.26557329880598 610.7751937984497,265.33448424687094 612.3934108527131,255.0433990313144 614.0116279069767,254.55665851436245 615.6298449612403,263.8047283364504 617.2480620155039,251.70574977221503 618.8662790697674,200.38939241356158 620.484496124031,179.8072219824486 622.1027131782946,187.7341389728097 623.7209302325582,191.9757349062485 625.3391472868218,171.88030499208747 626.9573643410853,189.26389488323025 628.5755813953488,201.50194216659472 630.1937984496124,200.66752985181986 631.812015503876,210.05466839303696 633.4302325581396,206.92562221263125 635.048449612403,206.71701913393755 636.6666666666666,211.6539586630221 638.2848837209302,215.06114228168607 639.9031007751938,219.3722725746895 641.5213178294573,226.39524289071116 643.1395348837209,219.3722725746895 644.7577519379845,232.65333525152258 646.3759689922481,242.31861123099793 647.9941860465116,233.90495372368486 649.6124031007752,235.2261065554117 651.2306201550388,247.39461947921163 652.8488372093024,246.2820697261785 654.4670542635658,238.1465496571237 656.0852713178294,242.11000815230423 657.703488372093,246.97741332182417 659.3217054263566,231.26264806023113 660.9399224806201,215.54788279863808 662.5581395348837,225.35222749724258 664.1763565891473,224.17014338464492 665.7945736434109,230.5673044645854 667.4127906976745,235.64331271279912 669.031007751938,232.58380089195802 670.6492248062016,235.78238143192826 672.2674418604652,239.18956505059225 673.8856589147288,232.58380089195802 675.5038759689922,240.64978660144823 677.1220930232558,241.41466455665852 678.7403100775194,240.4411835227545 680.3585271317829,240.0935117249317 681.9767441860465,239.25909941015678 683.59496124031,249.68925334484243 685.2131782945736,250.80180309787565 686.8313953488372,252.60969644655444 688.4496124031008,261.85776626864237 690.0678294573643,261.44056011125497 691.6860465116279,272.35745456289266 693.3042635658915,269.29794274205153 694.922480620155,260.0498729199636 696.5406976744185,262.5531098642881 698.1589147286821,259.2154606051887 699.7771317829457,260.8147508751738 701.3953488372093,254.6957272334916 703.0135658914728,251.21900925526305 704.6317829457364,256.8512923799933 706.25,241.34513019709397 707.8682170542636,249.82832206397163 709.4864341085272,243.91790150098308 711.1046511627907,242.11000815230423 712.7228682170543,244.05697022011225 714.3410852713179,251.70574977221503 715.9593023255815,252.33155900829615 717.577519379845,256.7122236608642 719.1957364341085,261.5100944708195 720.8139534883721,253.30504004220018 722.4321705426357,261.0233539538675 724.0503875968992,263.3179878194984 725.6686046511628,245.65626049009734 727.2868217054264,247.32508511964707 728.90503875969,238.77235889320482 730.5232558139535,240.23258044406077 732.1414728682171,243.15302354577278 733.7596899224806,242.24907687143335 735.3779069767442,234.80890039802424 736.9961240310078,242.8748861075145 738.6143410852712,238.00748093799453 740.2325581395348,239.39816812928592 741.8507751937984,229.80242650937512 743.468992248062,235.4347096341054 745.0872093023255,236.19958758931568 746.7054263565891,233.90495372368486 748.3236434108527,243.22255790533734 749.9418604651163,240.23258044406077 751.5600775193799,234.25262552150767 753.1782945736434,232.02752601544142 754.796511627907,220.90202848511004 756.4147286821706,227.71639572243802 758.0329457364342,218.39879154078548 759.6511627906976,195.93919340142904 761.2693798449612,199.27684266052842 762.8875968992248,188.56855128758448 764.5058139534884,174.45307629597656 766.1240310077519,159.64225770872298 767.7422480620155,189.7506354001822 769.3604651162791,195.93919340142904 770.9786821705427,193.01875029971706 772.5968992248062,186.2043830623891 774.2151162790698,193.15781901884623 775.8333333333334,193.4359564571045 777.451550387597,201.29333908790105 779.0697674418604,194.0617656931856 780.687984496124,178.20793171246345 782.3062015503876,188.08181077063253 783.9244186046512,182.37999328633765 785.5426356589147,179.39001582506114 787.1608527131782,176.46957272334916 788.7790697674418,154.35764638181558 790.3972868217054,126.26576511772885 792.015503875969,141.49378986236994 793.6337209302326,133.70594159113793 795.2519379844961,170.42008344123147 796.8701550387597,167.0824341821321 798.4883720930233,170.76775523905434 800.1065891472869,172.08890807078117 801.7248062015503,181.54558097156286 803.3430232558139,158.32110487699612 804.9612403100775,157.83436436004413 806.5794573643411,166.3175562269218 808.1976744186046,163.39711312520978 809.8158914728682,155.81786793267153 811.4341085271318,185.71764254543712 813.0523255813954,168.5426557329881 814.6705426356589,178.5556035102863 816.2887596899225,191.69759746799022 817.9069767441861,214.22672996691125 819.5251937984497,202.3363544813696 821.1434108527131,193.7140938953628 822.7616279069767,199.4159113796576 824.3798449612403,199.97218625617415 825.9980620155039,200.31985805399702 827.6162790697674,231.61031985805403 829.234496124031,227.92499880113175 830.8527131782946,241.2060614779648 832.4709302325582,245.09998561358077 834.0891472868218,244.33510765837053 835.7073643410853,222.29271567640149 837.3255813953488,225.28269313767802 838.9437984496124,223.19666235074092 840.562015503876,215.6869515177672 842.1802325581396,204.4223852683067 843.798449612403,214.01812688821755 845.4166666666666,208.45537812305184 847.0348837209302,201.91914832398217 848.6531007751938,204.97866014482327 850.2713178294573,201.71054524528844 851.8895348837209,193.15781901884623 853.5077519379845,177.86025991464055 855.1259689922481,183.28393996067712 856.7441860465116,177.02584759986573 858.3624031007752,192.9492159401525 859.9806201550388,189.88970411931138 861.5988372093024,191.4889943892965 863.2170542635658,185.30043638804966 864.8352713178294,178.69467222941546 866.453488372093,156.235074090059 868.0717054263566,126.05716203903518 869.6899224806201,150.6027909653287 871.3081395348837,146.36119503188988 872.9263565891473,140.03356831151393 874.5445736434109,148.86443197621446 876.1627906976745,143.30168321104878 877.781007751938,145.45724835755047 879.3992248062016,155.9569366518007 881.0174418604652,175.21795425118688 882.6356589147288,146.70886682971275 884.2538759689922,130.92456720855512 885.8720930232558,124.94461228600201 887.4903100775194,139.89449959238476 889.1085271317829,120.77255071212772 890.7267441860465,137.80846880544766 892.34496124031,153.24509662878245 893.9631782945736,153.24509662878245 895.5813953488372,162.14549465304754 897.1996124031008,150.32465352707044 898.8178294573643,155.4701961348487 900.4360465116279,160.26806694480408 902.0542635658915,148.7253632570853 903.672480620155,165.41360955258236 905.2906976744185,141.49378986236994 906.9089147286821,145.04004220016304 908.5271317829457,98.31295257277128 910.1453488372093,94.07135663933246 911.7635658914728,91.0118448184913 913.3817829457364,75.29707955689827 915.0,93.09787560542848" stroke="#58a6ff" stroke-width="1.8" fill="none"/>
<line x1="80" y1="98.31295257277128" x2="915" y2="98.31295257277128" stroke="#3fb950" stroke-width="1" stroke-dasharray="3,3"/>
<text x="920" y="103.31295257277128" font-size="11" fill="#3fb950">Break ¥58.97</text>
<line x1="915.0" y1="93.09787560542848" x2="915" y2="93.09787560542848" stroke="#88ccff" stroke-width="1.5"/>
<text x="920" y="98.09787560542848" font-size="11" fill="#88ccff" font-weight="bold">● Now ¥59.72</text>
<text x="80" y="623" font-size="13" fill="#58a6ff" font-weight="bold">上榜理由 (综合得分: 83):</text>
<text x="90" y="641" font-size="11" fill="#c9d1d9">1. 形态于14天前收敛完成（2026-06-08），突破信号有效</text>
<text x="90" y="657" font-size="11" fill="#c9d1d9">2. 突破后日线胜率75%，表现优秀</text>
<text x="90" y="673" font-size="11" fill="#c9d1d9">3. 量度目标涨幅23.1%（目标¥72.62 / 突破¥58.97）</text>
<text x="90" y="689" font-size="11" fill="#c9d1d9">4. 三角收敛对称度71%，形态标准</text>
<text x="90" y="705" font-size="11" fill="#c9d1d9">5. 当前价格¥59.72，相比突破价已涨1.3%</text>
<text x="90" y="721" font-size="11" fill="#c9d1d9">6. 三角持续24个交易日，整理充分</text>
</svg>