<svg xmlns="http://www.w3.org/2000/svg" viewBox="0 0 1000 720" width="1000" height="720">
<rect width="1000" height="720" fill="#0d1117"/>
<text x="500.0" y="24" text-anchor="middle" font-size="17" fill="#58a6ff" font-weight="bold">韩建河山 (603616.SH)  三角收敛上涨中继  评分:95/100</text>
<line x1="80" y1="374.0" x2="915" y2="374.0" stroke="#21262d" stroke-width="0.5"/>
<text x="72" y="378.0" text-anchor="end" font-size="10" fill="#8b949e">2.53</text>
<line x1="80" y1="310.2" x2="915" y2="310.2" stroke="#21262d" stroke-width="0.5"/>
<text x="72" y="314.2" text-anchor="end" font-size="10" fill="#8b949e">3.93</text>
<line x1="80" y1="246.40000000000003" x2="915" y2="246.40000000000003" stroke="#21262d" stroke-width="0.5"/>
<text x="72" y="250.40000000000003" text-anchor="end" font-size="10" fill="#8b949e">5.33</text>
<line x1="80" y1="182.60000000000002" x2="915" y2="182.60000000000002" stroke="#21262d" stroke-width="0.5"/>
<text x="72" y="186.60000000000002" text-anchor="end" font-size="10" fill="#8b949e">6.74</text>
<line x1="80" y1="118.80000000000001" x2="915" y2="118.80000000000001" stroke="#21262d" stroke-width="0.5"/>
<text x="72" y="122.80000000000001" text-anchor="end" font-size="10" fill="#8b949e">8.14</text>
<line x1="80" y1="55.0" x2="915" y2="55.0" stroke="#21262d" stroke-width="0.5"/>
<text x="72" y="59.0" text-anchor="end" font-size="10" fill="#8b949e">9.54</text>
<text x="80.0" y="554.0" text-anchor="middle" font-size="9" fill="#8b949e">2024-05-06</text>
<text x="183.96245059288538" y="554.0" text-anchor="middle" font-size="9" fill="#8b949e">2024-08-02</text>
<text x="287.92490118577075" y="554.0" text-anchor="middle" font-size="9" fill="#8b949e">2024-11-08</text>
<text x="391.8873517786561" y="554.0" text-anchor="middle" font-size="9" fill="#8b949e">2025-02-14</text>
<text x="495.8498023715415" y="554.0" text-anchor="middle" font-size="9" fill="#8b949e">2025-05-20</text>
<text x="599.8122529644269" y="554.0" text-anchor="middle" font-size="9" fill="#8b949e">2025-08-18</text>
<text x="703.7747035573123" y="554.0" text-anchor="middle" font-size="9" fill="#8b949e">2025-11-21</text>
<text x="807.7371541501976" y="554.0" text-anchor="middle" font-size="9" fill="#8b949e">2026-03-16</text>
<text x="911.699604743083" y="554.0" text-anchor="middle" font-size="9" fill="#8b949e">2026-06-17</text>
<rect x="880.3458498023715" y="55" width="29.703557312252997" height="484.0" fill="#FFD700" opacity="0.06" rx="2"/>
<rect x="79.42357001972387" y="527.1585376645198" width="1.1528599605522682" height="11.841462335480173" fill="#3fb950" opacity="0.5"/>
<rect x="81.07376764818237" y="530.0765971309913" width="1.1528599605522682" height="8.923402869008669" fill="#3fb950" opacity="0.5"/>
<rect x="82.72396527664087" y="532.4044962219463" width="1.1528599605522682" height="6.5955037780537396" fill="#f85149" opacity="0.5"/>
<rect x="84.37416290509937" y="533.6394097963727" width="1.1528599605522682" height="5.360590203627339" fill="#3fb950" opacity="0.5"/>
<rect x="86.02436053355785" y="532.9220654101524" width="1.1528599605522682" height="6.077934589847587" fill="#f85149" opacity="0.5"/>
<rect x="87.67455816201635" y="532.7396908444122" width="1.1528599605522682" height="6.260309155587834" fill="#f85149" opacity="0.5"/>
<rect x="89.32475579047485" y="533.922468936644" width="1.1528599605522682" height="5.077531063355991" fill="#3fb950" opacity="0.5"/>
<rect x="90.97495341893335" y="534.5334170904111" width="1.1528599605522682" height="4.466582909588851" fill="#3fb950" opacity="0.5"/>
<rect x="92.62515104739185" y="531.2585782476991" width="1.1528599605522682" height="7.74142175230088" fill="#3fb950" opacity="0.5"/>
<rect x="94.27534867585035" y="531.3016149259947" width="1.1528599605522682" height="7.698385074005273" fill="#3fb950" opacity="0.5"/>
<rect x="95.92554630430885" y="528.406402091211" width="1.1528599605522682" height="10.593597908788979" fill="#f85149" opacity="0.5"/>
<rect x="97.57574393276734" y="531.7823890825507" width="1.1528599605522682" height="7.217610917449292" fill="#f85149" opacity="0.5"/>
<rect x="99.22594156122584" y="534.1730513243126" width="1.1528599605522682" height="4.82694867568739" fill="#f85149" opacity="0.5"/>
<rect x="100.87613918968434" y="531.9603151965745" width="1.1528599605522682" height="7.03968480342553" fill="#f85149" opacity="0.5"/>
<rect x="102.52633681814284" y="518.5085511960884" width="1.1528599605522682" height="20.491448803911567" fill="#3fb950" opacity="0.5"/>
<rect x="104.17653444660134" y="522.8633709072164" width="1.1528599605522682" height="16.13662909278355" fill="#f85149" opacity="0.5"/>
<rect x="105.82673207505984" y="530.5490594969783" width="1.1528599605522682" height="8.450940503021684" fill="#f85149" opacity="0.5"/>
<rect x="107.47692970351834" y="532.1673960035586" width="1.1528599605522682" height="6.832603996441435" fill="#f85149" opacity="0.5"/>
<rect x="109.12712733197684" y="534.4614236347438" width="1.1528599605522682" height="4.538576365256176" fill="#f85149" opacity="0.5"/>
<rect x="110.77732496043534" y="534.1665426908667" width="1.1528599605522682" height="4.833457309133337" fill="#3fb950" opacity="0.5"/>
<rect x="112.42752258889384" y="531.8821983122979" width="1.1528599605522682" height="7.117801687702126" fill="#f85149" opacity="0.5"/>
<rect x="114.07772021735234" y="532.3281858155241" width="1.1528599605522682" height="6.67181418447592" fill="#f85149" opacity="0.5"/>
<rect x="115.72791784581082" y="533.7479977115166" width="1.1528599605522682" height="5.252002288483368" fill="#f85149" opacity="0.5"/>
<rect x="117.37811547426932" y="529.2857981673097" width="1.1528599605522682" height="9.714201832690264" fill="#f85149" opacity="0.5"/>
<rect x="119.02831310272782" y="532.4067543192643" width="1.1528599605522682" height="6.593245680735663" fill="#3fb950" opacity="0.5"/>
<rect x="120.67851073118632" y="534.3240781861092" width="1.1528599605522682" height="4.675921813890795" fill="#f85149" opacity="0.5"/>
<rect x="122.32870835964482" y="534.3239320739298" width="1.1528599605522682" height="4.676067926070232" fill="#3fb950" opacity="0.5"/>
<rect x="123.9789059881033" y="534.2114389787182" width="1.1528599605522682" height="4.788561021281794" fill="#f85149" opacity="0.5"/>
<rect x="125.6291036165618" y="535.1584119377887" width="1.1528599605522682" height="3.841588062211258" fill="#3fb950" opacity="0.5"/>
<rect x="127.2793012450203" y="535.6942783557332" width="1.1528599605522682" height="3.3057216442667823" fill="#f85149" opacity="0.5"/>
<rect x="128.9294988734788" y="534.3042866272633" width="1.1528599605522682" height="4.695713372736691" fill="#3fb950" opacity="0.5"/>
<rect x="130.5796965019373" y="534.5818997681207" width="1.1528599605522682" height="4.4181002318792935" fill="#3fb950" opacity="0.5"/>
<rect x="132.2298941303958" y="533.389823628109" width="1.1528599605522682" height="5.610176371891043" fill="#f85149" opacity="0.5"/>
<rect x="133.8800917588543" y="516.8166379091332" width="1.1528599605522682" height="22.183362090866808" fill="#3fb950" opacity="0.5"/>
<rect x="135.5302893873128" y="504.97512244195144" width="1.1528599605522682" height="34.02487755804856" fill="#3fb950" opacity="0.5"/>
<rect x="137.1804870157713" y="518.5254191830537" width="1.1528599605522682" height="20.474580816946286" fill="#f85149" opacity="0.5"/>
<rect x="138.8306846442298" y="522.8888077093573" width="1.1528599605522682" height="16.111192290642748" fill="#f85149" opacity="0.5"/>
<rect x="140.4808822726883" y="527.034940043674" width="1.1528599605522682" height="11.965059956325945" fill="#f85149" opacity="0.5"/>
<rect x="142.1310799011468" y="525.0199866751401" width="1.1528599605522682" height="13.980013324859897" fill="#f85149" opacity="0.5"/>
<rect x="143.7812775296053" y="524.8956584933973" width="1.1528599605522682" height="14.104341506602736" fill="#3fb950" opacity="0.5"/>
<rect x="145.4314751580638" y="526.083152024146" width="1.1528599605522682" height="12.916847975854012" fill="#3fb950" opacity="0.5"/>
<rect x="147.0816727865223" y="531.2125529111886" width="1.1528599605522682" height="7.787447088811405" fill="#f85149" opacity="0.5"/>
<rect x="148.7318704149808" y="530.9786405948968" width="1.1528599605522682" height="8.021359405103226" fill="#f85149" opacity="0.5"/>
<rect x="150.38206804343926" y="532.8379844923712" width="1.1528599605522682" height="6.16201550762878" fill="#3fb950" opacity="0.5"/>
<rect x="152.03226567189776" y="523.6271391177092" width="1.1528599605522682" height="15.372860882290752" fill="#3fb950" opacity="0.5"/>
<rect x="153.68246330035626" y="526.8931448150304" width="1.1528599605522682" height="12.106855184969618" fill="#f85149" opacity="0.5"/>
<rect x="155.33266092881476" y="530.0235318440189" width="1.1528599605522682" height="8.976468155981138" fill="#f85149" opacity="0.5"/>
<rect x="156.98285855727326" y="531.6886793721471" width="1.1528599605522682" height="7.311320627852865" fill="#3fb950" opacity="0.5"/>
<rect x="158.63305618573176" y="531.2213196419525" width="1.1528599605522682" height="7.778680358047495" fill="#3fb950" opacity="0.5"/>
<rect x="160.28325381419026" y="534.3119907239952" width="1.1528599605522682" height="4.688009276004777" fill="#f85149" opacity="0.5"/>
<rect x="161.93345144264876" y="534.983243359078" width="1.1528599605522682" height="4.01675664092204" fill="#f85149" opacity="0.5"/>
<rect x="163.58364907110726" y="534.8404519110293" width="1.1528599605522682" height="4.159548088970723" fill="#f85149" opacity="0.5"/>
<rect x="165.23384669956576" y="531.6690870571823" width="1.1528599605522682" height="7.33091294281769" fill="#f85149" opacity="0.5"/>
<rect x="166.88404432802426" y="534.234219195779" width="1.1528599605522682" height="4.765780804220981" fill="#3fb950" opacity="0.5"/>
<rect x="168.53424195648273" y="534.0786880939794" width="1.1528599605522682" height="4.921311906020605" fill="#3fb950" opacity="0.5"/>
<rect x="170.18443958494123" y="534.0801372611405" width="1.1528599605522682" height="4.919862738859479" fill="#f85149" opacity="0.5"/>
<rect x="171.83463721339973" y="531.8918417161382" width="1.1528599605522682" height="7.108158283861826" fill="#3fb950" opacity="0.5"/>
<rect x="173.48483484185823" y="528.520768078904" width="1.1528599605522682" height="10.479231921096016" fill="#3fb950" opacity="0.5"/>
<rect x="175.13503247031673" y="531.8711323071473" width="1.1528599605522682" height="7.128867692852737" fill="#f85149" opacity="0.5"/>
<rect x="176.78523009877523" y="532.9217997516444" width="1.1528599605522682" height="6.0782002483556425" fill="#3fb950" opacity="0.5"/>
<rect x="178.43542772723373" y="533.493297616974" width="1.1528599605522682" height="5.506702383025981" fill="#3fb950" opacity="0.5"/>
<rect x="180.08562535569223" y="532.023345334182" width="1.1528599605522682" height="6.976654665818046" fill="#3fb950" opacity="0.5"/>
<rect x="181.73582298415073" y="533.0248088381204" width="1.1528599605522682" height="5.975191161879593" fill="#3fb950" opacity="0.5"/>
<rect x="183.38602061260923" y="534.2560696080618" width="1.1528599605522682" height="4.743930391938193" fill="#f85149" opacity="0.5"/>
<rect x="185.03621824106773" y="533.492434226823" width="1.1528599605522682" height="5.507565773177021" fill="#f85149" opacity="0.5"/>
<rect x="186.68641586952623" y="534.046532124025" width="1.1528599605522682" height="4.9534678759749795" fill="#3fb950" opacity="0.5"/>
<rect x="188.33661349798473" y="529.3552678671512" width="1.1528599605522682" height="9.644732132848844" fill="#3fb950" opacity="0.5"/>
<rect x="189.98681112644323" y="533.1442887520923" width="1.1528599605522682" height="5.8557112479077205" fill="#3fb950" opacity="0.5"/>
<rect x="191.63700875490173" y="534.6959336826786" width="1.1528599605522682" height="4.304066317321372" fill="#f85149" opacity="0.5"/>
<rect x="193.28720638336023" y="534.2560696080618" width="1.1528599605522682" height="4.743930391938193" fill="#f85149" opacity="0.5"/>
<rect x="194.93740401181873" y="533.8031882665531" width="1.1528599605522682" height="5.196811733446907" fill="#3fb950" opacity="0.5"/>
<rect x="196.58760164027723" y="525.2312516036251" width="1.1528599605522682" height="13.768748396374917" fill="#3fb950" opacity="0.5"/>
<rect x="198.23779926873573" y="530.9532702073831" width="1.1528599605522682" height="8.04672979261693" fill="#f85149" opacity="0.5"/>
<rect x="199.88799689719423" y="532.9253197268754" width="1.1528599605522682" height="6.0746802731246134" fill="#f85149" opacity="0.5"/>
<rect x="201.5381945256527" y="534.8412488865533" width="1.1528599605522682" height="4.1587511134466695" fill="#f85149" opacity="0.5"/>
<rect x="203.18839215411123" y="534.3899614960926" width="1.1528599605522682" height="4.61003850390739" fill="#f85149" opacity="0.5"/>
<rect x="204.8385897825697" y="535.9130481370692" width="1.1528599605522682" height="3.086951862930846" fill="#f85149" opacity="0.5"/>
<rect x="206.48878741102823" y="535.8329507686153" width="1.1528599605522682" height="3.1670492313846808" fill="#f85149" opacity="0.5"/>
<rect x="208.1389850394867" y="535.4392461880557" width="1.1528599605522682" height="3.5607538119443234" fill="#f85149" opacity="0.5"/>
<rect x="209.7891826679452" y="534.869807176163" width="1.1528599605522682" height="4.130192823836978" fill="#3fb950" opacity="0.5"/>
<rect x="211.4393802964037" y="535.5125679362629" width="1.1528599605522682" height="3.48743206373706" fill="#f85149" opacity="0.5"/>
<rect x="213.0895779248622" y="535.8493558456305" width="1.1528599605522682" height="3.150644154369502" fill="#3fb950" opacity="0.5"/>
<rect x="214.7397755533207" y="535.926729550231" width="1.1528599605522682" height="3.073270449768984" fill="#3fb950" opacity="0.5"/>
<rect x="216.3899731817792" y="533.4436852264593" width="1.1528599605522682" height="5.556314773540748" fill="#3fb950" opacity="0.5"/>
<rect x="218.0401708102377" y="534.8537348364291" width="1.1528599605522682" height="4.146265163570888" fill="#f85149" opacity="0.5"/>
<rect x="219.6903684386962" y="536.0990755072944" width="1.1528599605522682" height="2.900924492705599" fill="#3fb950" opacity="0.5"/>
<rect x="221.34056606715467" y="534.350245549147" width="1.1528599605522682" height="4.649754450853038" fill="#f85149" opacity="0.5"/>
<rect x="222.9907636956132" y="535.4930420359251" width="1.1528599605522682" height="3.5069579640749" fill="#3fb950" opacity="0.5"/>
<rect x="224.64096132407167" y="536.2982529736655" width="1.1528599605522682" height="2.7017470263344876" fill="#f85149" opacity="0.5"/>
<rect x="226.2911589525302" y="535.4405744805956" width="1.1528599605522682" height="3.5594255194043853" fill="#3fb950" opacity="0.5"/>
<rect x="227.94135658098867" y="534.9479107775143" width="1.1528599605522682" height="4.052089222485733" fill="#3fb950" opacity="0.5"/>
<rect x="229.59155420944717" y="536.0260194175951" width="1.1528599605522682" height="2.97398058240492" fill="#f85149" opacity="0.5"/>
<rect x="231.24175183790567" y="535.8146880744831" width="1.1528599605522682" height="3.185311925516885" fill="#f85149" opacity="0.5"/>
<rect x="232.89194946636417" y="536.1777768402886" width="1.1528599605522682" height="2.8222231597113705" fill="#f85149" opacity="0.5"/>
<rect x="234.54214709482267" y="535.3741598535962" width="1.1528599605522682" height="3.625840146403789" fill="#f85149" opacity="0.5"/>
<rect x="236.19234472328117" y="534.7913050870498" width="1.1528599605522682" height="4.20869491295025" fill="#3fb950" opacity="0.5"/>
<rect x="237.84254235173967" y="536.2408043213111" width="1.1528599605522682" height="2.7591956786889114" fill="#f85149" opacity="0.5"/>
<rect x="239.49273998019817" y="536.5093850728965" width="1.1528599605522682" height="2.490614927103479" fill="#3fb950" opacity="0.5"/>
<rect x="241.14293760865667" y="532.5859462960788" width="1.1528599605522682" height="6.41405370392124" fill="#3fb950" opacity="0.5"/>
<rect x="242.79313523711517" y="530.9094445233187" width="1.1528599605522682" height="8.090555476681288" fill="#3fb950" opacity="0.5"/>
<rect x="244.44333286557367" y="532.3944011986424" width="1.1528599605522682" height="6.605598801357587" fill="#3fb950" opacity="0.5"/>
<rect x="246.09353049403217" y="532.1022432544721" width="1.1528599605522682" height="6.897756745527886" fill="#3fb950" opacity="0.5"/>
<rect x="247.74372812249067" y="530.2244374189845" width="1.1528599605522682" height="8.775562581015492" fill="#3fb950" opacity="0.5"/>
<rect x="249.39392575094914" y="514.5352097968359" width="1.1528599605522682" height="24.464790203164057" fill="#3fb950" opacity="0.5"/>
<rect x="251.04412337940767" y="492.03371367288685" width="1.1528599605522682" height="46.96628632711315" fill="#3fb950" opacity="0.5"/>
<rect x="252.69432100786614" y="509.4572284423088" width="1.1528599605522682" height="29.542771557691196" fill="#f85149" opacity="0.5"/>
<rect x="254.34451863632466" y="515.5405127303612" width="1.1528599605522682" height="23.45948726963877" fill="#f85149" opacity="0.5"/>
<rect x="255.9947162647831" y="519.1900575854336" width="1.1528599605522682" height="19.80994241456642" fill="#3fb950" opacity="0.5"/>
<rect x="257.6449138932416" y="517.3365780995232" width="1.1528599605522682" height="21.663421900476806" fill="#3fb950" opacity="0.5"/>
<rect x="259.2951115217001" y="509.92422953351763" width="1.1528599605522682" height="29.075770466482368" fill="#3fb950" opacity="0.5"/>
<rect x="260.9453091501586" y="511.5527719758289" width="1.1528599605522682" height="27.447228024171125" fill="#f85149" opacity="0.5"/>
<rect x="262.5955067786171" y="521.0260766659057" width="1.1528599605522682" height="17.973923334094252" fill="#f85149" opacity="0.5"/>
<rect x="264.2457044070756" y="526.0816909023521" width="1.1528599605522682" height="12.91830909764792" fill="#f85149" opacity="0.5"/>
<rect x="265.8959020355341" y="526.5919657720748" width="1.1528599605522682" height="12.408034227925214" fill="#3fb950" opacity="0.5"/>
<rect x="267.5460996639926" y="526.1413949954394" width="1.1528599605522682" height="12.858605004560559" fill="#3fb950" opacity="0.5"/>
<rect x="269.1962972924511" y="531.5001807136512" width="1.1528599605522682" height="7.499819286348838" fill="#f85149" opacity="0.5"/>
<rect x="270.8464949209096" y="528.5693835858675" width="1.1528599605522682" height="10.430616414132487" fill="#3fb950" opacity="0.5"/>
<rect x="272.4966925493681" y="526.5257390984698" width="1.1528599605522682" height="12.474260901530215" fill="#3fb950" opacity="0.5"/>
<rect x="274.1468901778266" y="528.7347560070959" width="1.1528599605522682" height="10.265243992904061" fill="#f85149" opacity="0.5"/>
<rect x="275.7970878062851" y="531.6751972028662" width="1.1528599605522682" height="7.324802797133771" fill="#3fb950" opacity="0.5"/>
<rect x="277.4472854347436" y="520.1842506801544" width="1.1528599605522682" height="18.815749319845622" fill="#3fb950" opacity="0.5"/>
<rect x="279.0974830632021" y="520.8519375139134" width="1.1528599605522682" height="18.148062486086587" fill="#f85149" opacity="0.5"/>
<rect x="280.7476806916606" y="529.146659523746" width="1.1528599605522682" height="9.853340476253948" fill="#f85149" opacity="0.5"/>
<rect x="282.3978783201191" y="527.1937673034117" width="1.1528599605522682" height="11.806232696588268" fill="#3fb950" opacity="0.5"/>
<rect x="284.0480759485776" y="524.8965584115931" width="1.1528599605522682" height="14.103441588406895" fill="#3fb950" opacity="0.5"/>
<rect x="285.6982735770361" y="525.5071678507626" width="1.1528599605522682" height="13.492832149237415" fill="#3fb950" opacity="0.5"/>
<rect x="287.3484712054946" y="525.3374485921971" width="1.1528599605522682" height="13.66255140780288" fill="#f85149" opacity="0.5"/>
<rect x="288.9986688339531" y="528.1556204596615" width="1.1528599605522682" height="10.844379540338537" fill="#f85149" opacity="0.5"/>
<rect x="290.6488664624116" y="529.1916255469561" width="1.1528599605522682" height="9.808374453043939" fill="#f85149" opacity="0.5"/>
<rect x="292.2990640908701" y="531.0625939965942" width="1.1528599605522682" height="7.93740600340584" fill="#3fb950" opacity="0.5"/>
<rect x="293.9492617193286" y="522.1800972246469" width="1.1528599605522682" height="16.819902775353057" fill="#3fb950" opacity="0.5"/>
<rect x="295.5994593477871" y="526.7386278645849" width="1.1528599605522682" height="12.261372135415058" fill="#f85149" opacity="0.5"/>
<rect x="297.2496569762456" y="528.0050478739136" width="1.1528599605522682" height="10.994952126086446" fill="#f85149" opacity="0.5"/>
<rect x="298.8998546047041" y="531.2797751400523" width="1.1528599605522682" height="7.720224859947734" fill="#3fb950" opacity="0.5"/>
<rect x="300.5500522331626" y="529.997696554116" width="1.1528599605522682" height="9.002303445883967" fill="#3fb950" opacity="0.5"/>
<rect x="302.2002498616211" y="531.4345105946205" width="1.1528599605522682" height="7.565489405379481" fill="#3fb950" opacity="0.5"/>
<rect x="303.8504474900796" y="525.2620015759258" width="1.1528599605522682" height="13.737998424074249" fill="#f85149" opacity="0.5"/>
<rect x="305.5006451185381" y="527.2999344054015" width="1.1528599605522682" height="11.700065594598527" fill="#3fb950" opacity="0.5"/>
<rect x="307.1508427469966" y="531.7835194595021" width="1.1528599605522682" height="7.216480540497855" fill="#f85149" opacity="0.5"/>
<rect x="308.8010403754551" y="531.9446413446027" width="1.1528599605522682" height="7.055358655397299" fill="#3fb950" opacity="0.5"/>
<rect x="310.4512380039136" y="530.0518244751205" width="1.1528599605522682" height="8.948175524879503" fill="#3fb950" opacity="0.5"/>
<rect x="312.1014356323721" y="530.0737413020304" width="1.1528599605522682" height="8.926258697969615" fill="#f85149" opacity="0.5"/>
<rect x="313.7516332608306" y="527.7510225519812" width="1.1528599605522682" height="11.248977448018763" fill="#3fb950" opacity="0.5"/>
<rect x="315.40183088928904" y="531.4100700118847" width="1.1528599605522682" height="7.589929988115273" fill="#3fb950" opacity="0.5"/>
<rect x="317.0520285177476" y="533.1236789650419" width="1.1528599605522682" height="5.876321034958096" fill="#3fb950" opacity="0.5"/>
<rect x="318.7022261462061" y="481.03650477777495" width="1.1528599605522682" height="57.96349522222505" fill="#3fb950" opacity="0.5"/>
<rect x="320.3524237746646" y="502.1192303870828" width="1.1528599605522682" height="36.88076961291722" fill="#f85149" opacity="0.5"/>
<rect x="322.00262140312304" y="512.9924305548077" width="1.1528599605522682" height="26.007569445192303" fill="#3fb950" opacity="0.5"/>
<rect x="323.65281903158154" y="504.8320686561261" width="1.1528599605522682" height="34.167931343873875" fill="#3fb950" opacity="0.5"/>
<rect x="325.3030166600401" y="516.6478252102262" width="1.1528599605522682" height="22.352174789773812" fill="#3fb950" opacity="0.5"/>
<rect x="326.9532142884986" y="522.7014500541532" width="1.1528599605522682" height="16.298549945846844" fill="#f85149" opacity="0.5"/>
<rect x="328.60341191695704" y="523.3787484127316" width="1.1528599605522682" height="15.621251587268375" fill="#f85149" opacity="0.5"/>
<rect x="330.25360954541554" y="525.024569284403" width="1.1528599605522682" height="13.975430715596985" fill="#f85149" opacity="0.5"/>
<rect x="331.90380717387404" y="525.7215562591554" width="1.1528599605522682" height="13.278443740844637" fill="#f85149" opacity="0.5"/>
<rect x="333.5540048023326" y="526.1583353743481" width="1.1528599605522682" height="12.841664625651902" fill="#3fb950" opacity="0.5"/>
<rect x="335.20420243079104" y="532.0741498672514" width="1.1528599605522682" height="6.925850132748565" fill="#f85149" opacity="0.5"/>
<rect x="336.85440005924954" y="532.364640804284" width="1.1528599605522682" height="6.635359195715978" fill="#3fb950" opacity="0.5"/>
<rect x="338.50459768770804" y="522.8881767704007" width="1.1528599605522682" height="16.11182322959928" fill="#f85149" opacity="0.5"/>
<rect x="340.15479531616654" y="527.1352261304431" width="1.1528599605522682" height="11.86477386955687" fill="#f85149" opacity="0.5"/>
<rect x="341.80499294462504" y="529.7724845539611" width="1.1528599605522682" height="9.227515446038865" fill="#f85149" opacity="0.5"/>
<rect x="343.45519057308354" y="531.8775625713333" width="1.1528599605522682" height="7.122437428666672" fill="#3fb950" opacity="0.5"/>
<rect x="345.10538820154204" y="530.7530301069798" width="1.1528599605522682" height="8.24696989302015" fill="#3fb950" opacity="0.5"/>
<rect x="346.75558583000054" y="530.0887178004186" width="1.1528599605522682" height="8.911282199581365" fill="#f85149" opacity="0.5"/>
<rect x="348.40578345845904" y="533.075682442402" width="1.1528599605522682" height="5.924317557597988" fill="#f85149" opacity="0.5"/>
<rect x="350.05598108691754" y="531.6287733785937" width="1.1528599605522682" height="7.371226621406322" fill="#f85149" opacity="0.5"/>
<rect x="351.70617871537604" y="529.9142133679778" width="1.1528599605522682" height="9.085786632022177" fill="#f85149" opacity="0.5"/>
<rect x="353.35637634383454" y="531.1489276985232" width="1.1528599605522682" height="7.851072301476847" fill="#f85149" opacity="0.5"/>
<rect x="355.006573972293" y="532.0914840848983" width="1.1528599605522682" height="6.908515915101702" fill="#3fb950" opacity="0.5"/>
<rect x="356.65677160075154" y="531.0694293900049" width="1.1528599605522682" height="7.930570609995129" fill="#3fb950" opacity="0.5"/>
<rect x="358.30696922921004" y="533.5616382681563" width="1.1528599605522682" height="5.438361731843656" fill="#3fb950" opacity="0.5"/>
<rect x="359.95716685766854" y="533.7562995398915" width="1.1528599605522682" height="5.243700460108471" fill="#f85149" opacity="0.5"/>
<rect x="361.607364486127" y="533.1016505615587" width="1.1528599605522682" height="5.898349438441301" fill="#3fb950" opacity="0.5"/>
<rect x="363.2575621145855" y="530.8339882089996" width="1.1528599605522682" height="8.166011791000415" fill="#3fb950" opacity="0.5"/>
<rect x="364.90775974304404" y="532.3099217930992" width="1.1528599605522682" height="6.690078206900807" fill="#f85149" opacity="0.5"/>
<rect x="366.55795737150254" y="533.4106778209868" width="1.1528599605522682" height="5.589322179013152" fill="#3fb950" opacity="0.5"/>
<rect x="368.208154999961" y="534.346393500781" width="1.1528599605522682" height="4.653606499218995" fill="#f85149" opacity="0.5"/>
<rect x="369.8583526284195" y="531.414131930472" width="1.1528599605522682" height="7.585868069528033" fill="#3fb950" opacity="0.5"/>
<rect x="371.508550256878" y="530.9971702758296" width="1.1528599605522682" height="8.002829724170397" fill="#f85149" opacity="0.5"/>
<rect x="373.15874788533654" y="528.5824672673864" width="1.1528599605522682" height="10.417532732613608" fill="#3fb950" opacity="0.5"/>
<rect x="374.80894551379504" y="531.2758287829159" width="1.1528599605522682" height="7.724171217084063" fill="#3fb950" opacity="0.5"/>
<rect x="376.4591431422535" y="533.3426606090379" width="1.1528599605522682" height="5.657339390962079" fill="#3fb950" opacity="0.5"/>
<rect x="378.109340770712" y="531.5776573609236" width="1.1528599605522682" height="7.422342639076419" fill="#3fb950" opacity="0.5"/>
<rect x="379.7595383991705" y="529.3783137427199" width="1.1528599605522682" height="9.62168625728009" fill="#3fb950" opacity="0.5"/>
<rect x="381.40973602762904" y="530.5274853695438" width="1.1528599605522682" height="8.472514630456203" fill="#3fb950" opacity="0.5"/>
<rect x="383.0599336560875" y="530.0118694355177" width="1.1528599605522682" height="8.988130564482276" fill="#3fb950" opacity="0.5"/>
<rect x="384.710131284546" y="531.4179341678678" width="1.1528599605522682" height="7.58206583213223" fill="#3fb950" opacity="0.5"/>
<rect x="386.3603289130045" y="531.8074479854638" width="1.1528599605522682" height="7.192552014536204" fill="#f85149" opacity="0.5"/>
<rect x="388.010526541463" y="533.6771333045083" width="1.1528599605522682" height="5.322866695491712" fill="#3fb950" opacity="0.5"/>
<rect x="389.6607241699215" y="534.1842089816485" width="1.1528599605522682" height="4.815791018351547" fill="#f85149" opacity="0.5"/>
<rect x="391.31092179838" y="533.4007820415638" width="1.1528599605522682" height="5.5992179584361566" fill="#f85149" opacity="0.5"/>
<rect x="392.9611194268385" y="530.8917702627816" width="1.1528599605522682" height="8.10822973721838" fill="#3fb950" opacity="0.5"/>
<rect x="394.611317055297" y="532.9249212391134" width="1.1528599605522682" height="6.07507876088664" fill="#f85149" opacity="0.5"/>
<rect x="396.2615146837555" y="533.382783677647" width="1.1528599605522682" height="5.617216322352988" fill="#3fb950" opacity="0.5"/>
<rect x="397.911712312214" y="533.8472211642537" width="1.1528599605522682" height="5.15277883574629" fill="#f85149" opacity="0.5"/>
<rect x="399.5619099406725" y="531.484919296513" width="1.1528599605522682" height="7.515080703487001" fill="#f85149" opacity="0.5"/>
<rect x="401.212107569131" y="528.5481309052277" width="1.1528599605522682" height="10.451869094772292" fill="#3fb950" opacity="0.5"/>
<rect x="402.8623051975895" y="533.2502864967834" width="1.1528599605522682" height="5.74971350321664" fill="#f85149" opacity="0.5"/>
<rect x="404.5125028260479" y="532.7687140364109" width="1.1528599605522682" height="6.23128596358913" fill="#3fb950" opacity="0.5"/>
<rect x="406.1627004545065" y="532.1288091052719" width="1.1528599605522682" height="6.871190894728102" fill="#f85149" opacity="0.5"/>
<rect x="407.812898082965" y="532.9771895505619" width="1.1528599605522682" height="6.022810449438111" fill="#f85149" opacity="0.5"/>
<rect x="409.4630957114235" y="533.1340024546627" width="1.1528599605522682" height="5.865997545337336" fill="#3fb950" opacity="0.5"/>
<rect x="411.1132933398819" y="533.6308423094897" width="1.1528599605522682" height="5.369157690510292" fill="#3fb950" opacity="0.5"/>
<rect x="412.7634909683405" y="532.4193730983942" width="1.1528599605522682" height="6.580626901605797" fill="#f85149" opacity="0.5"/>
<rect x="414.413688596799" y="533.6845717427323" width="1.1528599605522682" height="5.31542825726774" fill="#3fb950" opacity="0.5"/>
<rect x="416.0638862252575" y="533.9879537588654" width="1.1528599605522682" height="5.0120462411346125" fill="#f85149" opacity="0.5"/>
<rect x="417.7140838537159" y="530.8398340244681" width="1.1528599605522682" height="8.160165975531868" fill="#3fb950" opacity="0.5"/>
<rect x="419.3642814821744" y="531.3253913624606" width="1.1528599605522682" height="7.67460863753945" fill="#3fb950" opacity="0.5"/>
<rect x="421.014479110633" y="533.1471445810533" width="1.1528599605522682" height="5.85285541894666" fill="#f85149" opacity="0.5"/>
<rect x="422.6646767390915" y="531.6188775991707" width="1.1528599605522682" height="7.381122400829327" fill="#f85149" opacity="0.5"/>
<rect x="424.3148743675499" y="530.8571018274879" width="1.1528599605522682" height="8.142898172512105" fill="#3fb950" opacity="0.5"/>
<rect x="425.9650719960084" y="532.1095488634421" width="1.1528599605522682" height="6.8904511365578855" fill="#3fb950" opacity="0.5"/>
<rect x="427.6152696244669" y="532.9675859954978" width="1.1528599605522682" height="6.032414004502243" fill="#3fb950" opacity="0.5"/>
<rect x="429.2654672529255" y="533.3738575517783" width="1.1528599605522682" height="5.626142448221685" fill="#f85149" opacity="0.5"/>
<rect x="430.9156648813839" y="532.3819152487665" width="1.1528599605522682" height="6.618084751233482" fill="#3fb950" opacity="0.5"/>
<rect x="432.5658625098424" y="532.3746096397966" width="1.1528599605522682" height="6.625390360203369" fill="#f85149" opacity="0.5"/>
<rect x="434.2160601383009" y="525.8291824905004" width="1.1528599605522682" height="13.170817509499557" fill="#f85149" opacity="0.5"/>
<rect x="435.8662577667594" y="531.5727858480332" width="1.1528599605522682" height="7.427214151966837" fill="#f85149" opacity="0.5"/>
<rect x="437.5164553952179" y="530.411220587665" width="1.1528599605522682" height="8.588779412335043" fill="#3fb950" opacity="0.5"/>
<rect x="439.1666530236764" y="531.2857418301419" width="1.1528599605522682" height="7.7142581698581125" fill="#f85149" opacity="0.5"/>
<rect x="440.8168506521349" y="531.5704613360882" width="1.1528599605522682" height="7.429538663911785" fill="#f85149" opacity="0.5"/>
<rect x="442.4670482805934" y="531.935914462615" width="1.1528599605522682" height="7.06408553738504" fill="#f85149" opacity="0.5"/>
<rect x="444.1172459090519" y="532.3122463050441" width="1.1528599605522682" height="6.687753694955859" fill="#3fb950" opacity="0.5"/>
<rect x="445.7674435375104" y="534.6232096661143" width="1.1528599605522682" height="4.376790333885651" fill="#3fb950" opacity="0.5"/>
<rect x="447.4176411659689" y="533.7596202712415" width="1.1528599605522682" height="5.240379728758512" fill="#3fb950" opacity="0.5"/>
<rect x="449.0678387944274" y="532.2571885792617" width="1.1528599605522682" height="6.742811420738349" fill="#f85149" opacity="0.5"/>
<rect x="450.7180364228859" y="523.5193481780892" width="1.1528599605522682" height="15.480651821910783" fill="#f85149" opacity="0.5"/>
<rect x="452.36823405134436" y="526.8459904298609" width="1.1528599605522682" height="12.154009570139124" fill="#3fb950" opacity="0.5"/>
<rect x="454.0184316798029" y="529.9284260981557" width="1.1528599605522682" height="9.071573901844317" fill="#3fb950" opacity="0.5"/>
<rect x="455.6686293082614" y="532.6569382191709" width="1.1528599605522682" height="6.343061780829089" fill="#3fb950" opacity="0.5"/>
<rect x="457.3188269367199" y="533.8122206558251" width="1.1528599605522682" height="5.187779344174942" fill="#3fb950" opacity="0.5"/>
<rect x="458.9690245651784" y="533.398590358873" width="1.1528599605522682" height="5.60140964112702" fill="#f85149" opacity="0.5"/>
<rect x="460.61922219363686" y="532.863423951097" width="1.1528599605522682" height="6.136576048902953" fill="#f85149" opacity="0.5"/>
<rect x="462.2694198220954" y="533.5806328514782" width="1.1528599605522682" height="5.419367148521815" fill="#3fb950" opacity="0.5"/>
<rect x="463.9196174505539" y="533.6204816276778" width="1.1528599605522682" height="5.379518372322195" fill="#3fb950" opacity="0.5"/>
<rect x="465.5698150790124" y="530.7763416410567" width="1.1528599605522682" height="8.22365835894334" fill="#f85149" opacity="0.5"/>
<rect x="467.22001270747086" y="532.0680397215675" width="1.1528599605522682" height="6.931960278432484" fill="#3fb950" opacity="0.5"/>
<rect x="468.8702103359294" y="532.2239168435739" width="1.1528599605522682" height="6.776083156426125" fill="#f85149" opacity="0.5"/>
<rect x="470.5204079643879" y="532.9866868422228" width="1.1528599605522682" height="6.013313157777247" fill="#f85149" opacity="0.5"/>
<rect x="472.1706055928464" y="533.0099983762996" width="1.1528599605522682" height="5.9900016237004365" fill="#3fb950" opacity="0.5"/>
<rect x="473.82080322130486" y="532.8080932611977" width="1.1528599605522682" height="6.191906738802345" fill="#f85149" opacity="0.5"/>
<rect x="475.47100084976336" y="533.280040249679" width="1.1528599605522682" height="5.719959750320982" fill="#3fb950" opacity="0.5"/>
<rect x="477.1211984782219" y="524.3410299433255" width="1.1528599605522682" height="14.658970056674548" fill="#3fb950" opacity="0.5"/>
<rect x="478.7713961066804" y="514.7456438783372" width="1.1528599605522682" height="24.254356121662795" fill="#3fb950" opacity="0.5"/>
<rect x="480.42159373513886" y="519.3688324783905" width="1.1528599605522682" height="19.63116752160954" fill="#3fb950" opacity="0.5"/>
<rect x="482.07179136359736" y="525.0745794985336" width="1.1528599605522682" height="13.92542050146642" fill="#3fb950" opacity="0.5"/>
<rect x="483.72198899205586" y="521.2621142502616" width="1.1528599605522682" height="17.73788574973844" fill="#3fb950" opacity="0.5"/>
<rect x="485.3721866205144" y="522.8416533241876" width="1.1528599605522682" height="16.158346675812368" fill="#3fb950" opacity="0.5"/>
<rect x="487.02238424897286" y="528.2880512258982" width="1.1528599605522682" height="10.711948774101756" fill="#f85149" opacity="0.5"/>
<rect x="488.67258187743136" y="531.1076178005295" width="1.1528599605522682" height="7.8923821994704895" fill="#f85149" opacity="0.5"/>
<rect x="490.32277950588986" y="530.5755038090106" width="1.1528599605522682" height="8.42449619098943" fill="#3fb950" opacity="0.5"/>
<rect x="491.97297713434835" y="524.8931108283056" width="1.1528599605522682" height="14.106889171694434" fill="#f85149" opacity="0.5"/>
<rect x="493.62317476280685" y="527.8922200489819" width="1.1528599605522682" height="11.107779951018074" fill="#3fb950" opacity="0.5"/>
<rect x="495.27337239126535" y="528.8550328965919" width="1.1528599605522682" height="10.144967103408135" fill="#3fb950" opacity="0.5"/>
<rect x="496.92357001972385" y="532.0003632166552" width="1.1528599605522682" height="6.99963678334484" fill="#f85149" opacity="0.5"/>
<rect x="498.57376764818235" y="531.8046173940611" width="1.1528599605522682" height="7.195382605938903" fill="#3fb950" opacity="0.5"/>
<rect x="500.22396527664085" y="531.9243682797111" width="1.1528599605522682" height="7.075631720288925" fill="#f85149" opacity="0.5"/>
<rect x="501.8741629050993" y="533.8686684397505" width="1.1528599605522682" height="5.131331560249464" fill="#3fb950" opacity="0.5"/>
<rect x="503.5243605335578" y="531.9483605637146" width="1.1528599605522682" height="7.051639436285427" fill="#3fb950" opacity="0.5"/>
<rect x="505.1745581620164" y="532.752907355185" width="1.1528599605522682" height="6.247092644814984" fill="#f85149" opacity="0.5"/>
<rect x="506.82475579047485" y="532.0285894331298" width="1.1528599605522682" height="6.9714105668701905" fill="#3fb950" opacity="0.5"/>
<rect x="508.47495341893335" y="533.2275726943495" width="1.1528599605522682" height="5.772427305650467" fill="#3fb950" opacity="0.5"/>
<rect x="510.12515104739185" y="531.8333968443787" width="1.1528599605522682" height="7.16660315562126" fill="#3fb950" opacity="0.5"/>
<rect x="511.77534867585035" y="533.0771103568825" width="1.1528599605522682" height="5.922889643117514" fill="#3fb950" opacity="0.5"/>
<rect x="513.4255463043089" y="533.0310518130584" width="1.1528599605522682" height="5.968948186941589" fill="#f85149" opacity="0.5"/>
<rect x="515.0757439327674" y="527.2316601688462" width="1.1528599605522682" height="11.768339831153753" fill="#3fb950" opacity="0.5"/>
<rect x="516.7259415612259" y="530.4898608192024" width="1.1528599605522682" height="8.510139180797637" fill="#3fb950" opacity="0.5"/>
<rect x="518.3761391896844" y="530.1701753404334" width="1.1528599605522682" height="8.829824659566611" fill="#f85149" opacity="0.5"/>
<rect x="520.0263368181429" y="532.8435633210391" width="1.1528599605522682" height="6.156436678960858" fill="#f85149" opacity="0.5"/>
<rect x="521.6765344466014" y="533.0834529537609" width="1.1528599605522682" height="5.916547046239089" fill="#f85149" opacity="0.5"/>
<rect x="523.3267320750599" y="531.1042306545526" width="1.1528599605522682" height="7.895769345447434" fill="#f85149" opacity="0.5"/>
<rect x="524.9769297035184" y="531.3331837906463" width="1.1528599605522682" height="7.666816209353669" fill="#3fb950" opacity="0.5"/>
<rect x="526.6271273319769" y="532.0610881025594" width="1.1528599605522682" height="6.938911897440562" fill="#3fb950" opacity="0.5"/>
<rect x="528.2773249604354" y="533.964043164853" width="1.1528599605522682" height="5.035956835146976" fill="#f85149" opacity="0.5"/>
<rect x="529.9275225888939" y="530.585066187006" width="1.1528599605522682" height="8.414933812994036" fill="#f85149" opacity="0.5"/>
<rect x="531.5777202173524" y="525.2853131100026" width="1.1528599605522682" height="13.714686889997438" fill="#3fb950" opacity="0.5"/>
<rect x="533.2279178458109" y="489.33467569918764" width="1.1528599605522682" height="49.66532430081236" fill="#f85149" opacity="0.5"/>
<rect x="534.8781154742694" y="487.3436090154003" width="1.1528599605522682" height="51.65639098459968" fill="#3fb950" opacity="0.5"/>
<rect x="536.5283131027278" y="492.3292461442549" width="1.1528599605522682" height="46.67075385574509" fill="#3fb950" opacity="0.5"/>
<rect x="538.1785107311864" y="501.51160429295805" width="1.1528599605522682" height="37.488395707041946" fill="#f85149" opacity="0.5"/>
<rect x="539.8287083596449" y="519.2302251518428" width="1.1528599605522682" height="19.769774848157226" fill="#3fb950" opacity="0.5"/>
<rect x="541.4789059881034" y="479.7670389936522" width="1.1528599605522682" height="59.23296100634781" fill="#f85149" opacity="0.5"/>
<rect x="543.1291036165619" y="501.890075350523" width="1.1528599605522682" height="37.10992464947702" fill="#f85149" opacity="0.5"/>
<rect x="544.7793012450204" y="508.1894110692282" width="1.1528599605522682" height="30.810588930771814" fill="#f85149" opacity="0.5"/>
<rect x="546.4294988734789" y="512.5865880370176" width="1.1528599605522682" height="26.413411962982423" fill="#3fb950" opacity="0.5"/>
<rect x="548.0796965019374" y="520.3187143981236" width="1.1528599605522682" height="18.681285601876425" fill="#f85149" opacity="0.5"/>
<rect x="549.7298941303959" y="518.5153580312096" width="1.1528599605522682" height="20.484641968790356" fill="#3fb950" opacity="0.5"/>
<rect x="551.3800917588543" y="518.1299393395143" width="1.1528599605522682" height="20.870060660485706" fill="#3fb950" opacity="0.5"/>
<rect x="553.0302893873128" y="508.50646121559777" width="1.1528599605522682" height="30.493538784402233" fill="#3fb950" opacity="0.5"/>
<rect x="554.6804870157714" y="516.4791984722748" width="1.1528599605522682" height="22.52080152772521" fill="#3fb950" opacity="0.5"/>
<rect x="556.3306846442299" y="519.7245890693753" width="1.1528599605522682" height="19.27541093062473" fill="#f85149" opacity="0.5"/>
<rect x="557.9808822726884" y="526.2865800266451" width="1.1528599605522682" height="12.713419973354917" fill="#3fb950" opacity="0.5"/>
<rect x="559.6310799011469" y="520.2986239734563" width="1.1528599605522682" height="18.7013760265437" fill="#f85149" opacity="0.5"/>
<rect x="561.2812775296054" y="526.0441666380974" width="1.1528599605522682" height="12.955833361902592" fill="#f85149" opacity="0.5"/>
<rect x="562.9314751580639" y="527.9414997022154" width="1.1528599605522682" height="11.058500297784576" fill="#f85149" opacity="0.5"/>
<rect x="564.5816727865223" y="530.6146220243132" width="1.1528599605522682" height="8.385377975686765" fill="#f85149" opacity="0.5"/>
<rect x="566.2318704149808" y="516.6063266946919" width="1.1528599605522682" height="22.393673305308084" fill="#3fb950" opacity="0.5"/>
<rect x="567.8820680434393" y="503.16739599258096" width="1.1528599605522682" height="35.832604007419036" fill="#3fb950" opacity="0.5"/>
<rect x="569.5322656718979" y="481.2610732201942" width="1.1528599605522682" height="57.73892677980581" fill="#3fb950" opacity="0.5"/>
<rect x="571.1824633003564" y="482.6772880999885" width="1.1528599605522682" height="56.322711900011484" fill="#3fb950" opacity="0.5"/>
<rect x="572.8326609288149" y="440.40796241230703" width="1.1528599605522682" height="98.59203758769297" fill="#f85149" opacity="0.5"/>
<rect x="574.4828585572734" y="477.8027101745485" width="1.1528599605522682" height="61.19728982545149" fill="#3fb950" opacity="0.5"/>
<rect x="576.1330561857319" y="438.1666666666667" width="1.1528599605522682" height="100.83333333333331" fill="#3fb950" opacity="0.5"/>
<rect x="577.7832538141903" y="454.05277978640856" width="1.1528599605522682" height="84.94722021359144" fill="#3fb950" opacity="0.5"/>
<rect x="579.4334514426488" y="438.5681019098091" width="1.1528599605522682" height="100.43189809019088" fill="#3fb950" opacity="0.5"/>
<rect x="581.0836490711073" y="467.313113586763" width="1.1528599605522682" height="71.686886413237" fill="#f85149" opacity="0.5"/>
<rect x="582.7338466995658" y="480.327888601835" width="1.1528599605522682" height="58.672111398164986" fill="#f85149" opacity="0.5"/>
<rect x="584.3840443280243" y="490.26289449588614" width="1.1528599605522682" height="48.737105504113856" fill="#f85149" opacity="0.5"/>
<rect x="586.0342419564829" y="488.29192421408254" width="1.1528599605522682" height="50.70807578591746" fill="#f85149" opacity="0.5"/>
<rect x="587.6844395849414" y="509.60632861577614" width="1.1528599605522682" height="29.393671384223865" fill="#f85149" opacity="0.5"/>
<rect x="589.3346372133999" y="489.9020319483776" width="1.1528599605522682" height="49.09796805162239" fill="#3fb950" opacity="0.5"/>
<rect x="590.9848348418583" y="503.30154025619424" width="1.1528599605522682" height="35.698459743805756" fill="#3fb950" opacity="0.5"/>
<rect x="592.6350324703168" y="514.3674298453788" width="1.1528599605522682" height="24.63257015462125" fill="#f85149" opacity="0.5"/>
<rect x="594.2852300987753" y="515.317474480948" width="1.1528599605522682" height="23.68252551905198" fill="#f85149" opacity="0.5"/>
<rect x="595.9354277272338" y="516.7441197779126" width="1.1528599605522682" height="22.2558802220874" fill="#f85149" opacity="0.5"/>
<rect x="597.5856253556923" y="523.0396386480041" width="1.1528599605522682" height="15.960361351995857" fill="#3fb950" opacity="0.5"/>
<rect x="599.2358229841508" y="521.9729446898657" width="1.1528599605522682" height="17.0270553101343" fill="#3fb950" opacity="0.5"/>
<rect x="600.8860206126093" y="523.5974663906585" width="1.1528599605522682" height="15.402533609341504" fill="#f85149" opacity="0.5"/>
<rect x="602.5362182410678" y="525.3701259169733" width="1.1528599605522682" height="13.62987408302672" fill="#3fb950" opacity="0.5"/>
<rect x="604.1864158695263" y="503.6150212805089" width="1.1528599605522682" height="35.38497871949107" fill="#3fb950" opacity="0.5"/>
<rect x="605.8366134979848" y="506.67106643261934" width="1.1528599605522682" height="32.32893356738066" fill="#f85149" opacity="0.5"/>
<rect x="607.4868111264433" y="521.31961204944" width="1.1528599605522682" height="17.680387950559975" fill="#3fb950" opacity="0.5"/>
<rect x="609.1370087549018" y="525.2694147765915" width="1.1528599605522682" height="13.730585223408525" fill="#3fb950" opacity="0.5"/>
<rect x="610.7872063833603" y="523.4445281158968" width="1.1528599605522682" height="15.555471884103213" fill="#f85149" opacity="0.5"/>
<rect x="612.4374040118188" y="523.8423178601633" width="1.1528599605522682" height="15.157682139836652" fill="#3fb950" opacity="0.5"/>
<rect x="614.0876016402773" y="529.6253104046768" width="1.1528599605522682" height="9.374689595323161" fill="#f85149" opacity="0.5"/>
<rect x="615.7377992687358" y="528.1649238206115" width="1.1528599605522682" height="10.835076179388466" fill="#f85149" opacity="0.5"/>
<rect x="617.3879968971943" y="528.4843110977052" width="1.1528599605522682" height="10.515688902294755" fill="#3fb950" opacity="0.5"/>
<rect x="619.0381945256528" y="528.56199030959" width="1.1528599605522682" height="10.438009690410013" fill="#f85149" opacity="0.5"/>
<rect x="620.6883921541113" y="527.2309296079492" width="1.1528599605522682" height="11.769070392050821" fill="#3fb950" opacity="0.5"/>
<rect x="622.3385897825698" y="530.5683316934409" width="1.1528599605522682" height="8.431668306559118" fill="#3fb950" opacity="0.5"/>
<rect x="623.9887874110283" y="529.4236158239424" width="1.1528599605522682" height="9.576384176057559" fill="#3fb950" opacity="0.5"/>
<rect x="625.6389850394868" y="531.9369372478707" width="1.1528599605522682" height="7.063062752129326" fill="#f85149" opacity="0.5"/>
<rect x="627.2891826679453" y="531.3071990678328" width="1.1528599605522682" height="7.692800932167188" fill="#3fb950" opacity="0.5"/>
<rect x="628.9393802964038" y="531.015834114309" width="1.1528599605522682" height="7.984165885691027" fill="#3fb950" opacity="0.5"/>
<rect x="630.5895779248622" y="530.6760575467265" width="1.1528599605522682" height="8.323942453273503" fill="#3fb950" opacity="0.5"/>
<rect x="632.2397755533207" y="530.1899011487985" width="1.1528599605522682" height="8.810098851201474" fill="#3fb950" opacity="0.5"/>
<rect x="633.8899731817793" y="530.0245287275701" width="1.1528599605522682" height="8.9754712724299" fill="#f85149" opacity="0.5"/>
<rect x="635.5401708102378" y="529.8389655955875" width="1.1528599605522682" height="9.161034404412476" fill="#f85149" opacity="0.5"/>
<rect x="637.1903684386963" y="529.615813113016" width="1.1528599605522682" height="9.384186886984025" fill="#f85149" opacity="0.5"/>
<rect x="638.8405660671548" y="530.773220817734" width="1.1528599605522682" height="8.226779182266" fill="#3fb950" opacity="0.5"/>
<rect x="640.4907636956133" y="528.9753835063236" width="1.1528599605522682" height="10.024616493676376" fill="#f85149" opacity="0.5"/>
<rect x="642.1409613240718" y="528.4518290319324" width="1.1528599605522682" height="10.548170968067552" fill="#f85149" opacity="0.5"/>
<rect x="643.7911589525302" y="532.8545223986404" width="1.1528599605522682" height="6.14547760135963" fill="#3fb950" opacity="0.5"/>
<rect x="645.4413565809887" y="531.9345244044719" width="1.1528599605522682" height="7.065475595528142" fill="#f85149" opacity="0.5"/>
<rect x="647.0915542094472" y="526.381020962092" width="1.1528599605522682" height="12.618979037908048" fill="#f85149" opacity="0.5"/>
<rect x="648.7417518379057" y="529.2865287282068" width="1.1528599605522682" height="9.713471271793196" fill="#3fb950" opacity="0.5"/>
<rect x="650.3919494663643" y="531.4221627871688" width="1.1528599605522682" height="7.577837212831241" fill="#f85149" opacity="0.5"/>
<rect x="652.0421470948228" y="530.8145964662083" width="1.1528599605522682" height="8.185403533791714" fill="#3fb950" opacity="0.5"/>
<rect x="653.6923447232813" y="528.7579347119188" width="1.1528599605522682" height="10.242065288081221" fill="#3fb950" opacity="0.5"/>
<rect x="655.3425423517398" y="529.3889400830398" width="1.1528599605522682" height="9.611059916960244" fill="#f85149" opacity="0.5"/>
<rect x="656.9927399801982" y="528.7437219817409" width="1.1528599605522682" height="10.256278018259081" fill="#3fb950" opacity="0.5"/>
<rect x="658.6429376086567" y="532.2160779251491" width="1.1528599605522682" height="6.783922074850921" fill="#3fb950" opacity="0.5"/>
<rect x="660.2931352371152" y="530.9992955438936" width="1.1528599605522682" height="8.000704456106405" fill="#f85149" opacity="0.5"/>
<rect x="661.9433328655737" y="532.9308321409163" width="1.1528599605522682" height="6.069167859083677" fill="#f85149" opacity="0.5"/>
<rect x="663.5935304940322" y="531.9822320234844" width="1.1528599605522682" height="7.017767976515643" fill="#3fb950" opacity="0.5"/>
<rect x="665.2437281224907" y="532.2565722515232" width="1.1528599605522682" height="6.743427748476847" fill="#3fb950" opacity="0.5"/>
<rect x="666.8939257509493" y="527.9790611586612" width="1.1528599605522682" height="11.020938841338761" fill="#3fb950" opacity="0.5"/>
<rect x="668.5441233794078" y="530.637402241374" width="1.1528599605522682" height="8.362597758625952" fill="#f85149" opacity="0.5"/>
<rect x="670.1943210078663" y="500.1092215875289" width="1.1528599605522682" height="38.89077841247109" fill="#3fb950" opacity="0.5"/>
<rect x="671.8445186363247" y="508.45621655783395" width="1.1528599605522682" height="30.543783442166045" fill="#f85149" opacity="0.5"/>
<rect x="673.4947162647832" y="522.7420977983156" width="1.1528599605522682" height="16.257902201684374" fill="#f85149" opacity="0.5"/>
<rect x="675.1449138932417" y="525.5394506726545" width="1.1528599605522682" height="13.460549327345461" fill="#f85149" opacity="0.5"/>
<rect x="676.7951115217002" y="529.4657153918511" width="1.1528599605522682" height="9.534284608148937" fill="#f85149" opacity="0.5"/>
<rect x="678.4453091501587" y="526.9571691796041" width="1.1528599605522682" height="12.04283082039592" fill="#3fb950" opacity="0.5"/>
<rect x="680.0955067786172" y="527.5983353245097" width="1.1528599605522682" height="11.401664675490338" fill="#3fb950" opacity="0.5"/>
<rect x="681.7457044070758" y="523.6532726092872" width="1.1528599605522682" height="15.346727390712772" fill="#3fb950" opacity="0.5"/>
<rect x="683.3959020355343" y="464.0646606112115" width="1.1528599605522682" height="74.93533938878852" fill="#3fb950" opacity="0.5"/>
<rect x="685.0460996639927" y="488.81101097651555" width="1.1528599605522682" height="50.18898902348445" fill="#f85149" opacity="0.5"/>
<rect x="686.6962972924512" y="497.69418318521934" width="1.1528599605522682" height="41.305816814780655" fill="#3fb950" opacity="0.5"/>
<rect x="688.3464949209097" y="507.522533165626" width="1.1528599605522682" height="31.477466834374013" fill="#3fb950" opacity="0.5"/>
<rect x="689.9966925493682" y="517.7978409669593" width="1.1528599605522682" height="21.202159033040743" fill="#f85149" opacity="0.5"/>
<rect x="691.6468901778267" y="523.51609319722" width="1.1528599605522682" height="15.483906802779984" fill="#f85149" opacity="0.5"/>
<rect x="693.2970878062852" y="525.2984738324888" width="1.1528599605522682" height="13.701526167511247" fill="#3fb950" opacity="0.5"/>
<rect x="694.9472854347437" y="514.8879378808296" width="1.1528599605522682" height="24.112062119170446" fill="#3fb950" opacity="0.5"/>
<rect x="696.5974830632022" y="519.1834134661485" width="1.1528599605522682" height="19.816586533851478" fill="#3fb950" opacity="0.5"/>
<rect x="698.2476806916607" y="523.6715047526911" width="1.1528599605522682" height="15.328495247308865" fill="#f85149" opacity="0.5"/>
<rect x="699.8978783201192" y="525.4388637276252" width="1.1528599605522682" height="13.561136272374824" fill="#f85149" opacity="0.5"/>
<rect x="701.5480759485777" y="515.3448426204419" width="1.1528599605522682" height="23.65515737955809" fill="#3fb950" opacity="0.5"/>
<rect x="703.1982735770362" y="520.3675092245801" width="1.1528599605522682" height="18.63249077541991" fill="#f85149" opacity="0.5"/>
<rect x="704.8484712054947" y="527.7528164110565" width="1.1528599605522682" height="11.247183588943471" fill="#3fb950" opacity="0.5"/>
<rect x="706.4986688339532" y="529.6454997871384" width="1.1528599605522682" height="9.35450021286158" fill="#3fb950" opacity="0.5"/>
<rect x="708.1488664624117" y="528.7416631283039" width="1.1528599605522682" height="10.258336871696088" fill="#f85149" opacity="0.5"/>
<rect x="709.7990640908702" y="530.8177843683043" width="1.1528599605522682" height="8.182215631695726" fill="#f85149" opacity="0.5"/>
<rect x="711.4492617193287" y="527.9056351394895" width="1.1528599605522682" height="11.094364860510495" fill="#3fb950" opacity="0.5"/>
<rect x="713.0994593477872" y="529.9199250258998" width="1.1528599605522682" height="9.080074974100171" fill="#f85149" opacity="0.5"/>
<rect x="714.7496569762457" y="531.2191996870587" width="1.1528599605522682" height="7.780800312941324" fill="#f85149" opacity="0.5"/>
<rect x="716.3998546047042" y="531.4784624664761" width="1.1528599605522682" height="7.521537533523883" fill="#f85149" opacity="0.5"/>
<rect x="718.0500522331627" y="531.1580929170491" width="1.1528599605522682" height="7.841907082950911" fill="#f85149" opacity="0.5"/>
<rect x="719.7002498616212" y="531.7511144346967" width="1.1528599605522682" height="7.24888556530334" fill="#3fb950" opacity="0.5"/>
<rect x="721.3504474900797" y="532.3802548830915" width="1.1528599605522682" height="6.619745116908462" fill="#3fb950" opacity="0.5"/>
<rect x="723.0006451185382" y="531.8576846734724" width="1.1528599605522682" height="7.142315326527637" fill="#f85149" opacity="0.5"/>
<rect x="724.6508427469967" y="531.2364621769084" width="1.1528599605522682" height="7.76353782309161" fill="#f85149" opacity="0.5"/>
<rect x="726.3010403754552" y="530.5068363978634" width="1.1528599605522682" height="8.493163602136633" fill="#f85149" opacity="0.5"/>
<rect x="727.9512380039135" y="531.5313882827319" width="1.1528599605522682" height="7.468611717268118" fill="#f85149" opacity="0.5"/>
<rect x="729.601435632372" y="531.5575928379608" width="1.1528599605522682" height="7.442407162039217" fill="#3fb950" opacity="0.5"/>
<rect x="731.2516332608307" y="532.8830800241038" width="1.1528599605522682" height="6.116919975896167" fill="#f85149" opacity="0.5"/>
<rect x="732.9018308892892" y="530.6186069019332" width="1.1528599605522682" height="8.381393098066837" fill="#f85149" opacity="0.5"/>
<rect x="734.5520285177477" y="532.6746045099528" width="1.1528599605522682" height="6.325395490047185" fill="#3fb950" opacity="0.5"/>
<rect x="736.2022261462062" y="531.7136512718988" width="1.1528599605522682" height="7.2863487281011885" fill="#3fb950" opacity="0.5"/>
<rect x="737.8524237746647" y="532.7011039461255" width="1.1528599605522682" height="6.2988960538745005" fill="#f85149" opacity="0.5"/>
<rect x="739.5026214031232" y="532.4279990301488" width="1.1528599605522682" height="6.57200096985116" fill="#f85149" opacity="0.5"/>
<rect x="741.1528190315815" y="533.3941405788639" width="1.1528599605522682" height="5.605859421136074" fill="#3fb950" opacity="0.5"/>
<rect x="742.80301666004" y="534.452457660099" width="1.1528599605522682" height="4.547542339901042" fill="#3fb950" opacity="0.5"/>
<rect x="744.4532142884985" y="532.8055741543956" width="1.1528599605522682" height="6.194425845604428" fill="#3fb950" opacity="0.5"/>
<rect x="746.1034119169572" y="533.8563916959497" width="1.1528599605522682" height="5.143608304050304" fill="#f85149" opacity="0.5"/>
<rect x="747.7536095454157" y="534.3156435284802" width="1.1528599605522682" height="4.684356471519777" fill="#f85149" opacity="0.5"/>
<rect x="749.4038071738742" y="530.376772648933" width="1.1528599605522682" height="8.623227351067044" fill="#3fb950" opacity="0.5"/>
<rect x="751.0540048023327" y="531.9654291228535" width="1.1528599605522682" height="7.034570877146507" fill="#3fb950" opacity="0.5"/>
<rect x="752.7042024307912" y="532.1820324590567" width="1.1528599605522682" height="6.8179675409433" fill="#3fb950" opacity="0.5"/>
<rect x="754.3544000592497" y="522.6651239097696" width="1.1528599605522682" height="16.33487609023041" fill="#3fb950" opacity="0.5"/>
<rect x="756.004597687708" y="518.5080324978516" width="1.1528599605522682" height="20.49196750214844" fill="#3fb950" opacity="0.5"/>
<rect x="757.6547953161665" y="521.012579885407" width="1.1528599605522682" height="17.987420114592965" fill="#3fb950" opacity="0.5"/>
<rect x="759.304992944625" y="522.8220463980049" width="1.1528599605522682" height="16.177953601995114" fill="#3fb950" opacity="0.5"/>
<rect x="760.9551905730835" y="525.7488872064582" width="1.1528599605522682" height="13.251112793541779" fill="#f85149" opacity="0.5"/>
<rect x="762.6053882015422" y="527.5697677368522" width="1.1528599605522682" height="11.430232263147786" fill="#f85149" opacity="0.5"/>
<rect x="764.2555858300007" y="530.4770109171706" width="1.1528599605522682" height="8.52298908282944" fill="#3fb950" opacity="0.5"/>
<rect x="765.9057834584592" y="531.4939689535879" width="1.1528599605522682" height="7.50603104641209" fill="#3fb950" opacity="0.5"/>
<rect x="767.5559810869177" y="528.1714444086904" width="1.1528599605522682" height="10.828555591309623" fill="#3fb950" opacity="0.5"/>
<rect x="769.206178715376" y="516.1002990403657" width="1.1528599605522682" height="22.899700959634288" fill="#3fb950" opacity="0.5"/>
<rect x="770.8563763438345" y="537.0349904309695" width="1.1528599605522682" height="1.9650095690304852" fill="#3fb950" opacity="0.5"/>
<rect x="772.506573972293" y="537.2621915492031" width="1.1528599605522682" height="1.7378084507969334" fill="#3fb950" opacity="0.5"/>
<rect x="774.1567716007515" y="495.9534491701031" width="1.1528599605522682" height="43.04655082989689" fill="#3fb950" opacity="0.5"/>
<rect x="775.80696922921" y="444.138794785949" width="1.1528599605522682" height="94.86120521405098" fill="#3fb950" opacity="0.5"/>
<rect x="777.4571668576685" y="458.84780162260483" width="1.1528599605522682" height="80.15219837739517" fill="#f85149" opacity="0.5"/>
<rect x="779.1073644861272" y="484.2271159263801" width="1.1528599605522682" height="54.77288407361988" fill="#f85149" opacity="0.5"/>
<rect x="780.7575621145857" y="489.7593547334874" width="1.1528599605522682" height="49.240645266512615" fill="#f85149" opacity="0.5"/>
<rect x="782.407759743044" y="501.7897454301001" width="1.1528599605522682" height="37.21025456989992" fill="#f85149" opacity="0.5"/>
<rect x="784.0579573715025" y="499.49452034318995" width="1.1528599605522682" height="39.50547965681005" fill="#3fb950" opacity="0.5"/>
<rect x="785.708154999961" y="463.22239363233683" width="1.1528599605522682" height="75.77760636766317" fill="#3fb950" opacity="0.5"/>
<rect x="787.3583526284195" y="488.5090635163256" width="1.1528599605522682" height="50.490936483674375" fill="#f85149" opacity="0.5"/>
<rect x="789.008550256878" y="505.1454527150854" width="1.1528599605522682" height="33.85454728491459" fill="#f85149" opacity="0.5"/>
<rect x="790.6587478853365" y="517.7077402273868" width="1.1528599605522682" height="21.292259772613193" fill="#f85149" opacity="0.5"/>
<rect x="792.308945513795" y="522.5354752522578" width="1.1528599605522682" height="16.46452474774219" fill="#3fb950" opacity="0.5"/>
<rect x="793.9591431422535" y="510.6778808038796" width="1.1528599605522682" height="28.32211919612041" fill="#f85149" opacity="0.5"/>
<rect x="795.609340770712" y="502.7131664341441" width="1.1528599605522682" height="36.286833565855886" fill="#f85149" opacity="0.5"/>
<rect x="797.2595383991705" y="506.17959819282396" width="1.1528599605522682" height="32.82040180717604" fill="#3fb950" opacity="0.5"/>
<rect x="798.909736027629" y="517.6870613691242" width="1.1528599605522682" height="21.312938630875806" fill="#f85149" opacity="0.5"/>
<rect x="800.5599336560875" y="522.8688833212574" width="1.1528599605522682" height="16.131116678742615" fill="#3fb950" opacity="0.5"/>
<rect x="802.210131284546" y="520.5931197124969" width="1.1528599605522682" height="18.4068802875031" fill="#f85149" opacity="0.5"/>
<rect x="803.8603289130045" y="521.1499200208715" width="1.1528599605522682" height="17.85007997912851" fill="#f85149" opacity="0.5"/>
<rect x="805.510526541463" y="523.9067446973766" width="1.1528599605522682" height="15.093255302623447" fill="#f85149" opacity="0.5"/>
<rect x="807.1607241699215" y="524.7385214859167" width="1.1528599605522682" height="14.261478514083251" fill="#f85149" opacity="0.5"/>
<rect x="808.81092179838" y="513.278677597175" width="1.1528599605522682" height="25.721322402824967" fill="#3fb950" opacity="0.5"/>
<rect x="810.4611194268385" y="521.6805190947487" width="1.1528599605522682" height="17.31948090525134" fill="#3fb950" opacity="0.5"/>
<rect x="812.111317055297" y="526.2553651519554" width="1.1528599605522682" height="12.744634848044598" fill="#f85149" opacity="0.5"/>
<rect x="813.7615146837555" y="526.7890066798954" width="1.1528599605522682" height="12.210993320104649" fill="#f85149" opacity="0.5"/>
<rect x="815.411712312214" y="509.08074185379866" width="1.1528599605522682" height="29.919258146201344" fill="#3fb950" opacity="0.5"/>
<rect x="817.0619099406725" y="488.3228541700224" width="1.1528599605522682" height="50.677145829977576" fill="#f85149" opacity="0.5"/>
<rect x="818.712107569131" y="503.98952937728075" width="1.1528599605522682" height="35.010470622719254" fill="#f85149" opacity="0.5"/>
<rect x="820.3623051975895" y="501.1496399267876" width="1.1528599605522682" height="37.850360073212414" fill="#f85149" opacity="0.5"/>
<rect x="822.012502826048" y="513.8961343843881" width="1.1528599605522682" height="25.10386561561188" fill="#3fb950" opacity="0.5"/>
<rect x="823.6627004545065" y="519.4820694174244" width="1.1528599605522682" height="19.51793058257556" fill="#3fb950" opacity="0.5"/>
<rect x="825.3128980829649" y="523.2483764999319" width="1.1528599605522682" height="15.751623500068149" fill="#f85149" opacity="0.5"/>
<rect x="826.9630957114235" y="527.9736483665608" width="1.1528599605522682" height="11.026351633439162" fill="#3fb950" opacity="0.5"/>
<rect x="828.613293339882" y="528.627961286881" width="1.1528599605522682" height="10.372038713118968" fill="#f85149" opacity="0.5"/>
<rect x="830.2634909683405" y="526.6727146680195" width="1.1528599605522682" height="12.327285331980534" fill="#f85149" opacity="0.5"/>
<rect x="831.913688596799" y="525.5642545433999" width="1.1528599605522682" height="13.435745456600102" fill="#3fb950" opacity="0.5"/>
<rect x="833.5638862252575" y="526.5952087983112" width="1.1528599605522682" height="12.404791201688795" fill="#3fb950" opacity="0.5"/>
<rect x="835.214083853716" y="530.5118121817181" width="1.1528599605522682" height="8.488187818281858" fill="#f85149" opacity="0.5"/>
<rect x="836.8642814821745" y="532.3986517347704" width="1.1528599605522682" height="6.601348265229603" fill="#3fb950" opacity="0.5"/>
<rect x="838.514479110633" y="531.4144533772667" width="1.1528599605522682" height="7.585546622733318" fill="#3fb950" opacity="0.5"/>
<rect x="840.1646767390914" y="532.8393791995381" width="1.1528599605522682" height="6.160620800461857" fill="#3fb950" opacity="0.5"/>
<rect x="841.8148743675499" y="533.0845547724228" width="1.1528599605522682" height="5.915445227577152" fill="#f85149" opacity="0.5"/>
<rect x="843.4650719960085" y="532.1901762206194" width="1.1528599605522682" height="6.809823779380622" fill="#3fb950" opacity="0.5"/>
<rect x="845.115269624467" y="531.6458419377325" width="1.1528599605522682" height="7.354158062267516" fill="#f85149" opacity="0.5"/>
<rect x="846.7654672529255" y="532.7443398683021" width="1.1528599605522682" height="6.255660131697937" fill="#3fb950" opacity="0.5"/>
<rect x="848.415664881384" y="532.9294374337494" width="1.1528599605522682" height="6.070562566250601" fill="#f85149" opacity="0.5"/>
<rect x="850.0658625098425" y="532.6605910236559" width="1.1528599605522682" height="6.339408976344089" fill="#f85149" opacity="0.5"/>
<rect x="851.716060138301" y="531.8892515456852" width="1.1528599605522682" height="7.11074845431483" fill="#f85149" opacity="0.5"/>
<rect x="853.3662577667594" y="516.4438658907111" width="1.1528599605522682" height="22.556134109288905" fill="#f85149" opacity="0.5"/>
<rect x="855.0164553952179" y="521.8290295063282" width="1.1528599605522682" height="17.170970493671803" fill="#3fb950" opacity="0.5"/>
<rect x="856.6666530236764" y="526.3880615767001" width="1.1528599605522682" height="12.611938423299875" fill="#3fb950" opacity="0.5"/>
<rect x="858.316850652135" y="521.113212656529" width="1.1528599605522682" height="17.886787343471042" fill="#3fb950" opacity="0.5"/>
<rect x="859.9670482805935" y="527.2331212906402" width="1.1528599605522682" height="11.766878709359844" fill="#3fb950" opacity="0.5"/>
<rect x="861.617245909052" y="527.6467894439296" width="1.1528599605522682" height="11.353210556070394" fill="#3fb950" opacity="0.5"/>
<rect x="863.2674435375105" y="520.5823970709679" width="1.1528599605522682" height="18.417602929032114" fill="#3fb950" opacity="0.5"/>
<rect x="864.917641165969" y="526.708150192255" width="1.1528599605522682" height="12.291849807745052" fill="#3fb950" opacity="0.5"/>
<rect x="866.5678387944274" y="518.2801937991989" width="1.1528599605522682" height="20.719806200801145" fill="#3fb950" opacity="0.5"/>
<rect x="868.2180364228859" y="520.6347616836255" width="1.1528599605522682" height="18.36523831637453" fill="#f85149" opacity="0.5"/>
<rect x="869.8682340513444" y="524.1032655786678" width="1.1528599605522682" height="14.896734421332212" fill="#3fb950" opacity="0.5"/>
<rect x="871.5184316798029" y="509.2842143540978" width="1.1528599605522682" height="29.7157856459022" fill="#3fb950" opacity="0.5"/>
<rect x="873.1686293082614" y="515.086395412644" width="1.1528599605522682" height="23.913604587355962" fill="#f85149" opacity="0.5"/>
<rect x="874.81882693672" y="512.2739571199285" width="1.1528599605522682" height="26.72604288007153" fill="#3fb950" opacity="0.5"/>
<rect x="876.4690245651785" y="514.8327798689603" width="1.1528599605522682" height="24.1672201310397" fill="#f85149" opacity="0.5"/>
<rect x="878.119222193637" y="513.5209050247671" width="1.1528599605522682" height="25.479094975232897" fill="#3fb950" opacity="0.5"/>
<rect x="879.7694198220954" y="491.4378423035947" width="1.1528599605522682" height="47.56215769640528" fill="#3fb950" opacity="0.5"/>
<rect x="881.4196174505539" y="509.3808788512566" width="1.1528599605522682" height="29.619121148743375" fill="#f85149" opacity="0.5"/>
<rect x="883.0698150790124" y="518.0981214200115" width="1.1528599605522682" height="20.901878579988534" fill="#f85149" opacity="0.5"/>
<rect x="884.7200127074709" y="516.169387520248" width="1.1528599605522682" height="22.83061247975195" fill="#f85149" opacity="0.5"/>
<rect x="886.3702103359294" y="517.6417201032718" width="1.1528599605522682" height="21.358279896728163" fill="#f85149" opacity="0.5"/>
<rect x="888.0204079643879" y="524.5449892628405" width="1.1528599605522682" height="14.455010737159455" fill="#3fb950" opacity="0.5"/>
<rect x="889.6706055928464" y="523.2421023101192" width="1.1528599605522682" height="15.757897689880792" fill="#3fb950" opacity="0.5"/>
<rect x="891.320803221305" y="513.6698597502013" width="1.1528599605522682" height="25.33014024979866" fill="#f85149" opacity="0.5"/>
<rect x="892.9710008497634" y="521.5746614849206" width="1.1528599605522682" height="17.425338515079375" fill="#f85149" opacity="0.5"/>
<rect x="894.6211984782219" y="523.1903653156867" width="1.1528599605522682" height="15.809634684313323" fill="#3fb950" opacity="0.5"/>
<rect x="896.2713961066804" y="524.5291075330862" width="1.1528599605522682" height="14.470892466913824" fill="#3fb950" opacity="0.5"/>
<rect x="897.9215937351389" y="522.7138715818409" width="1.1528599605522682" height="16.286128418159137" fill="#3fb950" opacity="0.5"/>
<rect x="899.5717913635974" y="533.0565317847067" width="1.1528599605522682" height="5.943468215293251" fill="#3fb950" opacity="0.5"/>
<rect x="901.2219889920559" y="532.6784432753933" width="1.1528599605522682" height="6.321556724606694" fill="#3fb950" opacity="0.5"/>
<rect x="902.8721866205144" y="457.55283594244565" width="1.1528599605522682" height="81.44716405755435" fill="#3fb950" opacity="0.5"/>
<rect x="904.5223842489729" y="517.2865280366165" width="1.1528599605522682" height="21.71347196338354" fill="#f85149" opacity="0.5"/>
<rect x="906.1725818774314" y="484.36334162440363" width="1.1528599605522682" height="54.63665837559637" fill="#3fb950" opacity="0.5"/>
<rect x="907.8227795058899" y="492.47720000126026" width="1.1528599605522682" height="46.52279999873974" fill="#f85149" opacity="0.5"/>
<rect x="909.4729771343484" y="509.67229162331193" width="1.1528599605522682" height="29.327708376688065" fill="#f85149" opacity="0.5"/>
<rect x="911.1231747628069" y="511.8945389897826" width="1.1528599605522682" height="27.105461010217425" fill="#f85149" opacity="0.5"/>
<rect x="912.7733723912654" y="502.13232934396586" width="1.1528599605522682" height="36.867670656034136" fill="#3fb950" opacity="0.5"/>
<rect x="914.4235700197239" y="494.77875041724576" width="1.1528599605522682" height="44.22124958275424" fill="#3fb950" opacity="0.5"/>
<polyline points="880.3458498023715,152.79309458900104 881.99604743083,159.4277211491211 883.6462450592885,166.06234770924112 885.296442687747,172.6969742693612 886.9466403162055,179.3316008294813 888.596837944664,185.96622738960133 890.2470355731225,192.60085394972137 891.8972332015811,199.23548050984144 893.5474308300395,205.8701070699615 895.197628458498,212.50473363008152 896.8478260869565,219.13936019020156 898.498023715415,225.77398675032165 900.1482213438735,232.40861331044175 901.798418972332,239.04323987056173 903.4486166007905,245.67786643068183 905.098814229249,252.3124929908019 906.7490118577075,258.9471195509219 908.399209486166,265.581746111042 910.0494071146245,272.21637267116205 911.699604743083,278.8509992312821 913.3498023715415,285.4856257914022 915.0,292.12025235152225" stroke="#f85149" stroke-width="2.8" fill="none"/>
<polyline points="880.3458498023715,252.54265348987096 881.99604743083,250.8965055726164 883.6462450592885,249.2503576553619 885.296442687747,247.60420973810736 886.9466403162055,245.95806182085283 888.596837944664,244.3119139035983 890.2470355731225,242.66576598634379 891.8972332015811,241.01961806908926 893.5474308300395,239.3734701518347 895.197628458498,237.7273222345802 896.8478260869565,236.08117431732566 898.498023715415,234.43502640007117 900.1482213438735,232.7888784828167 901.798418972332,231.14273056556212 903.4486166007905,229.4965826483076 905.098814229249,227.85043473105307 906.7490118577075,226.20428681379857 908.399209486166,224.55813889654405 910.0494071146245,222.91199097928947 911.699604743083,221.265843062035 913.3498023715415,219.61969514478045 915.0,217.97354722752593" stroke="#3fb950" stroke-width="2.8" fill="none"/>
<polygon points="880.3458498023715,152.79309458900104 881.99604743083,159.4277211491211 883.6462450592885,166.06234770924112 885.296442687747,172.6969742693612 886.9466403162055,179.3316008294813 888.596837944664,185.96622738960133 890.2470355731225,192.60085394972137 891.8972332015811,199.23548050984144 893.5474308300395,205.8701070699615 895.197628458498,212.50473363008152 896.8478260869565,219.13936019020156 898.498023715415,225.77398675032165 900.1482213438735,232.40861331044175 901.798418972332,239.04323987056173 903.4486166007905,245.67786643068183 905.098814229249,252.3124929908019 906.7490118577075,258.9471195509219 908.399209486166,265.581746111042 910.0494071146245,272.21637267116205 910.0494071146245,222.91199097928947 908.399209486166,224.55813889654405 906.7490118577075,226.20428681379857 905.098814229249,227.85043473105307 903.4486166007905,229.4965826483076 901.798418972332,231.14273056556212 900.1482213438735,232.7888784828167 898.498023715415,234.43502640007117 896.8478260869565,236.08117431732566 895.197628458498,237.7273222345802 893.5474308300395,239.3734701518347 891.8972332015811,241.01961806908926 890.2470355731225,242.66576598634379 888.596837944664,244.3119139035983 886.9466403162055,245.95806182085283 885.296442687747,247.60420973810736 883.6462450592885,249.2503576553619 881.99604743083,250.8965055726164 880.3458498023715,252.54265348987096" fill="#FFD700" opacity="0.10"/>
<polygon points="873.3458498023715,143.79309458900104 887.3458498023715,143.79309458900104 880.3458498023715,153.79309458900104" fill="#f85149" stroke="#fff" stroke-width="1.5"/>
<text x="880.3458498023715" y="139.79309458900104" text-anchor="middle" font-size="9" fill="#f85149">¥7.39</text>
<polygon points="884.8972332015811,190.23548050984144 898.8972332015811,190.23548050984144 891.8972332015811,200.23548050984144" fill="#f85149" stroke="#fff" stroke-width="1.5"/>
<text x="891.8972332015811" y="186.23548050984144" text-anchor="middle" font-size="9" fill="#f85149">¥6.37</text>
<polygon points="881.596837944664,253.3119139035983 895.596837944664,253.3119139035983 888.596837944664,243.3119139035983" fill="#3fb950" stroke="#fff" stroke-width="1.5"/>
<text x="888.596837944664" y="262.31191390359834" text-anchor="middle" font-size="9" fill="#3fb950">¥5.38</text>
<polygon points="903.0494071146245,231.91199097928947 917.0494071146245,231.91199097928947 910.0494071146245,221.91199097928947" fill="#3fb950" stroke="#fff" stroke-width="1.5"/>
<text x="910.0494071146245" y="240.91199097928947" text-anchor="middle" font-size="9" fill="#3fb950">¥5.85</text>
<circle cx="911.699604743083" cy="222.00135596123377" r="8" fill="#f0883e" stroke="#fff" stroke-width="2.5"/>
<text x="911.699604743083" y="208.00135596123377" text-anchor="middle" font-size="11" fill="#f0883e" font-weight="bold">★ 突破 ¥5.87</text>
<polyline points="80.0,327.63501805569433 81.6501976284585,324.4477954924994 83.300395256917,329.0009705827779 84.9505928853755,325.81374801958293 86.60079051383399,329.45628809180573 88.25098814229248,334.0094631820842 89.90118577075098,329.9116056008336 91.55138339920948,329.45628809180573 93.20158102766798,324.90311300152723 94.85177865612648,319.4393028931931 96.50197628458498,319.89462040222094 98.15217391304347,323.08184296541583 99.80237154150197,323.99247798347153 101.45256916996047,330.8222406188893 103.10276679841897,326.72438303763863 104.75296442687747,333.0988281640285 106.40316205533597,338.5626382723626 108.05335968379447,339.0179557813905 109.70355731225297,341.2945433265297 111.35375494071147,340.83922581750187 113.00395256916997,346.7583534348639 114.65415019762847,349.49025848903096 116.30434782608695,354.95406859736516 117.95454545454545,362.69446625083856 119.60474308300395,356.3200211244487 121.25494071146245,359.5072436876436 122.90513833992095,354.95406859736516 124.55533596837944,358.5966086695879 126.20553359683794,357.6859736515322 127.85573122529644,359.96256119667146 129.50592885375494,359.05192617861576 131.15612648221344,357.2306561425044 132.80632411067194,361.78383123278286 134.45652173913044,349.0349409800031 136.10671936758894,341.74986083555757 137.75691699604744,347.6689884529196 139.40711462450594,349.49025848903096 141.05731225296444,350.40089350708666 142.70750988142294,354.95406859736516 144.35770750988144,351.7668460341702 146.00790513833994,350.40089350708666 147.65810276679844,353.5881160702816 149.30830039525694,360.87319621472716 150.9584980237154,359.5072436876436 152.6086956521739,356.77533863347657 154.2588932806324,359.5072436876436 155.9090909090909,365.8816888140335 157.5592885375494,362.2391487418107 159.2094861660079,360.87319621472716 160.8596837944664,362.69446625083856 162.5098814229249,364.06041877792205 164.1600790513834,364.5157362869499 165.8102766798419,367.247641341117 167.4604743083004,367.247641341117 169.11067193675888,365.8816888140335 170.76086956521738,366.7923238320892 172.41106719367588,363.60510126889426 174.06126482213438,361.78383123278286 175.71146245059288,363.14978375986635 177.36166007905138,361.78383123278286 179.01185770750988,359.5072436876436 180.66205533596838,356.77533863347657 182.31225296442688,356.3200211244487 183.96245059288538,358.5966086695879 185.61264822134387,360.87319621472716 187.26284584980237,356.77533863347657 188.91304347826087,354.95406859736516 190.56324110671937,354.4987510883373 192.21343873517787,356.3200211244487 193.86363636363637,358.1412911605601 195.51383399209487,357.2306561425044 197.16403162055337,353.5881160702816 198.81422924901187,354.4987510883373 200.46442687747037,358.5966086695879 202.11462450592884,359.05192617861576 203.76482213438737,360.87319621472716 205.41501976284584,362.69446625083856 207.06521739130437,364.06041877792205 208.71541501976284,364.97105379597775 210.36561264822134,361.328513723755 212.01581027667984,363.14978375986635 213.66600790513834,362.2391487418107 215.31620553359684,361.78383123278286 216.96640316205534,357.6859736515322 218.61660079051384,359.05192617861576 220.26679841897234,358.5966086695879 221.9169960474308,360.87319621472716 223.56719367588934,358.5966086695879 225.2173913043478,361.328513723755 226.86758893280634,359.96256119667146 228.5177865612648,358.1412911605601 230.1679841897233,360.87319621472716 231.8181818181818,361.328513723755 233.4683794466403,361.78383123278286 235.1185770750988,364.5157362869499 236.7687747035573,359.96256119667146 238.4189723320158,361.328513723755 240.0691699604743,360.87319621472716 241.7193675889328,355.86470361542086 243.3695652173913,353.5881160702816 245.0197628458498,349.49025848903096 246.6699604743083,345.39240090778037 248.3201581027668,330.8222406188893 249.97035573122528,314.8861278029146 251.6205533596838,311.6989052397197 253.27075098814228,323.99247798347153 254.9209486166008,328.54565307375003 256.57114624505925,323.99247798347153 258.22134387351775,322.1712079473602 259.87154150197625,312.1542227487475 261.52173913043475,326.72438303763863 263.17193675889325,327.1797005466665 264.82213438735175,328.54565307375003 266.47233201581025,325.3584305105551 268.12252964426875,323.08184296541583 269.77272727272725,324.4477954924994 271.42292490118575,321.2605729293045 273.07312252964425,314.43081029388674 274.72332015810275,319.89462040222094 276.37351778656125,318.07335036610954 278.02371541501975,307.60104765846904 279.67391304347825,309.8776352036083 281.32411067193675,312.1542227487475 282.97430830039525,306.69041264041334 284.62450592885375,304.4138250952741 286.27470355731225,295.76279242374505 287.92490118577075,301.681920041107 289.57509881422925,302.59255505916275 291.22529644268775,305.3244601133298 292.87549407114625,305.3244601133298 294.52569169960475,304.4138250952741 296.17588932806325,310.788270221664 297.82608695652175,316.707397839026 299.47628458498025,315.34144531194244 301.12648221343875,308.9670001855526 302.77667984189725,307.1457301494412 304.42687747035575,309.8776352036083 306.07707509881425,303.95850758624624 307.72727272727275,306.69041264041334 309.37747035573125,306.2350951313855 311.02766798418975,302.59255505916275 312.67786561264825,304.4138250952741 314.32806324110675,297.58406245985645 315.9782608695652,296.6734274418007 317.62845849802375,277.55009206263117 319.27865612648225,277.0947745536033 320.92885375494075,287.5670772612438 322.5790513833992,285.7458072251324 324.2292490118577,279.8266796077704 325.87944664031625,279.37136209874245 327.52964426877475,279.8266796077704 329.1798418972332,282.55858466193746 330.8300395256917,285.7458072251324 332.4802371541502,298.4946974779121 334.13043478260875,295.76279242374505 335.7806324110672,299.4053324959678 337.4308300395257,298.4946974779121 339.0810276679842,316.707397839026 340.7312252964427,321.2605729293045 342.3814229249012,328.54565307375003 344.0316205533597,326.72438303763863 345.6818181818182,321.7158904383323 347.3320158102767,327.63501805569433 348.9822134387352,329.45628809180573 350.6324110671937,329.9116056008336 352.2826086956522,340.83922581750187 353.9328063241107,343.1158133626411 355.58300395256913,336.2860507272234 357.2332015810277,335.3754157091677 358.8833992094862,335.3754157091677 360.5335968379447,341.74986083555757 362.1837944664031,341.2945433265297 363.8339920948616,331.732875636945 365.4841897233202,332.6435106550006 367.1343873517787,329.9116056008336 368.7845849802371,332.6435106550006 370.4347826086956,329.45628809180573 372.0849802371541,334.9200982001399 373.7351778656127,333.0988281640285 375.3853754940712,333.0988281640285 377.0355731225296,332.6435106550006 378.6857707509881,332.1881931459728 380.3359683794466,331.2775581279171 381.9861660079052,330.8222406188893 383.6363636363636,326.2690655286108 385.2865612648221,320.8052554202766 386.9367588932806,323.99247798347153 388.5869565217391,323.5371604744437 390.2371541501976,324.90311300152723 391.8873517786561,326.72438303763863 393.5375494071146,321.7158904383323 395.1877470355731,327.1797005466665 396.8379446640316,324.90311300152723 398.4881422924901,325.81374801958293 400.1383399209486,329.9116056008336 401.7885375494071,325.3584305105551 403.4387351778656,326.72438303763863 405.08893280632407,324.4477954924994 406.7391304347826,325.3584305105551 408.3893280632411,329.45628809180573 410.0395256916996,328.0903355647222 411.68972332015807,325.81374801958293 413.3399209486166,328.54565307375003 414.9901185770751,327.63501805569433 416.6403162055336,329.9116056008336 418.29051383399207,325.81374801958293 419.94071146245057,322.1712079473602 421.5909090909091,323.08184296541583 423.2411067193676,326.2690655286108 424.89130434782606,322.626525456388 426.54150197628456,319.89462040222094 428.19169960474306,318.98398538416524 429.8418972332016,320.3499379112488 431.49209486166006,319.89462040222094 433.14229249011856,321.2605729293045 434.79249011857706,334.464780691112 436.44268774703556,335.3754157091677 438.09288537549406,329.9116056008336 439.74308300395256,332.6435106550006 441.39328063241106,337.6520032543069 443.04347826086956,340.83922581750187 444.69367588932806,337.6520032543069 446.34387351778656,337.6520032543069 447.99407114624506,335.8307332181956 449.64426877470356,351.31152852514236 451.29446640316206,352.22216354319806 452.9446640316205,348.5796234709753 454.59486166007906,344.0264483806968 456.24505928853756,343.57113087166897 457.89525691699606,340.83922581750187 459.54545454545456,341.74986083555757 461.195652173913,344.9370833987525 462.84584980237156,342.2051783445854 464.49604743083006,340.83922581750187 466.14624505928856,341.74986083555757 467.796442687747,339.4732732904183 469.44664031620556,339.92859079944617 471.09683794466406,341.74986083555757 472.74703557312256,341.2945433265297 474.397233201581,346.30303592583607 476.0474308300395,344.0264483806968 477.69762845849806,329.45628809180573 479.34782608695656,327.1797005466665 480.998023715415,322.1712079473602 482.6482213438735,317.6180328570817 484.298418972332,317.6180328570817 485.94861660079056,313.9754927848589 487.598814229249,315.34144531194244 489.2490118577075,316.707397839026 490.899209486166,314.43081029388674 492.5494071146245,315.34144531194244 494.199604743083,311.2435877306918 495.8498023715415,308.0563651674969 497.5,308.51168267652474 499.1501976284585,308.51168267652474 500.800395256917,311.6989052397197 502.45059288537544,309.8776352036083 504.10079051383394,306.69041264041334 505.75098814229256,307.1457301494412 507.401185770751,304.4138250952741 509.0513833992095,304.4138250952741 510.701581027668,302.59255505916275 512.3517786561265,301.681920041107 514.001976284585,303.04787256819054 515.6521739130435,296.2181099327729 517.302371541502,294.85215740568935 518.9525691699605,297.1287449508286 520.602766798419,297.58406245985645 522.2529644268775,298.4946974779121 523.903162055336,303.5031900772184 525.5533596837945,298.4946974779121 527.203557312253,298.4946974779121 528.8537549407115,299.86065000499565 530.50395256917,304.86914260430194 532.1541501976285,286.20112473416026 533.804347826087,289.3883472973552 535.4545454545455,282.1032671529096 537.1047430830039,278.9160445897147 538.7549407114625,281.19263213485385 540.405138339921,260.2480267195729 542.0553359683795,271.17564693624126 543.705533596838,279.8266796077704 545.3557312252965,282.1032671529096 547.005928853755,278.9160445897147 548.6561264822135,284.8351722070767 550.306324110672,279.8266796077704 551.9565217391304,275.2735045174919 553.6067193675889,270.7203294272134 555.2569169960475,269.35437690012986 556.907114624506,274.3628694994362 558.5573122529645,274.3628694994362 560.207509881423,276.63945704457547 561.8577075098815,281.6479496438818 563.50790513834,282.55858466193746 565.1581027667984,283.924537189021 566.8083003952569,263.43524928276787 568.4584980237154,240.6693738313755 570.108695652174,215.62691083484395 571.7588932806325,188.30786029317312 573.409090909091,218.35881588901103 575.0592885375495,191.03976534734022 576.709486166008,184.2100027119225 578.3596837944664,153.70372960705674 580.0098814229249,138.67825180913778 581.6600790513834,163.26539729664154 583.3102766798419,184.2100027119225 584.9604743083004,196.0482579466465 586.610671936759,213.35032328970473 588.2608695652175,214.71627581678825 589.911067193676,206.52056065428698 591.5612648221344,205.60992563623128 593.2114624505929,211.98437076262115 594.8616600790514,217.90349837998318 596.5118577075099,225.64389603345657 598.1620553359684,224.73326101540087 599.8122529644269,220.63540343415022 601.4624505928854,222.00135596123377 603.1126482213439,221.54603845220592 604.7628458498024,214.71627581678825 606.4130434782609,226.5545310515123 608.0632411067194,224.73326101540087 609.7134387351779,222.45667347026162 611.3636363636364,231.10770614179071 613.0138339920949,231.10770614179071 614.6640316205534,232.92897617790211 616.3142292490119,233.38429368692996 617.9644268774704,233.38429368692996 619.6146245059289,242.03532635845906 621.2648221343874,238.84810379526414 622.9150197628459,237.93746877720847 624.5652173913044,232.92897617790211 626.2154150197629,235.66088123206922 627.8656126482214,233.83961119595781 629.5158102766799,233.38429368692996 631.1660079051383,233.38429368692996 632.8162055335968,229.74175361470716 634.4664031620554,232.47365866887426 636.1166007905139,236.57151625012492 637.7667984189724,242.03532635845906 639.4169960474309,240.2140563223477 641.0671936758894,245.222548921654 642.7173913043479,247.49913646679326 644.3675889328063,247.04381895776538 646.0177865612648,251.59699404804388 647.6679841897233,253.87358159318308 649.3181818181818,252.50762906609953 650.9683794466404,253.87358159318308 652.6185770750989,251.14167653901598 654.2687747035574,247.49913646679326 655.9189723320159,250.23104152096033 657.5691699604743,248.86508899387672 659.2193675889328,247.04381895776538 660.8695652173913,253.41826408415523 662.5197628458498,253.87358159318308 664.1699604743083,247.9544539758211 665.8201581027668,243.4012788855426 667.4703557312254,237.93746877720847 669.1205533596839,239.30342130429196 670.7707509881424,227.465166069568 672.4209486166008,230.19707112373501 674.0711462450593,234.75024621401352 675.7213438735178,242.03532635845906 677.3715415019763,247.9544539758211 679.0217391304348,242.03532635845906 680.6719367588933,236.57151625012492 682.3221343873519,211.07373574456545 683.9723320158104,198.7801630008136 685.6225296442688,215.62691083484395 687.2727272727273,211.98437076262115 688.9229249011858,210.6184182355376 690.5731225296443,214.2609583077604 692.2233201581028,219.72476841609458 693.8735177865613,219.26945090706673 695.5237154150198,209.70778321748193 697.1739130434783,206.97587816331483 698.8241106719368,215.1715933258161 700.4743083003953,225.64389603345657 702.1245059288538,220.18008592512237 703.7747035573123,232.92897617790211 705.4249011857708,230.6523886327629 707.0750988142292,225.18857852442872 708.7252964426877,232.92897617790211 710.3754940711462,233.83961119595781 712.0256916996047,224.27794350637302 713.6758893280632,229.74175361470716 715.3260869565217,230.19707112373501 716.9762845849802,235.66088123206922 718.6264822134387,242.03532635845906 720.2766798418972,239.7587388133198 721.9268774703557,237.93746877720847 723.5770750988142,242.4906438674869 725.2272727272727,243.4012788855426 726.8774703557312,252.05231155707168 728.5276679841896,255.23953412026665 730.1778656126481,251.59699404804388 731.8280632411067,257.060804156378 733.4782608695652,258.8820741924894 735.1284584980237,257.9714391744337 736.7786561264822,252.05231155707168 738.4288537549407,253.87358159318308 740.0790513833992,257.9714391744337 741.7292490118576,255.23953412026665 743.3794466403161,253.41826408415523 745.0296442687746,252.50762906609953 746.6798418972332,253.41826408415523 748.3300395256917,256.1501691383223 749.9802371541502,252.96294657512738 751.6304347826087,251.59699404804388 753.2806324110672,251.14167653901598 754.9308300395257,242.4906438674869 756.5810276679841,234.29492870498567 758.2312252964426,234.29492870498567 759.8814229249011,233.83961119595781 761.5316205533596,234.75024621401352 763.1818181818182,238.84810379526414 764.8320158102767,237.93746877720847 766.4822134387352,236.11619874109707 768.1324110671937,231.56302365081856 769.7826086956521,205.60992563623128 771.4328063241106,177.3802400765048 773.0830039525691,145.96333195358332 774.7332015810276,111.81451877649482 776.3833992094861,74.02316552718354 778.0335968379446,108.62729621329987 779.6837944664032,134.1250767188593 781.3339920948617,163.72071480566933 782.9841897233201,181.47809765775543 784.6343873517786,150.5165070438618 786.2845849802371,124.56340902927452 787.9347826086956,128.66126661052516 789.5849802371541,137.76761679108208 791.2351778656126,150.97182455288967 792.8853754940711,117.27832888482897 794.5355731225296,154.61436462511244 796.1857707509881,162.8100797876137 797.8359683794466,150.06118953483394 799.4861660079051,159.1675397153909 801.1363636363636,157.3462696792795 802.7865612648221,165.54198484178073 804.4367588932806,175.10365253136553 806.0869565217391,178.74619260358833 807.7371541501976,180.11214513067188 809.3873517786561,178.74619260358833 811.0375494071146,170.55047744108705 812.6877470355731,181.93341516678322 814.3379446640316,189.21849531122882 815.9881422924901,159.1675397153909 817.6383399209486,173.28238249525413 819.2885375494071,178.29087509456048 820.9387351778656,193.31635289247942 822.5889328063241,188.76317780220097 824.2391304347826,187.39722527511742 825.889328063241,197.8695279827579 827.5395256916996,197.41421047373004 829.1897233201581,206.97587816331483 830.8399209486166,218.81413339803882 832.4901185770751,206.52056065428698 834.1403162055336,197.41421047373004 835.7905138339921,201.96738556400854 837.4407114624506,199.23548050984144 839.0909090909091,196.9588929647022 840.7411067193675,195.59294043761864 842.391304347826,201.0567505459528 844.0415019762846,196.50357545567437 845.6916996047431,199.23548050984144 847.3418972332016,194.68230541956297 848.9920948616601,196.9588929647022 850.6422924901186,200.14611552789714 852.2924901185771,201.96738556400854 853.9426877470355,222.00135596123377 855.592885375494,215.62691083484395 857.2430830039525,215.1715933258161 858.8932806324111,211.52905325359333 860.5434782608696,208.34183069039838 862.1936758893281,204.6992906181756 863.8438735177866,193.77167040150727 865.4940711462451,192.40571787442377 867.1442687747035,182.84405018483892 868.794466403162,198.7801630008136 870.4446640316205,197.8695279827579 872.094861660079,188.30786029317312 873.7450592885375,193.31635289247942 875.3952569169961,176.01428754942125 877.0454545454546,177.3802400765048 878.6956521739131,172.8270649862263 880.3458498023715,168.27388989594783 881.99604743083,173.28238249525413 883.6462450592885,188.76317780220097 885.296442687747,218.81413339803882 886.9466403162055,236.57151625012492 888.596837944664,236.11619874109707 890.2470355731225,210.6184182355376 891.8972332015811,214.71627581678825 893.5474308300395,225.64389603345657 895.197628458498,222.91199097928947 896.8478260869565,222.91199097928947 898.498023715415,214.71627581678825 900.1482213438735,187.39722527511742 901.798418972332,157.3462696792795 903.4486166007905,157.3462696792795 905.098814229249,190.58444783831237 906.7490118577075,185.57595523900605 908.399209486166,209.70778321748193 910.0494071146245,213.80564079873255 911.699604743083,222.00135596123377 913.3498023715415,195.13762292859082 915.0,189.67381282025667" stroke="#58a6ff" stroke-width="1.8" fill="none"/>
<line x1="80" y1="130.48253664663656" x2="915" y2="130.48253664663656" stroke="#FFD700" stroke-width="1.5" stroke-dasharray="6,4"/>
<text x="920" y="135.48253664663656" font-size="11" fill="#FFD700" font-weight="bold">▼ 目标 7.88</text>
<line x1="80" y1="222.00135596123377" x2="915" y2="222.00135596123377" stroke="#3fb950" stroke-width="1" stroke-dasharray="3,3"/>
<text x="920" y="227.00135596123377" font-size="11" fill="#3fb950">突破价 5.87</text>
<line x1="915.0" y1="189.67381282025667" x2="915" y2="189.67381282025667" stroke="#88ccff" stroke-width="1.5"/>
<text x="920" y="194.67381282025667" font-size="11" fill="#88ccff" font-weight="bold">● 现价 6.58</text>
<text x="80" y="623" font-size="13" fill="#58a6ff" font-weight="bold">上榜理由 (综合得分: 95):</text>
<text x="90" y="641" font-size="11" fill="#c9d1d9">1. 形态于6天前完成收敛，突破时间窗口理想</text>
<text x="90" y="657" font-size="11" fill="#c9d1d9">2. 突破后日线胜率95%，表现优秀</text>
<text x="90" y="673" font-size="11" fill="#c9d1d9">3. 量度目标涨幅34.2%（目标¥7.88 / 突破¥5.87）</text>
<text x="90" y="689" font-size="11" fill="#c9d1d9">4. 收敛前上涨趋势+8.3%，确认中继属性</text>
<text x="90" y="705" font-size="11" fill="#c9d1d9">5. 三角持续18个交易日，整理充分</text>
</svg>