<svg xmlns="http://www.w3.org/2000/svg" viewBox="0 0 1000 720" width="1000" height="720">
<rect width="1000" height="720" fill="#0d1117"/>
<text x="500.0" y="24" text-anchor="middle" font-size="17" fill="#58a6ff" font-weight="bold">光迅科技 (002281.SZ)  三角收敛上涨中继  评分:89/100</text>
<line x1="80" y1="374.0" x2="915" y2="374.0" stroke="#21262d" stroke-width="0.5"/>
<text x="72" y="378.0" text-anchor="end" font-size="10" fill="#8b949e">25.34</text>
<line x1="80" y1="310.20000000000005" x2="915" y2="310.20000000000005" stroke="#21262d" stroke-width="0.5"/>
<text x="72" y="314.20000000000005" text-anchor="end" font-size="10" fill="#8b949e">77.74</text>
<line x1="80" y1="246.40000000000003" x2="915" y2="246.40000000000003" stroke="#21262d" stroke-width="0.5"/>
<text x="72" y="250.40000000000003" text-anchor="end" font-size="10" fill="#8b949e">130.15</text>
<line x1="80" y1="182.60000000000002" x2="915" y2="182.60000000000002" stroke="#21262d" stroke-width="0.5"/>
<text x="72" y="186.60000000000002" text-anchor="end" font-size="10" fill="#8b949e">182.56</text>
<line x1="80" y1="118.80000000000001" x2="915" y2="118.80000000000001" stroke="#21262d" stroke-width="0.5"/>
<text x="72" y="122.80000000000001" text-anchor="end" font-size="10" fill="#8b949e">234.96</text>
<line x1="80" y1="55.0" x2="915" y2="55.0" stroke="#21262d" stroke-width="0.5"/>
<text x="72" y="59.0" text-anchor="end" font-size="10" fill="#8b949e">287.37</text>
<text x="80.0" y="554.0" text-anchor="middle" font-size="9" fill="#8b949e">2024-05-06</text>
<text x="183.5658914728682" y="554.0" text-anchor="middle" font-size="9" fill="#8b949e">2024-08-05</text>
<text x="287.1317829457364" y="554.0" text-anchor="middle" font-size="9" fill="#8b949e">2024-11-12</text>
<text x="390.69767441860466" y="554.0" text-anchor="middle" font-size="9" fill="#8b949e">2025-02-19</text>
<text x="494.26356589147287" y="554.0" text-anchor="middle" font-size="9" fill="#8b949e">2025-05-26</text>
<text x="597.8294573643411" y="554.0" text-anchor="middle" font-size="9" fill="#8b949e">2025-08-25</text>
<text x="701.3953488372093" y="554.0" text-anchor="middle" font-size="9" fill="#8b949e">2025-12-01</text>
<text x="804.9612403100775" y="554.0" text-anchor="middle" font-size="9" fill="#8b949e">2026-03-11</text>
<text x="908.5271317829457" y="554.0" text-anchor="middle" font-size="9" fill="#8b949e">2026-06-15</text>
<rect x="874.5445736434109" y="55" width="27.50968992248056" height="484.0" fill="#FFD700" opacity="0.06" rx="2"/>
<rect x="79.43471953578337" y="508.2903783507025" width="1.1305609284332687" height="30.709621649297503" fill="#3fb950" opacity="0.5"/>
<rect x="81.05293659004694" y="491.70100715366164" width="1.1305609284332687" height="47.298992846338365" fill="#f85149" opacity="0.5"/>
<rect x="82.67115364431051" y="515.7692294364638" width="1.1305609284332687" height="23.230770563536225" fill="#f85149" opacity="0.5"/>
<rect x="84.28937069857407" y="509.43322551269364" width="1.1305609284332687" height="29.56677448730636" fill="#3fb950" opacity="0.5"/>
<rect x="85.90758775283764" y="511.38436187962424" width="1.1305609284332687" height="27.615638120375763" fill="#f85149" opacity="0.5"/>
<rect x="87.52580480710121" y="520.8811560196477" width="1.1305609284332687" height="18.118843980352267" fill="#f85149" opacity="0.5"/>
<rect x="89.14402186136476" y="516.2970584064567" width="1.1305609284332687" height="22.7029415935433" fill="#f85149" opacity="0.5"/>
<rect x="90.76223891562833" y="520.853812935437" width="1.1305609284332687" height="18.146187064563037" fill="#3fb950" opacity="0.5"/>
<rect x="92.3804559698919" y="495.59093316919314" width="1.1305609284332687" height="43.409066830806864" fill="#3fb950" opacity="0.5"/>
<rect x="93.99867302415547" y="512.9703877961335" width="1.1305609284332687" height="26.029612203866463" fill="#3fb950" opacity="0.5"/>
<rect x="95.61689007841903" y="492.19042320044736" width="1.1305609284332687" height="46.809576799552644" fill="#3fb950" opacity="0.5"/>
<rect x="97.2351071326826" y="508.63646674122117" width="1.1305609284332687" height="30.36353325877883" fill="#f85149" opacity="0.5"/>
<rect x="98.85332418694617" y="518.5549662625828" width="1.1305609284332687" height="20.445033737417248" fill="#f85149" opacity="0.5"/>
<rect x="100.47154124120972" y="513.7101279225587" width="1.1305609284332687" height="25.28987207744126" fill="#f85149" opacity="0.5"/>
<rect x="102.08975829547329" y="510.7145731042035" width="1.1305609284332687" height="28.28542689579649" fill="#f85149" opacity="0.5"/>
<rect x="103.70797534973686" y="518.5558907297767" width="1.1305609284332687" height="20.444109270223294" fill="#3fb950" opacity="0.5"/>
<rect x="105.32619240400042" y="518.4254326731068" width="1.1305609284332687" height="20.574567326893202" fill="#f85149" opacity="0.5"/>
<rect x="106.94440945826399" y="523.5201820329603" width="1.1305609284332687" height="15.479817967039708" fill="#f85149" opacity="0.5"/>
<rect x="108.56262651252756" y="524.9022195096716" width="1.1305609284332687" height="14.097780490328432" fill="#f85149" opacity="0.5"/>
<rect x="110.18084356679113" y="521.961550013575" width="1.1305609284332687" height="17.038449986425007" fill="#f85149" opacity="0.5"/>
<rect x="111.79906062105469" y="512.657053245512" width="1.1305609284332687" height="26.342946754488025" fill="#3fb950" opacity="0.5"/>
<rect x="113.41727767531826" y="521.1161460734027" width="1.1305609284332687" height="17.88385392659734" fill="#f85149" opacity="0.5"/>
<rect x="115.03549472958183" y="521.6130848900224" width="1.1305609284332687" height="17.386915109977622" fill="#f85149" opacity="0.5"/>
<rect x="116.6537117838454" y="508.80275773641165" width="1.1305609284332687" height="30.19724226358835" fill="#3fb950" opacity="0.5"/>
<rect x="118.27192883810896" y="516.560883149292" width="1.1305609284332687" height="22.439116850708047" fill="#f85149" opacity="0.5"/>
<rect x="119.89014589237253" y="523.4160499826754" width="1.1305609284332687" height="15.583950017324582" fill="#3fb950" opacity="0.5"/>
<rect x="121.50836294663608" y="525.9234615357626" width="1.1305609284332687" height="13.076538464237387" fill="#3fb950" opacity="0.5"/>
<rect x="123.12658000089965" y="521.5819357547048" width="1.1305609284332687" height="17.418064245295227" fill="#3fb950" opacity="0.5"/>
<rect x="124.74479705516322" y="492.1333553816131" width="1.1305609284332687" height="46.866644618386886" fill="#3fb950" opacity="0.5"/>
<rect x="126.36301410942679" y="513.0933648806883" width="1.1305609284332687" height="25.90663511931166" fill="#f85149" opacity="0.5"/>
<rect x="127.98123116369034" y="505.26966458383845" width="1.1305609284332687" height="33.73033541616155" fill="#3fb950" opacity="0.5"/>
<rect x="129.59944821795392" y="519.7701759302631" width="1.1305609284332687" height="19.22982406973688" fill="#f85149" opacity="0.5"/>
<rect x="131.21766527221746" y="521.6024510586033" width="1.1305609284332687" height="17.397548941396735" fill="#f85149" opacity="0.5"/>
<rect x="132.83588232648103" y="492.9977797425618" width="1.1305609284332687" height="46.00222025743818" fill="#3fb950" opacity="0.5"/>
<rect x="134.4540993807446" y="485.48340797182675" width="1.1305609284332687" height="53.51659202817325" fill="#3fb950" opacity="0.5"/>
<rect x="136.07231643500816" y="494.8896780875293" width="1.1305609284332687" height="44.11032191247068" fill="#3fb950" opacity="0.5"/>
<rect x="137.69053348927173" y="505.0975210884427" width="1.1305609284332687" height="33.902478911557296" fill="#3fb950" opacity="0.5"/>
<rect x="139.3087505435353" y="511.0813390721175" width="1.1305609284332687" height="27.918660927882513" fill="#f85149" opacity="0.5"/>
<rect x="140.92696759779886" y="506.3215976094658" width="1.1305609284332687" height="32.67840239053419" fill="#3fb950" opacity="0.5"/>
<rect x="142.54518465206243" y="502.4455254888328" width="1.1305609284332687" height="36.5544745111672" fill="#3fb950" opacity="0.5"/>
<rect x="144.163401706326" y="512.9547029972358" width="1.1305609284332687" height="26.045297002764187" fill="#f85149" opacity="0.5"/>
<rect x="145.78161876058957" y="521.4891505557491" width="1.1305609284332687" height="17.51084944425088" fill="#f85149" opacity="0.5"/>
<rect x="147.39983581485313" y="521.808792464105" width="1.1305609284332687" height="17.191207535895046" fill="#f85149" opacity="0.5"/>
<rect x="149.01805286911667" y="513.9690467605867" width="1.1305609284332687" height="25.030953239413293" fill="#3fb950" opacity="0.5"/>
<rect x="150.63626992338027" y="519.9254913362154" width="1.1305609284332687" height="19.074508663784627" fill="#f85149" opacity="0.5"/>
<rect x="152.2544869776438" y="509.8978973099067" width="1.1305609284332687" height="29.102102690093318" fill="#3fb950" opacity="0.5"/>
<rect x="153.8727040319074" y="514.4838077967084" width="1.1305609284332687" height="24.516192203291553" fill="#f85149" opacity="0.5"/>
<rect x="155.49092108617094" y="512.1162587870374" width="1.1305609284332687" height="26.883741212962605" fill="#f85149" opacity="0.5"/>
<rect x="157.10913814043454" y="523.19561127203" width="1.1305609284332687" height="15.804388727970036" fill="#f85149" opacity="0.5"/>
<rect x="158.72735519469808" y="521.6354007740848" width="1.1305609284332687" height="17.364599225915185" fill="#f85149" opacity="0.5"/>
<rect x="160.34557224896167" y="507.60637179436014" width="1.1305609284332687" height="31.393628205639857" fill="#3fb950" opacity="0.5"/>
<rect x="161.9637893032252" y="510.6083421527807" width="1.1305609284332687" height="28.391657847219278" fill="#f85149" opacity="0.5"/>
<rect x="163.58200635748878" y="511.5973958375243" width="1.1305609284332687" height="27.40260416247571" fill="#f85149" opacity="0.5"/>
<rect x="165.20022341175235" y="521.1017012734982" width="1.1305609284332687" height="17.89829872650182" fill="#f85149" opacity="0.5"/>
<rect x="166.81844046601591" y="518.0875964635947" width="1.1305609284332687" height="20.91240353640535" fill="#3fb950" opacity="0.5"/>
<rect x="168.43665752027948" y="523.4195314867885" width="1.1305609284332687" height="15.580468513211486" fill="#f85149" opacity="0.5"/>
<rect x="170.05487457454305" y="523.8577830278584" width="1.1305609284332687" height="15.142216972141568" fill="#f85149" opacity="0.5"/>
<rect x="171.67309162880662" y="523.7855565696464" width="1.1305609284332687" height="15.21444343035364" fill="#f85149" opacity="0.5"/>
<rect x="173.29130868307018" y="525.7578991321816" width="1.1305609284332687" height="13.242100867818408" fill="#3fb950" opacity="0.5"/>
<rect x="174.90952573733375" y="525.82757265129" width="1.1305609284332687" height="13.172427348710016" fill="#3fb950" opacity="0.5"/>
<rect x="176.5277427915973" y="527.3025272766183" width="1.1305609284332687" height="11.69747272338168" fill="#f85149" opacity="0.5"/>
<rect x="178.1459598458609" y="520.0571869331891" width="1.1305609284332687" height="18.942813066810913" fill="#3fb950" opacity="0.5"/>
<rect x="179.76417690012445" y="522.5439930304353" width="1.1305609284332687" height="16.45600696956467" fill="#f85149" opacity="0.5"/>
<rect x="181.38239395438802" y="521.8218817066171" width="1.1305609284332687" height="17.17811829338291" fill="#f85149" opacity="0.5"/>
<rect x="183.00061100865156" y="512.7254884047534" width="1.1305609284332687" height="26.274511595246622" fill="#f85149" opacity="0.5"/>
<rect x="184.61882806291516" y="523.4932159477825" width="1.1305609284332687" height="15.50678405221754" fill="#3fb950" opacity="0.5"/>
<rect x="186.2370451171787" y="524.5312721307441" width="1.1305609284332687" height="14.468727869255872" fill="#3fb950" opacity="0.5"/>
<rect x="187.8552621714423" y="526.1699615339068" width="1.1305609284332687" height="12.830038466093242" fill="#f85149" opacity="0.5"/>
<rect x="189.47347922570583" y="528.1400879977786" width="1.1305609284332687" height="10.85991200222145" fill="#f85149" opacity="0.5"/>
<rect x="191.0916962799694" y="530.3767347475714" width="1.1305609284332687" height="8.62326525242861" fill="#f85149" opacity="0.5"/>
<rect x="192.70991333423297" y="530.2665444867393" width="1.1305609284332687" height="8.733455513260651" fill="#3fb950" opacity="0.5"/>
<rect x="194.32813038849653" y="529.8555598105105" width="1.1305609284332687" height="9.1444401894895" fill="#f85149" opacity="0.5"/>
<rect x="195.9463474427601" y="528.1243155056275" width="1.1305609284332687" height="10.875684494372535" fill="#3fb950" opacity="0.5"/>
<rect x="197.56456449702367" y="519.6786864605924" width="1.1305609284332687" height="19.321313539407583" fill="#3fb950" opacity="0.5"/>
<rect x="199.18278155128723" y="526.6840161066233" width="1.1305609284332687" height="12.31598389337671" fill="#3fb950" opacity="0.5"/>
<rect x="200.8009986055508" y="526.3958675500934" width="1.1305609284332687" height="12.604132449906615" fill="#f85149" opacity="0.5"/>
<rect x="202.41921565981437" y="529.8544017678288" width="1.1305609284332687" height="9.14559823217121" fill="#f85149" opacity="0.5"/>
<rect x="204.0374327140779" y="524.3724760402416" width="1.1305609284332687" height="14.627523959758378" fill="#f85149" opacity="0.5"/>
<rect x="205.6556497683415" y="527.6137653847913" width="1.1305609284332687" height="11.38623461520865" fill="#3fb950" opacity="0.5"/>
<rect x="207.27386682260504" y="517.1411674369069" width="1.1305609284332687" height="21.858832563093074" fill="#f85149" opacity="0.5"/>
<rect x="208.89208387686864" y="524.555455799146" width="1.1305609284332687" height="14.444544200854011" fill="#3fb950" opacity="0.5"/>
<rect x="210.5103009311322" y="529.7707932170736" width="1.1305609284332687" height="9.22920678292644" fill="#3fb950" opacity="0.5"/>
<rect x="212.12851798539577" y="526.7301566904432" width="1.1305609284332687" height="12.26984330955679" fill="#3fb950" opacity="0.5"/>
<rect x="213.74673503965934" y="522.7321942259462" width="1.1305609284332687" height="16.26780577405384" fill="#3fb950" opacity="0.5"/>
<rect x="215.3649520939229" y="519.4263651056414" width="1.1305609284332687" height="19.573634894358634" fill="#f85149" opacity="0.5"/>
<rect x="216.98316914818645" y="530.0128290549294" width="1.1305609284332687" height="8.987170945070602" fill="#3fb950" opacity="0.5"/>
<rect x="218.60138620245002" y="529.6961916649537" width="1.1305609284332687" height="9.303808335046256" fill="#f85149" opacity="0.5"/>
<rect x="220.21960325671358" y="529.4317866714329" width="1.1305609284332687" height="9.56821332856714" fill="#f85149" opacity="0.5"/>
<rect x="221.83782031097715" y="524.0245329783934" width="1.1305609284332687" height="14.975467021606619" fill="#f85149" opacity="0.5"/>
<rect x="223.45603736524072" y="525.8647365603096" width="1.1305609284332687" height="13.135263439690448" fill="#3fb950" opacity="0.5"/>
<rect x="225.07425441950429" y="524.7463213943442" width="1.1305609284332687" height="14.25367860565575" fill="#3fb950" opacity="0.5"/>
<rect x="226.69247147376785" y="530.9984348376476" width="1.1305609284332687" height="8.001565162352449" fill="#f85149" opacity="0.5"/>
<rect x="228.31068852803142" y="529.6413735468706" width="1.1305609284332687" height="9.358626453129432" fill="#f85149" opacity="0.5"/>
<rect x="229.928905582295" y="525.0854107158596" width="1.1305609284332687" height="13.914589284140447" fill="#3fb950" opacity="0.5"/>
<rect x="231.54712263655856" y="530.2432893833469" width="1.1305609284332687" height="8.756710616653095" fill="#f85149" opacity="0.5"/>
<rect x="233.16533969082212" y="524.8375018887205" width="1.1305609284332687" height="14.162498111279547" fill="#3fb950" opacity="0.5"/>
<rect x="234.7835567450857" y="528.013773652219" width="1.1305609284332687" height="10.986226347780985" fill="#3fb950" opacity="0.5"/>
<rect x="236.40177379934926" y="520.8028975769081" width="1.1305609284332687" height="18.197102423091906" fill="#3fb950" opacity="0.5"/>
<rect x="238.01999085361282" y="509.3328847613794" width="1.1305609284332687" height="29.667115238620624" fill="#3fb950" opacity="0.5"/>
<rect x="239.6382079078764" y="511.3563615057951" width="1.1305609284332687" height="27.64363849420488" fill="#3fb950" opacity="0.5"/>
<rect x="241.25642496213996" y="512.8264815283072" width="1.1305609284332687" height="26.173518471692773" fill="#3fb950" opacity="0.5"/>
<rect x="242.8746420164035" y="505.72553427319474" width="1.1305609284332687" height="33.27446572680526" fill="#3fb950" opacity="0.5"/>
<rect x="244.49285907066707" y="493.19631808764416" width="1.1305609284332687" height="45.80368191235584" fill="#3fb950" opacity="0.5"/>
<rect x="246.11107612493063" y="482.792901101436" width="1.1305609284332687" height="56.20709889856403" fill="#3fb950" opacity="0.5"/>
<rect x="247.7292931791942" y="492.0795936803854" width="1.1305609284332687" height="46.920406319614585" fill="#f85149" opacity="0.5"/>
<rect x="249.34751023345777" y="505.40231251315197" width="1.1305609284332687" height="33.59768748684803" fill="#f85149" opacity="0.5"/>
<rect x="250.96572728772134" y="515.1402155651481" width="1.1305609284332687" height="23.859784434851917" fill="#f85149" opacity="0.5"/>
<rect x="252.5839443419849" y="496.7908391348242" width="1.1305609284332687" height="42.20916086517582" fill="#3fb950" opacity="0.5"/>
<rect x="254.20216139624847" y="509.33419524280055" width="1.1305609284332687" height="29.665804757199453" fill="#f85149" opacity="0.5"/>
<rect x="255.820378450512" y="520.7634233194668" width="1.1305609284332687" height="18.236576680533176" fill="#f85149" opacity="0.5"/>
<rect x="257.4385955047756" y="516.6610501532258" width="1.1305609284332687" height="22.3389498467742" fill="#3fb950" opacity="0.5"/>
<rect x="259.0568125590392" y="478.97230930588313" width="1.1305609284332687" height="60.02769069411687" fill="#3fb950" opacity="0.5"/>
<rect x="260.67502961330274" y="458.0024830798147" width="1.1305609284332687" height="80.99751692018532" fill="#3fb950" opacity="0.5"/>
<rect x="262.2932466675663" y="477.4843408378493" width="1.1305609284332687" height="61.51565916215071" fill="#3fb950" opacity="0.5"/>
<rect x="263.9114637218299" y="482.57151333670316" width="1.1305609284332687" height="56.42848666329684" fill="#f85149" opacity="0.5"/>
<rect x="265.52968077609347" y="498.2470610060296" width="1.1305609284332687" height="40.75293899397042" fill="#f85149" opacity="0.5"/>
<rect x="267.147897830357" y="506.7285516742943" width="1.1305609284332687" height="32.271448325705705" fill="#f85149" opacity="0.5"/>
<rect x="268.76611488462055" y="507.76095205219826" width="1.1305609284332687" height="31.239047947801737" fill="#3fb950" opacity="0.5"/>
<rect x="270.38433193888415" y="495.7867940015783" width="1.1305609284332687" height="43.2132059984217" fill="#3fb950" opacity="0.5"/>
<rect x="272.0025489931477" y="514.7715646020694" width="1.1305609284332687" height="24.22843539793064" fill="#3fb950" opacity="0.5"/>
<rect x="273.6207660474112" y="450.5016177092173" width="1.1305609284332687" height="88.49838229078267" fill="#3fb950" opacity="0.5"/>
<rect x="275.2389831016748" y="457.3465637709917" width="1.1305609284332687" height="81.65343622900832" fill="#f85149" opacity="0.5"/>
<rect x="276.8572001559384" y="483.2762736898105" width="1.1305609284332687" height="55.72372631018948" fill="#3fb950" opacity="0.5"/>
<rect x="278.475417210202" y="481.35906723584714" width="1.1305609284332687" height="57.640932764152865" fill="#3fb950" opacity="0.5"/>
<rect x="280.09363426446555" y="488.0722750833658" width="1.1305609284332687" height="50.92772491663419" fill="#f85149" opacity="0.5"/>
<rect x="281.7118513187291" y="507.4711946932733" width="1.1305609284332687" height="31.528805306726724" fill="#3fb950" opacity="0.5"/>
<rect x="283.3300683729927" y="489.4440303212343" width="1.1305609284332687" height="49.55596967876568" fill="#3fb950" opacity="0.5"/>
<rect x="284.9482854272562" y="490.2045176879195" width="1.1305609284332687" height="48.79548231208048" fill="#3fb950" opacity="0.5"/>
<rect x="286.56650248151976" y="494.75774727594154" width="1.1305609284332687" height="44.24225272405846" fill="#f85149" opacity="0.5"/>
<rect x="288.18471953578336" y="505.2374475577818" width="1.1305609284332687" height="33.76255244221818" fill="#f85149" opacity="0.5"/>
<rect x="289.80293659004695" y="516.0425938939595" width="1.1305609284332687" height="22.95740610604048" fill="#f85149" opacity="0.5"/>
<rect x="291.4211536443105" y="508.14951184247025" width="1.1305609284332687" height="30.850488157529753" fill="#f85149" opacity="0.5"/>
<rect x="293.03937069857403" y="509.4998477983243" width="1.1305609284332687" height="29.50015220167569" fill="#f85149" opacity="0.5"/>
<rect x="294.6575877528376" y="514.4918272217902" width="1.1305609284332687" height="24.50817277820977" fill="#3fb950" opacity="0.5"/>
<rect x="296.2758048071012" y="511.95270267396216" width="1.1305609284332687" height="27.047297326037835" fill="#3fb950" opacity="0.5"/>
<rect x="297.89402186136476" y="518.4380219821187" width="1.1305609284332687" height="20.5619780178813" fill="#f85149" opacity="0.5"/>
<rect x="299.5122389156283" y="508.8519847949232" width="1.1305609284332687" height="30.148015205076774" fill="#f85149" opacity="0.5"/>
<rect x="301.1304559698919" y="508.01980532517706" width="1.1305609284332687" height="30.98019467482294" fill="#f85149" opacity="0.5"/>
<rect x="302.74867302415544" y="518.8746114491911" width="1.1305609284332687" height="20.125388550808907" fill="#3fb950" opacity="0.5"/>
<rect x="304.366890078419" y="519.938612541689" width="1.1305609284332687" height="19.061387458310946" fill="#3fb950" opacity="0.5"/>
<rect x="305.9851071326826" y="521.09384330235" width="1.1305609284332687" height="17.906156697649976" fill="#f85149" opacity="0.5"/>
<rect x="307.60332418694617" y="517.091482242614" width="1.1305609284332687" height="21.908517757385994" fill="#3fb950" opacity="0.5"/>
<rect x="309.2215412412097" y="518.3755827466277" width="1.1305609284332687" height="20.624417253372258" fill="#3fb950" opacity="0.5"/>
<rect x="310.83975829547325" y="521.6215296683608" width="1.1305609284332687" height="17.378470331639164" fill="#f85149" opacity="0.5"/>
<rect x="312.45797534973684" y="527.5090727533357" width="1.1305609284332687" height="11.490927246664342" fill="#f85149" opacity="0.5"/>
<rect x="314.07619240400044" y="525.3900267540622" width="1.1305609284332687" height="13.609973245937795" fill="#3fb950" opacity="0.5"/>
<rect x="315.694409458264" y="522.079661351915" width="1.1305609284332687" height="16.92033864808502" fill="#f85149" opacity="0.5"/>
<rect x="317.3126265125275" y="517.5489681104334" width="1.1305609284332687" height="21.451031889566593" fill="#f85149" opacity="0.5"/>
<rect x="318.9308435667911" y="518.7275990371583" width="1.1305609284332687" height="20.272400962841743" fill="#f85149" opacity="0.5"/>
<rect x="320.5490606210547" y="505.2491451821244" width="1.1305609284332687" height="33.75085481787562" fill="#3fb950" opacity="0.5"/>
<rect x="322.16727767531825" y="490.48515986587773" width="1.1305609284332687" height="48.51484013412227" fill="#3fb950" opacity="0.5"/>
<rect x="323.7854947295818" y="485.46647743699396" width="1.1305609284332687" height="53.533522563006045" fill="#3fb950" opacity="0.5"/>
<rect x="325.4037117838454" y="452.65893730596844" width="1.1305609284332687" height="86.34106269403156" fill="#3fb950" opacity="0.5"/>
<rect x="327.021928838109" y="463.5351184555887" width="1.1305609284332687" height="75.4648815444113" fill="#3fb950" opacity="0.5"/>
<rect x="328.64014589237246" y="481.2591321682749" width="1.1305609284332687" height="57.7408678317251" fill="#f85149" opacity="0.5"/>
<rect x="330.25836294663605" y="506.8265353620894" width="1.1305609284332687" height="32.17346463791063" fill="#3fb950" opacity="0.5"/>
<rect x="331.87658000089965" y="471.48579940281076" width="1.1305609284332687" height="67.51420059718924" fill="#3fb950" opacity="0.5"/>
<rect x="333.4947970551632" y="438.1666666666667" width="1.1305609284332687" height="100.83333333333331" fill="#f85149" opacity="0.5"/>
<rect x="335.11301410942673" y="471.47742018952147" width="1.1305609284332687" height="67.52257981047853" fill="#f85149" opacity="0.5"/>
<rect x="336.7312311636903" y="474.3576731318953" width="1.1305609284332687" height="64.6423268681047" fill="#3fb950" opacity="0.5"/>
<rect x="338.3494482179539" y="458.8549877148166" width="1.1305609284332687" height="80.14501228518338" fill="#3fb950" opacity="0.5"/>
<rect x="339.96766527221746" y="472.7448556971517" width="1.1305609284332687" height="66.2551443028483" fill="#f85149" opacity="0.5"/>
<rect x="341.58588232648106" y="490.31525295822325" width="1.1305609284332687" height="48.684747041776745" fill="#f85149" opacity="0.5"/>
<rect x="343.2040993807446" y="483.9126800204249" width="1.1305609284332687" height="55.08731997957511" fill="#f85149" opacity="0.5"/>
<rect x="344.8223164350082" y="503.80626907668614" width="1.1305609284332687" height="35.193730923313865" fill="#f85149" opacity="0.5"/>
<rect x="346.44053348927173" y="504.28919090534737" width="1.1305609284332687" height="34.71080909465263" fill="#f85149" opacity="0.5"/>
<rect x="348.0587505435353" y="502.2773273702734" width="1.1305609284332687" height="36.72267262972662" fill="#f85149" opacity="0.5"/>
<rect x="349.67696759779886" y="490.07318679653207" width="1.1305609284332687" height="48.92681320346793" fill="#3fb950" opacity="0.5"/>
<rect x="351.29518465206246" y="494.1812395351611" width="1.1305609284332687" height="44.818760464838874" fill="#f85149" opacity="0.5"/>
<rect x="352.913401706326" y="494.47201643060134" width="1.1305609284332687" height="44.52798356939866" fill="#3fb950" opacity="0.5"/>
<rect x="354.53161876058954" y="504.47893697733036" width="1.1305609284332687" height="34.52106302266964" fill="#f85149" opacity="0.5"/>
<rect x="356.14983581485313" y="515.2196394266374" width="1.1305609284332687" height="23.7803605733626" fill="#f85149" opacity="0.5"/>
<rect x="357.7680528691167" y="501.4905631709902" width="1.1305609284332687" height="37.509436829009815" fill="#3fb950" opacity="0.5"/>
<rect x="359.38626992338027" y="511.2389017201316" width="1.1305609284332687" height="27.761098279868406" fill="#f85149" opacity="0.5"/>
<rect x="361.0044869776438" y="485.37301363977895" width="1.1305609284332687" height="53.62698636022105" fill="#3fb950" opacity="0.5"/>
<rect x="362.6227040319074" y="503.0932368730576" width="1.1305609284332687" height="35.906763126942394" fill="#f85149" opacity="0.5"/>
<rect x="364.24092108617094" y="506.57514748952644" width="1.1305609284332687" height="32.424852510473556" fill="#3fb950" opacity="0.5"/>
<rect x="365.85913814043454" y="499.507273703926" width="1.1305609284332687" height="39.49272629607401" fill="#3fb950" opacity="0.5"/>
<rect x="367.4773551946981" y="500.28925247417976" width="1.1305609284332687" height="38.71074752582024" fill="#3fb950" opacity="0.5"/>
<rect x="369.0955722489617" y="489.16981433766205" width="1.1305609284332687" height="49.83018566233795" fill="#f85149" opacity="0.5"/>
<rect x="370.7137893032252" y="509.6545649232026" width="1.1305609284332687" height="29.3454350767974" fill="#3fb950" opacity="0.5"/>
<rect x="372.3320063574888" y="505.4903262156512" width="1.1305609284332687" height="33.50967378434882" fill="#f85149" opacity="0.5"/>
<rect x="373.95022341175235" y="498.8131086627713" width="1.1305609284332687" height="40.1868913372287" fill="#f85149" opacity="0.5"/>
<rect x="375.56844046601594" y="504.4451447509665" width="1.1305609284332687" height="34.554855249033494" fill="#3fb950" opacity="0.5"/>
<rect x="377.1866575202795" y="496.9961839515779" width="1.1305609284332687" height="42.003816048422095" fill="#3fb950" opacity="0.5"/>
<rect x="378.8048745745431" y="507.814806364058" width="1.1305609284332687" height="31.185193635942028" fill="#3fb950" opacity="0.5"/>
<rect x="380.4230916288066" y="511.8870917292156" width="1.1305609284332687" height="27.112908270784374" fill="#3fb950" opacity="0.5"/>
<rect x="382.04130868307016" y="486.1824772786625" width="1.1305609284332687" height="52.817522721337525" fill="#3fb950" opacity="0.5"/>
<rect x="383.65952573733375" y="502.9849963528764" width="1.1305609284332687" height="36.01500364712359" fill="#f85149" opacity="0.5"/>
<rect x="385.2777427915973" y="503.8260951280048" width="1.1305609284332687" height="35.173904871995205" fill="#f85149" opacity="0.5"/>
<rect x="386.8959598458609" y="471.1861318866974" width="1.1305609284332687" height="67.81386811330259" fill="#3fb950" opacity="0.5"/>
<rect x="388.5141769001244" y="494.3384858318128" width="1.1305609284332687" height="44.66151416818718" fill="#f85149" opacity="0.5"/>
<rect x="390.132393954388" y="507.2808880401195" width="1.1305609284332687" height="31.71911195988048" fill="#3fb950" opacity="0.5"/>
<rect x="391.75061100865156" y="505.77827643790727" width="1.1305609284332687" height="33.221723562092734" fill="#f85149" opacity="0.5"/>
<rect x="393.36882806291516" y="476.8120753426946" width="1.1305609284332687" height="62.187924657305416" fill="#3fb950" opacity="0.5"/>
<rect x="394.9870451171787" y="476.13254933790273" width="1.1305609284332687" height="62.86745066209727" fill="#f85149" opacity="0.5"/>
<rect x="396.6052621714423" y="501.16886415921533" width="1.1305609284332687" height="37.83113584078467" fill="#f85149" opacity="0.5"/>
<rect x="398.22347922570583" y="489.186511297007" width="1.1305609284332687" height="49.81348870299303" fill="#3fb950" opacity="0.5"/>
<rect x="399.8416962799694" y="496.80166638313847" width="1.1305609284332687" height="42.19833361686153" fill="#f85149" opacity="0.5"/>
<rect x="401.45991333423297" y="496.8846274790328" width="1.1305609284332687" height="42.115372520967185" fill="#f85149" opacity="0.5"/>
<rect x="403.07813038849656" y="505.5052881598814" width="1.1305609284332687" height="33.49471184011861" fill="#f85149" opacity="0.5"/>
<rect x="404.6963474427601" y="520.104637178867" width="1.1305609284332687" height="18.89536282113295" fill="#f85149" opacity="0.5"/>
<rect x="406.31456449702364" y="517.6461109264724" width="1.1305609284332687" height="21.353889073527625" fill="#3fb950" opacity="0.5"/>
<rect x="407.93278155128723" y="510.3983159915133" width="1.1305609284332687" height="28.6016840084867" fill="#3fb950" opacity="0.5"/>
<rect x="409.5509986055508" y="516.1519744264339" width="1.1305609284332687" height="22.848025573566133" fill="#f85149" opacity="0.5"/>
<rect x="411.16921565981437" y="524.1644151913243" width="1.1305609284332687" height="14.835584808675662" fill="#3fb950" opacity="0.5"/>
<rect x="412.7874327140779" y="522.6460655186119" width="1.1305609284332687" height="16.353934481388137" fill="#f85149" opacity="0.5"/>
<rect x="414.4056497683415" y="520.0906341234815" width="1.1305609284332687" height="18.90936587651845" fill="#3fb950" opacity="0.5"/>
<rect x="416.02386682260504" y="520.5082466066226" width="1.1305609284332687" height="18.491753393377394" fill="#f85149" opacity="0.5"/>
<rect x="417.64208387686864" y="522.936713742643" width="1.1305609284332687" height="16.06328625735705" fill="#3fb950" opacity="0.5"/>
<rect x="419.2603009311322" y="524.9106888749035" width="1.1305609284332687" height="14.089311125096515" fill="#3fb950" opacity="0.5"/>
<rect x="420.8785179853958" y="520.9664602464883" width="1.1305609284332687" height="18.033539753511718" fill="#3fb950" opacity="0.5"/>
<rect x="422.4967350396593" y="523.0934920687558" width="1.1305609284332687" height="15.906507931244164" fill="#f85149" opacity="0.5"/>
<rect x="424.1149520939229" y="529.0257439607884" width="1.1305609284332687" height="9.974256039211582" fill="#f85149" opacity="0.5"/>
<rect x="425.73316914818645" y="519.4017544448566" width="1.1305609284332687" height="19.59824555514342" fill="#f85149" opacity="0.5"/>
<rect x="427.35138620245004" y="523.953862870537" width="1.1305609284332687" height="15.046137129462977" fill="#f85149" opacity="0.5"/>
<rect x="428.9696032567136" y="527.3045040628521" width="1.1305609284332687" height="11.695495937147939" fill="#f85149" opacity="0.5"/>
<rect x="430.5878203109772" y="530.6555337280837" width="1.1305609284332687" height="8.344466271916303" fill="#3fb950" opacity="0.5"/>
<rect x="432.2060373652407" y="530.1719152707745" width="1.1305609284332687" height="8.828084729225452" fill="#3fb950" opacity="0.5"/>
<rect x="433.82425441950426" y="530.3352205975366" width="1.1305609284332687" height="8.66477940246341" fill="#f85149" opacity="0.5"/>
<rect x="435.44247147376785" y="529.0353377666144" width="1.1305609284332687" height="9.964662233385639" fill="#3fb950" opacity="0.5"/>
<rect x="437.0606885280314" y="530.7691399279797" width="1.1305609284332687" height="8.230860072020278" fill="#3fb950" opacity="0.5"/>
<rect x="438.678905582295" y="518.4750867240014" width="1.1305609284332687" height="20.524913275998642" fill="#3fb950" opacity="0.5"/>
<rect x="440.2971226365585" y="521.6076716756468" width="1.1305609284332687" height="17.39232832435323" fill="#3fb950" opacity="0.5"/>
<rect x="441.9153396908221" y="526.2000870348935" width="1.1305609284332687" height="12.7999129651065" fill="#f85149" opacity="0.5"/>
<rect x="443.53355674508566" y="512.2499459223809" width="1.1305609284332687" height="26.750054077619097" fill="#f85149" opacity="0.5"/>
<rect x="445.15177379934926" y="512.7314925241349" width="1.1305609284332687" height="26.268507475865135" fill="#3fb950" opacity="0.5"/>
<rect x="446.7699908536128" y="520.4994977703684" width="1.1305609284332687" height="18.500502229631593" fill="#3fb950" opacity="0.5"/>
<rect x="448.3882079078764" y="523.9244946458687" width="1.1305609284332687" height="15.075505354131337" fill="#3fb950" opacity="0.5"/>
<rect x="450.00642496213993" y="525.2457500437077" width="1.1305609284332687" height="13.754249956292256" fill="#3fb950" opacity="0.5"/>
<rect x="451.6246420164035" y="530.2952562413524" width="1.1305609284332687" height="8.704743758647624" fill="#f85149" opacity="0.5"/>
<rect x="453.24285907066707" y="529.2658030124105" width="1.1305609284332687" height="9.734196987589485" fill="#f85149" opacity="0.5"/>
<rect x="454.86107612493066" y="530.6347020728227" width="1.1305609284332687" height="8.365297927177267" fill="#3fb950" opacity="0.5"/>
<rect x="456.47929317919426" y="530.2204825809785" width="1.1305609284332687" height="8.779517419021545" fill="#3fb950" opacity="0.5"/>
<rect x="458.09751023345774" y="529.4025946528343" width="1.1305609284332687" height="9.597405347165704" fill="#3fb950" opacity="0.5"/>
<rect x="459.71572728772134" y="529.1898639332869" width="1.1305609284332687" height="9.810136066713085" fill="#f85149" opacity="0.5"/>
<rect x="461.3339443419849" y="518.2938739431734" width="1.1305609284332687" height="20.706126056826633" fill="#3fb950" opacity="0.5"/>
<rect x="462.95216139624847" y="512.6738829740816" width="1.1305609284332687" height="26.326117025918393" fill="#f85149" opacity="0.5"/>
<rect x="464.570378450512" y="524.7704099934248" width="1.1305609284332687" height="14.229590006575222" fill="#3fb950" opacity="0.5"/>
<rect x="466.1885955047756" y="530.0133052210992" width="1.1305609284332687" height="8.986694778900755" fill="#3fb950" opacity="0.5"/>
<rect x="467.80681255903914" y="529.8790050525456" width="1.1305609284332687" height="9.120994947454392" fill="#f85149" opacity="0.5"/>
<rect x="469.42502961330274" y="524.2815864907714" width="1.1305609284332687" height="14.71841350922864" fill="#3fb950" opacity="0.5"/>
<rect x="471.0432466675663" y="515.3055730779504" width="1.1305609284332687" height="23.694426922049615" fill="#3fb950" opacity="0.5"/>
<rect x="472.6614637218299" y="522.4157699223805" width="1.1305609284332687" height="16.58423007761951" fill="#f85149" opacity="0.5"/>
<rect x="474.2796807760934" y="510.9299075757678" width="1.1305609284332687" height="28.0700924242322" fill="#3fb950" opacity="0.5"/>
<rect x="475.897897830357" y="522.6646868121512" width="1.1305609284332687" height="16.335313187848783" fill="#f85149" opacity="0.5"/>
<rect x="477.5161148846206" y="525.2274319885211" width="1.1305609284332687" height="13.772568011478938" fill="#3fb950" opacity="0.5"/>
<rect x="479.13433193888415" y="527.8784195254992" width="1.1305609284332687" height="11.121580474500774" fill="#f85149" opacity="0.5"/>
<rect x="480.75254899314774" y="524.3277188789601" width="1.1305609284332687" height="14.672281121039873" fill="#3fb950" opacity="0.5"/>
<rect x="482.3707660474113" y="524.3229908193488" width="1.1305609284332687" height="14.677009180651226" fill="#f85149" opacity="0.5"/>
<rect x="483.9889831016748" y="530.8808758848471" width="1.1305609284332687" height="8.119124115152886" fill="#3fb950" opacity="0.5"/>
<rect x="485.60720015593836" y="531.0974610097251" width="1.1305609284332687" height="7.902538990274934" fill="#f85149" opacity="0.5"/>
<rect x="487.22541721020195" y="530.5602578768211" width="1.1305609284332687" height="8.439742123178917" fill="#f85149" opacity="0.5"/>
<rect x="488.8436342644655" y="528.9939137685221" width="1.1305609284332687" height="10.006086231477866" fill="#f85149" opacity="0.5"/>
<rect x="490.4618513187291" y="531.6442489332608" width="1.1305609284332687" height="7.355751066739231" fill="#f85149" opacity="0.5"/>
<rect x="492.0800683729926" y="529.9776337365123" width="1.1305609284332687" height="9.022366263487697" fill="#f85149" opacity="0.5"/>
<rect x="493.6982854272562" y="530.8287254447038" width="1.1305609284332687" height="8.171274555296236" fill="#3fb950" opacity="0.5"/>
<rect x="495.31650248151976" y="530.3287960422768" width="1.1305609284332687" height="8.67120395772315" fill="#f85149" opacity="0.5"/>
<rect x="496.93471953578336" y="532.0904158148968" width="1.1305609284332687" height="6.909584185103199" fill="#3fb950" opacity="0.5"/>
<rect x="498.55293659004695" y="527.0385140342665" width="1.1305609284332687" height="11.96148596573346" fill="#3fb950" opacity="0.5"/>
<rect x="500.1711536443105" y="528.9550181226402" width="1.1305609284332687" height="10.04498187735976" fill="#f85149" opacity="0.5"/>
<rect x="501.7893706985741" y="532.1743226866259" width="1.1305609284332687" height="6.825677313374058" fill="#f85149" opacity="0.5"/>
<rect x="503.4075877528376" y="526.9036270585224" width="1.1305609284332687" height="12.096372941477625" fill="#3fb950" opacity="0.5"/>
<rect x="505.0258048071012" y="516.0535875135861" width="1.1305609284332687" height="22.94641248641392" fill="#3fb950" opacity="0.5"/>
<rect x="506.64402186136476" y="522.3262908410313" width="1.1305609284332687" height="16.673709158968677" fill="#3fb950" opacity="0.5"/>
<rect x="508.26223891562836" y="522.1833901771473" width="1.1305609284332687" height="16.816609822852683" fill="#3fb950" opacity="0.5"/>
<rect x="509.8804559698919" y="523.9521844052772" width="1.1305609284332687" height="15.047815594722806" fill="#f85149" opacity="0.5"/>
<rect x="511.4986730241555" y="529.1045449543102" width="1.1305609284332687" height="9.8954550456898" fill="#f85149" opacity="0.5"/>
<rect x="513.1168900784191" y="506.7823223907163" width="1.1305609284332687" height="32.217677609283726" fill="#3fb950" opacity="0.5"/>
<rect x="514.7351071326827" y="518.4246712989728" width="1.1305609284332687" height="20.57532870102716" fill="#f85149" opacity="0.5"/>
<rect x="516.3533241869462" y="518.6601522710338" width="1.1305609284332687" height="20.33984772896622" fill="#3fb950" opacity="0.5"/>
<rect x="517.9715412412098" y="525.4169682523466" width="1.1305609284332687" height="13.583031747653422" fill="#f85149" opacity="0.5"/>
<rect x="519.5897582954733" y="518.2769311148938" width="1.1305609284332687" height="20.72306888510616" fill="#3fb950" opacity="0.5"/>
<rect x="521.2079753497369" y="520.6605542159424" width="1.1305609284332687" height="18.339445784057602" fill="#f85149" opacity="0.5"/>
<rect x="522.8261924040005" y="523.5904071180452" width="1.1305609284332687" height="15.409592881954836" fill="#f85149" opacity="0.5"/>
<rect x="524.444409458264" y="525.9281748432379" width="1.1305609284332687" height="13.071825156762088" fill="#f85149" opacity="0.5"/>
<rect x="526.0626265125276" y="492.8582196179351" width="1.1305609284332687" height="46.141780382064894" fill="#3fb950" opacity="0.5"/>
<rect x="527.680843566791" y="491.05417598022257" width="1.1305609284332687" height="47.94582401977743" fill="#3fb950" opacity="0.5"/>
<rect x="529.2990606210547" y="500.44087984611394" width="1.1305609284332687" height="38.559120153886056" fill="#3fb950" opacity="0.5"/>
<rect x="530.9172776753182" y="504.4022258697522" width="1.1305609284332687" height="34.597774130247785" fill="#3fb950" opacity="0.5"/>
<rect x="532.5354947295818" y="501.4563972238458" width="1.1305609284332687" height="37.543602776154216" fill="#3fb950" opacity="0.5"/>
<rect x="534.1537117838454" y="517.6988416173012" width="1.1305609284332687" height="21.30115838269876" fill="#f85149" opacity="0.5"/>
<rect x="535.771928838109" y="517.7235309561452" width="1.1305609284332687" height="21.27646904385483" fill="#f85149" opacity="0.5"/>
<rect x="537.3901458923725" y="517.6652575599685" width="1.1305609284332687" height="21.334742440031505" fill="#3fb950" opacity="0.5"/>
<rect x="539.0083629466361" y="521.5076144931704" width="1.1305609284332687" height="17.492385506829578" fill="#f85149" opacity="0.5"/>
<rect x="540.6265800008997" y="520.6729435515541" width="1.1305609284332687" height="18.327056448445887" fill="#f85149" opacity="0.5"/>
<rect x="542.2447970551632" y="504.3263564534933" width="1.1305609284332687" height="34.673643546506696" fill="#3fb950" opacity="0.5"/>
<rect x="543.8630141094268" y="511.99519538235654" width="1.1305609284332687" height="27.004804617643458" fill="#f85149" opacity="0.5"/>
<rect x="545.4812311636904" y="519.653779937523" width="1.1305609284332687" height="19.34622006247696" fill="#f85149" opacity="0.5"/>
<rect x="547.099448217954" y="524.0036070733743" width="1.1305609284332687" height="14.996392926625731" fill="#f85149" opacity="0.5"/>
<rect x="548.7176652722176" y="525.9336003510602" width="1.1305609284332687" height="13.06639964893975" fill="#3fb950" opacity="0.5"/>
<rect x="550.3358823264812" y="488.769041417848" width="1.1305609284332687" height="50.23095858215203" fill="#3fb950" opacity="0.5"/>
<rect x="551.9540993807447" y="502.40968517424415" width="1.1305609284332687" height="36.590314825755854" fill="#f85149" opacity="0.5"/>
<rect x="553.5723164350082" y="489.12830100719026" width="1.1305609284332687" height="49.87169899280974" fill="#3fb950" opacity="0.5"/>
<rect x="555.1905334892717" y="500.84049308412006" width="1.1305609284332687" height="38.159506915879945" fill="#f85149" opacity="0.5"/>
<rect x="556.8087505435353" y="511.83617391199743" width="1.1305609284332687" height="27.163826088002565" fill="#f85149" opacity="0.5"/>
<rect x="558.4269675977989" y="508.95420070664494" width="1.1305609284332687" height="30.04579929335506" fill="#f85149" opacity="0.5"/>
<rect x="560.0451846520625" y="515.4038509889039" width="1.1305609284332687" height="23.596149011096145" fill="#f85149" opacity="0.5"/>
<rect x="561.6634017063261" y="522.2356045432136" width="1.1305609284332687" height="16.76439545678636" fill="#3fb950" opacity="0.5"/>
<rect x="563.2816187605897" y="521.5250531571346" width="1.1305609284332687" height="17.474946842865393" fill="#3fb950" opacity="0.5"/>
<rect x="564.8998358148532" y="448.7609197438011" width="1.1305609284332687" height="90.23908025619892" fill="#3fb950" opacity="0.5"/>
<rect x="566.5180528691168" y="471.6715058481992" width="1.1305609284332687" height="67.32849415180078" fill="#f85149" opacity="0.5"/>
<rect x="568.1362699233803" y="502.35992212145527" width="1.1305609284332687" height="36.64007787854473" fill="#f85149" opacity="0.5"/>
<rect x="569.7544869776439" y="474.1312065345379" width="1.1305609284332687" height="64.86879346546209" fill="#3fb950" opacity="0.5"/>
<rect x="571.3727040319075" y="500.3564468148648" width="1.1305609284332687" height="38.643553185135204" fill="#f85149" opacity="0.5"/>
<rect x="572.990921086171" y="514.2518558634214" width="1.1305609284332687" height="24.748144136578617" fill="#f85149" opacity="0.5"/>
<rect x="574.6091381404347" y="499.0677059444931" width="1.1305609284332687" height="39.93229405550687" fill="#3fb950" opacity="0.5"/>
<rect x="576.227355194698" y="509.45469560762126" width="1.1305609284332687" height="29.54530439237874" fill="#3fb950" opacity="0.5"/>
<rect x="577.8455722489616" y="510.6130103842846" width="1.1305609284332687" height="28.38698961571538" fill="#f85149" opacity="0.5"/>
<rect x="579.4637893032252" y="522.8734213419491" width="1.1305609284332687" height="16.126578658050903" fill="#f85149" opacity="0.5"/>
<rect x="581.0820063574888" y="517.3081280151625" width="1.1305609284332687" height="21.691871984837462" fill="#3fb950" opacity="0.5"/>
<rect x="582.7002234117524" y="504.89150341037146" width="1.1305609284332687" height="34.108496589628544" fill="#3fb950" opacity="0.5"/>
<rect x="584.318440466016" y="492.22147808600664" width="1.1305609284332687" height="46.77852191399336" fill="#3fb950" opacity="0.5"/>
<rect x="585.9366575202796" y="501.0142011255026" width="1.1305609284332687" height="37.98579887449739" fill="#f85149" opacity="0.5"/>
<rect x="587.5548745745431" y="505.340307646112" width="1.1305609284332687" height="33.659692353887976" fill="#3fb950" opacity="0.5"/>
<rect x="589.1730916288067" y="490.48042770845086" width="1.1305609284332687" height="48.51957229154914" fill="#3fb950" opacity="0.5"/>
<rect x="590.7913086830702" y="485.74750644874257" width="1.1305609284332687" height="53.25249355125743" fill="#3fb950" opacity="0.5"/>
<rect x="592.4095257373338" y="469.63772637586294" width="1.1305609284332687" height="69.36227362413706" fill="#3fb950" opacity="0.5"/>
<rect x="594.0277427915973" y="475.0487467809796" width="1.1305609284332687" height="63.95125321902037" fill="#f85149" opacity="0.5"/>
<rect x="595.645959845861" y="475.82833734431586" width="1.1305609284332687" height="63.171662655684145" fill="#3fb950" opacity="0.5"/>
<rect x="597.2641769001245" y="470.347815528345" width="1.1305609284332687" height="68.652184471655" fill="#3fb950" opacity="0.5"/>
<rect x="598.882393954388" y="487.6296372405036" width="1.1305609284332687" height="51.3703627594964" fill="#3fb950" opacity="0.5"/>
<rect x="600.5006110086516" y="474.49831999721266" width="1.1305609284332687" height="64.50168000278734" fill="#3fb950" opacity="0.5"/>
<rect x="602.1188280629152" y="461.9927760726801" width="1.1305609284332687" height="77.0072239273199" fill="#3fb950" opacity="0.5"/>
<rect x="603.7370451171788" y="483.32564663055655" width="1.1305609284332687" height="55.67435336944345" fill="#f85149" opacity="0.5"/>
<rect x="605.3552621714423" y="475.08367656094737" width="1.1305609284332687" height="63.91632343905263" fill="#3fb950" opacity="0.5"/>
<rect x="606.9734792257059" y="462.38594426634864" width="1.1305609284332687" height="76.61405573365136" fill="#f85149" opacity="0.5"/>
<rect x="608.5916962799695" y="480.51319204688366" width="1.1305609284332687" height="58.48680795311634" fill="#f85149" opacity="0.5"/>
<rect x="610.2099133342331" y="474.0724389418029" width="1.1305609284332687" height="64.92756105819711" fill="#f85149" opacity="0.5"/>
<rect x="611.8281303884966" y="490.1672685443359" width="1.1305609284332687" height="48.83273145566409" fill="#3fb950" opacity="0.5"/>
<rect x="613.4463474427602" y="498.49856689568105" width="1.1305609284332687" height="40.50143310431895" fill="#f85149" opacity="0.5"/>
<rect x="615.0645644970238" y="511.60280249539494" width="1.1305609284332687" height="27.39719750460506" fill="#f85149" opacity="0.5"/>
<rect x="616.6827815512873" y="492.6819373288078" width="1.1305609284332687" height="46.318062671192195" fill="#3fb950" opacity="0.5"/>
<rect x="618.3009986055508" y="476.8943094861057" width="1.1305609284332687" height="62.105690513894274" fill="#3fb950" opacity="0.5"/>
<rect x="619.9192156598144" y="477.677202069233" width="1.1305609284332687" height="61.322797930767024" fill="#3fb950" opacity="0.5"/>
<rect x="621.537432714078" y="494.67350110508266" width="1.1305609284332687" height="44.326498894917336" fill="#f85149" opacity="0.5"/>
<rect x="623.1556497683416" y="485.52948381016057" width="1.1305609284332687" height="53.47051618983943" fill="#3fb950" opacity="0.5"/>
<rect x="624.7738668226052" y="498.5116430251833" width="1.1305609284332687" height="40.488356974816725" fill="#f85149" opacity="0.5"/>
<rect x="626.3920838768687" y="471.677361626657" width="1.1305609284332687" height="67.32263837334301" fill="#3fb950" opacity="0.5"/>
<rect x="628.0103009311322" y="487.9792136916404" width="1.1305609284332687" height="51.02078630835962" fill="#f85149" opacity="0.5"/>
<rect x="629.6285179853958" y="480.30003023713766" width="1.1305609284332687" height="58.69996976286234" fill="#3fb950" opacity="0.5"/>
<rect x="631.2467350396594" y="471.12870509921873" width="1.1305609284332687" height="67.87129490078127" fill="#f85149" opacity="0.5"/>
<rect x="632.864952093923" y="501.0520837913743" width="1.1305609284332687" height="37.94791620862571" fill="#f85149" opacity="0.5"/>
<rect x="634.4831691481864" y="492.2109434217245" width="1.1305609284332687" height="46.789056578275506" fill="#3fb950" opacity="0.5"/>
<rect x="636.10138620245" y="502.49813570388375" width="1.1305609284332687" height="36.50186429611625" fill="#f85149" opacity="0.5"/>
<rect x="637.7196032567136" y="506.38879686752955" width="1.1305609284332687" height="32.61120313247045" fill="#3fb950" opacity="0.5"/>
<rect x="639.3378203109772" y="500.6434094635671" width="1.1305609284332687" height="38.35659053643292" fill="#f85149" opacity="0.5"/>
<rect x="640.9560373652407" y="506.55312173080677" width="1.1305609284332687" height="32.446878269193235" fill="#f85149" opacity="0.5"/>
<rect x="642.5742544195043" y="507.95948875815435" width="1.1305609284332687" height="31.04051124184565" fill="#f85149" opacity="0.5"/>
<rect x="644.1924714737679" y="516.7713567920202" width="1.1305609284332687" height="22.228643207979758" fill="#f85149" opacity="0.5"/>
<rect x="645.8106885280315" y="511.0198931471221" width="1.1305609284332687" height="27.980106852877896" fill="#f85149" opacity="0.5"/>
<rect x="647.428905582295" y="520.4041456997361" width="1.1305609284332687" height="18.59585430026391" fill="#3fb950" opacity="0.5"/>
<rect x="649.0471226365586" y="518.4400643334017" width="1.1305609284332687" height="20.559935666598335" fill="#3fb950" opacity="0.5"/>
<rect x="650.6653396908222" y="517.5891504704061" width="1.1305609284332687" height="21.41084952959386" fill="#f85149" opacity="0.5"/>
<rect x="652.2835567450858" y="515.7075179730191" width="1.1305609284332687" height="23.292482026980906" fill="#3fb950" opacity="0.5"/>
<rect x="653.9017737993493" y="508.18935736200274" width="1.1305609284332687" height="30.81064263799726" fill="#3fb950" opacity="0.5"/>
<rect x="655.5199908536129" y="505.59230035625393" width="1.1305609284332687" height="33.40769964374607" fill="#3fb950" opacity="0.5"/>
<rect x="657.1382079078764" y="517.7371201321574" width="1.1305609284332687" height="21.26287986784257" fill="#f85149" opacity="0.5"/>
<rect x="658.75642496214" y="505.6773341272665" width="1.1305609284332687" height="33.32266587273352" fill="#3fb950" opacity="0.5"/>
<rect x="660.3746420164035" y="488.2080053895554" width="1.1305609284332687" height="50.79199461044459" fill="#3fb950" opacity="0.5"/>
<rect x="661.9928590706671" y="500.37969782044166" width="1.1305609284332687" height="38.62030217955834" fill="#f85149" opacity="0.5"/>
<rect x="663.6110761249307" y="501.17562965273095" width="1.1305609284332687" height="37.82437034726905" fill="#3fb950" opacity="0.5"/>
<rect x="665.2292931791943" y="501.34204768020425" width="1.1305609284332687" height="37.657952319795754" fill="#f85149" opacity="0.5"/>
<rect x="666.8475102334579" y="505.554543903102" width="1.1305609284332687" height="33.445456096898" fill="#f85149" opacity="0.5"/>
<rect x="668.4657272877214" y="515.8096797935752" width="1.1305609284332687" height="23.190320206424758" fill="#f85149" opacity="0.5"/>
<rect x="670.083944341985" y="522.5586927144686" width="1.1305609284332687" height="16.441307285531366" fill="#f85149" opacity="0.5"/>
<rect x="671.7021613962486" y="521.1453462876324" width="1.1305609284332687" height="17.85465371236762" fill="#f85149" opacity="0.5"/>
<rect x="673.3203784505122" y="514.8213727308296" width="1.1305609284332687" height="24.17862726917042" fill="#3fb950" opacity="0.5"/>
<rect x="674.9385955047757" y="521.4239379186765" width="1.1305609284332687" height="17.57606208132347" fill="#f85149" opacity="0.5"/>
<rect x="676.5568125590393" y="522.2495936660262" width="1.1305609284332687" height="16.750406333973842" fill="#f85149" opacity="0.5"/>
<rect x="678.1750296133029" y="518.0836740345255" width="1.1305609284332687" height="20.91632596547447" fill="#f85149" opacity="0.5"/>
<rect x="679.7932466675663" y="520.0889753277365" width="1.1305609284332687" height="18.911024672263466" fill="#f85149" opacity="0.5"/>
<rect x="681.4114637218299" y="526.2810516750394" width="1.1305609284332687" height="12.718948324960593" fill="#3fb950" opacity="0.5"/>
<rect x="683.0296807760934" y="525.7337949614018" width="1.1305609284332687" height="13.266205038598173" fill="#f85149" opacity="0.5"/>
<rect x="684.647897830357" y="528.3798741348834" width="1.1305609284332687" height="10.62012586511662" fill="#3fb950" opacity="0.5"/>
<rect x="686.2661148846206" y="525.4821882654871" width="1.1305609284332687" height="13.517811734512861" fill="#3fb950" opacity="0.5"/>
<rect x="687.8843319388842" y="523.6387154463047" width="1.1305609284332687" height="15.361284553695327" fill="#f85149" opacity="0.5"/>
<rect x="689.5025489931477" y="526.0994373082849" width="1.1305609284332687" height="12.900562691715095" fill="#f85149" opacity="0.5"/>
<rect x="691.1207660474113" y="522.4323701732778" width="1.1305609284332687" height="16.567629826722168" fill="#f85149" opacity="0.5"/>
<rect x="692.7389831016749" y="514.0796713898699" width="1.1305609284332687" height="24.920328610130127" fill="#3fb950" opacity="0.5"/>
<rect x="694.3572001559385" y="505.86943480407933" width="1.1305609284332687" height="33.13056519592067" fill="#3fb950" opacity="0.5"/>
<rect x="695.975417210202" y="505.7567129127845" width="1.1305609284332687" height="33.24328708721549" fill="#3fb950" opacity="0.5"/>
<rect x="697.5936342644655" y="506.99973609390366" width="1.1305609284332687" height="32.000263906096336" fill="#3fb950" opacity="0.5"/>
<rect x="699.2118513187291" y="518.8753269277906" width="1.1305609284332687" height="20.12467307220936" fill="#f85149" opacity="0.5"/>
<rect x="700.8300683729927" y="515.877562567277" width="1.1305609284332687" height="23.122437432723018" fill="#3fb950" opacity="0.5"/>
<rect x="702.4482854272562" y="522.9230114669207" width="1.1305609284332687" height="16.076988533079316" fill="#f85149" opacity="0.5"/>
<rect x="704.0665024815198" y="521.7176201653599" width="1.1305609284332687" height="17.282379834640096" fill="#f85149" opacity="0.5"/>
<rect x="705.6847195357834" y="524.0377017185276" width="1.1305609284332687" height="14.962298281472385" fill="#3fb950" opacity="0.5"/>
<rect x="707.302936590047" y="507.3352799853828" width="1.1305609284332687" height="31.664720014617217" fill="#3fb950" opacity="0.5"/>
<rect x="708.9211536443106" y="503.1942062292811" width="1.1305609284332687" height="35.80579377071888" fill="#3fb950" opacity="0.5"/>
<rect x="710.5393706985741" y="502.1354749276136" width="1.1305609284332687" height="36.864525072386414" fill="#3fb950" opacity="0.5"/>
<rect x="712.1575877528377" y="496.59195985148597" width="1.1305609284332687" height="42.40804014851403" fill="#3fb950" opacity="0.5"/>
<rect x="713.7758048071013" y="509.80080202852844" width="1.1305609284332687" height="29.199197971471563" fill="#f85149" opacity="0.5"/>
<rect x="715.3940218613649" y="506.6769003480881" width="1.1305609284332687" height="32.32309965191189" fill="#3fb950" opacity="0.5"/>
<rect x="717.0122389156284" y="516.0239955481874" width="1.1305609284332687" height="22.976004451812628" fill="#f85149" opacity="0.5"/>
<rect x="718.630455969892" y="518.190493432265" width="1.1305609284332687" height="20.809506567734957" fill="#f85149" opacity="0.5"/>
<rect x="720.2486730241556" y="498.40741754470326" width="1.1305609284332687" height="40.592582455296736" fill="#3fb950" opacity="0.5"/>
<rect x="721.8668900784191" y="488.55589763849053" width="1.1305609284332687" height="50.444102361509465" fill="#f85149" opacity="0.5"/>
<rect x="723.4851071326826" y="503.4328310454518" width="1.1305609284332687" height="35.56716895454821" fill="#3fb950" opacity="0.5"/>
<rect x="725.1033241869462" y="495.5928484881932" width="1.1305609284332687" height="43.407151511806774" fill="#3fb950" opacity="0.5"/>
<rect x="726.7215412412098" y="497.83613042096636" width="1.1305609284332687" height="41.163869579033644" fill="#3fb950" opacity="0.5"/>
<rect x="728.3397582954734" y="505.22806765792893" width="1.1305609284332687" height="33.77193234207107" fill="#3fb950" opacity="0.5"/>
<rect x="729.9579753497369" y="505.01398629836774" width="1.1305609284332687" height="33.98601370163226" fill="#f85149" opacity="0.5"/>
<rect x="731.5761924040005" y="516.2971190541272" width="1.1305609284332687" height="22.702880945872835" fill="#f85149" opacity="0.5"/>
<rect x="733.194409458264" y="509.01395013599193" width="1.1305609284332687" height="29.986049864008066" fill="#3fb950" opacity="0.5"/>
<rect x="734.8126265125276" y="509.6187516541967" width="1.1305609284332687" height="29.38124834580327" fill="#f85149" opacity="0.5"/>
<rect x="736.4308435667912" y="516.0373126292454" width="1.1305609284332687" height="22.962687370754566" fill="#f85149" opacity="0.5"/>
<rect x="738.0490606210547" y="509.5818196815386" width="1.1305609284332687" height="29.418180318461395" fill="#3fb950" opacity="0.5"/>
<rect x="739.6672776753182" y="508.33677135996186" width="1.1305609284332687" height="30.66322864003814" fill="#f85149" opacity="0.5"/>
<rect x="741.2854947295818" y="502.69787962630846" width="1.1305609284332687" height="36.30212037369154" fill="#3fb950" opacity="0.5"/>
<rect x="742.9037117838454" y="511.98358954908286" width="1.1305609284332687" height="27.016410450917135" fill="#f85149" opacity="0.5"/>
<rect x="744.5219288381089" y="498.8937823580112" width="1.1305609284332687" height="40.10621764198879" fill="#3fb950" opacity="0.5"/>
<rect x="746.1401458923725" y="497.41657311455305" width="1.1305609284332687" height="41.583426885446954" fill="#3fb950" opacity="0.5"/>
<rect x="747.7583629466361" y="498.876884605703" width="1.1305609284332687" height="40.123115394296974" fill="#f85149" opacity="0.5"/>
<rect x="749.3765800008997" y="469.8057564839837" width="1.1305609284332687" height="69.19424351601629" fill="#3fb950" opacity="0.5"/>
<rect x="750.9947970551633" y="474.8470301701367" width="1.1305609284332687" height="64.15296982986331" fill="#3fb950" opacity="0.5"/>
<rect x="752.6130141094268" y="496.91951628084485" width="1.1305609284332687" height="42.080483719155154" fill="#f85149" opacity="0.5"/>
<rect x="754.2312311636904" y="500.1356155334872" width="1.1305609284332687" height="38.864384466512774" fill="#f85149" opacity="0.5"/>
<rect x="755.849448217954" y="501.7023612277126" width="1.1305609284332687" height="37.29763877228743" fill="#f85149" opacity="0.5"/>
<rect x="757.4676652722176" y="506.0968635685339" width="1.1305609284332687" height="32.90313643146612" fill="#3fb950" opacity="0.5"/>
<rect x="759.085882326481" y="516.3130071046775" width="1.1305609284332687" height="22.686992895322533" fill="#f85149" opacity="0.5"/>
<rect x="760.7040993807447" y="517.4101701795039" width="1.1305609284332687" height="21.589829820496107" fill="#f85149" opacity="0.5"/>
<rect x="762.3223164350082" y="511.6184282857484" width="1.1305609284332687" height="27.381571714251606" fill="#f85149" opacity="0.5"/>
<rect x="763.9405334892718" y="510.9004180557584" width="1.1305609284332687" height="28.099581944241606" fill="#3fb950" opacity="0.5"/>
<rect x="765.5587505435353" y="513.6170321091824" width="1.1305609284332687" height="25.382967890817554" fill="#3fb950" opacity="0.5"/>
<rect x="767.1769675977989" y="515.6311478036969" width="1.1305609284332687" height="23.368852196303123" fill="#f85149" opacity="0.5"/>
<rect x="768.7951846520625" y="506.7469246402098" width="1.1305609284332687" height="32.253075359790216" fill="#3fb950" opacity="0.5"/>
<rect x="770.4134017063261" y="508.18649216935216" width="1.1305609284332687" height="30.813507830647836" fill="#f85149" opacity="0.5"/>
<rect x="772.0316187605896" y="504.3950587903102" width="1.1305609284332687" height="34.6049412096898" fill="#3fb950" opacity="0.5"/>
<rect x="773.6498358148532" y="504.04419890333514" width="1.1305609284332687" height="34.95580109666486" fill="#f85149" opacity="0.5"/>
<rect x="775.2680528691168" y="515.3692596885027" width="1.1305609284332687" height="23.630740311497334" fill="#f85149" opacity="0.5"/>
<rect x="776.8862699233804" y="518.2665447915356" width="1.1305609284332687" height="20.73345520846442" fill="#3fb950" opacity="0.5"/>
<rect x="778.5044869776439" y="506.03530946120725" width="1.1305609284332687" height="32.96469053879275" fill="#3fb950" opacity="0.5"/>
<rect x="780.1227040319075" y="510.45017466718764" width="1.1305609284332687" height="28.54982533281236" fill="#3fb950" opacity="0.5"/>
<rect x="781.740921086171" y="522.2803428545435" width="1.1305609284332687" height="16.719657145456495" fill="#f85149" opacity="0.5"/>
<rect x="783.3591381404347" y="509.5910135405644" width="1.1305609284332687" height="29.408986459435596" fill="#3fb950" opacity="0.5"/>
<rect x="784.9773551946981" y="518.4966723773283" width="1.1305609284332687" height="20.50332762267169" fill="#f85149" opacity="0.5"/>
<rect x="786.5955722489616" y="498.5545602672713" width="1.1305609284332687" height="40.44543973272869" fill="#3fb950" opacity="0.5"/>
<rect x="788.2137893032252" y="508.13819367585006" width="1.1305609284332687" height="30.86180632414994" fill="#f85149" opacity="0.5"/>
<rect x="789.8320063574888" y="494.5534326500236" width="1.1305609284332687" height="44.44656734997642" fill="#3fb950" opacity="0.5"/>
<rect x="791.4502234117524" y="496.74929302182784" width="1.1305609284332687" height="42.25070697817216" fill="#3fb950" opacity="0.5"/>
<rect x="793.068440466016" y="492.1520758422894" width="1.1305609284332687" height="46.84792415771062" fill="#3fb950" opacity="0.5"/>
<rect x="794.6866575202795" y="479.850805565519" width="1.1305609284332687" height="59.14919443448099" fill="#f85149" opacity="0.5"/>
<rect x="796.3048745745431" y="490.61576462434516" width="1.1305609284332687" height="48.38423537565484" fill="#3fb950" opacity="0.5"/>
<rect x="797.9230916288067" y="479.3267588793026" width="1.1305609284332687" height="59.67324112069741" fill="#3fb950" opacity="0.5"/>
<rect x="799.5413086830703" y="484.28386179440326" width="1.1305609284332687" height="54.716138205596735" fill="#3fb950" opacity="0.5"/>
<rect x="801.1595257373338" y="486.1225344324203" width="1.1305609284332687" height="52.87746556757969" fill="#f85149" opacity="0.5"/>
<rect x="802.7777427915973" y="493.5883929841171" width="1.1305609284332687" height="45.41160701588291" fill="#3fb950" opacity="0.5"/>
<rect x="804.395959845861" y="454.9558547272495" width="1.1305609284332687" height="84.04414527275048" fill="#3fb950" opacity="0.5"/>
<rect x="806.0141769001245" y="444.9495250855265" width="1.1305609284332687" height="94.05047491447351" fill="#3fb950" opacity="0.5"/>
<rect x="807.632393954388" y="466.38030393139144" width="1.1305609284332687" height="72.61969606860856" fill="#f85149" opacity="0.5"/>
<rect x="809.2506110086516" y="475.50356988823785" width="1.1305609284332687" height="63.49643011176215" fill="#f85149" opacity="0.5"/>
<rect x="810.8688280629152" y="491.92869244137125" width="1.1305609284332687" height="47.071307558628746" fill="#f85149" opacity="0.5"/>
<rect x="812.4870451171788" y="494.7075473960123" width="1.1305609284332687" height="44.292452603987726" fill="#3fb950" opacity="0.5"/>
<rect x="814.1052621714423" y="489.9104936834171" width="1.1305609284332687" height="49.08950631658291" fill="#3fb950" opacity="0.5"/>
<rect x="815.7234792257059" y="490.44753454282426" width="1.1305609284332687" height="48.55246545717574" fill="#f85149" opacity="0.5"/>
<rect x="817.3416962799695" y="502.42908915055847" width="1.1305609284332687" height="36.57091084944153" fill="#f85149" opacity="0.5"/>
<rect x="818.9599133342331" y="504.676993419301" width="1.1305609284332687" height="34.32300658069897" fill="#3fb950" opacity="0.5"/>
<rect x="820.5781303884966" y="477.37771731569427" width="1.1305609284332687" height="61.62228268430573" fill="#3fb950" opacity="0.5"/>
<rect x="822.1963474427602" y="494.7372352502955" width="1.1305609284332687" height="44.2627647497045" fill="#f85149" opacity="0.5"/>
<rect x="823.8145644970238" y="503.02898148570347" width="1.1305609284332687" height="35.97101851429653" fill="#f85149" opacity="0.5"/>
<rect x="825.4327815512873" y="489.24938572051207" width="1.1305609284332687" height="49.750614279487934" fill="#3fb950" opacity="0.5"/>
<rect x="827.0509986055508" y="503.12308700083764" width="1.1305609284332687" height="35.87691299916236" fill="#f85149" opacity="0.5"/>
<rect x="828.6692156598144" y="501.84311299710873" width="1.1305609284332687" height="37.15688700289127" fill="#3fb950" opacity="0.5"/>
<rect x="830.287432714078" y="503.7270001126256" width="1.1305609284332687" height="35.2729998873744" fill="#f85149" opacity="0.5"/>
<rect x="831.9056497683416" y="470.1085932506634" width="1.1305609284332687" height="68.89140674933662" fill="#3fb950" opacity="0.5"/>
<rect x="833.5238668226052" y="487.3097076654944" width="1.1305609284332687" height="51.690292334505614" fill="#3fb950" opacity="0.5"/>
<rect x="835.1420838768687" y="482.0612467847049" width="1.1305609284332687" height="56.938753215295094" fill="#3fb950" opacity="0.5"/>
<rect x="836.7603009311322" y="465.9754422111959" width="1.1305609284332687" height="73.02455778880409" fill="#3fb950" opacity="0.5"/>
<rect x="838.3785179853958" y="457.16417327796717" width="1.1305609284332687" height="81.83582672203283" fill="#f85149" opacity="0.5"/>
<rect x="839.9967350396594" y="480.9835286643486" width="1.1305609284332687" height="58.016471335651374" fill="#3fb950" opacity="0.5"/>
<rect x="841.614952093923" y="485.72841308684883" width="1.1305609284332687" height="53.27158691315117" fill="#f85149" opacity="0.5"/>
<rect x="843.2331691481864" y="488.3679021533215" width="1.1305609284332687" height="50.632097846678505" fill="#f85149" opacity="0.5"/>
<rect x="844.85138620245" y="503.4153333729433" width="1.1305609284332687" height="35.58466662705672" fill="#f85149" opacity="0.5"/>
<rect x="846.4696032567136" y="487.8911229502083" width="1.1305609284332687" height="51.108877049791715" fill="#3fb950" opacity="0.5"/>
<rect x="848.0878203109772" y="476.32681366133954" width="1.1305609284332687" height="62.67318633866046" fill="#3fb950" opacity="0.5"/>
<rect x="849.7060373652407" y="491.2536355142463" width="1.1305609284332687" height="47.7463644857537" fill="#3fb950" opacity="0.5"/>
<rect x="851.3242544195043" y="473.9744323062406" width="1.1305609284332687" height="65.0255676937594" fill="#3fb950" opacity="0.5"/>
<rect x="852.9424714737679" y="448.6496738856766" width="1.1305609284332687" height="90.35032611432342" fill="#3fb950" opacity="0.5"/>
<rect x="854.5606885280315" y="467.86105778532266" width="1.1305609284332687" height="71.13894221467734" fill="#f85149" opacity="0.5"/>
<rect x="856.178905582295" y="475.41893278577305" width="1.1305609284332687" height="63.58106721422695" fill="#3fb950" opacity="0.5"/>
<rect x="857.7971226365586" y="486.89511445286956" width="1.1305609284332687" height="52.104885547130436" fill="#3fb950" opacity="0.5"/>
<rect x="859.4153396908222" y="492.4015164328907" width="1.1305609284332687" height="46.59848356710933" fill="#f85149" opacity="0.5"/>
<rect x="861.0335567450858" y="473.26160171513834" width="1.1305609284332687" height="65.73839828486166" fill="#3fb950" opacity="0.5"/>
<rect x="862.6517737993493" y="482.0676090531678" width="1.1305609284332687" height="56.932390946832186" fill="#3fb950" opacity="0.5"/>
<rect x="864.2699908536129" y="480.9091524920855" width="1.1305609284332687" height="58.090847507914475" fill="#3fb950" opacity="0.5"/>
<rect x="865.8882079078764" y="471.64633952362226" width="1.1305609284332687" height="67.35366047637774" fill="#3fb950" opacity="0.5"/>
<rect x="867.50642496214" y="475.8675206568513" width="1.1305609284332687" height="63.1324793431487" fill="#3fb950" opacity="0.5"/>
<rect x="869.1246420164035" y="469.1100449272308" width="1.1305609284332687" height="69.88995507276923" fill="#3fb950" opacity="0.5"/>
<rect x="870.7428590706671" y="474.0741436330824" width="1.1305609284332687" height="64.92585636691763" fill="#f85149" opacity="0.5"/>
<rect x="872.3610761249307" y="470.9485470961199" width="1.1305609284332687" height="68.05145290388009" fill="#3fb950" opacity="0.5"/>
<rect x="873.9792931791943" y="464.5952200667848" width="1.1305609284332687" height="74.4047799332152" fill="#f85149" opacity="0.5"/>
<rect x="875.5975102334579" y="483.66965824814145" width="1.1305609284332687" height="55.330341751858555" fill="#3fb950" opacity="0.5"/>
<rect x="877.2157272877214" y="470.4981652013827" width="1.1305609284332687" height="68.50183479861732" fill="#3fb950" opacity="0.5"/>
<rect x="878.833944341985" y="476.10217387016587" width="1.1305609284332687" height="62.89782612983413" fill="#3fb950" opacity="0.5"/>
<rect x="880.4521613962486" y="465.3090628183342" width="1.1305609284332687" height="73.69093718166579" fill="#f85149" opacity="0.5"/>
<rect x="882.0703784505122" y="483.24247818519416" width="1.1305609284332687" height="55.75752181480584" fill="#f85149" opacity="0.5"/>
<rect x="883.6885955047757" y="478.39329124328106" width="1.1305609284332687" height="60.606708756718945" fill="#3fb950" opacity="0.5"/>
<rect x="885.3068125590393" y="484.5144991484536" width="1.1305609284332687" height="54.48550085154642" fill="#f85149" opacity="0.5"/>
<rect x="886.9250296133029" y="492.86562273155425" width="1.1305609284332687" height="46.134377268445746" fill="#f85149" opacity="0.5"/>
<rect x="888.5432466675663" y="483.63046264215933" width="1.1305609284332687" height="55.36953735784067" fill="#3fb950" opacity="0.5"/>
<rect x="890.1614637218299" y="491.6280906233066" width="1.1305609284332687" height="47.371909376693395" fill="#f85149" opacity="0.5"/>
<rect x="891.7796807760934" y="496.3767302840004" width="1.1305609284332687" height="42.623269715999584" fill="#3fb950" opacity="0.5"/>
<rect x="893.397897830357" y="479.77559507800464" width="1.1305609284332687" height="59.22440492199536" fill="#3fb950" opacity="0.5"/>
<rect x="895.0161148846206" y="464.7366004410902" width="1.1305609284332687" height="74.26339955890978" fill="#3fb950" opacity="0.5"/>
<rect x="896.6343319388842" y="496.9112460694498" width="1.1305609284332687" height="42.08875393055018" fill="#f85149" opacity="0.5"/>
<rect x="898.2525489931477" y="478.671646840148" width="1.1305609284332687" height="60.328353159851986" fill="#3fb950" opacity="0.5"/>
<rect x="899.8707660474113" y="489.7361635936301" width="1.1305609284332687" height="49.263836406369876" fill="#f85149" opacity="0.5"/>
<rect x="901.4889831016749" y="491.8015216523563" width="1.1305609284332687" height="47.198478347643686" fill="#3fb950" opacity="0.5"/>
<rect x="903.1072001559385" y="505.0326657808883" width="1.1305609284332687" height="33.967334219111706" fill="#f85149" opacity="0.5"/>
<rect x="904.725417210202" y="504.68339092897793" width="1.1305609284332687" height="34.31660907102207" fill="#3fb950" opacity="0.5"/>
<rect x="906.3436342644655" y="503.66722117900645" width="1.1305609284332687" height="35.33277882099355" fill="#f85149" opacity="0.5"/>
<rect x="907.9618513187291" y="490.34475641080553" width="1.1305609284332687" height="48.65524358919447" fill="#3fb950" opacity="0.5"/>
<rect x="909.5800683729927" y="492.7874905015344" width="1.1305609284332687" height="46.21250949846558" fill="#3fb950" opacity="0.5"/>
<rect x="911.1982854272562" y="497.66411149916405" width="1.1305609284332687" height="41.33588850083595" fill="#3fb950" opacity="0.5"/>
<rect x="912.8165024815198" y="505.4246562623604" width="1.1305609284332687" height="33.57534373763963" fill="#3fb950" opacity="0.5"/>
<rect x="914.4347195357834" y="482.87573188679494" width="1.1305609284332687" height="56.12426811320506" fill="#3fb950" opacity="0.5"/>
<polyline points="874.5445736434109,101.91559593884139 876.1627906976745,102.7403852025083 877.781007751938,103.56517446617528 879.3992248062016,104.38996372984224 881.0174418604652,105.2147529935092 882.6356589147288,106.03954225717615 884.2538759689922,106.86433152084308 885.8720930232558,107.68912078451004 887.4903100775194,108.51391004817702 889.1085271317829,109.33869931184395 890.7267441860465,110.16348857551091 892.34496124031,110.98827783917787 893.9631782945736,111.81306710284483 895.5813953488372,112.63785636651178 897.1996124031008,113.46264563017871 898.8178294573643,114.28743489384567 900.4360465116279,115.11222415751263 902.0542635658915,115.93701342117956 903.672480620155,116.76180268484651 905.2906976744185,117.58659194851347 906.9089147286821,118.41138121218043 908.5271317829457,119.23617047584739 910.1453488372093,120.06095973951432 911.7635658914728,120.88574900318127" stroke="#f85149" stroke-width="2.8" fill="none"/>
<polyline points="874.5445736434109,181.4514550805698 876.1627906976745,180.33789110835176 877.781007751938,179.22432713613375 879.3992248062016,178.11076316391575 881.0174418604652,176.99719919169772 882.6356589147288,175.8836352194797 884.2538759689922,174.77007124726163 885.8720930232558,173.65650727504368 887.4903100775194,172.54294330282565 889.1085271317829,171.4293793306076 890.7267441860465,170.31581535838956 892.34496124031,169.20225138617155 893.9631782945736,168.0886874139535 895.5813953488372,166.97512344173552 897.1996124031008,165.8615594695175 898.8178294573643,164.74799549729948 900.4360465116279,163.63443152508142 902.0542635658915,162.52086755286342 903.672480620155,161.40730358064542 905.2906976744185,160.29373960842736 906.9089147286821,159.18017563620936 908.5271317829457,158.06661166399132 910.1453488372093,156.9530476917733 911.7635658914728,155.83948371955526" stroke="#3fb950" stroke-width="2.8" fill="none"/>
<polygon points="874.5445736434109,101.91559593884139 876.1627906976745,102.7403852025083 877.781007751938,103.56517446617528 879.3992248062016,104.38996372984224 881.0174418604652,105.2147529935092 882.6356589147288,106.03954225717615 884.2538759689922,106.86433152084308 885.8720930232558,107.68912078451004 887.4903100775194,108.51391004817702 889.1085271317829,109.33869931184395 890.7267441860465,110.16348857551091 892.34496124031,110.98827783917787 893.9631782945736,111.81306710284483 895.5813953488372,112.63785636651178 897.1996124031008,113.46264563017871 898.8178294573643,114.28743489384567 900.4360465116279,115.11222415751263 902.0542635658915,115.93701342117956 902.0542635658915,162.52086755286342 900.4360465116279,163.63443152508142 898.8178294573643,164.74799549729948 897.1996124031008,165.8615594695175 895.5813953488372,166.97512344173552 893.9631782945736,168.0886874139535 892.34496124031,169.20225138617155 890.7267441860465,170.31581535838956 889.1085271317829,171.4293793306076 887.4903100775194,172.54294330282565 885.8720930232558,173.65650727504368 884.2538759689922,174.77007124726163 882.6356589147288,175.8836352194797 881.0174418604652,176.99719919169772 879.3992248062016,178.11076316391575 877.781007751938,179.22432713613375 876.1627906976745,180.33789110835176 874.5445736434109,181.4514550805698" fill="#FFD700" opacity="0.10"/>
<polygon points="872.3992248062016,95.38996372984224 886.3992248062016,95.38996372984224 879.3992248062016,105.38996372984224" fill="#f85149" stroke="#fff" stroke-width="1.5"/>
<text x="879.3992248062016" y="91.38996372984224" text-anchor="middle" font-size="9" fill="#f85149">¥246.80</text>
<polygon points="891.8178294573643,105.28743489384567 905.8178294573643,105.28743489384567 898.8178294573643,115.28743489384567" fill="#f85149" stroke="#fff" stroke-width="1.5"/>
<text x="898.8178294573643" y="101.28743489384567" text-anchor="middle" font-size="9" fill="#f85149">¥238.67</text>
<polygon points="867.5445736434109,190.4514550805698 881.5445736434109,190.4514550805698 874.5445736434109,180.4514550805698" fill="#3fb950" stroke="#fff" stroke-width="1.5"/>
<text x="874.5445736434109" y="199.4514550805698" text-anchor="middle" font-size="9" fill="#3fb950">¥183.50</text>
<polygon points="895.0542635658915,171.52086755286342 909.0542635658915,171.52086755286342 902.0542635658915,161.52086755286342" fill="#3fb950" stroke="#fff" stroke-width="1.5"/>
<text x="902.0542635658915" y="180.52086755286342" text-anchor="middle" font-size="9" fill="#3fb950">¥199.05</text>
<circle cx="911.7635658914728" cy="110.23348914032397" r="8" fill="#f0883e" stroke="#fff" stroke-width="2.5"/>
<text x="911.7635658914728" y="96.23348914032397" text-anchor="middle" font-size="11" fill="#f0883e" font-weight="bold">★ 突破 ¥242.00</text>
<polyline points="80.0,359.44767388609705 81.61821705426357,361.541603824853 83.23643410852713,362.35726258006605 84.8546511627907,361.48073376849385 86.47286821705427,363.34335749308485 88.09108527131784,363.8790139890457 89.70930232558139,364.0981461919387 91.32751937984496,363.6598817861526 92.94573643410853,361.93117218555176 94.56395348837209,361.8581281179207 96.18217054263566,359.78854620170847 97.80038759689923,360.0198524158734 99.4186046511628,360.4824648442032 101.03682170542635,361.62682190375585 102.65503875968992,362.9659631436579 104.27325581395348,362.6859608844057 105.89147286821705,363.9520580566767 107.50968992248062,364.3903224624628 109.12790697674419,364.5729326315404 110.74612403100775,364.6703247217151 112.36434108527132,363.7572738763273 113.98255813953489,364.06162415812327 115.60077519379846,365.48598347692814 117.21899224806202,364.81641285697714 118.83720930232559,366.021639972889 120.45542635658916,365.4129394092971 122.07364341085271,364.9381529696955 123.69186046511628,364.7433687893461 125.31007751937985,362.47900269278443 126.92829457364341,362.62509082804644 128.54651162790697,361.4076897008628 130.16472868217056,362.08943433208566 131.7829457364341,363.0511812225608 133.40116279069767,360.15376653986357 135.01937984496124,360.0807224722326 136.6375968992248,359.2650637170195 138.25581395348837,359.0946275592138 139.87403100775194,359.93463433697053 141.4922480620155,359.3502817959224 143.11046511627907,358.108532646195 144.72868217054264,359.78854620170847 146.3468992248062,360.567682923106 147.96511627906978,361.0546433739795 149.58333333333331,359.3624558071942 151.2015503875969,359.84941625806766 152.81976744186045,357.9867925334766 154.43798449612405,358.5467970519811 156.05620155038758,358.6441891421558 157.67441860465118,360.21463659622276 159.29263565891472,361.01812134016404 160.91085271317831,360.7746411147273 162.52906976744185,361.1520354641542 164.14728682170542,362.62509082804644 165.765503875969,362.73465692949304 167.38372093023256,361.93117218555176 169.00193798449612,363.5746637072498 170.6201550387597,363.9398840454049 172.23837209302326,365.15728517258856 173.85658914728683,364.88945692460817 175.4748062015504,364.5729326315404 177.09302325581393,364.9868490147829 178.71124031007753,363.5746637072498 180.3294573643411,364.07379816939505 181.94767441860466,365.8755518376269 183.5658914728682,368.8825326217706 185.1841085271318,368.09122188910123 186.80232558139534,367.84774166366446 188.42054263565893,368.68774844142126 190.03875968992247,368.74861849778046 191.65697674418604,368.85818459922695 193.2751937984496,368.55383431743104 194.89341085271317,368.89470663304246 196.51162790697674,368.71209646396494 198.1298449612403,368.2373100243633 199.74806201550388,368.0181778214702 201.36627906976744,368.9068806443143 202.984496124031,368.9434026781298 204.60271317829455,369.8199314897021 206.22093023255815,369.7590614333429 207.83914728682169,370.9399405267111 209.45736434108528,370.76950436890536 211.07558139534885,370.61124222237146 212.69379844961242,370.4529800758376 214.31201550387598,369.38166708391594 215.93023255813955,371.41472696631274 217.5484496124031,371.0495066281576 219.16666666666666,371.39037894376906 220.78488372093022,371.49994504521555 222.4031007751938,372.75386820621475 224.02131782945736,372.4008218793315 225.63953488372093,371.75559928192416 227.2577519379845,371.96255747354536 228.87596899224806,372.3764738567878 230.49418604651163,372.3156038004287 232.1124031007752,372.4982139695062 233.73062015503876,372.42516990187517 235.34883720930233,372.1938636877103 236.9670542635659,372.1329936313511 238.58527131782947,370.7573303576335 240.20348837209303,370.5990682110996 241.8217054263566,369.3451450501004 243.43992248062014,367.3851292353347 245.0581395348837,363.92771003413304 246.67635658914728,359.8859382918832 248.29457364341084,364.378148451191 249.9127906976744,365.36424336420976 251.53100775193798,367.5920874269559 253.14922480620154,364.5120625751812 254.7674418604651,365.88772584889875 256.38565891472865,366.53294844630614 258.00387596899225,365.9972919503453 259.62209302325584,362.11378235462934 261.2403100775194,359.6789801002619 262.8585271317829,358.6441891421558 264.4767441860465,359.4233258635534 266.0949612403101,359.7398501566212 267.71317829457365,360.09289648350443 269.3313953488372,359.64245806644647 270.9496124031008,359.0337575028546 272.5678294573643,354.4563292646439 274.18604651162786,349.41628859810345 275.80426356589146,352.45979141606267 277.42248062015506,351.1571722099761 279.04069767441865,349.17280837266674 280.6589147286822,350.1589032856855 282.27713178294573,349.7084648686275 283.8953488372093,346.4580038590471 285.51356589147287,343.8771134694177 287.1317829457364,344.07189764976704 288.75,345.03364454024216 290.3682170542636,346.762354140843 291.98643410852713,349.8302049813459 293.6046511627907,350.87716995072384 295.22286821705427,349.93977108279245 296.84108527131787,349.3432445304724 298.4593023255814,349.8058569588022 300.07751937984494,353.2632761600039 301.69573643410854,354.85807163661457 303.3139534883721,354.50502530973125 304.9321705426356,353.6041484756153 306.5503875968992,354.13980497157615 308.1686046511628,353.5311044079843 309.78682170542635,352.78848972040225 311.4050387596899,353.71371457706186 313.0232558139535,353.9084987574113 314.6414728682171,353.6650185319745 316.2596899224806,353.7867586446929 317.87790697674416,355.27198801985696 319.49612403100775,355.33285807621616 321.11434108527135,353.00762192329535 322.7325581395349,352.05804904409206 324.3507751937984,350.9015179732675 325.968992248062,346.6649620506683 327.5872093023256,346.5797439717655 329.2054263565891,347.06670442263896 330.8236434108527,341.2840490685164 332.4418604651163,334.9292151846176 334.06007751937983,335.9274841089082 335.67829457364337,336.3048784583351 337.29651162790697,335.6961778947433 338.91472868217056,332.4700649077065 340.5329457364341,336.6700987964902 342.1511627906977,337.2909733713539 343.76937984496124,341.3327451136038 345.38759689922483,343.34145697345684 347.00581395348837,346.50669990413445 348.62403100775197,346.8232241972022 350.2422480620155,344.1814637512136 351.8604651162791,344.3518999090193 353.47868217054264,343.68232928906826 355.0968992248062,346.19017561106665 356.7151162790698,346.34843775760055 358.3333333333333,343.03710669166094 359.9515503875969,344.4614660104658 361.56976744186045,341.22317901215723 363.18798449612405,342.72058239859314 364.8062015503876,342.08753381245765 366.4244186046512,339.42142534392536 368.0426356589147,338.49620048726575 369.6608527131783,342.33101403789436 371.27906976744185,341.6370953953997 372.89728682170545,345.9101733518144 374.515503875969,346.68931007321197 376.1337209302326,346.31191572378503 377.7519379844961,345.191906686776 379.3701550387597,344.4127699653785 380.98837209302326,344.2788558413883 382.6065891472868,339.99360387370166 384.2248062015504,342.3797100829817 385.84302325581393,343.8649394581458 387.4612403100775,338.86142082542085 389.07945736434107,341.4544852263221 390.69767441860466,340.6875225161964 392.3158914728682,341.1136129107107 393.9341085271318,334.7344310042682 395.55232558139534,334.819649083171 397.17054263565893,336.5483586837719 398.7887596899225,333.87007620396776 400.40697674418607,336.0613982328984 402.0251937984496,338.3622863632756 403.6434108527132,342.0388377673703 405.26162790697674,342.51362420697194 406.8798449612403,340.84578466273024 408.4980620155039,339.4701213890127 410.1162790697674,341.685791440487 411.734496124031,341.3205711023319 413.35271317829455,342.7449304211368 414.97093023255815,342.0388377673703 416.5891472868217,344.59538013445604 418.2073643410853,343.40232702981604 419.8255813953488,342.8666705338552 421.4437984496124,342.35536206043804 423.06201550387595,344.1814637512136 424.68023255813955,344.96060047261113 426.2984496124031,347.4927948171532 427.9166666666667,347.8580151553083 429.5348837209302,349.08759029376387 431.1531007751938,348.7345439668806 432.77131782945736,348.62497786543406 434.3895348837209,349.5623767333655 436.0077519379845,349.0632422712202 437.62596899224803,349.03889424867646 439.24418604651163,346.9206162873769 440.86240310077517,346.5310479266781 442.48062015503876,352.36239932588796 444.0988372093023,356.47721513576886 445.7170542635659,355.418076155119 447.33527131782944,354.50502530973125 448.95348837209303,353.8476287010521 450.5717054263566,352.8615337880333 452.18992248062017,353.2876241825476 453.8081395348837,354.39545920828476 455.4263565891473,354.3102411293819 457.0445736434109,353.7258885883337 458.6627906976744,352.66674960768387 460.281007751938,352.69109763022755 461.8992248062015,350.5484716463843 463.5174418604651,353.8963247461394 465.13565891472865,353.5189303967125 466.75387596899225,353.482408362897 468.3720930232558,354.0667609039451 469.9903100775194,352.84935977676145 471.6085271317829,349.93977108279245 473.2267441860465,350.13455526314186 474.84496124031006,348.7345439668806 476.46317829457365,349.8667270151614 478.08139534883725,349.4041145868316 479.6996124031008,349.84237899261774 481.3178294573644,349.59889876718097 482.9360465116279,351.75369876229615 484.55426356589146,351.69282870593696 486.172480620155,352.36239932588796 487.7906976744186,352.42326938224716 489.40891472868213,353.3850162727223 491.02713178294573,353.7867586446929 492.64534883720927,354.66328745626515 494.26356589147287,353.94502079122674 495.8817829457364,354.7119835013525 497.5,354.68763547880883 499.1182170542636,353.5189303967125 500.73643410852713,354.68763547880883 502.35465116279073,355.1624219184105 503.97286821705427,354.05458689267334 505.59108527131787,351.7293507397525 507.2093023255814,351.2789123226945 508.827519379845,350.71890780419 510.44573643410854,351.91196090883 512.0639534883721,352.2528332244414 513.6821705426357,350.40238351112225 515.3003875968993,351.8267428299272 516.9186046511628,350.4754275787533 518.5368217054264,350.96238802962677 520.1550387596899,350.0128151504235 521.7732558139535,350.7554298380055 523.3914728682171,352.4963134498782 525.0096899224806,352.6180535625965 526.6279069767442,347.3954027269785 528.2461240310076,346.762354140843 529.8643410852712,345.86147730672707 531.4825581395348,345.7762592278242 533.1007751937984,344.80233832607723 534.718992248062,345.73973719400874 536.3372093023256,347.66323097495894 537.9554263565891,346.4580038590471 539.5736434108527,347.2980106368038 541.1918604651163,348.67367391052136 542.8100775193798,347.3467066818912 544.4282945736434,347.4806208058814 546.046511627907,348.36932362872545 547.6647286821706,348.3814976399973 549.2829457364342,348.00410329057036 550.9011627906978,345.49625696857197 552.5193798449612,347.05453041136707 554.1375968992248,344.81451233734913 555.7558139534883,345.49625696857197 557.3740310077519,346.0562614870765 558.9922480620155,346.31191572378503 560.6104651162791,347.3467066818912 562.2286821705427,347.1640965128136 563.8468992248063,346.6527880393965 565.4651162790698,340.83361065145846 567.0833333333334,341.0527428543515 568.7015503875969,341.9049236433801 570.3197674418604,341.60057336158417 571.937984496124,343.779721379243 573.5562015503876,344.0840716610389 575.1744186046512,342.63536431969027 576.7926356589146,342.2457959589915 578.4108527131782,343.5849371988936 580.0290697674418,343.9501575370487 581.6472868217054,342.93971460148623 583.265503875969,341.539703305225 584.8837209302326,340.3223021780413 586.5019379844962,341.6492694066715 588.1201550387597,341.19883098961355 589.7383720930233,339.0318569832266 591.3565891472867,337.8874999236739 592.9748062015503,331.19179372416363 594.5930232558139,334.6492129253653 596.2112403100775,331.89788637793015 597.8294573643411,328.9396016388738 599.4476744186046,327.17437000445744 601.0658914728682,324.73956775009003 602.6841085271318,318.85952030579284 604.3023255813954,321.19693046998555 605.9205426356589,314.5255722930189 607.5387596899225,323.55868865672187 609.1569767441861,325.1656581446044 610.7751937984497,333.12746151638567 612.3934108527131,329.5726502250093 614.0116279069767,331.0944016339889 615.6298449612403,333.44398580945347 617.2480620155039,332.4944129302502 618.8662790697674,327.0282818691954 620.484496124031,325.5308784827595 622.1027131782946,326.32218921542886 623.7209302325582,322.65781182260594 625.3391472868218,322.85259600295535 626.9573643410853,320.64909996275287 628.5755813953488,321.18475645871365 630.1937984496124,315.42644912713484 631.812015503876,319.80909318499613 633.4302325581396,321.08736436853894 635.048449612403,317.64211917860916 636.6666666666666,322.4630276422566 638.2848837209302,320.88040617691775 639.9031007751938,323.7656468483431 641.5213178294573,323.94825701742064 643.1395348837209,328.03872480475786 644.7577519379845,329.13438581922316 646.3759689922481,333.3587677305506 647.9941860465116,331.8857123666583 649.6124031007752,331.4839699946877 651.2306201550388,333.50485586581266 652.8488372093024,332.5674569978812 654.4670542635658,330.07178468715466 656.0852713178294,329.35351802211625 657.703488372093,330.40048299149424 659.3217054263566,327.8682886469522 660.9399224806201,323.4978186003627 662.5581395348837,323.58303667926555 664.1763565891473,322.91346605931454 665.7945736434109,324.7639157726337 667.4127906976745,328.1726389287481 669.031007751938,329.32916999957257 670.6492248062016,330.82657338600853 672.2674418604652,332.15354061463876 673.8856589147288,329.3778660446599 675.5038759689922,329.99874061952363 677.1220930232558,330.74135530710566 678.7403100775194,333.2005055840167 680.3585271317829,334.56399484646244 681.9767441860465,333.28572366291957 683.59496124031,335.9274841089082 685.2131782945736,335.5744377820249 686.8313953488372,335.1483473875106 688.4496124031008,335.23356546641344 690.0678294573643,335.6596558609278 691.6860465116279,338.61794059998414 693.3042635658915,335.5135677256657 694.922480620155,333.13963552765756 696.5406976744185,331.459621972144 698.1589147286821,330.6317892056591 699.7771317829457,331.03353157762973 701.3953488372093,329.4022140672036 703.0135658914728,330.40048299149424 704.6317829457364,331.22831575797915 706.25,330.9117914649114 707.8682170542636,328.50133723308767 709.4864341085272,325.17783215587616 711.1046511627907,324.00912707377984 712.7228682170543,321.3917146503349 714.3410852713179,324.06999713013903 715.9593023255815,322.9865101269456 717.577519379845,325.92044684345825 719.1957364341085,328.9396016388738 720.8139534883721,321.34301860524755 722.4321705426357,322.0491112590141 724.0503875968992,321.4769327292378 725.6686046511628,319.3343067453945 727.2868217054264,318.7256061818026 728.90503875969,318.2629937534728 730.5232558139535,318.79865024943365 732.1414728682171,320.11344346679203 733.7596899224806,318.65256211417164 735.3779069767442,319.0786525086859 736.9961240310078,319.68735307227774 738.6143410852712,318.61604008035613 740.2325581395348,320.2595316020541 741.8507751937984,318.1899496858418 743.468992248062,318.55517002399694 745.0872093023255,316.96037454738627 746.7054263565891,313.14990901930133 748.3236434108527,319.49256889192833 749.9418604651163,310.9585869903707 751.5600775193799,309.2785734348572 753.1782945736434,311.71337568922456 754.796511627907,316.14471579217326 756.4147286821706,320.3325756696851 758.0329457364342,316.0229756794549 759.6511627906976,316.88733047975524 761.2693798449612,318.10473160693897 762.8875968992248,318.25081974220103 764.5058139534884,317.2403768066385 766.1240310077519,316.9482005361144 767.7422480620155,319.6386570271904 769.3604651162791,316.6925462994059 770.9786821705427,320.6977960078402 772.5968992248062,317.5325530771626 774.2151162790698,319.9917033540737 775.8333333333334,324.0943451526827 777.451550387597,323.58303667926555 779.0697674418604,319.56561295955936 780.687984496124,318.5429960127251 782.3062015503876,319.71170109482136 783.9244186046512,316.68037228813404 785.5426356589147,319.60213499337493 787.1608527131782,315.560363251125 788.7790697674418,316.8629824572116 790.3972868217054,313.1377350080295 792.015503875969,312.41946834299114 793.6337209302326,311.0803271030891 795.2519379844961,311.8229417906711 796.8701550387597,310.0698841675266 798.4883720930233,308.76726496144005 800.1065891472869,307.3185576200915 801.7248062015503,309.4855316264784 803.3430232558139,299.9532808006302 804.9612403100775,293.4645327927411 806.5794573643411,284.5409825304846 808.1976744186046,296.5689056670595 809.8158914728682,303.19156779893876 811.4341085271318,308.3290005556539 813.0523255813954,303.0698276862204 814.6705426356589,302.07155876192974 816.2887596899225,303.7028762723559 817.9069767441861,308.6576988599935 819.5251937984497,307.6107338906155 821.1434108527131,299.60023447374687 822.7616279069767,301.3654661081632 824.3798449612403,301.97416667175503 825.9980620155039,297.5915226138938 827.6162790697674,302.2176468971918 829.234496124031,298.95501187633954 830.8527131782946,302.7046073480652 832.4709302325582,294.80367403264313 834.0891472868218,292.40539381209123 835.7073643410853,285.2227271617075 837.3255813953488,273.25567408149186 838.9437984496124,273.58437238583144 840.562015503876,266.38953172417587 842.1802325581396,269.22607635051384 843.798449612403,274.9478616482771 845.4166666666666,275.54438820059715 847.0348837209302,262.6155882299064 848.6531007751938,258.6955566003749 850.2713178294573,256.5772786390753 851.8895348837209,253.92334418181483 853.5077519379845,244.5371814912286 855.1259689922481,248.165036850236 856.7441860465116,241.07976229002688 858.3624031007752,238.06060749461136 859.9806201550388,243.08847414988 861.5988372093024,229.19792728871408 863.2170542635658,221.2361239169328 864.8352713178294,204.83773073376847 866.453488372093,184.8358302141405 868.0717054263566,162.83739184593117 869.6899224806201,159.5382347912634 871.3081395348837,163.8356607702218 872.9263565891473,156.73821219874088 874.5445736434109,165.63741443845367 876.1627906976745,149.3120653229204 877.781007751938,123.75881566333477 879.3992248062016,117.05093545255261 881.0174418604652,140.30329698176106 882.6356589147288,142.04418059363377 884.2538759689922,132.17105745217407 885.8720930232558,153.18340090736453 887.4903100775194,158.077353438643 889.1085271317829,143.22505968700196 890.7267441860465,156.55560202966336 892.34496124031,156.12951163514907 893.9631782945736,142.96940545029332 895.5813953488372,132.1467094296304 897.1996124031008,136.33456930714226 898.8178294573643,127.78841339431274 900.4360465116279,152.85470260302492 902.0542635658915,148.92249696222163 903.672480620155,158.19909355136133 905.2906976744185,154.790370395247 906.9089147286821,155.31385287993598 908.5271317829457,130.35712977267036 910.1453488372093,124.83012865525643 911.7635658914728,110.23348914032397 913.3817829457364,80.77238186247868 915.0,68.74445872590385" stroke="#58a6ff" stroke-width="1.8" fill="none"/>
<line x1="80" y1="33.171997789596475" x2="915" y2="33.171997789596475" stroke="#FFD700" stroke-width="1.5" stroke-dasharray="6,4"/>
<text x="920" y="38.171997789596475" font-size="11" fill="#FFD700" font-weight="bold">▼ 目标 305.30</text>
<line x1="80" y1="110.23348914032397" x2="915" y2="110.23348914032397" stroke="#3fb950" stroke-width="1" stroke-dasharray="3,3"/>
<text x="920" y="115.23348914032397" font-size="11" fill="#3fb950">突破价 242.00</text>
<line x1="915.0" y1="68.74445872590385" x2="915" y2="68.74445872590385" stroke="#88ccff" stroke-width="1.5"/>
<text x="920" y="73.74445872590385" font-size="11" fill="#88ccff" font-weight="bold">● 现价 276.08</text>
<text x="80" y="623" font-size="13" fill="#58a6ff" font-weight="bold">上榜理由 (综合得分: 89):</text>
<text x="90" y="641" font-size="11" fill="#c9d1d9">1. 形态于13天前收敛，突破信号有效</text>
<text x="90" y="657" font-size="11" fill="#c9d1d9">2. 突破后日线胜率95%，表现优秀</text>
<text x="90" y="673" font-size="11" fill="#c9d1d9">3. 量度目标涨幅26.2%（目标¥305.30 / 突破¥242.00）</text>
<text x="90" y="689" font-size="11" fill="#c9d1d9">4. 三角收敛对称度85%，形态标准</text>
<text x="90" y="705" font-size="11" fill="#c9d1d9">5. 收敛前强上涨趋势+120.7%，典型上涨中继</text>
<text x="90" y="721" font-size="11" fill="#c9d1d9">6. 三角持续17个交易日，整理充分</text>
</svg>