<svg xmlns="http://www.w3.org/2000/svg" viewBox="0 0 1000 720" width="1000" height="720">
<rect width="1000" height="720" fill="#0d1117"/>
<text x="500.0" y="24" text-anchor="middle" font-size="17" fill="#58a6ff" font-weight="bold">共达电声 (002655.SZ)  三角收敛上涨中继  评分:89/100</text>
<line x1="80" y1="374.0" x2="915" y2="374.0" stroke="#21262d" stroke-width="0.5"/>
<text x="72" y="378.0" text-anchor="end" font-size="10" fill="#8b949e">8.75</text>
<line x1="80" y1="310.2" x2="915" y2="310.2" stroke="#21262d" stroke-width="0.5"/>
<text x="72" y="314.2" text-anchor="end" font-size="10" fill="#8b949e">16.65</text>
<line x1="80" y1="246.4" x2="915" y2="246.4" stroke="#21262d" stroke-width="0.5"/>
<text x="72" y="250.4" text-anchor="end" font-size="10" fill="#8b949e">24.56</text>
<line x1="80" y1="182.59999999999997" x2="915" y2="182.59999999999997" stroke="#21262d" stroke-width="0.5"/>
<text x="72" y="186.59999999999997" text-anchor="end" font-size="10" fill="#8b949e">32.47</text>
<line x1="80" y1="118.80000000000001" x2="915" y2="118.80000000000001" stroke="#21262d" stroke-width="0.5"/>
<text x="72" y="122.80000000000001" text-anchor="end" font-size="10" fill="#8b949e">40.37</text>
<line x1="80" y1="55.0" x2="915" y2="55.0" stroke="#21262d" stroke-width="0.5"/>
<text x="72" y="59.0" text-anchor="end" font-size="10" fill="#8b949e">48.28</text>
<text x="80.0" y="554.0" text-anchor="middle" font-size="9" fill="#8b949e">2024-05-06</text>
<text x="183.5658914728682" y="554.0" text-anchor="middle" font-size="9" fill="#8b949e">2024-08-05</text>
<text x="287.1317829457364" y="554.0" text-anchor="middle" font-size="9" fill="#8b949e">2024-11-12</text>
<text x="390.69767441860466" y="554.0" text-anchor="middle" font-size="9" fill="#8b949e">2025-02-19</text>
<text x="494.26356589147287" y="554.0" text-anchor="middle" font-size="9" fill="#8b949e">2025-05-26</text>
<text x="597.8294573643411" y="554.0" text-anchor="middle" font-size="9" fill="#8b949e">2025-08-25</text>
<text x="701.3953488372093" y="554.0" text-anchor="middle" font-size="9" fill="#8b949e">2025-12-01</text>
<text x="804.9612403100775" y="554.0" text-anchor="middle" font-size="9" fill="#8b949e">2026-03-11</text>
<text x="908.5271317829457" y="554.0" text-anchor="middle" font-size="9" fill="#8b949e">2026-06-15</text>
<rect x="879.3992248062016" y="55" width="25.891472868216965" height="484.0" fill="#FFD700" opacity="0.06" rx="2"/>
<rect x="79.43471953578337" y="533.8340055091475" width="1.1305609284332687" height="5.16599449085254" fill="#3fb950" opacity="0.5"/>
<rect x="81.05293659004694" y="534.1634784425196" width="1.1305609284332687" height="4.83652155748041" fill="#f85149" opacity="0.5"/>
<rect x="82.67115364431051" y="534.8917136820503" width="1.1305609284332687" height="4.108286317949705" fill="#f85149" opacity="0.5"/>
<rect x="84.28937069857407" y="536.2934285726172" width="1.1305609284332687" height="2.7065714273827552" fill="#3fb950" opacity="0.5"/>
<rect x="85.90758775283764" y="535.6544624366356" width="1.1305609284332687" height="3.34553756336436" fill="#f85149" opacity="0.5"/>
<rect x="87.52580480710121" y="535.3761492002185" width="1.1305609284332687" height="3.6238507997815077" fill="#f85149" opacity="0.5"/>
<rect x="89.14402186136476" y="532.8841438950432" width="1.1305609284332687" height="6.115856104956833" fill="#3fb950" opacity="0.5"/>
<rect x="90.76223891562833" y="534.3333909661554" width="1.1305609284332687" height="4.666609033844566" fill="#f85149" opacity="0.5"/>
<rect x="92.3804559698919" y="535.4917237274017" width="1.1305609284332687" height="3.508276272598323" fill="#3fb950" opacity="0.5"/>
<rect x="93.99867302415547" y="534.4879934586747" width="1.1305609284332687" height="4.512006541325263" fill="#3fb950" opacity="0.5"/>
<rect x="95.61689007841903" y="535.3951241225919" width="1.1305609284332687" height="3.6048758774080625" fill="#f85149" opacity="0.5"/>
<rect x="97.2351071326826" y="536.3000266706243" width="1.1305609284332687" height="2.6999733293756663" fill="#f85149" opacity="0.5"/>
<rect x="98.85332418694617" y="534.5420432375564" width="1.1305609284332687" height="4.457956762443587" fill="#3fb950" opacity="0.5"/>
<rect x="100.47154124120972" y="535.5762131630044" width="1.1305609284332687" height="3.423786836995646" fill="#f85149" opacity="0.5"/>
<rect x="102.08975829547329" y="536.1199805321953" width="1.1305609284332687" height="2.8800194678046864" fill="#f85149" opacity="0.5"/>
<rect x="103.70797534973686" y="536.1699334528373" width="1.1305609284332687" height="2.830066547162687" fill="#3fb950" opacity="0.5"/>
<rect x="105.32619240400042" y="526.5059120509686" width="1.1305609284332687" height="12.494087949031382" fill="#3fb950" opacity="0.5"/>
<rect x="106.94440945826399" y="522.169315729538" width="1.1305609284332687" height="16.83068427046203" fill="#3fb950" opacity="0.5"/>
<rect x="108.56262651252756" y="518.9798943400004" width="1.1305609284332687" height="20.020105659999558" fill="#3fb950" opacity="0.5"/>
<rect x="110.18084356679113" y="519.2955105488106" width="1.1305609284332687" height="19.704489451189374" fill="#3fb950" opacity="0.5"/>
<rect x="111.79906062105469" y="525.852990722078" width="1.1305609284332687" height="13.147009277922052" fill="#f85149" opacity="0.5"/>
<rect x="113.41727767531826" y="528.9751862616373" width="1.1305609284332687" height="10.024813738362695" fill="#f85149" opacity="0.5"/>
<rect x="115.03549472958183" y="516.010981673359" width="1.1305609284332687" height="22.98901832664103" fill="#3fb950" opacity="0.5"/>
<rect x="116.6537117838454" y="500.82128534584496" width="1.1305609284332687" height="38.178714654155044" fill="#3fb950" opacity="0.5"/>
<rect x="118.27192883810896" y="505.84876290337195" width="1.1305609284332687" height="33.15123709662805" fill="#f85149" opacity="0.5"/>
<rect x="119.89014589237253" y="514.0151418383645" width="1.1305609284332687" height="24.984858161635543" fill="#f85149" opacity="0.5"/>
<rect x="121.50836294663608" y="513.1531621459841" width="1.1305609284332687" height="25.846837854015916" fill="#3fb950" opacity="0.5"/>
<rect x="123.12658000089965" y="518.6638425704722" width="1.1305609284332687" height="20.336157429527816" fill="#f85149" opacity="0.5"/>
<rect x="124.74479705516322" y="516.4255470711167" width="1.1305609284332687" height="22.57445292888326" fill="#3fb950" opacity="0.5"/>
<rect x="126.36301410942679" y="520.6674908735221" width="1.1305609284332687" height="18.33250912647793" fill="#3fb950" opacity="0.5"/>
<rect x="127.98123116369034" y="527.2609400246399" width="1.1305609284332687" height="11.739059975360078" fill="#f85149" opacity="0.5"/>
<rect x="129.59944821795392" y="528.1604677821607" width="1.1305609284332687" height="10.839532217839292" fill="#f85149" opacity="0.5"/>
<rect x="131.21766527221746" y="528.7907011413682" width="1.1305609284332687" height="10.209298858631769" fill="#f85149" opacity="0.5"/>
<rect x="132.83588232648103" y="530.6148811786251" width="1.1305609284332687" height="8.385118821374931" fill="#3fb950" opacity="0.5"/>
<rect x="134.4540993807446" y="528.3478451405975" width="1.1305609284332687" height="10.652154859402458" fill="#f85149" opacity="0.5"/>
<rect x="136.07231643500816" y="530.2606107529498" width="1.1305609284332687" height="8.739389247050212" fill="#f85149" opacity="0.5"/>
<rect x="137.69053348927173" y="527.8665361721386" width="1.1305609284332687" height="11.13346382786142" fill="#3fb950" opacity="0.5"/>
<rect x="139.3087505435353" y="529.0359735754556" width="1.1305609284332687" height="9.964026424544386" fill="#f85149" opacity="0.5"/>
<rect x="140.92696759779886" y="524.3798941860341" width="1.1305609284332687" height="14.620105813965893" fill="#3fb950" opacity="0.5"/>
<rect x="142.54518465206243" y="528.634265843847" width="1.1305609284332687" height="10.365734156153053" fill="#3fb950" opacity="0.5"/>
<rect x="144.163401706326" y="532.5483826436466" width="1.1305609284332687" height="6.451617356353381" fill="#f85149" opacity="0.5"/>
<rect x="145.78161876058957" y="533.173476961378" width="1.1305609284332687" height="5.8265230386219855" fill="#f85149" opacity="0.5"/>
<rect x="147.39983581485313" y="533.1994237302295" width="1.1305609284332687" height="5.800576269770545" fill="#f85149" opacity="0.5"/>
<rect x="149.01805286911667" y="533.5718784565125" width="1.1305609284332687" height="5.428121543487464" fill="#f85149" opacity="0.5"/>
<rect x="150.63626992338027" y="533.0109675324561" width="1.1305609284332687" height="5.989032467543893" fill="#f85149" opacity="0.5"/>
<rect x="152.2544869776438" y="524.5171029997111" width="1.1305609284332687" height="14.482897000288858" fill="#3fb950" opacity="0.5"/>
<rect x="153.8727040319074" y="530.0059586697346" width="1.1305609284332687" height="8.994041330265418" fill="#3fb950" opacity="0.5"/>
<rect x="155.49092108617094" y="527.552084333565" width="1.1305609284332687" height="11.447915666435051" fill="#3fb950" opacity="0.5"/>
<rect x="157.10913814043454" y="532.6235995234334" width="1.1305609284332687" height="6.376400476566573" fill="#f85149" opacity="0.5"/>
<rect x="158.72735519469808" y="532.668916525541" width="1.1305609284332687" height="6.331083474458978" fill="#f85149" opacity="0.5"/>
<rect x="160.34557224896167" y="529.9176246561101" width="1.1305609284332687" height="9.082375343889908" fill="#3fb950" opacity="0.5"/>
<rect x="161.9637893032252" y="530.6407560727705" width="1.1305609284332687" height="8.3592439272295" fill="#f85149" opacity="0.5"/>
<rect x="163.58200635748878" y="529.7221211434174" width="1.1305609284332687" height="9.27787885658256" fill="#f85149" opacity="0.5"/>
<rect x="165.20022341175235" y="527.0641269548046" width="1.1305609284332687" height="11.935873045195422" fill="#3fb950" opacity="0.5"/>
<rect x="166.81844046601591" y="531.2726784875681" width="1.1305609284332687" height="7.7273215124318995" fill="#f85149" opacity="0.5"/>
<rect x="168.43665752027948" y="532.7845104588947" width="1.1305609284332687" height="6.215489541105285" fill="#f85149" opacity="0.5"/>
<rect x="170.05487457454305" y="533.7085841472478" width="1.1305609284332687" height="5.291415852752152" fill="#f85149" opacity="0.5"/>
<rect x="171.67309162880662" y="534.2333413754595" width="1.1305609284332687" height="4.766658624540469" fill="#f85149" opacity="0.5"/>
<rect x="173.29130868307018" y="534.3455377914626" width="1.1305609284332687" height="4.6544622085374385" fill="#3fb950" opacity="0.5"/>
<rect x="174.90952573733375" y="533.0740009308356" width="1.1305609284332687" height="5.925999069164391" fill="#3fb950" opacity="0.5"/>
<rect x="176.5277427915973" y="523.1879420310752" width="1.1305609284332687" height="15.812057968924819" fill="#3fb950" opacity="0.5"/>
<rect x="178.1459598458609" y="527.3401258256898" width="1.1305609284332687" height="11.659874174310175" fill="#3fb950" opacity="0.5"/>
<rect x="179.76417690012445" y="531.4727776689599" width="1.1305609284332687" height="7.527222331040093" fill="#f85149" opacity="0.5"/>
<rect x="181.38239395438802" y="532.1849122556084" width="1.1305609284332687" height="6.815087744391576" fill="#f85149" opacity="0.5"/>
<rect x="183.00061100865156" y="531.0180982790589" width="1.1305609284332687" height="7.981901720941096" fill="#f85149" opacity="0.5"/>
<rect x="184.61882806291516" y="535.0119600651208" width="1.1305609284332687" height="3.9880399348792253" fill="#3fb950" opacity="0.5"/>
<rect x="186.2370451171787" y="535.7788631777107" width="1.1305609284332687" height="3.2211368222892816" fill="#f85149" opacity="0.5"/>
<rect x="187.8552621714423" y="534.4315718144964" width="1.1305609284332687" height="4.568428185503649" fill="#3fb950" opacity="0.5"/>
<rect x="189.47347922570583" y="535.2293810506488" width="1.1305609284332687" height="3.77061894935116" fill="#f85149" opacity="0.5"/>
<rect x="191.0916962799694" y="534.3948395272686" width="1.1305609284332687" height="4.605160472731427" fill="#f85149" opacity="0.5"/>
<rect x="192.70991333423297" y="536.1036649739425" width="1.1305609284332687" height="2.8963350260575" fill="#3fb950" opacity="0.5"/>
<rect x="194.32813038849653" y="529.9429921148316" width="1.1305609284332687" height="9.057007885168446" fill="#3fb950" opacity="0.5"/>
<rect x="195.9463474427601" y="529.1824182888485" width="1.1305609284332687" height="9.817581711151547" fill="#3fb950" opacity="0.5"/>
<rect x="197.56456449702367" y="525.8232065626753" width="1.1305609284332687" height="13.176793437324704" fill="#3fb950" opacity="0.5"/>
<rect x="199.18278155128723" y="530.6716621963332" width="1.1305609284332687" height="8.328337803666841" fill="#f85149" opacity="0.5"/>
<rect x="200.8009986055508" y="533.19496749846" width="1.1305609284332687" height="5.80503250154004" fill="#f85149" opacity="0.5"/>
<rect x="202.41921565981437" y="532.8872208512053" width="1.1305609284332687" height="6.112779148794743" fill="#3fb950" opacity="0.5"/>
<rect x="204.0374327140779" y="534.2951536225848" width="1.1305609284332687" height="4.704846377415151" fill="#f85149" opacity="0.5"/>
<rect x="205.6556497683415" y="533.1144088905262" width="1.1305609284332687" height="5.885591109473808" fill="#3fb950" opacity="0.5"/>
<rect x="207.27386682260504" y="533.5464556542676" width="1.1305609284332687" height="5.453544345732439" fill="#3fb950" opacity="0.5"/>
<rect x="208.89208387686864" y="532.3265054263491" width="1.1305609284332687" height="6.673494573650942" fill="#f85149" opacity="0.5"/>
<rect x="210.5103009311322" y="535.4417197757185" width="1.1305609284332687" height="3.558280224281475" fill="#3fb950" opacity="0.5"/>
<rect x="212.12851798539577" y="529.0530438181211" width="1.1305609284332687" height="9.946956181878932" fill="#3fb950" opacity="0.5"/>
<rect x="213.74673503965934" y="526.3064848980777" width="1.1305609284332687" height="12.693515101922344" fill="#3fb950" opacity="0.5"/>
<rect x="215.3649520939229" y="531.3416782052894" width="1.1305609284332687" height="7.6583217947105595" fill="#f85149" opacity="0.5"/>
<rect x="216.98316914818645" y="534.333965963803" width="1.1305609284332687" height="4.6660340361969475" fill="#3fb950" opacity="0.5"/>
<rect x="218.60138620245002" y="532.6703540196602" width="1.1305609284332687" height="6.329645980339819" fill="#f85149" opacity="0.5"/>
<rect x="220.21960325671358" y="534.5753212264158" width="1.1305609284332687" height="4.424678773584219" fill="#3fb950" opacity="0.5"/>
<rect x="221.83782031097715" y="533.2678484503031" width="1.1305609284332687" height="5.732151549696937" fill="#f85149" opacity="0.5"/>
<rect x="223.45603736524072" y="531.304950230544" width="1.1305609284332687" height="7.695049769455977" fill="#f85149" opacity="0.5"/>
<rect x="225.07425441950429" y="532.8902187451909" width="1.1305609284332687" height="6.10978125480915" fill="#3fb950" opacity="0.5"/>
<rect x="226.69247147376785" y="534.6270710147066" width="1.1305609284332687" height="4.372928985293356" fill="#f85149" opacity="0.5"/>
<rect x="228.31068852803142" y="535.0620567351747" width="1.1305609284332687" height="3.9379432648253214" fill="#f85149" opacity="0.5"/>
<rect x="229.928905582295" y="534.4609685692338" width="1.1305609284332687" height="4.539031430766158" fill="#f85149" opacity="0.5"/>
<rect x="231.54712263655856" y="535.6804667052519" width="1.1305609284332687" height="3.319533294748112" fill="#f85149" opacity="0.5"/>
<rect x="233.16533969082212" y="535.9450374978894" width="1.1305609284332687" height="3.054962502110584" fill="#3fb950" opacity="0.5"/>
<rect x="234.7835567450857" y="535.3536883546061" width="1.1305609284332687" height="3.6463116453938937" fill="#3fb950" opacity="0.5"/>
<rect x="236.40177379934926" y="534.7685923107413" width="1.1305609284332687" height="4.231407689258731" fill="#3fb950" opacity="0.5"/>
<rect x="238.01999085361282" y="533.1969081155208" width="1.1305609284332687" height="5.803091884479159" fill="#3fb950" opacity="0.5"/>
<rect x="239.6382079078764" y="532.2686462880515" width="1.1305609284332687" height="6.731353711948486" fill="#3fb950" opacity="0.5"/>
<rect x="241.25642496213996" y="534.0597718667846" width="1.1305609284332687" height="4.940228133215442" fill="#3fb950" opacity="0.5"/>
<rect x="242.8746420164035" y="528.9294911985763" width="1.1305609284332687" height="10.07050880142367" fill="#3fb950" opacity="0.5"/>
<rect x="244.49285907066707" y="519.4335085467591" width="1.1305609284332687" height="19.56649145324093" fill="#3fb950" opacity="0.5"/>
<rect x="246.11107612493063" y="515.2731597855475" width="1.1305609284332687" height="23.726840214452523" fill="#3fb950" opacity="0.5"/>
<rect x="247.7292931791942" y="521.1728448061128" width="1.1305609284332687" height="17.827155193887165" fill="#f85149" opacity="0.5"/>
<rect x="249.34751023345777" y="525.4286180206919" width="1.1305609284332687" height="13.571381979308057" fill="#3fb950" opacity="0.5"/>
<rect x="250.96572728772134" y="527.5389312623743" width="1.1305609284332687" height="11.461068737625737" fill="#f85149" opacity="0.5"/>
<rect x="252.5839443419849" y="522.6265818901064" width="1.1305609284332687" height="16.373418109893578" fill="#3fb950" opacity="0.5"/>
<rect x="254.20216139624847" y="518.5920749578244" width="1.1305609284332687" height="20.407925042175634" fill="#3fb950" opacity="0.5"/>
<rect x="255.820378450512" y="510.9690479562223" width="1.1305609284332687" height="28.03095204377769" fill="#3fb950" opacity="0.5"/>
<rect x="257.4385955047756" y="503.63416665081263" width="1.1305609284332687" height="35.36583334918737" fill="#3fb950" opacity="0.5"/>
<rect x="259.0568125590392" y="512.0407501343755" width="1.1305609284332687" height="26.959249865624543" fill="#3fb950" opacity="0.5"/>
<rect x="260.67502961330274" y="503.4019912256452" width="1.1305609284332687" height="35.59800877435481" fill="#3fb950" opacity="0.5"/>
<rect x="262.2932466675663" y="515.8200041109005" width="1.1305609284332687" height="23.179995889099473" fill="#3fb950" opacity="0.5"/>
<rect x="263.9114637218299" y="520.7693315818905" width="1.1305609284332687" height="18.23066841810953" fill="#f85149" opacity="0.5"/>
<rect x="265.52968077609347" y="516.2196885695364" width="1.1305609284332687" height="22.7803114304636" fill="#3fb950" opacity="0.5"/>
<rect x="267.147897830357" y="512.595367709178" width="1.1305609284332687" height="26.40463229082195" fill="#3fb950" opacity="0.5"/>
<rect x="268.76611488462055" y="519.3189086405887" width="1.1305609284332687" height="19.68109135941131" fill="#f85149" opacity="0.5"/>
<rect x="270.38433193888415" y="521.5001593420651" width="1.1305609284332687" height="17.499840657934897" fill="#f85149" opacity="0.5"/>
<rect x="272.0025489931477" y="525.054743050219" width="1.1305609284332687" height="13.945256949780969" fill="#3fb950" opacity="0.5"/>
<rect x="273.6207660474112" y="524.8465026208833" width="1.1305609284332687" height="14.153497379116743" fill="#3fb950" opacity="0.5"/>
<rect x="275.2389831016748" y="520.9990517671024" width="1.1305609284332687" height="18.0009482328976" fill="#f85149" opacity="0.5"/>
<rect x="276.8572001559384" y="528.4028724154803" width="1.1305609284332687" height="10.59712758451974" fill="#3fb950" opacity="0.5"/>
<rect x="278.475417210202" y="527.7715178108598" width="1.1305609284332687" height="11.228482189140209" fill="#3fb950" opacity="0.5"/>
<rect x="280.09363426446555" y="526.430407672358" width="1.1305609284332687" height="12.569592327641999" fill="#f85149" opacity="0.5"/>
<rect x="281.7118513187291" y="529.6867631005676" width="1.1305609284332687" height="9.313236899432354" fill="#3fb950" opacity="0.5"/>
<rect x="283.3300683729927" y="529.3953118866482" width="1.1305609284332687" height="9.604688113351813" fill="#f85149" opacity="0.5"/>
<rect x="284.9482854272562" y="524.2457903596545" width="1.1305609284332687" height="14.754209640345493" fill="#3fb950" opacity="0.5"/>
<rect x="286.56650248151976" y="521.5562244877019" width="1.1305609284332687" height="17.44377551229809" fill="#f85149" opacity="0.5"/>
<rect x="288.18471953578336" y="527.9905919146249" width="1.1305609284332687" height="11.009408085375071" fill="#f85149" opacity="0.5"/>
<rect x="289.80293659004695" y="530.5753500903472" width="1.1305609284332687" height="8.424649909652771" fill="#f85149" opacity="0.5"/>
<rect x="291.4211536443105" y="520.8327128538469" width="1.1305609284332687" height="18.167287146153058" fill="#3fb950" opacity="0.5"/>
<rect x="293.03937069857403" y="524.1723919099285" width="1.1305609284332687" height="14.827608090071521" fill="#f85149" opacity="0.5"/>
<rect x="294.6575877528376" y="530.0559597464296" width="1.1305609284332687" height="8.944040253570392" fill="#3fb950" opacity="0.5"/>
<rect x="296.2758048071012" y="527.5450168937278" width="1.1305609284332687" height="11.454983106272152" fill="#3fb950" opacity="0.5"/>
<rect x="297.89402186136476" y="531.9166758529669" width="1.1305609284332687" height="7.083324147033068" fill="#3fb950" opacity="0.5"/>
<rect x="299.5122389156283" y="529.9874128393558" width="1.1305609284332687" height="9.012587160644216" fill="#f85149" opacity="0.5"/>
<rect x="301.1304559698919" y="532.5736825401444" width="1.1305609284332687" height="6.426317459855568" fill="#f85149" opacity="0.5"/>
<rect x="302.74867302415544" y="534.0407890381936" width="1.1305609284332687" height="4.959210961806434" fill="#f85149" opacity="0.5"/>
<rect x="304.366890078419" y="531.2286911675208" width="1.1305609284332687" height="7.771308832479235" fill="#3fb950" opacity="0.5"/>
<rect x="305.9851071326826" y="533.6415250465875" width="1.1305609284332687" height="5.358474953412497" fill="#f85149" opacity="0.5"/>
<rect x="307.60332418694617" y="529.8967809913818" width="1.1305609284332687" height="9.103219008618225" fill="#3fb950" opacity="0.5"/>
<rect x="309.2215412412097" y="533.0992785461747" width="1.1305609284332687" height="5.9007214538253265" fill="#3fb950" opacity="0.5"/>
<rect x="310.83975829547325" y="532.8358095927794" width="1.1305609284332687" height="6.164190407220644" fill="#f85149" opacity="0.5"/>
<rect x="312.45797534973684" y="530.7167995116758" width="1.1305609284332687" height="8.283200488324155" fill="#f85149" opacity="0.5"/>
<rect x="314.07619240400044" y="534.3779532838504" width="1.1305609284332687" height="4.622046716149612" fill="#3fb950" opacity="0.5"/>
<rect x="315.694409458264" y="529.4645265097403" width="1.1305609284332687" height="9.535473490259733" fill="#3fb950" opacity="0.5"/>
<rect x="317.3126265125275" y="532.2460057556742" width="1.1305609284332687" height="6.753994244325781" fill="#f85149" opacity="0.5"/>
<rect x="318.9308435667911" y="524.9274881645704" width="1.1305609284332687" height="14.072511835429623" fill="#3fb950" opacity="0.5"/>
<rect x="320.5490606210547" y="518.4227554005128" width="1.1305609284332687" height="20.577244599487244" fill="#3fb950" opacity="0.5"/>
<rect x="322.16727767531825" y="524.6998796582196" width="1.1305609284332687" height="14.30012034178037" fill="#3fb950" opacity="0.5"/>
<rect x="323.7854947295818" y="528.471936820437" width="1.1305609284332687" height="10.528063179562992" fill="#f85149" opacity="0.5"/>
<rect x="325.4037117838454" y="530.3564894544588" width="1.1305609284332687" height="8.643510545541176" fill="#f85149" opacity="0.5"/>
<rect x="327.021928838109" y="530.8564499091144" width="1.1305609284332687" height="8.143550090885583" fill="#f85149" opacity="0.5"/>
<rect x="328.64014589237246" y="523.6561158970201" width="1.1305609284332687" height="15.343884102979928" fill="#3fb950" opacity="0.5"/>
<rect x="330.25836294663605" y="528.7871074060702" width="1.1305609284332687" height="10.212892593929837" fill="#3fb950" opacity="0.5"/>
<rect x="331.87658000089965" y="528.2154159948668" width="1.1305609284332687" height="10.784584005133183" fill="#3fb950" opacity="0.5"/>
<rect x="333.4947970551632" y="528.9734123938943" width="1.1305609284332687" height="10.02658760610575" fill="#f85149" opacity="0.5"/>
<rect x="335.11301410942673" y="527.6093684742148" width="1.1305609284332687" height="11.390631525785238" fill="#f85149" opacity="0.5"/>
<rect x="336.7312311636903" y="528.9065631673752" width="1.1305609284332687" height="10.093436832624775" fill="#f85149" opacity="0.5"/>
<rect x="338.3494482179539" y="527.2121708804051" width="1.1305609284332687" height="11.787829119594903" fill="#3fb950" opacity="0.5"/>
<rect x="339.96766527221746" y="528.4060629336778" width="1.1305609284332687" height="10.593937066322155" fill="#f85149" opacity="0.5"/>
<rect x="341.58588232648106" y="529.741243408938" width="1.1305609284332687" height="9.258756591062024" fill="#3fb950" opacity="0.5"/>
<rect x="343.2040993807446" y="526.6599754831933" width="1.1305609284332687" height="12.340024516806693" fill="#f85149" opacity="0.5"/>
<rect x="344.8223164350082" y="529.9822400167678" width="1.1305609284332687" height="9.017759983232168" fill="#f85149" opacity="0.5"/>
<rect x="346.44053348927173" y="529.5008951109559" width="1.1305609284332687" height="9.499104889044133" fill="#f85149" opacity="0.5"/>
<rect x="348.0587505435353" y="533.0383525141738" width="1.1305609284332687" height="5.961647485826234" fill="#f85149" opacity="0.5"/>
<rect x="349.67696759779886" y="532.7391381132636" width="1.1305609284332687" height="6.260861886736393" fill="#3fb950" opacity="0.5"/>
<rect x="351.29518465206246" y="528.1693586832879" width="1.1305609284332687" height="10.830641316712104" fill="#f85149" opacity="0.5"/>
<rect x="352.913401706326" y="533.3753730104188" width="1.1305609284332687" height="5.624626989581202" fill="#f85149" opacity="0.5"/>
<rect x="354.53161876058954" y="533.3262107115423" width="1.1305609284332687" height="5.6737892884576695" fill="#f85149" opacity="0.5"/>
<rect x="356.14983581485313" y="533.3525168539236" width="1.1305609284332687" height="5.647483146076411" fill="#3fb950" opacity="0.5"/>
<rect x="357.7680528691167" y="530.2782890556276" width="1.1305609284332687" height="8.721710944372376" fill="#3fb950" opacity="0.5"/>
<rect x="359.38626992338027" y="534.0276359670029" width="1.1305609284332687" height="4.97236403299712" fill="#f85149" opacity="0.5"/>
<rect x="361.0044869776438" y="534.3571814938281" width="1.1305609284332687" height="4.6428185061719205" fill="#3fb950" opacity="0.5"/>
<rect x="362.6227040319074" y="534.5250808069499" width="1.1305609284332687" height="4.474919193050141" fill="#3fb950" opacity="0.5"/>
<rect x="364.24092108617094" y="533.5470816829564" width="1.1305609284332687" height="5.4529183170435545" fill="#3fb950" opacity="0.5"/>
<rect x="365.85913814043454" y="531.757904627502" width="1.1305609284332687" height="7.242095372498056" fill="#3fb950" opacity="0.5"/>
<rect x="367.4773551946981" y="534.1621854165594" width="1.1305609284332687" height="4.837814583440604" fill="#f85149" opacity="0.5"/>
<rect x="369.0955722489617" y="532.8664282175182" width="1.1305609284332687" height="6.133571782481795" fill="#f85149" opacity="0.5"/>
<rect x="370.7137893032252" y="533.3746542633592" width="1.1305609284332687" height="5.625345736640838" fill="#3fb950" opacity="0.5"/>
<rect x="372.3320063574888" y="534.9927695186295" width="1.1305609284332687" height="4.00723048137047" fill="#f85149" opacity="0.5"/>
<rect x="373.95022341175235" y="535.115595484897" width="1.1305609284332687" height="3.8844045151030286" fill="#3fb950" opacity="0.5"/>
<rect x="375.56844046601594" y="531.522443090778" width="1.1305609284332687" height="7.477556909222017" fill="#3fb950" opacity="0.5"/>
<rect x="377.1866575202795" y="512.4789522479351" width="1.1305609284332687" height="26.521047752064874" fill="#3fb950" opacity="0.5"/>
<rect x="378.8048745745431" y="517.9572394611943" width="1.1305609284332687" height="21.042760538805737" fill="#3fb950" opacity="0.5"/>
<rect x="380.4230916288066" y="522.001402041475" width="1.1305609284332687" height="16.99859795852501" fill="#3fb950" opacity="0.5"/>
<rect x="382.04130868307016" y="525.4685084824996" width="1.1305609284332687" height="13.531491517500399" fill="#3fb950" opacity="0.5"/>
<rect x="383.65952573733375" y="526.7253095909107" width="1.1305609284332687" height="12.274690409089317" fill="#f85149" opacity="0.5"/>
<rect x="385.2777427915973" y="529.7761033600755" width="1.1305609284332687" height="9.223896639924533" fill="#f85149" opacity="0.5"/>
<rect x="386.8959598458609" y="526.9375448164037" width="1.1305609284332687" height="12.062455183596285" fill="#3fb950" opacity="0.5"/>
<rect x="388.5141769001244" y="530.3877930451454" width="1.1305609284332687" height="8.612206954854628" fill="#f85149" opacity="0.5"/>
<rect x="390.132393954388" y="522.1537181995977" width="1.1305609284332687" height="16.846281800402267" fill="#3fb950" opacity="0.5"/>
<rect x="391.75061100865156" y="520.3134303219882" width="1.1305609284332687" height="18.68656967801178" fill="#3fb950" opacity="0.5"/>
<rect x="393.36882806291516" y="526.1989035569443" width="1.1305609284332687" height="12.801096443055712" fill="#f85149" opacity="0.5"/>
<rect x="394.9870451171787" y="530.8848375429802" width="1.1305609284332687" height="8.115162457019778" fill="#f85149" opacity="0.5"/>
<rect x="396.6052621714423" y="529.9227989161922" width="1.1305609284332687" height="9.077201083807836" fill="#f85149" opacity="0.5"/>
<rect x="398.22347922570583" y="530.641618569242" width="1.1305609284332687" height="8.358381430757959" fill="#f85149" opacity="0.5"/>
<rect x="399.8416962799694" y="529.1172286492902" width="1.1305609284332687" height="9.882771350709845" fill="#f85149" opacity="0.5"/>
<rect x="401.45991333423297" y="528.0081293428791" width="1.1305609284332687" height="10.991870657120899" fill="#f85149" opacity="0.5"/>
<rect x="403.07813038849656" y="531.6617362709279" width="1.1305609284332687" height="7.338263729072082" fill="#f85149" opacity="0.5"/>
<rect x="404.6963474427601" y="533.1514833013543" width="1.1305609284332687" height="5.848516698645653" fill="#3fb950" opacity="0.5"/>
<rect x="406.31456449702364" y="532.6070324037097" width="1.1305609284332687" height="6.392967596290305" fill="#3fb950" opacity="0.5"/>
<rect x="407.93278155128723" y="530.7105456935103" width="1.1305609284332687" height="8.289454306489688" fill="#3fb950" opacity="0.5"/>
<rect x="409.5509986055508" y="530.582896934473" width="1.1305609284332687" height="8.417103065527044" fill="#f85149" opacity="0.5"/>
<rect x="411.16921565981437" y="529.8724873407674" width="1.1305609284332687" height="9.127512659232593" fill="#f85149" opacity="0.5"/>
<rect x="412.7874327140779" y="530.8406396300444" width="1.1305609284332687" height="8.159360369955607" fill="#f85149" opacity="0.5"/>
<rect x="414.4056497683415" y="526.2870887899273" width="1.1305609284332687" height="12.712911210072662" fill="#3fb950" opacity="0.5"/>
<rect x="416.02386682260504" y="526.6453087306952" width="1.1305609284332687" height="12.354691269304794" fill="#f85149" opacity="0.5"/>
<rect x="417.64208387686864" y="531.3037276417956" width="1.1305609284332687" height="7.696272358204396" fill="#3fb950" opacity="0.5"/>
<rect x="419.2603009311322" y="531.7173672933407" width="1.1305609284332687" height="7.282632706659342" fill="#3fb950" opacity="0.5"/>
<rect x="420.8785179853958" y="531.811235659324" width="1.1305609284332687" height="7.188764340676016" fill="#3fb950" opacity="0.5"/>
<rect x="422.4967350396593" y="511.70960539534263" width="1.1305609284332687" height="27.290394604657365" fill="#3fb950" opacity="0.5"/>
<rect x="424.1149520939229" y="472.90498423927886" width="1.1305609284332687" height="66.09501576072114" fill="#3fb950" opacity="0.5"/>
<rect x="425.73316914818645" y="438.1666666666667" width="1.1305609284332687" height="100.83333333333331" fill="#f85149" opacity="0.5"/>
<rect x="427.35138620245004" y="470.96586073475714" width="1.1305609284332687" height="68.03413926524286" fill="#f85149" opacity="0.5"/>
<rect x="428.9696032567136" y="470.01212291776034" width="1.1305609284332687" height="68.98787708223966" fill="#3fb950" opacity="0.5"/>
<rect x="430.5878203109772" y="473.5950353225213" width="1.1305609284332687" height="65.40496467747869" fill="#3fb950" opacity="0.5"/>
<rect x="432.2060373652407" y="477.8995949312646" width="1.1305609284332687" height="61.10040506873543" fill="#3fb950" opacity="0.5"/>
<rect x="433.82425441950426" y="490.5471727523669" width="1.1305609284332687" height="48.45282724763308" fill="#f85149" opacity="0.5"/>
<rect x="435.44247147376785" y="476.0248186947474" width="1.1305609284332687" height="62.97518130525259" fill="#3fb950" opacity="0.5"/>
<rect x="437.0606885280314" y="443.587164460093" width="1.1305609284332687" height="95.41283553990701" fill="#f85149" opacity="0.5"/>
<rect x="438.678905582295" y="467.17761738875765" width="1.1305609284332687" height="71.82238261124235" fill="#f85149" opacity="0.5"/>
<rect x="440.2971226365585" y="479.6690819110214" width="1.1305609284332687" height="59.33091808897859" fill="#f85149" opacity="0.5"/>
<rect x="441.9153396908221" y="531.5190649795979" width="1.1305609284332687" height="7.4809350204020575" fill="#f85149" opacity="0.5"/>
<rect x="443.53355674508566" y="494.5059977755147" width="1.1305609284332687" height="44.494002224485314" fill="#f85149" opacity="0.5"/>
<rect x="445.15177379934926" y="502.4504506184096" width="1.1305609284332687" height="36.549549381590396" fill="#3fb950" opacity="0.5"/>
<rect x="446.7699908536128" y="497.2730287680566" width="1.1305609284332687" height="41.72697123194342" fill="#3fb950" opacity="0.5"/>
<rect x="448.3882079078764" y="509.20980240331767" width="1.1305609284332687" height="29.790197596682333" fill="#3fb950" opacity="0.5"/>
<rect x="450.00642496213993" y="512.2535560450337" width="1.1305609284332687" height="26.746443954966253" fill="#3fb950" opacity="0.5"/>
<rect x="451.6246420164035" y="524.1265358475263" width="1.1305609284332687" height="14.87346415247373" fill="#f85149" opacity="0.5"/>
<rect x="453.24285907066707" y="508.4981716583579" width="1.1305609284332687" height="30.501828341642124" fill="#3fb950" opacity="0.5"/>
<rect x="454.86107612493066" y="521.9661978104959" width="1.1305609284332687" height="17.03380218950406" fill="#f85149" opacity="0.5"/>
<rect x="456.47929317919426" y="525.7571199267866" width="1.1305609284332687" height="13.242880073213428" fill="#f85149" opacity="0.5"/>
<rect x="458.09751023345774" y="526.7019574989444" width="1.1305609284332687" height="12.298042501055647" fill="#3fb950" opacity="0.5"/>
<rect x="459.71572728772134" y="530.0682093525663" width="1.1305609284332687" height="8.931790647433672" fill="#f85149" opacity="0.5"/>
<rect x="461.3339443419849" y="521.2425611146526" width="1.1305609284332687" height="17.75743888534737" fill="#3fb950" opacity="0.5"/>
<rect x="462.95216139624847" y="527.9285640433818" width="1.1305609284332687" height="11.071435956618188" fill="#f85149" opacity="0.5"/>
<rect x="464.570378450512" y="529.2093849597775" width="1.1305609284332687" height="9.79061504022252" fill="#3fb950" opacity="0.5"/>
<rect x="466.1885955047756" y="529.3167521142872" width="1.1305609284332687" height="9.68324788571283" fill="#f85149" opacity="0.5"/>
<rect x="467.80681255903914" y="520.8578898445976" width="1.1305609284332687" height="18.142110155402406" fill="#3fb950" opacity="0.5"/>
<rect x="469.42502961330274" y="520.4270735758223" width="1.1305609284332687" height="18.572926424177695" fill="#3fb950" opacity="0.5"/>
<rect x="471.0432466675663" y="521.3343372079455" width="1.1305609284332687" height="17.66566279205449" fill="#3fb950" opacity="0.5"/>
<rect x="472.6614637218299" y="516.636832112997" width="1.1305609284332687" height="22.363167887002987" fill="#f85149" opacity="0.5"/>
<rect x="474.2796807760934" y="522.3959352399347" width="1.1305609284332687" height="16.604064760065285" fill="#3fb950" opacity="0.5"/>
<rect x="475.897897830357" y="527.1985326549492" width="1.1305609284332687" height="11.80146734505081" fill="#f85149" opacity="0.5"/>
<rect x="477.5161148846206" y="516.5368543970071" width="1.1305609284332687" height="22.46314560299288" fill="#3fb950" opacity="0.5"/>
<rect x="479.13433193888415" y="521.951750994598" width="1.1305609284332687" height="17.048249005402" fill="#f85149" opacity="0.5"/>
<rect x="480.75254899314774" y="528.31844838586" width="1.1305609284332687" height="10.681551614139948" fill="#f85149" opacity="0.5"/>
<rect x="482.3707660474113" y="530.5343096332442" width="1.1305609284332687" height="8.46569036675578" fill="#f85149" opacity="0.5"/>
<rect x="483.9889831016748" y="531.6768529590853" width="1.1305609284332687" height="7.323147040914705" fill="#3fb950" opacity="0.5"/>
<rect x="485.60720015593836" y="529.6422007828726" width="1.1305609284332687" height="9.357799217127422" fill="#f85149" opacity="0.5"/>
<rect x="487.22541721020195" y="530.1328908379535" width="1.1305609284332687" height="8.867109162046518" fill="#3fb950" opacity="0.5"/>
<rect x="488.8436342644655" y="529.1426068892174" width="1.1305609284332687" height="9.857393110782596" fill="#f85149" opacity="0.5"/>
<rect x="490.4618513187291" y="526.4227508599322" width="1.1305609284332687" height="12.577249140067806" fill="#f85149" opacity="0.5"/>
<rect x="492.0800683729926" y="526.7089940326578" width="1.1305609284332687" height="12.291005967342244" fill="#f85149" opacity="0.5"/>
<rect x="493.6982854272562" y="530.9591962387778" width="1.1305609284332687" height="8.04080376122215" fill="#3fb950" opacity="0.5"/>
<rect x="495.31650248151976" y="533.1478191288445" width="1.1305609284332687" height="5.852180871155497" fill="#f85149" opacity="0.5"/>
<rect x="496.93471953578336" y="531.4854276172088" width="1.1305609284332687" height="7.514572382791243" fill="#f85149" opacity="0.5"/>
<rect x="498.55293659004695" y="530.4710412045762" width="1.1305609284332687" height="8.528958795423819" fill="#3fb950" opacity="0.5"/>
<rect x="500.1711536443105" y="531.4425176990038" width="1.1305609284332687" height="7.557482300996185" fill="#f85149" opacity="0.5"/>
<rect x="501.7893706985741" y="534.554918153635" width="1.1305609284332687" height="4.445081846365042" fill="#f85149" opacity="0.5"/>
<rect x="503.4075877528376" y="533.4635632746313" width="1.1305609284332687" height="5.5364367253687305" fill="#3fb950" opacity="0.5"/>
<rect x="505.0258048071012" y="530.4479162366807" width="1.1305609284332687" height="8.552083763319274" fill="#3fb950" opacity="0.5"/>
<rect x="506.64402186136476" y="532.6141472808526" width="1.1305609284332687" height="6.385852719147351" fill="#f85149" opacity="0.5"/>
<rect x="508.26223891562836" y="532.8432845621992" width="1.1305609284332687" height="6.156715437800813" fill="#3fb950" opacity="0.5"/>
<rect x="509.8804559698919" y="530.9450556091274" width="1.1305609284332687" height="8.054944390872606" fill="#f85149" opacity="0.5"/>
<rect x="511.4986730241555" y="533.9364988398461" width="1.1305609284332687" height="5.063501160153919" fill="#3fb950" opacity="0.5"/>
<rect x="513.1168900784191" y="529.0715156175527" width="1.1305609284332687" height="9.928484382447323" fill="#f85149" opacity="0.5"/>
<rect x="514.7351071326827" y="530.8037477809694" width="1.1305609284332687" height="8.196252219030612" fill="#f85149" opacity="0.5"/>
<rect x="516.3533241869462" y="531.7994482075467" width="1.1305609284332687" height="7.200551792453325" fill="#3fb950" opacity="0.5"/>
<rect x="517.9715412412098" y="531.7002417071517" width="1.1305609284332687" height="7.29975829284831" fill="#3fb950" opacity="0.5"/>
<rect x="519.5897582954733" y="526.167483529234" width="1.1305609284332687" height="12.832516470765995" fill="#3fb950" opacity="0.5"/>
<rect x="521.2079753497369" y="529.1022772729564" width="1.1305609284332687" height="9.897722727043629" fill="#f85149" opacity="0.5"/>
<rect x="522.8261924040005" y="531.3941467406399" width="1.1305609284332687" height="7.60585325936006" fill="#f85149" opacity="0.5"/>
<rect x="524.444409458264" y="532.549460764236" width="1.1305609284332687" height="6.45053923576404" fill="#3fb950" opacity="0.5"/>
<rect x="526.0626265125276" y="529.9404729063876" width="1.1305609284332687" height="9.05952709361236" fill="#3fb950" opacity="0.5"/>
<rect x="527.680843566791" y="530.1180113363257" width="1.1305609284332687" height="8.881988663674292" fill="#3fb950" opacity="0.5"/>
<rect x="529.2990606210547" y="528.3678334963249" width="1.1305609284332687" height="10.63216650367508" fill="#f85149" opacity="0.5"/>
<rect x="530.9172776753182" y="531.3747118201485" width="1.1305609284332687" height="7.625288179851509" fill="#3fb950" opacity="0.5"/>
<rect x="532.5354947295818" y="531.558236694346" width="1.1305609284332687" height="7.441763305654035" fill="#3fb950" opacity="0.5"/>
<rect x="534.1537117838454" y="531.713198560395" width="1.1305609284332687" height="7.2868014396050285" fill="#f85149" opacity="0.5"/>
<rect x="535.771928838109" y="530.9442829560383" width="1.1305609284332687" height="8.05571704396175" fill="#f85149" opacity="0.5"/>
<rect x="537.3901458923725" y="520.1887435195835" width="1.1305609284332687" height="18.811256480416546" fill="#3fb950" opacity="0.5"/>
<rect x="539.0083629466361" y="526.2471271721608" width="1.1305609284332687" height="12.752872827839155" fill="#f85149" opacity="0.5"/>
<rect x="540.6265800008997" y="530.8444489894603" width="1.1305609284332687" height="8.155551010539739" fill="#f85149" opacity="0.5"/>
<rect x="542.2447970551632" y="523.9625810182674" width="1.1305609284332687" height="15.037418981732571" fill="#3fb950" opacity="0.5"/>
<rect x="543.8630141094268" y="517.9559198415928" width="1.1305609284332687" height="21.044080158407155" fill="#3fb950" opacity="0.5"/>
<rect x="545.4812311636904" y="526.5490799993681" width="1.1305609284332687" height="12.450920000631868" fill="#f85149" opacity="0.5"/>
<rect x="547.099448217954" y="529.0500969551767" width="1.1305609284332687" height="9.949903044823259" fill="#f85149" opacity="0.5"/>
<rect x="548.7176652722176" y="531.9296125812925" width="1.1305609284332687" height="7.070387418707469" fill="#f85149" opacity="0.5"/>
<rect x="550.3358823264812" y="529.0219328516464" width="1.1305609284332687" height="9.978067148353603" fill="#f85149" opacity="0.5"/>
<rect x="551.9540993807447" y="532.0131309896177" width="1.1305609284332687" height="6.986869010382293" fill="#f85149" opacity="0.5"/>
<rect x="553.5723164350082" y="528.5648413466134" width="1.1305609284332687" height="10.435158653386566" fill="#3fb950" opacity="0.5"/>
<rect x="555.1905334892717" y="530.6937708558864" width="1.1305609284332687" height="8.306229144113559" fill="#f85149" opacity="0.5"/>
<rect x="556.8087505435353" y="529.7302472976733" width="1.1305609284332687" height="9.269752702326741" fill="#3fb950" opacity="0.5"/>
<rect x="558.4269675977989" y="530.7734367799721" width="1.1305609284332687" height="8.226563220027856" fill="#f85149" opacity="0.5"/>
<rect x="560.0451846520625" y="530.607692989282" width="1.1305609284332687" height="8.392307010718014" fill="#f85149" opacity="0.5"/>
<rect x="561.6634017063261" y="530.2570069551929" width="1.1305609284332687" height="8.742993044807122" fill="#3fb950" opacity="0.5"/>
<rect x="563.2816187605897" y="529.7454128606307" width="1.1305609284332687" height="9.254587139369278" fill="#3fb950" opacity="0.5"/>
<rect x="564.8998358148532" y="528.2740643174359" width="1.1305609284332687" height="10.725935682564113" fill="#3fb950" opacity="0.5"/>
<rect x="566.5180528691168" y="531.1491258680234" width="1.1305609284332687" height="7.850874131976639" fill="#f85149" opacity="0.5"/>
<rect x="568.1362699233803" y="531.0520950149778" width="1.1305609284332687" height="7.947904985022205" fill="#f85149" opacity="0.5"/>
<rect x="569.7544869776439" y="527.787269871418" width="1.1305609284332687" height="11.212730128582052" fill="#f85149" opacity="0.5"/>
<rect x="571.3727040319075" y="532.358632701166" width="1.1305609284332687" height="6.641367298833984" fill="#3fb950" opacity="0.5"/>
<rect x="572.990921086171" y="534.0248321347234" width="1.1305609284332687" height="4.975167865276603" fill="#3fb950" opacity="0.5"/>
<rect x="574.6091381404347" y="527.2184520109589" width="1.1305609284332687" height="11.781547989041087" fill="#3fb950" opacity="0.5"/>
<rect x="576.227355194698" y="527.1942683286446" width="1.1305609284332687" height="11.805731671355375" fill="#3fb950" opacity="0.5"/>
<rect x="577.8455722489616" y="511.46907525435444" width="1.1305609284332687" height="27.530924745645564" fill="#3fb950" opacity="0.5"/>
<rect x="579.4637893032252" y="526.2015586085824" width="1.1305609284332687" height="12.798441391417555" fill="#f85149" opacity="0.5"/>
<rect x="581.0820063574888" y="527.1101267666188" width="1.1305609284332687" height="11.889873233381195" fill="#3fb950" opacity="0.5"/>
<rect x="582.7002234117524" y="530.6467935480712" width="1.1305609284332687" height="8.353206451928827" fill="#f85149" opacity="0.5"/>
<rect x="584.318440466016" y="529.9652057114554" width="1.1305609284332687" height="9.034794288544617" fill="#3fb950" opacity="0.5"/>
<rect x="585.9366575202796" y="516.6711019727986" width="1.1305609284332687" height="22.328898027201376" fill="#3fb950" opacity="0.5"/>
<rect x="587.5548745745431" y="518.4134310949086" width="1.1305609284332687" height="20.58656890509144" fill="#3fb950" opacity="0.5"/>
<rect x="589.1730916288067" y="517.0677209752254" width="1.1305609284332687" height="21.93227902477463" fill="#3fb950" opacity="0.5"/>
<rect x="590.7913086830702" y="522.1014638508709" width="1.1305609284332687" height="16.898536149129086" fill="#3fb950" opacity="0.5"/>
<rect x="592.4095257373338" y="511.38203139170196" width="1.1305609284332687" height="27.617968608298042" fill="#3fb950" opacity="0.5"/>
<rect x="594.0277427915973" y="516.6666155536526" width="1.1305609284332687" height="22.333384446347395" fill="#f85149" opacity="0.5"/>
<rect x="595.645959845861" y="522.4169169040986" width="1.1305609284332687" height="16.58308309590143" fill="#f85149" opacity="0.5"/>
<rect x="597.2641769001245" y="519.1597047293939" width="1.1305609284332687" height="19.840295270606134" fill="#f85149" opacity="0.5"/>
<rect x="598.882393954388" y="517.5048550306545" width="1.1305609284332687" height="21.49514496934546" fill="#3fb950" opacity="0.5"/>
<rect x="600.5006110086516" y="516.6594726453743" width="1.1305609284332687" height="22.340527354625692" fill="#f85149" opacity="0.5"/>
<rect x="602.1188280629152" y="519.2921777186953" width="1.1305609284332687" height="19.707822281304743" fill="#3fb950" opacity="0.5"/>
<rect x="603.7370451171788" y="528.2135450962708" width="1.1305609284332687" height="10.786454903729236" fill="#f85149" opacity="0.5"/>
<rect x="605.3552621714423" y="523.2993298566362" width="1.1305609284332687" height="15.700670143363823" fill="#3fb950" opacity="0.5"/>
<rect x="606.9734792257059" y="520.3549825269977" width="1.1305609284332687" height="18.645017473002326" fill="#f85149" opacity="0.5"/>
<rect x="608.5916962799695" y="525.0277727855547" width="1.1305609284332687" height="13.972227214445297" fill="#f85149" opacity="0.5"/>
<rect x="610.2099133342331" y="521.9634665716694" width="1.1305609284332687" height="17.036533428330586" fill="#f85149" opacity="0.5"/>
<rect x="611.8281303884966" y="524.838237748445" width="1.1305609284332687" height="14.161762251555047" fill="#3fb950" opacity="0.5"/>
<rect x="613.4463474427602" y="528.9734785186237" width="1.1305609284332687" height="10.026521481376335" fill="#f85149" opacity="0.5"/>
<rect x="615.0645644970238" y="528.5853551064414" width="1.1305609284332687" height="10.414644893558602" fill="#f85149" opacity="0.5"/>
<rect x="616.6827815512873" y="532.4228168135879" width="1.1305609284332687" height="6.577183186412071" fill="#f85149" opacity="0.5"/>
<rect x="618.3009986055508" y="525.6740701415442" width="1.1305609284332687" height="13.325929858455765" fill="#3fb950" opacity="0.5"/>
<rect x="619.9192156598144" y="521.4729935782005" width="1.1305609284332687" height="17.527006421799456" fill="#3fb950" opacity="0.5"/>
<rect x="621.537432714078" y="530.1021270263086" width="1.1305609284332687" height="8.897872973691392" fill="#f85149" opacity="0.5"/>
<rect x="623.1556497683416" y="528.6529877672554" width="1.1305609284332687" height="10.347012232744646" fill="#3fb950" opacity="0.5"/>
<rect x="624.7738668226052" y="529.3005803054463" width="1.1305609284332687" height="9.69941969455374" fill="#f85149" opacity="0.5"/>
<rect x="626.3920838768687" y="526.0558685796021" width="1.1305609284332687" height="12.944131420397866" fill="#f85149" opacity="0.5"/>
<rect x="628.0103009311322" y="531.0346826487121" width="1.1305609284332687" height="7.965317351287922" fill="#f85149" opacity="0.5"/>
<rect x="629.6285179853958" y="527.0006615894422" width="1.1305609284332687" height="11.999338410557812" fill="#3fb950" opacity="0.5"/>
<rect x="631.2467350396594" y="526.673804895367" width="1.1305609284332687" height="12.32619510463303" fill="#f85149" opacity="0.5"/>
<rect x="632.864952093923" y="528.2988093412037" width="1.1305609284332687" height="10.70119065879635" fill="#3fb950" opacity="0.5"/>
<rect x="634.4831691481864" y="529.3893455673065" width="1.1305609284332687" height="9.610654432693536" fill="#f85149" opacity="0.5"/>
<rect x="636.10138620245" y="524.6451118510254" width="1.1305609284332687" height="14.354888148974624" fill="#f85149" opacity="0.5"/>
<rect x="637.7196032567136" y="529.548835539831" width="1.1305609284332687" height="9.451164460169025" fill="#f85149" opacity="0.5"/>
<rect x="639.3378203109772" y="524.5677027927068" width="1.1305609284332687" height="14.432297207293232" fill="#3fb950" opacity="0.5"/>
<rect x="640.9560373652407" y="527.4365816810877" width="1.1305609284332687" height="11.56341831891234" fill="#3fb950" opacity="0.5"/>
<rect x="642.5742544195043" y="527.0879174824772" width="1.1305609284332687" height="11.912082517522776" fill="#f85149" opacity="0.5"/>
<rect x="644.1924714737679" y="525.6964950498036" width="1.1305609284332687" height="13.303504950196384" fill="#f85149" opacity="0.5"/>
<rect x="645.8106885280315" y="524.5701465327094" width="1.1305609284332687" height="14.429853467290627" fill="#f85149" opacity="0.5"/>
<rect x="647.428905582295" y="530.1783860893319" width="1.1305609284332687" height="8.821613910668134" fill="#3fb950" opacity="0.5"/>
<rect x="649.0471226365586" y="533.2993295715135" width="1.1305609284332687" height="5.700670428486546" fill="#f85149" opacity="0.5"/>
<rect x="650.6653396908222" y="529.6962505617543" width="1.1305609284332687" height="9.303749438245745" fill="#f85149" opacity="0.5"/>
<rect x="652.2835567450858" y="534.3782407826743" width="1.1305609284332687" height="4.621759217325689" fill="#3fb950" opacity="0.5"/>
<rect x="653.9017737993493" y="531.7607077410344" width="1.1305609284332687" height="7.239292258965634" fill="#3fb950" opacity="0.5"/>
<rect x="655.5199908536129" y="534.0415796599591" width="1.1305609284332687" height="4.958420340040902" fill="#3fb950" opacity="0.5"/>
<rect x="657.1382079078764" y="534.3403743125865" width="1.1305609284332687" height="4.659625687413495" fill="#3fb950" opacity="0.5"/>
<rect x="658.75642496214" y="530.657718503377" width="1.1305609284332687" height="8.342281496622945" fill="#3fb950" opacity="0.5"/>
<rect x="660.3746420164035" y="531.1698257833398" width="1.1305609284332687" height="7.830174216660225" fill="#3fb950" opacity="0.5"/>
<rect x="661.9928590706671" y="532.6526728419941" width="1.1305609284332687" height="6.347327158005896" fill="#3fb950" opacity="0.5"/>
<rect x="663.6110761249307" y="533.3321698434135" width="1.1305609284332687" height="5.667830156586547" fill="#f85149" opacity="0.5"/>
<rect x="665.2292931791943" y="533.219836146722" width="1.1305609284332687" height="5.780163853278054" fill="#f85149" opacity="0.5"/>
<rect x="666.8475102334579" y="533.4938944005463" width="1.1305609284332687" height="5.50610559945369" fill="#3fb950" opacity="0.5"/>
<rect x="668.4657272877214" y="532.7911394630254" width="1.1305609284332687" height="6.208860536974612" fill="#3fb950" opacity="0.5"/>
<rect x="670.083944341985" y="533.7472527390541" width="1.1305609284332687" height="5.252747260945853" fill="#f85149" opacity="0.5"/>
<rect x="671.7021613962486" y="535.1395376681993" width="1.1305609284332687" height="3.8604623318007043" fill="#3fb950" opacity="0.5"/>
<rect x="673.3203784505122" y="534.5457052538251" width="1.1305609284332687" height="4.454294746174924" fill="#3fb950" opacity="0.5"/>
<rect x="674.9385955047757" y="534.8749668755617" width="1.1305609284332687" height="4.125033124438346" fill="#f85149" opacity="0.5"/>
<rect x="676.5568125590393" y="534.0294328346519" width="1.1305609284332687" height="4.970567165348143" fill="#3fb950" opacity="0.5"/>
<rect x="678.1750296133029" y="521.6456941216804" width="1.1305609284332687" height="17.354305878319565" fill="#3fb950" opacity="0.5"/>
<rect x="679.7932466675663" y="531.1916038192455" width="1.1305609284332687" height="7.808396180754471" fill="#f85149" opacity="0.5"/>
<rect x="681.4114637218299" y="531.2317896860947" width="1.1305609284332687" height="7.7682103139053424" fill="#f85149" opacity="0.5"/>
<rect x="683.0296807760934" y="533.0939835365866" width="1.1305609284332687" height="5.90601646341338" fill="#f85149" opacity="0.5"/>
<rect x="684.647897830357" y="532.9769715152842" width="1.1305609284332687" height="6.023028484715837" fill="#3fb950" opacity="0.5"/>
<rect x="686.2661148846206" y="532.6094042690064" width="1.1305609284332687" height="6.390595730993596" fill="#f85149" opacity="0.5"/>
<rect x="687.8843319388842" y="532.8832468987127" width="1.1305609284332687" height="6.116753101287259" fill="#f85149" opacity="0.5"/>
<rect x="689.5025489931477" y="533.1322618487395" width="1.1305609284332687" height="5.8677381512604825" fill="#3fb950" opacity="0.5"/>
<rect x="691.1207660474113" y="529.3920753686388" width="1.1305609284332687" height="9.607924631361243" fill="#f85149" opacity="0.5"/>
<rect x="692.7389831016749" y="533.9154575196764" width="1.1305609284332687" height="5.084542480323648" fill="#3fb950" opacity="0.5"/>
<rect x="694.3572001559385" y="531.6173162651506" width="1.1305609284332687" height="7.3826837348493655" fill="#3fb950" opacity="0.5"/>
<rect x="695.975417210202" y="530.4818410978937" width="1.1305609284332687" height="8.51815890210628" fill="#3fb950" opacity="0.5"/>
<rect x="697.5936342644655" y="521.1843454778135" width="1.1305609284332687" height="17.81565452218649" fill="#3fb950" opacity="0.5"/>
<rect x="699.2118513187291" y="528.1111976712253" width="1.1305609284332687" height="10.88880232877466" fill="#f85149" opacity="0.5"/>
<rect x="700.8300683729927" y="488.72886847232223" width="1.1305609284332687" height="50.27113152767777" fill="#3fb950" opacity="0.5"/>
<rect x="702.4482854272562" y="497.1701810950577" width="1.1305609284332687" height="41.82981890494227" fill="#3fb950" opacity="0.5"/>
<rect x="704.0665024815198" y="517.1039386395585" width="1.1305609284332687" height="21.896061360441536" fill="#f85149" opacity="0.5"/>
<rect x="705.6847195357834" y="520.4584202913325" width="1.1305609284332687" height="18.54157970866754" fill="#f85149" opacity="0.5"/>
<rect x="707.302936590047" y="521.3418222398241" width="1.1305609284332687" height="17.65817776017593" fill="#f85149" opacity="0.5"/>
<rect x="708.9211536443106" y="526.2278647509636" width="1.1305609284332687" height="12.77213524903641" fill="#3fb950" opacity="0.5"/>
<rect x="710.5393706985741" y="526.5449443287871" width="1.1305609284332687" height="12.455055671212904" fill="#f85149" opacity="0.5"/>
<rect x="712.1575877528377" y="528.2493092312092" width="1.1305609284332687" height="10.750690768790832" fill="#f85149" opacity="0.5"/>
<rect x="713.7758048071013" y="529.5540105186601" width="1.1305609284332687" height="9.445989481339893" fill="#f85149" opacity="0.5"/>
<rect x="715.3940218613649" y="530.7661371848349" width="1.1305609284332687" height="8.23386281516514" fill="#f85149" opacity="0.5"/>
<rect x="717.0122389156284" y="532.8145346798153" width="1.1305609284332687" height="6.185465320184676" fill="#f85149" opacity="0.5"/>
<rect x="718.630455969892" y="532.0012285383108" width="1.1305609284332687" height="6.998771461689216" fill="#f85149" opacity="0.5"/>
<rect x="720.2486730241556" y="529.8681029837039" width="1.1305609284332687" height="9.13189701629608" fill="#f85149" opacity="0.5"/>
<rect x="721.8668900784191" y="531.9266664370953" width="1.1305609284332687" height="7.073333562904736" fill="#3fb950" opacity="0.5"/>
<rect x="723.4851071326826" y="533.1070647330712" width="1.1305609284332687" height="5.892935266928816" fill="#3fb950" opacity="0.5"/>
<rect x="725.1033241869462" y="532.3929176546558" width="1.1305609284332687" height="6.6070823453442244" fill="#3fb950" opacity="0.5"/>
<rect x="726.7215412412098" y="532.2512526092092" width="1.1305609284332687" height="6.748747390790754" fill="#3fb950" opacity="0.5"/>
<rect x="728.3397582954734" y="517.7149886397453" width="1.1305609284332687" height="21.285011360254657" fill="#3fb950" opacity="0.5"/>
<rect x="729.9579753497369" y="527.1221341549964" width="1.1305609284332687" height="11.877865845003612" fill="#3fb950" opacity="0.5"/>
<rect x="731.5761924040005" y="529.8236836966737" width="1.1305609284332687" height="9.176316303326303" fill="#f85149" opacity="0.5"/>
<rect x="733.194409458264" y="523.0947356311337" width="1.1305609284332687" height="15.905264368866256" fill="#3fb950" opacity="0.5"/>
<rect x="734.8126265125276" y="529.7171639449474" width="1.1305609284332687" height="9.282836055052599" fill="#f85149" opacity="0.5"/>
<rect x="736.4308435667912" y="531.3147970652604" width="1.1305609284332687" height="7.68520293473955" fill="#f85149" opacity="0.5"/>
<rect x="738.0490606210547" y="530.850909806779" width="1.1305609284332687" height="8.149090193221014" fill="#3fb950" opacity="0.5"/>
<rect x="739.6672776753182" y="530.81296786825" width="1.1305609284332687" height="8.187032131750016" fill="#3fb950" opacity="0.5"/>
<rect x="741.2854947295818" y="530.8023304117679" width="1.1305609284332687" height="8.197669588232088" fill="#f85149" opacity="0.5"/>
<rect x="742.9037117838454" y="531.0459130715183" width="1.1305609284332687" height="7.954086928481729" fill="#3fb950" opacity="0.5"/>
<rect x="744.5219288381089" y="526.0061291268369" width="1.1305609284332687" height="12.993870873163132" fill="#3fb950" opacity="0.5"/>
<rect x="746.1401458923725" y="525.4838156386278" width="1.1305609284332687" height="13.516184361372211" fill="#3fb950" opacity="0.5"/>
<rect x="747.7583629466361" y="528.5891357159749" width="1.1305609284332687" height="10.410864284025138" fill="#f85149" opacity="0.5"/>
<rect x="749.3765800008997" y="526.6207750185629" width="1.1305609284332687" height="12.379224981437119" fill="#3fb950" opacity="0.5"/>
<rect x="750.9947970551633" y="532.0844314166768" width="1.1305609284332687" height="6.915568583323193" fill="#f85149" opacity="0.5"/>
<rect x="752.6130141094268" y="527.2361957196191" width="1.1305609284332687" height="11.763804280380896" fill="#3fb950" opacity="0.5"/>
<rect x="754.2312311636904" y="528.3112249779111" width="1.1305609284332687" height="10.688775022088862" fill="#3fb950" opacity="0.5"/>
<rect x="755.849448217954" y="529.138598436866" width="1.1305609284332687" height="9.861401563133995" fill="#f85149" opacity="0.5"/>
<rect x="757.4676652722176" y="528.9327255603446" width="1.1305609284332687" height="10.06727443965542" fill="#3fb950" opacity="0.5"/>
<rect x="759.085882326481" y="527.3198571586091" width="1.1305609284332687" height="11.680142841390875" fill="#3fb950" opacity="0.5"/>
<rect x="760.7040993807447" y="528.9552942180159" width="1.1305609284332687" height="10.044705781984135" fill="#3fb950" opacity="0.5"/>
<rect x="762.3223164350082" y="525.6338203062069" width="1.1305609284332687" height="13.366179693793129" fill="#f85149" opacity="0.5"/>
<rect x="763.9405334892718" y="528.8933360652375" width="1.1305609284332687" height="10.106663934762537" fill="#3fb950" opacity="0.5"/>
<rect x="765.5587505435353" y="531.8766416417474" width="1.1305609284332687" height="7.123358358252631" fill="#f85149" opacity="0.5"/>
<rect x="767.1769675977989" y="527.7901333597034" width="1.1305609284332687" height="11.209866640296582" fill="#f85149" opacity="0.5"/>
<rect x="768.7951846520625" y="530.6265967556965" width="1.1305609284332687" height="8.373403244303518" fill="#3fb950" opacity="0.5"/>
<rect x="770.4134017063261" y="530.8200827453929" width="1.1305609284332687" height="8.179917254607062" fill="#f85149" opacity="0.5"/>
<rect x="772.0316187605896" y="531.96829554804" width="1.1305609284332687" height="7.031704451959968" fill="#3fb950" opacity="0.5"/>
<rect x="773.6498358148532" y="532.2790666829216" width="1.1305609284332687" height="6.7209333170784475" fill="#3fb950" opacity="0.5"/>
<rect x="775.2680528691168" y="533.916948919825" width="1.1305609284332687" height="5.083051080174982" fill="#f85149" opacity="0.5"/>
<rect x="776.8862699233804" y="533.6396563042325" width="1.1305609284332687" height="5.360343695767483" fill="#3fb950" opacity="0.5"/>
<rect x="778.5044869776439" y="534.1472354777198" width="1.1305609284332687" height="4.852764522280154" fill="#3fb950" opacity="0.5"/>
<rect x="780.1227040319075" y="495.14636618700956" width="1.1305609284332687" height="43.85363381299044" fill="#3fb950" opacity="0.5"/>
<rect x="781.740921086171" y="489.9467702711209" width="1.1305609284332687" height="49.0532297288791" fill="#f85149" opacity="0.5"/>
<rect x="783.3591381404347" y="497.97721473097306" width="1.1305609284332687" height="41.02278526902694" fill="#3fb950" opacity="0.5"/>
<rect x="784.9773551946981" y="496.35927197499694" width="1.1305609284332687" height="42.64072802500306" fill="#3fb950" opacity="0.5"/>
<rect x="786.5955722489616" y="505.76147035423685" width="1.1305609284332687" height="33.23852964576315" fill="#3fb950" opacity="0.5"/>
<rect x="788.2137893032252" y="510.6388879006612" width="1.1305609284332687" height="28.36111209933881" fill="#f85149" opacity="0.5"/>
<rect x="789.8320063574888" y="519.3151186873434" width="1.1305609284332687" height="19.684881312656557" fill="#f85149" opacity="0.5"/>
<rect x="791.4502234117524" y="501.95172497120245" width="1.1305609284332687" height="37.04827502879755" fill="#3fb950" opacity="0.5"/>
<rect x="793.068440466016" y="481.827011426655" width="1.1305609284332687" height="57.17298857334498" fill="#3fb950" opacity="0.5"/>
<rect x="794.6866575202795" y="504.36025571162327" width="1.1305609284332687" height="34.63974428837673" fill="#f85149" opacity="0.5"/>
<rect x="796.3048745745431" y="519.9941750968153" width="1.1305609284332687" height="19.005824903184703" fill="#f85149" opacity="0.5"/>
<rect x="797.9230916288067" y="520.193839436236" width="1.1305609284332687" height="18.806160563764024" fill="#f85149" opacity="0.5"/>
<rect x="799.5413086830703" y="508.76729355737683" width="1.1305609284332687" height="30.23270644262317" fill="#3fb950" opacity="0.5"/>
<rect x="801.1595257373338" y="513.8261408303199" width="1.1305609284332687" height="25.1738591696801" fill="#3fb950" opacity="0.5"/>
<rect x="802.7777427915973" y="519.6080498014587" width="1.1305609284332687" height="19.39195019854128" fill="#3fb950" opacity="0.5"/>
<rect x="804.395959845861" y="521.5741938829389" width="1.1305609284332687" height="17.425806117061143" fill="#f85149" opacity="0.5"/>
<rect x="806.0141769001245" y="521.2770616922603" width="1.1305609284332687" height="17.722938307739696" fill="#f85149" opacity="0.5"/>
<rect x="807.632393954388" y="527.2686104932599" width="1.1305609284332687" height="11.731389506740129" fill="#f85149" opacity="0.5"/>
<rect x="809.2506110086516" y="508.97872594240437" width="1.1305609284332687" height="30.021274057595633" fill="#3fb950" opacity="0.5"/>
<rect x="810.8688280629152" y="522.2914308549636" width="1.1305609284332687" height="16.70856914503645" fill="#f85149" opacity="0.5"/>
<rect x="812.4870451171788" y="513.5253760920023" width="1.1305609284332687" height="25.47462390799774" fill="#3fb950" opacity="0.5"/>
<rect x="814.1052621714423" y="518.5545664237723" width="1.1305609284332687" height="20.445433576227742" fill="#f85149" opacity="0.5"/>
<rect x="815.7234792257059" y="519.6887938461338" width="1.1305609284332687" height="19.311206153866237" fill="#f85149" opacity="0.5"/>
<rect x="817.3416962799695" y="516.2812923800145" width="1.1305609284332687" height="22.71870761998548" fill="#f85149" opacity="0.5"/>
<rect x="818.9599133342331" y="517.0456554404958" width="1.1305609284332687" height="21.954344559504193" fill="#3fb950" opacity="0.5"/>
<rect x="820.5781303884966" y="524.546225911819" width="1.1305609284332687" height="14.453774088181035" fill="#3fb950" opacity="0.5"/>
<rect x="822.1963474427602" y="526.3999320782841" width="1.1305609284332687" height="12.60006792171589" fill="#f85149" opacity="0.5"/>
<rect x="823.8145644970238" y="521.6568490760454" width="1.1305609284332687" height="17.343150923954568" fill="#3fb950" opacity="0.5"/>
<rect x="825.4327815512873" y="519.2654036719782" width="1.1305609284332687" height="19.73459632802178" fill="#f85149" opacity="0.5"/>
<rect x="827.0509986055508" y="505.256695013029" width="1.1305609284332687" height="33.743304986971" fill="#3fb950" opacity="0.5"/>
<rect x="828.6692156598144" y="501.44026025111094" width="1.1305609284332687" height="37.55973974888906" fill="#3fb950" opacity="0.5"/>
<rect x="830.287432714078" y="515.6198567734558" width="1.1305609284332687" height="23.38014322654419" fill="#f85149" opacity="0.5"/>
<rect x="831.9056497683416" y="507.7582661228206" width="1.1305609284332687" height="31.2417338771794" fill="#3fb950" opacity="0.5"/>
<rect x="833.5238668226052" y="507.83766036051776" width="1.1305609284332687" height="31.16233963948224" fill="#3fb950" opacity="0.5"/>
<rect x="835.1420838768687" y="503.9023893972601" width="1.1305609284332687" height="35.097610602739906" fill="#3fb950" opacity="0.5"/>
<rect x="836.7603009311322" y="488.2521990161329" width="1.1305609284332687" height="50.74780098386708" fill="#3fb950" opacity="0.5"/>
<rect x="838.3785179853958" y="494.72234279669453" width="1.1305609284332687" height="44.277657203305466" fill="#3fb950" opacity="0.5"/>
<rect x="839.9967350396594" y="508.08400300897694" width="1.1305609284332687" height="30.915996991023064" fill="#f85149" opacity="0.5"/>
<rect x="841.614952093923" y="509.47074064831605" width="1.1305609284332687" height="29.529259351683947" fill="#3fb950" opacity="0.5"/>
<rect x="843.2331691481864" y="511.87527587383266" width="1.1305609284332687" height="27.124724126167337" fill="#3fb950" opacity="0.5"/>
<rect x="844.85138620245" y="507.8991319215369" width="1.1305609284332687" height="31.100868078463122" fill="#3fb950" opacity="0.5"/>
<rect x="846.4696032567136" y="501.4473205034774" width="1.1305609284332687" height="37.552679496522614" fill="#3fb950" opacity="0.5"/>
<rect x="848.0878203109772" y="509.3330323054326" width="1.1305609284332687" height="29.666967694567404" fill="#f85149" opacity="0.5"/>
<rect x="849.7060373652407" y="511.2282604895306" width="1.1305609284332687" height="27.771739510469388" fill="#3fb950" opacity="0.5"/>
<rect x="851.3242544195043" y="515.058822224905" width="1.1305609284332687" height="23.941177775094957" fill="#3fb950" opacity="0.5"/>
<rect x="852.9424714737679" y="516.3908596192736" width="1.1305609284332687" height="22.609140380726444" fill="#3fb950" opacity="0.5"/>
<rect x="854.5606885280315" y="496.9798439362294" width="1.1305609284332687" height="42.02015606377063" fill="#3fb950" opacity="0.5"/>
<rect x="856.178905582295" y="509.3214964151261" width="1.1305609284332687" height="29.67850358487391" fill="#3fb950" opacity="0.5"/>
<rect x="857.7971226365586" y="495.30294739018393" width="1.1305609284332687" height="43.69705260981607" fill="#3fb950" opacity="0.5"/>
<rect x="859.4153396908222" y="473.36236539937687" width="1.1305609284332687" height="65.63763460062313" fill="#3fb950" opacity="0.5"/>
<rect x="861.0335567450858" y="492.2690563956196" width="1.1305609284332687" height="46.7309436043804" fill="#3fb950" opacity="0.5"/>
<rect x="862.6517737993493" y="503.22549641643764" width="1.1305609284332687" height="35.774503583562364" fill="#3fb950" opacity="0.5"/>
<rect x="864.2699908536129" y="520.1778789390306" width="1.1305609284332687" height="18.82212106096938" fill="#3fb950" opacity="0.5"/>
<rect x="865.8882079078764" y="507.4971158474396" width="1.1305609284332687" height="31.502884152560398" fill="#3fb950" opacity="0.5"/>
<rect x="867.50642496214" y="465.13947425807646" width="1.1305609284332687" height="73.86052574192354" fill="#f85149" opacity="0.5"/>
<rect x="869.1246420164035" y="490.9257612660566" width="1.1305609284332687" height="48.07423873394339" fill="#f85149" opacity="0.5"/>
<rect x="870.7428590706671" y="490.9363750038857" width="1.1305609284332687" height="48.0636249961143" fill="#3fb950" opacity="0.5"/>
<rect x="872.3610761249307" y="501.374412957993" width="1.1305609284332687" height="37.625587042007" fill="#3fb950" opacity="0.5"/>
<rect x="873.9792931791943" y="504.41791216325004" width="1.1305609284332687" height="34.58208783674996" fill="#3fb950" opacity="0.5"/>
<rect x="875.5975102334579" y="499.87797582993585" width="1.1305609284332687" height="39.12202417006415" fill="#f85149" opacity="0.5"/>
<rect x="877.2157272877214" y="506.45828772229834" width="1.1305609284332687" height="32.54171227770166" fill="#f85149" opacity="0.5"/>
<rect x="878.833944341985" y="521.4104985213686" width="1.1305609284332687" height="17.589501478631405" fill="#f85149" opacity="0.5"/>
<rect x="880.4521613962486" y="509.45902147750934" width="1.1305609284332687" height="29.54097852249066" fill="#3fb950" opacity="0.5"/>
<rect x="882.0703784505122" y="506.92436787805866" width="1.1305609284332687" height="32.07563212194134" fill="#3fb950" opacity="0.5"/>
<rect x="883.6885955047757" y="512.7437386646906" width="1.1305609284332687" height="26.256261335309432" fill="#3fb950" opacity="0.5"/>
<rect x="885.3068125590393" y="501.1473298557428" width="1.1305609284332687" height="37.85267014425722" fill="#3fb950" opacity="0.5"/>
<rect x="886.9250296133029" y="499.6214916604658" width="1.1305609284332687" height="39.37850833953422" fill="#3fb950" opacity="0.5"/>
<rect x="888.5432466675663" y="491.42580653286524" width="1.1305609284332687" height="47.57419346713476" fill="#3fb950" opacity="0.5"/>
<rect x="890.1614637218299" y="486.7520394970541" width="1.1305609284332687" height="52.24796050294589" fill="#f85149" opacity="0.5"/>
<rect x="891.7796807760934" y="499.1140734863198" width="1.1305609284332687" height="39.885926513680204" fill="#f85149" opacity="0.5"/>
<rect x="893.397897830357" y="509.94798438340604" width="1.1305609284332687" height="29.052015616593962" fill="#f85149" opacity="0.5"/>
<rect x="895.0161148846206" y="512.9005175233063" width="1.1305609284332687" height="26.09948247669365" fill="#3fb950" opacity="0.5"/>
<rect x="896.6343319388842" y="517.6343092823056" width="1.1305609284332687" height="21.365690717694406" fill="#f85149" opacity="0.5"/>
<rect x="898.2525489931477" y="502.25020481261765" width="1.1305609284332687" height="36.74979518738235" fill="#3fb950" opacity="0.5"/>
<rect x="899.8707660474113" y="516.1338212958206" width="1.1305609284332687" height="22.866178704179447" fill="#f85149" opacity="0.5"/>
<rect x="901.4889831016749" y="519.748313290139" width="1.1305609284332687" height="19.25168670986102" fill="#3fb950" opacity="0.5"/>
<rect x="903.1072001559385" y="519.9883784017796" width="1.1305609284332687" height="19.01162159822036" fill="#f85149" opacity="0.5"/>
<rect x="904.725417210202" y="525.3742088682804" width="1.1305609284332687" height="13.625791131719552" fill="#3fb950" opacity="0.5"/>
<rect x="906.3436342644655" y="524.1280559975573" width="1.1305609284332687" height="14.87194400244266" fill="#f85149" opacity="0.5"/>
<rect x="907.9618513187291" y="518.3374559369739" width="1.1305609284332687" height="20.662544063026075" fill="#3fb950" opacity="0.5"/>
<rect x="909.5800683729927" y="519.2057778534082" width="1.1305609284332687" height="19.79422214659178" fill="#3fb950" opacity="0.5"/>
<rect x="911.1982854272562" y="514.397503774117" width="1.1305609284332687" height="24.602496225882987" fill="#3fb950" opacity="0.5"/>
<rect x="912.8165024815198" y="511.48460162833584" width="1.1305609284332687" height="27.515398371664162" fill="#3fb950" opacity="0.5"/>
<rect x="914.4347195357834" y="518.9481774697546" width="1.1305609284332687" height="20.05182253024543" fill="#3fb950" opacity="0.5"/>
<polyline points="879.3992248062016,33.113626991375526 881.0174418604652,40.247943794953855 882.6356589147288,47.382260598532184 884.2538759689922,54.516577402110514 885.8720930232558,61.65089420568888 887.4903100775194,68.78521100926717 889.1085271317829,75.9195278128455 890.7267441860465,83.05384461642385 892.34496124031,90.1881614200022 893.9631782945736,97.32247822358053 895.5813953488372,104.45679502715883 897.1996124031008,111.59111183073716 898.8178294573643,118.72542863431553 900.4360465116279,125.85974543789386 902.0542635658915,132.9940622414722 903.672480620155,140.1283790450505 905.2906976744185,147.26269584862882 906.9089147286821,154.3970126522072 908.5271317829457,161.5313294557855 910.1453488372093,168.66564625936388 911.7635658914728,175.79996306294214 913.3817829457364,182.9342798665205 915.0,190.06859667009883" stroke="#f85149" stroke-width="2.8" fill="none"/>
<polyline points="879.3992248062016,182.48233219570574 881.0174418604652,182.47728813687965 882.6356589147288,182.47224407805362 884.2538759689922,182.46720001922756 885.8720930232558,182.46215596040145 887.4903100775194,182.4571119015754 889.1085271317829,182.45206784274933 890.7267441860465,182.44702378392327 892.34496124031,182.4419797250972 893.9631782945736,182.43693566627118 895.5813953488372,182.4318916074451 897.1996124031008,182.42684754861904 898.8178294573643,182.421803489793 900.4360465116279,182.4167594309669 902.0542635658915,182.41171537214086 903.672480620155,182.4066713133148 905.2906976744185,182.40162725448872 906.9089147286821,182.39658319566269 908.5271317829457,182.39153913683663 910.1453488372093,182.38649507801054 911.7635658914728,182.38145101918445 913.3817829457364,182.3764069603584 915.0,182.37136290153234" stroke="#3fb950" stroke-width="2.8" fill="none"/>
<polygon points="879.3992248062016,33.113626991375526 881.0174418604652,40.247943794953855 882.6356589147288,47.382260598532184 884.2538759689922,54.516577402110514 885.8720930232558,61.65089420568888 887.4903100775194,68.78521100926717 889.1085271317829,75.9195278128455 890.7267441860465,83.05384461642385 892.34496124031,90.1881614200022 893.9631782945736,97.32247822358053 895.5813953488372,104.45679502715883 897.1996124031008,111.59111183073716 898.8178294573643,118.72542863431553 900.4360465116279,125.85974543789386 902.0542635658915,132.9940622414722 903.672480620155,140.1283790450505 905.2906976744185,147.26269584862882 905.2906976744185,182.40162725448872 903.672480620155,182.4066713133148 902.0542635658915,182.41171537214086 900.4360465116279,182.4167594309669 898.8178294573643,182.421803489793 897.1996124031008,182.42684754861904 895.5813953488372,182.4318916074451 893.9631782945736,182.43693566627118 892.34496124031,182.4419797250972 890.7267441860465,182.44702378392327 889.1085271317829,182.45206784274933 887.4903100775194,182.4571119015754 885.8720930232558,182.46215596040145 884.2538759689922,182.46720001922756 882.6356589147288,182.47224407805362 881.0174418604652,182.47728813687965 879.3992248062016,182.48233219570574" fill="#FFD700" opacity="0.10"/>
<polygon points="883.7267441860465,74.05384461642385 897.7267441860465,74.05384461642385 890.7267441860465,84.05384461642385" fill="#f85149" stroke="#fff" stroke-width="1.5"/>
<text x="890.7267441860465" y="70.05384461642385" text-anchor="middle" font-size="9" fill="#f85149">¥44.80</text>
<polygon points="891.8178294573643,109.72542863431553 905.8178294573643,109.72542863431553 898.8178294573643,119.72542863431553" fill="#f85149" stroke="#fff" stroke-width="1.5"/>
<text x="898.8178294573643" y="105.72542863431553" text-anchor="middle" font-size="9" fill="#f85149">¥40.38</text>
<polygon points="872.3992248062016,191.48233219570574 886.3992248062016,191.48233219570574 879.3992248062016,181.48233219570574" fill="#3fb950" stroke="#fff" stroke-width="1.5"/>
<text x="879.3992248062016" y="200.48233219570574" text-anchor="middle" font-size="9" fill="#3fb950">¥32.48</text>
<polygon points="898.2906976744185,191.40162725448872 912.2906976744185,191.40162725448872 905.2906976744185,181.40162725448872" fill="#3fb950" stroke="#fff" stroke-width="1.5"/>
<text x="905.2906976744185" y="200.40162725448872" text-anchor="middle" font-size="9" fill="#3fb950">¥32.49</text>
<circle cx="908.5271317829457" cy="155.04265218194283" r="8" fill="#f0883e" stroke="#fff" stroke-width="2.5"/>
<text x="908.5271317829457" y="141.04265218194283" text-anchor="middle" font-size="11" fill="#f0883e" font-weight="bold">★ 突破 ¥35.88</text>
<polyline points="80.0,357.12782498918455 81.61821705426357,358.0962842837879 83.23643410852713,360.11390781421164 84.8546511627907,359.14544851960824 86.47286821705427,361.08236710881505 88.09108527131784,362.37364616828626 89.70930232558139,361.5665967561167 91.32751937984496,363.18069558045573 92.94573643410853,362.9385807568049 94.56395348837209,361.3244819324659 96.18217054263566,362.2929412270693 97.80038759689923,362.6157609919371 99.4186046511628,361.72800663855065 101.03682170542635,363.26140052167267 102.65503875968992,364.9562042872287 104.27325581395348,364.47197463992694 105.89147286821705,361.163072050032 107.50968992248062,358.66121887230656 109.12790697674419,357.36993981283536 110.74612403100775,355.51372616484554 112.36434108527132,357.0471200479676 113.98255813953489,359.46826828447604 115.60077519379846,350.91354451547943 117.21899224806202,350.18720004452683 118.83720930232559,354.1417421641574 120.45542635658916,359.0647435783913 122.07364341085271,355.27161134119467 123.69186046511628,357.4506447540523 125.31007751937985,352.6890532222523 126.92829457364341,351.7205939276489 128.54651162790697,352.3662334573845 130.16472868217056,355.27161134119467 131.7829457364341,358.2576941662218 133.40116279069767,357.7734645189201 135.01937984496124,363.58422028654047 136.6375968992248,366.73171299400155 138.25581395348837,361.0016621675981 139.87403100775194,362.2929412270693 141.4922480620155,357.4506447540523 143.11046511627907,356.9664151067506 144.72868217054264,358.33839910743876 146.3468992248062,360.3560226378625 147.96511627906978,361.3244819324659 149.58333333333331,362.1315313446354 151.2015503875969,363.18069558045573 152.81976744186045,357.2085299304015 154.43798449612405,356.8857101655337 156.05620155038758,355.02949651754386 157.67441860465118,356.15936569458114 159.29263565891472,356.48218545944894 160.91085271317831,354.9487915763269 162.52906976744185,357.85416946013703 164.14728682170542,358.0962842837879 165.765503875969,356.15936569458114 167.38372093023256,357.69275957770316 169.00193798449612,359.7103831081269 170.6201550387597,361.243776991249 172.23837209302326,362.05082640341845 173.85658914728683,360.5981374615134 175.4748062015504,360.1946127554286 177.09302325581393,356.15936569458114 178.71124031007753,355.9979558121472 180.3294573643411,356.2400706357981 181.94767441860466,359.0647435783913 183.5658914728682,362.4543511095032 185.1841085271318,361.72800663855065 186.80232558139534,361.97012146220146 188.42054263565893,361.40518687368285 190.03875968992247,361.4858918148998 191.65697674418604,363.6649252277574 193.2751937984496,362.2122362858523 194.89341085271317,359.0647435783913 196.51162790697674,358.90333369595743 198.1298449612403,356.7243002830998 199.74806201550388,360.2753176966456 201.36627906976744,361.0016621675981 202.984496124031,360.8402522851642 204.60271317829455,362.2122362858523 206.22093023255815,360.6788424027303 207.83914728682169,359.95249793177777 209.45736434108528,363.3421054628896 211.07558139534885,362.85787581558793 212.69379844961242,359.46826828447604 214.31201550387598,357.934874401354 215.93023255813955,360.43672757907945 217.5484496124031,359.8717929905608 219.16666666666666,361.72800663855065 220.78488372093022,361.163072050032 222.4031007751938,362.69646593315406 224.02131782945736,364.8754993460117 225.63953488372093,364.14915487505914 227.2577519379845,366.65100805278456 228.87596899224806,367.94228711225577 230.49418604651163,370.1213205251134 232.1124031007752,370.84766499606593 233.73062015503876,369.7985007602456 235.34883720930233,368.83004146564224 236.9670542635659,367.45805746495404 238.58527131782947,366.4895981703507 240.20348837209303,366.32818828791676 241.8217054263566,365.0369092284456 243.43992248062014,361.08236710881505 245.0581395348837,352.6890532222523 246.67635658914728,343.48868992352004 248.29457364341084,352.76975816346925 249.9127906976744,350.7521346330455 251.53100775193798,356.07866075336415 253.14922480620154,348.2502814553201 254.7674418604651,347.8467567492353 256.38565891472865,341.87459109918103 258.00387596899225,336.7094748612963 259.62209302325584,335.33749086060817 261.2403100775194,335.01467109574037 262.8585271317829,332.5128179180149 264.4767441860465,334.36903156600476 266.0949612403101,327.4284066213471 267.71317829457365,324.2002089726691 269.3313953488372,325.0072583848386 270.9496124031008,328.39686591595046 272.5678294573643,327.8319313274318 274.18604651162786,327.50911156256404 275.80426356589146,335.0953760369573 277.42248062015506,332.351408035581 279.04069767441865,331.14083391732674 280.6589147286822,334.04621180113696 282.27713178294573,331.6250635646284 283.8953488372093,332.5935228592319 285.51356589147287,328.80039062203525 287.1317829457364,330.0916696815064 288.75,331.0601289761098 290.3682170542636,335.17608097817424 291.98643410852713,334.04621180113696 293.6046511627907,340.82542686336075 295.22286821705427,337.5165242734658 296.84108527131787,333.23916238896743 298.4593023255814,332.43211297679795 300.07751937984494,337.83934403833354 301.69573643410854,339.21132803902174 303.3139534883721,340.2604922748421 304.9321705426356,340.09908239240815 306.5503875968992,342.4395256876997 308.1686046511628,338.88850827415393 309.78682170542635,338.56568850928613 311.4050387596899,340.5833120397099 313.0232558139535,342.1167059228319 314.6414728682171,341.06754168701156 316.2596899224806,338.72709839172006 317.87790697674416,340.9868367457946 319.49612403100775,337.193704508598 321.11434108527135,331.7057685058454 322.7325581395349,330.89871909367594 324.3507751937984,332.5935228592319 325.968992248062,335.49890074304204 327.5872093023256,340.0183774511912 329.2054263565891,332.9163426240997 330.8236434108527,332.9163426240997 332.4418604651163,331.22153885854374 334.06007751937983,336.46736003764545 335.67829457364337,336.8708847437302 337.29651162790697,337.83934403833354 338.91472868217056,334.04621180113696 340.5329457364341,334.36903156600476 342.1511627906977,334.20762168357084 343.76937984496124,341.87459109918103 345.38759689922483,346.31336286611327 347.00581395348837,350.4293148681777 348.62403100775197,351.80129886886584 350.2422480620155,349.86438027965903 351.8604651162791,352.3662334573845 353.47868217054264,352.44693839860145 355.0968992248062,355.6751360472794 356.7151162790698,355.6751360472794 358.3333333333333,349.5415605147913 359.9515503875969,351.63988898643197 361.56976744186045,351.23636428034723 363.18798449612405,350.8328395742625 364.8062015503876,348.81521604383875 366.4244186046512,345.99054310124546 368.0426356589147,347.20111721949974 369.6608527131783,348.73451110262175 371.27906976744185,347.03970733706586 372.89728682170545,349.2994456911404 374.515503875969,347.4432320431506 376.1337209302326,344.2150343944726 377.7519379844961,336.9515896849471 379.3701550387597,334.04621180113696 380.98837209302326,333.4812772126183 382.6065891472868,332.5128179180149 384.2248062015504,335.6603106254759 385.84302325581393,335.74101556669285 387.4612403100775,333.88480191870303 389.07945736434107,338.4849835680692 390.69767441860466,331.9478833294962 392.3158914728682,330.01096474028947 393.9341085271318,331.0601289761098 395.55232558139534,331.9478833294962 397.17054263565893,332.6742278004488 398.7887596899225,332.83563768288275 400.40697674418607,334.85326121330644 402.0251937984496,342.1167059228319 403.6434108527132,342.92375533500143 405.26162790697674,341.3096565106624 406.8798449612403,340.50260709849294 408.4980620155039,339.53414780388954 410.1162790697674,340.09908239240815 411.734496124031,341.7938861579641 413.35271317829455,342.35882074648276 414.97093023255815,341.2289515694455 416.5891472868217,344.2150343944726 418.2073643410853,342.68164051135057 419.8255813953488,341.71318121674716 421.4437984496124,340.9868367457946 423.06201550387595,330.65660427002507 424.68023255813955,319.2772075584352 426.2984496124031,322.34399532467927 427.9166666666667,328.07404615108265 429.5348837209302,320.2456668530386 431.1531007751938,319.51932238208605 432.77131782945736,315.9683049685402 434.3895348837209,323.0703397956318 436.0077519379845,310.88389367187244 437.62596899224803,313.30504190838093 439.24418604651163,324.6037336787539 440.86240310077517,336.6287699200793 442.48062015503876,347.4432320431506 444.0988372093023,356.320775577015 445.7170542635659,354.06103722294046 447.33527131782944,347.6046419255845 448.95348837209303,346.23265792489633 450.5717054263566,344.45714921812345 452.18992248062017,345.9098381600285 453.8081395348837,343.81150968838784 455.4263565891473,345.82913321881153 457.0445736434109,348.0081666316692 458.6627906976744,345.5063134539438 460.281007751938,347.20111721949974 461.8992248062015,343.9729195708217 463.5174418604651,346.31336286611327 465.13565891472865,345.5870183951607 466.75387596899225,346.797592513415 468.3720930232558,343.7308047471709 469.9903100775194,341.2289515694455 471.6085271317829,338.00075392076747 473.2267441860465,338.32357368563527 474.84496124031006,336.3059501552115 476.46317829457365,339.4534428626726 478.08139534883725,334.69185133087257 479.6996124031008,336.46736003764545 481.3178294573644,337.193704508598 482.9360465116279,339.2920329802387 484.55426356589146,338.64639345050307 486.172480620155,339.77626262754035 487.7906976744186,338.4849835680692 489.40891472868213,338.807803332937 491.02713178294573,339.6148527451065 492.64534883720927,342.19741086404883 494.26356589147287,340.09908239240815 495.8817829457364,341.87459109918103 497.5,343.0851652174353 499.1182170542636,341.1482466282285 500.73643410852713,343.6500998059539 502.35465116279073,344.0536245120387 503.97286821705427,342.92375533500143 505.59108527131787,341.3096565106624 507.2093023255814,343.00446027621837 508.827519379845,341.3096565106624 510.44573643410854,343.6500998059539 512.0639534883721,343.16587015865224 513.6821705426357,343.9729195708217 515.3003875968993,346.0712480424624 516.9186046511628,343.8922146296048 518.5368217054264,343.7308047471709 520.1550387596899,341.7938861579641 521.7732558139535,343.0851652174353 523.3914728682171,344.6992640417743 525.0096899224806,343.0851652174353 526.6279069767442,341.1482466282285 528.2461240310076,340.42190215727595 529.8643410852712,341.4710663930963 531.4825581395348,341.1482466282285 533.1007751937984,340.0183774511912 534.718992248062,340.50260709849294 536.3372093023256,340.9061318045777 537.9554263565891,337.5972292146827 539.5736434108527,340.2604922748421 541.1918604651163,340.82542686336075 542.8100775193798,337.92004897955053 544.4282945736434,336.46736003764545 546.046511627907,337.43581933224885 547.6647286821706,338.0814588619844 549.2829457364342,338.24286874441833 550.9011627906978,339.3727379214556 552.5193798449612,339.6148527451065 554.1375968992248,338.00075392076747 555.7558139534883,338.88850827415393 557.3740310077519,338.00075392076747 558.9922480620155,339.13062309780474 560.6104651162791,340.42190215727595 562.2286821705427,338.72709839172006 563.8468992248063,338.32357368563527 565.4651162790698,337.43581933224885 567.0833333333334,337.83934403833354 568.7015503875969,339.2920329802387 570.3197674418604,340.50260709849294 571.937984496124,340.1797873336251 573.5562015503876,339.53414780388954 575.1744186046512,337.5165242734658 576.7926356589146,336.6287699200793 578.4108527131782,334.04621180113696 580.0290697674418,335.579605684259 581.6472868217054,334.36903156600476 583.265503875969,334.85326121330644 584.8837209302326,334.61114638965563 586.5019379844962,333.56198215383523 588.1201550387597,333.56198215383523 589.7383720930233,331.22153885854374 591.3565891472867,330.17237462272334 592.9748062015503,326.54065226796064 594.5930232558139,327.589816503781 596.2112403100775,327.6705214449979 597.8294573643411,328.7196856808183 599.4476744186046,326.7827670916115 601.0658914728682,328.2354560335166 602.6841085271318,327.1055868564793 604.3023255813954,328.39686591595046 605.9205426356589,327.8319313274318 607.5387596899225,332.6742278004488 609.1569767441861,335.33749086060817 610.7751937984497,336.8708847437302 612.3934108527131,332.75493274166575 614.0116279069767,333.3198673301844 615.6298449612403,336.3866550964285 617.2480620155039,336.7094748612963 618.8662790697674,332.83563768288275 620.484496124031,330.4951943875912 622.1027131782946,331.8671783882793 623.7209302325582,329.68814497542166 625.3391472868218,330.0916696815064 626.9573643410853,332.10929321193015 628.5755813953488,333.1584574477505 630.1937984496124,330.89871909367594 631.812015503876,333.1584574477505 633.4302325581396,330.65660427002507 635.048449612403,331.3829487409776 636.6666666666666,336.3866550964285 638.2848837209302,336.79017980251325 639.9031007751938,334.1269167423539 641.5213178294573,334.1269167423539 643.1395348837209,337.0322946261641 644.7577519379845,340.2604922748421 646.3759689922481,344.0536245120387 647.9941860465116,341.7938861579641 649.6124031007752,343.7308047471709 651.2306201550388,347.2818221607167 652.8488372093024,345.2641986302929 654.4670542635658,343.2465750998692 656.0852713178294,343.0851652174353 657.703488372093,342.60093557013363 659.3217054263566,341.6324762755302 660.9399224806201,341.06754168701156 662.5581395348837,340.9061318045777 664.1763565891473,341.95529604039797 665.7945736434109,343.7308047471709 667.4127906976745,343.6500998059539 669.031007751938,342.60093557013363 670.6492248062016,344.2150343944726 672.2674418604652,343.81150968838784 673.8856589147288,343.3272800410861 675.5038759689922,343.7308047471709 677.1220930232558,343.3272800410861 678.7403100775194,340.6640169809268 680.3585271317829,341.7938861579641 681.9767441860465,342.03600098161496 683.59496124031,343.3272800410861 685.2131782945736,343.16587015865224 686.8313953488372,344.9413788654251 688.4496124031008,346.55547768976413 690.0678294573643,346.23265792489633 691.6860465116279,350.18720004452683 693.3042635658915,349.1380358087065 694.922480620155,347.1204122782828 696.5406976744185,346.716887572198 698.1589147286821,342.35882074648276 699.7771317829457,345.10278874785905 701.3953488372093,338.24286874441833 703.0135658914728,336.5480649788624 704.6317829457364,338.24286874441833 706.25,339.4534428626726 707.8682170542636,341.1482466282285 709.4864341085272,339.3727379214556 711.1046511627907,339.9376725099743 712.7228682170543,341.95529604039797 714.3410852713179,344.45714921812345 715.9593023255815,344.8606739242082 717.577519379845,346.0712480424624 719.1957364341085,347.8467567492353 720.8139534883721,348.41169133775395 722.4321705426357,348.16957651410314 724.0503875968992,347.1204122782828 725.6686046511628,346.63618263098107 727.2868217054264,346.55547768976413 728.90503875969,341.1482466282285 730.5232558139535,340.82542686336075 732.1414728682171,342.60093557013363 733.7596899224806,339.2920329802387 735.3779069767442,339.9376725099743 736.9961240310078,340.341197216059 738.6143410852712,340.341197216059 740.2325581395348,339.6955576863234 741.8507751937984,340.7447219221438 743.468992248062,340.1797873336251 745.0872093023255,338.0814588619844 746.7054263565891,337.5165242734658 748.3236434108527,340.2604922748421 749.9418604651163,339.77626262754035 751.5600775193799,339.9376725099743 753.1782945736434,338.4849835680692 754.796511627907,338.00075392076747 756.4147286821706,338.96921321537087 758.0329457364342,337.83934403833354 759.6511627906976,336.6287699200793 761.2693798449612,335.74101556669285 762.8875968992248,337.67793415589966 764.5058139534884,337.5972292146827 766.1240310077519,339.4534428626726 767.7422480620155,341.39036145187936 769.3604651162791,340.6640169809268 770.9786821705427,344.13432945325565 772.5968992248062,341.95529604039797 774.2151162790698,341.06754168701156 775.8333333333334,343.00446027621837 777.451550387597,342.68164051135057 779.0697674418604,341.3096565106624 780.687984496124,330.9794240348929 782.3062015503876,331.6250635646284 783.9244186046512,326.7827670916115 785.5426356589147,319.51932238208605 787.1608527131782,316.93676426314363 788.7790697674418,318.87368285235044 790.3972868217054,319.0350927347843 792.015503875969,306.44512190494015 793.6337209302326,301.36071060827237 795.2519379844961,308.30133555293 796.8701550387597,310.3996640245707 798.4883720930233,313.143632025947 800.1065891472869,308.54345037658095 801.7248062015503,305.07313790425206 803.3430232558139,303.86256378599785 804.9612403100775,304.3467934332995 806.5794573643411,306.44512190494015 808.1976744186046,309.26979484753343 809.8158914728682,301.1185957846215 811.4341085271318,305.96089225763853 813.0523255813954,298.77815248932995 814.6705426356589,302.0870550792249 816.2887596899225,305.6380724927707 817.9069767441861,312.1751727313436 819.5251937984497,302.6519896677436 821.1434108527131,301.8449402555741 822.7616279069767,302.57128472652664 824.3798449612403,302.0870550792249 825.9980620155039,303.3783341386961 827.6162790697674,298.53603766567915 829.234496124031,293.85515107509605 830.8527131782946,296.67982401768927 832.4709302325582,293.29021648657744 834.0891472868218,291.19188801493675 835.7073643410853,283.2828037756757 837.3255813953488,273.84032565329255 838.9437984496124,270.45071812218066 840.562015503876,273.4368009472078 842.1802325581396,269.4822588275773 843.798449612403,268.43309459175697 845.4166666666666,260.84683011736365 847.0348837209302,259.71696094032643 848.6531007751938,261.49246964709926 850.2713178294573,254.06761505513992 851.8895348837209,247.2076950516992 853.5077519379845,245.19007152127548 855.1259689922481,241.63905410772972 856.7441860465116,235.58618351645853 858.3624031007752,219.36449033185164 859.9806201550388,196.8478117323227 861.5988372093024,190.23000655253284 863.2170542635658,181.91739760718707 864.8352713178294,155.60758677046147 866.453488372093,126.71521781479353 868.0717054263566,151.08811006231232 869.6899224806201,163.19385124485476 871.3081395348837,148.58625688458687 872.9263565891473,146.4879284129462 874.5445736434109,142.69479617574956 876.1627906976745,160.77270300834624 877.781007751938,176.26805172200056 879.3992248062016,178.12426536999038 881.0174418604652,167.06768842326832 882.6356589147288,161.3376375968649 884.2538759689922,155.1233571231598 885.8720930232558,146.24581358929532 887.4903100775194,130.83116981685797 889.1085271317829,101.05104650780359 890.7267441860465,117.59555945727823 892.34496124031,139.38589358585463 893.9631782945736,141.32281217506144 895.5813953488372,135.75417123109185 897.1996124031008,145.27735429469192 898.8178294573643,139.7087133507224 900.4360465116279,158.4322597130547 902.0542635658915,151.653044650831 903.672480620155,171.10293548411582 905.2906976744185,171.02223054289885 906.9089147286821,176.6715764280853 908.5271317829457,155.04265218194283 910.1453488372093,144.55100982373938 911.7635658914728,131.96103899389522 913.3817829457364,100.72822674293579 915.0,66.34792178451528" stroke="#58a6ff" stroke-width="1.8" fill="none"/>
<line x1="80" y1="55.61416460266098" x2="915" y2="55.61416460266098" stroke="#FFD700" stroke-width="1.5" stroke-dasharray="6,4"/>
<text x="920" y="60.61416460266098" font-size="11" fill="#FFD700" font-weight="bold">▼ 目标 48.20</text>
<line x1="80" y1="155.04265218194283" x2="915" y2="155.04265218194283" stroke="#3fb950" stroke-width="1" stroke-dasharray="3,3"/>
<text x="920" y="160.04265218194283" font-size="11" fill="#3fb950">突破价 35.88</text>
<line x1="915.0" y1="66.34792178451528" x2="915" y2="66.34792178451528" stroke="#88ccff" stroke-width="1.5"/>
<text x="920" y="71.34792178451528" font-size="11" fill="#88ccff" font-weight="bold">● 现价 46.87</text>
<text x="80" y="623" font-size="13" fill="#58a6ff" font-weight="bold">上榜理由 (综合得分: 89):</text>
<text x="90" y="641" font-size="11" fill="#c9d1d9">1. 形态于11天前收敛，突破信号有效</text>
<text x="90" y="657" font-size="11" fill="#c9d1d9">2. 突破后日线胜率95%，表现优秀</text>
<text x="90" y="673" font-size="11" fill="#c9d1d9">3. 量度目标涨幅34.3%（目标¥48.20 / 突破¥35.88）</text>
<text x="90" y="689" font-size="11" fill="#c9d1d9">4. 收敛前强上涨趋势+54.1%，典型上涨中继</text>
<text x="90" y="705" font-size="11" fill="#c9d1d9">5. 三角持续16个交易日，整理充分</text>
</svg>