<svg xmlns="http://www.w3.org/2000/svg" viewBox="0 0 1000 720" width="1000" height="720">
<rect width="1000" height="720" fill="#0d1117"/>
<text x="500.0" y="24" text-anchor="middle" font-size="17" fill="#58a6ff" font-weight="bold">通光线缆 (300265.SZ)  三角收敛上涨中继  评分:89/100</text>
<line x1="80" y1="374.0" x2="915" y2="374.0" stroke="#21262d" stroke-width="0.5"/>
<text x="72" y="378.0" text-anchor="end" font-size="10" fill="#8b949e">5.98</text>
<line x1="80" y1="310.20000000000005" x2="915" y2="310.20000000000005" stroke="#21262d" stroke-width="0.5"/>
<text x="72" y="314.20000000000005" text-anchor="end" font-size="10" fill="#8b949e">10.28</text>
<line x1="80" y1="246.40000000000003" x2="915" y2="246.40000000000003" stroke="#21262d" stroke-width="0.5"/>
<text x="72" y="250.40000000000003" text-anchor="end" font-size="10" fill="#8b949e">14.59</text>
<line x1="80" y1="182.60000000000002" x2="915" y2="182.60000000000002" stroke="#21262d" stroke-width="0.5"/>
<text x="72" y="186.60000000000002" text-anchor="end" font-size="10" fill="#8b949e">18.90</text>
<line x1="80" y1="118.80000000000001" x2="915" y2="118.80000000000001" stroke="#21262d" stroke-width="0.5"/>
<text x="72" y="122.80000000000001" text-anchor="end" font-size="10" fill="#8b949e">23.20</text>
<line x1="80" y1="55.0" x2="915" y2="55.0" stroke="#21262d" stroke-width="0.5"/>
<text x="72" y="59.0" text-anchor="end" font-size="10" fill="#8b949e">27.51</text>
<text x="80.0" y="554.0" text-anchor="middle" font-size="9" fill="#8b949e">2024-05-06</text>
<text x="183.5658914728682" y="554.0" text-anchor="middle" font-size="9" fill="#8b949e">2024-08-05</text>
<text x="287.1317829457364" y="554.0" text-anchor="middle" font-size="9" fill="#8b949e">2024-11-12</text>
<text x="390.69767441860466" y="554.0" text-anchor="middle" font-size="9" fill="#8b949e">2025-02-19</text>
<text x="494.26356589147287" y="554.0" text-anchor="middle" font-size="9" fill="#8b949e">2025-05-26</text>
<text x="597.8294573643411" y="554.0" text-anchor="middle" font-size="9" fill="#8b949e">2025-08-25</text>
<text x="701.3953488372093" y="554.0" text-anchor="middle" font-size="9" fill="#8b949e">2025-12-01</text>
<text x="804.9612403100775" y="554.0" text-anchor="middle" font-size="9" fill="#8b949e">2026-03-11</text>
<text x="908.5271317829457" y="554.0" text-anchor="middle" font-size="9" fill="#8b949e">2026-06-15</text>
<rect x="871.3081395348837" y="55" width="35.60077519379843" height="484.0" fill="#FFD700" opacity="0.06" rx="2"/>
<rect x="79.43471953578337" y="535.2096551744164" width="1.1305609284332687" height="3.7903448255835883" fill="#3fb950" opacity="0.5"/>
<rect x="81.05293659004694" y="533.2343715405601" width="1.1305609284332687" height="5.765628459439881" fill="#3fb950" opacity="0.5"/>
<rect x="82.67115364431051" y="534.3374015238934" width="1.1305609284332687" height="4.662598476106609" fill="#f85149" opacity="0.5"/>
<rect x="84.28937069857407" y="535.3417946376132" width="1.1305609284332687" height="3.6582053623867523" fill="#3fb950" opacity="0.5"/>
<rect x="85.90758775283764" y="530.0381758915257" width="1.1305609284332687" height="8.961824108474275" fill="#3fb950" opacity="0.5"/>
<rect x="87.52580480710121" y="527.5741332552446" width="1.1305609284332687" height="11.425866744755353" fill="#3fb950" opacity="0.5"/>
<rect x="89.14402186136476" y="524.8134584482117" width="1.1305609284332687" height="14.18654155178831" fill="#3fb950" opacity="0.5"/>
<rect x="90.76223891562833" y="528.3690551318241" width="1.1305609284332687" height="10.630944868175902" fill="#f85149" opacity="0.5"/>
<rect x="92.3804559698919" y="531.7395550918307" width="1.1305609284332687" height="7.260444908169347" fill="#f85149" opacity="0.5"/>
<rect x="93.99867302415547" y="524.6457658213267" width="1.1305609284332687" height="14.354234178673323" fill="#3fb950" opacity="0.5"/>
<rect x="95.61689007841903" y="529.8951527231904" width="1.1305609284332687" height="9.10484727680955" fill="#f85149" opacity="0.5"/>
<rect x="97.2351071326826" y="533.147878329691" width="1.1305609284332687" height="5.852121670308975" fill="#f85149" opacity="0.5"/>
<rect x="98.85332418694617" y="532.5322139676697" width="1.1305609284332687" height="6.467786032330309" fill="#3fb950" opacity="0.5"/>
<rect x="100.47154124120972" y="531.5842144578672" width="1.1305609284332687" height="7.415785542132767" fill="#f85149" opacity="0.5"/>
<rect x="102.08975829547329" y="530.6266924375792" width="1.1305609284332687" height="8.373307562420791" fill="#3fb950" opacity="0.5"/>
<rect x="103.70797534973686" y="530.9069282404117" width="1.1305609284332687" height="8.09307175958827" fill="#3fb950" opacity="0.5"/>
<rect x="105.32619240400042" y="520.507574900296" width="1.1305609284332687" height="18.49242509970395" fill="#3fb950" opacity="0.5"/>
<rect x="106.94440945826399" y="528.2037495698526" width="1.1305609284332687" height="10.796250430147438" fill="#f85149" opacity="0.5"/>
<rect x="108.56262651252756" y="530.5931956960794" width="1.1305609284332687" height="8.40680430392058" fill="#f85149" opacity="0.5"/>
<rect x="110.18084356679113" y="502.6928251816091" width="1.1305609284332687" height="36.30717481839088" fill="#3fb950" opacity="0.5"/>
<rect x="111.79906062105469" y="473.8656514042507" width="1.1305609284332687" height="65.13434859574932" fill="#3fb950" opacity="0.5"/>
<rect x="113.41727767531826" y="496.1351581671952" width="1.1305609284332687" height="42.864841832804814" fill="#f85149" opacity="0.5"/>
<rect x="115.03549472958183" y="501.8971694537423" width="1.1305609284332687" height="37.10283054625768" fill="#f85149" opacity="0.5"/>
<rect x="116.6537117838454" y="504.95085574738437" width="1.1305609284332687" height="34.04914425261563" fill="#f85149" opacity="0.5"/>
<rect x="118.27192883810896" y="513.9841437455447" width="1.1305609284332687" height="25.015856254455343" fill="#f85149" opacity="0.5"/>
<rect x="119.89014589237253" y="517.9085545402568" width="1.1305609284332687" height="21.091445459743227" fill="#3fb950" opacity="0.5"/>
<rect x="121.50836294663608" y="520.3190318846395" width="1.1305609284332687" height="18.680968115360542" fill="#3fb950" opacity="0.5"/>
<rect x="123.12658000089965" y="511.194094404722" width="1.1305609284332687" height="27.805905595277977" fill="#3fb950" opacity="0.5"/>
<rect x="124.74479705516322" y="513.918078403009" width="1.1305609284332687" height="25.081921596991037" fill="#f85149" opacity="0.5"/>
<rect x="126.36301410942679" y="521.6718299677933" width="1.1305609284332687" height="17.328170032206685" fill="#3fb950" opacity="0.5"/>
<rect x="127.98123116369034" y="512.4928087013677" width="1.1305609284332687" height="26.50719129863228" fill="#3fb950" opacity="0.5"/>
<rect x="129.59944821795392" y="520.4573306658589" width="1.1305609284332687" height="18.542669334141124" fill="#f85149" opacity="0.5"/>
<rect x="131.21766527221746" y="522.225699252705" width="1.1305609284332687" height="16.774300747295" fill="#f85149" opacity="0.5"/>
<rect x="132.83588232648103" y="527.4724486204758" width="1.1305609284332687" height="11.527551379524198" fill="#f85149" opacity="0.5"/>
<rect x="134.4540993807446" y="526.4085679062223" width="1.1305609284332687" height="12.591432093777712" fill="#f85149" opacity="0.5"/>
<rect x="136.07231643500816" y="531.2216445200027" width="1.1305609284332687" height="7.7783554799973444" fill="#3fb950" opacity="0.5"/>
<rect x="137.69053348927173" y="529.3922281671266" width="1.1305609284332687" height="9.607771832873368" fill="#3fb950" opacity="0.5"/>
<rect x="139.3087505435353" y="529.5734917759537" width="1.1305609284332687" height="9.426508224046302" fill="#f85149" opacity="0.5"/>
<rect x="140.92696759779886" y="508.1818601750689" width="1.1305609284332687" height="30.81813982493111" fill="#3fb950" opacity="0.5"/>
<rect x="142.54518465206243" y="520.0519176237261" width="1.1305609284332687" height="18.948082376273874" fill="#f85149" opacity="0.5"/>
<rect x="144.163401706326" y="522.8260405189449" width="1.1305609284332687" height="16.173959481055135" fill="#3fb950" opacity="0.5"/>
<rect x="145.78161876058957" y="527.4850306002842" width="1.1305609284332687" height="11.514969399715824" fill="#f85149" opacity="0.5"/>
<rect x="147.39983581485313" y="531.5792653507399" width="1.1305609284332687" height="7.420734649260112" fill="#f85149" opacity="0.5"/>
<rect x="149.01805286911667" y="520.2943905160912" width="1.1305609284332687" height="18.705609483908802" fill="#3fb950" opacity="0.5"/>
<rect x="150.63626992338027" y="521.0518350638845" width="1.1305609284332687" height="17.948164936115518" fill="#3fb950" opacity="0.5"/>
<rect x="152.2544869776438" y="518.2040636961599" width="1.1305609284332687" height="20.795936303840108" fill="#3fb950" opacity="0.5"/>
<rect x="153.8727040319074" y="525.0922891657642" width="1.1305609284332687" height="13.907710834235786" fill="#f85149" opacity="0.5"/>
<rect x="155.49092108617094" y="525.097553114991" width="1.1305609284332687" height="13.902446885008999" fill="#3fb950" opacity="0.5"/>
<rect x="157.10913814043454" y="528.1917159302805" width="1.1305609284332687" height="10.808284069719548" fill="#f85149" opacity="0.5"/>
<rect x="158.72735519469808" y="530.7182804724582" width="1.1305609284332687" height="8.281719527541782" fill="#f85149" opacity="0.5"/>
<rect x="160.34557224896167" y="531.8711315845821" width="1.1305609284332687" height="7.128868415417855" fill="#f85149" opacity="0.5"/>
<rect x="161.9637893032252" y="533.3738067964207" width="1.1305609284332687" height="5.626193203579305" fill="#f85149" opacity="0.5"/>
<rect x="163.58200635748878" y="532.4280421973573" width="1.1305609284332687" height="6.571957802642714" fill="#f85149" opacity="0.5"/>
<rect x="165.20022341175235" y="533.995063994769" width="1.1305609284332687" height="5.004936005231002" fill="#3fb950" opacity="0.5"/>
<rect x="166.81844046601591" y="533.0928488464681" width="1.1305609284332687" height="5.907151153531913" fill="#3fb950" opacity="0.5"/>
<rect x="168.43665752027948" y="533.3003982593439" width="1.1305609284332687" height="5.699601740656135" fill="#f85149" opacity="0.5"/>
<rect x="170.05487457454305" y="533.7540757760212" width="1.1305609284332687" height="5.245924223978818" fill="#f85149" opacity="0.5"/>
<rect x="171.67309162880662" y="534.2157460685228" width="1.1305609284332687" height="4.784253931477224" fill="#3fb950" opacity="0.5"/>
<rect x="173.29130868307018" y="529.2838733274343" width="1.1305609284332687" height="9.716126672565679" fill="#3fb950" opacity="0.5"/>
<rect x="174.90952573733375" y="524.3496187883078" width="1.1305609284332687" height="14.650381211692206" fill="#3fb950" opacity="0.5"/>
<rect x="176.5277427915973" y="529.1152736275865" width="1.1305609284332687" height="9.884726372413525" fill="#f85149" opacity="0.5"/>
<rect x="178.1459598458609" y="522.3075453239621" width="1.1305609284332687" height="16.69245467603787" fill="#3fb950" opacity="0.5"/>
<rect x="179.76417690012445" y="521.957356054229" width="1.1305609284332687" height="17.042643945771033" fill="#f85149" opacity="0.5"/>
<rect x="181.38239395438802" y="528.6942466411158" width="1.1305609284332687" height="10.305753358884203" fill="#f85149" opacity="0.5"/>
<rect x="183.00061100865156" y="528.724237399312" width="1.1305609284332687" height="10.27576260068804" fill="#f85149" opacity="0.5"/>
<rect x="184.61882806291516" y="531.9964603928485" width="1.1305609284332687" height="7.003539607151538" fill="#3fb950" opacity="0.5"/>
<rect x="186.2370451171787" y="500.16960861647715" width="1.1305609284332687" height="38.83039138352285" fill="#3fb950" opacity="0.5"/>
<rect x="187.8552621714423" y="470.9951768780767" width="1.1305609284332687" height="68.00482312192332" fill="#3fb950" opacity="0.5"/>
<rect x="189.47347922570583" y="492.26185010758917" width="1.1305609284332687" height="46.73814989241083" fill="#f85149" opacity="0.5"/>
<rect x="191.0916962799694" y="510.06102918735706" width="1.1305609284332687" height="28.938970812642935" fill="#f85149" opacity="0.5"/>
<rect x="192.70991333423297" y="522.8395430315085" width="1.1305609284332687" height="16.16045696849153" fill="#f85149" opacity="0.5"/>
<rect x="194.32813038849653" y="514.20472165221" width="1.1305609284332687" height="24.79527834779003" fill="#3fb950" opacity="0.5"/>
<rect x="195.9463474427601" y="517.0914836975479" width="1.1305609284332687" height="21.908516302452085" fill="#f85149" opacity="0.5"/>
<rect x="197.56456449702367" y="518.0252842968345" width="1.1305609284332687" height="20.974715703165543" fill="#3fb950" opacity="0.5"/>
<rect x="199.18278155128723" y="524.1619249099862" width="1.1305609284332687" height="14.838075090013831" fill="#f85149" opacity="0.5"/>
<rect x="200.8009986055508" y="525.3335647218182" width="1.1305609284332687" height="13.66643527818178" fill="#f85149" opacity="0.5"/>
<rect x="202.41921565981437" y="532.5167094572956" width="1.1305609284332687" height="6.483290542704367" fill="#f85149" opacity="0.5"/>
<rect x="204.0374327140779" y="527.2430469421106" width="1.1305609284332687" height="11.756953057889405" fill="#3fb950" opacity="0.5"/>
<rect x="205.6556497683415" y="519.7097293227342" width="1.1305609284332687" height="19.290270677265767" fill="#3fb950" opacity="0.5"/>
<rect x="207.27386682260504" y="526.6274247150915" width="1.1305609284332687" height="12.372575284908521" fill="#f85149" opacity="0.5"/>
<rect x="208.89208387686864" y="528.5339580704417" width="1.1305609284332687" height="10.466041929558287" fill="#f85149" opacity="0.5"/>
<rect x="210.5103009311322" y="534.1326575999107" width="1.1305609284332687" height="4.867342400089342" fill="#3fb950" opacity="0.5"/>
<rect x="212.12851798539577" y="532.3529693276955" width="1.1305609284332687" height="6.647030672304481" fill="#3fb950" opacity="0.5"/>
<rect x="213.74673503965934" y="528.8957397326411" width="1.1305609284332687" height="10.104260267358882" fill="#3fb950" opacity="0.5"/>
<rect x="215.3649520939229" y="530.85711823058" width="1.1305609284332687" height="8.14288176942" fill="#f85149" opacity="0.5"/>
<rect x="216.98316914818645" y="533.7254192928932" width="1.1305609284332687" height="5.274580707106793" fill="#3fb950" opacity="0.5"/>
<rect x="218.60138620245002" y="533.9091554070546" width="1.1305609284332687" height="5.090844592945359" fill="#f85149" opacity="0.5"/>
<rect x="220.21960325671358" y="534.2873603567582" width="1.1305609284332687" height="4.7126396432418005" fill="#3fb950" opacity="0.5"/>
<rect x="221.83782031097715" y="533.7211390789249" width="1.1305609284332687" height="5.278860921075079" fill="#f85149" opacity="0.5"/>
<rect x="223.45603736524072" y="534.7260910666316" width="1.1305609284332687" height="4.273908933368375" fill="#f85149" opacity="0.5"/>
<rect x="225.07425441950429" y="534.8974552907872" width="1.1305609284332687" height="4.102544709212793" fill="#3fb950" opacity="0.5"/>
<rect x="226.69247147376785" y="535.1809009614917" width="1.1305609284332687" height="3.819099038508284" fill="#f85149" opacity="0.5"/>
<rect x="228.31068852803142" y="534.0936130831278" width="1.1305609284332687" height="4.906386916872179" fill="#3fb950" opacity="0.5"/>
<rect x="229.928905582295" y="534.3805992644296" width="1.1305609284332687" height="4.619400735570366" fill="#f85149" opacity="0.5"/>
<rect x="231.54712263655856" y="535.0130339425145" width="1.1305609284332687" height="3.9869660574854606" fill="#f85149" opacity="0.5"/>
<rect x="233.16533969082212" y="534.7526747417373" width="1.1305609284332687" height="4.247325258262663" fill="#3fb950" opacity="0.5"/>
<rect x="234.7835567450857" y="535.5432912403888" width="1.1305609284332687" height="3.4567087596111605" fill="#f85149" opacity="0.5"/>
<rect x="236.40177379934926" y="534.4038320364477" width="1.1305609284332687" height="4.596167963552261" fill="#3fb950" opacity="0.5"/>
<rect x="238.01999085361282" y="530.9037008162888" width="1.1305609284332687" height="8.096299183711153" fill="#3fb950" opacity="0.5"/>
<rect x="239.6382079078764" y="522.3193963785249" width="1.1305609284332687" height="16.680603621475143" fill="#3fb950" opacity="0.5"/>
<rect x="241.25642496213996" y="519.8366399492062" width="1.1305609284332687" height="19.163360050793813" fill="#3fb950" opacity="0.5"/>
<rect x="242.8746420164035" y="516.2555106247083" width="1.1305609284332687" height="22.744489375291664" fill="#3fb950" opacity="0.5"/>
<rect x="244.49285907066707" y="510.49353913232994" width="1.1305609284332687" height="28.506460867670057" fill="#3fb950" opacity="0.5"/>
<rect x="246.11107612493063" y="505.6652593904827" width="1.1305609284332687" height="33.334740609517326" fill="#3fb950" opacity="0.5"/>
<rect x="247.7292931791942" y="515.5443642513595" width="1.1305609284332687" height="23.455635748640475" fill="#f85149" opacity="0.5"/>
<rect x="249.34751023345777" y="524.2862664717437" width="1.1305609284332687" height="14.713733528256284" fill="#3fb950" opacity="0.5"/>
<rect x="250.96572728772134" y="527.7101602575982" width="1.1305609284332687" height="11.289839742401796" fill="#f85149" opacity="0.5"/>
<rect x="252.5839443419849" y="529.8350863515856" width="1.1305609284332687" height="9.164913648414426" fill="#3fb950" opacity="0.5"/>
<rect x="254.20216139624847" y="529.8962060982441" width="1.1305609284332687" height="9.103793901755921" fill="#f85149" opacity="0.5"/>
<rect x="255.820378450512" y="531.2612631261898" width="1.1305609284332687" height="7.73873687381024" fill="#f85149" opacity="0.5"/>
<rect x="257.4385955047756" y="530.2280859539186" width="1.1305609284332687" height="8.771914046081406" fill="#f85149" opacity="0.5"/>
<rect x="259.0568125590392" y="527.911924885804" width="1.1305609284332687" height="11.088075114196045" fill="#3fb950" opacity="0.5"/>
<rect x="260.67502961330274" y="527.3082391537685" width="1.1305609284332687" height="11.691760846231546" fill="#3fb950" opacity="0.5"/>
<rect x="262.2932466675663" y="526.1199993215065" width="1.1305609284332687" height="12.880000678493502" fill="#3fb950" opacity="0.5"/>
<rect x="263.9114637218299" y="528.4508877432888" width="1.1305609284332687" height="10.549112256711169" fill="#f85149" opacity="0.5"/>
<rect x="265.52968077609347" y="531.9941324339798" width="1.1305609284332687" height="7.0058675660202425" fill="#f85149" opacity="0.5"/>
<rect x="267.147897830357" y="530.9873270913868" width="1.1305609284332687" height="8.01267290861324" fill="#3fb950" opacity="0.5"/>
<rect x="268.76611488462055" y="529.2358862416538" width="1.1305609284332687" height="9.764113758346184" fill="#3fb950" opacity="0.5"/>
<rect x="270.38433193888415" y="527.4473431816956" width="1.1305609284332687" height="11.5526568183044" fill="#f85149" opacity="0.5"/>
<rect x="272.0025489931477" y="531.7568175681276" width="1.1305609284332687" height="7.243182431872356" fill="#f85149" opacity="0.5"/>
<rect x="273.6207660474112" y="531.2632025067053" width="1.1305609284332687" height="7.736797493294716" fill="#3fb950" opacity="0.5"/>
<rect x="275.2389831016748" y="529.7440302711088" width="1.1305609284332687" height="9.25596972889116" fill="#f85149" opacity="0.5"/>
<rect x="276.8572001559384" y="533.3700614628964" width="1.1305609284332687" height="5.629938537103612" fill="#3fb950" opacity="0.5"/>
<rect x="278.475417210202" y="530.7046966159321" width="1.1305609284332687" height="8.295303384067893" fill="#3fb950" opacity="0.5"/>
<rect x="280.09363426446555" y="524.8713817867905" width="1.1305609284332687" height="14.128618213209506" fill="#3fb950" opacity="0.5"/>
<rect x="281.7118513187291" y="526.9242634643957" width="1.1305609284332687" height="12.075736535604278" fill="#3fb950" opacity="0.5"/>
<rect x="283.3300683729927" y="526.5043829011084" width="1.1305609284332687" height="12.495617098891557" fill="#f85149" opacity="0.5"/>
<rect x="284.9482854272562" y="528.555062439643" width="1.1305609284332687" height="10.444937560356948" fill="#3fb950" opacity="0.5"/>
<rect x="286.56650248151976" y="528.7841434238252" width="1.1305609284332687" height="10.215856576174815" fill="#f85149" opacity="0.5"/>
<rect x="288.18471953578336" y="529.4233700301731" width="1.1305609284332687" height="9.576629969826854" fill="#3fb950" opacity="0.5"/>
<rect x="289.80293659004695" y="529.371251958557" width="1.1305609284332687" height="9.628748041443032" fill="#f85149" opacity="0.5"/>
<rect x="291.4211536443105" y="521.4034867693172" width="1.1305609284332687" height="17.59651323068283" fill="#3fb950" opacity="0.5"/>
<rect x="293.03937069857403" y="526.9030479056054" width="1.1305609284332687" height="12.096952094394624" fill="#f85149" opacity="0.5"/>
<rect x="294.6575877528376" y="530.4863009512532" width="1.1305609284332687" height="8.513699048746844" fill="#3fb950" opacity="0.5"/>
<rect x="296.2758048071012" y="530.1143425156182" width="1.1305609284332687" height="8.885657484381795" fill="#3fb950" opacity="0.5"/>
<rect x="297.89402186136476" y="528.0501113070176" width="1.1305609284332687" height="10.949888692982427" fill="#3fb950" opacity="0.5"/>
<rect x="299.5122389156283" y="530.2468629494595" width="1.1305609284332687" height="8.753137050540545" fill="#f85149" opacity="0.5"/>
<rect x="301.1304559698919" y="531.2865768991473" width="1.1305609284332687" height="7.713423100852651" fill="#3fb950" opacity="0.5"/>
<rect x="302.74867302415544" y="533.4450009050513" width="1.1305609284332687" height="5.554999094948698" fill="#f85149" opacity="0.5"/>
<rect x="304.366890078419" y="530.8995458369103" width="1.1305609284332687" height="8.100454163089694" fill="#3fb950" opacity="0.5"/>
<rect x="305.9851071326826" y="530.5301623180733" width="1.1305609284332687" height="8.46983768192672" fill="#3fb950" opacity="0.5"/>
<rect x="307.60332418694617" y="530.8815495093259" width="1.1305609284332687" height="8.11845049067415" fill="#3fb950" opacity="0.5"/>
<rect x="309.2215412412097" y="524.9010430726781" width="1.1305609284332687" height="14.098956927321865" fill="#3fb950" opacity="0.5"/>
<rect x="310.83975829547325" y="529.6558902839057" width="1.1305609284332687" height="9.344109716094295" fill="#f85149" opacity="0.5"/>
<rect x="312.45797534973684" y="523.4587678012114" width="1.1305609284332687" height="15.541232198788634" fill="#f85149" opacity="0.5"/>
<rect x="314.07619240400044" y="530.4053958950441" width="1.1305609284332687" height="8.59460410495592" fill="#3fb950" opacity="0.5"/>
<rect x="315.694409458264" y="530.8366482272445" width="1.1305609284332687" height="8.163351772755504" fill="#3fb950" opacity="0.5"/>
<rect x="317.3126265125275" y="533.072904945451" width="1.1305609284332687" height="5.9270950545489995" fill="#f85149" opacity="0.5"/>
<rect x="318.9308435667911" y="517.3913397811726" width="1.1305609284332687" height="21.608660218827367" fill="#3fb950" opacity="0.5"/>
<rect x="320.5490606210547" y="527.3599077853618" width="1.1305609284332687" height="11.64009221463823" fill="#3fb950" opacity="0.5"/>
<rect x="322.16727767531825" y="529.8545059059093" width="1.1305609284332687" height="9.145494094090736" fill="#f85149" opacity="0.5"/>
<rect x="323.7854947295818" y="530.5892350058774" width="1.1305609284332687" height="8.410764994122587" fill="#f85149" opacity="0.5"/>
<rect x="325.4037117838454" y="532.3283905764422" width="1.1305609284332687" height="6.671609423557811" fill="#f85149" opacity="0.5"/>
<rect x="327.021928838109" y="531.3088440773662" width="1.1305609284332687" height="7.691155922633811" fill="#f85149" opacity="0.5"/>
<rect x="328.64014589237246" y="532.7451759726965" width="1.1305609284332687" height="6.254824027303471" fill="#3fb950" opacity="0.5"/>
<rect x="330.25836294663605" y="533.5105699908951" width="1.1305609284332687" height="5.489430009104922" fill="#3fb950" opacity="0.5"/>
<rect x="331.87658000089965" y="533.0221550909879" width="1.1305609284332687" height="5.977844909012106" fill="#3fb950" opacity="0.5"/>
<rect x="333.4947970551632" y="532.3742709121152" width="1.1305609284332687" height="6.6257290878847925" fill="#f85149" opacity="0.5"/>
<rect x="335.11301410942673" y="534.0043102869072" width="1.1305609284332687" height="4.9956897130928155" fill="#3fb950" opacity="0.5"/>
<rect x="336.7312311636903" y="532.4869223516099" width="1.1305609284332687" height="6.5130776483900945" fill="#f85149" opacity="0.5"/>
<rect x="338.3494482179539" y="534.1659448368165" width="1.1305609284332687" height="4.834055163183507" fill="#3fb950" opacity="0.5"/>
<rect x="339.96766527221746" y="515.7459334199721" width="1.1305609284332687" height="23.25406658002794" fill="#3fb950" opacity="0.5"/>
<rect x="341.58588232648106" y="525.1469909323038" width="1.1305609284332687" height="13.853009067696235" fill="#f85149" opacity="0.5"/>
<rect x="343.2040993807446" y="528.7781503049779" width="1.1305609284332687" height="10.221849695022115" fill="#f85149" opacity="0.5"/>
<rect x="344.8223164350082" y="531.3746612915559" width="1.1305609284332687" height="7.625338708444133" fill="#f85149" opacity="0.5"/>
<rect x="346.44053348927173" y="529.966720779965" width="1.1305609284332687" height="9.033279220034956" fill="#f85149" opacity="0.5"/>
<rect x="348.0587505435353" y="533.5655795770336" width="1.1305609284332687" height="5.434420422966355" fill="#3fb950" opacity="0.5"/>
<rect x="349.67696759779886" y="531.3681221733058" width="1.1305609284332687" height="7.631877826694222" fill="#3fb950" opacity="0.5"/>
<rect x="351.29518465206246" y="533.0302894872361" width="1.1305609284332687" height="5.969710512763868" fill="#f85149" opacity="0.5"/>
<rect x="352.913401706326" y="535.0991180927379" width="1.1305609284332687" height="3.9008819072621463" fill="#3fb950" opacity="0.5"/>
<rect x="354.53161876058954" y="533.6787272732204" width="1.1305609284332687" height="5.321272726779625" fill="#f85149" opacity="0.5"/>
<rect x="356.14983581485313" y="534.6946220721102" width="1.1305609284332687" height="4.305377927889822" fill="#3fb950" opacity="0.5"/>
<rect x="357.7680528691167" y="532.8082614342469" width="1.1305609284332687" height="6.1917385657530986" fill="#3fb950" opacity="0.5"/>
<rect x="359.38626992338027" y="535.5148501139385" width="1.1305609284332687" height="3.4851498860615493" fill="#f85149" opacity="0.5"/>
<rect x="361.0044869776438" y="535.6382688021073" width="1.1305609284332687" height="3.361731197892709" fill="#3fb950" opacity="0.5"/>
<rect x="362.6227040319074" y="535.9483724693796" width="1.1305609284332687" height="3.051627530620408" fill="#f85149" opacity="0.5"/>
<rect x="364.24092108617094" y="534.3769124517416" width="1.1305609284332687" height="4.623087548258354" fill="#3fb950" opacity="0.5"/>
<rect x="365.85913814043454" y="535.1476318660451" width="1.1305609284332687" height="3.852368133954883" fill="#f85149" opacity="0.5"/>
<rect x="367.4773551946981" y="532.1666975056964" width="1.1305609284332687" height="6.8333024943035525" fill="#3fb950" opacity="0.5"/>
<rect x="369.0955722489617" y="530.8140468950502" width="1.1305609284332687" height="8.185953104949817" fill="#f85149" opacity="0.5"/>
<rect x="370.7137893032252" y="524.939710715275" width="1.1305609284332687" height="14.060289284724945" fill="#3fb950" opacity="0.5"/>
<rect x="372.3320063574888" y="529.7371745551342" width="1.1305609284332687" height="9.262825444865825" fill="#f85149" opacity="0.5"/>
<rect x="373.95022341175235" y="533.7117927161567" width="1.1305609284332687" height="5.288207283843349" fill="#3fb950" opacity="0.5"/>
<rect x="375.56844046601594" y="531.6527956111563" width="1.1305609284332687" height="7.347204388843693" fill="#3fb950" opacity="0.5"/>
<rect x="377.1866575202795" y="531.1281867444034" width="1.1305609284332687" height="7.871813255596635" fill="#3fb950" opacity="0.5"/>
<rect x="378.8048745745431" y="532.6112802992017" width="1.1305609284332687" height="6.388719700798333" fill="#3fb950" opacity="0.5"/>
<rect x="380.4230916288066" y="532.5938703503972" width="1.1305609284332687" height="6.4061296496028035" fill="#3fb950" opacity="0.5"/>
<rect x="382.04130868307016" y="533.8633921130543" width="1.1305609284332687" height="5.13660788694574" fill="#3fb950" opacity="0.5"/>
<rect x="383.65952573733375" y="533.9574936178531" width="1.1305609284332687" height="5.042506382146939" fill="#f85149" opacity="0.5"/>
<rect x="385.2777427915973" y="535.1615013042524" width="1.1305609284332687" height="3.838498695747603" fill="#f85149" opacity="0.5"/>
<rect x="386.8959598458609" y="534.2080932987576" width="1.1305609284332687" height="4.791906701242397" fill="#3fb950" opacity="0.5"/>
<rect x="388.5141769001244" y="533.6504933105306" width="1.1305609284332687" height="5.349506689469422" fill="#f85149" opacity="0.5"/>
<rect x="390.132393954388" y="532.1547592550877" width="1.1305609284332687" height="6.845240744912303" fill="#3fb950" opacity="0.5"/>
<rect x="391.75061100865156" y="533.1070688244848" width="1.1305609284332687" height="5.892931175515173" fill="#f85149" opacity="0.5"/>
<rect x="393.36882806291516" y="532.0733901286466" width="1.1305609284332687" height="6.926609871353435" fill="#3fb950" opacity="0.5"/>
<rect x="394.9870451171787" y="533.0170345178101" width="1.1305609284332687" height="5.982965482189911" fill="#3fb950" opacity="0.5"/>
<rect x="396.6052621714423" y="529.3387658719004" width="1.1305609284332687" height="9.661234128099636" fill="#3fb950" opacity="0.5"/>
<rect x="398.22347922570583" y="530.6158216070248" width="1.1305609284332687" height="8.384178392975173" fill="#3fb950" opacity="0.5"/>
<rect x="399.8416962799694" y="531.7943586846254" width="1.1305609284332687" height="7.205641315374578" fill="#f85149" opacity="0.5"/>
<rect x="401.45991333423297" y="533.0613055304844" width="1.1305609284332687" height="5.9386944695155535" fill="#f85149" opacity="0.5"/>
<rect x="403.07813038849656" y="533.7472867737999" width="1.1305609284332687" height="5.252713226200058" fill="#3fb950" opacity="0.5"/>
<rect x="404.6963474427601" y="527.4356097540139" width="1.1305609284332687" height="11.564390245986147" fill="#3fb950" opacity="0.5"/>
<rect x="406.31456449702364" y="525.639780849934" width="1.1305609284332687" height="13.360219150065973" fill="#3fb950" opacity="0.5"/>
<rect x="407.93278155128723" y="529.4636335359764" width="1.1305609284332687" height="9.536366464023558" fill="#f85149" opacity="0.5"/>
<rect x="409.5509986055508" y="527.2023164400335" width="1.1305609284332687" height="11.797683559966458" fill="#f85149" opacity="0.5"/>
<rect x="411.16921565981437" y="531.2960245029624" width="1.1305609284332687" height="7.703975497037618" fill="#f85149" opacity="0.5"/>
<rect x="412.7874327140779" y="531.7332336710916" width="1.1305609284332687" height="7.266766328908375" fill="#3fb950" opacity="0.5"/>
<rect x="414.4056497683415" y="528.1175665194158" width="1.1305609284332687" height="10.882433480584154" fill="#3fb950" opacity="0.5"/>
<rect x="416.02386682260504" y="529.6832119067573" width="1.1305609284332687" height="9.316788093242735" fill="#3fb950" opacity="0.5"/>
<rect x="417.64208387686864" y="529.0998545576335" width="1.1305609284332687" height="9.900145442366465" fill="#3fb950" opacity="0.5"/>
<rect x="419.2603009311322" y="518.007932283658" width="1.1305609284332687" height="20.992067716342035" fill="#3fb950" opacity="0.5"/>
<rect x="420.8785179853958" y="521.0434080634546" width="1.1305609284332687" height="17.95659193654535" fill="#3fb950" opacity="0.5"/>
<rect x="422.4967350396593" y="526.9027880730922" width="1.1305609284332687" height="12.09721192690779" fill="#f85149" opacity="0.5"/>
<rect x="424.1149520939229" y="516.2959725161468" width="1.1305609284332687" height="22.704027483853224" fill="#3fb950" opacity="0.5"/>
<rect x="425.73316914818645" y="489.08684426817695" width="1.1305609284332687" height="49.91315573182305" fill="#3fb950" opacity="0.5"/>
<rect x="427.35138620245004" y="483.23899578933583" width="1.1305609284332687" height="55.76100421066417" fill="#3fb950" opacity="0.5"/>
<rect x="428.9696032567136" y="478.54101620079996" width="1.1305609284332687" height="60.45898379920004" fill="#f85149" opacity="0.5"/>
<rect x="430.5878203109772" y="477.90041025834006" width="1.1305609284332687" height="61.09958974165994" fill="#3fb950" opacity="0.5"/>
<rect x="432.2060373652407" y="491.7638044336492" width="1.1305609284332687" height="47.23619556635077" fill="#f85149" opacity="0.5"/>
<rect x="433.82425441950426" y="503.62850429974156" width="1.1305609284332687" height="35.371495700258436" fill="#f85149" opacity="0.5"/>
<rect x="435.44247147376785" y="515.3666791916733" width="1.1305609284332687" height="23.633320808326744" fill="#f85149" opacity="0.5"/>
<rect x="437.0606885280314" y="519.6352399058105" width="1.1305609284332687" height="19.364760094189478" fill="#f85149" opacity="0.5"/>
<rect x="438.678905582295" y="524.4907605117554" width="1.1305609284332687" height="14.509239488244589" fill="#f85149" opacity="0.5"/>
<rect x="440.2971226365585" y="522.9599373628564" width="1.1305609284332687" height="16.040062637143592" fill="#f85149" opacity="0.5"/>
<rect x="441.9153396908221" y="514.6581410919991" width="1.1305609284332687" height="24.34185890800086" fill="#f85149" opacity="0.5"/>
<rect x="443.53355674508566" y="518.4192167212984" width="1.1305609284332687" height="20.580783278701574" fill="#3fb950" opacity="0.5"/>
<rect x="445.15177379934926" y="518.0174126591414" width="1.1305609284332687" height="20.982587340858572" fill="#3fb950" opacity="0.5"/>
<rect x="446.7699908536128" y="520.2156238112411" width="1.1305609284332687" height="18.78437618875887" fill="#3fb950" opacity="0.5"/>
<rect x="448.3882079078764" y="526.1039388631875" width="1.1305609284332687" height="12.896061136812477" fill="#3fb950" opacity="0.5"/>
<rect x="450.00642496213993" y="527.7626821229849" width="1.1305609284332687" height="11.23731787701513" fill="#3fb950" opacity="0.5"/>
<rect x="451.6246420164035" y="530.4300325819254" width="1.1305609284332687" height="8.569967418074611" fill="#3fb950" opacity="0.5"/>
<rect x="453.24285907066707" y="530.3924030989648" width="1.1305609284332687" height="8.607596901035208" fill="#f85149" opacity="0.5"/>
<rect x="454.86107612493066" y="533.0397113418833" width="1.1305609284332687" height="5.960288658116724" fill="#f85149" opacity="0.5"/>
<rect x="456.47929317919426" y="530.5441921033721" width="1.1305609284332687" height="8.455807896627903" fill="#3fb950" opacity="0.5"/>
<rect x="458.09751023345774" y="530.4510708225816" width="1.1305609284332687" height="8.548929177418358" fill="#3fb950" opacity="0.5"/>
<rect x="459.71572728772134" y="532.9907879227217" width="1.1305609284332687" height="6.009212077278335" fill="#f85149" opacity="0.5"/>
<rect x="461.3339443419849" y="529.1332699551708" width="1.1305609284332687" height="9.866730044829183" fill="#3fb950" opacity="0.5"/>
<rect x="462.95216139624847" y="531.2252142910181" width="1.1305609284332687" height="7.774785708981881" fill="#f85149" opacity="0.5"/>
<rect x="464.570378450512" y="532.7062596165453" width="1.1305609284332687" height="6.293740383454747" fill="#3fb950" opacity="0.5"/>
<rect x="466.1885955047756" y="529.991470997269" width="1.1305609284332687" height="9.008529002731052" fill="#f85149" opacity="0.5"/>
<rect x="467.80681255903914" y="533.3433174406993" width="1.1305609284332687" height="5.656682559300748" fill="#3fb950" opacity="0.5"/>
<rect x="469.42502961330274" y="527.3858231525167" width="1.1305609284332687" height="11.61417684748335" fill="#3fb950" opacity="0.5"/>
<rect x="471.0432466675663" y="526.1954297534782" width="1.1305609284332687" height="12.804570246521848" fill="#3fb950" opacity="0.5"/>
<rect x="472.6614637218299" y="522.5846561141353" width="1.1305609284332687" height="16.415343885864672" fill="#3fb950" opacity="0.5"/>
<rect x="474.2796807760934" y="508.5147992578807" width="1.1305609284332687" height="30.485200742119275" fill="#3fb950" opacity="0.5"/>
<rect x="475.897897830357" y="517.6552272031714" width="1.1305609284332687" height="21.34477279682858" fill="#f85149" opacity="0.5"/>
<rect x="477.5161148846206" y="521.6269035217522" width="1.1305609284332687" height="17.373096478247817" fill="#3fb950" opacity="0.5"/>
<rect x="479.13433193888415" y="527.5607565624791" width="1.1305609284332687" height="11.439243437520872" fill="#f85149" opacity="0.5"/>
<rect x="480.75254899314774" y="530.5459044230428" width="1.1305609284332687" height="8.45409557695723" fill="#f85149" opacity="0.5"/>
<rect x="482.3707660474113" y="531.650017041848" width="1.1305609284332687" height="7.349982958152054" fill="#f85149" opacity="0.5"/>
<rect x="483.9889831016748" y="514.3802824055379" width="1.1305609284332687" height="24.619717594462145" fill="#3fb950" opacity="0.5"/>
<rect x="485.60720015593836" y="525.2383571732131" width="1.1305609284332687" height="13.761642826786897" fill="#f85149" opacity="0.5"/>
<rect x="487.22541721020195" y="524.9989852999645" width="1.1305609284332687" height="14.001014700035512" fill="#3fb950" opacity="0.5"/>
<rect x="488.8436342644655" y="528.2380164455583" width="1.1305609284332687" height="10.761983554441713" fill="#f85149" opacity="0.5"/>
<rect x="490.4618513187291" y="531.3460012971777" width="1.1305609284332687" height="7.653998702822264" fill="#f85149" opacity="0.5"/>
<rect x="492.0800683729926" y="531.5595701632772" width="1.1305609284332687" height="7.440429836722842" fill="#f85149" opacity="0.5"/>
<rect x="493.6982854272562" y="532.0838103487613" width="1.1305609284332687" height="6.91618965123871" fill="#3fb950" opacity="0.5"/>
<rect x="495.31650248151976" y="526.084861070548" width="1.1305609284332687" height="12.915138929452041" fill="#3fb950" opacity="0.5"/>
<rect x="496.93471953578336" y="526.5295492015586" width="1.1305609284332687" height="12.470450798441448" fill="#3fb950" opacity="0.5"/>
<rect x="498.55293659004695" y="506.64192299112176" width="1.1305609284332687" height="32.35807700887824" fill="#3fb950" opacity="0.5"/>
<rect x="500.1711536443105" y="521.508999837198" width="1.1305609284332687" height="17.491000162802038" fill="#f85149" opacity="0.5"/>
<rect x="501.7893706985741" y="530.003106695154" width="1.1305609284332687" height="8.996893304846026" fill="#f85149" opacity="0.5"/>
<rect x="503.4075877528376" y="528.9638135102794" width="1.1305609284332687" height="10.036186489720649" fill="#f85149" opacity="0.5"/>
<rect x="505.0258048071012" y="530.3761442550107" width="1.1305609284332687" height="8.623855744989328" fill="#3fb950" opacity="0.5"/>
<rect x="506.64402186136476" y="530.5060757270533" width="1.1305609284332687" height="8.493924272946742" fill="#f85149" opacity="0.5"/>
<rect x="508.26223891562836" y="532.6870033353549" width="1.1305609284332687" height="6.312996664645084" fill="#3fb950" opacity="0.5"/>
<rect x="509.8804559698919" y="514.0821854582528" width="1.1305609284332687" height="24.917814541747248" fill="#3fb950" opacity="0.5"/>
<rect x="511.4986730241555" y="526.8145901502611" width="1.1305609284332687" height="12.185409849738903" fill="#f85149" opacity="0.5"/>
<rect x="513.1168900784191" y="530.4141740204917" width="1.1305609284332687" height="8.585825979508286" fill="#f85149" opacity="0.5"/>
<rect x="514.7351071326827" y="516.2774108772835" width="1.1305609284332687" height="22.7225891227165" fill="#3fb950" opacity="0.5"/>
<rect x="516.3533241869462" y="519.4926041454117" width="1.1305609284332687" height="19.507395854588253" fill="#3fb950" opacity="0.5"/>
<rect x="517.9715412412098" y="525.9807308500294" width="1.1305609284332687" height="13.019269149970569" fill="#f85149" opacity="0.5"/>
<rect x="519.5897582954733" y="519.9174964331212" width="1.1305609284332687" height="19.082503566878813" fill="#3fb950" opacity="0.5"/>
<rect x="521.2079753497369" y="520.649923908597" width="1.1305609284332687" height="18.350076091403025" fill="#f85149" opacity="0.5"/>
<rect x="522.8261924040005" y="526.0934413955688" width="1.1305609284332687" height="12.906558604431211" fill="#3fb950" opacity="0.5"/>
<rect x="524.444409458264" y="528.1790567029683" width="1.1305609284332687" height="10.820943297031704" fill="#3fb950" opacity="0.5"/>
<rect x="526.0626265125276" y="527.3921568626313" width="1.1305609284332687" height="11.607843137368718" fill="#f85149" opacity="0.5"/>
<rect x="527.680843566791" y="527.7614830310488" width="1.1305609284332687" height="11.238516968951217" fill="#f85149" opacity="0.5"/>
<rect x="529.2990606210547" y="523.6072644233674" width="1.1305609284332687" height="15.392735576632617" fill="#3fb950" opacity="0.5"/>
<rect x="530.9172776753182" y="524.9235718390353" width="1.1305609284332687" height="14.076428160964724" fill="#3fb950" opacity="0.5"/>
<rect x="532.5354947295818" y="519.3290676683221" width="1.1305609284332687" height="19.670932331677932" fill="#3fb950" opacity="0.5"/>
<rect x="534.1537117838454" y="517.3048015092595" width="1.1305609284332687" height="21.695198490740495" fill="#3fb950" opacity="0.5"/>
<rect x="535.771928838109" y="512.2891128855634" width="1.1305609284332687" height="26.71088711443656" fill="#f85149" opacity="0.5"/>
<rect x="537.3901458923725" y="524.2048499434252" width="1.1305609284332687" height="14.795150056574812" fill="#3fb950" opacity="0.5"/>
<rect x="539.0083629466361" y="522.3954149449014" width="1.1305609284332687" height="16.604585055098596" fill="#f85149" opacity="0.5"/>
<rect x="540.6265800008997" y="508.7299739357287" width="1.1305609284332687" height="30.270026064271292" fill="#3fb950" opacity="0.5"/>
<rect x="542.2447970551632" y="518.6424116797638" width="1.1305609284332687" height="20.357588320236232" fill="#f85149" opacity="0.5"/>
<rect x="543.8630141094268" y="520.5295857572519" width="1.1305609284332687" height="18.47041424274812" fill="#f85149" opacity="0.5"/>
<rect x="545.4812311636904" y="519.5989177783333" width="1.1305609284332687" height="19.401082221666684" fill="#3fb950" opacity="0.5"/>
<rect x="547.099448217954" y="521.7093898109587" width="1.1305609284332687" height="17.29061018904133" fill="#f85149" opacity="0.5"/>
<rect x="548.7176652722176" y="526.4105295246557" width="1.1305609284332687" height="12.589470475344342" fill="#f85149" opacity="0.5"/>
<rect x="550.3358823264812" y="515.472198696846" width="1.1305609284332687" height="23.52780130315398" fill="#3fb950" opacity="0.5"/>
<rect x="551.9540993807447" y="526.8287650672339" width="1.1305609284332687" height="12.171234932766083" fill="#f85149" opacity="0.5"/>
<rect x="553.5723164350082" y="529.3873001275003" width="1.1305609284332687" height="9.612699872499661" fill="#3fb950" opacity="0.5"/>
<rect x="555.1905334892717" y="528.034190128289" width="1.1305609284332687" height="10.96580987171103" fill="#f85149" opacity="0.5"/>
<rect x="556.8087505435353" y="527.7205184456263" width="1.1305609284332687" height="11.27948155437366" fill="#3fb950" opacity="0.5"/>
<rect x="558.4269675977989" y="506.55016934227604" width="1.1305609284332687" height="32.449830657723965" fill="#3fb950" opacity="0.5"/>
<rect x="560.0451846520625" y="516.4161292528993" width="1.1305609284332687" height="22.58387074710072" fill="#f85149" opacity="0.5"/>
<rect x="561.6634017063261" y="525.1098676545773" width="1.1305609284332687" height="13.890132345422671" fill="#3fb950" opacity="0.5"/>
<rect x="563.2816187605897" y="522.9930882462137" width="1.1305609284332687" height="16.006911753786312" fill="#3fb950" opacity="0.5"/>
<rect x="564.8998358148532" y="527.2607787555149" width="1.1305609284332687" height="11.739221244485066" fill="#3fb950" opacity="0.5"/>
<rect x="566.5180528691168" y="524.2646289777236" width="1.1305609284332687" height="14.735371022276354" fill="#3fb950" opacity="0.5"/>
<rect x="568.1362699233803" y="523.8204271548628" width="1.1305609284332687" height="15.179572845137159" fill="#f85149" opacity="0.5"/>
<rect x="569.7544869776439" y="528.3200936741189" width="1.1305609284332687" height="10.67990632588112" fill="#f85149" opacity="0.5"/>
<rect x="571.3727040319075" y="527.5951082933976" width="1.1305609284332687" height="11.40489170660237" fill="#f85149" opacity="0.5"/>
<rect x="572.990921086171" y="521.1216088718176" width="1.1305609284332687" height="17.878391128182443" fill="#f85149" opacity="0.5"/>
<rect x="574.6091381404347" y="529.5441722517502" width="1.1305609284332687" height="9.455827748249817" fill="#3fb950" opacity="0.5"/>
<rect x="576.227355194698" y="529.7350982358616" width="1.1305609284332687" height="9.264901764138358" fill="#3fb950" opacity="0.5"/>
<rect x="577.8455722489616" y="523.4921118033285" width="1.1305609284332687" height="15.507888196671502" fill="#f85149" opacity="0.5"/>
<rect x="579.4637893032252" y="530.870578022933" width="1.1305609284332687" height="8.129421977066954" fill="#3fb950" opacity="0.5"/>
<rect x="581.0820063574888" y="528.5822945256151" width="1.1305609284332687" height="10.417705474384888" fill="#3fb950" opacity="0.5"/>
<rect x="582.7002234117524" y="530.663297220696" width="1.1305609284332687" height="8.336702779304005" fill="#f85149" opacity="0.5"/>
<rect x="584.318440466016" y="532.215383915471" width="1.1305609284332687" height="6.784616084529034" fill="#3fb950" opacity="0.5"/>
<rect x="585.9366575202796" y="529.0883552132971" width="1.1305609284332687" height="9.911644786702936" fill="#f85149" opacity="0.5"/>
<rect x="587.5548745745431" y="530.5447960384029" width="1.1305609284332687" height="8.455203961597135" fill="#3fb950" opacity="0.5"/>
<rect x="589.1730916288067" y="529.0690895687729" width="1.1305609284332687" height="9.930910431227062" fill="#3fb950" opacity="0.5"/>
<rect x="590.7913086830702" y="531.2675248556757" width="1.1305609284332687" height="7.732475144324326" fill="#f85149" opacity="0.5"/>
<rect x="592.4095257373338" y="532.3338025833848" width="1.1305609284332687" height="6.666197416615205" fill="#3fb950" opacity="0.5"/>
<rect x="594.0277427915973" y="529.7658801957647" width="1.1305609284332687" height="9.23411980423532" fill="#f85149" opacity="0.5"/>
<rect x="595.645959845861" y="531.8167429045169" width="1.1305609284332687" height="7.1832570954831" fill="#f85149" opacity="0.5"/>
<rect x="597.2641769001245" y="507.2558252907616" width="1.1305609284332687" height="31.744174709238393" fill="#3fb950" opacity="0.5"/>
<rect x="598.882393954388" y="519.8424522386692" width="1.1305609284332687" height="19.15754776133076" fill="#f85149" opacity="0.5"/>
<rect x="600.5006110086516" y="523.4530327592522" width="1.1305609284332687" height="15.54696724074779" fill="#f85149" opacity="0.5"/>
<rect x="602.1188280629152" y="524.7435910069404" width="1.1305609284332687" height="14.256408993059608" fill="#3fb950" opacity="0.5"/>
<rect x="603.7370451171788" y="530.2467459077868" width="1.1305609284332687" height="8.753254092213183" fill="#f85149" opacity="0.5"/>
<rect x="605.3552621714423" y="532.4680798127324" width="1.1305609284332687" height="6.531920187267588" fill="#3fb950" opacity="0.5"/>
<rect x="606.9734792257059" y="522.5399069862283" width="1.1305609284332687" height="16.46009301377171" fill="#f85149" opacity="0.5"/>
<rect x="608.5916962799695" y="530.6196880786804" width="1.1305609284332687" height="8.380311921319617" fill="#f85149" opacity="0.5"/>
<rect x="610.2099133342331" y="531.5428531011746" width="1.1305609284332687" height="7.4571468988253855" fill="#f85149" opacity="0.5"/>
<rect x="611.8281303884966" y="533.365760181427" width="1.1305609284332687" height="5.634239818572951" fill="#3fb950" opacity="0.5"/>
<rect x="613.4463474427602" y="533.8262776134532" width="1.1305609284332687" height="5.173722386546842" fill="#3fb950" opacity="0.5"/>
<rect x="615.0645644970238" y="534.5455109811728" width="1.1305609284332687" height="4.454489018827189" fill="#f85149" opacity="0.5"/>
<rect x="616.6827815512873" y="534.8300381169325" width="1.1305609284332687" height="4.169961883067458" fill="#f85149" opacity="0.5"/>
<rect x="618.3009986055508" y="532.2526207236199" width="1.1305609284332687" height="6.747379276380116" fill="#3fb950" opacity="0.5"/>
<rect x="619.9192156598144" y="534.4235535582868" width="1.1305609284332687" height="4.576446441713188" fill="#f85149" opacity="0.5"/>
<rect x="621.537432714078" y="535.2039289105827" width="1.1305609284332687" height="3.796071089417296" fill="#f85149" opacity="0.5"/>
<rect x="623.1556497683416" y="533.1607909522245" width="1.1305609284332687" height="5.839209047775512" fill="#3fb950" opacity="0.5"/>
<rect x="624.7738668226052" y="534.7623739851485" width="1.1305609284332687" height="4.2376260148514575" fill="#f85149" opacity="0.5"/>
<rect x="626.3920838768687" y="530.8560648555263" width="1.1305609284332687" height="8.143935144473744" fill="#f85149" opacity="0.5"/>
<rect x="628.0103009311322" y="534.5775803994749" width="1.1305609284332687" height="4.4224196005251315" fill="#f85149" opacity="0.5"/>
<rect x="629.6285179853958" y="534.8754807167498" width="1.1305609284332687" height="4.124519283250152" fill="#3fb950" opacity="0.5"/>
<rect x="631.2467350396594" y="532.3948702464991" width="1.1305609284332687" height="6.605129753500933" fill="#f85149" opacity="0.5"/>
<rect x="632.864952093923" y="534.3995307549784" width="1.1305609284332687" height="4.6004692450216" fill="#3fb950" opacity="0.5"/>
<rect x="634.4831691481864" y="534.8272074640798" width="1.1305609284332687" height="4.172792535920166" fill="#f85149" opacity="0.5"/>
<rect x="636.10138620245" y="535.0523014236837" width="1.1305609284332687" height="3.94769857631627" fill="#f85149" opacity="0.5"/>
<rect x="637.7196032567136" y="534.0317419289311" width="1.1305609284332687" height="4.968258071068931" fill="#3fb950" opacity="0.5"/>
<rect x="639.3378203109772" y="535.3720657106153" width="1.1305609284332687" height="3.6279342893847115" fill="#3fb950" opacity="0.5"/>
<rect x="640.9560373652407" y="530.4011531344111" width="1.1305609284332687" height="8.59884686558894" fill="#3fb950" opacity="0.5"/>
<rect x="642.5742544195043" y="531.0135245289728" width="1.1305609284332687" height="7.986475471027234" fill="#3fb950" opacity="0.5"/>
<rect x="644.1924714737679" y="534.0014714411374" width="1.1305609284332687" height="4.998528558862631" fill="#f85149" opacity="0.5"/>
<rect x="645.8106885280315" y="531.8253454674556" width="1.1305609284332687" height="7.174654532544423" fill="#3fb950" opacity="0.5"/>
<rect x="647.428905582295" y="531.2467780487843" width="1.1305609284332687" height="7.753221951215664" fill="#3fb950" opacity="0.5"/>
<rect x="649.0471226365586" y="533.386564338738" width="1.1305609284332687" height="5.613435661261974" fill="#f85149" opacity="0.5"/>
<rect x="650.6653396908222" y="530.0479084918137" width="1.1305609284332687" height="8.9520915081863" fill="#f85149" opacity="0.5"/>
<rect x="652.2835567450858" y="532.0588465304048" width="1.1305609284332687" height="6.941153469595179" fill="#3fb950" opacity="0.5"/>
<rect x="653.9017737993493" y="533.0320433567006" width="1.1305609284332687" height="5.967956643299431" fill="#f85149" opacity="0.5"/>
<rect x="655.5199908536129" y="534.1605609198753" width="1.1305609284332687" height="4.839439080124748" fill="#f85149" opacity="0.5"/>
<rect x="657.1382079078764" y="534.4701115652445" width="1.1305609284332687" height="4.529888434755549" fill="#f85149" opacity="0.5"/>
<rect x="658.75642496214" y="533.5436278261226" width="1.1305609284332687" height="5.456372173877412" fill="#3fb950" opacity="0.5"/>
<rect x="660.3746420164035" y="533.7197767138555" width="1.1305609284332687" height="5.280223286144519" fill="#3fb950" opacity="0.5"/>
<rect x="661.9928590706671" y="531.8240550830147" width="1.1305609284332687" height="7.175944916985259" fill="#3fb950" opacity="0.5"/>
<rect x="663.6110761249307" y="533.3973819153313" width="1.1305609284332687" height="5.602618084668734" fill="#f85149" opacity="0.5"/>
<rect x="665.2292931791943" y="529.7200806188458" width="1.1305609284332687" height="9.279919381154173" fill="#f85149" opacity="0.5"/>
<rect x="666.8475102334579" y="535.170807872852" width="1.1305609284332687" height="3.8291921271479623" fill="#3fb950" opacity="0.5"/>
<rect x="668.4657272877214" y="533.2884406968591" width="1.1305609284332687" height="5.711559303140916" fill="#3fb950" opacity="0.5"/>
<rect x="670.083944341985" y="522.9341267479986" width="1.1305609284332687" height="16.06587325200144" fill="#3fb950" opacity="0.5"/>
<rect x="671.7021613962486" y="515.8422142407153" width="1.1305609284332687" height="23.157785759284707" fill="#3fb950" opacity="0.5"/>
<rect x="673.3203784505122" y="525.4299052338146" width="1.1305609284332687" height="13.570094766185434" fill="#f85149" opacity="0.5"/>
<rect x="674.9385955047757" y="529.4519469249637" width="1.1305609284332687" height="9.54805307503625" fill="#3fb950" opacity="0.5"/>
<rect x="676.5568125590393" y="527.100545194427" width="1.1305609284332687" height="11.899454805572987" fill="#3fb950" opacity="0.5"/>
<rect x="678.1750296133029" y="530.4919212923731" width="1.1305609284332687" height="8.50807870762685" fill="#3fb950" opacity="0.5"/>
<rect x="679.7932466675663" y="532.0610352096832" width="1.1305609284332687" height="6.938964790316845" fill="#f85149" opacity="0.5"/>
<rect x="681.4114637218299" y="532.6639461258458" width="1.1305609284332687" height="6.336053874154231" fill="#3fb950" opacity="0.5"/>
<rect x="683.0296807760934" y="530.3573233688426" width="1.1305609284332687" height="8.642676631157428" fill="#3fb950" opacity="0.5"/>
<rect x="684.647897830357" y="532.5162237343542" width="1.1305609284332687" height="6.483776265645815" fill="#f85149" opacity="0.5"/>
<rect x="686.2661148846206" y="532.4785468495162" width="1.1305609284332687" height="6.521453150483808" fill="#f85149" opacity="0.5"/>
<rect x="687.8843319388842" y="532.6462195793167" width="1.1305609284332687" height="6.353780420683279" fill="#f85149" opacity="0.5"/>
<rect x="689.5025489931477" y="534.888084934476" width="1.1305609284332687" height="4.111915065524045" fill="#f85149" opacity="0.5"/>
<rect x="691.1207660474113" y="530.2068481572106" width="1.1305609284332687" height="8.79315184278937" fill="#f85149" opacity="0.5"/>
<rect x="692.7389831016749" y="533.5046096437161" width="1.1305609284332687" height="5.495390356283906" fill="#3fb950" opacity="0.5"/>
<rect x="694.3572001559385" y="534.1827379760063" width="1.1305609284332687" height="4.817262023993749" fill="#3fb950" opacity="0.5"/>
<rect x="695.975417210202" y="534.1005033263959" width="1.1305609284332687" height="4.899496673604062" fill="#f85149" opacity="0.5"/>
<rect x="697.5936342644655" y="535.2825212233406" width="1.1305609284332687" height="3.717478776659391" fill="#3fb950" opacity="0.5"/>
<rect x="699.2118513187291" y="535.6639424782081" width="1.1305609284332687" height="3.336057521791872" fill="#3fb950" opacity="0.5"/>
<rect x="700.8300683729927" y="532.6766744077448" width="1.1305609284332687" height="6.323325592255173" fill="#3fb950" opacity="0.5"/>
<rect x="702.4482854272562" y="532.3870869752687" width="1.1305609284332687" height="6.612913024731256" fill="#3fb950" opacity="0.5"/>
<rect x="704.0665024815198" y="533.8701436619402" width="1.1305609284332687" height="5.129856338059767" fill="#f85149" opacity="0.5"/>
<rect x="705.6847195357834" y="531.4987951043446" width="1.1305609284332687" height="7.501204895655405" fill="#3fb950" opacity="0.5"/>
<rect x="707.302936590047" y="530.6848668305458" width="1.1305609284332687" height="8.315133169454157" fill="#3fb950" opacity="0.5"/>
<rect x="708.9211536443106" y="524.6783379336127" width="1.1305609284332687" height="14.321662066387262" fill="#3fb950" opacity="0.5"/>
<rect x="710.5393706985741" y="529.8336127969271" width="1.1305609284332687" height="9.166387203072873" fill="#f85149" opacity="0.5"/>
<rect x="712.1575877528377" y="531.3427879180555" width="1.1305609284332687" height="7.657212081944522" fill="#3fb950" opacity="0.5"/>
<rect x="713.7758048071013" y="498.59164459309085" width="1.1305609284332687" height="40.40835540690915" fill="#3fb950" opacity="0.5"/>
<rect x="715.3940218613649" y="438.1666666666667" width="1.1305609284332687" height="100.83333333333331" fill="#3fb950" opacity="0.5"/>
<rect x="717.0122389156284" y="455.54433654827267" width="1.1305609284332687" height="83.45566345172733" fill="#f85149" opacity="0.5"/>
<rect x="718.630455969892" y="448.21178811767635" width="1.1305609284332687" height="90.78821188232365" fill="#3fb950" opacity="0.5"/>
<rect x="720.2486730241556" y="468.59422262938796" width="1.1305609284332687" height="70.40577737061204" fill="#f85149" opacity="0.5"/>
<rect x="721.8668900784191" y="465.7598583852637" width="1.1305609284332687" height="73.24014161473627" fill="#3fb950" opacity="0.5"/>
<rect x="723.4851071326826" y="485.67027787623783" width="1.1305609284332687" height="53.32972212376217" fill="#f85149" opacity="0.5"/>
<rect x="725.1033241869462" y="485.816716905789" width="1.1305609284332687" height="53.18328309421099" fill="#3fb950" opacity="0.5"/>
<rect x="726.7215412412098" y="469.2088301051054" width="1.1305609284332687" height="69.79116989489461" fill="#f85149" opacity="0.5"/>
<rect x="728.3397582954734" y="477.44461077613784" width="1.1305609284332687" height="61.555389223862164" fill="#3fb950" opacity="0.5"/>
<rect x="729.9579753497369" y="476.2813189616064" width="1.1305609284332687" height="62.71868103839358" fill="#3fb950" opacity="0.5"/>
<rect x="731.5761924040005" y="464.94276354901194" width="1.1305609284332687" height="74.05723645098806" fill="#3fb950" opacity="0.5"/>
<rect x="733.194409458264" y="494.9799919707865" width="1.1305609284332687" height="44.0200080292135" fill="#f85149" opacity="0.5"/>
<rect x="734.8126265125276" y="498.8560592878249" width="1.1305609284332687" height="40.143940712175095" fill="#f85149" opacity="0.5"/>
<rect x="736.4308435667912" y="506.15169745653895" width="1.1305609284332687" height="32.848302543461045" fill="#3fb950" opacity="0.5"/>
<rect x="738.0490606210547" y="505.4366196534063" width="1.1305609284332687" height="33.5633803465937" fill="#3fb950" opacity="0.5"/>
<rect x="739.6672776753182" y="491.0415531464007" width="1.1305609284332687" height="47.9584468535993" fill="#3fb950" opacity="0.5"/>
<rect x="741.2854947295818" y="479.6713391317751" width="1.1305609284332687" height="59.328660868224915" fill="#3fb950" opacity="0.5"/>
<rect x="742.9037117838454" y="468.03725700702665" width="1.1305609284332687" height="70.96274299297335" fill="#3fb950" opacity="0.5"/>
<rect x="744.5219288381089" y="478.5962733300762" width="1.1305609284332687" height="60.4037266699238" fill="#f85149" opacity="0.5"/>
<rect x="746.1401458923725" y="480.60837710372687" width="1.1305609284332687" height="58.391622896273134" fill="#3fb950" opacity="0.5"/>
<rect x="747.7583629466361" y="493.9543007838971" width="1.1305609284332687" height="45.04569921610289" fill="#f85149" opacity="0.5"/>
<rect x="749.3765800008997" y="502.35680322114007" width="1.1305609284332687" height="36.64319677885993" fill="#f85149" opacity="0.5"/>
<rect x="750.9947970551633" y="512.7389063743344" width="1.1305609284332687" height="26.26109362566558" fill="#f85149" opacity="0.5"/>
<rect x="752.6130141094268" y="501.0226797220636" width="1.1305609284332687" height="37.97732027793643" fill="#3fb950" opacity="0.5"/>
<rect x="754.2312311636904" y="499.45337268599377" width="1.1305609284332687" height="39.54662731400623" fill="#3fb950" opacity="0.5"/>
<rect x="755.849448217954" y="508.68322339521967" width="1.1305609284332687" height="30.31677660478033" fill="#f85149" opacity="0.5"/>
<rect x="757.4676652722176" y="516.3445910417511" width="1.1305609284332687" height="22.655408958248927" fill="#f85149" opacity="0.5"/>
<rect x="759.085882326481" y="519.568476994906" width="1.1305609284332687" height="19.43152300509405" fill="#3fb950" opacity="0.5"/>
<rect x="760.7040993807447" y="507.1497750016035" width="1.1305609284332687" height="31.850224998396527" fill="#3fb950" opacity="0.5"/>
<rect x="762.3223164350082" y="514.8637160118576" width="1.1305609284332687" height="24.136283988142395" fill="#f85149" opacity="0.5"/>
<rect x="763.9405334892718" y="522.1664217419737" width="1.1305609284332687" height="16.83357825802625" fill="#f85149" opacity="0.5"/>
<rect x="765.5587505435353" y="517.9471665880592" width="1.1305609284332687" height="21.05283341194081" fill="#3fb950" opacity="0.5"/>
<rect x="767.1769675977989" y="519.7651222203507" width="1.1305609284332687" height="19.23487777964931" fill="#f85149" opacity="0.5"/>
<rect x="768.7951846520625" y="522.4580819824722" width="1.1305609284332687" height="16.54191801752779" fill="#3fb950" opacity="0.5"/>
<rect x="770.4134017063261" y="479.26255470426213" width="1.1305609284332687" height="59.73744529573787" fill="#3fb950" opacity="0.5"/>
<rect x="772.0316187605896" y="469.78874584384533" width="1.1305609284332687" height="69.21125415615467" fill="#3fb950" opacity="0.5"/>
<rect x="773.6498358148532" y="481.29804633014714" width="1.1305609284332687" height="57.701953669852855" fill="#3fb950" opacity="0.5"/>
<rect x="775.2680528691168" y="497.3554159194233" width="1.1305609284332687" height="41.64458408057669" fill="#f85149" opacity="0.5"/>
<rect x="776.8862699233804" y="475.71695220907606" width="1.1305609284332687" height="63.283047790923945" fill="#3fb950" opacity="0.5"/>
<rect x="778.5044869776439" y="478.5479848619887" width="1.1305609284332687" height="60.45201513801129" fill="#3fb950" opacity="0.5"/>
<rect x="780.1227040319075" y="491.93098149196624" width="1.1305609284332687" height="47.069018508033764" fill="#f85149" opacity="0.5"/>
<rect x="781.740921086171" y="504.3170352958955" width="1.1305609284332687" height="34.682964704104506" fill="#f85149" opacity="0.5"/>
<rect x="783.3591381404347" y="494.85857528042806" width="1.1305609284332687" height="44.141424719571944" fill="#3fb950" opacity="0.5"/>
<rect x="784.9773551946981" y="508.54599086363805" width="1.1305609284332687" height="30.454009136361947" fill="#f85149" opacity="0.5"/>
<rect x="786.5955722489616" y="485.2642614842827" width="1.1305609284332687" height="53.73573851571729" fill="#3fb950" opacity="0.5"/>
<rect x="788.2137893032252" y="499.75600441288503" width="1.1305609284332687" height="39.243995587114966" fill="#f85149" opacity="0.5"/>
<rect x="789.8320063574888" y="466.1831278901821" width="1.1305609284332687" height="72.8168721098179" fill="#3fb950" opacity="0.5"/>
<rect x="791.4502234117524" y="480.5159896742238" width="1.1305609284332687" height="58.48401032577618" fill="#f85149" opacity="0.5"/>
<rect x="793.068440466016" y="503.2694227889299" width="1.1305609284332687" height="35.73057721107011" fill="#f85149" opacity="0.5"/>
<rect x="794.6866575202795" y="498.8506285542146" width="1.1305609284332687" height="40.14937144578539" fill="#f85149" opacity="0.5"/>
<rect x="796.3048745745431" y="491.88002857020115" width="1.1305609284332687" height="47.11997142979885" fill="#3fb950" opacity="0.5"/>
<rect x="797.9230916288067" y="447.6802369241111" width="1.1305609284332687" height="91.31976307588889" fill="#3fb950" opacity="0.5"/>
<rect x="799.5413086830703" y="461.51429050771566" width="1.1305609284332687" height="77.48570949228434" fill="#f85149" opacity="0.5"/>
<rect x="801.1595257373338" y="466.1502491287137" width="1.1305609284332687" height="72.84975087128629" fill="#f85149" opacity="0.5"/>
<rect x="802.7777427915973" y="482.54767744574815" width="1.1305609284332687" height="56.45232255425185" fill="#f85149" opacity="0.5"/>
<rect x="804.395959845861" y="490.45590353611834" width="1.1305609284332687" height="48.54409646388166" fill="#f85149" opacity="0.5"/>
<rect x="806.0141769001245" y="473.86530554610806" width="1.1305609284332687" height="65.13469445389194" fill="#3fb950" opacity="0.5"/>
<rect x="807.632393954388" y="493.5990839891159" width="1.1305609284332687" height="45.40091601088409" fill="#f85149" opacity="0.5"/>
<rect x="809.2506110086516" y="513.5812406620817" width="1.1305609284332687" height="25.418759337918345" fill="#f85149" opacity="0.5"/>
<rect x="810.8688280629152" y="511.0008480694506" width="1.1305609284332687" height="27.999151930549374" fill="#f85149" opacity="0.5"/>
<rect x="812.4870451171788" y="503.1392660116674" width="1.1305609284332687" height="35.86073398833258" fill="#3fb950" opacity="0.5"/>
<rect x="814.1052621714423" y="513.7024893976399" width="1.1305609284332687" height="25.29751060236015" fill="#f85149" opacity="0.5"/>
<rect x="815.7234792257059" y="516.3014401178839" width="1.1305609284332687" height="22.698559882116115" fill="#f85149" opacity="0.5"/>
<rect x="817.3416962799695" y="517.9182631470019" width="1.1305609284332687" height="21.08173685299812" fill="#f85149" opacity="0.5"/>
<rect x="818.9599133342331" y="482.808669256766" width="1.1305609284332687" height="56.191330743234005" fill="#3fb950" opacity="0.5"/>
<rect x="820.5781303884966" y="487.3434699305221" width="1.1305609284332687" height="51.656530069477924" fill="#3fb950" opacity="0.5"/>
<rect x="822.1963474427602" y="506.36192302725965" width="1.1305609284332687" height="32.63807697274035" fill="#f85149" opacity="0.5"/>
<rect x="823.8145644970238" y="510.31257105372634" width="1.1305609284332687" height="28.687428946273656" fill="#3fb950" opacity="0.5"/>
<rect x="825.4327815512873" y="502.8804494201355" width="1.1305609284332687" height="36.119550579864494" fill="#3fb950" opacity="0.5"/>
<rect x="827.0509986055508" y="486.2551017575198" width="1.1305609284332687" height="52.74489824248019" fill="#3fb950" opacity="0.5"/>
<rect x="828.6692156598144" y="502.68026661013533" width="1.1305609284332687" height="36.319733389864666" fill="#f85149" opacity="0.5"/>
<rect x="830.287432714078" y="495.12821705626203" width="1.1305609284332687" height="43.87178294373797" fill="#f85149" opacity="0.5"/>
<rect x="831.9056497683416" y="504.9561881659896" width="1.1305609284332687" height="34.0438118340104" fill="#f85149" opacity="0.5"/>
<rect x="833.5238668226052" y="487.3382340712967" width="1.1305609284332687" height="51.66176592870329" fill="#3fb950" opacity="0.5"/>
<rect x="835.1420838768687" y="488.74299221980857" width="1.1305609284332687" height="50.25700778019143" fill="#3fb950" opacity="0.5"/>
<rect x="836.7603009311322" y="481.10402693462794" width="1.1305609284332687" height="57.89597306537206" fill="#3fb950" opacity="0.5"/>
<rect x="838.3785179853958" y="496.9709960569028" width="1.1305609284332687" height="42.02900394309722" fill="#f85149" opacity="0.5"/>
<rect x="839.9967350396594" y="513.4119773359499" width="1.1305609284332687" height="25.588022664050072" fill="#f85149" opacity="0.5"/>
<rect x="841.614952093923" y="512.2369046918594" width="1.1305609284332687" height="26.763095308140578" fill="#3fb950" opacity="0.5"/>
<rect x="843.2331691481864" y="496.31044855425927" width="1.1305609284332687" height="42.68955144574073" fill="#3fb950" opacity="0.5"/>
<rect x="844.85138620245" y="507.9879326572627" width="1.1305609284332687" height="31.012067342737282" fill="#f85149" opacity="0.5"/>
<rect x="846.4696032567136" y="511.5834270914514" width="1.1305609284332687" height="27.416572908548574" fill="#f85149" opacity="0.5"/>
<rect x="848.0878203109772" y="473.32244637134113" width="1.1305609284332687" height="65.67755362865887" fill="#3fb950" opacity="0.5"/>
<rect x="849.7060373652407" y="499.44186514874025" width="1.1305609284332687" height="39.55813485125975" fill="#f85149" opacity="0.5"/>
<rect x="851.3242544195043" y="486.1690591570903" width="1.1305609284332687" height="52.83094084290968" fill="#3fb950" opacity="0.5"/>
<rect x="852.9424714737679" y="486.6063414762649" width="1.1305609284332687" height="52.3936585237351" fill="#f85149" opacity="0.5"/>
<rect x="854.5606885280315" y="503.97469659635425" width="1.1305609284332687" height="35.02530340364575" fill="#f85149" opacity="0.5"/>
<rect x="856.178905582295" y="514.4082793588406" width="1.1305609284332687" height="24.59172064115944" fill="#3fb950" opacity="0.5"/>
<rect x="857.7971226365586" y="518.5136424315305" width="1.1305609284332687" height="20.486357568469543" fill="#f85149" opacity="0.5"/>
<rect x="859.4153396908222" y="520.6215828527767" width="1.1305609284332687" height="18.37841714722333" fill="#3fb950" opacity="0.5"/>
<rect x="861.0335567450858" y="515.5823905055903" width="1.1305609284332687" height="23.417609494409703" fill="#f85149" opacity="0.5"/>
<rect x="862.6517737993493" y="511.20196721283185" width="1.1305609284332687" height="27.798032787168154" fill="#3fb950" opacity="0.5"/>
<rect x="864.2699908536129" y="501.71281828559114" width="1.1305609284332687" height="37.28718171440886" fill="#3fb950" opacity="0.5"/>
<rect x="865.8882079078764" y="507.40312984348185" width="1.1305609284332687" height="31.59687015651815" fill="#3fb950" opacity="0.5"/>
<rect x="867.50642496214" y="503.5565821919071" width="1.1305609284332687" height="35.443417808092875" fill="#f85149" opacity="0.5"/>
<rect x="869.1246420164035" y="480.42036077559715" width="1.1305609284332687" height="58.579639224402854" fill="#3fb950" opacity="0.5"/>
<rect x="870.7428590706671" y="445.21815356543004" width="1.1305609284332687" height="93.78184643456996" fill="#3fb950" opacity="0.5"/>
<rect x="872.3610761249307" y="483.00435298487" width="1.1305609284332687" height="55.995647015129975" fill="#f85149" opacity="0.5"/>
<rect x="873.9792931791943" y="504.0082460066068" width="1.1305609284332687" height="34.99175399339322" fill="#f85149" opacity="0.5"/>
<rect x="875.5975102334579" y="508.7914524151139" width="1.1305609284332687" height="30.208547584886105" fill="#f85149" opacity="0.5"/>
<rect x="877.2157272877214" y="509.3486117414434" width="1.1305609284332687" height="29.651388258556608" fill="#f85149" opacity="0.5"/>
<rect x="878.833944341985" y="489.7297506647125" width="1.1305609284332687" height="49.270249335287474" fill="#3fb950" opacity="0.5"/>
<rect x="880.4521613962486" y="496.18876676451237" width="1.1305609284332687" height="42.811233235487634" fill="#f85149" opacity="0.5"/>
<rect x="882.0703784505122" y="515.797569279897" width="1.1305609284332687" height="23.202430720103052" fill="#3fb950" opacity="0.5"/>
<rect x="883.6885955047757" y="511.1029593211162" width="1.1305609284332687" height="27.897040678883798" fill="#3fb950" opacity="0.5"/>
<rect x="885.3068125590393" y="512.9221257495112" width="1.1305609284332687" height="26.077874250488776" fill="#f85149" opacity="0.5"/>
<rect x="886.9250296133029" y="517.53133391102" width="1.1305609284332687" height="21.468666088979944" fill="#f85149" opacity="0.5"/>
<rect x="888.5432466675663" y="514.4089845349182" width="1.1305609284332687" height="24.591015465081796" fill="#3fb950" opacity="0.5"/>
<rect x="890.1614637218299" y="484.56792380856405" width="1.1305609284332687" height="54.432076191435954" fill="#3fb950" opacity="0.5"/>
<rect x="891.7796807760934" y="488.8214546163099" width="1.1305609284332687" height="50.17854538369011" fill="#3fb950" opacity="0.5"/>
<rect x="893.397897830357" y="488.05001890696985" width="1.1305609284332687" height="50.949981093030146" fill="#3fb950" opacity="0.5"/>
<rect x="895.0161148846206" y="490.8381996774889" width="1.1305609284332687" height="48.16180032251111" fill="#f85149" opacity="0.5"/>
<rect x="896.6343319388842" y="502.3960472939747" width="1.1305609284332687" height="36.603952706025325" fill="#3fb950" opacity="0.5"/>
<rect x="898.2525489931477" y="491.9348309925792" width="1.1305609284332687" height="47.06516900742082" fill="#3fb950" opacity="0.5"/>
<rect x="899.8707660474113" y="506.64936450066796" width="1.1305609284332687" height="32.35063549933204" fill="#f85149" opacity="0.5"/>
<rect x="901.4889831016749" y="500.3359271741254" width="1.1305609284332687" height="38.6640728258746" fill="#3fb950" opacity="0.5"/>
<rect x="903.1072001559385" y="504.8967754721265" width="1.1305609284332687" height="34.10322452787352" fill="#f85149" opacity="0.5"/>
<rect x="904.725417210202" y="513.7614029087691" width="1.1305609284332687" height="25.238597091230872" fill="#3fb950" opacity="0.5"/>
<rect x="906.3436342644655" y="510.89056964986855" width="1.1305609284332687" height="28.109430350131447" fill="#f85149" opacity="0.5"/>
<rect x="907.9618513187291" y="506.0351766193469" width="1.1305609284332687" height="32.964823380653115" fill="#3fb950" opacity="0.5"/>
<rect x="909.5800683729927" y="504.5348387297108" width="1.1305609284332687" height="34.46516127028917" fill="#3fb950" opacity="0.5"/>
<rect x="911.1982854272562" y="501.92165047519904" width="1.1305609284332687" height="37.078349524800956" fill="#3fb950" opacity="0.5"/>
<rect x="912.8165024815198" y="503.8278994192849" width="1.1305609284332687" height="35.172100580715096" fill="#3fb950" opacity="0.5"/>
<rect x="914.4347195357834" y="499.92824176791845" width="1.1305609284332687" height="39.07175823208155" fill="#3fb950" opacity="0.5"/>
<polyline points="871.3081395348837,66.86912672210848 872.9263565891473,68.71008877452944 874.5445736434109,70.55105082695036 876.1627906976745,72.39201287937132 877.781007751938,74.23297493179228 879.3992248062016,76.07393698421328 881.0174418604652,77.91489903663417 882.6356589147288,79.75586108905517 884.2538759689922,81.59682314147612 885.8720930232558,83.43778519389704 887.4903100775194,85.278747246318 889.1085271317829,87.11970929873897 890.7267441860465,88.96067135115993 892.34496124031,90.80163340358087 893.9631782945736,92.64259545600181 895.5813953488372,94.48355750842282 897.1996124031008,96.3245195608437 898.8178294573643,98.16548161326469 900.4360465116279,100.00644366568565 902.0542635658915,101.84740571810661 903.672480620155,103.68836777052755 905.2906976744185,105.5293298229485 906.9089147286821,107.37029187536946 908.5271317829457,109.21125392779038 910.1453488372093,111.05221598021134 911.7635658914728,112.89317803263233 913.3817829457364,114.7341400850533 915.0,116.57510213747423" stroke="#f85149" stroke-width="2.8" fill="none"/>
<polyline points="871.3081395348837,175.76450084586662 872.9263565891473,174.96216585175597 874.5445736434109,174.1598308576453 876.1627906976745,173.35749586353458 877.781007751938,172.555160869424 879.3992248062016,171.7528258753133 881.0174418604652,170.95049088120265 882.6356589147288,170.148155887092 884.2538759689922,169.3458208929813 885.8720930232558,168.5434858988706 887.4903100775194,167.74115090475993 889.1085271317829,166.93881591064928 890.7267441860465,166.13648091653863 892.34496124031,165.33414592242795 893.9631782945736,164.53181092831727 895.5813953488372,163.72947593420662 897.1996124031008,162.92714094009597 898.8178294573643,162.12480594598532 900.4360465116279,161.32247095187466 902.0542635658915,160.52013595776398 903.672480620155,159.7178009636533 905.2906976744185,158.91546596954265 906.9089147286821,158.11313097543194 908.5271317829457,157.3107959813213 910.1453488372093,156.5084609872106 911.7635658914728,155.70612599309993 913.3817829457364,154.90379099898928 915.0,154.10145600487863" stroke="#3fb950" stroke-width="2.8" fill="none"/>
<polygon points="871.3081395348837,66.86912672210848 872.9263565891473,68.71008877452944 874.5445736434109,70.55105082695036 876.1627906976745,72.39201287937132 877.781007751938,74.23297493179228 879.3992248062016,76.07393698421328 881.0174418604652,77.91489903663417 882.6356589147288,79.75586108905517 884.2538759689922,81.59682314147612 885.8720930232558,83.43778519389704 887.4903100775194,85.278747246318 889.1085271317829,87.11970929873897 890.7267441860465,88.96067135115993 892.34496124031,90.80163340358087 893.9631782945736,92.64259545600181 895.5813953488372,94.48355750842282 897.1996124031008,96.3245195608437 898.8178294573643,98.16548161326469 900.4360465116279,100.00644366568565 902.0542635658915,101.84740571810661 903.672480620155,103.68836777052755 905.2906976744185,105.5293298229485 906.9089147286821,107.37029187536946 906.9089147286821,158.11313097543194 905.2906976744185,158.91546596954265 903.672480620155,159.7178009636533 902.0542635658915,160.52013595776398 900.4360465116279,161.32247095187466 898.8178294573643,162.12480594598532 897.1996124031008,162.92714094009597 895.5813953488372,163.72947593420662 893.9631782945736,164.53181092831727 892.34496124031,165.33414592242795 890.7267441860465,166.13648091653863 889.1085271317829,166.93881591064928 887.4903100775194,167.74115090475993 885.8720930232558,168.5434858988706 884.2538759689922,169.3458208929813 882.6356589147288,170.148155887092 881.0174418604652,170.95049088120265 879.3992248062016,171.7528258753133 877.781007751938,172.555160869424 876.1627906976745,173.35749586353458 874.5445736434109,174.1598308576453 872.9263565891473,174.96216585175597 871.3081395348837,175.76450084586662" fill="#FFD700" opacity="0.10"/>
<polygon points="864.3081395348837,57.869126722108476 878.3081395348837,57.869126722108476 871.3081395348837,67.86912672210848" fill="#f85149" stroke="#fff" stroke-width="1.5"/>
<text x="871.3081395348837" y="53.869126722108476" text-anchor="middle" font-size="9" fill="#f85149">¥26.71</text>
<polygon points="886.9631782945736,83.64259545600181 900.9631782945736,83.64259545600181 893.9631782945736,93.64259545600181" fill="#f85149" stroke="#fff" stroke-width="1.5"/>
<text x="893.9631782945736" y="79.64259545600181" text-anchor="middle" font-size="9" fill="#f85149">¥24.97</text>
<polygon points="880.4903100775194,176.74115090475993 894.4903100775194,176.74115090475993 887.4903100775194,166.74115090475993" fill="#3fb950" stroke="#fff" stroke-width="1.5"/>
<text x="887.4903100775194" y="185.74115090475993" text-anchor="middle" font-size="9" fill="#3fb950">¥19.90</text>
<polygon points="899.9089147286821,167.11313097543194 913.9089147286821,167.11313097543194 906.9089147286821,157.11313097543194" fill="#3fb950" stroke="#fff" stroke-width="1.5"/>
<text x="906.9089147286821" y="176.11313097543194" text-anchor="middle" font-size="9" fill="#3fb950">¥20.55</text>
<circle cx="911.7635658914728" cy="111.15801839701716" r="8" fill="#f0883e" stroke="#fff" stroke-width="2.5"/>
<text x="911.7635658914728" y="97.15801839701716" text-anchor="middle" font-size="11" fill="#f0883e" font-weight="bold">★ 突破 ¥23.72</text>
<polyline points="80.0,364.893374380691 81.61821705426357,362.22715347718486 83.23643410852713,364.59712761363477 84.8546511627907,362.81964701129726 86.47286821705427,361.78278332660045 88.09108527131784,361.19028979248793 89.70930232558139,358.0796987383974 91.32751937984496,361.78278332660045 92.94573643410853,364.44900423010665 94.56395348837209,359.26468580662237 96.18217054263566,360.8940430254317 97.80038759689923,362.5234002442411 99.4186046511628,361.0421664089598 101.03682170542635,365.78211468185975 102.65503875968992,364.30088084657854 104.27325581395348,361.78278332660045 105.89147286821705,357.4872052042849 107.50968992248062,360.1534261077911 109.12790697674419,362.5234002442411 110.74612403100775,342.5267434679445 112.36434108527132,328.603145416301 113.98255813953489,335.56494444212274 115.60077519379846,346.97044497378823 117.21899224806202,355.26535445136307 118.83720930232559,359.5609325736786 120.45542635658916,358.2278221219255 122.07364341085271,357.78345197134115 123.69186046511628,353.19162708196933 125.31007751937985,353.78412061608185 126.92829457364341,352.747256931385 128.54651162790697,349.34041911023814 130.16472868217056,353.33975046549745 131.7829457364341,359.26468580662237 133.40116279069767,360.44967287484735 135.01937984496124,367.55959528419726 136.6375968992248,367.26334851714097 138.25581395348837,365.3377445312754 139.87403100775194,368.44833558536595 141.4922480620155,359.11656242309425 143.11046511627907,361.63465994307234 144.72868217054264,361.0421664089598 146.3468992248062,365.0414977642192 147.96511627906978,368.30021220183784 149.58333333333331,363.5602639289379 151.2015503875969,361.3384131760161 152.81976744186045,356.59846490311617 154.43798449612405,359.7090559572068 156.05620155038758,357.3390818207568 157.67441860465118,360.7459196419036 159.29263565891472,363.4121405454098 160.91085271317831,363.8565106959942 162.52906976744185,365.63399129833164 164.14728682170542,366.3746082159723 165.765503875969,365.78211468185975 167.38372093023256,363.8565106959942 169.00193798449612,367.11522513361285 170.6201550387597,367.7077186677253 172.23837209302326,366.96710175008474 173.85658914728683,363.26401716188167 175.4748062015504,360.1534261077911 177.09302325581393,360.30154949131924 178.71124031007753,357.63532858781304 180.3294573643411,358.2278221219255 181.94767441860466,361.63465994307234 183.5658914728682,366.6708549830285 185.1841085271318,365.4858679148035 186.80232558139534,346.0817046726195 188.42054263565893,345.7854579055632 190.03875968992247,354.8209843007787 191.65697674418604,361.78278332660045 193.2751937984496,362.5234002442411 194.89341085271317,359.7090559572068 196.51162790697674,360.1534261077911 198.1298449612403,358.3759455054536 199.74806201550388,361.63465994307234 201.36627906976744,364.59712761363477 202.984496124031,364.893374380691 204.60271317829455,364.7452509971629 206.22093023255815,361.78278332660045 207.83914728682169,364.0046340795223 209.45736434108528,367.8558420512535 211.07558139534885,366.8189783665566 212.69379844961242,365.3377445312754 214.31201550387598,363.708387312466 215.93023255813955,366.52273159950033 217.5484496124031,365.4858679148035 219.16666666666666,366.22648483244416 220.78488372093022,365.78211468185975 222.4031007751938,367.55959528419726 224.02131782945736,367.8558420512535 225.63953488372093,366.8189783665566 227.2577519379845,367.55959528419726 228.87596899224806,367.26334851714097 230.49418604651163,369.0408291194785 232.1124031007752,369.1889525030066 233.73062015503876,367.4114719006691 235.34883720930233,367.8558420512535 236.9670542635659,367.26334851714097 238.58527131782947,364.893374380691 240.20348837209303,362.0790300936567 241.8217054263566,358.0796987383974 243.43992248062014,353.19162708196933 245.0581395348837,340.00864594796644 246.67635658914728,325.7888011292667 248.29457364341084,346.67419820673194 249.9127906976744,344.45234745381015 251.53100775193798,350.2291594114069 253.14922480620154,346.2298280561476 254.7674418604651,348.3035554255413 256.38565891472865,348.59980219259756 258.00387596899225,348.7479255761257 259.62209302325584,345.0448409879226 261.2403100775194,342.0823733173601 262.8585271317829,338.9717822632696 264.4767441860465,340.89738624913514 266.0949612403101,341.34175639971954 267.71317829457365,340.30489271502273 269.3313953488372,338.82365887974146 270.9496124031008,342.9711136185289 272.5678294573643,343.119237002057 274.18604651162786,342.3786200844164 275.80426356589146,349.34041911023814 277.42248062015506,345.48921113850696 279.04069767441865,341.1936330161914 280.6589147286822,338.9717822632696 282.27713178294573,336.89805489387584 283.8953488372093,337.046178277404 285.51356589147287,333.19497030567277 287.1317829457364,336.00931459270714 288.75,333.7874638397853 290.3682170542636,337.49054842798836 291.98643410852713,336.89805489387584 293.6046511627907,343.119237002057 295.22286821705427,340.4530160985508 296.84108527131787,336.89805489387584 298.4593023255814,335.4168210585946 300.07751937984494,341.7861265503039 301.69573643410854,337.49054842798836 303.3139534883721,339.8605225644383 304.9321705426356,336.7499315103477 306.5503875968992,336.15743797623526 308.1686046511628,334.0837106068416 309.78682170542635,331.1212429362791 311.4050387596899,331.4174897033353 313.0232558139535,332.8987235386166 314.6414728682171,332.00998323744784 316.2596899224806,331.86185985391967 317.87790697674416,332.4543533880322 319.49612403100775,329.4918857174697 321.11434108527135,328.1587752657166 322.7325581395349,329.3437623339416 324.3507751937984,332.15810662097596 325.968992248062,333.34309368920094 327.5872093023256,339.4161524138539 329.2054263565891,337.6386718115165 330.8236434108527,336.00931459270714 332.4418604651163,334.5280807574259 334.06007751937983,341.34175639971954 335.67829457364337,339.5642757973821 337.29651162790697,344.00797730322574 338.91472868217056,341.48987978324766 340.5329457364341,332.4543533880322 342.1511627906977,333.34309368920094 343.76937984496124,340.7492628656071 345.38759689922483,345.48921113850696 347.00581395348837,353.19162708196933 348.62403100775197,352.59913354785687 350.2422480620155,347.26669174084446 351.8604651162791,349.6366658772944 353.47868217054264,349.34041911023814 355.0968992248062,354.8209843007787 356.7151162790698,354.37661415019437 358.3333333333333,347.85918527495693 359.9515503875969,348.7479255761257 361.56976744186045,348.45167880906945 363.18798449612405,348.8960489596538 364.8062015503876,346.5260748232038 366.4244186046512,346.97044497378823 368.0426356589147,345.7854579055632 369.6608527131783,346.2298280561476 371.27906976744185,340.4530160985508 372.89728682170545,346.5260748232038 374.515503875969,346.2298280561476 376.1337209302326,343.26736038558516 377.7519379844961,341.7861265503039 379.3701550387597,340.30489271502273 380.98837209302326,339.4161524138539 382.6065891472868,338.5274121126852 384.2248062015504,341.0455096326633 385.84302325581393,341.1936330161914 387.4612403100775,339.7123991809102 389.07945736434107,342.67486685147264 390.69767441860466,338.3792887291571 392.3158914728682,338.67553549621334 393.9341085271318,337.19430166093207 395.55232558139534,336.4536847432915 397.17054263565893,336.4536847432915 398.7887596899225,334.37995737389775 400.40697674418607,335.1205742915384 402.0251937984496,339.2680290303258 403.6434108527132,338.82365887974146 405.26162790697674,333.19497030567277 406.8798449612403,332.3062300045041 408.4980620155039,332.7506001550884 410.1162790697674,332.8987235386166 411.734496124031,333.34309368920094 413.35271317829455,332.3062300045041 414.97093023255815,331.1212429362791 416.5891472868217,330.973119552751 418.2073643410853,330.0843792515822 419.8255813953488,327.1219115810198 421.4437984496124,326.2331712798511 423.06201550387595,328.01065188218854 424.68023255813955,322.530086691648 426.2984496124031,313.4945602964325 427.9166666666667,299.7190856283171 429.5348837209302,309.05085879058885 431.1531007751938,294.09039705424846 432.77131782945736,316.7532747340512 434.3895348837209,329.3437623339416 436.0077519379845,333.6393404562572 437.62596899224803,334.5280807574259 439.24418604651163,335.4168210585946 440.86240310077517,338.3792887291571 442.48062015503876,363.11589377835355 444.0988372093023,357.63532858781304 445.7170542635659,351.11789971257565 447.33527131782944,349.19229572671003 448.95348837209303,349.19229572671003 450.5717054263566,347.85918527495693 452.18992248062017,347.7110618914288 453.8081395348837,351.4141464796319 455.4263565891473,351.56226986316 457.0445736434109,349.34041911023814 458.6627906976744,346.97044497378823 460.281007751938,348.00730865848504 461.8992248062015,345.48921113850696 463.5174418604651,347.26669174084446 465.13565891472865,346.67419820673194 466.75387596899225,351.7103932466881 468.3720930232558,350.377282794935 469.9903100775194,347.1185683573163 471.6085271317829,343.119237002057 473.2267441860465,341.1936330161914 474.84496124031006,331.2693663198072 476.46317829457365,336.7499315103477 478.08139534883725,334.0837106068416 479.6996124031008,335.71306782565085 481.3178294573644,336.60180812681966 482.9360465116279,338.0830419621008 484.55426356589146,332.15810662097596 486.172480620155,334.0837106068416 487.7906976744186,332.6024767715603 489.40891472868213,336.4536847432915 491.02713178294573,338.82365887974146 492.64534883720927,340.15676933149456 494.26356589147287,337.19430166093207 495.8817829457364,334.23183399036964 497.5,333.6393404562572 499.1182170542636,326.5294180469073 500.73643410852713,332.3062300045041 502.35465116279073,332.6024767715603 503.97286821705427,333.19497030567277 505.59108527131787,332.6024767715603 507.2093023255814,334.37995737389775 508.827519379845,333.491217072729 510.44573643410854,327.8625284986604 512.0639534883721,329.3437623339416 513.6821705426357,330.52874940216657 515.3003875968993,326.9737881974916 516.9186046511628,322.97445684223237 518.5368217054264,324.0113205269292 520.1550387596899,320.90072947283863 521.7732558139535,326.8256648139635 523.3914728682171,324.7519374445698 525.0096899224806,321.93759315753545 526.6279069767442,322.38196330811985 528.2461240310076,322.82633345870426 529.8643410852712,322.38196330811985 531.4825581395348,320.7526060893105 533.1007751937984,316.30890458346687 534.718992248062,313.4945602964325 536.3372093023256,317.7901384187481 537.9554263565891,315.56828766582623 539.5736434108527,323.4188269928167 541.1918604651163,309.6433523247013 542.8100775193798,312.0133264611513 544.4282945736434,312.1614498446794 546.046511627907,308.6064886400045 547.6647286821706,309.6433523247013 549.2829457364342,312.3095732282075 550.9011627906978,307.1252548047232 552.5193798449612,308.90273540706073 554.1375968992248,308.75461202353256 555.7558139534883,312.3095732282075 557.3740310077519,308.6064886400045 558.9922480620155,298.23785179303593 560.6104651162791,305.4958975859139 562.2286821705427,304.01466375063274 563.8468992248063,301.4965662306546 565.4651162790698,300.31157916242967 567.0833333333334,298.8303453271484 568.7015503875969,299.7190856283171 570.3197674418604,302.2371831482952 571.937984496124,304.3109105176889 573.5562015503876,312.1614498446794 575.1744186046512,311.86520307762316 576.7926356589146,310.8283393929263 578.4108527131782,315.4201642822981 580.0290697674418,314.53142398112936 581.6472868217054,311.56895631056693 583.265503875969,314.38330059760125 584.8837209302326,313.05019014584815 586.5019379844962,317.19764488463557 588.1201550387597,314.53142398112936 589.7383720930233,312.3095732282075 591.3565891472867,312.7539433787919 592.9748062015503,312.7539433787919 594.5930232558139,313.19831352937626 596.2112403100775,313.6426836799606 597.8294573643411,301.94093638123894 599.4476744186046,306.829008037667 601.0658914728682,313.6426836799606 602.6841085271318,311.4208329270388 604.3023255813954,314.23517721407313 605.9205426356589,313.3464369129044 607.5387596899225,322.97445684223237 609.1569767441861,326.5294180469073 610.7751937984497,327.71440511513225 612.3934108527131,324.7519374445698 614.0116279069767,323.56695037634483 615.6298449612403,325.49255436221046 617.2480620155039,326.38129466337915 618.8662790697674,323.4188269928167 620.484496124031,324.6038140610417 622.1027131782946,325.7888011292667 623.7209302325582,323.4188269928167 625.3391472868218,323.56695037634483 626.9573643410853,325.49255436221046 628.5755813953488,326.38129466337915 630.1937984496124,326.38129466337915 631.812015503876,329.6400091009979 633.4302325581396,327.71440511513225 635.048449612403,328.89939218335724 636.6666666666666,329.4918857174697 638.2848837209302,327.56628173160414 639.9031007751938,326.9737881974916 641.5213178294573,323.71507375987295 643.1395348837209,322.23383992459173 644.7577519379845,323.2707036092886 646.3759689922481,322.23383992459173 647.9941860465116,319.86386578814177 649.6124031007752,321.7894697740074 651.2306201550388,324.30756729398547 652.8488372093024,320.90072947283863 654.4670542635658,322.0857165410636 656.0852713178294,322.23383992459173 657.703488372093,323.56695037634483 659.3217054263566,322.530086691648 660.9399224806201,320.7526060893105 662.5581395348837,319.1232488705012 664.1763565891473,320.30823593872617 665.7945736434109,326.2331712798511 667.4127906976745,325.0481842116261 669.031007751938,324.45569067751353 670.6492248062016,320.6044827057824 672.2674418604652,315.27204089877 673.8856589147288,317.04952150110745 675.5038759689922,317.04952150110745 677.1220930232558,314.8276707481856 678.7403100775194,314.8276707481856 680.3585271317829,316.30890458346687 681.9767441860465,315.1239175152419 683.59496124031,314.23517721407313 685.2131782945736,314.8276707481856 686.8313953488372,317.7901384187481 688.4496124031008,318.975125486973 690.0678294573643,319.4194956375574 691.6860465116279,328.3068986492448 693.3042635658915,323.86319714340107 694.922480620155,321.93759315753545 696.5406976744185,325.7888011292667 698.1589147286821,325.19630759515417 699.7771317829457,322.82633345870426 701.3953488372093,320.6044827057824 703.0135658914728,319.2713722540293 704.6317829457364,319.4194956375574 706.25,317.3457682681637 707.8682170542636,315.56828766582623 709.4864341085272,313.19831352937626 711.1046511627907,314.53142398112936 712.7228682170543,314.23517721407313 714.3410852713179,284.6105005084486 715.9593023255815,249.06088846169925 717.577519379845,260.46638899336466 719.1957364341085,247.43153124288986 720.8139534883721,272.1681362920863 722.4321705426357,261.20700591100524 724.0503875968992,265.0582138827364 725.6686046511628,261.0588825274772 727.2868217054264,270.53877907327694 728.90503875969,259.5776486921959 730.5232558139535,255.5783173369366 732.1414728682171,254.0970835016554 733.7596899224806,258.6889083910272 735.3779069767442,264.6138437321521 736.9961240310078,264.0213501980396 738.6143410852712,260.31826560983654 740.2325581395348,254.5414536522398 741.8507751937984,250.98649244756479 743.468992248062,228.91610830187454 745.0872093023255,233.65605657477448 746.7054263565891,216.02937393492786 748.3236434108527,242.09908943587743 749.9418604651163,248.32027154405856 751.5600775193799,260.7626357604209 753.1782945736434,253.65271335107101 754.796511627907,239.8772386829556 756.4147286821706,250.83836906403673 758.0329457364342,261.35512929453336 759.6511627906976,256.022687487521 761.2693798449612,243.1359531205743 762.8875968992248,255.13394718635226 764.5058139534884,260.02201884278026 766.1240310077519,258.0964148569147 767.7422480620155,270.98314922386135 769.3604651162791,269.20566862152384 770.9786821705427,230.5454655206839 772.5968992248062,222.25055604310904 774.2151162790698,220.3249520572434 775.8333333333334,225.06490033014336 777.451550387597,215.43688040081543 779.0697674418604,206.40135400559993 780.687984496124,212.17816596319673 782.3062015503876,219.88058190665907 783.9244186046512,213.65939979847792 785.5426356589147,224.7686535630871 787.1608527131782,204.03137986914996 788.7790697674418,213.06690626436543 790.3972868217054,191.44089226925954 792.015503875969,206.9938475397124 793.6337209302326,216.91811423609664 795.2519379844961,241.80284266882117 796.8701550387597,197.66207437744072 798.4883720930233,144.63390307437282 800.1065891472869,157.22439067426325 801.7248062015503,158.26125435896012 803.3430232558139,161.816215563635 804.9612403100775,170.25924842473802 806.5794573643411,168.1855210553443 808.1976744186046,188.4784245986971 809.8158914728682,192.62587933748455 811.4341085271318,204.62387340326245 813.0523255813954,197.66207437744072 814.6705426356589,205.06824355384686 816.2887596899225,216.32562070198412 817.9069767441861,223.13929634427777 819.5251937984497,191.73713903631577 821.1434108527131,190.10778181750644 822.7616279069767,206.1051072385437 824.3798449612403,198.40269129508135 825.9980620155039,189.81153505045017 827.6162790697674,178.99852805289723 829.234496124031,184.47909324343777 830.8527131782946,188.33030121516896 832.4709302325582,205.6607370879593 834.0891472868218,184.03472309285343 835.7073643410853,173.96233301294106 837.3255813953488,162.85307924833188 838.9437984496124,177.81354098467227 840.562015503876,182.7016126411003 842.1802325581396,180.92413203876282 843.798449612403,170.4073718082662 845.4166666666666,173.814209629413 847.0348837209302,184.47909324343777 848.6531007751938,145.8188901425978 850.2713178294573,157.52063744131948 851.8895348837209,151.29945533313833 853.5077519379845,178.85040466936914 855.1259689922481,188.77467136575333 856.7441860465116,182.84973602462844 858.3624031007752,194.10711317276574 859.9806201550388,193.95898978923765 861.5988372093024,207.58634107382488 863.2170542635658,190.99652211867522 864.8352713178294,175.2954434646942 866.453488372093,173.814209629413 868.0717054263566,175.88793699880665 869.6899224806201,118.56418757342325 871.3081395348837,83.75519244431445 872.9263565891473,104.93683628883596 874.5445736434109,115.89796666991707 876.1627906976745,123.3041358463232 877.781007751938,125.67410998277315 879.3992248062016,120.3416681757607 881.0174418604652,149.22572796374465 882.6356589147288,142.85642247203538 884.2538759689922,141.3751886367541 885.8720930232558,159.00187127660072 887.4903100775194,159.59436481071322 889.1085271317829,151.74382548372267 890.7267441860465,126.56285028394188 892.34496124031,111.30614178054523 893.9631782945736,106.71431689117345 895.5813953488372,113.97236268405145 897.1996124031008,111.4542651640734 898.8178294573643,106.121823357061 900.4360465116279,126.56285028394188 902.0542635658915,114.2686094511077 903.672480620155,144.78202645790094 905.2906976744185,142.85642247203538 906.9089147286821,157.96500759190388 908.5271317829457,131.00655178978553 910.1453488372093,121.37853186045758 911.7635658914728,111.15801839701716 913.3817829457364,107.15868704175784 915.0,98.12316064654233" stroke="#58a6ff" stroke-width="1.8" fill="none"/>
<line x1="80" y1="111.15801839701716" x2="915" y2="111.15801839701716" stroke="#3fb950" stroke-width="1" stroke-dasharray="3,3"/>
<text x="920" y="116.15801839701716" font-size="11" fill="#3fb950">突破价 23.72</text>
<line x1="915.0" y1="98.12316064654233" x2="915" y2="98.12316064654233" stroke="#88ccff" stroke-width="1.5"/>
<text x="920" y="103.12316064654233" font-size="11" fill="#88ccff" font-weight="bold">● 现价 24.60</text>
<text x="80" y="623" font-size="13" fill="#58a6ff" font-weight="bold">上榜理由 (综合得分: 89):</text>
<text x="90" y="641" font-size="11" fill="#c9d1d9">1. 形态于10天前收敛，突破信号有效</text>
<text x="90" y="657" font-size="11" fill="#c9d1d9">2. 突破后日线胜率95%，表现优秀</text>
<text x="90" y="673" font-size="11" fill="#c9d1d9">3. 量度目标涨幅28.7%（目标¥30.53 / 突破¥23.72）</text>
<text x="90" y="689" font-size="11" fill="#c9d1d9">4. 三角收敛对称度61%，形态较好</text>
<text x="90" y="705" font-size="11" fill="#c9d1d9">5. 收敛前强上涨趋势+25.4%，典型上涨中继</text>
<text x="90" y="721" font-size="11" fill="#c9d1d9">6. 三角持续22个交易日，整理充分</text>
</svg>