<svg xmlns="http://www.w3.org/2000/svg" viewBox="0 0 1000 720" width="1000" height="720">
<rect width="1000" height="720" fill="#0d1117"/>
<text x="500.0" y="24" text-anchor="middle" font-size="17" fill="#58a6ff" font-weight="bold">迅游科技 (300467.SZ)  三角收敛上涨中继  评分:89/100</text>
<line x1="80" y1="374.0" x2="915" y2="374.0" stroke="#21262d" stroke-width="0.5"/>
<text x="72" y="378.0" text-anchor="end" font-size="10" fill="#8b949e">11.35</text>
<line x1="80" y1="310.20000000000005" x2="915" y2="310.20000000000005" stroke="#21262d" stroke-width="0.5"/>
<text x="72" y="314.20000000000005" text-anchor="end" font-size="10" fill="#8b949e">18.02</text>
<line x1="80" y1="246.39999999999995" x2="915" y2="246.39999999999995" stroke="#21262d" stroke-width="0.5"/>
<text x="72" y="250.39999999999995" text-anchor="end" font-size="10" fill="#8b949e">24.69</text>
<line x1="80" y1="182.59999999999997" x2="915" y2="182.59999999999997" stroke="#21262d" stroke-width="0.5"/>
<text x="72" y="186.59999999999997" text-anchor="end" font-size="10" fill="#8b949e">31.35</text>
<line x1="80" y1="118.79999999999998" x2="915" y2="118.79999999999998" stroke="#21262d" stroke-width="0.5"/>
<text x="72" y="122.79999999999998" text-anchor="end" font-size="10" fill="#8b949e">38.02</text>
<line x1="80" y1="55.0" x2="915" y2="55.0" stroke="#21262d" stroke-width="0.5"/>
<text x="72" y="59.0" text-anchor="end" font-size="10" fill="#8b949e">44.69</text>
<text x="80.0" y="554.0" text-anchor="middle" font-size="9" fill="#8b949e">2024-05-06</text>
<text x="183.5658914728682" y="554.0" text-anchor="middle" font-size="9" fill="#8b949e">2024-08-05</text>
<text x="287.1317829457364" y="554.0" text-anchor="middle" font-size="9" fill="#8b949e">2024-11-12</text>
<text x="390.69767441860466" y="554.0" text-anchor="middle" font-size="9" fill="#8b949e">2025-02-19</text>
<text x="494.26356589147287" y="554.0" text-anchor="middle" font-size="9" fill="#8b949e">2025-05-26</text>
<text x="597.8294573643411" y="554.0" text-anchor="middle" font-size="9" fill="#8b949e">2025-08-25</text>
<text x="701.3953488372093" y="554.0" text-anchor="middle" font-size="9" fill="#8b949e">2025-12-01</text>
<text x="804.9612403100775" y="554.0" text-anchor="middle" font-size="9" fill="#8b949e">2026-03-11</text>
<text x="908.5271317829457" y="554.0" text-anchor="middle" font-size="9" fill="#8b949e">2026-06-15</text>
<rect x="855.1259689922481" y="55" width="45.310077519379774" height="484.0" fill="#FFD700" opacity="0.06" rx="2"/>
<rect x="79.43471953578337" y="527.0747883873579" width="1.1305609284332687" height="11.925211612642101" fill="#3fb950" opacity="0.5"/>
<rect x="81.05293659004694" y="527.3718935265797" width="1.1305609284332687" height="11.628106473420303" fill="#f85149" opacity="0.5"/>
<rect x="82.67115364431051" y="526.5359236894636" width="1.1305609284332687" height="12.46407631053637" fill="#f85149" opacity="0.5"/>
<rect x="84.28937069857407" y="523.0634891359246" width="1.1305609284332687" height="15.936510864075444" fill="#3fb950" opacity="0.5"/>
<rect x="85.90758775283764" y="512.5216654661957" width="1.1305609284332687" height="26.478334533804286" fill="#3fb950" opacity="0.5"/>
<rect x="87.52580480710121" y="504.4178146196661" width="1.1305609284332687" height="34.5821853803339" fill="#3fb950" opacity="0.5"/>
<rect x="89.14402186136476" y="457.04222408315326" width="1.1305609284332687" height="81.95777591684674" fill="#3fb950" opacity="0.5"/>
<rect x="90.76223891562833" y="477.7663037643228" width="1.1305609284332687" height="61.2336962356772" fill="#f85149" opacity="0.5"/>
<rect x="92.3804559698919" y="499.148062526285" width="1.1305609284332687" height="39.851937473715" fill="#f85149" opacity="0.5"/>
<rect x="93.99867302415547" y="511.9885868971771" width="1.1305609284332687" height="27.011413102822928" fill="#f85149" opacity="0.5"/>
<rect x="95.61689007841903" y="507.2024520337609" width="1.1305609284332687" height="31.797547966239108" fill="#3fb950" opacity="0.5"/>
<rect x="97.2351071326826" y="495.8944593668216" width="1.1305609284332687" height="43.10554063317841" fill="#3fb950" opacity="0.5"/>
<rect x="98.85332418694617" y="510.3480960912381" width="1.1305609284332687" height="28.65190390876188" fill="#f85149" opacity="0.5"/>
<rect x="100.47154124120972" y="514.7307113582854" width="1.1305609284332687" height="24.26928864171464" fill="#f85149" opacity="0.5"/>
<rect x="102.08975829547329" y="523.1709123920626" width="1.1305609284332687" height="15.829087607937367" fill="#f85149" opacity="0.5"/>
<rect x="103.70797534973686" y="524.3822258936316" width="1.1305609284332687" height="14.617774106368415" fill="#f85149" opacity="0.5"/>
<rect x="105.32619240400042" y="526.9256068906952" width="1.1305609284332687" height="12.074393109304765" fill="#3fb950" opacity="0.5"/>
<rect x="106.94440945826399" y="521.5512994485318" width="1.1305609284332687" height="17.448700551468164" fill="#3fb950" opacity="0.5"/>
<rect x="108.56262651252756" y="525.371402360541" width="1.1305609284332687" height="13.62859763945903" fill="#f85149" opacity="0.5"/>
<rect x="110.18084356679113" y="525.6810860407967" width="1.1305609284332687" height="13.318913959203314" fill="#3fb950" opacity="0.5"/>
<rect x="111.79906062105469" y="526.0388197478021" width="1.1305609284332687" height="12.961180252197892" fill="#f85149" opacity="0.5"/>
<rect x="113.41727767531826" y="522.397332118475" width="1.1305609284332687" height="16.602667881525008" fill="#3fb950" opacity="0.5"/>
<rect x="115.03549472958183" y="528.2707560688654" width="1.1305609284332687" height="10.729243931134647" fill="#f85149" opacity="0.5"/>
<rect x="116.6537117838454" y="524.4039691596628" width="1.1305609284332687" height="14.596030840337221" fill="#f85149" opacity="0.5"/>
<rect x="118.27192883810896" y="530.1814213576724" width="1.1305609284332687" height="8.818578642327566" fill="#3fb950" opacity="0.5"/>
<rect x="119.89014589237253" y="531.0928171582443" width="1.1305609284332687" height="7.907182841755684" fill="#3fb950" opacity="0.5"/>
<rect x="121.50836294663608" y="528.4327073003856" width="1.1305609284332687" height="10.567292699614427" fill="#3fb950" opacity="0.5"/>
<rect x="123.12658000089965" y="532.0425573833043" width="1.1305609284332687" height="6.957442616695744" fill="#f85149" opacity="0.5"/>
<rect x="124.74479705516322" y="529.7107474464315" width="1.1305609284332687" height="9.28925255356853" fill="#3fb950" opacity="0.5"/>
<rect x="126.36301410942679" y="531.4601709334326" width="1.1305609284332687" height="7.5398290665674494" fill="#f85149" opacity="0.5"/>
<rect x="127.98123116369034" y="529.9540164300279" width="1.1305609284332687" height="9.045983569972122" fill="#f85149" opacity="0.5"/>
<rect x="129.59944821795392" y="530.4471279427653" width="1.1305609284332687" height="8.552872057234708" fill="#f85149" opacity="0.5"/>
<rect x="131.21766527221746" y="522.4242501962876" width="1.1305609284332687" height="16.57574980371237" fill="#3fb950" opacity="0.5"/>
<rect x="132.83588232648103" y="526.2400764043452" width="1.1305609284332687" height="12.759923595654755" fill="#f85149" opacity="0.5"/>
<rect x="134.4540993807446" y="527.5468937365686" width="1.1305609284332687" height="11.453106263431437" fill="#f85149" opacity="0.5"/>
<rect x="136.07231643500816" y="532.286329508542" width="1.1305609284332687" height="6.713670491457947" fill="#3fb950" opacity="0.5"/>
<rect x="137.69053348927173" y="527.7935262220375" width="1.1305609284332687" height="11.206473777962515" fill="#3fb950" opacity="0.5"/>
<rect x="139.3087505435353" y="514.2415696330983" width="1.1305609284332687" height="24.758430366901734" fill="#3fb950" opacity="0.5"/>
<rect x="140.92696759779886" y="522.5061742340417" width="1.1305609284332687" height="16.493825765958263" fill="#f85149" opacity="0.5"/>
<rect x="142.54518465206243" y="529.4314157856907" width="1.1305609284332687" height="9.56858421430934" fill="#3fb950" opacity="0.5"/>
<rect x="144.163401706326" y="527.2513030536873" width="1.1305609284332687" height="11.748696946312748" fill="#3fb950" opacity="0.5"/>
<rect x="145.78161876058957" y="528.7318853831698" width="1.1305609284332687" height="10.26811461683019" fill="#f85149" opacity="0.5"/>
<rect x="147.39983581485313" y="530.8448287060519" width="1.1305609284332687" height="8.155171293948115" fill="#f85149" opacity="0.5"/>
<rect x="149.01805286911667" y="533.0229288714899" width="1.1305609284332687" height="5.977071128510147" fill="#3fb950" opacity="0.5"/>
<rect x="150.63626992338027" y="531.7036914878497" width="1.1305609284332687" height="7.29630851215029" fill="#f85149" opacity="0.5"/>
<rect x="152.2544869776438" y="532.2216758076275" width="1.1305609284332687" height="6.778324192372452" fill="#3fb950" opacity="0.5"/>
<rect x="153.8727040319074" y="533.4285415370869" width="1.1305609284332687" height="5.571458462913142" fill="#f85149" opacity="0.5"/>
<rect x="155.49092108617094" y="531.044404869513" width="1.1305609284332687" height="7.9555951304870405" fill="#3fb950" opacity="0.5"/>
<rect x="157.10913814043454" y="533.6244347037332" width="1.1305609284332687" height="5.375565296266814" fill="#f85149" opacity="0.5"/>
<rect x="158.72735519469808" y="533.9620427450842" width="1.1305609284332687" height="5.037957254915796" fill="#3fb950" opacity="0.5"/>
<rect x="160.34557224896167" y="534.3401536885647" width="1.1305609284332687" height="4.659846311435331" fill="#3fb950" opacity="0.5"/>
<rect x="161.9637893032252" y="529.9585447048001" width="1.1305609284332687" height="9.041455295199853" fill="#f85149" opacity="0.5"/>
<rect x="163.58200635748878" y="530.4000514950916" width="1.1305609284332687" height="8.599948504908411" fill="#f85149" opacity="0.5"/>
<rect x="165.20022341175235" y="532.3283418355954" width="1.1305609284332687" height="6.671658164404562" fill="#3fb950" opacity="0.5"/>
<rect x="166.81844046601591" y="529.1229773809972" width="1.1305609284332687" height="9.877022619002787" fill="#3fb950" opacity="0.5"/>
<rect x="168.43665752027948" y="531.859061626701" width="1.1305609284332687" height="7.140938373299036" fill="#f85149" opacity="0.5"/>
<rect x="170.05487457454305" y="533.757767238693" width="1.1305609284332687" height="5.2422327613070365" fill="#f85149" opacity="0.5"/>
<rect x="171.67309162880662" y="534.5532341736797" width="1.1305609284332687" height="4.446765826320302" fill="#3fb950" opacity="0.5"/>
<rect x="173.29130868307018" y="534.1270732034496" width="1.1305609284332687" height="4.8729267965503595" fill="#3fb950" opacity="0.5"/>
<rect x="174.90952573733375" y="532.8800366453443" width="1.1305609284332687" height="6.119963354655738" fill="#3fb950" opacity="0.5"/>
<rect x="176.5277427915973" y="532.8820492119097" width="1.1305609284332687" height="6.1179507880902975" fill="#3fb950" opacity="0.5"/>
<rect x="178.1459598458609" y="530.258351714636" width="1.1305609284332687" height="8.741648285364022" fill="#3fb950" opacity="0.5"/>
<rect x="179.76417690012445" y="533.0173943134349" width="1.1305609284332687" height="5.98260568656508" fill="#f85149" opacity="0.5"/>
<rect x="181.38239395438802" y="525.8561189549923" width="1.1305609284332687" height="13.143881045007674" fill="#3fb950" opacity="0.5"/>
<rect x="183.00061100865156" y="522.792751134418" width="1.1305609284332687" height="16.20724886558196" fill="#f85149" opacity="0.5"/>
<rect x="184.61882806291516" y="526.5291312773053" width="1.1305609284332687" height="12.470868722694718" fill="#3fb950" opacity="0.5"/>
<rect x="186.2370451171787" y="530.2362788908297" width="1.1305609284332687" height="8.76372110917032" fill="#f85149" opacity="0.5"/>
<rect x="187.8552621714423" y="529.3147749746828" width="1.1305609284332687" height="9.685225025317209" fill="#f85149" opacity="0.5"/>
<rect x="189.47347922570583" y="533.0913561347145" width="1.1305609284332687" height="5.908643865285512" fill="#f85149" opacity="0.5"/>
<rect x="191.0916962799694" y="533.8726747267463" width="1.1305609284332687" height="5.127325273253746" fill="#f85149" opacity="0.5"/>
<rect x="192.70991333423297" y="534.7617863840225" width="1.1305609284332687" height="4.238213615977543" fill="#3fb950" opacity="0.5"/>
<rect x="194.32813038849653" y="531.6936286550225" width="1.1305609284332687" height="7.306371344977492" fill="#3fb950" opacity="0.5"/>
<rect x="195.9463474427601" y="522.9165742923562" width="1.1305609284332687" height="16.083425707643755" fill="#3fb950" opacity="0.5"/>
<rect x="197.56456449702367" y="530.1984627650652" width="1.1305609284332687" height="8.801537234934813" fill="#f85149" opacity="0.5"/>
<rect x="199.18278155128723" y="520.4162119056286" width="1.1305609284332687" height="18.583788094371357" fill="#3fb950" opacity="0.5"/>
<rect x="200.8009986055508" y="477.15701181517954" width="1.1305609284332687" height="61.842988184820456" fill="#3fb950" opacity="0.5"/>
<rect x="202.41921565981437" y="496.18029413327696" width="1.1305609284332687" height="42.81970586672304" fill="#f85149" opacity="0.5"/>
<rect x="204.0374327140779" y="511.1926570718803" width="1.1305609284332687" height="27.80734292811968" fill="#f85149" opacity="0.5"/>
<rect x="205.6556497683415" y="522.0200136230798" width="1.1305609284332687" height="16.979986376920237" fill="#f85149" opacity="0.5"/>
<rect x="207.27386682260504" y="527.1801965612224" width="1.1305609284332687" height="11.819803438777626" fill="#3fb950" opacity="0.5"/>
<rect x="208.89208387686864" y="525.5062443204249" width="1.1305609284332687" height="13.493755679575088" fill="#f85149" opacity="0.5"/>
<rect x="210.5103009311322" y="527.2254289947804" width="1.1305609284332687" height="11.774571005219627" fill="#3fb950" opacity="0.5"/>
<rect x="212.12851798539577" y="530.5833963092024" width="1.1305609284332687" height="8.416603690797615" fill="#3fb950" opacity="0.5"/>
<rect x="213.74673503965934" y="520.8592658564672" width="1.1305609284332687" height="18.140734143532768" fill="#3fb950" opacity="0.5"/>
<rect x="215.3649520939229" y="526.5052320493409" width="1.1305609284332687" height="12.494767950659138" fill="#f85149" opacity="0.5"/>
<rect x="216.98316914818645" y="531.7970242623215" width="1.1305609284332687" height="7.202975737678457" fill="#3fb950" opacity="0.5"/>
<rect x="218.60138620245002" y="533.0767650271151" width="1.1305609284332687" height="5.92323497288487" fill="#f85149" opacity="0.5"/>
<rect x="220.21960325671358" y="528.4428305102098" width="1.1305609284332687" height="10.557169489790226" fill="#3fb950" opacity="0.5"/>
<rect x="221.83782031097715" y="531.7225592994006" width="1.1305609284332687" height="7.2774407005994135" fill="#f85149" opacity="0.5"/>
<rect x="223.45603736524072" y="533.4307251718104" width="1.1305609284332687" height="5.569274828189577" fill="#f85149" opacity="0.5"/>
<rect x="225.07425441950429" y="530.730363982643" width="1.1305609284332687" height="8.269636017357016" fill="#3fb950" opacity="0.5"/>
<rect x="226.69247147376785" y="533.2669525675484" width="1.1305609284332687" height="5.733047432451599" fill="#f85149" opacity="0.5"/>
<rect x="228.31068852803142" y="533.2724871256033" width="1.1305609284332687" height="5.727512874396666" fill="#f85149" opacity="0.5"/>
<rect x="229.928905582295" y="532.8194080775606" width="1.1305609284332687" height="6.180591922439362" fill="#f85149" opacity="0.5"/>
<rect x="231.54712263655856" y="533.0241867255933" width="1.1305609284332687" height="5.9758132744067325" fill="#f85149" opacity="0.5"/>
<rect x="233.16533969082212" y="532.1711100726711" width="1.1305609284332687" height="6.8288899273288735" fill="#3fb950" opacity="0.5"/>
<rect x="234.7835567450857" y="533.6916041128544" width="1.1305609284332687" height="5.308395887145593" fill="#f85149" opacity="0.5"/>
<rect x="236.40177379934926" y="534.403297964555" width="1.1305609284332687" height="4.5967020354449915" fill="#3fb950" opacity="0.5"/>
<rect x="238.01999085361282" y="523.2765218225836" width="1.1305609284332687" height="15.723478177416382" fill="#3fb950" opacity="0.5"/>
<rect x="239.6382079078764" y="522.0770321495866" width="1.1305609284332687" height="16.922967850413443" fill="#3fb950" opacity="0.5"/>
<rect x="241.25642496213996" y="525.2720318863728" width="1.1305609284332687" height="13.727968113627185" fill="#3fb950" opacity="0.5"/>
<rect x="242.8746420164035" y="518.2504387104038" width="1.1305609284332687" height="20.74956128959616" fill="#3fb950" opacity="0.5"/>
<rect x="244.49285907066707" y="485.7605250786169" width="1.1305609284332687" height="53.23947492138308" fill="#3fb950" opacity="0.5"/>
<rect x="246.11107612493063" y="474.80319949433016" width="1.1305609284332687" height="64.19680050566984" fill="#3fb950" opacity="0.5"/>
<rect x="247.7292931791942" y="492.8589857188443" width="1.1305609284332687" height="46.14101428115572" fill="#f85149" opacity="0.5"/>
<rect x="249.34751023345777" y="508.42408245468584" width="1.1305609284332687" height="30.575917545314155" fill="#3fb950" opacity="0.5"/>
<rect x="250.96572728772134" y="514.2637707580233" width="1.1305609284332687" height="24.73622924197673" fill="#f85149" opacity="0.5"/>
<rect x="252.5839443419849" y="519.758399492301" width="1.1305609284332687" height="19.24160050769899" fill="#3fb950" opacity="0.5"/>
<rect x="254.20216139624847" y="473.6615711100893" width="1.1305609284332687" height="65.33842888991069" fill="#3fb950" opacity="0.5"/>
<rect x="255.820378450512" y="478.86870974191163" width="1.1305609284332687" height="60.13129025808837" fill="#3fb950" opacity="0.5"/>
<rect x="257.4385955047756" y="491.61848245495196" width="1.1305609284332687" height="47.38151754504804" fill="#f85149" opacity="0.5"/>
<rect x="259.0568125590392" y="498.5066349205082" width="1.1305609284332687" height="40.49336507949181" fill="#3fb950" opacity="0.5"/>
<rect x="260.67502961330274" y="497.5175213463039" width="1.1305609284332687" height="41.48247865369609" fill="#3fb950" opacity="0.5"/>
<rect x="262.2932466675663" y="507.9642914971474" width="1.1305609284332687" height="31.03570850285257" fill="#f85149" opacity="0.5"/>
<rect x="263.9114637218299" y="516.5100717729472" width="1.1305609284332687" height="22.489928227052815" fill="#f85149" opacity="0.5"/>
<rect x="265.52968077609347" y="518.3701159812173" width="1.1305609284332687" height="20.629884018782718" fill="#f85149" opacity="0.5"/>
<rect x="267.147897830357" y="519.5021720957313" width="1.1305609284332687" height="19.49782790426866" fill="#3fb950" opacity="0.5"/>
<rect x="268.76611488462055" y="517.191292851139" width="1.1305609284332687" height="21.808707148861004" fill="#3fb950" opacity="0.5"/>
<rect x="270.38433193888415" y="508.66575899498747" width="1.1305609284332687" height="30.33424100501253" fill="#f85149" opacity="0.5"/>
<rect x="272.0025489931477" y="521.7128079154077" width="1.1305609284332687" height="17.287192084592334" fill="#f85149" opacity="0.5"/>
<rect x="273.6207660474112" y="519.4132921247855" width="1.1305609284332687" height="19.58670787521453" fill="#3fb950" opacity="0.5"/>
<rect x="275.2389831016748" y="514.0753693704168" width="1.1305609284332687" height="24.92463062958325" fill="#f85149" opacity="0.5"/>
<rect x="276.8572001559384" y="525.5394516687545" width="1.1305609284332687" height="13.46054833124549" fill="#3fb950" opacity="0.5"/>
<rect x="278.475417210202" y="510.1541349884947" width="1.1305609284332687" height="28.845865011505282" fill="#3fb950" opacity="0.5"/>
<rect x="280.09363426446555" y="481.4333937560704" width="1.1305609284332687" height="57.566606243929584" fill="#3fb950" opacity="0.5"/>
<rect x="281.7118513187291" y="506.22007049471796" width="1.1305609284332687" height="32.77992950528204" fill="#3fb950" opacity="0.5"/>
<rect x="283.3300683729927" y="509.78691706154973" width="1.1305609284332687" height="29.21308293845027" fill="#f85149" opacity="0.5"/>
<rect x="284.9482854272562" y="501.3205174425069" width="1.1305609284332687" height="37.67948255749309" fill="#3fb950" opacity="0.5"/>
<rect x="286.56650248151976" y="497.1859107533178" width="1.1305609284332687" height="41.814089246682215" fill="#f85149" opacity="0.5"/>
<rect x="288.18471953578336" y="512.1727392536222" width="1.1305609284332687" height="26.82726074637776" fill="#3fb950" opacity="0.5"/>
<rect x="289.80293659004695" y="491.6850732511857" width="1.1305609284332687" height="47.31492674881429" fill="#3fb950" opacity="0.5"/>
<rect x="291.4211536443105" y="496.3939683255288" width="1.1305609284332687" height="42.60603167447118" fill="#f85149" opacity="0.5"/>
<rect x="293.03937069857403" y="507.6439110255965" width="1.1305609284332687" height="31.35608897440352" fill="#f85149" opacity="0.5"/>
<rect x="294.6575877528376" y="511.5297569401736" width="1.1305609284332687" height="27.470243059826373" fill="#3fb950" opacity="0.5"/>
<rect x="296.2758048071012" y="512.4517916707521" width="1.1305609284332687" height="26.548208329247927" fill="#3fb950" opacity="0.5"/>
<rect x="297.89402186136476" y="509.01807386651546" width="1.1305609284332687" height="29.981926133484535" fill="#3fb950" opacity="0.5"/>
<rect x="299.5122389156283" y="505.71417415287374" width="1.1305609284332687" height="33.28582584712626" fill="#f85149" opacity="0.5"/>
<rect x="301.1304559698919" y="482.69222143854097" width="1.1305609284332687" height="56.30777856145903" fill="#3fb950" opacity="0.5"/>
<rect x="302.74867302415544" y="498.8451058497742" width="1.1305609284332687" height="40.1548941502258" fill="#f85149" opacity="0.5"/>
<rect x="304.366890078419" y="493.457553203902" width="1.1305609284332687" height="45.54244679609798" fill="#3fb950" opacity="0.5"/>
<rect x="305.9851071326826" y="491.6601073629415" width="1.1305609284332687" height="47.33989263705848" fill="#f85149" opacity="0.5"/>
<rect x="307.60332418694617" y="502.45204274258936" width="1.1305609284332687" height="36.547957257410644" fill="#3fb950" opacity="0.5"/>
<rect x="309.2215412412097" y="506.6326466406314" width="1.1305609284332687" height="32.36735335936862" fill="#3fb950" opacity="0.5"/>
<rect x="310.83975829547325" y="512.0308533107593" width="1.1305609284332687" height="26.969146689240688" fill="#f85149" opacity="0.5"/>
<rect x="312.45797534973684" y="516.011206835541" width="1.1305609284332687" height="22.988793164459025" fill="#f85149" opacity="0.5"/>
<rect x="314.07619240400044" y="511.82506837944396" width="1.1305609284332687" height="27.174931620556038" fill="#3fb950" opacity="0.5"/>
<rect x="315.694409458264" y="509.7411638763928" width="1.1305609284332687" height="29.258836123607182" fill="#3fb950" opacity="0.5"/>
<rect x="317.3126265125275" y="516.9645973532089" width="1.1305609284332687" height="22.035402646791113" fill="#f85149" opacity="0.5"/>
<rect x="318.9308435667911" y="501.5405387665645" width="1.1305609284332687" height="37.45946123343549" fill="#3fb950" opacity="0.5"/>
<rect x="320.5490606210547" y="492.0773727889524" width="1.1305609284332687" height="46.9226272110476" fill="#3fb950" opacity="0.5"/>
<rect x="322.16727767531825" y="500.16009168654494" width="1.1305609284332687" height="38.839908313455055" fill="#3fb950" opacity="0.5"/>
<rect x="323.7854947295818" y="469.1711979977125" width="1.1305609284332687" height="69.82880200228749" fill="#3fb950" opacity="0.5"/>
<rect x="325.4037117838454" y="490.2553862144347" width="1.1305609284332687" height="48.74461378556532" fill="#f85149" opacity="0.5"/>
<rect x="327.021928838109" y="507.2449700181638" width="1.1305609284332687" height="31.755029981836174" fill="#f85149" opacity="0.5"/>
<rect x="328.64014589237246" y="517.2874256088451" width="1.1305609284332687" height="21.71257439115493" fill="#f85149" opacity="0.5"/>
<rect x="330.25836294663605" y="519.5508686594901" width="1.1305609284332687" height="19.449131340509894" fill="#3fb950" opacity="0.5"/>
<rect x="331.87658000089965" y="521.2710495542955" width="1.1305609284332687" height="17.728950445704527" fill="#f85149" opacity="0.5"/>
<rect x="333.4947970551632" y="506.4293774175228" width="1.1305609284332687" height="32.5706225824772" fill="#f85149" opacity="0.5"/>
<rect x="335.11301410942673" y="523.9953099714273" width="1.1305609284332687" height="15.004690028572668" fill="#3fb950" opacity="0.5"/>
<rect x="336.7312311636903" y="513.2328586919631" width="1.1305609284332687" height="25.767141308036912" fill="#3fb950" opacity="0.5"/>
<rect x="338.3494482179539" y="525.8836005514432" width="1.1305609284332687" height="13.116399448556763" fill="#f85149" opacity="0.5"/>
<rect x="339.96766527221746" y="522.9917310750341" width="1.1305609284332687" height="16.008268924965932" fill="#3fb950" opacity="0.5"/>
<rect x="341.58588232648106" y="526.2428436833727" width="1.1305609284332687" height="12.757156316627288" fill="#f85149" opacity="0.5"/>
<rect x="343.2040993807446" y="524.2808428528979" width="1.1305609284332687" height="14.719157147102123" fill="#f85149" opacity="0.5"/>
<rect x="344.8223164350082" y="520.0536983530303" width="1.1305609284332687" height="18.946301646969687" fill="#3fb950" opacity="0.5"/>
<rect x="346.44053348927173" y="521.3693357582265" width="1.1305609284332687" height="17.630664241773502" fill="#f85149" opacity="0.5"/>
<rect x="348.0587505435353" y="528.0546466710693" width="1.1305609284332687" height="10.94535332893065" fill="#f85149" opacity="0.5"/>
<rect x="349.67696759779886" y="528.5062263570209" width="1.1305609284332687" height="10.493773642979136" fill="#3fb950" opacity="0.5"/>
<rect x="351.29518465206246" y="525.839072516183" width="1.1305609284332687" height="13.160927483816977" fill="#f85149" opacity="0.5"/>
<rect x="352.913401706326" y="528.9892423327243" width="1.1305609284332687" height="10.010757667275698" fill="#3fb950" opacity="0.5"/>
<rect x="354.53161876058954" y="528.714526996543" width="1.1305609284332687" height="10.285473003457014" fill="#f85149" opacity="0.5"/>
<rect x="356.14983581485313" y="529.1409395375937" width="1.1305609284332687" height="9.859060462406319" fill="#3fb950" opacity="0.5"/>
<rect x="357.7680528691167" y="524.2292708346588" width="1.1305609284332687" height="14.770729165341208" fill="#3fb950" opacity="0.5"/>
<rect x="359.38626992338027" y="528.6767913734411" width="1.1305609284332687" height="10.32320862655888" fill="#f85149" opacity="0.5"/>
<rect x="361.0044869776438" y="528.5422009843779" width="1.1305609284332687" height="10.457799015622072" fill="#f85149" opacity="0.5"/>
<rect x="362.6227040319074" y="531.9947589273752" width="1.1305609284332687" height="7.005241072624813" fill="#f85149" opacity="0.5"/>
<rect x="364.24092108617094" y="523.7925438899601" width="1.1305609284332687" height="15.207456110039857" fill="#3fb950" opacity="0.5"/>
<rect x="365.85913814043454" y="527.8370479740149" width="1.1305609284332687" height="11.162952025985078" fill="#3fb950" opacity="0.5"/>
<rect x="367.4773551946981" y="531.4885984361692" width="1.1305609284332687" height="7.511401563830759" fill="#f85149" opacity="0.5"/>
<rect x="369.0955722489617" y="526.3036986648949" width="1.1305609284332687" height="12.69630133510509" fill="#f85149" opacity="0.5"/>
<rect x="370.7137893032252" y="520.4549538120132" width="1.1305609284332687" height="18.545046187986827" fill="#3fb950" opacity="0.5"/>
<rect x="372.3320063574888" y="527.0750298953457" width="1.1305609284332687" height="11.924970104654335" fill="#f85149" opacity="0.5"/>
<rect x="373.95022341175235" y="527.5004462159466" width="1.1305609284332687" height="11.499553784053433" fill="#3fb950" opacity="0.5"/>
<rect x="375.56844046601594" y="490.4536240211296" width="1.1305609284332687" height="48.5463759788704" fill="#3fb950" opacity="0.5"/>
<rect x="377.1866575202795" y="461.5024917154194" width="1.1305609284332687" height="77.49750828458059" fill="#3fb950" opacity="0.5"/>
<rect x="378.8048745745431" y="465.1218562067761" width="1.1305609284332687" height="73.8781437932239" fill="#3fb950" opacity="0.5"/>
<rect x="380.4230916288066" y="458.1650475485484" width="1.1305609284332687" height="80.83495245145161" fill="#3fb950" opacity="0.5"/>
<rect x="382.04130868307016" y="480.15504920933165" width="1.1305609284332687" height="58.84495079066835" fill="#3fb950" opacity="0.5"/>
<rect x="383.65952573733375" y="486.6882503411591" width="1.1305609284332687" height="52.31174965884088" fill="#f85149" opacity="0.5"/>
<rect x="385.2777427915973" y="471.05852003006873" width="1.1305609284332687" height="67.94147996993127" fill="#3fb950" opacity="0.5"/>
<rect x="386.8959598458609" y="467.64393418674473" width="1.1305609284332687" height="71.35606581325527" fill="#f85149" opacity="0.5"/>
<rect x="388.5141769001244" y="486.26615223968304" width="1.1305609284332687" height="52.73384776031696" fill="#f85149" opacity="0.5"/>
<rect x="390.132393954388" y="510.08344358788395" width="1.1305609284332687" height="28.91655641211605" fill="#3fb950" opacity="0.5"/>
<rect x="391.75061100865156" y="508.1525218165958" width="1.1305609284332687" height="30.847478183404178" fill="#f85149" opacity="0.5"/>
<rect x="393.36882806291516" y="500.89724953671464" width="1.1305609284332687" height="38.10275046328536" fill="#3fb950" opacity="0.5"/>
<rect x="394.9870451171787" y="501.3045426953938" width="1.1305609284332687" height="37.69545730460618" fill="#f85149" opacity="0.5"/>
<rect x="396.6052621714423" y="507.7013194868754" width="1.1305609284332687" height="31.298680513124623" fill="#3fb950" opacity="0.5"/>
<rect x="398.22347922570583" y="511.3103821531252" width="1.1305609284332687" height="27.689617846874796" fill="#f85149" opacity="0.5"/>
<rect x="399.8416962799694" y="465.2879004955488" width="1.1305609284332687" height="73.7120995044512" fill="#3fb950" opacity="0.5"/>
<rect x="401.45991333423297" y="489.2360212490437" width="1.1305609284332687" height="49.76397875095631" fill="#f85149" opacity="0.5"/>
<rect x="403.07813038849656" y="510.60191595505387" width="1.1305609284332687" height="28.39808404494613" fill="#3fb950" opacity="0.5"/>
<rect x="404.6963474427601" y="521.0451389573259" width="1.1305609284332687" height="17.95486104267411" fill="#f85149" opacity="0.5"/>
<rect x="406.31456449702364" y="519.672900633185" width="1.1305609284332687" height="19.32709936681499" fill="#3fb950" opacity="0.5"/>
<rect x="407.93278155128723" y="497.08955158187314" width="1.1305609284332687" height="41.91044841812686" fill="#3fb950" opacity="0.5"/>
<rect x="409.5509986055508" y="511.29123509796335" width="1.1305609284332687" height="27.70876490203665" fill="#f85149" opacity="0.5"/>
<rect x="411.16921565981437" y="518.1082559139726" width="1.1305609284332687" height="20.891744086027416" fill="#f85149" opacity="0.5"/>
<rect x="412.7874327140779" y="525.2614659119043" width="1.1305609284332687" height="13.738534088095662" fill="#f85149" opacity="0.5"/>
<rect x="414.4056497683415" y="487.0588091286028" width="1.1305609284332687" height="51.941190871397225" fill="#3fb950" opacity="0.5"/>
<rect x="416.02386682260504" y="509.35469826595767" width="1.1305609284332687" height="29.645301734042334" fill="#f85149" opacity="0.5"/>
<rect x="417.64208387686864" y="438.1666666666667" width="1.1305609284332687" height="100.83333333333331" fill="#3fb950" opacity="0.5"/>
<rect x="419.2603009311322" y="458.44654523405524" width="1.1305609284332687" height="80.55345476594476" fill="#3fb950" opacity="0.5"/>
<rect x="420.8785179853958" y="486.91980870305304" width="1.1305609284332687" height="52.080191296946964" fill="#f85149" opacity="0.5"/>
<rect x="422.4967350396593" y="507.7826925845321" width="1.1305609284332687" height="31.21730741546787" fill="#f85149" opacity="0.5"/>
<rect x="424.1149520939229" y="511.44771214842564" width="1.1305609284332687" height="27.552287851574363" fill="#f85149" opacity="0.5"/>
<rect x="425.73316914818645" y="501.3935132318351" width="1.1305609284332687" height="37.60648676816493" fill="#f85149" opacity="0.5"/>
<rect x="427.35138620245004" y="500.98739742459674" width="1.1305609284332687" height="38.012602575403264" fill="#f85149" opacity="0.5"/>
<rect x="428.9696032567136" y="505.6226702982682" width="1.1305609284332687" height="33.37732970173181" fill="#3fb950" opacity="0.5"/>
<rect x="430.5878203109772" y="515.7546045984485" width="1.1305609284332687" height="23.24539540155149" fill="#f85149" opacity="0.5"/>
<rect x="432.2060373652407" y="517.4532107796724" width="1.1305609284332687" height="21.546789220327582" fill="#f85149" opacity="0.5"/>
<rect x="433.82425441950426" y="520.7705343123056" width="1.1305609284332687" height="18.229465687694415" fill="#f85149" opacity="0.5"/>
<rect x="435.44247147376785" y="518.7487979904606" width="1.1305609284332687" height="20.251202009539384" fill="#f85149" opacity="0.5"/>
<rect x="437.0606885280314" y="520.9570891700882" width="1.1305609284332687" height="18.04291082991176" fill="#3fb950" opacity="0.5"/>
<rect x="438.678905582295" y="519.8363411639638" width="1.1305609284332687" height="19.163658836036234" fill="#3fb950" opacity="0.5"/>
<rect x="440.2971226365585" y="520.3349545305493" width="1.1305609284332687" height="18.66504546945066" fill="#3fb950" opacity="0.5"/>
<rect x="441.9153396908221" y="511.5563907429589" width="1.1305609284332687" height="27.44360925704109" fill="#f85149" opacity="0.5"/>
<rect x="443.53355674508566" y="511.3480901034368" width="1.1305609284332687" height="27.65190989656321" fill="#3fb950" opacity="0.5"/>
<rect x="445.15177379934926" y="512.4024007715282" width="1.1305609284332687" height="26.597599228471836" fill="#3fb950" opacity="0.5"/>
<rect x="446.7699908536128" y="514.5198950105564" width="1.1305609284332687" height="24.48010498944359" fill="#3fb950" opacity="0.5"/>
<rect x="448.3882079078764" y="524.2743020115603" width="1.1305609284332687" height="14.72569798843972" fill="#f85149" opacity="0.5"/>
<rect x="450.00642496213993" y="513.9858101582552" width="1.1305609284332687" height="25.014189841744837" fill="#3fb950" opacity="0.5"/>
<rect x="451.6246420164035" y="509.34005181277774" width="1.1305609284332687" height="29.659948187222255" fill="#3fb950" opacity="0.5"/>
<rect x="453.24285907066707" y="520.6680342971282" width="1.1305609284332687" height="18.3319657028718" fill="#f85149" opacity="0.5"/>
<rect x="454.86107612493066" y="527.8883684214335" width="1.1305609284332687" height="11.111631578566517" fill="#3fb950" opacity="0.5"/>
<rect x="456.47929317919426" y="528.873519755212" width="1.1305609284332687" height="10.126480244788013" fill="#3fb950" opacity="0.5"/>
<rect x="458.09751023345774" y="527.9618271010717" width="1.1305609284332687" height="11.038172898928337" fill="#3fb950" opacity="0.5"/>
<rect x="459.71572728772134" y="527.0594425672964" width="1.1305609284332687" height="11.9405574327036" fill="#f85149" opacity="0.5"/>
<rect x="461.3339443419849" y="527.4435912104732" width="1.1305609284332687" height="11.556408789526813" fill="#3fb950" opacity="0.5"/>
<rect x="462.95216139624847" y="522.5441891007545" width="1.1305609284332687" height="16.455810899245535" fill="#f85149" opacity="0.5"/>
<rect x="464.570378450512" y="525.076752552529" width="1.1305609284332687" height="13.923247447470999" fill="#f85149" opacity="0.5"/>
<rect x="466.1885955047756" y="523.9837377136762" width="1.1305609284332687" height="15.016262286323808" fill="#f85149" opacity="0.5"/>
<rect x="467.80681255903914" y="527.5710470510619" width="1.1305609284332687" height="11.428952948938104" fill="#3fb950" opacity="0.5"/>
<rect x="469.42502961330274" y="520.233319918995" width="1.1305609284332687" height="18.766680081005006" fill="#3fb950" opacity="0.5"/>
<rect x="471.0432466675663" y="519.1622772756202" width="1.1305609284332687" height="19.837722724379773" fill="#3fb950" opacity="0.5"/>
<rect x="472.6614637218299" y="515.1028801989813" width="1.1305609284332687" height="23.897119801018675" fill="#f85149" opacity="0.5"/>
<rect x="474.2796807760934" y="525.160681609724" width="1.1305609284332687" height="13.839318390276048" fill="#3fb950" opacity="0.5"/>
<rect x="475.897897830357" y="526.8383118159197" width="1.1305609284332687" height="12.161688184080276" fill="#f85149" opacity="0.5"/>
<rect x="477.5161148846206" y="517.8405392780226" width="1.1305609284332687" height="21.15946072197744" fill="#3fb950" opacity="0.5"/>
<rect x="479.13433193888415" y="501.43840352907705" width="1.1305609284332687" height="37.56159647092295" fill="#3fb950" opacity="0.5"/>
<rect x="480.75254899314774" y="507.57125234116796" width="1.1305609284332687" height="31.428747658832037" fill="#3fb950" opacity="0.5"/>
<rect x="482.3707660474113" y="513.7158721519585" width="1.1305609284332687" height="25.28412784804152" fill="#f85149" opacity="0.5"/>
<rect x="483.9889831016748" y="502.8978061111667" width="1.1305609284332687" height="36.10219388883331" fill="#3fb950" opacity="0.5"/>
<rect x="485.60720015593836" y="512.4780330230572" width="1.1305609284332687" height="26.52196697694285" fill="#3fb950" opacity="0.5"/>
<rect x="487.22541721020195" y="516.5094931600597" width="1.1305609284332687" height="22.49050683994028" fill="#f85149" opacity="0.5"/>
<rect x="488.8436342644655" y="506.3361729441695" width="1.1305609284332687" height="32.663827055830495" fill="#3fb950" opacity="0.5"/>
<rect x="490.4618513187291" y="517.384931943232" width="1.1305609284332687" height="21.615068056767996" fill="#f85149" opacity="0.5"/>
<rect x="492.0800683729926" y="510.0281206487084" width="1.1305609284332687" height="28.97187935129159" fill="#f85149" opacity="0.5"/>
<rect x="493.6982854272562" y="515.1875639686382" width="1.1305609284332687" height="23.812436031361813" fill="#3fb950" opacity="0.5"/>
<rect x="495.31650248151976" y="511.0137524827545" width="1.1305609284332687" height="27.986247517245488" fill="#3fb950" opacity="0.5"/>
<rect x="496.93471953578336" y="521.6296989790882" width="1.1305609284332687" height="17.370301020911825" fill="#f85149" opacity="0.5"/>
<rect x="498.55293659004695" y="522.0201318613654" width="1.1305609284332687" height="16.97986813863463" fill="#3fb950" opacity="0.5"/>
<rect x="500.1711536443105" y="517.7286808283159" width="1.1305609284332687" height="21.271319171684127" fill="#f85149" opacity="0.5"/>
<rect x="501.7893706985741" y="515.6844163394791" width="1.1305609284332687" height="23.31558366052093" fill="#3fb950" opacity="0.5"/>
<rect x="503.4075877528376" y="518.538738870902" width="1.1305609284332687" height="20.461261129098034" fill="#f85149" opacity="0.5"/>
<rect x="505.0258048071012" y="523.1802205124277" width="1.1305609284332687" height="15.819779487572305" fill="#3fb950" opacity="0.5"/>
<rect x="506.64402186136476" y="518.2585820578693" width="1.1305609284332687" height="20.741417942130738" fill="#f85149" opacity="0.5"/>
<rect x="508.26223891562836" y="524.4924139130889" width="1.1305609284332687" height="14.507586086911147" fill="#f85149" opacity="0.5"/>
<rect x="509.8804559698919" y="511.80675402369855" width="1.1305609284332687" height="27.193245976301455" fill="#f85149" opacity="0.5"/>
<rect x="511.4986730241555" y="521.6455529722074" width="1.1305609284332687" height="17.354447027792617" fill="#3fb950" opacity="0.5"/>
<rect x="513.1168900784191" y="510.7704482792431" width="1.1305609284332687" height="28.229551720756888" fill="#3fb950" opacity="0.5"/>
<rect x="514.7351071326827" y="518.9935789146894" width="1.1305609284332687" height="20.00642108531065" fill="#f85149" opacity="0.5"/>
<rect x="516.3533241869462" y="520.9338616362149" width="1.1305609284332687" height="18.066138363785058" fill="#3fb950" opacity="0.5"/>
<rect x="517.9715412412098" y="523.772322627394" width="1.1305609284332687" height="15.227677372605967" fill="#f85149" opacity="0.5"/>
<rect x="519.5897582954733" y="519.4573950053586" width="1.1305609284332687" height="19.54260499464135" fill="#f85149" opacity="0.5"/>
<rect x="521.2079753497369" y="522.8841216564887" width="1.1305609284332687" height="16.115878343511326" fill="#f85149" opacity="0.5"/>
<rect x="522.8261924040005" y="528.5623266500322" width="1.1305609284332687" height="10.437673349967781" fill="#f85149" opacity="0.5"/>
<rect x="524.444409458264" y="526.3625913940159" width="1.1305609284332687" height="12.637408605984092" fill="#3fb950" opacity="0.5"/>
<rect x="526.0626265125276" y="516.3389080179737" width="1.1305609284332687" height="22.661091982026278" fill="#3fb950" opacity="0.5"/>
<rect x="527.680843566791" y="509.1395498686967" width="1.1305609284332687" height="29.86045013130331" fill="#3fb950" opacity="0.5"/>
<rect x="529.2990606210547" y="518.3835196745431" width="1.1305609284332687" height="20.616480325456905" fill="#f85149" opacity="0.5"/>
<rect x="530.9172776753182" y="524.528388540446" width="1.1305609284332687" height="14.47161145955397" fill="#3fb950" opacity="0.5"/>
<rect x="532.5354947295818" y="447.8166919027544" width="1.1305609284332687" height="91.18330809724557" fill="#3fb950" opacity="0.5"/>
<rect x="534.1537117838454" y="476.5471135803584" width="1.1305609284332687" height="62.45288641964157" fill="#f85149" opacity="0.5"/>
<rect x="535.771928838109" y="490.52808898405056" width="1.1305609284332687" height="48.471911015949445" fill="#f85149" opacity="0.5"/>
<rect x="537.3901458923725" y="508.0117578795931" width="1.1305609284332687" height="30.98824212040688" fill="#f85149" opacity="0.5"/>
<rect x="539.0083629466361" y="504.99190174816357" width="1.1305609284332687" height="34.00809825183643" fill="#f85149" opacity="0.5"/>
<rect x="540.6265800008997" y="514.6819066190736" width="1.1305609284332687" height="24.31809338092637" fill="#f85149" opacity="0.5"/>
<rect x="542.2447970551632" y="500.9316845506492" width="1.1305609284332687" height="38.06831544935079" fill="#3fb950" opacity="0.5"/>
<rect x="543.8630141094268" y="513.7271953545971" width="1.1305609284332687" height="25.272804645402857" fill="#f85149" opacity="0.5"/>
<rect x="545.4812311636904" y="519.9201142472498" width="1.1305609284332687" height="19.079885752750215" fill="#f85149" opacity="0.5"/>
<rect x="547.099448217954" y="518.1052823468722" width="1.1305609284332687" height="20.894717653127827" fill="#3fb950" opacity="0.5"/>
<rect x="548.7176652722176" y="512.9256907199142" width="1.1305609284332687" height="26.0743092800858" fill="#3fb950" opacity="0.5"/>
<rect x="550.3358823264812" y="514.7161202506859" width="1.1305609284332687" height="24.28387974931411" fill="#f85149" opacity="0.5"/>
<rect x="551.9540993807447" y="519.3015015992004" width="1.1305609284332687" height="19.698498400799622" fill="#3fb950" opacity="0.5"/>
<rect x="553.5723164350082" y="517.3870476538339" width="1.1305609284332687" height="21.61295234616614" fill="#3fb950" opacity="0.5"/>
<rect x="555.1905334892717" y="522.1917987579803" width="1.1305609284332687" height="16.808201242019663" fill="#f85149" opacity="0.5"/>
<rect x="556.8087505435353" y="497.8015045515191" width="1.1305609284332687" height="41.19849544848091" fill="#3fb950" opacity="0.5"/>
<rect x="558.4269675977989" y="509.9405513617383" width="1.1305609284332687" height="29.0594486382617" fill="#3fb950" opacity="0.5"/>
<rect x="560.0451846520625" y="517.9840428212624" width="1.1305609284332687" height="21.015957178737608" fill="#f85149" opacity="0.5"/>
<rect x="561.6634017063261" y="496.74039643985293" width="1.1305609284332687" height="42.25960356014707" fill="#3fb950" opacity="0.5"/>
<rect x="563.2816187605897" y="498.9870974523818" width="1.1305609284332687" height="40.01290254761818" fill="#3fb950" opacity="0.5"/>
<rect x="564.8998358148532" y="487.4125453752676" width="1.1305609284332687" height="51.5874546247324" fill="#f85149" opacity="0.5"/>
<rect x="566.5180528691168" y="500.18395821030276" width="1.1305609284332687" height="38.81604178969724" fill="#3fb950" opacity="0.5"/>
<rect x="568.1362699233803" y="468.64656466114405" width="1.1305609284332687" height="70.35343533885595" fill="#3fb950" opacity="0.5"/>
<rect x="569.7544869776439" y="500.9000193314503" width="1.1305609284332687" height="38.09998066854968" fill="#f85149" opacity="0.5"/>
<rect x="571.3727040319075" y="508.30186935000006" width="1.1305609284332687" height="30.69813064999994" fill="#f85149" opacity="0.5"/>
<rect x="572.990921086171" y="512.9400302566929" width="1.1305609284332687" height="26.05996974330708" fill="#f85149" opacity="0.5"/>
<rect x="574.6091381404347" y="500.69532370178854" width="1.1305609284332687" height="38.30467629821146" fill="#f85149" opacity="0.5"/>
<rect x="576.227355194698" y="508.5273069938268" width="1.1305609284332687" height="30.472693006173188" fill="#3fb950" opacity="0.5"/>
<rect x="577.8455722489616" y="516.0768416626561" width="1.1305609284332687" height="22.92315833734392" fill="#f85149" opacity="0.5"/>
<rect x="579.4637893032252" y="517.9528304295408" width="1.1305609284332687" height="21.047169570459232" fill="#f85149" opacity="0.5"/>
<rect x="581.0820063574888" y="523.5210989744477" width="1.1305609284332687" height="15.478901025552318" fill="#3fb950" opacity="0.5"/>
<rect x="582.7002234117524" y="522.7258836102816" width="1.1305609284332687" height="16.274116389718415" fill="#f85149" opacity="0.5"/>
<rect x="584.318440466016" y="512.0222722300659" width="1.1305609284332687" height="26.977727769934063" fill="#3fb950" opacity="0.5"/>
<rect x="585.9366575202796" y="509.1397209368547" width="1.1305609284332687" height="29.8602790631453" fill="#f85149" opacity="0.5"/>
<rect x="587.5548745745431" y="518.0177105441938" width="1.1305609284332687" height="20.982289455806153" fill="#f85149" opacity="0.5"/>
<rect x="589.1730916288067" y="507.93902875533485" width="1.1305609284332687" height="31.060971244665154" fill="#3fb950" opacity="0.5"/>
<rect x="590.7913086830702" y="515.9480625595505" width="1.1305609284332687" height="23.05193744044948" fill="#f85149" opacity="0.5"/>
<rect x="592.4095257373338" y="472.9480357599813" width="1.1305609284332687" height="66.05196424001872" fill="#3fb950" opacity="0.5"/>
<rect x="594.0277427915973" y="498.80879411751744" width="1.1305609284332687" height="40.19120588248256" fill="#f85149" opacity="0.5"/>
<rect x="595.645959845861" y="512.2482582982818" width="1.1305609284332687" height="26.751741701718174" fill="#f85149" opacity="0.5"/>
<rect x="597.2641769001245" y="512.2843083968851" width="1.1305609284332687" height="26.71569160311492" fill="#3fb950" opacity="0.5"/>
<rect x="598.882393954388" y="504.1680525931879" width="1.1305609284332687" height="34.831947406812105" fill="#f85149" opacity="0.5"/>
<rect x="600.5006110086516" y="507.5353531850571" width="1.1305609284332687" height="31.46464681494291" fill="#f85149" opacity="0.5"/>
<rect x="602.1188280629152" y="511.2761408487226" width="1.1305609284332687" height="27.723859151277395" fill="#f85149" opacity="0.5"/>
<rect x="603.7370451171788" y="523.2000946072613" width="1.1305609284332687" height="15.799905392738651" fill="#3fb950" opacity="0.5"/>
<rect x="605.3552621714423" y="516.2553814740919" width="1.1305609284332687" height="22.744618525908095" fill="#3fb950" opacity="0.5"/>
<rect x="606.9734792257059" y="518.2544638435347" width="1.1305609284332687" height="20.745536156465278" fill="#f85149" opacity="0.5"/>
<rect x="608.5916962799695" y="506.00019759744464" width="1.1305609284332687" height="32.99980240255536" fill="#3fb950" opacity="0.5"/>
<rect x="610.2099133342331" y="514.9834192790737" width="1.1305609284332687" height="24.0165807209263" fill="#f85149" opacity="0.5"/>
<rect x="611.8281303884966" y="516.8894405705311" width="1.1305609284332687" height="22.110559429468935" fill="#3fb950" opacity="0.5"/>
<rect x="613.4463474427602" y="520.0534014994619" width="1.1305609284332687" height="18.94659850053813" fill="#3fb950" opacity="0.5"/>
<rect x="615.0645644970238" y="522.9212811824111" width="1.1305609284332687" height="16.07871881758888" fill="#f85149" opacity="0.5"/>
<rect x="616.6827815512873" y="519.8523561624081" width="1.1305609284332687" height="19.147643837591886" fill="#3fb950" opacity="0.5"/>
<rect x="618.3009986055508" y="513.4611994630606" width="1.1305609284332687" height="25.538800536939448" fill="#3fb950" opacity="0.5"/>
<rect x="619.9192156598144" y="522.7865121780652" width="1.1305609284332687" height="16.21348782193479" fill="#f85149" opacity="0.5"/>
<rect x="621.537432714078" y="503.1262525420088" width="1.1305609284332687" height="35.873747457991215" fill="#3fb950" opacity="0.5"/>
<rect x="623.1556497683416" y="515.1950381377206" width="1.1305609284332687" height="23.804961862279356" fill="#3fb950" opacity="0.5"/>
<rect x="624.7738668226052" y="493.62912953502143" width="1.1305609284332687" height="45.370870464978566" fill="#3fb950" opacity="0.5"/>
<rect x="626.3920838768687" y="455.52175771576026" width="1.1305609284332687" height="83.47824228423974" fill="#3fb950" opacity="0.5"/>
<rect x="628.0103009311322" y="498.90640359594084" width="1.1305609284332687" height="40.093596404059156" fill="#f85149" opacity="0.5"/>
<rect x="629.6285179853958" y="510.06080221402283" width="1.1305609284332687" height="28.93919778597717" fill="#f85149" opacity="0.5"/>
<rect x="631.2467350396594" y="504.81353803630225" width="1.1305609284332687" height="34.18646196369775" fill="#3fb950" opacity="0.5"/>
<rect x="632.864952093923" y="503.80901574933137" width="1.1305609284332687" height="35.190984250668635" fill="#3fb950" opacity="0.5"/>
<rect x="634.4831691481864" y="497.3242747046912" width="1.1305609284332687" height="41.67572529530878" fill="#3fb950" opacity="0.5"/>
<rect x="636.10138620245" y="513.4066941290523" width="1.1305609284332687" height="25.593305870947688" fill="#f85149" opacity="0.5"/>
<rect x="637.7196032567136" y="515.0222819394522" width="1.1305609284332687" height="23.977718060547772" fill="#f85149" opacity="0.5"/>
<rect x="639.3378203109772" y="511.1306473802912" width="1.1305609284332687" height="27.86935261970882" fill="#3fb950" opacity="0.5"/>
<rect x="640.9560373652407" y="505.4157985810075" width="1.1305609284332687" height="33.58420141899251" fill="#f85149" opacity="0.5"/>
<rect x="642.5742544195043" y="522.4657593816996" width="1.1305609284332687" height="16.534240618300373" fill="#f85149" opacity="0.5"/>
<rect x="644.1924714737679" y="516.742274156142" width="1.1305609284332687" height="22.257725843857997" fill="#f85149" opacity="0.5"/>
<rect x="645.8106885280315" y="525.597816099152" width="1.1305609284332687" height="13.402183900847945" fill="#f85149" opacity="0.5"/>
<rect x="647.428905582295" y="529.8908721540375" width="1.1305609284332687" height="9.109127845962462" fill="#3fb950" opacity="0.5"/>
<rect x="649.0471226365586" y="527.4638175044557" width="1.1305609284332687" height="11.536182495544267" fill="#f85149" opacity="0.5"/>
<rect x="650.6653396908222" y="527.1077441648667" width="1.1305609284332687" height="11.892255835133255" fill="#f85149" opacity="0.5"/>
<rect x="652.2835567450858" y="529.8395315809533" width="1.1305609284332687" height="9.160468419046651" fill="#3fb950" opacity="0.5"/>
<rect x="653.9017737993493" y="530.3064671497991" width="1.1305609284332687" height="8.693532850200882" fill="#3fb950" opacity="0.5"/>
<rect x="655.5199908536129" y="531.3213038404177" width="1.1305609284332687" height="7.678696159582273" fill="#3fb950" opacity="0.5"/>
<rect x="657.1382079078764" y="531.2420590319039" width="1.1305609284332687" height="7.757940968096136" fill="#3fb950" opacity="0.5"/>
<rect x="658.75642496214" y="530.3907433747265" width="1.1305609284332687" height="8.609256625273474" fill="#3fb950" opacity="0.5"/>
<rect x="660.3746420164035" y="526.4370563569369" width="1.1305609284332687" height="12.562943643063136" fill="#3fb950" opacity="0.5"/>
<rect x="661.9928590706671" y="522.9166598264353" width="1.1305609284332687" height="16.083340173564693" fill="#3fb950" opacity="0.5"/>
<rect x="663.6110761249307" y="524.4906529173442" width="1.1305609284332687" height="14.509347082655836" fill="#3fb950" opacity="0.5"/>
<rect x="665.2292931791943" y="520.7652639036123" width="1.1305609284332687" height="18.234736096387678" fill="#3fb950" opacity="0.5"/>
<rect x="666.8475102334579" y="525.9540403812333" width="1.1305609284332687" height="13.045959618766688" fill="#3fb950" opacity="0.5"/>
<rect x="668.4657272877214" y="519.2167222326316" width="1.1305609284332687" height="19.783277767368418" fill="#3fb950" opacity="0.5"/>
<rect x="670.083944341985" y="522.4076465221228" width="1.1305609284332687" height="16.592353477877168" fill="#f85149" opacity="0.5"/>
<rect x="671.7021613962486" y="524.4748039556414" width="1.1305609284332687" height="14.525196044358609" fill="#f85149" opacity="0.5"/>
<rect x="673.3203784505122" y="526.2546675119446" width="1.1305609284332687" height="12.745332488055396" fill="#f85149" opacity="0.5"/>
<rect x="674.9385955047757" y="527.3055970682061" width="1.1305609284332687" height="11.694402931793888" fill="#f85149" opacity="0.5"/>
<rect x="676.5568125590393" y="530.4591706379512" width="1.1305609284332687" height="8.54082936204884" fill="#3fb950" opacity="0.5"/>
<rect x="678.1750296133029" y="531.6118681383019" width="1.1305609284332687" height="7.388131861698071" fill="#f85149" opacity="0.5"/>
<rect x="679.7932466675663" y="532.6792831304425" width="1.1305609284332687" height="6.3207168695574865" fill="#f85149" opacity="0.5"/>
<rect x="681.4114637218299" y="531.346209351665" width="1.1305609284332687" height="7.653790648334962" fill="#f85149" opacity="0.5"/>
<rect x="683.0296807760934" y="522.718588056482" width="1.1305609284332687" height="16.281411943518037" fill="#3fb950" opacity="0.5"/>
<rect x="684.647897830357" y="526.3316481830724" width="1.1305609284332687" height="12.668351816927611" fill="#3fb950" opacity="0.5"/>
<rect x="686.2661148846206" y="525.7161726231568" width="1.1305609284332687" height="13.283827376843192" fill="#3fb950" opacity="0.5"/>
<rect x="687.8843319388842" y="529.7369108117821" width="1.1305609284332687" height="9.263089188217918" fill="#f85149" opacity="0.5"/>
<rect x="689.5025489931477" y="530.8057496947677" width="1.1305609284332687" height="8.194250305232345" fill="#f85149" opacity="0.5"/>
<rect x="691.1207660474113" y="525.5926513502035" width="1.1305609284332687" height="13.407348649796518" fill="#f85149" opacity="0.5"/>
<rect x="692.7389831016749" y="514.8472943080044" width="1.1305609284332687" height="24.152705691995607" fill="#3fb950" opacity="0.5"/>
<rect x="694.3572001559385" y="512.9862941306158" width="1.1305609284332687" height="26.01370586938424" fill="#3fb950" opacity="0.5"/>
<rect x="695.975417210202" y="504.4236384841648" width="1.1305609284332687" height="34.576361515835174" fill="#3fb950" opacity="0.5"/>
<rect x="697.5936342644655" y="518.8260327481172" width="1.1305609284332687" height="20.1739672518828" fill="#f85149" opacity="0.5"/>
<rect x="699.2118513187291" y="526.4624650098253" width="1.1305609284332687" height="12.537534990174663" fill="#f85149" opacity="0.5"/>
<rect x="700.8300683729927" y="507.7866019950855" width="1.1305609284332687" height="31.213398004914495" fill="#3fb950" opacity="0.5"/>
<rect x="702.4482854272562" y="521.1203586327089" width="1.1305609284332687" height="17.87964136729113" fill="#3fb950" opacity="0.5"/>
<rect x="704.0665024815198" y="519.3679162958596" width="1.1305609284332687" height="19.632083704140427" fill="#3fb950" opacity="0.5"/>
<rect x="705.6847195357834" y="511.43878138429153" width="1.1305609284332687" height="27.56121861570847" fill="#3fb950" opacity="0.5"/>
<rect x="707.302936590047" y="516.1080641172106" width="1.1305609284332687" height="22.891935882789426" fill="#3fb950" opacity="0.5"/>
<rect x="708.9211536443106" y="512.0513060184805" width="1.1305609284332687" height="26.948693981519455" fill="#f85149" opacity="0.5"/>
<rect x="710.5393706985741" y="524.5905265331537" width="1.1305609284332687" height="14.409473466846293" fill="#3fb950" opacity="0.5"/>
<rect x="712.1575877528377" y="529.658418200022" width="1.1305609284332687" height="9.34158179997803" fill="#f85149" opacity="0.5"/>
<rect x="713.7758048071013" y="529.729112116341" width="1.1305609284332687" height="9.270887883659043" fill="#f85149" opacity="0.5"/>
<rect x="715.3940218613649" y="522.1845912539678" width="1.1305609284332687" height="16.815408746032176" fill="#3fb950" opacity="0.5"/>
<rect x="717.0122389156284" y="523.4909255702154" width="1.1305609284332687" height="15.509074429784619" fill="#3fb950" opacity="0.5"/>
<rect x="718.630455969892" y="525.5082317299083" width="1.1305609284332687" height="13.491768270091711" fill="#f85149" opacity="0.5"/>
<rect x="720.2486730241556" y="528.906475532721" width="1.1305609284332687" height="10.093524467279053" fill="#3fb950" opacity="0.5"/>
<rect x="721.8668900784191" y="529.682068372874" width="1.1305609284332687" height="9.317931627125972" fill="#f85149" opacity="0.5"/>
<rect x="723.4851071326826" y="525.4124184671444" width="1.1305609284332687" height="13.587581532855552" fill="#3fb950" opacity="0.5"/>
<rect x="725.1033241869462" y="519.5228839213978" width="1.1305609284332687" height="19.477116078602194" fill="#3fb950" opacity="0.5"/>
<rect x="726.7215412412098" y="523.5622157093794" width="1.1305609284332687" height="15.437784290620584" fill="#f85149" opacity="0.5"/>
<rect x="728.3397582954734" y="530.2259644871818" width="1.1305609284332687" height="8.774035512818159" fill="#f85149" opacity="0.5"/>
<rect x="729.9579753497369" y="526.035800897954" width="1.1305609284332687" height="12.964199102045995" fill="#3fb950" opacity="0.5"/>
<rect x="731.5761924040005" y="521.3532176157456" width="1.1305609284332687" height="17.64678238425438" fill="#f85149" opacity="0.5"/>
<rect x="733.194409458264" y="527.0589394256551" width="1.1305609284332687" height="11.941060574344874" fill="#3fb950" opacity="0.5"/>
<rect x="734.8126265125276" y="523.9935464599744" width="1.1305609284332687" height="15.006453540025632" fill="#3fb950" opacity="0.5"/>
<rect x="736.4308435667912" y="520.5564425124915" width="1.1305609284332687" height="18.443557487508542" fill="#3fb950" opacity="0.5"/>
<rect x="738.0490606210547" y="513.1005324402861" width="1.1305609284332687" height="25.899467559713912" fill="#3fb950" opacity="0.5"/>
<rect x="739.6672776753182" y="513.6299254967817" width="1.1305609284332687" height="25.370074503218348" fill="#3fb950" opacity="0.5"/>
<rect x="741.2854947295818" y="477.70161232778526" width="1.1305609284332687" height="61.298387672214744" fill="#3fb950" opacity="0.5"/>
<rect x="742.9037117838454" y="485.71161467966056" width="1.1305609284332687" height="53.288385320339444" fill="#f85149" opacity="0.5"/>
<rect x="744.5219288381089" y="503.37217559776343" width="1.1305609284332687" height="35.62782440223657" fill="#3fb950" opacity="0.5"/>
<rect x="746.1401458923725" y="502.1403817156831" width="1.1305609284332687" height="36.85961828431692" fill="#3fb950" opacity="0.5"/>
<rect x="747.7583629466361" y="501.87346507494277" width="1.1305609284332687" height="37.12653492505723" fill="#3fb950" opacity="0.5"/>
<rect x="749.3765800008997" y="502.72604110193174" width="1.1305609284332687" height="36.27395889806826" fill="#3fb950" opacity="0.5"/>
<rect x="750.9947970551633" y="511.5724912754823" width="1.1305609284332687" height="27.42750872451768" fill="#3fb950" opacity="0.5"/>
<rect x="752.6130141094268" y="504.10788188429785" width="1.1305609284332687" height="34.89211811570215" fill="#3fb950" opacity="0.5"/>
<rect x="754.2312311636904" y="509.21314188086984" width="1.1305609284332687" height="29.78685811913016" fill="#f85149" opacity="0.5"/>
<rect x="755.849448217954" y="522.2486638262866" width="1.1305609284332687" height="16.751336173713412" fill="#f85149" opacity="0.5"/>
<rect x="757.4676652722176" y="524.8364168847016" width="1.1305609284332687" height="14.163583115298366" fill="#f85149" opacity="0.5"/>
<rect x="759.085882326481" y="525.8347958122315" width="1.1305609284332687" height="13.165204187768495" fill="#3fb950" opacity="0.5"/>
<rect x="760.7040993807447" y="523.0534288188055" width="1.1305609284332687" height="15.946571181194486" fill="#f85149" opacity="0.5"/>
<rect x="762.3223164350082" y="524.2391022223309" width="1.1305609284332687" height="14.760897777669129" fill="#3fb950" opacity="0.5"/>
<rect x="763.9405334892718" y="526.4594461599772" width="1.1305609284332687" height="12.540553840022767" fill="#f85149" opacity="0.5"/>
<rect x="765.5587505435353" y="524.4310306328432" width="1.1305609284332687" height="14.568969367156797" fill="#3fb950" opacity="0.5"/>
<rect x="767.1769675977989" y="521.238974274659" width="1.1305609284332687" height="17.761025725341028" fill="#3fb950" opacity="0.5"/>
<rect x="768.7951846520625" y="528.0498768883093" width="1.1305609284332687" height="10.950123111690687" fill="#f85149" opacity="0.5"/>
<rect x="770.4134017063261" y="527.323088787368" width="1.1305609284332687" height="11.676911212632035" fill="#f85149" opacity="0.5"/>
<rect x="772.0316187605896" y="511.3717377605806" width="1.1305609284332687" height="27.628262239419428" fill="#3fb950" opacity="0.5"/>
<rect x="773.6498358148532" y="520.6106761500134" width="1.1305609284332687" height="18.389323849986567" fill="#f85149" opacity="0.5"/>
<rect x="775.2680528691168" y="527.3082461089479" width="1.1305609284332687" height="11.691753891052144" fill="#3fb950" opacity="0.5"/>
<rect x="776.8862699233804" y="526.5256092858158" width="1.1305609284332687" height="12.47439071418421" fill="#3fb950" opacity="0.5"/>
<rect x="778.5044869776439" y="526.6825894779195" width="1.1305609284332687" height="12.317410522080536" fill="#f85149" opacity="0.5"/>
<rect x="780.1227040319075" y="521.7505435385095" width="1.1305609284332687" height="17.249456461490468" fill="#3fb950" opacity="0.5"/>
<rect x="781.740921086171" y="524.6171930401456" width="1.1305609284332687" height="14.382806959854406" fill="#3fb950" opacity="0.5"/>
<rect x="783.3591381404347" y="527.0916436323433" width="1.1305609284332687" height="11.908356367656665" fill="#f85149" opacity="0.5"/>
<rect x="784.9773551946981" y="525.1336679349994" width="1.1305609284332687" height="13.86633206500062" fill="#f85149" opacity="0.5"/>
<rect x="786.5955722489616" y="526.4508927520742" width="1.1305609284332687" height="12.549107247925804" fill="#3fb950" opacity="0.5"/>
<rect x="788.2137893032252" y="528.969871379532" width="1.1305609284332687" height="10.030128620467963" fill="#f85149" opacity="0.5"/>
<rect x="789.8320063574888" y="522.6328024066304" width="1.1305609284332687" height="16.36719759336961" fill="#f85149" opacity="0.5"/>
<rect x="791.4502234117524" y="529.05062561297" width="1.1305609284332687" height="9.949374387030048" fill="#f85149" opacity="0.5"/>
<rect x="793.068440466016" y="526.8737833016354" width="1.1305609284332687" height="12.126216698364601" fill="#f85149" opacity="0.5"/>
<rect x="794.6866575202795" y="522.7168270607372" width="1.1305609284332687" height="16.28317293926284" fill="#f85149" opacity="0.5"/>
<rect x="796.3048745745431" y="528.4773183540166" width="1.1305609284332687" height="10.522681645983425" fill="#f85149" opacity="0.5"/>
<rect x="797.9230916288067" y="530.5622794545146" width="1.1305609284332687" height="8.437720545485377" fill="#f85149" opacity="0.5"/>
<rect x="799.5413086830703" y="527.7561578923338" width="1.1305609284332687" height="11.243842107666183" fill="#3fb950" opacity="0.5"/>
<rect x="801.1595257373338" y="527.1739072907053" width="1.1305609284332687" height="11.826092709294699" fill="#f85149" opacity="0.5"/>
<rect x="802.7777427915973" y="529.8111242038823" width="1.1305609284332687" height="9.188875796117713" fill="#3fb950" opacity="0.5"/>
<rect x="804.395959845861" y="531.0740097236904" width="1.1305609284332687" height="7.925990276309562" fill="#f85149" opacity="0.5"/>
<rect x="806.0141769001245" y="530.3965295036021" width="1.1305609284332687" height="8.603470496397904" fill="#f85149" opacity="0.5"/>
<rect x="807.632393954388" y="526.3218344053577" width="1.1305609284332687" height="12.678165594642337" fill="#f85149" opacity="0.5"/>
<rect x="809.2506110086516" y="529.594343111995" width="1.1305609284332687" height="9.405656888004955" fill="#3fb950" opacity="0.5"/>
<rect x="810.8688280629152" y="531.2257069285598" width="1.1305609284332687" height="7.774293071440184" fill="#f85149" opacity="0.5"/>
<rect x="812.4870451171788" y="531.6873393845055" width="1.1305609284332687" height="7.312660615494451" fill="#3fb950" opacity="0.5"/>
<rect x="814.1052621714423" y="532.6928679547592" width="1.1305609284332687" height="6.307132045240792" fill="#f85149" opacity="0.5"/>
<rect x="815.7234792257059" y="527.8490730592434" width="1.1305609284332687" height="11.150926940756563" fill="#f85149" opacity="0.5"/>
<rect x="817.3416962799695" y="521.5782175263445" width="1.1305609284332687" height="17.421782473655526" fill="#f85149" opacity="0.5"/>
<rect x="818.9599133342331" y="529.9799282245579" width="1.1305609284332687" height="9.020071775442148" fill="#3fb950" opacity="0.5"/>
<rect x="820.5781303884966" y="533.231229511012" width="1.1305609284332687" height="5.768770488988025" fill="#3fb950" opacity="0.5"/>
<rect x="822.1963474427602" y="534.0646836399212" width="1.1305609284332687" height="4.935316360078787" fill="#f85149" opacity="0.5"/>
<rect x="823.8145644970238" y="534.4256877675955" width="1.1305609284332687" height="4.574312232404509" fill="#3fb950" opacity="0.5"/>
<rect x="825.4327815512873" y="533.7275787402115" width="1.1305609284332687" height="5.27242125978853" fill="#f85149" opacity="0.5"/>
<rect x="827.0509986055508" y="533.7693394964442" width="1.1305609284332687" height="5.230660503555782" fill="#f85149" opacity="0.5"/>
<rect x="828.6692156598144" y="533.532108212544" width="1.1305609284332687" height="5.467891787455983" fill="#3fb950" opacity="0.5"/>
<rect x="830.287432714078" y="533.5122517276678" width="1.1305609284332687" height="5.487748272332169" fill="#f85149" opacity="0.5"/>
<rect x="831.9056497683416" y="534.0933627134787" width="1.1305609284332687" height="4.906637286521345" fill="#f85149" opacity="0.5"/>
<rect x="833.5238668226052" y="529.3024480044696" width="1.1305609284332687" height="9.697551995530375" fill="#3fb950" opacity="0.5"/>
<rect x="835.1420838768687" y="528.1318889758506" width="1.1305609284332687" height="10.868111024149357" fill="#3fb950" opacity="0.5"/>
<rect x="836.7603009311322" y="532.4204922272102" width="1.1305609284332687" height="6.579507772789839" fill="#f85149" opacity="0.5"/>
<rect x="838.3785179853958" y="531.9919916483477" width="1.1305609284332687" height="7.008008351652279" fill="#3fb950" opacity="0.5"/>
<rect x="839.9967350396594" y="530.8240112206407" width="1.1305609284332687" height="8.175988779359272" fill="#f85149" opacity="0.5"/>
<rect x="841.614952093923" y="531.6147083728674" width="1.1305609284332687" height="7.385291627132574" fill="#3fb950" opacity="0.5"/>
<rect x="843.2331691481864" y="524.4069553053043" width="1.1305609284332687" height="14.593044694695664" fill="#3fb950" opacity="0.5"/>
<rect x="844.85138620245" y="519.7309329900993" width="1.1305609284332687" height="19.26906700990071" fill="#3fb950" opacity="0.5"/>
<rect x="846.4696032567136" y="528.7487406281552" width="1.1305609284332687" height="10.251259371844753" fill="#f85149" opacity="0.5"/>
<rect x="848.0878203109772" y="530.2210387305129" width="1.1305609284332687" height="8.778961269487127" fill="#3fb950" opacity="0.5"/>
<rect x="849.7060373652407" y="529.4468496555393" width="1.1305609284332687" height="9.553150344460732" fill="#3fb950" opacity="0.5"/>
<rect x="851.3242544195043" y="531.3503376288323" width="1.1305609284332687" height="7.649662371167665" fill="#f85149" opacity="0.5"/>
<rect x="852.9424714737679" y="531.2053296920848" width="1.1305609284332687" height="7.794670307915226" fill="#f85149" opacity="0.5"/>
<rect x="854.5606885280315" y="525.213919026796" width="1.1305609284332687" height="13.78608097320398" fill="#f85149" opacity="0.5"/>
<rect x="856.178905582295" y="482.6375701934567" width="1.1305609284332687" height="56.362429806543275" fill="#3fb950" opacity="0.5"/>
<rect x="857.7971226365586" y="485.71805992408633" width="1.1305609284332687" height="53.28194007591367" fill="#3fb950" opacity="0.5"/>
<rect x="859.4153396908222" y="510.2721217033931" width="1.1305609284332687" height="28.72787829660689" fill="#f85149" opacity="0.5"/>
<rect x="861.0335567450858" y="517.1335699263343" width="1.1305609284332687" height="21.866430073665697" fill="#f85149" opacity="0.5"/>
<rect x="862.6517737993493" y="511.6283399976731" width="1.1305609284332687" height="27.371660002326905" fill="#3fb950" opacity="0.5"/>
<rect x="864.2699908536129" y="509.0549616959516" width="1.1305609284332687" height="29.94503830404841" fill="#3fb950" opacity="0.5"/>
<rect x="865.8882079078764" y="517.5699396404675" width="1.1305609284332687" height="21.43006035953249" fill="#3fb950" opacity="0.5"/>
<rect x="867.50642496214" y="519.1793815757183" width="1.1305609284332687" height="19.820618424281747" fill="#3fb950" opacity="0.5"/>
<rect x="869.1246420164035" y="512.3385244244496" width="1.1305609284332687" height="26.661475575550412" fill="#f85149" opacity="0.5"/>
<rect x="870.7428590706671" y="520.5555821402847" width="1.1305609284332687" height="18.44441785971526" fill="#f85149" opacity="0.5"/>
<rect x="872.3610761249307" y="524.535432523425" width="1.1305609284332687" height="14.464567476574985" fill="#f85149" opacity="0.5"/>
<rect x="873.9792931791943" y="520.0997358132146" width="1.1305609284332687" height="18.90026418678542" fill="#3fb950" opacity="0.5"/>
<rect x="875.5975102334579" y="527.741451062157" width="1.1305609284332687" height="11.258548937842988" fill="#f85149" opacity="0.5"/>
<rect x="877.2157272877214" y="519.7012476332592" width="1.1305609284332687" height="19.298752366740814" fill="#3fb950" opacity="0.5"/>
<rect x="878.833944341985" y="521.7538164748865" width="1.1305609284332687" height="17.24618352511345" fill="#3fb950" opacity="0.5"/>
<rect x="880.4521613962486" y="519.9538222215126" width="1.1305609284332687" height="19.04617777848739" fill="#f85149" opacity="0.5"/>
<rect x="882.0703784505122" y="524.508011303971" width="1.1305609284332687" height="14.491988696029011" fill="#3fb950" opacity="0.5"/>
<rect x="883.6885955047757" y="514.7671891272838" width="1.1305609284332687" height="24.232810872716186" fill="#f85149" opacity="0.5"/>
<rect x="885.3068125590393" y="519.3344573767093" width="1.1305609284332687" height="19.665542623290662" fill="#f85149" opacity="0.5"/>
<rect x="886.9250296133029" y="524.5724134340647" width="1.1305609284332687" height="14.427586565935258" fill="#f85149" opacity="0.5"/>
<rect x="888.5432466675663" y="528.2594353819348" width="1.1305609284332687" height="10.74056461806515" fill="#3fb950" opacity="0.5"/>
<rect x="890.1614637218299" y="525.8521541988583" width="1.1305609284332687" height="13.14784580114167" fill="#f85149" opacity="0.5"/>
<rect x="891.7796807760934" y="519.8396115846325" width="1.1305609284332687" height="19.160388415367493" fill="#3fb950" opacity="0.5"/>
<rect x="893.397897830357" y="524.248641787851" width="1.1305609284332687" height="14.751358212148943" fill="#f85149" opacity="0.5"/>
<rect x="895.0161148846206" y="529.3079825625246" width="1.1305609284332687" height="9.692017437475442" fill="#3fb950" opacity="0.5"/>
<rect x="896.6343319388842" y="526.4652322888529" width="1.1305609284332687" height="12.534767711147083" fill="#f85149" opacity="0.5"/>
<rect x="898.2525489931477" y="527.9072362329844" width="1.1305609284332687" height="11.09276376701564" fill="#3fb950" opacity="0.5"/>
<rect x="899.8707660474113" y="527.017430240243" width="1.1305609284332687" height="11.982569759756984" fill="#f85149" opacity="0.5"/>
<rect x="901.4889831016749" y="531.6820563972714" width="1.1305609284332687" height="7.317943602728633" fill="#3fb950" opacity="0.5"/>
<rect x="903.1072001559385" y="526.4482361642079" width="1.1305609284332687" height="12.551763835792144" fill="#3fb950" opacity="0.5"/>
<rect x="904.725417210202" y="527.6579295496915" width="1.1305609284332687" height="11.342070450308483" fill="#f85149" opacity="0.5"/>
<rect x="906.3436342644655" y="527.9120160785773" width="1.1305609284332687" height="11.087983921422733" fill="#3fb950" opacity="0.5"/>
<rect x="907.9618513187291" y="528.3781415893803" width="1.1305609284332687" height="10.621858410619666" fill="#3fb950" opacity="0.5"/>
<rect x="909.5800683729927" y="524.7095195313348" width="1.1305609284332687" height="14.290480468665237" fill="#3fb950" opacity="0.5"/>
<rect x="911.1982854272562" y="523.8879948907422" width="1.1305609284332687" height="15.11200510925778" fill="#f85149" opacity="0.5"/>
<rect x="912.8165024815198" y="517.6124551091622" width="1.1305609284332687" height="21.38754489083783" fill="#3fb950" opacity="0.5"/>
<rect x="914.4347195357834" y="519.3105581487448" width="1.1305609284332687" height="19.689441851255197" fill="#3fb950" opacity="0.5"/>
<polyline points="855.1259689922481,38.321305713094674 856.7441860465116,41.55824613283666 858.3624031007752,44.795186552578784 859.9806201550388,48.03212697232084 861.5988372093024,51.26906739206282 863.2170542635658,54.50600781180494 864.8352713178294,57.74294823154696 866.453488372093,60.97988865128898 868.0717054263566,64.2168290710311 869.6899224806201,67.45376949077313 871.3081395348837,70.69070991051514 872.9263565891473,73.92765033025726 874.5445736434109,77.16459074999929 876.1627906976745,80.4015311697413 877.781007751938,83.63847158948343 879.3992248062016,86.87541200922544 881.0174418604652,90.11235242896747 882.6356589147288,93.3492928487096 884.2538759689922,96.58623326845162 885.8720930232558,99.82317368819363 887.4903100775194,103.06011410793573 889.1085271317829,106.29705452767777 890.7267441860465,109.53399494741979 892.34496124031,112.77093536716188 893.9631782945736,116.00787578690394 895.5813953488372,119.24481620664595 897.1996124031008,122.48175662638805 898.8178294573643,125.7186970461301 900.4360465116279,128.95563746587212 902.0542635658915,132.1925778856142 903.672480620155,135.42951830535628 905.2906976744185,138.66645872509827 906.9089147286821,141.90339914484036 908.5271317829457,145.1403395645824 910.1453488372093,148.3772799843245" stroke="#f85149" stroke-width="2.8" fill="none"/>
<polyline points="855.1259689922481,191.25478140642485 856.7441860465116,190.90967480994985 858.3624031007752,190.56456821347493 859.9806201550388,190.21946161699992 861.5988372093024,189.87435502052497 863.2170542635658,189.52924842405 864.8352713178294,189.18414182757508 866.453488372093,188.83903523110004 868.0717054263566,188.49392863462515 869.6899224806201,188.14882203815014 871.3081395348837,187.8037154416752 872.9263565891473,187.45860884520022 874.5445736434109,187.11350224872527 876.1627906976745,186.7683956522503 877.781007751938,186.42328905577537 879.3992248062016,186.07818245930042 881.0174418604652,185.73307586282544 882.6356589147288,185.3879692663505 884.2538759689922,185.0428626698755 885.8720930232558,184.69775607340057 887.4903100775194,184.35264947692556 889.1085271317829,184.00754288045064 890.7267441860465,183.66243628397567 892.34496124031,183.31732968750072 893.9631782945736,182.97222309102574 895.5813953488372,182.6271164945508 897.1996124031008,182.28200989807578 898.8178294573643,181.93690330160086 900.4360465116279,181.5917967051259 902.0542635658915,181.2466901086509 903.672480620155,180.90158351217593 905.2906976744185,180.556476915701 906.9089147286821,180.21137031922598 908.5271317829457,179.86626372275109 910.1453488372093,179.52115712627608" stroke="#3fb950" stroke-width="2.8" fill="none"/>
<polygon points="855.1259689922481,38.321305713094674 856.7441860465116,41.55824613283666 858.3624031007752,44.795186552578784 859.9806201550388,48.03212697232084 861.5988372093024,51.26906739206282 863.2170542635658,54.50600781180494 864.8352713178294,57.74294823154696 866.453488372093,60.97988865128898 868.0717054263566,64.2168290710311 869.6899224806201,67.45376949077313 871.3081395348837,70.69070991051514 872.9263565891473,73.92765033025726 874.5445736434109,77.16459074999929 876.1627906976745,80.4015311697413 877.781007751938,83.63847158948343 879.3992248062016,86.87541200922544 881.0174418604652,90.11235242896747 882.6356589147288,93.3492928487096 884.2538759689922,96.58623326845162 885.8720930232558,99.82317368819363 887.4903100775194,103.06011410793573 889.1085271317829,106.29705452767777 890.7267441860465,109.53399494741979 892.34496124031,112.77093536716188 893.9631782945736,116.00787578690394 895.5813953488372,119.24481620664595 897.1996124031008,122.48175662638805 898.8178294573643,125.7186970461301 900.4360465116279,128.95563746587212 900.4360465116279,181.5917967051259 898.8178294573643,181.93690330160086 897.1996124031008,182.28200989807578 895.5813953488372,182.6271164945508 893.9631782945736,182.97222309102574 892.34496124031,183.31732968750072 890.7267441860465,183.66243628397567 889.1085271317829,184.00754288045064 887.4903100775194,184.35264947692556 885.8720930232558,184.69775607340057 884.2538759689922,185.0428626698755 882.6356589147288,185.3879692663505 881.0174418604652,185.73307586282544 879.3992248062016,186.07818245930042 877.781007751938,186.42328905577537 876.1627906976745,186.7683956522503 874.5445736434109,187.11350224872527 872.9263565891473,187.45860884520022 871.3081395348837,187.8037154416752 869.6899224806201,188.14882203815014 868.0717054263566,188.49392863462515 866.453488372093,188.83903523110004 864.8352713178294,189.18414182757508 863.2170542635658,189.52924842405 861.5988372093024,189.87435502052497 859.9806201550388,190.21946161699992 858.3624031007752,190.56456821347493 856.7441860465116,190.90967480994985 855.1259689922481,191.25478140642485" fill="#FFD700" opacity="0.10"/>
<polygon points="862.6899224806201,58.45376949077313 876.6899224806201,58.45376949077313 869.6899224806201,68.45376949077313" fill="#f85149" stroke="#fff" stroke-width="1.5"/>
<text x="869.6899224806201" y="54.45376949077313" text-anchor="middle" font-size="9" fill="#f85149">¥43.39</text>
<polygon points="872.3992248062016,77.87541200922544 886.3992248062016,77.87541200922544 879.3992248062016,87.87541200922544" fill="#f85149" stroke="#fff" stroke-width="1.5"/>
<text x="879.3992248062016" y="73.87541200922544" text-anchor="middle" font-size="9" fill="#f85149">¥41.36</text>
<polygon points="848.1259689922481,200.25478140642485 862.1259689922481,200.25478140642485 855.1259689922481,190.25478140642485" fill="#3fb950" stroke="#fff" stroke-width="1.5"/>
<text x="855.1259689922481" y="209.25478140642485" text-anchor="middle" font-size="9" fill="#3fb950">¥30.45</text>
<polygon points="893.4360465116279,190.5917967051259 907.4360465116279,190.5917967051259 900.4360465116279,180.5917967051259" fill="#3fb950" stroke="#fff" stroke-width="1.5"/>
<text x="900.4360465116279" y="199.5917967051259" text-anchor="middle" font-size="9" fill="#3fb950">¥31.46</text>
<circle cx="913.3817829457364" cy="140.548030003569" r="8" fill="#f0883e" stroke="#fff" stroke-width="2.5"/>
<text x="913.3817829457364" y="126.54803000356901" text-anchor="middle" font-size="11" fill="#f0883e" font-weight="bold">★ 突破 ¥35.75</text>
<polyline points="80.0,348.06301829186 81.61821705426357,348.3500376394233 83.23643410852713,354.18609770654444 84.8546511627907,348.82840321869554 86.47286821705427,344.52311300524553 88.09108527131784,336.5822443893266 89.70930232558139,328.8327220051166 91.32751937984496,337.4433024320166 92.94573643410853,340.6961883710677 94.56395348837209,341.0788808344855 96.18217054263566,336.3908981576177 97.80038759689923,331.60724236489546 99.4186046511628,332.5639735234399 101.03682170542635,338.8783991698333 102.65503875968992,340.8875346027766 104.27325581395348,342.1312851088844 105.89147286821705,341.55724641375775 107.50968992248062,338.8783991698333 109.12790697674419,345.47984416378995 110.74612403100775,341.46157329790327 112.36434108527132,345.86253662720776 113.98255813953489,342.89667003572 115.60077519379846,347.77599894429665 117.21899224806202,355.14282886508886 118.83720930232559,353.13369343214555 120.45542635658916,351.3159042309111 122.07364341085271,347.77599894429665 123.69186046511628,348.82840321869554 125.31007751937985,347.39330648087883 126.92829457364341,347.77599894429665 128.54651162790697,348.63705698698664 130.16472868217056,351.22023111505666 131.7829457364341,349.4024419138222 133.40116279069767,352.27263538945556 135.01937984496124,356.76927183461447 136.6375968992248,356.67359871876 138.25581395348837,352.46398162116446 139.87403100775194,348.4457107552778 141.4922480620155,351.50725046262 143.11046511627907,351.3159042309111 144.72868217054264,349.97648060894886 146.3468992248062,355.33417509679776 147.96511627906978,359.6394653102478 149.58333333333331,358.1086954565767 151.2015503875969,363.3707168285712 152.81976744186045,360.3091771212289 154.43798449612405,360.97888893221005 156.05620155038758,356.38657937119666 157.67441860465118,358.30004168828555 159.29263565891472,358.30004168828555 160.91085271317831,358.1086954565767 162.52906976744185,358.30004168828555 164.14728682170542,361.83994697490004 165.765503875969,359.8308115419567 167.38372093023256,355.7168675602156 169.00193798449612,359.3524459626845 170.6201550387597,362.3183125541723 172.23837209302326,362.3183125541723 173.85658914728683,359.73513842610225 175.4748062015504,358.1086954565767 177.09302325581393,357.72600299315894 178.71124031007753,354.2817708223989 180.3294573643411,355.42984821265225 181.94767441860466,354.18609770654444 183.5658914728682,355.33417509679776 185.1841085271318,353.4207127797089 186.80232558139534,356.0995600236334 188.42054263565893,358.9697534992667 190.03875968992247,362.1269663224634 191.65697674418604,364.23177487126117 193.2751937984496,362.89235124929894 194.89341085271317,360.8832158163556 196.51162790697674,355.42984821265225 198.1298449612403,356.48225248705114 199.74806201550388,353.13369343214555 201.36627906976744,345.9582097430622 202.984496124031,353.8990783589811 204.60271317829455,362.1269663224634 206.22093023255815,363.94475552369784 207.83914728682169,361.64860074319114 209.45736434108528,365.6668716090778 211.07558139534885,363.75340929198893 212.69379844961242,363.17937059686227 214.31201550387598,358.1086954565767 215.93023255813955,364.04042863955226 217.5484496124031,362.98802436515336 219.16666666666666,364.3274479871156 220.78488372093022,360.6918695846467 222.4031007751938,363.94475552369784 224.02131782945736,364.8058135663878 225.63953488372093,361.45725451148223 227.2577519379845,362.3183125541723 228.87596899224806,363.94475552369784 230.49418604651163,367.1019683468945 232.1124031007752,368.7284113164201 233.73062015503876,364.5187942188245 235.34883720930233,365.8582178407867 236.9670542635659,365.0928329139512 238.58527131782947,358.30004168828555 240.20348837209303,356.38657937119666 241.8217054263566,353.32503966385445 243.43992248062014,346.8192677857522 245.0581395348837,329.69378004780657 246.67635658914728,311.13319557204426 248.29457364341084,339.7394572125233 249.9127906976744,336.4865712734721 251.53100775193798,340.50484213935886 253.14922480620154,333.9990702612566 254.7674418604651,324.7187780233754 256.38565891472865,319.0740641879632 258.00387596899225,325.96252852948317 259.62209302325584,323.95339309653986 261.2403100775194,319.0740641879632 262.8585271317829,323.76204686483095 264.4767441860465,325.6755091819199 266.0949612403101,328.067337078281 267.71317829457365,325.00579737093875 269.3313953488372,320.4134878099254 270.9496124031008,323.85771998068543 272.5678294573643,325.3884898343565 274.18604651162786,323.76204686483095 275.80426356589146,334.1904164929655 277.42248062015506,330.650511206351 279.04069767441865,322.2312770111598 280.6589147286822,314.38608151109537 282.27713178294573,313.8120428159687 283.8953488372093,316.5865631757476 285.51356589147287,307.0192515903031 287.1317829457364,314.38608151109537 288.75,312.7596385415698 290.3682170542636,312.4726191940065 291.98643410852713,317.0649287550199 293.6046511627907,327.30195215144545 295.22286821705427,319.16973730381767 296.84108527131787,312.5682923098609 298.4593023255814,312.5682923098609 300.07751937984494,317.54329433429206 301.69573643410854,310.7505031086265 303.3139534883721,314.96012020622203 304.9321705426356,307.78463651713867 306.5503875968992,309.4110794866642 308.1686046511628,308.3586752122653 309.78682170542635,306.1581935476131 311.4050387596899,309.3154063708098 313.0232558139535,315.43848578549427 314.6414728682171,309.6024257183732 316.2596899224806,306.73223224273977 317.87790697674416,309.6024257183732 319.49612403100775,306.5408860110309 321.11434108527135,300.6091528280553 322.7325581395349,299.93944101707416 324.3507751937984,296.01684326704196 325.968992248062,302.04424956587195 327.5872093023256,309.4110794866642 329.2054263565891,311.2288686878987 330.8236434108527,308.1673289805565 332.4418604651163,309.2197332549554 334.06007751937983,324.4317586758121 335.67829457364337,323.6663737489765 337.29651162790697,322.80531570628654 338.91472868217056,324.33608555995767 340.5329457364341,322.4226232428688 342.1511627906977,326.7279134563188 343.76937984496124,332.0856079441677 345.38759689922483,330.1721456270788 347.00581395348837,339.5481109808144 348.62403100775197,341.36590018204885 350.2422480620155,337.06060996859884 351.8604651162791,337.25195620030775 353.47868217054264,336.5822443893266 355.0968992248062,341.7485926454666 356.7151162790698,339.3567647491055 358.3333333333333,331.2245499014777 359.9515503875969,331.60724236489546 361.56976744186045,332.0856079441677 363.18798449612405,332.9466659868577 364.8062015503876,328.73704888926216 366.4244186046512,327.39762526729993 368.0426356589147,329.0240682368254 369.6608527131783,329.50243381609766 371.27906976744185,325.5798360660654 372.89728682170545,329.21541446853433 374.515503875969,325.6755091819199 376.1337209302326,309.4110794866642 377.7519379844961,302.23559579758086 379.3701550387597,294.67741964507974 380.98837209302326,292.47693798042746 382.6065891472868,292.47693798042746 384.2248062015504,297.45194000485867 385.84302325581393,290.27645631577525 387.4612403100775,290.94616812675633 389.07945736434107,301.8529033341631 390.69767441860466,299.2697292060931 392.3158914728682,300.4178065963464 393.9341085271318,293.81636160238975 395.55232558139534,295.8254970353331 397.17054263565893,294.86876587678864 398.7887596899225,295.25145834020645 400.40697674418607,286.0668392181797 402.0251937984496,303.19232695612527 403.6434108527132,301.66155710245425 405.26162790697674,301.7572302183087 406.8798449612403,299.84376790121973 408.4980620155039,289.79809073650307 410.1162790697674,296.68655507802305 411.734496124031,300.6091528280553 413.35271317829455,300.9918452914731 414.97093023255815,290.8504950109019 416.5891472868217,292.85963044384533 418.2073643410853,268.1759665533985 419.8255813953488,266.2625042363096 421.4437984496124,272.00289118757627 423.06201550387595,276.78654698029857 424.68023255813955,282.6226070474197 426.2984496124031,287.5019359559964 427.9166666666667,291.9028992853008 429.5348837209302,289.12837892552193 431.1531007751938,291.0418412426109 432.77131782945736,291.42453370602857 434.3895348837209,296.5908819621686 436.0077519379845,298.6956905109664 437.62596899224803,294.7730927609342 439.24418604651163,294.294727181662 440.86240310077517,293.7206884865353 442.48062015503876,331.51156924904103 444.0988372093023,330.26781874293323 445.7170542635659,325.96252852948317 447.33527131782944,322.80531570628654 448.95348837209303,322.99666193799544 450.5717054263566,318.5000254928365 452.18992248062017,314.29040839524095 453.8081395348837,320.79618027334317 455.4263565891473,318.8827179562543 457.0445736434109,317.6389674501465 458.6627906976744,315.34281266963984 460.281007751938,317.2562749867287 461.8992248062015,316.29954382818426 463.5174418604651,318.4043523769821 465.13565891472865,320.9875265050521 466.75387596899225,321.08319962090656 468.3720930232558,317.9259867977098 469.9903100775194,310.94184934033535 471.6085271317829,304.53175057808755 473.2267441860465,310.17646441349984 474.84496124031006,306.5408860110309 476.46317829457365,310.17646441349984 478.08139534883725,302.8096344927076 479.6996124031008,293.1466497914086 481.3178294573644,290.8504950109019 482.9360465116279,293.7206884865353 484.55426356589146,285.5884736389075 486.172480620155,283.9620306693819 487.7906976744186,286.35385856574305 489.40891472868213,282.5269339315653 491.02713178294573,284.53606936450853 492.64534883720927,293.9120347182442 494.26356589147287,287.31058972428747 495.8817829457364,282.71828016327413 497.5,284.15337690109084 499.1182170542636,282.14424146814747 500.73643410852713,286.25818544988863 502.35465116279073,284.53606936450853 503.97286821705427,285.7798198706164 505.59108527131787,282.5269339315653 507.2093023255814,287.31058972428747 508.827519379845,288.6500133462497 510.44573643410854,295.0601121084975 512.0639534883721,289.8937638523575 513.6821705426357,288.45866711454084 515.3003875968993,296.4952088463142 516.9186046511628,290.7548218950475 518.5368217054264,295.4428045719153 520.1550387596899,301.27886463903644 521.7732558139535,304.3404043463787 523.3914728682171,308.07165586470205 525.0096899224806,307.0192515903031 526.6279069767442,300.32213348049197 528.2461240310076,295.92117015118754 529.8643410852712,301.183191523182 531.4825581395348,301.183191523182 533.1007751937984,277.1692394437163 534.718992248062,277.55193190713413 536.3372093023256,279.65674045593187 537.9554263565891,285.20578117548973 539.5736434108527,285.97116610232524 541.1918604651163,287.9803015352686 542.8100775193798,284.53606936450853 544.4282945736434,284.91876182792635 546.046511627907,285.492800523053 547.6647286821706,283.770684437673 549.2829457364342,282.5269339315653 550.9011627906978,283.4836650901097 552.5193798449612,282.2399145840019 554.1375968992248,279.2740479925141 555.7558139534883,281.4745296571664 557.3740310077519,270.85481379732295 558.9922480620155,270.1851019863419 560.6104651162791,272.6726029985574 562.2286821705427,264.9230806143474 563.8468992248063,259.66105924235285 565.4651162790698,274.29904596808296 567.0833333333334,257.747596925264 568.7015503875969,250.9548056995984 570.3197674418604,252.67692178497845 571.937984496124,255.164422797194 573.5562015503876,257.55625069355517 575.1744186046512,264.9230806143474 576.7926356589146,258.7043280838085 578.4108527131782,262.9139451814041 580.0290697674418,264.25336880336624 581.6472868217054,262.4355796021318 583.265503875969,263.58365699238516 584.8837209302326,261.2875022118785 586.5019379844962,263.87067633994855 588.1201550387597,264.0620225716574 589.7383720930233,256.6951926508651 591.3565891472867,258.51298185209953 592.9748062015503,243.3009564312428 594.5930232558139,250.0937476569084 596.2112403100775,251.43317127887065 597.8294573643411,249.61538207763618 599.4476744186046,252.1028830898518 601.0658914728682,263.20096452896735 602.6841085271318,263.58365699238516 604.3023255813954,263.29663764482177 605.9205426356589,255.64278837646626 607.5387596899225,266.1668311204552 609.1569767441861,258.13028938868183 610.7751937984497,265.0187537302018 612.3934108527131,262.33990648627736 614.0116279069767,256.025480839884 615.6298449612403,262.14856025456845 617.2480620155039,258.41730873624516 618.8662790697674,254.68605721792176 620.484496124031,257.93894315697287 622.1027131782946,248.56297780323732 623.7209302325582,247.5105735288384 625.3391472868218,237.08220390070392 626.9573643410853,223.30527521766385 628.5755813953488,227.89758477867719 630.1937984496124,234.21201042507056 631.812015503876,232.39422122383613 633.4302325581396,222.25287094326498 635.048449612403,215.55575283345385 636.6666666666666,224.2620063762083 638.2848837209302,227.70623854696834 639.9031007751938,223.68796768108163 641.5213178294573,237.17787701655837 643.1395348837209,241.4831672300084 644.7577519379845,245.9798036751673 646.3759689922481,251.720190626434 647.9941860465116,247.7019197605473 649.6124031007752,253.15528736425065 651.2306201550388,264.1576956875118 652.8488372093024,258.51298185209953 654.4670542635658,256.5038464191563 656.0852713178294,254.49471098621288 657.703488372093,254.49471098621288 659.3217054263566,251.24182504716177 660.9399224806201,250.4764401203262 662.5581395348837,243.6836488946606 664.1763565891473,239.95239737633727 665.7945736434109,239.5697049129195 667.4127906976745,237.17787701655837 669.031007751938,229.42835463234832 670.6492248062016,235.16874158361503 672.2674418604652,242.05720592513504 673.8856589147288,243.87499512636953 675.5038759689922,249.80672830934512 677.1220930232558,248.84999715080065 678.7403100775194,252.00720997399728 680.3585271317829,252.581248669124 681.9767441860465,253.25096048010514 683.59496124031,246.36249613858507 685.2131782945736,244.16201447393283 686.8313953488372,241.38749411415392 688.4496124031008,246.07547679102174 690.0678294573643,252.48557555326954 691.6860465116279,252.581248669124 693.3042635658915,238.0389350592484 694.922480620155,236.31681897386838 696.5406976744185,228.94998905307608 698.1589147286821,234.11633730921614 699.7771317829457,237.17787701655837 701.3953488372093,224.74037195548053 703.0135658914728,224.64469883962607 704.6317829457364,222.7312365225372 706.25,218.2346000773783 707.8682170542636,210.7720970407316 709.4864341085272,224.64469883962607 711.1046511627907,221.87017847984717 712.7228682170543,222.7312365225372 714.3410852713179,228.28027724209502 715.9593023255815,219.19133123592272 717.577519379845,214.12065609563717 719.1957364341085,219.95671616275828 720.8139534883721,219.66969681519498 722.4321705426357,223.87931391279054 724.0503875968992,215.2687334858905 725.6686046511628,210.38940457731383 727.2868217054264,217.94758072981497 728.90503875969,218.13892696152382 730.5232558139535,215.36440660174492 732.1414728682171,223.78364079693606 733.7596899224806,220.14806239446716 735.3779069767442,215.36440660174492 736.9961240310078,207.9975766809527 738.6143410852712,196.32545654671037 740.2325581395348,190.48939647958923 741.8507751937984,151.1677458634124 743.468992248062,183.12256655879702 745.0872093023255,172.98121627822582 746.7054263565891,162.0744810708191 748.3236434108527,161.50044237569244 749.9418604651163,158.6302489000591 751.5600775193799,151.74178455853908 753.1782945736434,137.77350964379013 754.796511627907,150.7850533999946 756.4147286821706,160.8307305647113 758.0329457364342,164.3706358513258 759.6511627906976,159.96967252202134 761.2693798449612,168.7715991806303 762.8875968992248,166.57111751597802 764.5058139534884,169.9196765708836 766.1240310077519,168.7715991806303 767.7422480620155,163.50957780863575 769.3604651162791,171.73746577211801 770.9786821705427,182.26150851610697 772.5968992248062,153.5595737597735 774.2151162790698,160.63938433300245 775.8333333333334,160.54371121714803 777.451550387597,156.62111346711575 779.0697674418604,158.91726824762247 780.687984496124,153.75091999148242 782.3062015503876,149.15861043046905 783.9244186046512,156.7167865829702 785.5426356589147,160.9264036805658 787.1608527131782,154.32495868660905 788.7790697674418,156.9081328146791 790.3972868217054,165.51871324157912 792.015503875969,165.90140570499693 793.6337209302326,168.10188736964915 795.2519379844961,188.48026104664595 796.8701550387597,195.08170604060263 798.4883720930233,195.56007161987483 800.1065891472869,181.30477735756256 801.7248062015503,191.25478140642485 803.3430232558139,189.24564597348152 804.9612403100775,193.5509361869315 806.5794573643411,194.60334046133036 808.1976744186046,198.7172844430715 809.8158914728682,193.07257060765926 811.4341085271318,195.84709096743816 813.0523255813954,188.76728039420925 814.6705426356589,194.31632111376706 816.2887596899225,206.8494992906993 817.9069767441861,223.30527521766385 819.5251937984497,214.6946947907638 821.1434108527131,209.5283465346238 822.7616279069767,214.6946947907638 824.3798449612403,208.28459602851598 825.9980620155039,213.45094428465606 827.6162790697674,215.2687334858905 829.234496124031,211.15478950414936 830.8527131782946,217.66056138225161 832.4709302325582,222.25287094326498 834.0891472868218,207.61488421753492 835.7073643410853,199.19565002234373 837.3255813953488,201.97017038212263 838.9437984496124,199.9610349491793 840.562015503876,201.49180480285045 842.1802325581396,196.7081490101282 843.798449612403,190.01103090031705 845.4166666666666,173.07688939408024 847.0348837209302,175.94708286971365 848.6531007751938,174.70333236360585 850.2713178294573,171.35477330870026 851.8895348837209,174.70333236360585 853.5077519379845,178.24323765022035 855.1259689922481,182.54852786367036 856.7441860465116,129.0672561010356 858.3624031007752,116.6297510399578 859.9806201550388,120.83936813755336 861.5988372093024,125.81437016198453 863.2170542635658,113.08984575334335 864.8352713178294,82.95281425919319 866.453488372093,80.94367882624988 868.0717054263566,79.41290897257875 869.6899224806201,100.46099446055663 871.3081395348837,104.47926532644328 872.9263565891473,109.64561358258337 874.5445736434109,107.63647814964 876.1627906976745,108.40186307647555 877.781007751938,97.97349344834103 879.3992248062016,91.085029106821 881.0174418604652,119.49994451559112 882.6356589147288,117.68215531435668 884.2538759689922,136.43408602182788 885.8720930232558,139.59129884502457 887.4903100775194,143.41822347920234 889.1085271317829,141.50476116211348 890.7267441860465,156.7167865829702 892.34496124031,143.51389659505685 893.9631782945736,157.86486397322355 895.5813953488372,156.81245969882468 897.1996124031008,167.14515621110473 898.8178294573643,162.55284665009134 900.4360465116279,175.56439040629584 902.0542635658915,170.68506149771915 903.672480620155,164.46630896718025 905.2906976744185,172.0244851196814 906.9089147286821,168.7715991806303 908.5271317829457,164.75332831474356 910.1453488372093,153.84659310733684 911.7635658914728,159.682653174458 913.3817829457364,140.548030003569 915.0,133.85091189375785" stroke="#58a6ff" stroke-width="1.8" fill="none"/>
<line x1="80" y1="16.747018087917354" x2="915" y2="16.747018087917354" stroke="#FFD700" stroke-width="1.5" stroke-dasharray="6,4"/>
<text x="920" y="21.747018087917354" font-size="11" fill="#FFD700" font-weight="bold">▼ 目标 48.69</text>
<line x1="80" y1="140.548030003569" x2="915" y2="140.548030003569" stroke="#3fb950" stroke-width="1" stroke-dasharray="3,3"/>
<text x="920" y="145.548030003569" font-size="11" fill="#3fb950">突破价 35.75</text>
<line x1="915.0" y1="133.85091189375785" x2="915" y2="133.85091189375785" stroke="#88ccff" stroke-width="1.5"/>
<text x="920" y="138.85091189375785" font-size="11" fill="#88ccff" font-weight="bold">● 现价 36.45</text>
<text x="80" y="623" font-size="13" fill="#58a6ff" font-weight="bold">上榜理由 (综合得分: 89):</text>
<text x="90" y="641" font-size="11" fill="#c9d1d9">1. 形态于14天前收敛，突破信号有效</text>
<text x="90" y="657" font-size="11" fill="#c9d1d9">2. 突破后日线胜率95%，表现优秀</text>
<text x="90" y="673" font-size="11" fill="#c9d1d9">3. 量度目标涨幅36.2%（目标¥48.69 / 突破¥35.75）</text>
<text x="90" y="689" font-size="11" fill="#c9d1d9">4. 收敛前上涨趋势+5.6%，确认中继属性</text>
<text x="90" y="705" font-size="11" fill="#c9d1d9">5. 三角持续28个交易日，整理充分</text>
</svg>