<svg xmlns="http://www.w3.org/2000/svg" viewBox="0 0 1000 700" width="1000" height="700">
<rect width="1000" height="700" fill="#0d1117"/>
<text x="500.0" y="24" text-anchor="middle" font-size="18" fill="#58a6ff" font-weight="bold">利安隆 (300596.SZ)</text>
<text x="500.0" y="46" text-anchor="middle" font-size="14" fill="#8b949e">双底突破 | 评分:83/100 | 突破后涨幅:0.3% | 目标空间:13.2%</text>
<line x1="80" y1="382.4" x2="920" y2="382.4" stroke="#21262d" stroke-width="0.5"/>
<text x="72" y="386.4" text-anchor="end" font-size="10" fill="#8b949e">23.95</text>
<line x1="80" y1="317.92" x2="920" y2="317.92" stroke="#21262d" stroke-width="0.5"/>
<text x="72" y="321.92" text-anchor="end" font-size="10" fill="#8b949e">30.21</text>
<line x1="80" y1="253.43999999999997" x2="920" y2="253.43999999999997" stroke="#21262d" stroke-width="0.5"/>
<text x="72" y="257.43999999999994" text-anchor="end" font-size="10" fill="#8b949e">36.48</text>
<line x1="80" y1="188.96" x2="920" y2="188.96" stroke="#21262d" stroke-width="0.5"/>
<text x="72" y="192.96" text-anchor="end" font-size="10" fill="#8b949e">42.74</text>
<line x1="80" y1="124.48000000000005" x2="920" y2="124.48000000000005" stroke="#21262d" stroke-width="0.5"/>
<text x="72" y="128.48000000000005" text-anchor="end" font-size="10" fill="#8b949e">49.01</text>
<line x1="80" y1="60.0" x2="920" y2="60.0" stroke="#21262d" stroke-width="0.5"/>
<text x="72" y="64.0" text-anchor="end" font-size="10" fill="#8b949e">55.27</text>
<text x="80.0" y="396.4" text-anchor="middle" font-size="9" fill="#8b949e">2024-10-08</text>
<text x="183.65038560411313" y="396.4" text-anchor="middle" font-size="9" fill="#8b949e">2024-12-13</text>
<text x="287.30077120822625" y="396.4" text-anchor="middle" font-size="9" fill="#8b949e">2025-02-28</text>
<text x="390.9511568123393" y="396.4" text-anchor="middle" font-size="9" fill="#8b949e">2025-05-13</text>
<text x="494.60154241645245" y="396.4" text-anchor="middle" font-size="9" fill="#8b949e">2025-07-21</text>
<text x="598.2519280205655" y="396.4" text-anchor="middle" font-size="9" fill="#8b949e">2025-09-25</text>
<text x="701.9023136246786" y="396.4" text-anchor="middle" font-size="9" fill="#8b949e">2025-12-10</text>
<text x="805.5526992287918" y="396.4" text-anchor="middle" font-size="9" fill="#8b949e">2026-02-26</text>
<text x="909.2030848329049" y="396.4" text-anchor="middle" font-size="9" fill="#8b949e">2026-05-11</text>
<rect x="820.6683804627249" y="60" width="99.33161953727506" height="520.0" fill="#238636" opacity="0.10" rx="4"/>
<text x="870.3341902313625" y="52" text-anchor="middle" font-size="11" fill="#3fb950" font-weight="bold">双底区域</text>
<rect x="79.35384615384615" y="520.7098130339174" width="1.2923076923076922" height="59.290186966082615" fill="#3fb950" opacity="0.45"/>
<rect x="81.51322918726517" y="540.5634832128853" width="1.2923076923076922" height="39.43651678711467" fill="#f85149" opacity="0.45"/>
<rect x="83.6726122206842" y="555.9862582778245" width="1.2923076923076922" height="24.013741722175496" fill="#3fb950" opacity="0.45"/>
<rect x="85.83199525410322" y="560.0845681863169" width="1.2923076923076922" height="19.915431813683085" fill="#f85149" opacity="0.45"/>
<rect x="87.99137828752224" y="560.8556380277138" width="1.2923076923076922" height="19.14436197228622" fill="#3fb950" opacity="0.45"/>
<rect x="90.15076132094127" y="564.139292571474" width="1.2923076923076922" height="15.860707428525984" fill="#f85149" opacity="0.45"/>
<rect x="92.31014435436029" y="567.3466113573315" width="1.2923076923076922" height="12.65338864266846" fill="#f85149" opacity="0.45"/>
<rect x="94.46952738777931" y="567.1990129266601" width="1.2923076923076922" height="12.800987073339911" fill="#f85149" opacity="0.45"/>
<rect x="96.62891042119833" y="555.5369481279263" width="1.2923076923076922" height="24.46305187207372" fill="#3fb950" opacity="0.45"/>
<rect x="98.78829345461736" y="560.571144496277" width="1.2923076923076922" height="19.428855503722957" fill="#3fb950" opacity="0.45"/>
<rect x="100.94767648803638" y="565.6550844681833" width="1.2923076923076922" height="14.344915531816696" fill="#3fb950" opacity="0.45"/>
<rect x="103.1070595214554" y="564.0695596440296" width="1.2923076923076922" height="15.930440355970404" fill="#f85149" opacity="0.45"/>
<rect x="105.26644255487443" y="566.2698319319302" width="1.2923076923076922" height="13.730168068069815" fill="#f85149" opacity="0.45"/>
<rect x="107.42582558829345" y="560.003589431423" width="1.2923076923076922" height="19.996410568576948" fill="#3fb950" opacity="0.45"/>
<rect x="109.58520862171247" y="564.3724052319951" width="1.2923076923076922" height="15.627594768004883" fill="#3fb950" opacity="0.45"/>
<rect x="111.7445916551315" y="544.1728855381914" width="1.2923076923076922" height="35.827114461808605" fill="#f85149" opacity="0.45"/>
<rect x="113.90397468855052" y="555.3505733413293" width="1.2923076923076922" height="24.649426658670677" fill="#f85149" opacity="0.45"/>
<rect x="116.06335772196954" y="556.2867286062767" width="1.2923076923076922" height="23.71327139372329" fill="#f85149" opacity="0.45"/>
<rect x="118.22274075538857" y="558.2368068920933" width="1.2923076923076922" height="21.76319310790666" fill="#f85149" opacity="0.45"/>
<rect x="120.38212378880758" y="564.1314581249718" width="1.2923076923076922" height="15.8685418750282" fill="#3fb950" opacity="0.45"/>
<rect x="122.54150682222661" y="549.6391983054768" width="1.2923076923076922" height="30.36080169452316" fill="#3fb950" opacity="0.45"/>
<rect x="124.70088985564564" y="552.7676741150565" width="1.2923076923076922" height="27.23232588494352" fill="#3fb950" opacity="0.45"/>
<rect x="126.86027288906465" y="555.960101098985" width="1.2923076923076922" height="24.03989890101502" fill="#3fb950" opacity="0.45"/>
<rect x="129.01965592248368" y="555.8779884753521" width="1.2923076923076922" height="24.12201152464786" fill="#3fb950" opacity="0.45"/>
<rect x="131.1790389559027" y="548.8914314216111" width="1.2923076923076922" height="31.10856857838894" fill="#3fb950" opacity="0.45"/>
<rect x="133.33842198932172" y="552.3032424570623" width="1.2923076923076922" height="27.69675754293769" fill="#f85149" opacity="0.45"/>
<rect x="135.49780502274075" y="561.803430109331" width="1.2923076923076922" height="18.196569890669025" fill="#f85149" opacity="0.45"/>
<rect x="137.65718805615978" y="560.0458553661398" width="1.2923076923076922" height="19.95414463386021" fill="#f85149" opacity="0.45"/>
<rect x="139.8165710895788" y="544.791127468095" width="1.2923076923076922" height="35.208872531904944" fill="#3fb950" opacity="0.45"/>
<rect x="141.97595412299782" y="547.9047505746677" width="1.2923076923076922" height="32.09524942533233" fill="#f85149" opacity="0.45"/>
<rect x="144.13533715641685" y="561.320705043191" width="1.2923076923076922" height="18.67929495680903" fill="#3fb950" opacity="0.45"/>
<rect x="146.29472018983586" y="560.176362680518" width="1.2923076923076922" height="19.82363731948203" fill="#3fb950" opacity="0.45"/>
<rect x="148.4541032232549" y="561.8185956037142" width="1.2923076923076922" height="18.181404396285757" fill="#f85149" opacity="0.45"/>
<rect x="150.61348625667392" y="556.9487417793953" width="1.2923076923076922" height="23.051258220604723" fill="#f85149" opacity="0.45"/>
<rect x="152.77286929009293" y="566.4419600488117" width="1.2923076923076922" height="13.558039951188334" fill="#3fb950" opacity="0.45"/>
<rect x="154.93225232351196" y="568.085967085595" width="1.2923076923076922" height="11.91403291440497" fill="#f85149" opacity="0.45"/>
<rect x="157.091635356931" y="563.1522891584239" width="1.2923076923076922" height="16.847710841576145" fill="#3fb950" opacity="0.45"/>
<rect x="159.25101839035" y="568.2238934204289" width="1.2923076923076922" height="11.776106579571092" fill="#f85149" opacity="0.45"/>
<rect x="161.410401423769" y="564.208536762393" width="1.2923076923076922" height="15.79146323760699" fill="#3fb950" opacity="0.45"/>
<rect x="163.56978445718804" y="561.7898530086553" width="1.2923076923076922" height="18.210146991344686" fill="#3fb950" opacity="0.45"/>
<rect x="165.72916749060707" y="563.7470668477428" width="1.2923076923076922" height="16.252933152257242" fill="#3fb950" opacity="0.45"/>
<rect x="167.8885505240261" y="565.4680987609296" width="1.2923076923076922" height="14.531901239070407" fill="#f85149" opacity="0.45"/>
<rect x="170.04793355744513" y="550.8803544864667" width="1.2923076923076922" height="29.119645513533328" fill="#3fb950" opacity="0.45"/>
<rect x="172.20731659086414" y="560.4793793262675" width="1.2923076923076922" height="19.520620673732537" fill="#3fb950" opacity="0.45"/>
<rect x="174.36669962428314" y="566.6735136398169" width="1.2923076923076922" height="13.32648636018314" fill="#f85149" opacity="0.45"/>
<rect x="176.52608265770218" y="555.8585563111021" width="1.2923076923076922" height="24.14144368889788" fill="#3fb950" opacity="0.45"/>
<rect x="178.6854656911212" y="565.4214781837715" width="1.2923076923076922" height="14.578521816228545" fill="#3fb950" opacity="0.45"/>
<rect x="180.84484872454024" y="565.4236774981358" width="1.2923076923076922" height="14.576322501864183" fill="#3fb950" opacity="0.45"/>
<rect x="183.00423175795927" y="562.1024684397637" width="1.2923076923076922" height="17.897531560236303" fill="#f85149" opacity="0.45"/>
<rect x="185.16361479137828" y="569.0605663656305" width="1.2923076923076922" height="10.939433634369493" fill="#f85149" opacity="0.45"/>
<rect x="187.32299782479728" y="568.3641608032194" width="1.2923076923076922" height="11.63583919678058" fill="#f85149" opacity="0.45"/>
<rect x="189.48238085821632" y="568.7874066342179" width="1.2923076923076922" height="11.21259336578214" fill="#3fb950" opacity="0.45"/>
<rect x="191.64176389163535" y="570.1739521567845" width="1.2923076923076922" height="9.82604784321552" fill="#3fb950" opacity="0.45"/>
<rect x="193.80114692505438" y="562.5545057394736" width="1.2923076923076922" height="17.445494260526402" fill="#3fb950" opacity="0.45"/>
<rect x="195.96052995847342" y="554.7244578660016" width="1.2923076923076922" height="25.275542133998442" fill="#f85149" opacity="0.45"/>
<rect x="198.11991299189245" y="550.9486114296044" width="1.2923076923076922" height="29.051388570395602" fill="#3fb950" opacity="0.45"/>
<rect x="200.27929602531145" y="558.3582579186558" width="1.2923076923076922" height="21.641742081344205" fill="#f85149" opacity="0.45"/>
<rect x="202.43867905873046" y="522.9442186807521" width="1.2923076923076922" height="57.0557813192479" fill="#3fb950" opacity="0.45"/>
<rect x="204.5980620921495" y="516.6696969835047" width="1.2923076923076922" height="63.33030301649535" fill="#f85149" opacity="0.45"/>
<rect x="206.75744512556852" y="507.4037509731308" width="1.2923076923076922" height="72.5962490268692" fill="#3fb950" opacity="0.45"/>
<rect x="208.91682815898753" y="533.4072172880635" width="1.2923076923076922" height="46.59278271193648" fill="#f85149" opacity="0.45"/>
<rect x="211.07621119240656" y="538.9918971544361" width="1.2923076923076922" height="41.00810284556394" fill="#f85149" opacity="0.45"/>
<rect x="213.23559422582557" y="537.143089964048" width="1.2923076923076922" height="42.856910035951955" fill="#f85149" opacity="0.45"/>
<rect x="215.3949772592446" y="547.1403373247467" width="1.2923076923076922" height="32.859662675253276" fill="#f85149" opacity="0.45"/>
<rect x="217.55436029266363" y="543.3447605948191" width="1.2923076923076922" height="36.65523940518085" fill="#f85149" opacity="0.45"/>
<rect x="219.71374332608266" y="543.6645164665637" width="1.2923076923076922" height="36.33548353343633" fill="#f85149" opacity="0.45"/>
<rect x="221.8731263595017" y="553.4179380621043" width="1.2923076923076922" height="26.582061937895674" fill="#3fb950" opacity="0.45"/>
<rect x="224.0325093929207" y="557.1147167034219" width="1.2923076923076922" height="22.88528329657811" fill="#f85149" opacity="0.45"/>
<rect x="226.19189242633973" y="563.4323205253836" width="1.2923076923076922" height="16.567679474616398" fill="#f85149" opacity="0.45"/>
<rect x="228.35127545975874" y="525.1651351994858" width="1.2923076923076922" height="54.8348648005142" fill="#3fb950" opacity="0.45"/>
<rect x="230.51065849317777" y="548.5373906826096" width="1.2923076923076922" height="31.46260931739039" fill="#f85149" opacity="0.45"/>
<rect x="232.6700415265968" y="551.4441022937879" width="1.2923076923076922" height="28.555897706212136" fill="#3fb950" opacity="0.45"/>
<rect x="234.8294245600158" y="548.1508000910162" width="1.2923076923076922" height="31.849199908983792" fill="#3fb950" opacity="0.45"/>
<rect x="236.98880759343484" y="555.1912452340482" width="1.2923076923076922" height="24.80875476595179" fill="#3fb950" opacity="0.45"/>
<rect x="239.14819062685385" y="546.5212792048458" width="1.2923076923076922" height="33.47872079515423" fill="#3fb950" opacity="0.45"/>
<rect x="241.30757366027288" y="558.8846271565142" width="1.2923076923076922" height="21.11537284348583" fill="#f85149" opacity="0.45"/>
<rect x="243.46695669369188" y="554.6312215990506" width="1.2923076923076922" height="25.368778400949395" fill="#f85149" opacity="0.45"/>
<rect x="245.62633972711095" y="544.5411876090042" width="1.2923076923076922" height="35.45881239099583" fill="#f85149" opacity="0.45"/>
<rect x="247.78572276052995" y="556.6931325766097" width="1.2923076923076922" height="23.30686742339026" fill="#f85149" opacity="0.45"/>
<rect x="249.94510579394898" y="559.0402897398549" width="1.2923076923076922" height="20.95971026014513" fill="#3fb950" opacity="0.45"/>
<rect x="252.10448882736802" y="543.0399649481171" width="1.2923076923076922" height="36.96003505188287" fill="#3fb950" opacity="0.45"/>
<rect x="254.26387186078702" y="523.8128940936372" width="1.2923076923076922" height="56.18710590636283" fill="#3fb950" opacity="0.45"/>
<rect x="256.4232548942061" y="542.5548206361765" width="1.2923076923076922" height="37.44517936382351" fill="#f85149" opacity="0.45"/>
<rect x="258.58263792762506" y="553.5844017226564" width="1.2923076923076922" height="26.415598277343634" fill="#f85149" opacity="0.45"/>
<rect x="260.74202096104415" y="550.4495136898635" width="1.2923076923076922" height="29.550486310136534" fill="#3fb950" opacity="0.45"/>
<rect x="262.9014039944631" y="553.6499119665214" width="1.2923076923076922" height="26.35008803347864" fill="#f85149" opacity="0.45"/>
<rect x="265.06078702788216" y="558.7836102040787" width="1.2923076923076922" height="21.21638979592126" fill="#f85149" opacity="0.45"/>
<rect x="267.2201700613012" y="551.7603392625496" width="1.2923076923076922" height="28.239660737450436" fill="#3fb950" opacity="0.45"/>
<rect x="269.37955309472017" y="547.8839157365898" width="1.2923076923076922" height="32.116084263410244" fill="#f85149" opacity="0.45"/>
<rect x="271.53893612813926" y="549.3401111013915" width="1.2923076923076922" height="30.65988889860853" fill="#3fb950" opacity="0.45"/>
<rect x="273.69831916155823" y="506.82262858233156" width="1.2923076923076922" height="73.17737141766844" fill="#3fb950" opacity="0.45"/>
<rect x="275.8577021949773" y="536.0890367870779" width="1.2923076923076922" height="43.91096321292207" fill="#f85149" opacity="0.45"/>
<rect x="278.0170852283963" y="515.5696781363204" width="1.2923076923076922" height="64.43032186367964" fill="#3fb950" opacity="0.45"/>
<rect x="280.17646826181533" y="540.8879407300042" width="1.2923076923076922" height="39.112059269995825" fill="#f85149" opacity="0.45"/>
<rect x="282.33585129523436" y="531.1704803680027" width="1.2923076923076922" height="48.8295196319973" fill="#3fb950" opacity="0.45"/>
<rect x="284.49523432865334" y="542.2196695638818" width="1.2923076923076922" height="37.78033043611822" fill="#3fb950" opacity="0.45"/>
<rect x="286.65461736207243" y="549.7408603901257" width="1.2923076923076922" height="30.259139609874296" fill="#f85149" opacity="0.45"/>
<rect x="288.8140003954914" y="545.4895075260688" width="1.2923076923076922" height="34.51049247393121" fill="#f85149" opacity="0.45"/>
<rect x="290.97338342891044" y="559.0698582996417" width="1.2923076923076922" height="20.930141700358263" fill="#3fb950" opacity="0.45"/>
<rect x="293.13276646232947" y="552.4257589292502" width="1.2923076923076922" height="27.57424107074985" fill="#3fb950" opacity="0.45"/>
<rect x="295.29214949574845" y="543.464007419652" width="1.2923076923076922" height="36.535992580347965" fill="#3fb950" opacity="0.45"/>
<rect x="297.45153252916754" y="545.0974186485647" width="1.2923076923076922" height="34.90258135143529" fill="#3fb950" opacity="0.45"/>
<rect x="299.6109155625865" y="558.7897242980116" width="1.2923076923076922" height="21.210275701988394" fill="#f85149" opacity="0.45"/>
<rect x="301.7702985960056" y="547.2533820830723" width="1.2923076923076922" height="32.746617916927676" fill="#3fb950" opacity="0.45"/>
<rect x="303.9296816294246" y="552.0226197189068" width="1.2923076923076922" height="27.977380281093247" fill="#f85149" opacity="0.45"/>
<rect x="306.0890646628436" y="556.2390963445109" width="1.2923076923076922" height="23.760903655489074" fill="#f85149" opacity="0.45"/>
<rect x="308.24844769626264" y="541.4448902122571" width="1.2923076923076922" height="38.555109787742936" fill="#3fb950" opacity="0.45"/>
<rect x="310.4078307296816" y="541.5813992111672" width="1.2923076923076922" height="38.418600788832805" fill="#3fb950" opacity="0.45"/>
<rect x="312.5672137631007" y="553.076482288632" width="1.2923076923076922" height="26.92351771136805" fill="#f85149" opacity="0.45"/>
<rect x="314.7265967965197" y="553.824004804235" width="1.2923076923076922" height="26.17599519576504" fill="#3fb950" opacity="0.45"/>
<rect x="316.8859798299388" y="552.1114622444943" width="1.2923076923076922" height="27.888537755505695" fill="#f85149" opacity="0.45"/>
<rect x="319.04536286335775" y="549.6010915185911" width="1.2923076923076922" height="30.398908481408853" fill="#f85149" opacity="0.45"/>
<rect x="321.2047458967768" y="556.1804479614626" width="1.2923076923076922" height="23.81955203853738" fill="#3fb950" opacity="0.45"/>
<rect x="323.3641289301958" y="563.3810031902163" width="1.2923076923076922" height="16.618996809783653" fill="#f85149" opacity="0.45"/>
<rect x="325.5235119636148" y="562.5737815080355" width="1.2923076923076922" height="17.426218491964505" fill="#f85149" opacity="0.45"/>
<rect x="327.6828949970338" y="557.154353235632" width="1.2923076923076922" height="22.845646764367984" fill="#3fb950" opacity="0.45"/>
<rect x="329.84227803045286" y="560.6383262190589" width="1.2923076923076922" height="19.361673780941146" fill="#f85149" opacity="0.45"/>
<rect x="332.00166106387184" y="560.3356956751645" width="1.2923076923076922" height="19.664304324835484" fill="#f85149" opacity="0.45"/>
<rect x="334.1610440972909" y="564.0671892718814" width="1.2923076923076922" height="15.932810728118625" fill="#3fb950" opacity="0.45"/>
<rect x="336.32042713070996" y="570.622612287104" width="1.2923076923076922" height="9.377387712896052" fill="#3fb950" opacity="0.45"/>
<rect x="338.47981016412893" y="563.5549836185291" width="1.2923076923076922" height="16.44501638147085" fill="#f85149" opacity="0.45"/>
<rect x="340.63919319754797" y="538.5885184631952" width="1.2923076923076922" height="41.411481536804786" fill="#f85149" opacity="0.45"/>
<rect x="342.798576230967" y="549.0832605078315" width="1.2923076923076922" height="30.916739492168517" fill="#3fb950" opacity="0.45"/>
<rect x="344.95795926438603" y="542.2530111696447" width="1.2923076923076922" height="37.74698883035535" fill="#f85149" opacity="0.45"/>
<rect x="347.117342297805" y="539.200763595932" width="1.2923076923076922" height="40.79923640406798" fill="#3fb950" opacity="0.45"/>
<rect x="349.2767253312241" y="540.1857534144976" width="1.2923076923076922" height="39.81424658550236" fill="#3fb950" opacity="0.45"/>
<rect x="351.4361083646431" y="548.4098499989406" width="1.2923076923076922" height="31.590150001059442" fill="#3fb950" opacity="0.45"/>
<rect x="353.5954913980621" y="555.8988672997173" width="1.2923076923076922" height="24.101132700282733" fill="#f85149" opacity="0.45"/>
<rect x="355.75487443148114" y="557.2610981801452" width="1.2923076923076922" height="22.738901819854846" fill="#f85149" opacity="0.45"/>
<rect x="357.9142574649002" y="555.7786185650073" width="1.2923076923076922" height="24.221381434992736" fill="#3fb950" opacity="0.45"/>
<rect x="360.0736404983192" y="562.3903342532257" width="1.2923076923076922" height="17.60966574677434" fill="#3fb950" opacity="0.45"/>
<rect x="362.2330235317382" y="565.4238338938239" width="1.2923076923076922" height="14.57616610617606" fill="#3fb950" opacity="0.45"/>
<rect x="364.3924065651573" y="545.812547707264" width="1.2923076923076922" height="34.187452292736" fill="#3fb950" opacity="0.45"/>
<rect x="366.55178959857625" y="561.8934456025796" width="1.2923076923076922" height="18.106554397420382" fill="#f85149" opacity="0.45"/>
<rect x="368.7111726319953" y="565.4904780064278" width="1.2923076923076922" height="14.509521993572207" fill="#f85149" opacity="0.45"/>
<rect x="370.8705556654143" y="566.8693943518329" width="1.2923076923076922" height="13.130605648167148" fill="#f85149" opacity="0.45"/>
<rect x="373.02993869883335" y="566.6347959322745" width="1.2923076923076922" height="13.365204067725472" fill="#f85149" opacity="0.45"/>
<rect x="375.1893217322523" y="565.1487632025969" width="1.2923076923076922" height="14.85123679740309" fill="#3fb950" opacity="0.45"/>
<rect x="377.34870476567136" y="567.0475046037852" width="1.2923076923076922" height="12.952495396214772" fill="#f85149" opacity="0.45"/>
<rect x="379.5080877990904" y="562.4421403249183" width="1.2923076923076922" height="17.55785967508166" fill="#3fb950" opacity="0.45"/>
<rect x="381.6674708325094" y="562.9843446261998" width="1.2923076923076922" height="17.0156553738002" fill="#f85149" opacity="0.45"/>
<rect x="383.8268538659284" y="566.2935796396995" width="1.2923076923076922" height="13.706420360300513" fill="#3fb950" opacity="0.45"/>
<rect x="385.9862368993475" y="566.7825605333646" width="1.2923076923076922" height="13.21743946663537" fill="#f85149" opacity="0.45"/>
<rect x="388.1456199327665" y="565.6406765154145" width="1.2923076923076922" height="14.359323484585502" fill="#3fb950" opacity="0.45"/>
<rect x="390.3050029661855" y="533.5226568553636" width="1.2923076923076922" height="46.47734314463639" fill="#3fb950" opacity="0.45"/>
<rect x="392.46438599960453" y="525.8458132205095" width="1.2923076923076922" height="54.15418677949049" fill="#3fb950" opacity="0.45"/>
<rect x="394.62376903302356" y="555.43581876609" width="1.2923076923076922" height="24.56418123390995" fill="#f85149" opacity="0.45"/>
<rect x="396.7831520664426" y="563.8063847998309" width="1.2923076923076922" height="16.19361520016912" fill="#f85149" opacity="0.45"/>
<rect x="398.9425350998616" y="557.0337819348152" width="1.2923076923076922" height="22.966218065184762" fill="#f85149" opacity="0.45"/>
<rect x="401.1019181332806" y="564.6976593896504" width="1.2923076923076922" height="15.302340610349574" fill="#3fb950" opacity="0.45"/>
<rect x="403.26130116669964" y="561.0355810416365" width="1.2923076923076922" height="18.964418958363467" fill="#f85149" opacity="0.45"/>
<rect x="405.42068420011867" y="568.3138209411029" width="1.2923076923076922" height="11.686179058897096" fill="#f85149" opacity="0.45"/>
<rect x="407.58006723353765" y="563.7458450064292" width="1.2923076923076922" height="16.25415499357075" fill="#3fb950" opacity="0.45"/>
<rect x="409.73945026695674" y="552.561109622595" width="1.2923076923076922" height="27.43889037740496" fill="#f85149" opacity="0.45"/>
<rect x="411.89883330037577" y="568.6764634429516" width="1.2923076923076922" height="11.323536557048442" fill="#3fb950" opacity="0.45"/>
<rect x="414.05821633379475" y="565.0954224982145" width="1.2923076923076922" height="14.904577501785525" fill="#f85149" opacity="0.45"/>
<rect x="416.2175993672138" y="563.844134809053" width="1.2923076923076922" height="16.155865190946997" fill="#3fb950" opacity="0.45"/>
<rect x="418.3769824006328" y="562.0281804879025" width="1.2923076923076922" height="17.971819512097454" fill="#f85149" opacity="0.45"/>
<rect x="420.53636543405185" y="570.81224205896" width="1.2923076923076922" height="9.18775794103999" fill="#3fb950" opacity="0.45"/>
<rect x="422.6957484674708" y="569.8414646985533" width="1.2923076923076922" height="10.158535301446705" fill="#3fb950" opacity="0.45"/>
<rect x="424.8551315008899" y="569.4122953808669" width="1.2923076923076922" height="10.587704619133092" fill="#3fb950" opacity="0.45"/>
<rect x="427.0145145343089" y="569.7160060324825" width="1.2923076923076922" height="10.283993967517517" fill="#3fb950" opacity="0.45"/>
<rect x="429.1738975677279" y="567.2713752566111" width="1.2923076923076922" height="12.728624743388878" fill="#3fb950" opacity="0.45"/>
<rect x="431.33328060114695" y="566.2908524898878" width="1.2923076923076922" height="13.709147510112189" fill="#f85149" opacity="0.45"/>
<rect x="433.492663634566" y="570.9894090494184" width="1.2923076923076922" height="9.010590950581559" fill="#3fb950" opacity="0.45"/>
<rect x="435.65204666798496" y="556.322308625326" width="1.2923076923076922" height="23.677691374674055" fill="#3fb950" opacity="0.45"/>
<rect x="437.811429701404" y="564.9670216382608" width="1.2923076923076922" height="15.032978361739197" fill="#f85149" opacity="0.45"/>
<rect x="439.9708127348231" y="567.6383870629968" width="1.2923076923076922" height="12.361612937003201" fill="#f85149" opacity="0.45"/>
<rect x="442.13019576824206" y="565.6187469075196" width="1.2923076923076922" height="14.381253092480392" fill="#3fb950" opacity="0.45"/>
<rect x="444.2895788016611" y="565.9884125532383" width="1.2923076923076922" height="14.011587446761723" fill="#f85149" opacity="0.45"/>
<rect x="446.4489618350801" y="567.5144923538073" width="1.2923076923076922" height="12.485507646192673" fill="#f85149" opacity="0.45"/>
<rect x="448.60834486849916" y="568.4496896951648" width="1.2923076923076922" height="11.550310304835193" fill="#f85149" opacity="0.45"/>
<rect x="450.76772790191814" y="570.5019285768863" width="1.2923076923076922" height="9.498071423113743" fill="#3fb950" opacity="0.45"/>
<rect x="452.92711093533717" y="557.9042558981138" width="1.2923076923076922" height="22.095744101886226" fill="#3fb950" opacity="0.45"/>
<rect x="455.0864939687562" y="564.3188543709068" width="1.2923076923076922" height="15.68114562909318" fill="#3fb950" opacity="0.45"/>
<rect x="457.24587700217523" y="536.7151522624057" width="1.2923076923076922" height="43.284847737594305" fill="#f85149" opacity="0.45"/>
<rect x="459.4052600355942" y="562.4169703938601" width="1.2923076923076922" height="17.583029606139917" fill="#3fb950" opacity="0.45"/>
<rect x="461.5646430690133" y="555.3801076895594" width="1.2923076923076922" height="24.619892310440605" fill="#3fb950" opacity="0.45"/>
<rect x="463.72402610243233" y="565.2229436324225" width="1.2923076923076922" height="14.77705636757753" fill="#3fb950" opacity="0.45"/>
<rect x="465.8834091358513" y="567.7920165023918" width="1.2923076923076922" height="12.207983497608211" fill="#f85149" opacity="0.45"/>
<rect x="468.04279216927034" y="545.1142653965953" width="1.2923076923076922" height="34.88573460340467" fill="#3fb950" opacity="0.45"/>
<rect x="470.2021752026894" y="559.2115039194339" width="1.2923076923076922" height="20.78849608056612" fill="#f85149" opacity="0.45"/>
<rect x="472.3615582361084" y="567.1096083540682" width="1.2923076923076922" height="12.8903916459318" fill="#3fb950" opacity="0.45"/>
<rect x="474.5209412695274" y="564.0282467455373" width="1.2923076923076922" height="15.97175325446267" fill="#3fb950" opacity="0.45"/>
<rect x="476.6803243029464" y="564.8582728739934" width="1.2923076923076922" height="15.141727126006572" fill="#f85149" opacity="0.45"/>
<rect x="478.83970733636545" y="569.449160776978" width="1.2923076923076922" height="10.550839223021967" fill="#3fb950" opacity="0.45"/>
<rect x="480.9990903697845" y="563.7152207757475" width="1.2923076923076922" height="16.284779224252475" fill="#3fb950" opacity="0.45"/>
<rect x="483.15847340320346" y="568.306568091066" width="1.2923076923076922" height="11.69343190893403" fill="#f85149" opacity="0.45"/>
<rect x="485.31785643662255" y="562.8813482908365" width="1.2923076923076922" height="17.118651709163487" fill="#f85149" opacity="0.45"/>
<rect x="487.4772394700416" y="567.5347749196114" width="1.2923076923076922" height="12.465225080388564" fill="#f85149" opacity="0.45"/>
<rect x="489.63662250346056" y="567.6584496973645" width="1.2923076923076922" height="12.341550302635483" fill="#3fb950" opacity="0.45"/>
<rect x="491.7960055368796" y="570.491322994285" width="1.2923076923076922" height="9.508677005714958" fill="#3fb950" opacity="0.45"/>
<rect x="493.9553885702986" y="563.0273778772614" width="1.2923076923076922" height="16.972622122738585" fill="#3fb950" opacity="0.45"/>
<rect x="496.11477160371766" y="547.2121522697894" width="1.2923076923076922" height="32.787847730210615" fill="#3fb950" opacity="0.45"/>
<rect x="498.27415463713663" y="553.9124661153328" width="1.2923076923076922" height="26.08753388466721" fill="#f85149" opacity="0.45"/>
<rect x="500.43353767055567" y="553.8774041570005" width="1.2923076923076922" height="26.122595842999544" fill="#3fb950" opacity="0.45"/>
<rect x="502.5929207039747" y="558.0594737312163" width="1.2923076923076922" height="21.940526268783742" fill="#3fb950" opacity="0.45"/>
<rect x="504.75230373739373" y="548.8624444582895" width="1.2923076923076922" height="31.137555541710526" fill="#3fb950" opacity="0.45"/>
<rect x="506.91168677081276" y="557.4512460127182" width="1.2923076923076922" height="22.54875398728177" fill="#3fb950" opacity="0.45"/>
<rect x="509.07106980423174" y="541.1531780423402" width="1.2923076923076922" height="38.84682195765981" fill="#3fb950" opacity="0.45"/>
<rect x="511.2304528376508" y="520.8484773609046" width="1.2923076923076922" height="59.15152263909545" fill="#3fb950" opacity="0.45"/>
<rect x="513.3898358710697" y="540.999661012346" width="1.2923076923076922" height="39.000338987654004" fill="#3fb950" opacity="0.45"/>
<rect x="515.5492189044888" y="544.0686820236104" width="1.2923076923076922" height="35.93131797638955" fill="#f85149" opacity="0.45"/>
<rect x="517.7086019379079" y="529.1266819660748" width="1.2923076923076922" height="50.873318033925216" fill="#3fb950" opacity="0.45"/>
<rect x="519.8679849713268" y="546.0729269785375" width="1.2923076923076922" height="33.92707302146255" fill="#f85149" opacity="0.45"/>
<rect x="522.0273680047459" y="539.4215649833784" width="1.2923076923076922" height="40.5784350166216" fill="#3fb950" opacity="0.45"/>
<rect x="524.186751038165" y="555.5769072262432" width="1.2923076923076922" height="24.42309277375682" fill="#f85149" opacity="0.45"/>
<rect x="526.346134071584" y="554.8316671102139" width="1.2923076923076922" height="25.168332889786143" fill="#f85149" opacity="0.45"/>
<rect x="528.5055171050029" y="554.3889011423908" width="1.2923076923076922" height="25.61109885760925" fill="#3fb950" opacity="0.45"/>
<rect x="530.664900138422" y="532.8455466109754" width="1.2923076923076922" height="47.15445338902464" fill="#3fb950" opacity="0.45"/>
<rect x="532.824283171841" y="542.0685375681315" width="1.2923076923076922" height="37.931462431868454" fill="#f85149" opacity="0.45"/>
<rect x="534.98366620526" y="557.4772125843128" width="1.2923076923076922" height="22.522787415687162" fill="#3fb950" opacity="0.45"/>
<rect x="537.143049238679" y="552.4509190855779" width="1.2923076923076922" height="27.54908091442212" fill="#f85149" opacity="0.45"/>
<rect x="539.302432272098" y="546.3919888444159" width="1.2923076923076922" height="33.60801115558411" fill="#f85149" opacity="0.45"/>
<rect x="541.461815305517" y="558.8083304975337" width="1.2923076923076922" height="21.19166950246631" fill="#3fb950" opacity="0.45"/>
<rect x="543.6211983389361" y="545.7346822040369" width="1.2923076923076922" height="34.26531779596314" fill="#3fb950" opacity="0.45"/>
<rect x="545.7805813723552" y="551.6093880993137" width="1.2923076923076922" height="28.39061190068628" fill="#3fb950" opacity="0.45"/>
<rect x="547.939964405774" y="555.1937231282319" width="1.2923076923076922" height="24.80627687176809" fill="#f85149" opacity="0.45"/>
<rect x="550.0993474391931" y="547.0726326538828" width="1.2923076923076922" height="32.927367346117194" fill="#3fb950" opacity="0.45"/>
<rect x="552.2587304726122" y="548.5328258834624" width="1.2923076923076922" height="31.46717411653765" fill="#f85149" opacity="0.45"/>
<rect x="554.4181135060313" y="502.1605122181349" width="1.2923076923076922" height="77.8394877818651" fill="#3fb950" opacity="0.45"/>
<rect x="556.5774965394502" y="526.6602828653621" width="1.2923076923076922" height="53.33971713463791" fill="#3fb950" opacity="0.45"/>
<rect x="558.7368795728693" y="533.8150532564161" width="1.2923076923076922" height="46.18494674358385" fill="#f85149" opacity="0.45"/>
<rect x="560.8962626062884" y="537.7359273693612" width="1.2923076923076922" height="42.26407263063879" fill="#f85149" opacity="0.45"/>
<rect x="563.0556456397073" y="545.1271093924829" width="1.2923076923076922" height="34.87289060751709" fill="#f85149" opacity="0.45"/>
<rect x="565.2150286731263" y="549.7469598219627" width="1.2923076923076922" height="30.25304017803728" fill="#3fb950" opacity="0.45"/>
<rect x="567.3744117065454" y="541.1434081991973" width="1.2923076923076922" height="38.856591800802676" fill="#3fb950" opacity="0.45"/>
<rect x="569.5337947399644" y="558.8925544629562" width="1.2923076923076922" height="21.10744553704376" fill="#3fb950" opacity="0.45"/>
<rect x="571.6931777733834" y="559.4556424759681" width="1.2923076923076922" height="20.544357524031852" fill="#f85149" opacity="0.45"/>
<rect x="573.8525608068024" y="566.2593436460951" width="1.2923076923076922" height="13.74065635390491" fill="#f85149" opacity="0.45"/>
<rect x="576.0119438402214" y="560.2164341882358" width="1.2923076923076922" height="19.78356581176422" fill="#3fb950" opacity="0.45"/>
<rect x="578.1713268736404" y="557.6771302600288" width="1.2923076923076922" height="22.322869739971225" fill="#3fb950" opacity="0.45"/>
<rect x="580.3307099070595" y="559.181954909108" width="1.2923076923076922" height="20.818045090892042" fill="#f85149" opacity="0.45"/>
<rect x="582.4900929404786" y="551.7512389884465" width="1.2923076923076922" height="28.248761011553484" fill="#f85149" opacity="0.45"/>
<rect x="584.6494759738974" y="556.167775023359" width="1.2923076923076922" height="23.832224976640987" fill="#3fb950" opacity="0.45"/>
<rect x="586.8088590073165" y="556.2705123283638" width="1.2923076923076922" height="23.729487671636207" fill="#f85149" opacity="0.45"/>
<rect x="588.9682420407356" y="545.1701377561793" width="1.2923076923076922" height="34.829862243820685" fill="#3fb950" opacity="0.45"/>
<rect x="591.1276250741547" y="554.8743338088815" width="1.2923076923076922" height="25.125666191118512" fill="#3fb950" opacity="0.45"/>
<rect x="593.2870081075737" y="546.9835506473977" width="1.2923076923076922" height="33.01644935260231" fill="#3fb950" opacity="0.45"/>
<rect x="595.4463911409927" y="551.1040003204909" width="1.2923076923076922" height="28.895999679509146" fill="#3fb950" opacity="0.45"/>
<rect x="597.6057741744116" y="556.9514738165723" width="1.2923076923076922" height="23.048526183427725" fill="#f85149" opacity="0.45"/>
<rect x="599.7651572078307" y="539.4353864523167" width="1.2923076923076922" height="40.56461354768328" fill="#3fb950" opacity="0.45"/>
<rect x="601.9245402412497" y="540.6681852387223" width="1.2923076923076922" height="39.331814761277656" fill="#3fb950" opacity="0.45"/>
<rect x="604.0839232746687" y="554.7011451337398" width="1.2923076923076922" height="25.29885486626017" fill="#3fb950" opacity="0.45"/>
<rect x="606.2433063080878" y="551.1462173815551" width="1.2923076923076922" height="28.85378261844494" fill="#f85149" opacity="0.45"/>
<rect x="608.4026893415067" y="556.9473000066453" width="1.2923076923076922" height="23.052699993354736" fill="#3fb950" opacity="0.45"/>
<rect x="610.5620723749258" y="545.7578971889935" width="1.2923076923076922" height="34.242102811006475" fill="#3fb950" opacity="0.45"/>
<rect x="612.7214554083448" y="547.4200901118871" width="1.2923076923076922" height="32.579909888112866" fill="#f85149" opacity="0.45"/>
<rect x="614.8808384417638" y="556.5208529514055" width="1.2923076923076922" height="23.47914704859454" fill="#3fb950" opacity="0.45"/>
<rect x="617.0402214751829" y="556.3172257654618" width="1.2923076923076922" height="23.682774234538215" fill="#f85149" opacity="0.45"/>
<rect x="619.199604508602" y="559.1755426858947" width="1.2923076923076922" height="20.824457314105302" fill="#f85149" opacity="0.45"/>
<rect x="621.3589875420209" y="539.9790960620965" width="1.2923076923076922" height="40.02090393790354" fill="#3fb950" opacity="0.45"/>
<rect x="623.5183705754399" y="523.2932938566555" width="1.2923076923076922" height="56.70670614334449" fill="#3fb950" opacity="0.45"/>
<rect x="625.677753608859" y="546.4577287944477" width="1.2923076923076922" height="33.54227120555231" fill="#f85149" opacity="0.45"/>
<rect x="627.837136642278" y="558.9564909752094" width="1.2923076923076922" height="21.043509024790637" fill="#f85149" opacity="0.45"/>
<rect x="629.9965196756971" y="561.2121762103601" width="1.2923076923076922" height="18.7878237896399" fill="#f85149" opacity="0.45"/>
<rect x="632.155902709116" y="551.6402566982581" width="1.2923076923076922" height="28.3597433017419" fill="#3fb950" opacity="0.45"/>
<rect x="634.315285742535" y="554.7116529690361" width="1.2923076923076922" height="25.288347030963905" fill="#3fb950" opacity="0.45"/>
<rect x="636.4746687759541" y="562.3809798361295" width="1.2923076923076922" height="17.61902016387046" fill="#3fb950" opacity="0.45"/>
<rect x="638.6340518093731" y="560.4136442636009" width="1.2923076923076922" height="19.586355736399128" fill="#f85149" opacity="0.45"/>
<rect x="640.7934348427922" y="561.979551203625" width="1.2923076923076922" height="18.020448796375035" fill="#3fb950" opacity="0.45"/>
<rect x="642.9528178762112" y="547.4104473402409" width="1.2923076923076922" height="32.58955265975908" fill="#3fb950" opacity="0.45"/>
<rect x="645.1122009096301" y="547.8874884005904" width="1.2923076923076922" height="32.11251159940957" fill="#f85149" opacity="0.45"/>
<rect x="647.2715839430492" y="556.7036648487322" width="1.2923076923076922" height="23.29633515126784" fill="#3fb950" opacity="0.45"/>
<rect x="649.4309669764683" y="564.3279057713573" width="1.2923076923076922" height="15.672094228642663" fill="#f85149" opacity="0.45"/>
<rect x="651.5903500098872" y="559.9827448186146" width="1.2923076923076922" height="20.017255181385394" fill="#3fb950" opacity="0.45"/>
<rect x="653.7497330433063" y="558.3346812686704" width="1.2923076923076922" height="21.66531873132965" fill="#f85149" opacity="0.45"/>
<rect x="655.9091160767254" y="562.4798854467751" width="1.2923076923076922" height="17.520114553224857" fill="#3fb950" opacity="0.45"/>
<rect x="658.0684991101443" y="565.7249835660464" width="1.2923076923076922" height="14.275016433953624" fill="#3fb950" opacity="0.45"/>
<rect x="660.2278821435633" y="553.9483833625845" width="1.2923076923076922" height="26.051616637415464" fill="#3fb950" opacity="0.45"/>
<rect x="662.3872651769824" y="551.2934345977368" width="1.2923076923076922" height="28.70656540226321" fill="#f85149" opacity="0.45"/>
<rect x="664.5466482104014" y="560.4142454095272" width="1.2923076923076922" height="19.58575459047279" fill="#f85149" opacity="0.45"/>
<rect x="666.7060312438205" y="560.8813993299677" width="1.2923076923076922" height="19.118600670032265" fill="#f85149" opacity="0.45"/>
<rect x="668.8654142772394" y="563.3730563343133" width="1.2923076923076922" height="16.626943665686667" fill="#f85149" opacity="0.45"/>
<rect x="671.0247973106584" y="566.875264077503" width="1.2923076923076922" height="13.124735922497052" fill="#f85149" opacity="0.45"/>
<rect x="673.1841803440775" y="563.1312148394485" width="1.2923076923076922" height="16.86878516055151" fill="#f85149" opacity="0.45"/>
<rect x="675.3435633774965" y="567.8534311341739" width="1.2923076923076922" height="12.146568865826112" fill="#3fb950" opacity="0.45"/>
<rect x="677.5029464109156" y="565.9527347868839" width="1.2923076923076922" height="14.047265213116134" fill="#3fb950" opacity="0.45"/>
<rect x="679.6623294443345" y="568.4565857675382" width="1.2923076923076922" height="11.543414232461828" fill="#f85149" opacity="0.45"/>
<rect x="681.8217124777535" y="542.5647517623727" width="1.2923076923076922" height="37.43524823762732" fill="#3fb950" opacity="0.45"/>
<rect x="683.9810955111726" y="558.1402716535958" width="1.2923076923076922" height="21.859728346404154" fill="#f85149" opacity="0.45"/>
<rect x="686.1404785445917" y="560.9661755676641" width="1.2923076923076922" height="19.033824432335905" fill="#f85149" opacity="0.45"/>
<rect x="688.2998615780106" y="565.1766211845448" width="1.2923076923076922" height="14.823378815455158" fill="#f85149" opacity="0.45"/>
<rect x="690.4592446114297" y="471.66666666666663" width="1.2923076923076922" height="108.33333333333337" fill="#3fb950" opacity="0.45"/>
<rect x="692.6186276448487" y="510.9631017908705" width="1.2923076923076922" height="69.0368982091295" fill="#f85149" opacity="0.45"/>
<rect x="694.7780106782677" y="536.367900073742" width="1.2923076923076922" height="43.63209992625798" fill="#3fb950" opacity="0.45"/>
<rect x="696.9373937116868" y="546.5918723085749" width="1.2923076923076922" height="33.40812769142508" fill="#3fb950" opacity="0.45"/>
<rect x="699.0967767451058" y="550.879724016349" width="1.2923076923076922" height="29.120275983651027" fill="#f85149" opacity="0.45"/>
<rect x="701.2561597785248" y="545.1919891662301" width="1.2923076923076922" height="34.80801083376991" fill="#3fb950" opacity="0.45"/>
<rect x="703.4155428119439" y="543.9610426912558" width="1.2923076923076922" height="36.038957308744216" fill="#3fb950" opacity="0.45"/>
<rect x="705.5749258453628" y="548.5918261568089" width="1.2923076923076922" height="31.408173843191094" fill="#f85149" opacity="0.45"/>
<rect x="707.7343088787818" y="554.9438028186022" width="1.2923076923076922" height="25.056197181397806" fill="#3fb950" opacity="0.45"/>
<rect x="709.8936919122009" y="560.6302425169288" width="1.2923076923076922" height="19.369757483071226" fill="#f85149" opacity="0.45"/>
<rect x="712.0530749456199" y="529.0414072171227" width="1.2923076923076922" height="50.958592782877304" fill="#3fb950" opacity="0.45"/>
<rect x="714.212457979039" y="549.3543724332028" width="1.2923076923076922" height="30.645627566797202" fill="#f85149" opacity="0.45"/>
<rect x="716.371841012458" y="556.680381440662" width="1.2923076923076922" height="23.319618559337982" fill="#3fb950" opacity="0.45"/>
<rect x="718.5312240458769" y="551.796095226748" width="1.2923076923076922" height="28.20390477325202" fill="#f85149" opacity="0.45"/>
<rect x="720.690607079296" y="555.2646485727984" width="1.2923076923076922" height="24.735351427201635" fill="#3fb950" opacity="0.45"/>
<rect x="722.849990112715" y="559.8543341839304" width="1.2923076923076922" height="20.145665816069595" fill="#f85149" opacity="0.45"/>
<rect x="725.0093731461341" y="549.6093462785052" width="1.2923076923076922" height="30.3906537214948" fill="#f85149" opacity="0.45"/>
<rect x="727.168756179553" y="549.5618655250623" width="1.2923076923076922" height="30.43813447493767" fill="#f85149" opacity="0.45"/>
<rect x="729.328139212972" y="562.0728363442286" width="1.2923076923076922" height="17.927163655771437" fill="#f85149" opacity="0.45"/>
<rect x="731.4875222463911" y="562.2947960372401" width="1.2923076923076922" height="17.705203962759924" fill="#3fb950" opacity="0.45"/>
<rect x="733.6469052798102" y="564.3165328724111" width="1.2923076923076922" height="15.68346712758887" fill="#f85149" opacity="0.45"/>
<rect x="735.8062883132291" y="562.2128495840258" width="1.2923076923076922" height="17.787150415974224" fill="#f85149" opacity="0.45"/>
<rect x="737.9656713466482" y="551.5118558383044" width="1.2923076923076922" height="28.488144161695573" fill="#3fb950" opacity="0.45"/>
<rect x="740.1250543800672" y="543.3607960402176" width="1.2923076923076922" height="36.639203959782435" fill="#3fb950" opacity="0.45"/>
<rect x="742.2844374134862" y="553.1649435997298" width="1.2923076923076922" height="26.83505640027022" fill="#f85149" opacity="0.45"/>
<rect x="744.4438204469053" y="558.4231279176724" width="1.2923076923076922" height="21.576872082327554" fill="#3fb950" opacity="0.45"/>
<rect x="746.6032034803243" y="546.2987379153691" width="1.2923076923076922" height="33.70126208463091" fill="#f85149" opacity="0.45"/>
<rect x="748.7625865137433" y="536.2978543549214" width="1.2923076923076922" height="43.702145645078645" fill="#3fb950" opacity="0.45"/>
<rect x="750.9219695471623" y="551.2425131391551" width="1.2923076923076922" height="28.757486860844892" fill="#f85149" opacity="0.45"/>
<rect x="753.0813525805813" y="558.3625685748099" width="1.2923076923076922" height="21.63743142519013" fill="#3fb950" opacity="0.45"/>
<rect x="755.2407356140003" y="561.668924930175" width="1.2923076923076922" height="18.331075069825033" fill="#f85149" opacity="0.45"/>
<rect x="757.4001186474194" y="557.6618572436099" width="1.2923076923076922" height="22.338142756390084" fill="#3fb950" opacity="0.45"/>
<rect x="759.5595016808384" y="557.2332206487363" width="1.2923076923076922" height="22.76677935126372" fill="#3fb950" opacity="0.45"/>
<rect x="761.7188847142575" y="548.7500008458901" width="1.2923076923076922" height="31.2499991541099" fill="#3fb950" opacity="0.45"/>
<rect x="763.8782677476764" y="537.8003819423313" width="1.2923076923076922" height="42.19961805766866" fill="#3fb950" opacity="0.45"/>
<rect x="766.0376507810954" y="548.0126049510935" width="1.2923076923076922" height="31.987395048906478" fill="#3fb950" opacity="0.45"/>
<rect x="768.1970338145145" y="553.7581475574369" width="1.2923076923076922" height="26.241852442563072" fill="#f85149" opacity="0.45"/>
<rect x="770.3564168479336" y="542.7968331888252" width="1.2923076923076922" height="37.20316681117481" fill="#3fb950" opacity="0.45"/>
<rect x="772.5157998813526" y="555.8115740689152" width="1.2923076923076922" height="24.188425931084794" fill="#f85149" opacity="0.45"/>
<rect x="774.6751829147715" y="551.5903713611103" width="1.2923076923076922" height="28.40962863888967" fill="#f85149" opacity="0.45"/>
<rect x="776.8345659481906" y="559.2227839584401" width="1.2923076923076922" height="20.777216041559882" fill="#3fb950" opacity="0.45"/>
<rect x="778.9939489816096" y="551.4487452907792" width="1.2923076923076922" height="28.551254709220757" fill="#f85149" opacity="0.45"/>
<rect x="781.1533320150287" y="562.3471397191106" width="1.2923076923076922" height="17.6528602808894" fill="#3fb950" opacity="0.45"/>
<rect x="783.3127150484477" y="563.3526075980905" width="1.2923076923076922" height="16.647392401909542" fill="#f85149" opacity="0.45"/>
<rect x="785.4720980818666" y="566.9062499732134" width="1.2923076923076922" height="13.093750026786552" fill="#f85149" opacity="0.45"/>
<rect x="787.6314811152857" y="566.5399419474244" width="1.2923076923076922" height="13.460058052575619" fill="#3fb950" opacity="0.45"/>
<rect x="789.7908641487047" y="568.6037883216242" width="1.2923076923076922" height="11.396211678375835" fill="#3fb950" opacity="0.45"/>
<rect x="791.9502471821237" y="568.6817320226953" width="1.2923076923076922" height="11.318267977304686" fill="#3fb950" opacity="0.45"/>
<rect x="794.1096302155428" y="558.4631065654504" width="1.2923076923076922" height="21.536893434549597" fill="#3fb950" opacity="0.45"/>
<rect x="796.2690132489618" y="569.1026368057371" width="1.2923076923076922" height="10.89736319426288" fill="#3fb950" opacity="0.45"/>
<rect x="798.4283962823808" y="565.7665261707056" width="1.2923076923076922" height="14.23347382929444" fill="#f85149" opacity="0.45"/>
<rect x="800.5877793157999" y="569.0832828393312" width="1.2923076923076922" height="10.916717160668782" fill="#3fb950" opacity="0.45"/>
<rect x="802.7471623492188" y="506.0721687602109" width="1.2923076923076922" height="73.9278312397891" fill="#3fb950" opacity="0.45"/>
<rect x="804.9065453826379" y="537.7302971245886" width="1.2923076923076922" height="42.26970287541144" fill="#f85149" opacity="0.45"/>
<rect x="807.065928416057" y="557.8343323634244" width="1.2923076923076922" height="22.165667636575563" fill="#f85149" opacity="0.45"/>
<rect x="809.225311449476" y="554.1974190591034" width="1.2923076923076922" height="25.802580940896632" fill="#f85149" opacity="0.45"/>
<rect x="811.3846944828949" y="551.1615783705486" width="1.2923076923076922" height="28.83842162945143" fill="#f85149" opacity="0.45"/>
<rect x="813.544077516314" y="563.6332743225333" width="1.2923076923076922" height="16.36672567746666" fill="#f85149" opacity="0.45"/>
<rect x="815.703460549733" y="513.383378825681" width="1.2923076923076922" height="66.616621174319" fill="#3fb950" opacity="0.45"/>
<rect x="817.8628435831521" y="523.2605387347231" width="1.2923076923076922" height="56.73946126527687" fill="#3fb950" opacity="0.45"/>
<rect x="820.0222266165711" y="537.580504266918" width="1.2923076923076922" height="42.419495733082044" fill="#f85149" opacity="0.45"/>
<rect x="822.18160964999" y="519.9815613995111" width="1.2923076923076922" height="60.018438600488935" fill="#f85149" opacity="0.45"/>
<rect x="824.3409926834091" y="535.2310549293687" width="1.2923076923076922" height="44.768945070631275" fill="#f85149" opacity="0.45"/>
<rect x="826.5003757168281" y="549.8993185463917" width="1.2923076923076922" height="30.10068145360833" fill="#f85149" opacity="0.45"/>
<rect x="828.6597587502472" y="550.9842794212283" width="1.2923076923076922" height="29.01572057877172" fill="#f85149" opacity="0.45"/>
<rect x="830.8191417836662" y="545.7269455048398" width="1.2923076923076922" height="34.27305449516018" fill="#f85149" opacity="0.45"/>
<rect x="832.9785248170851" y="543.9395138473118" width="1.2923076923076922" height="36.06048615268821" fill="#f85149" opacity="0.45"/>
<rect x="835.1379078505042" y="550.5822936290848" width="1.2923076923076922" height="29.417706370915198" fill="#f85149" opacity="0.45"/>
<rect x="837.2972908839233" y="548.2230304621055" width="1.2923076923076922" height="31.7769695378945" fill="#f85149" opacity="0.45"/>
<rect x="839.4566739173422" y="555.5246955032345" width="1.2923076923076922" height="24.47530449676549" fill="#f85149" opacity="0.45"/>
<rect x="841.6160569507613" y="541.1341368673104" width="1.2923076923076922" height="38.86586313268958" fill="#f85149" opacity="0.45"/>
<rect x="843.7754399841804" y="554.97204201504" width="1.2923076923076922" height="25.02795798496004" fill="#3fb950" opacity="0.45"/>
<rect x="845.9348230175993" y="552.600511561273" width="1.2923076923076922" height="27.399488438726962" fill="#3fb950" opacity="0.45"/>
<rect x="848.0942060510184" y="559.1766570051726" width="1.2923076923076922" height="20.823342994827385" fill="#f85149" opacity="0.45"/>
<rect x="850.2535890844373" y="562.8448885460415" width="1.2923076923076922" height="17.15511145395851" fill="#3fb950" opacity="0.45"/>
<rect x="852.4129721178564" y="562.014740233454" width="1.2923076923076922" height="17.98525976654605" fill="#f85149" opacity="0.45"/>
<rect x="854.5723551512755" y="566.9607734199874" width="1.2923076923076922" height="13.03922658001261" fill="#f85149" opacity="0.45"/>
<rect x="856.7317381846944" y="562.4101134204087" width="1.2923076923076922" height="17.58988657959128" fill="#3fb950" opacity="0.45"/>
<rect x="858.8911212181134" y="545.1949020359215" width="1.2923076923076922" height="34.80509796407853" fill="#3fb950" opacity="0.45"/>
<rect x="861.0505042515325" y="564.8329465472472" width="1.2923076923076922" height="15.167053452752839" fill="#f85149" opacity="0.45"/>
<rect x="863.2098872849515" y="563.0691892870096" width="1.2923076923076922" height="16.930810712990365" fill="#3fb950" opacity="0.45"/>
<rect x="865.3692703183706" y="553.1990476344723" width="1.2923076923076922" height="26.800952365527678" fill="#3fb950" opacity="0.45"/>
<rect x="867.5286533517896" y="570.0149759398016" width="1.2923076923076922" height="9.985024060198384" fill="#f85149" opacity="0.45"/>
<rect x="869.6880363852085" y="569.7756318885815" width="1.2923076923076922" height="10.224368111418471" fill="#3fb950" opacity="0.45"/>
<rect x="871.8474194186276" y="563.8102409310163" width="1.2923076923076922" height="16.189759068983676" fill="#f85149" opacity="0.45"/>
<rect x="874.0068024520466" y="569.9679106124054" width="1.2923076923076922" height="10.032089387594624" fill="#3fb950" opacity="0.45"/>
<rect x="876.1661854854657" y="561.338020978286" width="1.2923076923076922" height="18.661979021714046" fill="#f85149" opacity="0.45"/>
<rect x="878.3255685188847" y="568.3314154560175" width="1.2923076923076922" height="11.668584543982547" fill="#3fb950" opacity="0.45"/>
<rect x="880.4849515523036" y="570.4157789895536" width="1.2923076923076922" height="9.584221010446413" fill="#3fb950" opacity="0.45"/>
<rect x="882.6443345857227" y="568.8054898856577" width="1.2923076923076922" height="11.194510114342279" fill="#f85149" opacity="0.45"/>
<rect x="884.8037176191418" y="569.6483648973667" width="1.2923076923076922" height="10.351635102633281" fill="#f85149" opacity="0.45"/>
<rect x="886.9631006525607" y="530.6515790242524" width="1.2923076923076922" height="49.34842097574756" fill="#f85149" opacity="0.45"/>
<rect x="889.1224836859798" y="560.8448955988855" width="1.2923076923076922" height="19.1551044011145" fill="#f85149" opacity="0.45"/>
<rect x="891.2818667193989" y="559.3440394903924" width="1.2923076923076922" height="20.655960509607553" fill="#3fb950" opacity="0.45"/>
<rect x="893.4412497528178" y="560.1128562564072" width="1.2923076923076922" height="19.887143743592787" fill="#3fb950" opacity="0.45"/>
<rect x="895.6006327862369" y="502.74673701825935" width="1.2923076923076922" height="77.25326298174065" fill="#3fb950" opacity="0.45"/>
<rect x="897.7600158196559" y="535.4697147494533" width="1.2923076923076922" height="44.53028525054674" fill="#f85149" opacity="0.45"/>
<rect x="899.9193988530749" y="549.6634982855198" width="1.2923076923076922" height="30.336501714480164" fill="#f85149" opacity="0.45"/>
<rect x="902.078781886494" y="550.454679634937" width="1.2923076923076922" height="29.54532036506305" fill="#3fb950" opacity="0.45"/>
<rect x="904.238164919913" y="551.5879716647706" width="1.2923076923076922" height="28.412028335229365" fill="#f85149" opacity="0.45"/>
<rect x="906.3975479533319" y="532.9554487934427" width="1.2923076923076922" height="47.044551206557344" fill="#3fb950" opacity="0.45"/>
<rect x="908.556930986751" y="545.0397477385673" width="1.2923076923076922" height="34.96025226143274" fill="#3fb950" opacity="0.45"/>
<rect x="910.71631402017" y="557.3199860440909" width="1.2923076923076922" height="22.68001395590909" fill="#f85149" opacity="0.45"/>
<rect x="912.8756970535891" y="558.635371528559" width="1.2923076923076922" height="21.36462847144105" fill="#3fb950" opacity="0.45"/>
<rect x="915.035080087008" y="540.9725019236294" width="1.2923076923076922" height="39.02749807637065" fill="#3fb950" opacity="0.45"/>
<rect x="917.194463120427" y="535.1535706406314" width="1.2923076923076922" height="44.846429359368585" fill="#3fb950" opacity="0.45"/>
<rect x="919.3538461538461" y="552.3256754635782" width="1.2923076923076922" height="27.67432453642175" fill="#f85149" opacity="0.45"/>
<polyline points="80.0,284.6162945936886 82.15938303341902,329.79933023671566 84.31876606683805,327.9467228527191 86.47814910025707,341.738355600249 88.63753213367609,329.6964076042714 90.79691516709512,339.4740576864754 92.95629820051414,341.6354329678047 95.11568123393316,342.7675819246915 97.27506426735218,328.3584133824961 99.43444730077121,328.15256811760764 101.59383033419023,324.75612124694726 103.75321336760925,328.04964548516335 105.91259640102828,331.96070551804496 108.0719794344473,323.5210496576162 110.23136246786632,320.33044805184437 112.39074550128535,337.82729556736734 114.55012853470437,343.6938856166898 116.70951156812339,345.85526089801914 118.86889460154242,350.5897019904548 121.02827763496143,348.73709460645824 123.18766066838046,340.4003613784737 125.34704370179949,339.16528978914266 127.5064267352185,331.4460923558237 129.66580976863753,329.6964076042714 131.82519280205656,319.5070669922904 133.98457583547557,323.10935912783924 136.1439588688946,323.418127025172 138.30334190231363,333.8133129020415 140.46272493573264,328.9759491771616 142.62210796915167,340.6062066433622 144.7814910025707,332.1665507829335 146.9408740359897,328.3584133824961 149.10025706940874,329.79933023671566 151.25964010282777,346.88448722246164 153.41902313624678,342.97342718958 155.5784061696658,348.1195588117927 157.73778920308484,342.97342718958 159.89717223650385,347.3991003846829 162.05655526992285,341.2237424380277 164.2159383033419,335.6659202860381 166.37532133676092,333.607467637153 168.53470437017995,341.1208198055835 170.69408740359899,332.2694734153777 172.853470437018,331.8577828856007 175.012853470437,332.47531868026624 177.17223650385603,331.96070551804496 179.33161953727506,330.82855656115817 181.4910025706941,329.9022528691599 183.65038560411313,339.16528978914266 185.80976863753213,340.29743874602946 187.96915167095113,344.92895720602087 190.12853470437017,342.7675819246915 192.2879177377892,341.2237424380277 194.44730077120823,333.9162355344858 196.60668380462727,336.6951466104806 198.7660668380463,328.15256811760764 200.9254498714653,330.93147919360246 203.0848329048843,313.64047694296795 205.24421593830334,315.18431642963174 207.40359897172237,298.51084997366274 209.56298200514138,314.97847116474327 211.7223650385604,322.9035138629507 213.88174807197942,325.5795023065013 216.04113110539845,329.2847170744944 218.20051413881748,334.73961659403983 220.35989717223651,342.561736659803 222.51928020565555,341.738355600249 224.67866323907455,353.67738096378235 226.83804627249359,354.29491675844787 228.9974293059126,324.241508084726 231.15681233933162,330.4168660313812 233.31619537275066,326.50580599849957 235.47557840616966,322.38890070072944 237.6349614395887,321.97721017095245 239.7943444730077,319.30122172740187 241.95372750642673,324.34443071717027 244.11311053984574,326.2999607336111 246.2724935732648,334.84253922648406 248.4318766066838,339.3711350540312 250.59125964010283,339.26821242158695 252.75064267352187,325.06488914428 254.91002570694087,312.09663745630417 257.0694087403599,315.0813937971875 259.2287917737789,315.9047748567415 261.38817480719797,315.3901616945202 263.54755784061695,319.6099896247346 265.706940874036,320.9479838465099 267.866323907455,320.84506121406565 270.025706940874,328.3584133824961 272.1850899742931,318.2719954029593 274.34447300771205,301.4956063145461 276.50385604113114,305.2008210825392 278.6632390745501,294.18809941100415 280.82262210796915,301.08391578476903 282.9820051413882,295.6290162652237 285.14138817480716,295.2173257354467 287.30077120822625,305.3037437149835 289.4601542416452,309.21480374786506 291.61953727506426,306.02420214209326 293.7789203084833,299.5400762981053 295.93830334190227,296.34947469233344 298.09768637532136,295.0114804705582 300.25706940874034,299.0254631358841 302.4164524421594,291.1004204376766 304.5758354755784,295.2173257354467 306.73521850899743,299.95176682788235 308.89460154241647,290.6887299078995 311.05398457583544,284.41044932880015 313.21336760925453,286.57182461012945 315.3727506426735,285.1309077559099 317.5321336760926,294.39394467589267 319.6915167095116,304.78913055276223 321.8508997429306,304.27451739054095 324.01028277634964,306.332970039426 326.1696658097686,310.34695270475186 328.32904884318765,304.78913055276223 330.4884318766067,313.2287864131909 332.64781491002566,315.4930843269645 334.80719794344475,314.97847116474327 336.9665809768638,314.77262589985475 339.12596401028276,324.0356628198375 341.2853470437018,374.7765206148542 343.4447300771208,365.20471579753865 345.60411311053986,368.90993056553174 347.76349614395883,352.9569225366726 349.9228791773779,346.6786419575731 352.0822622107969,343.2821950869128 354.24164524421593,344.41434404379953 356.40102827763496,352.2364641095628 358.560411311054,347.91371354690415 360.71979434447303,346.6786419575731 362.879177377892,343.6938856166898 365.0385604113111,335.25422975626105 367.1979434447301,337.3126824051461 369.3573264781491,339.06236715669843 371.51670951156814,341.1208198055835 373.67609254498717,345.75233826557485 375.83547557840615,339.7828255838082 377.9948586118252,340.09159348114093 380.1542416452442,334.01915816693 382.31362467866325,334.9454618589283 384.4730077120822,332.2694734153777 386.6323907455013,338.54775399447715 388.79177377892034,332.1665507829335 390.9511568123393,320.43337068428866 393.11053984575835,307.6709642612012 395.2699228791774,317.13984644607257 397.4293059125964,320.5362933167329 399.5886889460154,324.9619665118358 401.7480719794344,320.9479838465099 403.90745501285346,327.63795495538636 406.0668380462725,330.82855656115817 408.22622107969147,329.9022528691599 410.38560411311056,336.1805334482593 412.5449871465296,334.63669396159554 414.70437017994857,341.5325103353605 416.8637532133676,337.72437293492317 419.02313624678663,345.13480247090934 421.18251928020567,345.13480247090934 423.34190231362464,341.738355600249 425.50128534704373,339.6799029513639 427.6606683804627,338.8565218918099 429.82005141388174,335.76884291848233 431.9794344473008,341.2237424380277 434.1388174807198,338.54775399447715 436.2982005141388,330.1080981340484 438.4575835475578,334.9454618589283 440.6169665809769,335.04838449137253 442.7763496143959,333.09285447493176 444.9357326478149,336.9009918753691 447.09511568123395,340.91497454069497 449.254498714653,341.5325103353605 451.41388174807196,338.2389860971444 453.573264781491,330.4168660313812 455.73264781491,328.46133601494034 457.89203084832906,341.1208198055835 460.05141388174803,340.70912927580645 462.2107969151671,332.784086577599 464.37017994858616,332.5782413127105 466.52956298200513,334.73961659403983 468.68894601542416,328.77010391227316 470.8483290488432,335.56299765359387 473.00771208226223,335.25422975626105 475.1670951156812,331.8577828856007 477.32647814910024,334.22500343181855 479.4858611825193,333.09285447493176 481.6452442159383,331.24024709093516 483.8046272493573,332.06362815048925 485.96401028277637,336.0776108158151 488.1233933161954,337.51852767003464 490.2827763496144,334.73961659403983 492.4421593830334,333.09285447493176 494.60154241645245,330.1080981340484 496.7609254498715,321.0509064789542 498.92030848329046,323.829817554949 501.0796915167095,320.22752541940014 503.2390745501285,319.6099896247346 505.39845758354755,315.5960069594088 507.5578406169666,314.5667806349662 509.71722365038556,310.96448849941737 511.8766066838046,304.68620792031794 514.0359897172236,300.3634573576593 516.1953727506427,300.98099315232486 518.3547557840618,288.9390451563472 520.5141388174807,294.9085578381139 522.6735218508998,290.6887299078995 524.8329048843189,292.4384146594519 526.9922879177378,294.39394467589267 529.1516709511568,288.63027725901446 531.3110539845759,273.60357292215355 533.4704370179949,282.8666098421363 535.6298200514138,280.8081571932513 537.7892030848329,284.3075266963559 539.9485861182519,288.5273546265703 542.1079691516709,284.10168143146734 544.26735218509,278.7497045443662 546.4267352185091,274.1181860843748 548.5861182519279,277.72047821992373 550.745501285347,267.63406024038693 552.9048843187661,283.17537773946907 555.0642673521852,255.69503487685358 557.2236503856041,254.3570406550783 559.3830334190231,257.34179699596166 561.5424164524422,270.41297131638174 563.7017994858612,284.8221398585772 565.8611825192802,283.17537773946907 568.0205655526993,268.04575077016386 570.1799485861183,263.82592283994956 572.3393316195372,270.104203419049 574.4987146529563,272.88311449504374 576.6580976863753,269.4866676243835 578.8174807197943,266.1931433861673 580.9768637532134,278.33801401458913 583.1362467866325,283.5870682692462 585.2956298200513,276.07371610081566 587.4550128534704,280.19062139858573 589.6143958868895,267.73698287283116 591.7737789203086,262.48792861817424 593.9331619537276,258.6797912177369 596.0925449871465,251.1664390493064 598.2519280205655,255.07749908218804 600.4113110539846,239.74202684799437 602.5706940874036,229.5526862360134 604.7300771208226,227.08254305735127 606.8894601542416,231.91990678223115 609.0488431876606,230.58191256045583 611.2082262210797,221.52472090536162 613.3676092544987,226.77377516001852 615.5269922879177,221.62764353780588 617.6863753213368,236.55142524222256 619.8457583547558,237.68357419910933 622.0051413881748,212.77629714760013 624.1645244215938,212.2616839853789 626.3239074550129,221.52472090536162 628.4832904884319,226.77377516001852 630.642673521851,227.39131095468403 632.8020565552699,215.1435176938179 634.9614395886889,212.6733745151559 637.120822622108,208.76231448227423 639.280205655527,218.23119666714555 641.4395886889461,216.68735718048174 643.598971722365,205.05709971428115 645.758354755784,226.0533167329087 647.9177377892031,214.93767242892946 650.0771208226222,217.92242876981277 652.236503856041,210.10030870404955 654.3958868894601,219.1575003591438 656.5552699228792,214.7318271640409 658.7146529562982,211.5412255582691 660.8740359897172,199.70512282718 663.0334190231363,209.3798502769398 665.1928020565553,216.06982138581623 667.3521850899743,223.48025092180242 669.5115681233933,230.3760672955674 671.6709511568123,236.24265734488984 673.8303341902314,249.93136745997543 675.9897172236504,246.0203074270938 678.1491002570694,237.58065156666504 680.3084832904884,241.08002106976966 682.4678663239074,220.70133984580764 684.6272493573265,221.42179827291736 686.7866323907456,222.1422567000271 688.9460154241644,225.64162620313175 691.1053984575835,185.19303165254036 693.2647814910026,194.14730067519034 695.4241645244216,189.51578221519898 697.5835475578407,188.89824642053347 699.7429305912597,204.4395639196156 701.9023136246786,190.33916327475302 704.0616966580977,187.35440693386965 706.2210796915167,193.01515171830357 708.3804627249357,191.78008012897254 710.5398457583548,201.55773021117653 712.6992287917737,176.2387626298904 714.8586118251928,179.73813213299493 717.0179948586119,179.63520950055073 719.1773778920308,181.6936621494357 721.3367609254499,176.34168526233464 723.4961439588689,180.56151319254894 725.655526992288,180.76735845743747 727.8149100257069,187.76609746364667 729.9742930591259,189.82455011253177 732.133676092545,188.2807106258679 734.2930591259641,194.45606857252312 736.4524421593829,194.86775910230008 738.611825192802,182.41412057654549 740.7712082262211,164.71142779613402 742.9305912596401,167.90202940190588 745.0899742930592,163.476356206803 747.2493573264782,169.03417835879264 749.4087403598971,157.30099826014782 751.5681233933162,166.15234465035354 753.7275064267352,155.2425456112627 755.8868894601542,163.68220147169149 758.0462724935733,152.3607119028237 760.2056555269922,147.52334817794377 762.3650385604113,137.5398528308512 764.5244215938303,126.63005379176047 766.6838046272493,123.43945218598861 768.8431876606684,131.7761854139731 771.0025706940875,125.49790483487372 773.1619537275064,133.83463806285812 775.3213367609254,150.30225925393864 777.4807197943445,147.21458028061105 779.6401028277635,172.63647049434152 781.7994858611826,162.75589777969324 783.9588688946016,163.68220147169149 786.1182519280205,170.4750952130122 788.2776349614396,163.78512410413578 790.4370179948586,160.59452249836392 792.5964010282776,158.33022458459035 794.7557840616967,148.75841976727486 796.9151670951156,142.17137129084261 799.0745501285347,144.74443710194896 801.2339331619538,135.37847754952193 803.3933161953727,101.51693147536272 805.5526992287918,112.5296531468978 807.7120822622109,114.79395106067136 809.8714652956298,127.35051221887026 812.0308483290488,136.92231703618575 814.1902313624679,137.436930198407 816.3496143958869,93.69481140959951 818.508997429306,71.15475490430816 820.6683804627249,85.04931028428226 822.8277634961439,114.6910284282271 824.987146529563,119.6313147855513 827.146529562982,130.95280435441902 829.3059125964011,142.0684486583984 831.46529562982,142.99475235039665 833.624678663239,166.35818991524206 835.7840616966581,172.01893469967595 837.9434447300772,192.39761592363809 840.1028277634961,195.58821752940986 842.2622107969152,222.86271512713685 844.4215938303342,214.52598189915244 846.5809768637532,195.17652699963287 848.7403598971723,195.6911401618541 850.8997429305912,193.2209969831921 853.0591259640103,198.36712860540473 855.2185089974294,206.0863260387237 857.3778920308483,190.85377643697424 859.5372750642673,179.84105476543917 861.6966580976864,184.57549585787478 863.8560411311054,176.65045315966736 866.0154241645245,160.59452249836392 868.1748071979434,161.93251672013923 870.3341902313624,159.2565282765886 872.4935732647815,170.26924994812367 874.6529562982005,169.54879152101387 876.8123393316196,182.31119794410128 878.9717223650385,177.9884473814426 881.1311053984575,177.5767568516656 883.2904884318766,183.95796006320933 885.4498714652957,188.48655589075645 887.6092544987146,215.1435176938179 889.7686375321337,219.2604229915881 891.9280205655527,212.46752925026735 894.0874035989717,208.65939184983003 896.2467866323908,165.22604095835533 898.4061696658098,171.71016680234322 900.5655526992288,182.10535267921279 902.7249357326479,178.2972152787754 904.8843187660668,184.36965059298635 907.0437017994858,170.26924994812367 909.2030848329049,165.32896359079956 911.3624678663239,177.37091158677714 913.521850899743,170.68094047790066 915.6812339331619,159.8740640712541 917.8406169665809,152.87532506504493 920.0,157.91853405481334" stroke="#58a6ff" stroke-width="1.8" fill="none"/>
<line x1="80" y1="159.2565282765886" x2="920" y2="159.2565282765886" stroke="#f0883e" stroke-width="1.5" stroke-dasharray="6,3"/>
<text x="925" y="163.2565282765886" font-size="11" fill="#f0883e" font-weight="bold">颈线 45.63</text>
<line x1="80" y1="95.65034142604033" x2="920" y2="95.65034142604033" stroke="#a371f7" stroke-width="1.2" stroke-dasharray="4,4"/>
<text x="925" y="99.65034142604033" font-size="11" fill="#a371f7" font-weight="bold">目标 51.81 (+13.2%)</text>
<circle cx="842.2622107969152" cy="222.86271512713685" r="6" fill="#238636" stroke="#fff" stroke-width="2"/>
<text x="842.2622107969152" y="242.86271512713685" text-anchor="middle" font-size="10" fill="#3fb950">左底 39.45</text>
<circle cx="889.7686375321337" cy="219.2604229915881" r="6" fill="#8957e5" stroke="#fff" stroke-width="2"/>
<text x="889.7686375321337" y="239.2604229915881" text-anchor="middle" font-size="10" fill="#bc8cff">右底 39.80</text>
<circle cx="917.8406169665809" cy="159.2565282765886" r="7" fill="#f0883e" stroke="#fff" stroke-width="2"/>
<text x="917.8406169665809" y="147.2565282765886" text-anchor="middle" font-size="10" fill="#f0883e">突破</text>
<line x1="920.0" y1="157.91853405481334" x2="920" y2="157.91853405481334" stroke="#f85149" stroke-width="1"/>
<text x="925" y="161.91853405481334" font-size="11" fill="#f85149" font-weight="bold">现价 45.76</text>
<text x="80" y="598" font-size="13" fill="#58a6ff" font-weight="bold">筛选高分原因:</text>
<text x="90" y="618" font-size="11" fill="#c9d1d9">  1. 刚刚突破(1天前)</text>
<text x="90" y="636" font-size="11" fill="#c9d1d9">  2. 右底显著缩量(49%)</text>
<text x="90" y="654" font-size="11" fill="#c9d1d9">  3. 形态跨度适中(22根K线)</text>
<text x="90" y="672" font-size="11" fill="#c9d1d9">  4. MACD改善</text>
<text x="90" y="690" font-size="11" fill="#c9d1d9">  5. 右底高于左底</text>
<text x="928" y="80" font-size="11" fill="#8b949e">突破日: 2026-05-15</text>
<text x="928" y="98" font-size="11" fill="#8b949e">突破后涨幅: 0.3%</text>
<text x="928" y="116" font-size="11" fill="#8b949e">目标空间: 13.2%</text>
<text x="928" y="134" font-size="11" fill="#8b949e">形态跨度: 22根K线</text>
</svg>