<svg xmlns="http://www.w3.org/2000/svg" viewBox="0 0 1000 700" width="1000" height="700">
<rect width="1000" height="700" fill="#0d1117"/>
<text x="500.0" y="24" text-anchor="middle" font-size="18" fill="#58a6ff" font-weight="bold">科远智慧 (002380.SZ)</text>
<text x="500.0" y="46" text-anchor="middle" font-size="14" fill="#8b949e">双底突破 | 评分:68/100 | 突破后涨幅:3.2% | 目标空间:26.7%</text>
<line x1="80" y1="382.4" x2="920" y2="382.4" stroke="#21262d" stroke-width="0.5"/>
<text x="72" y="386.4" text-anchor="end" font-size="10" fill="#8b949e">16.49</text>
<line x1="80" y1="317.92" x2="920" y2="317.92" stroke="#21262d" stroke-width="0.5"/>
<text x="72" y="321.92" text-anchor="end" font-size="10" fill="#8b949e">22.05</text>
<line x1="80" y1="253.43999999999994" x2="920" y2="253.43999999999994" stroke="#21262d" stroke-width="0.5"/>
<text x="72" y="257.43999999999994" text-anchor="end" font-size="10" fill="#8b949e">27.61</text>
<line x1="80" y1="188.95999999999995" x2="920" y2="188.95999999999995" stroke="#21262d" stroke-width="0.5"/>
<text x="72" y="192.95999999999995" text-anchor="end" font-size="10" fill="#8b949e">33.16</text>
<line x1="80" y1="124.47999999999998" x2="920" y2="124.47999999999998" stroke="#21262d" stroke-width="0.5"/>
<text x="72" y="128.47999999999996" text-anchor="end" font-size="10" fill="#8b949e">38.72</text>
<line x1="80" y1="60.0" x2="920" y2="60.0" stroke="#21262d" stroke-width="0.5"/>
<text x="72" y="64.0" text-anchor="end" font-size="10" fill="#8b949e">44.28</text>
<text x="80.0" y="396.4" text-anchor="middle" font-size="9" fill="#8b949e">2024-10-08</text>
<text x="183.65038560411313" y="396.4" text-anchor="middle" font-size="9" fill="#8b949e">2024-12-13</text>
<text x="287.30077120822625" y="396.4" text-anchor="middle" font-size="9" fill="#8b949e">2025-02-28</text>
<text x="390.9511568123393" y="396.4" text-anchor="middle" font-size="9" fill="#8b949e">2025-05-13</text>
<text x="494.60154241645245" y="396.4" text-anchor="middle" font-size="9" fill="#8b949e">2025-07-21</text>
<text x="598.2519280205655" y="396.4" text-anchor="middle" font-size="9" fill="#8b949e">2025-09-25</text>
<text x="701.9023136246786" y="396.4" text-anchor="middle" font-size="9" fill="#8b949e">2025-12-10</text>
<text x="805.5526992287918" y="396.4" text-anchor="middle" font-size="9" fill="#8b949e">2026-02-26</text>
<text x="909.2030848329049" y="396.4" text-anchor="middle" font-size="9" fill="#8b949e">2026-05-11</text>
<rect x="758.0462724935733" y="60" width="161.95372750642673" height="520.0" fill="#238636" opacity="0.10" rx="4"/>
<text x="839.0231362467866" y="52" text-anchor="middle" font-size="11" fill="#3fb950" font-weight="bold">双底区域</text>
<rect x="79.35384615384615" y="527.059071437517" width="1.2923076923076922" height="52.94092856248301" fill="#3fb950" opacity="0.45"/>
<rect x="81.51322918726517" y="517.2982813453528" width="1.2923076923076922" height="62.70171865464715" fill="#f85149" opacity="0.45"/>
<rect x="83.6726122206842" y="531.0372744245642" width="1.2923076923076922" height="48.9627255754358" fill="#3fb950" opacity="0.45"/>
<rect x="85.83199525410322" y="538.5244973657935" width="1.2923076923076922" height="41.475502634206464" fill="#3fb950" opacity="0.45"/>
<rect x="87.99137828752224" y="535.5369977835318" width="1.2923076923076922" height="44.463002216468226" fill="#3fb950" opacity="0.45"/>
<rect x="90.15076132094127" y="523.362626838026" width="1.2923076923076922" height="56.63737316197398" fill="#3fb950" opacity="0.45"/>
<rect x="92.31014435436029" y="514.572699684262" width="1.2923076923076922" height="65.42730031573797" fill="#f85149" opacity="0.45"/>
<rect x="94.46952738777931" y="535.6436282473379" width="1.2923076923076922" height="44.356371752662085" fill="#f85149" opacity="0.45"/>
<rect x="96.62891042119833" y="530.5859953412132" width="1.2923076923076922" height="49.41400465878678" fill="#3fb950" opacity="0.45"/>
<rect x="98.78829345461736" y="529.5687138043777" width="1.2923076923076922" height="50.431286195622306" fill="#3fb950" opacity="0.45"/>
<rect x="100.94767648803638" y="546.4549482331664" width="1.2923076923076922" height="33.54505176683358" fill="#3fb950" opacity="0.45"/>
<rect x="103.1070595214554" y="551.3040121704663" width="1.2923076923076922" height="28.695987829533692" fill="#f85149" opacity="0.45"/>
<rect x="105.26644255487443" y="546.7430813901909" width="1.2923076923076922" height="33.25691860980908" fill="#3fb950" opacity="0.45"/>
<rect x="107.42582558829345" y="546.1671105314522" width="1.2923076923076922" height="33.83288946854782" fill="#3fb950" opacity="0.45"/>
<rect x="109.58520862171247" y="542.2543637415346" width="1.2923076923076922" height="37.745636258465424" fill="#3fb950" opacity="0.45"/>
<rect x="111.7445916551315" y="544.8009958286651" width="1.2923076923076922" height="35.19900417133488" fill="#f85149" opacity="0.45"/>
<rect x="113.90397468855052" y="547.7796349630866" width="1.2923076923076922" height="32.22036503691345" fill="#3fb950" opacity="0.45"/>
<rect x="116.06335772196954" y="552.5634418144442" width="1.2923076923076922" height="27.436558185555782" fill="#3fb950" opacity="0.45"/>
<rect x="118.22274075538857" y="545.3618438715721" width="1.2923076923076922" height="34.63815612842791" fill="#f85149" opacity="0.45"/>
<rect x="120.38212378880758" y="559.4815407526055" width="1.2923076923076922" height="20.518459247394503" fill="#3fb950" opacity="0.45"/>
<rect x="122.54150682222661" y="553.288591913153" width="1.2923076923076922" height="26.711408086846973" fill="#3fb950" opacity="0.45"/>
<rect x="124.70088985564564" y="552.9592748550397" width="1.2923076923076922" height="27.040725144960334" fill="#3fb950" opacity="0.45"/>
<rect x="126.86027288906465" y="548.9421873799713" width="1.2923076923076922" height="31.0578126200287" fill="#3fb950" opacity="0.45"/>
<rect x="129.01965592248368" y="550.7223056249414" width="1.2923076923076922" height="29.27769437505856" fill="#f85149" opacity="0.45"/>
<rect x="131.1790389559027" y="549.4402864956033" width="1.2923076923076922" height="30.559713504396655" fill="#3fb950" opacity="0.45"/>
<rect x="133.33842198932172" y="543.2562559104649" width="1.2923076923076922" height="36.743744089535085" fill="#f85149" opacity="0.45"/>
<rect x="135.49780502274075" y="549.3461904021925" width="1.2923076923076922" height="30.65380959780748" fill="#3fb950" opacity="0.45"/>
<rect x="137.65718805615978" y="552.376213068852" width="1.2923076923076922" height="27.623786931147947" fill="#f85149" opacity="0.45"/>
<rect x="139.8165710895788" y="553.8833049152756" width="1.2923076923076922" height="26.11669508472437" fill="#f85149" opacity="0.45"/>
<rect x="141.97595412299782" y="556.0944539204241" width="1.2923076923076922" height="23.905546079575856" fill="#f85149" opacity="0.45"/>
<rect x="144.13533715641685" y="559.6313462293747" width="1.2923076923076922" height="20.368653770625315" fill="#3fb950" opacity="0.45"/>
<rect x="146.29472018983586" y="556.7747429840184" width="1.2923076923076922" height="23.225257015981583" fill="#f85149" opacity="0.45"/>
<rect x="148.4541032232549" y="561.7700862031876" width="1.2923076923076922" height="18.22991379681241" fill="#3fb950" opacity="0.45"/>
<rect x="150.61348625667392" y="556.3934868092248" width="1.2923076923076922" height="23.606513190775217" fill="#f85149" opacity="0.45"/>
<rect x="152.77286929009293" y="563.7043550448717" width="1.2923076923076922" height="16.295644955128296" fill="#3fb950" opacity="0.45"/>
<rect x="154.93225232351196" y="569.2868546754538" width="1.2923076923076922" height="10.71314532454619" fill="#f85149" opacity="0.45"/>
<rect x="157.091635356931" y="563.1629010739139" width="1.2923076923076922" height="16.837098926086128" fill="#3fb950" opacity="0.45"/>
<rect x="159.25101839035" y="566.8682864080142" width="1.2923076923076922" height="13.131713591985772" fill="#f85149" opacity="0.45"/>
<rect x="161.410401423769" y="563.4487219719877" width="1.2923076923076922" height="16.551278028012348" fill="#3fb950" opacity="0.45"/>
<rect x="163.56978445718804" y="563.420130247768" width="1.2923076923076922" height="16.579869752231957" fill="#3fb950" opacity="0.45"/>
<rect x="165.72916749060707" y="560.1640296736737" width="1.2923076923076922" height="19.835970326326333" fill="#3fb950" opacity="0.45"/>
<rect x="167.8885505240261" y="563.0016852415172" width="1.2923076923076922" height="16.99831475848282" fill="#f85149" opacity="0.45"/>
<rect x="170.04793355744513" y="543.9979290262589" width="1.2923076923076922" height="36.00207097374107" fill="#3fb950" opacity="0.45"/>
<rect x="172.20731659086414" y="554.2507806690171" width="1.2923076923076922" height="25.749219330982896" fill="#f85149" opacity="0.45"/>
<rect x="174.36669962428314" y="558.4020048549928" width="1.2923076923076922" height="21.59799514500719" fill="#3fb950" opacity="0.45"/>
<rect x="176.52608265770218" y="553.8194480305868" width="1.2923076923076922" height="26.18055196941316" fill="#f85149" opacity="0.45"/>
<rect x="178.6854656911212" y="555.5941067752567" width="1.2923076923076922" height="24.405893224743295" fill="#f85149" opacity="0.45"/>
<rect x="180.84484872454024" y="563.2444724313417" width="1.2923076923076922" height="16.755527568658295" fill="#3fb950" opacity="0.45"/>
<rect x="183.00423175795927" y="563.7049973390248" width="1.2923076923076922" height="16.29500266097523" fill="#f85149" opacity="0.45"/>
<rect x="185.16361479137828" y="566.9286716928061" width="1.2923076923076922" height="13.07132830719388" fill="#f85149" opacity="0.45"/>
<rect x="187.32299782479728" y="563.4255993824806" width="1.2923076923076922" height="16.57440061751936" fill="#f85149" opacity="0.45"/>
<rect x="189.48238085821632" y="563.6080109219255" width="1.2923076923076922" height="16.391989078074516" fill="#3fb950" opacity="0.45"/>
<rect x="191.64176389163535" y="565.8666383108621" width="1.2923076923076922" height="14.133361689137928" fill="#3fb950" opacity="0.45"/>
<rect x="193.80114692505438" y="564.3392628150875" width="1.2923076923076922" height="15.660737184912477" fill="#3fb950" opacity="0.45"/>
<rect x="195.96052995847342" y="562.6882456948654" width="1.2923076923076922" height="17.311754305134627" fill="#f85149" opacity="0.45"/>
<rect x="198.11991299189245" y="568.7454007044959" width="1.2923076923076922" height="11.254599295504136" fill="#3fb950" opacity="0.45"/>
<rect x="200.27929602531145" y="565.7221221264426" width="1.2923076923076922" height="14.277877873557372" fill="#f85149" opacity="0.45"/>
<rect x="202.43867905873046" y="566.845684076771" width="1.2923076923076922" height="13.154315923228978" fill="#3fb950" opacity="0.45"/>
<rect x="204.5980620921495" y="568.6551583760029" width="1.2923076923076922" height="11.344841623997127" fill="#f85149" opacity="0.45"/>
<rect x="206.75744512556852" y="570.1237639567802" width="1.2923076923076922" height="9.87623604321982" fill="#f85149" opacity="0.45"/>
<rect x="208.91682815898753" y="565.1068043278926" width="1.2923076923076922" height="14.893195672107367" fill="#f85149" opacity="0.45"/>
<rect x="211.07621119240656" y="565.7487773337912" width="1.2923076923076922" height="14.251222666208832" fill="#f85149" opacity="0.45"/>
<rect x="213.23559422582557" y="559.5162760203984" width="1.2923076923076922" height="20.483723979601564" fill="#f85149" opacity="0.45"/>
<rect x="215.3949772592446" y="565.0014680868047" width="1.2923076923076922" height="14.99853191319528" fill="#3fb950" opacity="0.45"/>
<rect x="217.55436029266363" y="566.7420723954839" width="1.2923076923076922" height="13.257927604516112" fill="#3fb950" opacity="0.45"/>
<rect x="219.71374332608266" y="562.9336919824832" width="1.2923076923076922" height="17.066308017516803" fill="#f85149" opacity="0.45"/>
<rect x="221.8731263595017" y="565.1843998845136" width="1.2923076923076922" height="14.815600115486404" fill="#f85149" opacity="0.45"/>
<rect x="224.0325093929207" y="568.4721045424051" width="1.2923076923076922" height="11.527895457594923" fill="#f85149" opacity="0.45"/>
<rect x="226.19189242633973" y="570.9831535334607" width="1.2923076923076922" height="9.016846466539278" fill="#3fb950" opacity="0.45"/>
<rect x="228.35127545975874" y="557.6305003872639" width="1.2923076923076922" height="22.36949961273615" fill="#3fb950" opacity="0.45"/>
<rect x="230.51065849317777" y="564.7972185461587" width="1.2923076923076922" height="15.20278145384134" fill="#f85149" opacity="0.45"/>
<rect x="232.6700415265968" y="565.5326453513151" width="1.2923076923076922" height="14.467354648684932" fill="#f85149" opacity="0.45"/>
<rect x="234.8294245600158" y="568.7280587623655" width="1.2923076923076922" height="11.27194123763445" fill="#3fb950" opacity="0.45"/>
<rect x="236.98880759343484" y="565.6421565043972" width="1.2923076923076922" height="14.357843495602765" fill="#3fb950" opacity="0.45"/>
<rect x="239.14819062685385" y="569.10474180279" width="1.2923076923076922" height="10.895258197209955" fill="#3fb950" opacity="0.45"/>
<rect x="241.30757366027288" y="570.5671813596988" width="1.2923076923076922" height="9.432818640301207" fill="#f85149" opacity="0.45"/>
<rect x="243.46695669369188" y="565.0913667879258" width="1.2923076923076922" height="14.908633212074164" fill="#f85149" opacity="0.45"/>
<rect x="245.62633972711095" y="557.2409265031891" width="1.2923076923076922" height="22.759073496810856" fill="#3fb950" opacity="0.45"/>
<rect x="247.78572276052995" y="518.6098460057278" width="1.2923076923076922" height="61.39015399427217" fill="#3fb950" opacity="0.45"/>
<rect x="249.94510579394898" y="478.9452050261237" width="1.2923076923076922" height="101.05479497387631" fill="#3fb950" opacity="0.45"/>
<rect x="252.10448882736802" y="505.8723404501304" width="1.2923076923076922" height="74.12765954986958" fill="#3fb950" opacity="0.45"/>
<rect x="254.26387186078702" y="523.4408486314461" width="1.2923076923076922" height="56.5591513685539" fill="#f85149" opacity="0.45"/>
<rect x="256.4232548942061" y="531.107278064297" width="1.2923076923076922" height="48.89272193570298" fill="#3fb950" opacity="0.45"/>
<rect x="258.58263792762506" y="513.8847962234843" width="1.2923076923076922" height="66.11520377651573" fill="#f85149" opacity="0.45"/>
<rect x="260.74202096104415" y="531.1286150760588" width="1.2923076923076922" height="48.87138492394115" fill="#3fb950" opacity="0.45"/>
<rect x="262.9014039944631" y="512.0525108474095" width="1.2923076923076922" height="67.94748915259049" fill="#3fb950" opacity="0.45"/>
<rect x="265.06078702788216" y="531.9318617208278" width="1.2923076923076922" height="48.06813827917222" fill="#3fb950" opacity="0.45"/>
<rect x="267.2201700613012" y="535.0826324767758" width="1.2923076923076922" height="44.91736752322424" fill="#f85149" opacity="0.45"/>
<rect x="269.37955309472017" y="514.1182829939737" width="1.2923076923076922" height="65.88171700602629" fill="#3fb950" opacity="0.45"/>
<rect x="271.53893612813926" y="518.9828230088896" width="1.2923076923076922" height="61.01717699111043" fill="#3fb950" opacity="0.45"/>
<rect x="273.69831916155823" y="484.96371319656976" width="1.2923076923076922" height="95.03628680343024" fill="#f85149" opacity="0.45"/>
<rect x="275.8577021949773" y="509.2671316006767" width="1.2923076923076922" height="70.73286839932331" fill="#3fb950" opacity="0.45"/>
<rect x="278.0170852283963" y="529.1399599769715" width="1.2923076923076922" height="50.860040023028546" fill="#3fb950" opacity="0.45"/>
<rect x="280.17646826181533" y="527.5942566175419" width="1.2923076923076922" height="52.40574338245813" fill="#3fb950" opacity="0.45"/>
<rect x="282.33585129523436" y="530.0005891813672" width="1.2923076923076922" height="49.99941081863278" fill="#3fb950" opacity="0.45"/>
<rect x="284.49523432865334" y="536.7131379332227" width="1.2923076923076922" height="43.2868620667773" fill="#f85149" opacity="0.45"/>
<rect x="286.65461736207243" y="540.2583158367465" width="1.2923076923076922" height="39.74168416325347" fill="#f85149" opacity="0.45"/>
<rect x="288.8140003954914" y="538.5391930560137" width="1.2923076923076922" height="41.46080694398631" fill="#3fb950" opacity="0.45"/>
<rect x="290.97338342891044" y="530.9231901371128" width="1.2923076923076922" height="49.07680986288722" fill="#3fb950" opacity="0.45"/>
<rect x="293.13276646232947" y="530.9437788761865" width="1.2923076923076922" height="49.05622112381354" fill="#f85149" opacity="0.45"/>
<rect x="295.29214949574845" y="511.93223484432343" width="1.2923076923076922" height="68.06776515567657" fill="#f85149" opacity="0.45"/>
<rect x="297.45153252916754" y="538.6565787354114" width="1.2923076923076922" height="41.34342126458864" fill="#f85149" opacity="0.45"/>
<rect x="299.6109155625865" y="556.4596880675718" width="1.2923076923076922" height="23.540311932428153" fill="#f85149" opacity="0.45"/>
<rect x="301.7702985960056" y="556.4274834387417" width="1.2923076923076922" height="23.57251656125834" fill="#f85149" opacity="0.45"/>
<rect x="303.9296816294246" y="558.0858869417231" width="1.2923076923076922" height="21.91411305827694" fill="#3fb950" opacity="0.45"/>
<rect x="306.0890646628436" y="556.6349316042696" width="1.2923076923076922" height="23.365068395730418" fill="#f85149" opacity="0.45"/>
<rect x="308.24844769626264" y="559.5737549241481" width="1.2923076923076922" height="20.426245075851853" fill="#3fb950" opacity="0.45"/>
<rect x="310.4078307296816" y="552.1690732045175" width="1.2923076923076922" height="27.83092679548247" fill="#3fb950" opacity="0.45"/>
<rect x="312.5672137631007" y="533.7127507187815" width="1.2923076923076922" height="46.287249281218465" fill="#3fb950" opacity="0.45"/>
<rect x="314.7265967965197" y="536.2359069546208" width="1.2923076923076922" height="43.76409304537924" fill="#f85149" opacity="0.45"/>
<rect x="316.8859798299388" y="556.8109330480678" width="1.2923076923076922" height="23.189066951932205" fill="#3fb950" opacity="0.45"/>
<rect x="319.04536286335775" y="546.9135045092705" width="1.2923076923076922" height="33.086495490729476" fill="#f85149" opacity="0.45"/>
<rect x="321.2047458967768" y="556.0999134207244" width="1.2923076923076922" height="23.90008657927558" fill="#f85149" opacity="0.45"/>
<rect x="323.3641289301958" y="565.0856985420259" width="1.2923076923076922" height="14.914301457974148" fill="#f85149" opacity="0.45"/>
<rect x="325.5235119636148" y="563.0716664009545" width="1.2923076923076922" height="16.92833359904546" fill="#f85149" opacity="0.45"/>
<rect x="327.6828949970338" y="564.3970692888553" width="1.2923076923076922" height="15.602930711144722" fill="#f85149" opacity="0.45"/>
<rect x="329.84227803045286" y="569.0208967240607" width="1.2923076923076922" height="10.979103275939337" fill="#f85149" opacity="0.45"/>
<rect x="332.00166106387184" y="553.430860068037" width="1.2923076923076922" height="26.569139931963036" fill="#3fb950" opacity="0.45"/>
<rect x="334.1610440972909" y="561.6231453583407" width="1.2923076923076922" height="18.376854641659293" fill="#f85149" opacity="0.45"/>
<rect x="336.32042713070996" y="565.0923880356291" width="1.2923076923076922" height="14.907611964370858" fill="#3fb950" opacity="0.45"/>
<rect x="338.47981016412893" y="564.559460519552" width="1.2923076923076922" height="15.440539480448024" fill="#f85149" opacity="0.45"/>
<rect x="340.63919319754797" y="564.967959600844" width="1.2923076923076922" height="15.032040399156017" fill="#f85149" opacity="0.45"/>
<rect x="342.798576230967" y="531.4502695649271" width="1.2923076923076922" height="48.54973043507289" fill="#f85149" opacity="0.45"/>
<rect x="344.95795926438603" y="533.6205815078296" width="1.2923076923076922" height="46.37941849217043" fill="#3fb950" opacity="0.45"/>
<rect x="347.117342297805" y="535.5041026884871" width="1.2923076923076922" height="44.49589731151286" fill="#3fb950" opacity="0.45"/>
<rect x="349.2767253312241" y="552.2265585312089" width="1.2923076923076922" height="27.773441468791134" fill="#3fb950" opacity="0.45"/>
<rect x="351.4361083646431" y="555.0414126566217" width="1.2923076923076922" height="24.958587343378326" fill="#f85149" opacity="0.45"/>
<rect x="353.5954913980621" y="559.3852480131915" width="1.2923076923076922" height="20.61475198680853" fill="#3fb950" opacity="0.45"/>
<rect x="355.75487443148114" y="559.4912072796078" width="1.2923076923076922" height="20.508792720392194" fill="#f85149" opacity="0.45"/>
<rect x="357.9142574649002" y="555.0208592437265" width="1.2923076923076922" height="24.979140756273523" fill="#3fb950" opacity="0.45"/>
<rect x="360.0736404983192" y="568.2273904701216" width="1.2923076923076922" height="11.772609529878423" fill="#f85149" opacity="0.45"/>
<rect x="362.2330235317382" y="559.8897700703533" width="1.2923076923076922" height="20.11022992964672" fill="#3fb950" opacity="0.45"/>
<rect x="364.3924065651573" y="564.8996644635582" width="1.2923076923076922" height="15.100335536441776" fill="#f85149" opacity="0.45"/>
<rect x="366.55178959857625" y="555.3249855251602" width="1.2923076923076922" height="24.675014474839827" fill="#3fb950" opacity="0.45"/>
<rect x="368.7111726319953" y="551.2762843318824" width="1.2923076923076922" height="28.72371566811762" fill="#f85149" opacity="0.45"/>
<rect x="370.8705556654143" y="531.2437719947457" width="1.2923076923076922" height="48.75622800525434" fill="#3fb950" opacity="0.45"/>
<rect x="373.02993869883335" y="551.1783344735537" width="1.2923076923076922" height="28.82166552644628" fill="#f85149" opacity="0.45"/>
<rect x="375.1893217322523" y="553.4926551884946" width="1.2923076923076922" height="26.50734481150539" fill="#3fb950" opacity="0.45"/>
<rect x="377.34870476567136" y="549.3169660182322" width="1.2923076923076922" height="30.683033981767835" fill="#3fb950" opacity="0.45"/>
<rect x="379.5080877990904" y="545.5229216107259" width="1.2923076923076922" height="34.477078389274084" fill="#3fb950" opacity="0.45"/>
<rect x="381.6674708325094" y="551.0392777894345" width="1.2923076923076922" height="28.96072221056545" fill="#f85149" opacity="0.45"/>
<rect x="383.8268538659284" y="556.4422562042602" width="1.2923076923076922" height="23.55774379573984" fill="#f85149" opacity="0.45"/>
<rect x="385.9862368993475" y="562.4621581530181" width="1.2923076923076922" height="17.537841846981905" fill="#f85149" opacity="0.45"/>
<rect x="388.1456199327665" y="562.940346149908" width="1.2923076923076922" height="17.05965385009199" fill="#3fb950" opacity="0.45"/>
<rect x="390.3050029661855" y="561.5738653394537" width="1.2923076923076922" height="18.426134660546268" fill="#f85149" opacity="0.45"/>
<rect x="392.46438599960453" y="556.9454936731161" width="1.2923076923076922" height="23.05450632688394" fill="#f85149" opacity="0.45"/>
<rect x="394.62376903302356" y="559.7658072988291" width="1.2923076923076922" height="20.234192701170855" fill="#f85149" opacity="0.45"/>
<rect x="396.7831520664426" y="565.7664404229979" width="1.2923076923076922" height="14.233559577002097" fill="#3fb950" opacity="0.45"/>
<rect x="398.9425350998616" y="561.1705046113855" width="1.2923076923076922" height="18.829495388614532" fill="#3fb950" opacity="0.45"/>
<rect x="401.1019181332806" y="565.0297290295356" width="1.2923076923076922" height="14.970270970464412" fill="#3fb950" opacity="0.45"/>
<rect x="403.26130116669964" y="565.7812131885164" width="1.2923076923076922" height="14.218786811483596" fill="#f85149" opacity="0.45"/>
<rect x="405.42068420011867" y="568.7107168202352" width="1.2923076923076922" height="11.289283179764766" fill="#f85149" opacity="0.45"/>
<rect x="407.58006723353765" y="565.2673778661364" width="1.2923076923076922" height="14.732622133863629" fill="#f85149" opacity="0.45"/>
<rect x="409.73945026695674" y="571.1112912169792" width="1.2923076923076922" height="8.888708783020775" fill="#3fb950" opacity="0.45"/>
<rect x="411.89883330037577" y="570.7503219030073" width="1.2923076923076922" height="9.249678096992739" fill="#f85149" opacity="0.45"/>
<rect x="414.05821633379475" y="568.5450049287678" width="1.2923076923076922" height="11.454995071232247" fill="#3fb950" opacity="0.45"/>
<rect x="416.2175993672138" y="563.9599881177558" width="1.2923076923076922" height="16.040011882244244" fill="#3fb950" opacity="0.45"/>
<rect x="418.3769824006328" y="566.6540909424093" width="1.2923076923076922" height="13.345909057590688" fill="#f85149" opacity="0.45"/>
<rect x="420.53636543405185" y="570.2433366477687" width="1.2923076923076922" height="9.756663352231271" fill="#3fb950" opacity="0.45"/>
<rect x="422.6957484674708" y="567.5420626088973" width="1.2923076923076922" height="12.457937391102746" fill="#3fb950" opacity="0.45"/>
<rect x="424.8551315008899" y="543.4691989024715" width="1.2923076923076922" height="36.530801097528524" fill="#3fb950" opacity="0.45"/>
<rect x="427.0145145343089" y="561.9958525979583" width="1.2923076923076922" height="18.004147402041667" fill="#f85149" opacity="0.45"/>
<rect x="429.1738975677279" y="561.2517548217368" width="1.2923076923076922" height="18.748245178263232" fill="#f85149" opacity="0.45"/>
<rect x="431.33328060114695" y="559.4729211650726" width="1.2923076923076922" height="20.52707883492735" fill="#f85149" opacity="0.45"/>
<rect x="433.492663634566" y="569.9452061822532" width="1.2923076923076922" height="10.054793817746827" fill="#3fb950" opacity="0.45"/>
<rect x="435.65204666798496" y="570.2027661375961" width="1.2923076923076922" height="9.797233862403914" fill="#f85149" opacity="0.45"/>
<rect x="437.811429701404" y="568.2100485279913" width="1.2923076923076922" height="11.789951472008738" fill="#f85149" opacity="0.45"/>
<rect x="439.9708127348231" y="571.3084755219426" width="1.2923076923076922" height="8.691524478057431" fill="#3fb950" opacity="0.45"/>
<rect x="442.13019576824206" y="569.990089697663" width="1.2923076923076922" height="10.009910302336948" fill="#f85149" opacity="0.45"/>
<rect x="444.2895788016611" y="572.337751902085" width="1.2923076923076922" height="7.66224809791504" fill="#3fb950" opacity="0.45"/>
<rect x="446.4489618350801" y="569.2833220576124" width="1.2923076923076922" height="10.716677942387605" fill="#f85149" opacity="0.45"/>
<rect x="448.60834486849916" y="570.5200594491657" width="1.2923076923076922" height="9.479940550834272" fill="#f85149" opacity="0.45"/>
<rect x="450.76772790191814" y="569.6937480213635" width="1.2923076923076922" height="10.30625197863651" fill="#3fb950" opacity="0.45"/>
<rect x="452.92711093533717" y="557.0957905049122" width="1.2923076923076922" height="22.904209495087798" fill="#3fb950" opacity="0.45"/>
<rect x="455.0864939687562" y="564.211125131569" width="1.2923076923076922" height="15.78887486843098" fill="#3fb950" opacity="0.45"/>
<rect x="457.24587700217523" y="565.0066064400285" width="1.2923076923076922" height="14.993393559971537" fill="#3fb950" opacity="0.45"/>
<rect x="459.4052600355942" y="566.5497181425509" width="1.2923076923076922" height="13.450281857449113" fill="#3fb950" opacity="0.45"/>
<rect x="461.5646430690133" y="566.9341311931064" width="1.2923076923076922" height="13.065868806893604" fill="#3fb950" opacity="0.45"/>
<rect x="463.72402610243233" y="568.1582667733784" width="1.2923076923076922" height="11.841733226621614" fill="#f85149" opacity="0.45"/>
<rect x="465.8834091358513" y="569.2939199111365" width="1.2923076923076922" height="10.706080088863473" fill="#f85149" opacity="0.45"/>
<rect x="468.04279216927034" y="565.9417867267601" width="1.2923076923076922" height="14.058213273239858" fill="#3fb950" opacity="0.45"/>
<rect x="470.2021752026894" y="569.2373980256748" width="1.2923076923076922" height="10.762601974325207" fill="#f85149" opacity="0.45"/>
<rect x="472.3615582361084" y="572.0952376872755" width="1.2923076923076922" height="7.904762312724529" fill="#3fb950" opacity="0.45"/>
<rect x="474.5209412695274" y="567.9701516618551" width="1.2923076923076922" height="12.029848338144916" fill="#3fb950" opacity="0.45"/>
<rect x="476.6803243029464" y="567.7241530012657" width="1.2923076923076922" height="12.275846998734323" fill="#f85149" opacity="0.45"/>
<rect x="478.83970733636545" y="570.7911075817212" width="1.2923076923076922" height="9.208892418278765" fill="#f85149" opacity="0.45"/>
<rect x="480.9990903697845" y="568.9413004211533" width="1.2923076923076922" height="11.0586995788467" fill="#3fb950" opacity="0.45"/>
<rect x="483.15847340320346" y="554.8740950297718" width="1.2923076923076922" height="25.125904970228248" fill="#3fb950" opacity="0.45"/>
<rect x="485.31785643662255" y="559.4398430161943" width="1.2923076923076922" height="20.560156983805655" fill="#3fb950" opacity="0.45"/>
<rect x="487.4772394700416" y="561.6653922562527" width="1.2923076923076922" height="18.334607743747256" fill="#f85149" opacity="0.45"/>
<rect x="489.63662250346056" y="536.2661911239336" width="1.2923076923076922" height="43.733808876066405" fill="#f85149" opacity="0.45"/>
<rect x="491.7960055368796" y="553.6533186479198" width="1.2923076923076922" height="26.346681352080168" fill="#3fb950" opacity="0.45"/>
<rect x="493.9553885702986" y="551.7968348396317" width="1.2923076923076922" height="28.203165160368258" fill="#3fb950" opacity="0.45"/>
<rect x="496.11477160371766" y="537.4197514226767" width="1.2923076923076922" height="42.580248577323346" fill="#3fb950" opacity="0.45"/>
<rect x="498.27415463713663" y="554.0333191376444" width="1.2923076923076922" height="25.966680862355588" fill="#f85149" opacity="0.45"/>
<rect x="500.43353767055567" y="558.247741856802" width="1.2923076923076922" height="21.75225814319799" fill="#3fb950" opacity="0.45"/>
<rect x="502.5929207039747" y="563.2627778147014" width="1.2923076923076922" height="16.737222185298606" fill="#3fb950" opacity="0.45"/>
<rect x="504.75230373739373" y="563.8087278447301" width="1.2923076923076922" height="16.19127215526987" fill="#f85149" opacity="0.45"/>
<rect x="506.91168677081276" y="566.6158744403074" width="1.2923076923076922" height="13.38412555969262" fill="#f85149" opacity="0.45"/>
<rect x="509.07106980423174" y="522.1373254938665" width="1.2923076923076922" height="57.862674506133544" fill="#3fb950" opacity="0.45"/>
<rect x="511.2304528376508" y="518.0194684891378" width="1.2923076923076922" height="61.98053151086219" fill="#3fb950" opacity="0.45"/>
<rect x="513.3898358710697" y="516.1065591395109" width="1.2923076923076922" height="63.893440860489136" fill="#3fb950" opacity="0.45"/>
<rect x="515.5492189044888" y="534.8156275859133" width="1.2923076923076922" height="45.18437241408674" fill="#f85149" opacity="0.45"/>
<rect x="517.7086019379079" y="541.7968897310782" width="1.2923076923076922" height="38.20311026892182" fill="#f85149" opacity="0.45"/>
<rect x="519.8679849713268" y="545.5776386496178" width="1.2923076923076922" height="34.422361350382175" fill="#3fb950" opacity="0.45"/>
<rect x="522.0273680047459" y="555.4815896855386" width="1.2923076923076922" height="24.51841031446145" fill="#f85149" opacity="0.45"/>
<rect x="524.186751038165" y="559.1723275014803" width="1.2923076923076922" height="20.827672498519746" fill="#f85149" opacity="0.45"/>
<rect x="526.346134071584" y="561.6567662457783" width="1.2923076923076922" height="18.34323375422173" fill="#3fb950" opacity="0.45"/>
<rect x="528.5055171050029" y="564.3325123035397" width="1.2923076923076922" height="15.667487696460284" fill="#f85149" opacity="0.45"/>
<rect x="530.664900138422" y="556.7055968069799" width="1.2923076923076922" height="23.294403193020116" fill="#3fb950" opacity="0.45"/>
<rect x="532.824283171841" y="559.224398288462" width="1.2923076923076922" height="20.775601711538002" fill="#f85149" opacity="0.45"/>
<rect x="534.98366620526" y="546.3694717272884" width="1.2923076923076922" height="33.63052827271156" fill="#3fb950" opacity="0.45"/>
<rect x="537.143049238679" y="548.7546310643611" width="1.2923076923076922" height="31.245368935638908" fill="#3fb950" opacity="0.45"/>
<rect x="539.302432272098" y="558.5486984165908" width="1.2923076923076922" height="21.45130158340919" fill="#3fb950" opacity="0.45"/>
<rect x="541.461815305517" y="560.7475539116515" width="1.2923076923076922" height="19.252446088348506" fill="#3fb950" opacity="0.45"/>
<rect x="543.6211983389361" y="557.1614136985216" width="1.2923076923076922" height="22.838586301478358" fill="#f85149" opacity="0.45"/>
<rect x="545.7805813723552" y="560.0779301424674" width="1.2923076923076922" height="19.92206985753262" fill="#3fb950" opacity="0.45"/>
<rect x="547.939964405774" y="554.5821723372446" width="1.2923076923076922" height="25.41782766275537" fill="#3fb950" opacity="0.45"/>
<rect x="550.0993474391931" y="549.2475982497109" width="1.2923076923076922" height="30.752401750289096" fill="#3fb950" opacity="0.45"/>
<rect x="552.2587304726122" y="527.3750159313654" width="1.2923076923076922" height="52.6249840686346" fill="#3fb950" opacity="0.45"/>
<rect x="554.4181135060313" y="491.2594355234398" width="1.2923076923076922" height="88.74056447656022" fill="#f85149" opacity="0.45"/>
<rect x="556.5774965394502" y="535.9265202840743" width="1.2923076923076922" height="44.073479715925714" fill="#f85149" opacity="0.45"/>
<rect x="558.7368795728693" y="542.5314943997187" width="1.2923076923076922" height="37.46850560028133" fill="#f85149" opacity="0.45"/>
<rect x="560.8962626062884" y="540.888460995818" width="1.2923076923076922" height="39.111539004181964" fill="#f85149" opacity="0.45"/>
<rect x="563.0556456397073" y="552.1524377859555" width="1.2923076923076922" height="27.8475622140445" fill="#f85149" opacity="0.45"/>
<rect x="565.2150286731263" y="559.1498472061262" width="1.2923076923076922" height="20.850152793873804" fill="#f85149" opacity="0.45"/>
<rect x="567.3744117065454" y="562.6866399594829" width="1.2923076923076922" height="17.31336004051707" fill="#3fb950" opacity="0.45"/>
<rect x="569.5337947399644" y="555.0227861261855" width="1.2923076923076922" height="24.97721387381455" fill="#3fb950" opacity="0.45"/>
<rect x="571.6931777733834" y="563.5541898833769" width="1.2923076923076922" height="16.44581011662308" fill="#f85149" opacity="0.45"/>
<rect x="573.8525608068024" y="566.6046503499841" width="1.2923076923076922" height="13.395349650015874" fill="#3fb950" opacity="0.45"/>
<rect x="576.0119438402214" y="563.1636654039559" width="1.2923076923076922" height="16.83633459604414" fill="#3fb950" opacity="0.45"/>
<rect x="578.1713268736404" y="565.0238552495067" width="1.2923076923076922" height="14.97614475049329" fill="#f85149" opacity="0.45"/>
<rect x="580.3307099070595" y="568.3498534847986" width="1.2923076923076922" height="11.650146515201413" fill="#f85149" opacity="0.45"/>
<rect x="582.4900929404786" y="565.3109928505942" width="1.2923076923076922" height="14.689007149405825" fill="#3fb950" opacity="0.45"/>
<rect x="584.6494759738974" y="562.156740860337" width="1.2923076923076922" height="17.84325913966302" fill="#3fb950" opacity="0.45"/>
<rect x="586.8088590073165" y="553.5802994371388" width="1.2923076923076922" height="26.41970056286118" fill="#f85149" opacity="0.45"/>
<rect x="588.9682420407356" y="563.1751046628203" width="1.2923076923076922" height="16.82489533717967" fill="#f85149" opacity="0.45"/>
<rect x="591.1276250741547" y="570.6802122847394" width="1.2923076923076922" height="9.319787715260645" fill="#3fb950" opacity="0.45"/>
<rect x="593.2870081075737" y="560.9661619380872" width="1.2923076923076922" height="19.033838061912775" fill="#f85149" opacity="0.45"/>
<rect x="595.4463911409927" y="559.9894509114243" width="1.2923076923076922" height="20.010549088575658" fill="#3fb950" opacity="0.45"/>
<rect x="597.6057741744116" y="557.5781630482087" width="1.2923076923076922" height="22.421836951791306" fill="#3fb950" opacity="0.45"/>
<rect x="599.7651572078307" y="561.8304618535673" width="1.2923076923076922" height="18.16953814643273" fill="#3fb950" opacity="0.45"/>
<rect x="601.9245402412497" y="553.4763955120121" width="1.2923076923076922" height="26.523604487987882" fill="#3fb950" opacity="0.45"/>
<rect x="604.0839232746687" y="555.0731548336618" width="1.2923076923076922" height="24.92684516633824" fill="#3fb950" opacity="0.45"/>
<rect x="606.2433063080878" y="539.8015515613291" width="1.2923076923076922" height="40.19844843867088" fill="#3fb950" opacity="0.45"/>
<rect x="608.4026893415067" y="557.8486748651464" width="1.2923076923076922" height="22.15132513485355" fill="#f85149" opacity="0.45"/>
<rect x="610.5620723749258" y="547.3548376676628" width="1.2923076923076922" height="32.645162332337236" fill="#3fb950" opacity="0.45"/>
<rect x="612.7214554083448" y="557.0697262081844" width="1.2923076923076922" height="22.93027379181558" fill="#f85149" opacity="0.45"/>
<rect x="614.8808384417638" y="561.0334839997313" width="1.2923076923076922" height="18.96651600026871" fill="#3fb950" opacity="0.45"/>
<rect x="617.0402214751829" y="563.5052438574495" width="1.2923076923076922" height="16.4947561425505" fill="#f85149" opacity="0.45"/>
<rect x="619.199604508602" y="562.9987949178287" width="1.2923076923076922" height="17.001205082171282" fill="#f85149" opacity="0.45"/>
<rect x="621.3589875420209" y="560.859313094269" width="1.2923076923076922" height="19.140686905730945" fill="#3fb950" opacity="0.45"/>
<rect x="623.5183705754399" y="506.8190434939664" width="1.2923076923076922" height="73.18095650603362" fill="#3fb950" opacity="0.45"/>
<rect x="625.677753608859" y="515.4687385653112" width="1.2923076923076922" height="64.53126143468876" fill="#3fb950" opacity="0.45"/>
<rect x="627.837136642278" y="546.7492345681765" width="1.2923076923076922" height="33.25076543182354" fill="#f85149" opacity="0.45"/>
<rect x="629.9965196756971" y="532.6365868654719" width="1.2923076923076922" height="47.36341313452806" fill="#3fb950" opacity="0.45"/>
<rect x="632.155902709116" y="531.4724287132047" width="1.2923076923076922" height="48.52757128679525" fill="#3fb950" opacity="0.45"/>
<rect x="634.315285742535" y="549.206170276844" width="1.2923076923076922" height="30.793829723156023" fill="#f85149" opacity="0.45"/>
<rect x="636.4746687759541" y="546.1072230246288" width="1.2923076923076922" height="33.89277697537125" fill="#3fb950" opacity="0.45"/>
<rect x="638.6340518093731" y="554.9113480906443" width="1.2923076923076922" height="25.08865190935569" fill="#f85149" opacity="0.45"/>
<rect x="640.7934348427922" y="558.4166684305052" width="1.2923076923076922" height="21.583331569494817" fill="#3fb950" opacity="0.45"/>
<rect x="642.9528178762112" y="562.0652203664796" width="1.2923076923076922" height="17.934779633520407" fill="#f85149" opacity="0.45"/>
<rect x="645.1122009096301" y="560.6166479403336" width="1.2923076923076922" height="19.383352059666436" fill="#f85149" opacity="0.45"/>
<rect x="647.2715839430492" y="562.7715351891524" width="1.2923076923076922" height="17.22846481084764" fill="#f85149" opacity="0.45"/>
<rect x="649.4309669764683" y="560.1572855850675" width="1.2923076923076922" height="19.842714414932516" fill="#3fb950" opacity="0.45"/>
<rect x="651.5903500098872" y="566.1948506230323" width="1.2923076923076922" height="13.805149376967734" fill="#f85149" opacity="0.45"/>
<rect x="653.7497330433063" y="565.4815829661535" width="1.2923076923076922" height="14.518417033846504" fill="#f85149" opacity="0.45"/>
<rect x="655.9091160767254" y="559.9067908654072" width="1.2923076923076922" height="20.093209134592826" fill="#3fb950" opacity="0.45"/>
<rect x="658.0684991101443" y="565.5769636478703" width="1.2923076923076922" height="14.423036352129657" fill="#f85149" opacity="0.45"/>
<rect x="660.2278821435633" y="565.0105404917155" width="1.2923076923076922" height="14.98945950828454" fill="#3fb950" opacity="0.45"/>
<rect x="662.3872651769824" y="569.8536792654543" width="1.2923076923076922" height="10.146320734545725" fill="#f85149" opacity="0.45"/>
<rect x="664.5466482104014" y="567.5128382249369" width="1.2923076923076922" height="12.4871617750631" fill="#f85149" opacity="0.45"/>
<rect x="666.7060312438205" y="569.88515167895" width="1.2923076923076922" height="10.114848321049976" fill="#f85149" opacity="0.45"/>
<rect x="668.8654142772394" y="569.8604233540605" width="1.2923076923076922" height="10.139576645939542" fill="#f85149" opacity="0.45"/>
<rect x="671.0247973106584" y="568.138753877011" width="1.2923076923076922" height="11.861246122988973" fill="#f85149" opacity="0.45"/>
<rect x="673.1841803440775" y="564.659767597422" width="1.2923076923076922" height="15.340232402577954" fill="#f85149" opacity="0.45"/>
<rect x="675.3435633774965" y="566.1997898650686" width="1.2923076923076922" height="13.800210134931376" fill="#3fb950" opacity="0.45"/>
<rect x="677.5029464109156" y="568.3536012711811" width="1.2923076923076922" height="11.646398728818895" fill="#3fb950" opacity="0.45"/>
<rect x="679.6623294443345" y="571.8313029624642" width="1.2923076923076922" height="8.168697037535821" fill="#f85149" opacity="0.45"/>
<rect x="681.8217124777535" y="572.670460273326" width="1.2923076923076922" height="7.3295397266740565" fill="#3fb950" opacity="0.45"/>
<rect x="683.9810955111726" y="571.5721372717388" width="1.2923076923076922" height="8.427862728261175" fill="#3fb950" opacity="0.45"/>
<rect x="686.1404785445917" y="569.4708719502811" width="1.2923076923076922" height="10.529128049718906" fill="#f85149" opacity="0.45"/>
<rect x="688.2998615780106" y="571.8133187261809" width="1.2923076923076922" height="8.18668127381909" fill="#f85149" opacity="0.45"/>
<rect x="690.4592446114297" y="572.2690264277167" width="1.2923076923076922" height="7.730973572283347" fill="#f85149" opacity="0.45"/>
<rect x="692.6186276448487" y="573.1608518591224" width="1.2923076923076922" height="6.839148140877569" fill="#3fb950" opacity="0.45"/>
<rect x="694.7780106782677" y="572.321389458538" width="1.2923076923076922" height="7.678610541462035" fill="#3fb950" opacity="0.45"/>
<rect x="696.9373937116868" y="569.3196116772556" width="1.2923076923076922" height="10.68038832274442" fill="#3fb950" opacity="0.45"/>
<rect x="699.0967767451058" y="570.5849311586162" width="1.2923076923076922" height="9.4150688413838" fill="#f85149" opacity="0.45"/>
<rect x="701.2561597785248" y="572.5066752643174" width="1.2923076923076922" height="7.493324735682563" fill="#f85149" opacity="0.45"/>
<rect x="703.4155428119439" y="572.1794263933766" width="1.2923076923076922" height="7.820573606623384" fill="#f85149" opacity="0.45"/>
<rect x="705.5749258453628" y="569.1099026363092" width="1.2923076923076922" height="10.890097363690757" fill="#3fb950" opacity="0.45"/>
<rect x="707.7343088787818" y="571.4131694688774" width="1.2923076923076922" height="8.586830531122587" fill="#f85149" opacity="0.45"/>
<rect x="709.8936919122009" y="570.4404149741969" width="1.2923076923076922" height="9.55958502580313" fill="#f85149" opacity="0.45"/>
<rect x="712.0530749456199" y="569.050490427159" width="1.2923076923076922" height="10.949509572840952" fill="#3fb950" opacity="0.45"/>
<rect x="714.212457979039" y="572.7295513353997" width="1.2923076923076922" height="7.270448664600281" fill="#3fb950" opacity="0.45"/>
<rect x="716.371841012458" y="572.5728315620738" width="1.2923076923076922" height="7.427168437926184" fill="#3fb950" opacity="0.45"/>
<rect x="718.5312240458769" y="563.0061652432341" width="1.2923076923076922" height="16.993834756765864" fill="#3fb950" opacity="0.45"/>
<rect x="720.690607079296" y="569.0341119262581" width="1.2923076923076922" height="10.965888073741894" fill="#f85149" opacity="0.45"/>
<rect x="722.849990112715" y="572.0878994765777" width="1.2923076923076922" height="7.912100523422282" fill="#3fb950" opacity="0.45"/>
<rect x="725.0093731461341" y="568.9852044379799" width="1.2923076923076922" height="11.01479556202014" fill="#3fb950" opacity="0.45"/>
<rect x="727.168756179553" y="567.8111838589938" width="1.2923076923076922" height="12.188816141006214" fill="#f85149" opacity="0.45"/>
<rect x="729.328139212972" y="569.2605206151818" width="1.2923076923076922" height="10.739479384818196" fill="#3fb950" opacity="0.45"/>
<rect x="731.4875222463911" y="572.0519310040111" width="1.2923076923076922" height="7.948068995988933" fill="#3fb950" opacity="0.45"/>
<rect x="733.6469052798102" y="570.6639333394322" width="1.2923076923076922" height="9.33606666056778" fill="#f85149" opacity="0.45"/>
<rect x="735.8062883132291" y="565.3306438402044" width="1.2923076923076922" height="14.669356159795598" fill="#3fb950" opacity="0.45"/>
<rect x="737.9656713466482" y="565.6074726201366" width="1.2923076923076922" height="14.392527379863395" fill="#3fb950" opacity="0.45"/>
<rect x="740.1250543800672" y="567.3673585992881" width="1.2923076923076922" height="12.632641400711918" fill="#f85149" opacity="0.45"/>
<rect x="742.2844374134862" y="523.4248522955662" width="1.2923076923076922" height="56.57514770443379" fill="#3fb950" opacity="0.45"/>
<rect x="744.4438204469053" y="543.6493624123809" width="1.2923076923076922" height="36.350637587619076" fill="#f85149" opacity="0.45"/>
<rect x="746.6032034803243" y="522.0833599391334" width="1.2923076923076922" height="57.9166400608666" fill="#3fb950" opacity="0.45"/>
<rect x="748.7625865137433" y="533.8001027235861" width="1.2923076923076922" height="46.199897276413935" fill="#f85149" opacity="0.45"/>
<rect x="750.9219695471623" y="517.3657222314152" width="1.2923076923076922" height="62.63427776858475" fill="#3fb950" opacity="0.45"/>
<rect x="753.0813525805813" y="530.0365576539339" width="1.2923076923076922" height="49.96344234606613" fill="#3fb950" opacity="0.45"/>
<rect x="755.2407356140003" y="535.6551445815007" width="1.2923076923076922" height="44.344855418499264" fill="#f85149" opacity="0.45"/>
<rect x="757.4001186474194" y="547.1568376491251" width="1.2923076923076922" height="32.84316235087488" fill="#f85149" opacity="0.45"/>
<rect x="759.5595016808384" y="555.2192639075805" width="1.2923076923076922" height="24.780736092419488" fill="#f85149" opacity="0.45"/>
<rect x="761.7188847142575" y="560.0712053226857" width="1.2923076923076922" height="19.928794677314272" fill="#f85149" opacity="0.45"/>
<rect x="763.8782677476764" y="563.3356782010641" width="1.2923076923076922" height="16.66432179893593" fill="#3fb950" opacity="0.45"/>
<rect x="766.0376507810954" y="555.8527393618351" width="1.2923076923076922" height="24.14726063816488" fill="#3fb950" opacity="0.45"/>
<rect x="768.1970338145145" y="515.7482810380399" width="1.2923076923076922" height="64.25171896196014" fill="#f85149" opacity="0.45"/>
<rect x="770.3564168479336" y="547.7832157529893" width="1.2923076923076922" height="32.21678424701065" fill="#f85149" opacity="0.45"/>
<rect x="772.5157998813526" y="549.5583658526863" width="1.2923076923076922" height="30.44163414731372" fill="#f85149" opacity="0.45"/>
<rect x="774.6751829147715" y="554.7070985499982" width="1.2923076923076922" height="25.29290145000175" fill="#f85149" opacity="0.45"/>
<rect x="776.8345659481906" y="559.2005884442112" width="1.2923076923076922" height="20.799411555788765" fill="#f85149" opacity="0.45"/>
<rect x="778.9939489816096" y="557.8513692891181" width="1.2923076923076922" height="22.14863071088189" fill="#f85149" opacity="0.45"/>
<rect x="781.1533320150287" y="557.6665652039534" width="1.2923076923076922" height="22.333434796046618" fill="#3fb950" opacity="0.45"/>
<rect x="783.3127150484477" y="563.120188512741" width="1.2923076923076922" height="16.879811487258962" fill="#f85149" opacity="0.45"/>
<rect x="785.4720980818666" y="562.5797300977202" width="1.2923076923076922" height="17.420269902279756" fill="#f85149" opacity="0.45"/>
<rect x="787.6314811152857" y="554.4649536543267" width="1.2923076923076922" height="25.535046345673322" fill="#3fb950" opacity="0.45"/>
<rect x="789.7908641487047" y="564.5393374437392" width="1.2923076923076922" height="15.460662556260786" fill="#3fb950" opacity="0.45"/>
<rect x="791.9502471821237" y="568.6384587280255" width="1.2923076923076922" height="11.361541271974488" fill="#f85149" opacity="0.45"/>
<rect x="794.1096302155428" y="567.636720709692" width="1.2923076923076922" height="12.363279290308014" fill="#3fb950" opacity="0.45"/>
<rect x="796.2690132489618" y="557.2770619722355" width="1.2923076923076922" height="22.722938027764485" fill="#3fb950" opacity="0.45"/>
<rect x="798.4283962823808" y="565.496901681702" width="1.2923076923076922" height="14.503098318298044" fill="#f85149" opacity="0.45"/>
<rect x="800.5877793157999" y="560.4970591919912" width="1.2923076923076922" height="19.502940808008816" fill="#3fb950" opacity="0.45"/>
<rect x="802.7471623492188" y="563.5948438917895" width="1.2923076923076922" height="16.405156108210463" fill="#f85149" opacity="0.45"/>
<rect x="804.9065453826379" y="563.0697684217325" width="1.2923076923076922" height="16.930231578267467" fill="#3fb950" opacity="0.45"/>
<rect x="807.065928416057" y="564.3006320332569" width="1.2923076923076922" height="15.699367966743125" fill="#3fb950" opacity="0.45"/>
<rect x="809.225311449476" y="541.4263309654023" width="1.2923076923076922" height="38.57366903459774" fill="#3fb950" opacity="0.45"/>
<rect x="811.3846944828949" y="518.5239616430628" width="1.2923076923076922" height="61.47603835693724" fill="#f85149" opacity="0.45"/>
<rect x="813.544077516314" y="544.0002348622681" width="1.2923076923076922" height="35.999765137731856" fill="#3fb950" opacity="0.45"/>
<rect x="815.703460549733" y="506.5041395166458" width="1.2923076923076922" height="73.49586048335419" fill="#3fb950" opacity="0.45"/>
<rect x="817.8628435831521" y="504.897084219724" width="1.2923076923076922" height="75.10291578027602" fill="#3fb950" opacity="0.45"/>
<rect x="820.0222266165711" y="506.1255456511162" width="1.2923076923076922" height="73.87445434888377" fill="#3fb950" opacity="0.45"/>
<rect x="822.18160964999" y="518.4659721154615" width="1.2923076923076922" height="61.534027884538546" fill="#3fb950" opacity="0.45"/>
<rect x="824.3409926834091" y="532.5547939165613" width="1.2923076923076922" height="47.445206083438734" fill="#f85149" opacity="0.45"/>
<rect x="826.5003757168281" y="542.2229266542172" width="1.2923076923076922" height="37.77707334578281" fill="#f85149" opacity="0.45"/>
<rect x="828.6597587502472" y="536.7048394927663" width="1.2923076923076922" height="43.29516050723373" fill="#f85149" opacity="0.45"/>
<rect x="830.8191417836662" y="548.3223735223504" width="1.2923076923076922" height="31.677626477649596" fill="#f85149" opacity="0.45"/>
<rect x="832.9785248170851" y="561.0314479272664" width="1.2923076923076922" height="18.968552072733587" fill="#f85149" opacity="0.45"/>
<rect x="835.1379078505042" y="558.8389768360863" width="1.2923076923076922" height="21.161023163913683" fill="#3fb950" opacity="0.45"/>
<rect x="837.2972908839233" y="559.0296097406892" width="1.2923076923076922" height="20.97039025931076" fill="#f85149" opacity="0.45"/>
<rect x="839.4566739173422" y="562.1986248620525" width="1.2923076923076922" height="17.801375137947502" fill="#f85149" opacity="0.45"/>
<rect x="841.6160569507613" y="550.1718595358419" width="1.2923076923076922" height="29.828140464158082" fill="#f85149" opacity="0.45"/>
<rect x="843.7754399841804" y="545.9999984387312" width="1.2923076923076922" height="34.000001561268846" fill="#3fb950" opacity="0.45"/>
<rect x="845.9348230175993" y="553.3566750933683" width="1.2923076923076922" height="26.643324906631733" fill="#3fb950" opacity="0.45"/>
<rect x="848.0942060510184" y="563.1673971329847" width="1.2923076923076922" height="16.83260286701534" fill="#f85149" opacity="0.45"/>
<rect x="850.2535890844373" y="567.5139815085292" width="1.2923076923076922" height="12.486018491470759" fill="#3fb950" opacity="0.45"/>
<rect x="852.4129721178564" y="568.2980428269489" width="1.2923076923076922" height="11.701957173051142" fill="#f85149" opacity="0.45"/>
<rect x="854.5723551512755" y="566.4129094879672" width="1.2923076923076922" height="13.587090512032773" fill="#f85149" opacity="0.45"/>
<rect x="856.7317381846944" y="566.1553495326243" width="1.2923076923076922" height="13.844650467375686" fill="#3fb950" opacity="0.45"/>
<rect x="858.8911212181134" y="568.9824072469437" width="1.2923076923076922" height="11.017592753056306" fill="#f85149" opacity="0.45"/>
<rect x="861.0505042515325" y="569.8209222636525" width="1.2923076923076922" height="10.179077736347494" fill="#f85149" opacity="0.45"/>
<rect x="863.2098872849515" y="571.0917012453135" width="1.2923076923076922" height="8.908298754686484" fill="#3fb950" opacity="0.45"/>
<rect x="865.3692703183706" y="564.6315002317497" width="1.2923076923076922" height="15.36849976825033" fill="#3fb950" opacity="0.45"/>
<rect x="867.5286533517896" y="542.7078812200087" width="1.2923076923076922" height="37.292118779991256" fill="#3fb950" opacity="0.45"/>
<rect x="869.6880363852085" y="535.5972417636101" width="1.2923076923076922" height="44.4027582363899" fill="#3fb950" opacity="0.45"/>
<rect x="871.8474194186276" y="546.7073248746948" width="1.2923076923076922" height="33.29267512530521" fill="#f85149" opacity="0.45"/>
<rect x="874.0068024520466" y="549.2642978976883" width="1.2923076923076922" height="30.735702102311734" fill="#f85149" opacity="0.45"/>
<rect x="876.1661854854657" y="541.4536959077898" width="1.2923076923076922" height="38.54630409221022" fill="#f85149" opacity="0.45"/>
<rect x="878.3255685188847" y="553.5158901794786" width="1.2923076923076922" height="26.48410982052144" fill="#3fb950" opacity="0.45"/>
<rect x="880.4849515523036" y="560.6627710834587" width="1.2923076923076922" height="19.337228916541335" fill="#f85149" opacity="0.45"/>
<rect x="882.6443345857227" y="561.2579240570761" width="1.2923076923076922" height="18.74207594292386" fill="#3fb950" opacity="0.45"/>
<rect x="884.8037176191418" y="556.6085718522315" width="1.2923076923076922" height="23.391428147768465" fill="#f85149" opacity="0.45"/>
<rect x="886.9631006525607" y="559.112138116405" width="1.2923076923076922" height="20.88786188359495" fill="#3fb950" opacity="0.45"/>
<rect x="889.1224836859798" y="555.5567027752581" width="1.2923076923076922" height="24.443297224741855" fill="#f85149" opacity="0.45"/>
<rect x="891.2818667193989" y="530.3028785015234" width="1.2923076923076922" height="49.69712149847658" fill="#3fb950" opacity="0.45"/>
<rect x="893.4412497528178" y="548.3933406033126" width="1.2923076923076922" height="31.606659396687405" fill="#f85149" opacity="0.45"/>
<rect x="895.6006327862369" y="555.7999620512851" width="1.2923076923076922" height="24.200037948714908" fill="#f85149" opacity="0.45"/>
<rect x="897.7600158196559" y="554.8757007651542" width="1.2923076923076922" height="25.124299234845807" fill="#3fb950" opacity="0.45"/>
<rect x="899.9193988530749" y="562.2657895616292" width="1.2923076923076922" height="17.734210438370837" fill="#f85149" opacity="0.45"/>
<rect x="902.078781886494" y="554.9992621028327" width="1.2923076923076922" height="25.000737897167255" fill="#3fb950" opacity="0.45"/>
<rect x="904.238164919913" y="546.4873391273009" width="1.2923076923076922" height="33.51266087269914" fill="#3fb950" opacity="0.45"/>
<rect x="906.3975479533319" y="547.242355904123" width="1.2923076923076922" height="32.757644095877026" fill="#f85149" opacity="0.45"/>
<rect x="908.556930986751" y="541.0571113830354" width="1.2923076923076922" height="38.94288861696464" fill="#f85149" opacity="0.45"/>
<rect x="910.71631402017" y="545.2916411206519" width="1.2923076923076922" height="34.70835887934811" fill="#3fb950" opacity="0.45"/>
<rect x="912.8756970535891" y="551.3375559826054" width="1.2923076923076922" height="28.66244401739459" fill="#3fb950" opacity="0.45"/>
<rect x="915.035080087008" y="508.35587998261417" width="1.2923076923076922" height="71.64412001738583" fill="#3fb950" opacity="0.45"/>
<rect x="917.194463120427" y="471.6666666666667" width="1.2923076923076922" height="108.33333333333331" fill="#3fb950" opacity="0.45"/>
<rect x="919.3538461538461" y="503.5246043818809" width="1.2923076923076922" height="76.47539561811908" fill="#3fb950" opacity="0.45"/>
<polyline points="80.0,333.09130062400584 82.15938303341902,340.8646720550449 84.31876606683805,336.80395563584534 86.47814910025707,336.4558942284854 88.63753213367609,329.3786456121663 90.79691516709512,318.9368033913675 92.95629820051414,344.46130659776446 95.11568123393316,348.28998207872405 97.27506426735218,346.7817159801642 99.43444730077121,343.8812042521646 101.59383033419023,343.18508143744464 103.75321336760925,345.1574294124844 105.91259640102828,342.7209995609647 108.0719794344473,339.2403854873651 110.23136246786632,334.59956672256567 112.39074550128535,343.76518378304456 114.55012853470437,340.168549240325 116.70951156812339,339.93650830208503 118.86889460154242,353.04682131264343 121.02827763496143,346.8977364492842 123.18766066838046,342.8370200300847 125.34704370179949,342.25691768448473 127.5064267352185,337.0359965740854 129.66580976863753,338.42824220352514 131.82519280205656,331.81507546368596 133.98457583547557,334.8316076608056 136.1439588688946,328.91456373568633 138.30334190231363,335.7597714137655 140.46272493573264,342.6049790918447 142.62210796915167,351.30651427584365 144.7814910025707,346.43365457280424 146.9408740359897,347.5938592640041 149.10025706940874,347.36181832576415 151.25964010282777,357.91968101568284 153.41902313624678,352.4667189670435 155.5784061696658,356.2953944480031 157.73778920308484,351.6545756832036 159.89717223650385,353.97498506560333 162.05655526992285,349.1021253625639 164.2159383033419,344.22926565952446 166.37532133676092,341.79283580800484 168.53470437017995,345.6215112889643 170.69408740359899,333.3233415622458 172.853470437018,335.8757918828855 175.012853470437,334.36752578432566 177.17223650385603,334.94762812992565 179.33161953727506,337.8481398579253 181.4910025706941,337.8481398579253 183.65038560411313,343.9972247212845 185.80976863753213,344.69334753600447 187.96915167095113,354.90314881856324 190.12853470437017,350.1463095846438 192.2879177377892,347.12977738752414 194.44730077120823,342.25691768448473 196.60668380462727,352.58273943616354 198.7660668380463,350.61039146112375 200.9254498714653,355.83131257152314 203.0848329048843,350.2623300537638 205.24421593830334,351.6545756832036 207.40359897172237,351.8866166214436 209.56298200514138,359.3119266451227 211.7223650385604,369.17366652032155 213.88174807197942,371.9581577792012 216.04113110539845,370.56591214976135 218.20051413881748,368.0134618291217 220.35989717223651,371.02999402624135 222.51928020565555,371.49407590272125 224.67866323907455,376.4829560748807 226.83804627249359,376.1348946675207 228.9974293059126,363.25662259520226 231.15681233933162,366.38917526144184 233.31619537275066,367.4333594835217 235.47557840616966,366.50519573056187 237.6349614395887,362.9085611878423 239.7943444730077,361.40029508928245 241.95372750642673,362.7925407187223 244.11311053984574,364.06876587904213 246.2724935732648,355.3672306950432 248.4318766066838,333.5553825004858 250.59125964010283,328.3344613900864 252.75064267352187,324.7378268473668 254.91002570694087,326.1300724768067 257.0694087403599,301.41771255424965 259.2287917737789,309.4231249235287 261.38817480719797,301.53373302336956 263.54755784061695,300.3735283321697 265.706940874036,295.6166890982503 267.866323907455,298.9812827027299 270.025706940874,292.71617737025065 272.1850899742931,264.639223843214 274.34447300771205,270.67228823745324 276.50385604113114,256.86585241217495 278.6632390745501,255.1255453753751 280.82262210796915,245.37982596929626 282.9820051413882,238.76665922945708 285.14138817480716,241.6671709574567 287.30077120822625,251.52891083265555 289.4601542416452,243.63951893249651 291.61953727506426,229.94910357633813 293.7789203084833,235.86614750145742 295.93830334190227,236.56227031617735 298.09768637532136,241.0870686118568 300.25706940874034,244.5676826854564 302.4164524421594,246.42401019137614 304.5758354755784,245.14778503105632 306.73521850899743,251.87697224001556 308.89460154241647,250.83278801793568 311.05398457583544,246.42401019137614 313.21336760925453,236.09818843969737 315.3727506426735,254.3134020915352 317.5321336760926,254.19738162241524 319.6915167095116,268.6999402624135 321.8508997429306,272.87667715073303 324.01028277634964,278.7937210758523 326.1696658097686,281.230150927372 328.32904884318765,283.78260124801176 330.4884318766067,286.5670925068914 332.64781491002566,283.4345398406518 334.80719794344475,284.5947445318516 336.9665809768638,280.1859667052921 339.12596401028276,284.82678547009164 341.2853470437018,313.7158822809681 343.4447300771208,339.704467363845 345.60411311053986,316.2683326016078 347.76349614395883,306.638633664649 349.9228791773779,306.52261319552895 352.0822622107969,308.4949611705688 354.24164524421593,306.05853131904905 356.40102827763496,315.108127910408 358.560411311054,313.36782087360814 360.71979434447303,314.17996415744807 362.879177377892,304.78230615872917 365.0385604113111,306.1745517881691 367.1979434447301,298.9812827027299 369.3573264781491,301.06965114688967 371.51670951156814,289.0035223584111 373.67609254498717,294.68852534529043 375.83547557840615,290.163727049611 377.9948586118252,281.8102532729719 380.1542416452442,278.44565966849234 382.31362467866325,280.5340281126521 384.4730077120822,281.346171396492 386.6323907455013,284.82678547009164 388.79177377892034,282.8544374950518 390.9511568123393,286.4510720377714 393.11053984575835,286.79913344513136 395.2699228791774,297.24097566593014 397.4293059125964,296.31281191297023 399.5886889460154,295.1526072217703 401.7480719794344,292.83219783937056 403.90745501285346,297.58903707329 406.0668380462725,300.8376102086497 408.22622107969147,302.2298558380895 410.38560411311056,300.3735283321697 412.5449871465296,303.50608099840935 414.70437017994857,302.6939377145695 416.8637532133676,295.6166890982503 419.02313624678663,300.48954880128974 421.18251928020567,298.16913941889004 423.34190231362464,296.4288323820902 425.50128534704373,287.9593381363312 427.6606683804627,289.11954282753106 429.82005141388174,291.4399522099308 431.9794344473008,298.51720082625 434.1388174807198,296.4288323820902 436.2982005141388,297.70505754241003 438.4575835475578,302.2298558380895 440.6169665809769,300.3735283321697 442.7763496143959,304.66628568960925 444.9357326478149,303.9701628748893 447.09511568123395,306.05853131904905 449.254498714653,311.3954728985684 451.41388174807196,308.37894070144876 453.573264781491,295.8487300364903 455.73264781491,294.10842299969045 457.89203084832906,293.99240253057053 460.05141388174803,292.71617737025065 462.2107969151671,290.04770658049097 464.37017994858616,291.5559726790508 466.52956298200513,296.0807709747303 468.68894601542416,290.04770658049097 470.8483290488432,293.4123001849706 473.00771208226223,291.5559726790508 475.1670951156812,289.46760423489104 477.32647814910024,291.78801361729074 479.4858611825193,292.9482183084906 481.6452442159383,292.6001569011307 483.8046272493573,286.1030106304114 485.96401028277637,285.87096969217146 488.1233933161954,285.9869901612915 490.2827763496144,298.28515988801 492.4421593830334,298.28515988801 494.60154241645245,293.5283206540905 496.7609254498715,291.4399522099308 498.92030848329046,292.2520954937707 501.0796915167095,287.49525625985126 503.2390745501285,285.6389287539315 505.39845758354755,287.61127672897123 507.5578406169666,289.11954282753106 509.71722365038556,279.02576201409227 511.8766066838046,274.3849432492928 514.0359897172236,261.50667117697435 516.1953727506427,263.71106009025414 518.3547557840618,269.04800166977344 520.5141388174807,265.68340806529386 522.6735218508998,270.9043291756932 524.8329048843189,274.26892278017283 526.9922879177378,272.41259527425314 529.1516709511568,274.3849432492928 531.3110539845759,272.87667715073303 533.4704370179949,278.56168013761237 535.6298200514138,266.2635104108938 537.7892030848329,265.56738759617394 539.9485861182519,265.10330571969394 542.1079691516709,264.523203374094 544.26735218509,267.1916741638537 546.4267352185091,264.75524431233396 548.5861182519279,263.5950396211341 550.745501285347,258.14207757249477 552.9048843187661,226.5845099718585 555.0642673521852,232.61757436609784 557.2236503856041,244.4516622163364 559.3830334190231,248.6283991046559 561.5424164524422,260.23044601665447 563.7017994858612,270.7883087065733 565.8611825192802,275.0810660640127 568.0205655526993,268.58391979329355 570.1799485861183,259.0702413254546 572.3393316195372,265.10330571969394 574.4987146529563,262.78289633729423 576.6580976863753,260.57850742401445 578.8174807197943,263.36299868289416 580.9768637532134,265.68340806529386 583.1362467866325,262.3188144608142 585.2956298200513,259.4183027328146 587.4550128534704,264.871264781454 589.6143958868895,269.86014495361337 591.7737789203086,267.88779697857365 593.9331619537276,275.5451479404927 596.0925449871465,263.5950396211341 598.2519280205655,260.57850742401445 600.4113110539846,257.2139138195349 602.5706940874036,250.2526856723357 604.7300771208226,245.49584643841627 606.8894601542416,234.35788140289762 609.0488431876606,237.37441360001725 611.2082262210797,233.31369718081774 613.3676092544987,242.82737564865658 615.5269922879177,241.89921189569668 617.6863753213368,249.44054238849583 619.8457583547558,263.82708055937405 622.0051413881748,254.77748396801516 624.1645244215938,222.87185496001896 626.3239074550129,221.9436912070591 628.4832904884319,223.5679777747389 630.642673521851,217.76695431873958 632.8020565552699,211.73388992450032 634.9614395886889,217.4188929113796 637.120822622108,216.95481103489965 639.280205655527,226.5845099718585 641.4395886889461,225.42430528065867 643.598971722365,227.51267372481843 645.758354755784,235.51808609409747 647.9177377892031,237.49043406913722 650.0771208226222,233.66175858817772 652.236503856041,241.31910955009678 654.3958868894601,243.63951893249651 656.5552699228792,242.47931424129663 658.7146529562982,245.26380550017632 660.8740359897172,240.73900720449686 663.0334190231363,246.65605112961612 665.1928020565553,249.32452191937583 667.3521850899743,251.29686989441558 669.5115681233933,255.70564772097504 671.6709511568123,260.8105483622545 673.8303341902314,274.84902512577276 675.9897172236504,266.61157181825376 678.1491002570694,264.871264781454 680.3084832904884,267.53973557121367 682.4678663239074,267.07565369473366 684.6272493573265,262.8989168064142 686.7866323907456,263.9431010284941 688.9460154241644,268.93198120065347 691.1053984575835,271.4844315212931 693.2647814910026,270.20820636097335 695.4241645244216,265.33534665793394 697.5835475578407,260.8105483622545 699.7429305912597,263.36299868289416 701.9023136246786,266.1474899417738 704.0616966580977,269.1640221388934 706.2210796915167,262.20279399169425 708.3804627249357,265.9154490035338 710.5398457583548,271.4844315212931 712.6992287917737,266.9596332256137 714.8586118251928,266.61157181825376 717.0179948586119,264.75524431233396 719.1773778920308,257.0978933504149 721.3367609254499,260.6945278931345 723.4961439588689,258.3741185107348 725.655526992288,256.169729597455 727.8149100257069,259.8823846092945 729.9742930591259,256.98187288129486 732.133676092545,256.86585241217495 734.2930591259641,258.14207757249477 736.4524421593829,251.29686989441558 738.611825192802,248.28033769729592 740.7712082262211,251.99299270913548 742.9305912596401,230.76124686017803 745.0899742930592,233.77777905729764 747.2493573264782,211.73388992450032 749.4087403598971,215.56256540545985 751.5681233933162,200.0158225433817 753.7275064267352,193.17061486530253 755.8868894601542,202.2202114566614 758.0462724935733,208.2532758509007 760.2056555269922,213.5902174304201 762.3650385604113,214.05429930690005 764.5244215938303,212.31399227010024 766.6838046272493,202.2202114566614 768.8431876606684,204.77266177730112 771.0025706940875,210.2256238259405 773.1619537275064,226.46848950273855 775.3213367609254,232.96563577345776 777.4807197943445,234.1258404646576 779.6401028277635,235.2860451558575 781.7994858611826,221.5956297996991 783.9588688946016,223.33593683649895 786.1182519280205,225.65634621889862 788.2776349614396,218.11501572609956 790.4370179948586,218.11501572609956 792.5964010282776,220.31940463937926 794.7557840616967,218.3470566643395 796.9151670951156,201.75612958018144 799.0745501285347,207.67317350530078 801.2339331619538,202.10419098754141 803.3933161953727,205.12072318466107 805.5526992287918,203.61245708610127 807.7120822622109,196.76724940802205 809.8714652956298,159.06059694402657 812.0308483290488,179.82826091650406 814.1902313624679,177.50785153410436 816.3496143958869,149.89497988354765 818.508997429306,130.28752060227 820.6683804627249,103.83485364291315 822.8277634961439,85.50361952195536 824.987146529563,99.19403487811373 827.146529562982,109.86791803715248 829.3059125964011,136.7846668729893 831.46529562982,144.5580383040283 833.624678663239,158.8285560057866 835.7840616966581,148.27069331586785 837.9434447300772,165.44172274562584 840.1028277634961,182.14867029890382 842.2622107969152,212.54603320834022 844.4215938303342,207.67317350530078 846.5809768637532,196.65122893890208 848.7403598971723,204.88868224642113 850.8997429305912,201.4080681728215 853.0591259640103,207.32511209794083 855.2185089974294,216.25868822017978 857.3778920308483,205.58480506114103 859.5372750642673,216.25868822017978 861.6966580976864,224.26410058945882 863.8560411311054,223.68399824385884 866.0154241645245,188.64581656962307 868.1748071979434,185.28122296514348 870.3341902313624,168.11019353538546 872.4935732647815,182.2646907680238 874.6529562982005,184.1210182739436 876.8123393316196,190.15408266818284 878.9717223650385,182.03264982978388 881.1311053984575,182.49673170626377 883.2904884318766,179.36417904002414 885.4498714652957,189.92204172994292 887.6092544987146,179.01611763266413 889.7686375321337,179.71224044738412 891.9280205655527,160.68488351170635 894.0874035989717,167.06600931330564 896.2467866323908,174.37529886786473 898.4061696658098,162.1931496102662 900.5655526992288,170.66264385602517 902.7249357326479,162.7732519558661 904.8843187660668,147.92263190850787 907.0437017994858,153.60763489538724 909.2030848329049,166.71794790594566 911.3624678663239,164.16549758530599 913.521850899743,154.53579864834705 915.6812339331619,126.11078371395052 917.8406169665809,84.34341483075549 920.0,70.07289712899723" stroke="#58a6ff" stroke-width="1.8" fill="none"/>
<line x1="80" y1="85.50361952195536" x2="920" y2="85.50361952195536" stroke="#f0883e" stroke-width="1.5" stroke-dasharray="6,3"/>
<text x="925" y="89.50361952195536" font-size="11" fill="#f0883e" font-weight="bold">颈线 42.08</text>
<circle cx="779.6401028277635" cy="235.2860451558575" r="6" fill="#238636" stroke="#fff" stroke-width="2"/>
<text x="779.6401028277635" y="255.2860451558575" text-anchor="middle" font-size="10" fill="#3fb950">左底 29.17</text>
<circle cx="861.6966580976864" cy="224.26410058945882" r="6" fill="#8957e5" stroke="#fff" stroke-width="2"/>
<text x="861.6966580976864" y="244.26410058945882" text-anchor="middle" font-size="10" fill="#bc8cff">右底 30.12</text>
<circle cx="920.0" cy="85.50361952195536" r="7" fill="#f0883e" stroke="#fff" stroke-width="2"/>
<text x="920.0" y="73.50361952195536" text-anchor="middle" font-size="10" fill="#f0883e">突破</text>
<line x1="920.0" y1="70.07289712899723" x2="920" y2="70.07289712899723" stroke="#f85149" stroke-width="1"/>
<text x="925" y="74.07289712899723" font-size="11" fill="#f85149" font-weight="bold">现价 43.41</text>
<text x="80" y="598" font-size="13" fill="#58a6ff" font-weight="bold">筛选高分原因:</text>
<text x="90" y="618" font-size="11" fill="#c9d1d9">  1. 刚刚突破(0天前)</text>
<text x="90" y="636" font-size="11" fill="#c9d1d9">  2. 右底显著缩量(46%)</text>
<text x="90" y="654" font-size="11" fill="#c9d1d9">  3. 形态跨度大(38根K线)</text>
<text x="90" y="672" font-size="11" fill="#c9d1d9">  4. 右底高于左底</text>
<text x="928" y="80" font-size="11" fill="#8b949e">突破日: 2026-05-18</text>
<text x="928" y="98" font-size="11" fill="#8b949e">突破后涨幅: 3.2%</text>
<text x="928" y="116" font-size="11" fill="#8b949e">目标空间: 26.7%</text>
<text x="928" y="134" font-size="11" fill="#8b949e">形态跨度: 38根K线</text>
</svg>