<svg xmlns="http://www.w3.org/2000/svg" viewBox="0 0 1000 700" width="1000" height="700">
<rect width="1000" height="700" fill="#0d1117"/>
<text x="500.0" y="24" text-anchor="middle" font-size="18" fill="#58a6ff" font-weight="bold">光华科技 (002741.SZ)</text>
<text x="500.0" y="46" text-anchor="middle" font-size="14" fill="#8b949e">双底突破 | 评分:82/100 | 突破后涨幅:3.1% | 目标空间:11.0%</text>
<line x1="80" y1="382.4" x2="920" y2="382.4" stroke="#21262d" stroke-width="0.5"/>
<text x="72" y="386.4" text-anchor="end" font-size="10" fill="#8b949e">12.29</text>
<line x1="80" y1="317.92" x2="920" y2="317.92" stroke="#21262d" stroke-width="0.5"/>
<text x="72" y="321.92" text-anchor="end" font-size="10" fill="#8b949e">14.93</text>
<line x1="80" y1="253.43999999999994" x2="920" y2="253.43999999999994" stroke="#21262d" stroke-width="0.5"/>
<text x="72" y="257.43999999999994" text-anchor="end" font-size="10" fill="#8b949e">17.58</text>
<line x1="80" y1="188.95999999999995" x2="920" y2="188.95999999999995" stroke="#21262d" stroke-width="0.5"/>
<text x="72" y="192.95999999999995" text-anchor="end" font-size="10" fill="#8b949e">20.22</text>
<line x1="80" y1="124.47999999999998" x2="920" y2="124.47999999999998" stroke="#21262d" stroke-width="0.5"/>
<text x="72" y="128.47999999999996" text-anchor="end" font-size="10" fill="#8b949e">22.87</text>
<line x1="80" y1="60.0" x2="920" y2="60.0" stroke="#21262d" stroke-width="0.5"/>
<text x="72" y="64.0" text-anchor="end" font-size="10" fill="#8b949e">25.51</text>
<text x="80.0" y="396.4" text-anchor="middle" font-size="9" fill="#8b949e">2024-10-08</text>
<text x="183.65038560411313" y="396.4" text-anchor="middle" font-size="9" fill="#8b949e">2024-12-13</text>
<text x="287.30077120822625" y="396.4" text-anchor="middle" font-size="9" fill="#8b949e">2025-02-28</text>
<text x="390.9511568123393" y="396.4" text-anchor="middle" font-size="9" fill="#8b949e">2025-05-13</text>
<text x="494.60154241645245" y="396.4" text-anchor="middle" font-size="9" fill="#8b949e">2025-07-21</text>
<text x="598.2519280205655" y="396.4" text-anchor="middle" font-size="9" fill="#8b949e">2025-09-25</text>
<text x="701.9023136246786" y="396.4" text-anchor="middle" font-size="9" fill="#8b949e">2025-12-10</text>
<text x="805.5526992287918" y="396.4" text-anchor="middle" font-size="9" fill="#8b949e">2026-02-26</text>
<text x="909.2030848329049" y="396.4" text-anchor="middle" font-size="9" fill="#8b949e">2026-05-11</text>
<rect x="688.9460154241644" y="60" width="231.05398457583556" height="520.0" fill="#238636" opacity="0.10" rx="4"/>
<text x="804.4730077120822" y="52" text-anchor="middle" font-size="11" fill="#3fb950" font-weight="bold">双底区域</text>
<rect x="79.35384615384615" y="560.2303932411255" width="1.2923076923076922" height="19.769606758874488" fill="#3fb950" opacity="0.45"/>
<rect x="81.51322918726517" y="569.9904012874359" width="1.2923076923076922" height="10.00959871256407" fill="#f85149" opacity="0.45"/>
<rect x="83.6726122206842" y="572.3965540290321" width="1.2923076923076922" height="7.603445970967869" fill="#3fb950" opacity="0.45"/>
<rect x="85.83199525410322" y="566.9691571822914" width="1.2923076923076922" height="13.030842817708617" fill="#3fb950" opacity="0.45"/>
<rect x="87.99137828752224" y="571.3238934475606" width="1.2923076923076922" height="8.676106552439364" fill="#3fb950" opacity="0.45"/>
<rect x="90.15076132094127" y="574.0992925235722" width="1.2923076923076922" height="5.900707476427783" fill="#f85149" opacity="0.45"/>
<rect x="92.31014435436029" y="574.2306285513226" width="1.2923076923076922" height="5.7693714486773615" fill="#f85149" opacity="0.45"/>
<rect x="94.46952738777931" y="574.5925990006347" width="1.2923076923076922" height="5.407400999365336" fill="#f85149" opacity="0.45"/>
<rect x="96.62891042119833" y="572.2507922637285" width="1.2923076923076922" height="7.749207736271501" fill="#3fb950" opacity="0.45"/>
<rect x="98.78829345461736" y="570.6987234727527" width="1.2923076923076922" height="9.301276527247296" fill="#f85149" opacity="0.45"/>
<rect x="100.94767648803638" y="572.3123415438175" width="1.2923076923076922" height="7.687658456182476" fill="#3fb950" opacity="0.45"/>
<rect x="103.1070595214554" y="569.9577981736536" width="1.2923076923076922" height="10.0422018263464" fill="#f85149" opacity="0.45"/>
<rect x="105.26644255487443" y="574.9857008490901" width="1.2923076923076922" height="5.014299150909892" fill="#f85149" opacity="0.45"/>
<rect x="107.42582558829345" y="571.9433105985404" width="1.2923076923076922" height="8.056689401459607" fill="#3fb950" opacity="0.45"/>
<rect x="109.58520862171247" y="571.622702865863" width="1.2923076923076922" height="8.377297134137052" fill="#f85149" opacity="0.45"/>
<rect x="111.7445916551315" y="571.1599929827153" width="1.2923076923076922" height="8.840007017284734" fill="#f85149" opacity="0.45"/>
<rect x="113.90397468855052" y="575.5455752398487" width="1.2923076923076922" height="4.454424760151255" fill="#f85149" opacity="0.45"/>
<rect x="116.06335772196954" y="574.4416572265798" width="1.2923076923076922" height="5.558342773420236" fill="#3fb950" opacity="0.45"/>
<rect x="118.22274075538857" y="574.1106741390929" width="1.2923076923076922" height="5.889325860907093" fill="#f85149" opacity="0.45"/>
<rect x="120.38212378880758" y="576.1782764992646" width="1.2923076923076922" height="3.821723500735402" fill="#3fb950" opacity="0.45"/>
<rect x="122.54150682222661" y="575.6130033764194" width="1.2923076923076922" height="4.386996623580558" fill="#3fb950" opacity="0.45"/>
<rect x="124.70088985564564" y="575.6110588726194" width="1.2923076923076922" height="4.388941127380576" fill="#f85149" opacity="0.45"/>
<rect x="126.86027288906465" y="575.6744879730829" width="1.2923076923076922" height="4.3255120269170675" fill="#3fb950" opacity="0.45"/>
<rect x="129.01965592248368" y="574.776846737239" width="1.2923076923076922" height="5.223153262761002" fill="#3fb950" opacity="0.45"/>
<rect x="131.1790389559027" y="572.0158640630284" width="1.2923076923076922" height="7.984135936971597" fill="#3fb950" opacity="0.45"/>
<rect x="133.33842198932172" y="572.1614357790924" width="1.2923076923076922" height="7.838564220907642" fill="#f85149" opacity="0.45"/>
<rect x="135.49780502274075" y="575.814182166344" width="1.2923076923076922" height="4.18581783365596" fill="#f85149" opacity="0.45"/>
<rect x="137.65718805615978" y="567.7195496008859" width="1.2923076923076922" height="12.280450399114102" fill="#3fb950" opacity="0.45"/>
<rect x="139.8165710895788" y="559.5972451992865" width="1.2923076923076922" height="20.402754800713524" fill="#3fb950" opacity="0.45"/>
<rect x="141.97595412299782" y="544.8923019735242" width="1.2923076923076922" height="35.10769802647576" fill="#3fb950" opacity="0.45"/>
<rect x="144.13533715641685" y="557.2193157700465" width="1.2923076923076922" height="22.780684229953522" fill="#f85149" opacity="0.45"/>
<rect x="146.29472018983586" y="573.0078924202257" width="1.2923076923076922" height="6.992107579774256" fill="#3fb950" opacity="0.45"/>
<rect x="148.4541032232549" y="576.8010458520972" width="1.2923076923076922" height="3.198954147902782" fill="#3fb950" opacity="0.45"/>
<rect x="150.61348625667392" y="576.4985694837276" width="1.2923076923076922" height="3.5014305162724213" fill="#3fb950" opacity="0.45"/>
<rect x="152.77286929009293" y="577.1120584321073" width="1.2923076923076922" height="2.8879415678926534" fill="#3fb950" opacity="0.45"/>
<rect x="154.93225232351196" y="471.6666666666667" width="1.2923076923076922" height="108.33333333333331" fill="#3fb950" opacity="0.45"/>
<rect x="157.091635356931" y="517.9326856939472" width="1.2923076923076922" height="62.06731430605282" fill="#f85149" opacity="0.45"/>
<rect x="159.25101839035" y="526.8186146091011" width="1.2923076923076922" height="53.18138539089887" fill="#f85149" opacity="0.45"/>
<rect x="161.410401423769" y="514.9536465236467" width="1.2923076923076922" height="65.04635347635326" fill="#f85149" opacity="0.45"/>
<rect x="163.56978445718804" y="519.6044841722622" width="1.2923076923076922" height="60.39551582773777" fill="#3fb950" opacity="0.45"/>
<rect x="165.72916749060707" y="561.6985676292984" width="1.2923076923076922" height="18.301432370701605" fill="#3fb950" opacity="0.45"/>
<rect x="167.8885505240261" y="479.5238030327505" width="1.2923076923076922" height="100.4761969672495" fill="#f85149" opacity="0.45"/>
<rect x="170.04793355744513" y="503.456859830026" width="1.2923076923076922" height="76.54314016997398" fill="#3fb950" opacity="0.45"/>
<rect x="172.20731659086414" y="544.3544892987187" width="1.2923076923076922" height="35.645510701281296" fill="#3fb950" opacity="0.45"/>
<rect x="174.36669962428314" y="498.42085505542286" width="1.2923076923076922" height="81.57914494457714" fill="#3fb950" opacity="0.45"/>
<rect x="176.52608265770218" y="499.6302857392217" width="1.2923076923076922" height="80.36971426077832" fill="#3fb950" opacity="0.45"/>
<rect x="178.6854656911212" y="522.6068893964556" width="1.2923076923076922" height="57.393110603544415" fill="#f85149" opacity="0.45"/>
<rect x="180.84484872454024" y="518.2041260212128" width="1.2923076923076922" height="61.7958739787872" fill="#3fb950" opacity="0.45"/>
<rect x="183.00423175795927" y="509.90020389775077" width="1.2923076923076922" height="70.09979610224923" fill="#3fb950" opacity="0.45"/>
<rect x="185.16361479137828" y="519.7228588418643" width="1.2923076923076922" height="60.27714115813569" fill="#f85149" opacity="0.45"/>
<rect x="187.32299782479728" y="526.8495819657431" width="1.2923076923076922" height="53.15041803425686" fill="#3fb950" opacity="0.45"/>
<rect x="189.48238085821632" y="527.2502931190209" width="1.2923076923076922" height="52.74970688097915" fill="#3fb950" opacity="0.45"/>
<rect x="191.64176389163535" y="538.8558499938242" width="1.2923076923076922" height="41.14415000617578" fill="#f85149" opacity="0.45"/>
<rect x="193.80114692505438" y="528.3284044460553" width="1.2923076923076922" height="51.67159555394471" fill="#f85149" opacity="0.45"/>
<rect x="195.96052995847342" y="549.51595191143" width="1.2923076923076922" height="30.484048088570034" fill="#f85149" opacity="0.45"/>
<rect x="198.11991299189245" y="545.4873801518717" width="1.2923076923076922" height="34.51261984812834" fill="#f85149" opacity="0.45"/>
<rect x="200.27929602531145" y="557.0682839726676" width="1.2923076923076922" height="22.931716027332413" fill="#f85149" opacity="0.45"/>
<rect x="202.43867905873046" y="559.6063115482798" width="1.2923076923076922" height="20.39368845172021" fill="#3fb950" opacity="0.45"/>
<rect x="204.5980620921495" y="550.1164568291206" width="1.2923076923076922" height="29.88354317087942" fill="#3fb950" opacity="0.45"/>
<rect x="206.75744512556852" y="560.5237765869243" width="1.2923076923076922" height="19.476223413075672" fill="#f85149" opacity="0.45"/>
<rect x="208.91682815898753" y="556.7539992115372" width="1.2923076923076922" height="23.246000788462766" fill="#f85149" opacity="0.45"/>
<rect x="211.07621119240656" y="561.2267453852362" width="1.2923076923076922" height="18.7732546147638" fill="#f85149" opacity="0.45"/>
<rect x="213.23559422582557" y="557.8996507041679" width="1.2923076923076922" height="22.100349295832075" fill="#f85149" opacity="0.45"/>
<rect x="215.3949772592446" y="563.8592627754751" width="1.2923076923076922" height="16.140737224524855" fill="#f85149" opacity="0.45"/>
<rect x="217.55436029266363" y="564.9285618193419" width="1.2923076923076922" height="15.071438180658106" fill="#3fb950" opacity="0.45"/>
<rect x="219.71374332608266" y="560.6233123755752" width="1.2923076923076922" height="19.37668762442479" fill="#3fb950" opacity="0.45"/>
<rect x="221.8731263595017" y="554.9573117091543" width="1.2923076923076922" height="25.042688290845717" fill="#3fb950" opacity="0.45"/>
<rect x="224.0325093929207" y="560.6457188475174" width="1.2923076923076922" height="19.3542811524826" fill="#f85149" opacity="0.45"/>
<rect x="226.19189242633973" y="565.9574283875895" width="1.2923076923076922" height="14.042571612410484" fill="#f85149" opacity="0.45"/>
<rect x="228.35127545975874" y="562.0846003128761" width="1.2923076923076922" height="17.91539968712391" fill="#3fb950" opacity="0.45"/>
<rect x="230.51065849317777" y="564.1391326200712" width="1.2923076923076922" height="15.860867379928777" fill="#f85149" opacity="0.45"/>
<rect x="232.6700415265968" y="566.1166696452846" width="1.2923076923076922" height="13.88333035471544" fill="#3fb950" opacity="0.45"/>
<rect x="234.8294245600158" y="556.7942549747053" width="1.2923076923076922" height="23.205745025294732" fill="#3fb950" opacity="0.45"/>
<rect x="236.98880759343484" y="553.5943585826772" width="1.2923076923076922" height="26.40564141732284" fill="#3fb950" opacity="0.45"/>
<rect x="239.14819062685385" y="562.5772192784783" width="1.2923076923076922" height="17.42278072152169" fill="#f85149" opacity="0.45"/>
<rect x="241.30757366027288" y="564.7035141785884" width="1.2923076923076922" height="15.29648582141158" fill="#f85149" opacity="0.45"/>
<rect x="243.46695669369188" y="563.1257233899867" width="1.2923076923076922" height="16.87427661001334" fill="#f85149" opacity="0.45"/>
<rect x="245.62633972711095" y="566.641539633446" width="1.2923076923076922" height="13.358460366554027" fill="#3fb950" opacity="0.45"/>
<rect x="247.78572276052995" y="568.6197181581983" width="1.2923076923076922" height="11.380281841801661" fill="#f85149" opacity="0.45"/>
<rect x="249.94510579394898" y="570.2450732702041" width="1.2923076923076922" height="9.754926729795898" fill="#3fb950" opacity="0.45"/>
<rect x="252.10448882736802" y="557.5751146203636" width="1.2923076923076922" height="22.424885379636407" fill="#3fb950" opacity="0.45"/>
<rect x="254.26387186078702" y="560.386509689216" width="1.2923076923076922" height="19.61349031078396" fill="#3fb950" opacity="0.45"/>
<rect x="256.4232548942061" y="566.3090528230274" width="1.2923076923076922" height="13.6909471769726" fill="#3fb950" opacity="0.45"/>
<rect x="258.58263792762506" y="549.3149391645254" width="1.2923076923076922" height="30.685060835474587" fill="#3fb950" opacity="0.45"/>
<rect x="260.74202096104415" y="553.2644064289609" width="1.2923076923076922" height="26.73559357103909" fill="#3fb950" opacity="0.45"/>
<rect x="262.9014039944631" y="543.6324628961202" width="1.2923076923076922" height="36.36753710387984" fill="#3fb950" opacity="0.45"/>
<rect x="265.06078702788216" y="552.9633257555341" width="1.2923076923076922" height="27.03667424446587" fill="#f85149" opacity="0.45"/>
<rect x="267.2201700613012" y="562.3570922459348" width="1.2923076923076922" height="17.642907754065163" fill="#3fb950" opacity="0.45"/>
<rect x="269.37955309472017" y="556.6732202825867" width="1.2923076923076922" height="23.326779717413274" fill="#f85149" opacity="0.45"/>
<rect x="271.53893612813926" y="564.6215035971966" width="1.2923076923076922" height="15.378496402803421" fill="#3fb950" opacity="0.45"/>
<rect x="273.69831916155823" y="565.2532899529042" width="1.2923076923076922" height="14.746710047095803" fill="#3fb950" opacity="0.45"/>
<rect x="275.8577021949773" y="558.5090019138374" width="1.2923076923076922" height="21.490998086162563" fill="#3fb950" opacity="0.45"/>
<rect x="278.0170852283963" y="556.2614876070845" width="1.2923076923076922" height="23.73851239291548" fill="#3fb950" opacity="0.45"/>
<rect x="280.17646826181533" y="564.582968946617" width="1.2923076923076922" height="15.41703105338297" fill="#f85149" opacity="0.45"/>
<rect x="282.33585129523436" y="554.9472471015229" width="1.2923076923076922" height="25.052752898477138" fill="#3fb950" opacity="0.45"/>
<rect x="284.49523432865334" y="556.7665524639498" width="1.2923076923076922" height="23.23344753605022" fill="#3fb950" opacity="0.45"/>
<rect x="286.65461736207243" y="516.869236165627" width="1.2923076923076922" height="63.130763834373056" fill="#3fb950" opacity="0.45"/>
<rect x="288.8140003954914" y="533.854012738324" width="1.2923076923076922" height="46.145987261676055" fill="#3fb950" opacity="0.45"/>
<rect x="290.97338342891044" y="545.0045417203006" width="1.2923076923076922" height="34.99545827969939" fill="#f85149" opacity="0.45"/>
<rect x="293.13276646232947" y="557.0793755130329" width="1.2923076923076922" height="22.920624486967085" fill="#f85149" opacity="0.45"/>
<rect x="295.29214949574845" y="559.6005107120122" width="1.2923076923076922" height="20.399489287987763" fill="#3fb950" opacity="0.45"/>
<rect x="297.45153252916754" y="556.887965920869" width="1.2923076923076922" height="23.112034079131035" fill="#f85149" opacity="0.45"/>
<rect x="299.6109155625865" y="555.3882660314448" width="1.2923076923076922" height="24.6117339685552" fill="#3fb950" opacity="0.45"/>
<rect x="301.7702985960056" y="562.2414589532606" width="1.2923076923076922" height="17.758541046739424" fill="#f85149" opacity="0.45"/>
<rect x="303.9296816294246" y="563.950593771686" width="1.2923076923076922" height="16.049406228313956" fill="#f85149" opacity="0.45"/>
<rect x="306.0890646628436" y="562.5613484998638" width="1.2923076923076922" height="17.43865150013619" fill="#f85149" opacity="0.45"/>
<rect x="308.24844769626264" y="567.578929167646" width="1.2923076923076922" height="12.421070832353962" fill="#3fb950" opacity="0.45"/>
<rect x="310.4078307296816" y="567.220554983421" width="1.2923076923076922" height="12.779445016578961" fill="#3fb950" opacity="0.45"/>
<rect x="312.5672137631007" y="566.1865544183433" width="1.2923076923076922" height="13.813445581656651" fill="#3fb950" opacity="0.45"/>
<rect x="314.7265967965197" y="569.2730661002807" width="1.2923076923076922" height="10.726933899719256" fill="#f85149" opacity="0.45"/>
<rect x="316.8859798299388" y="571.0368110676076" width="1.2923076923076922" height="8.963188932392427" fill="#f85149" opacity="0.45"/>
<rect x="319.04536286335775" y="569.5474918677085" width="1.2923076923076922" height="10.452508132291541" fill="#f85149" opacity="0.45"/>
<rect x="321.2047458967768" y="570.9045768071347" width="1.2923076923076922" height="9.095423192865269" fill="#f85149" opacity="0.45"/>
<rect x="323.3641289301958" y="574.0508586415417" width="1.2923076923076922" height="5.9491413584582915" fill="#f85149" opacity="0.45"/>
<rect x="325.5235119636148" y="575.1458083312145" width="1.2923076923076922" height="4.854191668785461" fill="#3fb950" opacity="0.45"/>
<rect x="327.6828949970338" y="568.6927530807602" width="1.2923076923076922" height="11.307246919239788" fill="#3fb950" opacity="0.45"/>
<rect x="329.84227803045286" y="570.6172543649842" width="1.2923076923076922" height="9.382745635015795" fill="#f85149" opacity="0.45"/>
<rect x="332.00166106387184" y="572.428799716876" width="1.2923076923076922" height="7.5712002831239715" fill="#f85149" opacity="0.45"/>
<rect x="334.1610440972909" y="574.98733727307" width="1.2923076923076922" height="5.012662726929989" fill="#3fb950" opacity="0.45"/>
<rect x="336.32042713070996" y="576.0027643592927" width="1.2923076923076922" height="3.997235640707345" fill="#f85149" opacity="0.45"/>
<rect x="338.47981016412893" y="576.4272743452584" width="1.2923076923076922" height="3.572725654741589" fill="#f85149" opacity="0.45"/>
<rect x="340.63919319754797" y="574.8127226989809" width="1.2923076923076922" height="5.187277301019094" fill="#f85149" opacity="0.45"/>
<rect x="342.798576230967" y="568.0277914630328" width="1.2923076923076922" height="11.972208536967173" fill="#f85149" opacity="0.45"/>
<rect x="344.95795926438603" y="568.7519517518317" width="1.2923076923076922" height="11.248048248168288" fill="#3fb950" opacity="0.45"/>
<rect x="347.117342297805" y="571.1931175649378" width="1.2923076923076922" height="8.80688243506222" fill="#3fb950" opacity="0.45"/>
<rect x="349.2767253312241" y="573.1616275846845" width="1.2923076923076922" height="6.838372415315462" fill="#3fb950" opacity="0.45"/>
<rect x="351.4361083646431" y="564.4053102504954" width="1.2923076923076922" height="15.594689749504596" fill="#3fb950" opacity="0.45"/>
<rect x="353.5954913980621" y="569.5306875138813" width="1.2923076923076922" height="10.469312486118724" fill="#3fb950" opacity="0.45"/>
<rect x="355.75487443148114" y="571.9704529641684" width="1.2923076923076922" height="8.02954703583157" fill="#f85149" opacity="0.45"/>
<rect x="357.9142574649002" y="573.3748835036632" width="1.2923076923076922" height="6.625116496336773" fill="#f85149" opacity="0.45"/>
<rect x="360.0736404983192" y="574.161944756091" width="1.2923076923076922" height="5.838055243909025" fill="#f85149" opacity="0.45"/>
<rect x="362.2330235317382" y="574.6907584326864" width="1.2923076923076922" height="5.30924156731362" fill="#3fb950" opacity="0.45"/>
<rect x="364.3924065651573" y="573.9109557275367" width="1.2923076923076922" height="6.089044272463298" fill="#3fb950" opacity="0.45"/>
<rect x="366.55178959857625" y="574.0813332038392" width="1.2923076923076922" height="5.918666796160778" fill="#3fb950" opacity="0.45"/>
<rect x="368.7111726319953" y="572.6162869594681" width="1.2923076923076922" height="7.383713040531916" fill="#f85149" opacity="0.45"/>
<rect x="370.8705556654143" y="574.8043478624843" width="1.2923076923076922" height="5.195652137515708" fill="#3fb950" opacity="0.45"/>
<rect x="373.02993869883335" y="576.1217951989013" width="1.2923076923076922" height="3.8782048010987182" fill="#f85149" opacity="0.45"/>
<rect x="375.1893217322523" y="574.7724455969509" width="1.2923076923076922" height="5.227554403049112" fill="#f85149" opacity="0.45"/>
<rect x="377.34870476567136" y="574.4314905925144" width="1.2923076923076922" height="5.568509407485635" fill="#3fb950" opacity="0.45"/>
<rect x="379.5080877990904" y="573.4653916200082" width="1.2923076923076922" height="6.534608379991823" fill="#3fb950" opacity="0.45"/>
<rect x="381.6674708325094" y="572.3377334559218" width="1.2923076923076922" height="7.662266544078193" fill="#f85149" opacity="0.45"/>
<rect x="383.8268538659284" y="572.022733176075" width="1.2923076923076922" height="7.977266823924992" fill="#3fb950" opacity="0.45"/>
<rect x="385.9862368993475" y="573.0219253893503" width="1.2923076923076922" height="6.978074610649742" fill="#f85149" opacity="0.45"/>
<rect x="388.1456199327665" y="563.9450403328498" width="1.2923076923076922" height="16.05495966715023" fill="#3fb950" opacity="0.45"/>
<rect x="390.3050029661855" y="553.2778665830085" width="1.2923076923076922" height="26.722133416991483" fill="#f85149" opacity="0.45"/>
<rect x="392.46438599960453" y="565.484621221678" width="1.2923076923076922" height="14.515378778321974" fill="#3fb950" opacity="0.45"/>
<rect x="394.62376903302356" y="571.1515834705679" width="1.2923076923076922" height="8.848416529432143" fill="#f85149" opacity="0.45"/>
<rect x="396.7831520664426" y="573.0748030893928" width="1.2923076923076922" height="6.925196910607156" fill="#3fb950" opacity="0.45"/>
<rect x="398.9425350998616" y="574.8161129106817" width="1.2923076923076922" height="5.183887089318318" fill="#3fb950" opacity="0.45"/>
<rect x="401.1019181332806" y="573.143636923498" width="1.2923076923076922" height="6.856363076502021" fill="#3fb950" opacity="0.45"/>
<rect x="403.26130116669964" y="554.074454970481" width="1.2923076923076922" height="25.925545029518958" fill="#3fb950" opacity="0.45"/>
<rect x="405.42068420011867" y="564.1162733641509" width="1.2923076923076922" height="15.883726635849143" fill="#f85149" opacity="0.45"/>
<rect x="407.58006723353765" y="568.092350856343" width="1.2923076923076922" height="11.907649143656954" fill="#f85149" opacity="0.45"/>
<rect x="409.73945026695674" y="571.9669187151492" width="1.2923076923076922" height="8.033081284850823" fill="#f85149" opacity="0.45"/>
<rect x="411.89883330037577" y="568.8672009449899" width="1.2923076923076922" height="11.132799055010082" fill="#3fb950" opacity="0.45"/>
<rect x="414.05821633379475" y="568.7101749279066" width="1.2923076923076922" height="11.289825072093436" fill="#f85149" opacity="0.45"/>
<rect x="416.2175993672138" y="570.1667636476908" width="1.2923076923076922" height="9.8332363523092" fill="#3fb950" opacity="0.45"/>
<rect x="418.3769824006328" y="572.8670412605404" width="1.2923076923076922" height="7.132958739459582" fill="#f85149" opacity="0.45"/>
<rect x="420.53636543405185" y="574.7965185006477" width="1.2923076923076922" height="5.203481499352279" fill="#f85149" opacity="0.45"/>
<rect x="422.6957484674708" y="558.8895091658353" width="1.2923076923076922" height="21.110490834164693" fill="#3fb950" opacity="0.45"/>
<rect x="424.8551315008899" y="543.256397461616" width="1.2923076923076922" height="36.74360253838404" fill="#f85149" opacity="0.45"/>
<rect x="427.0145145343089" y="543.2223279679104" width="1.2923076923076922" height="36.77767203208964" fill="#3fb950" opacity="0.45"/>
<rect x="429.1738975677279" y="544.9175331773241" width="1.2923076923076922" height="35.08246682267588" fill="#3fb950" opacity="0.45"/>
<rect x="431.33328060114695" y="551.9326940632951" width="1.2923076923076922" height="28.067305936704884" fill="#f85149" opacity="0.45"/>
<rect x="433.492663634566" y="557.9898500738532" width="1.2923076923076922" height="22.010149926146823" fill="#f85149" opacity="0.45"/>
<rect x="435.65204666798496" y="559.0231837994933" width="1.2923076923076922" height="20.976816200506732" fill="#3fb950" opacity="0.45"/>
<rect x="437.811429701404" y="564.3066673598514" width="1.2923076923076922" height="15.693332640148583" fill="#f85149" opacity="0.45"/>
<rect x="439.9708127348231" y="561.585704387648" width="1.2923076923076922" height="18.41429561235202" fill="#3fb950" opacity="0.45"/>
<rect x="442.13019576824206" y="548.5019311895812" width="1.2923076923076922" height="31.498068810418772" fill="#3fb950" opacity="0.45"/>
<rect x="444.2895788016611" y="558.9645292694029" width="1.2923076923076922" height="21.035470730597126" fill="#f85149" opacity="0.45"/>
<rect x="446.4489618350801" y="553.1159326276645" width="1.2923076923076922" height="26.884067372335494" fill="#3fb950" opacity="0.45"/>
<rect x="448.60834486849916" y="539.5297432589786" width="1.2923076923076922" height="40.470256741021444" fill="#3fb950" opacity="0.45"/>
<rect x="450.76772790191814" y="534.1970696206677" width="1.2923076923076922" height="45.80293037933234" fill="#3fb950" opacity="0.45"/>
<rect x="452.92711093533717" y="519.3012122644436" width="1.2923076923076922" height="60.69878773555638" fill="#f85149" opacity="0.45"/>
<rect x="455.0864939687562" y="533.4822564202655" width="1.2923076923076922" height="46.51774357973454" fill="#f85149" opacity="0.45"/>
<rect x="457.24587700217523" y="536.9689191103531" width="1.2923076923076922" height="43.03108088964689" fill="#3fb950" opacity="0.45"/>
<rect x="459.4052600355942" y="542.2502961249279" width="1.2923076923076922" height="37.7497038750721" fill="#f85149" opacity="0.45"/>
<rect x="461.5646430690133" y="553.8375135815188" width="1.2923076923076922" height="26.162486418481194" fill="#3fb950" opacity="0.45"/>
<rect x="463.72402610243233" y="531.8115462239125" width="1.2923076923076922" height="48.1884537760875" fill="#3fb950" opacity="0.45"/>
<rect x="465.8834091358513" y="536.961724579661" width="1.2923076923076922" height="43.038275420339005" fill="#f85149" opacity="0.45"/>
<rect x="468.04279216927034" y="548.6392567691599" width="1.2923076923076922" height="31.360743230840058" fill="#3fb950" opacity="0.45"/>
<rect x="470.2021752026894" y="558.9401716252662" width="1.2923076923076922" height="21.059828374733797" fill="#f85149" opacity="0.45"/>
<rect x="472.3615582361084" y="564.5308314383501" width="1.2923076923076922" height="15.469168561649894" fill="#3fb950" opacity="0.45"/>
<rect x="474.5209412695274" y="563.6549651775009" width="1.2923076923076922" height="16.345034822499088" fill="#f85149" opacity="0.45"/>
<rect x="476.6803243029464" y="560.2801287937383" width="1.2923076923076922" height="19.7198712062617" fill="#f85149" opacity="0.45"/>
<rect x="478.83970733636545" y="564.2388497890491" width="1.2923076923076922" height="15.76115021095086" fill="#f85149" opacity="0.45"/>
<rect x="480.9990903697845" y="562.5589718841084" width="1.2923076923076922" height="17.44102811589164" fill="#3fb950" opacity="0.45"/>
<rect x="483.15847340320346" y="568.7654305773837" width="1.2923076923076922" height="11.234569422616346" fill="#3fb950" opacity="0.45"/>
<rect x="485.31785643662255" y="568.045269324692" width="1.2923076923076922" height="11.954730675308042" fill="#f85149" opacity="0.45"/>
<rect x="487.4772394700416" y="568.0435035338612" width="1.2923076923076922" height="11.956496466138788" fill="#f85149" opacity="0.45"/>
<rect x="489.63662250346056" y="565.7196341109867" width="1.2923076923076922" height="14.280365889013297" fill="#3fb950" opacity="0.45"/>
<rect x="491.7960055368796" y="559.3042386177699" width="1.2923076923076922" height="20.695761382230103" fill="#3fb950" opacity="0.45"/>
<rect x="493.9553885702986" y="564.7977145848992" width="1.2923076923076922" height="15.202285415100846" fill="#3fb950" opacity="0.45"/>
<rect x="496.11477160371766" y="559.5016297596891" width="1.2923076923076922" height="20.49837024031092" fill="#f85149" opacity="0.45"/>
<rect x="498.27415463713663" y="567.0910687682705" width="1.2923076923076922" height="12.908931231729525" fill="#f85149" opacity="0.45"/>
<rect x="500.43353767055567" y="566.9710803472294" width="1.2923076923076922" height="13.028919652770583" fill="#3fb950" opacity="0.45"/>
<rect x="502.5929207039747" y="570.1656580279033" width="1.2923076923076922" height="9.834341972096695" fill="#3fb950" opacity="0.45"/>
<rect x="504.75230373739373" y="546.210579525041" width="1.2923076923076922" height="33.789420474959" fill="#3fb950" opacity="0.45"/>
<rect x="506.91168677081276" y="561.7902747229521" width="1.2923076923076922" height="18.209725277047937" fill="#3fb950" opacity="0.45"/>
<rect x="509.07106980423174" y="554.1320265533247" width="1.2923076923076922" height="25.86797344667525" fill="#f85149" opacity="0.45"/>
<rect x="511.2304528376508" y="555.192591334238" width="1.2923076923076922" height="24.807408665761955" fill="#3fb950" opacity="0.45"/>
<rect x="513.3898358710697" y="564.0265147753338" width="1.2923076923076922" height="15.973485224666206" fill="#f85149" opacity="0.45"/>
<rect x="515.5492189044888" y="568.0781044985986" width="1.2923076923076922" height="11.921895501401423" fill="#3fb950" opacity="0.45"/>
<rect x="517.7086019379079" y="569.2515498589877" width="1.2923076923076922" height="10.748450141012313" fill="#3fb950" opacity="0.45"/>
<rect x="519.8679849713268" y="558.5918413766501" width="1.2923076923076922" height="21.40815862334989" fill="#3fb950" opacity="0.45"/>
<rect x="522.0273680047459" y="567.8412131225941" width="1.2923076923076922" height="12.158786877405873" fill="#f85149" opacity="0.45"/>
<rect x="524.186751038165" y="569.4000429986277" width="1.2923076923076922" height="10.599957001372331" fill="#f85149" opacity="0.45"/>
<rect x="526.346134071584" y="555.4043075209554" width="1.2923076923076922" height="24.5956924790446" fill="#3fb950" opacity="0.45"/>
<rect x="528.5055171050029" y="565.6209758830356" width="1.2923076923076922" height="14.379024116964388" fill="#f85149" opacity="0.45"/>
<rect x="530.664900138422" y="559.2976595798788" width="1.2923076923076922" height="20.70234042012123" fill="#3fb950" opacity="0.45"/>
<rect x="532.824283171841" y="563.7332941383578" width="1.2923076923076922" height="16.266705861642208" fill="#f85149" opacity="0.45"/>
<rect x="534.98366620526" y="556.7322222360241" width="1.2923076923076922" height="23.267777763975914" fill="#3fb950" opacity="0.45"/>
<rect x="537.143049238679" y="543.8489929967374" width="1.2923076923076922" height="36.151007003262634" fill="#3fb950" opacity="0.45"/>
<rect x="539.302432272098" y="545.7641471925647" width="1.2923076923076922" height="34.23585280743532" fill="#3fb950" opacity="0.45"/>
<rect x="541.461815305517" y="558.4868721802618" width="1.2923076923076922" height="21.5131278197382" fill="#f85149" opacity="0.45"/>
<rect x="543.6211983389361" y="562.8453560831701" width="1.2923076923076922" height="17.154643916829855" fill="#f85149" opacity="0.45"/>
<rect x="545.7805813723552" y="566.0610432330802" width="1.2923076923076922" height="13.938956766919773" fill="#3fb950" opacity="0.45"/>
<rect x="547.939964405774" y="561.7829654958767" width="1.2923076923076922" height="18.217034504123262" fill="#f85149" opacity="0.45"/>
<rect x="550.0993474391931" y="567.2845902409333" width="1.2923076923076922" height="12.715409759066688" fill="#f85149" opacity="0.45"/>
<rect x="552.2587304726122" y="561.3304455861747" width="1.2923076923076922" height="18.669554413825267" fill="#f85149" opacity="0.45"/>
<rect x="554.4181135060313" y="563.6586261260132" width="1.2923076923076922" height="16.341373873986754" fill="#3fb950" opacity="0.45"/>
<rect x="556.5774965394502" y="559.2064272759046" width="1.2923076923076922" height="20.793572724095384" fill="#3fb950" opacity="0.45"/>
<rect x="558.7368795728693" y="553.2152550276954" width="1.2923076923076922" height="26.784744972304566" fill="#3fb950" opacity="0.45"/>
<rect x="560.8962626062884" y="547.5551705607649" width="1.2923076923076922" height="32.44482943923515" fill="#f85149" opacity="0.45"/>
<rect x="563.0556456397073" y="558.5110717834516" width="1.2923076923076922" height="21.488928216548402" fill="#f85149" opacity="0.45"/>
<rect x="565.2150286731263" y="552.4065721733434" width="1.2923076923076922" height="27.59342782665658" fill="#f85149" opacity="0.45"/>
<rect x="567.3744117065454" y="563.8074486843354" width="1.2923076923076922" height="16.19255131566456" fill="#3fb950" opacity="0.45"/>
<rect x="569.5337947399644" y="510.45795640541894" width="1.2923076923076922" height="69.54204359458106" fill="#3fb950" opacity="0.45"/>
<rect x="571.6931777733834" y="523.5685185442118" width="1.2923076923076922" height="56.43148145578823" fill="#3fb950" opacity="0.45"/>
<rect x="573.8525608068024" y="546.7601785869058" width="1.2923076923076922" height="33.239821413094205" fill="#f85149" opacity="0.45"/>
<rect x="576.0119438402214" y="541.2436499804194" width="1.2923076923076922" height="38.75635001958062" fill="#3fb950" opacity="0.45"/>
<rect x="578.1713268736404" y="530.4653674434878" width="1.2923076923076922" height="49.53463255651218" fill="#3fb950" opacity="0.45"/>
<rect x="580.3307099070595" y="543.1576352067126" width="1.2923076923076922" height="36.8423647932874" fill="#f85149" opacity="0.45"/>
<rect x="582.4900929404786" y="557.3602889613488" width="1.2923076923076922" height="22.63971103865117" fill="#f85149" opacity="0.45"/>
<rect x="584.6494759738974" y="562.3319017193406" width="1.2923076923076922" height="17.668098280659365" fill="#f85149" opacity="0.45"/>
<rect x="586.8088590073165" y="555.9087388803549" width="1.2923076923076922" height="24.091261119645083" fill="#f85149" opacity="0.45"/>
<rect x="588.9682420407356" y="562.2132689828762" width="1.2923076923076922" height="17.78673101712377" fill="#3fb950" opacity="0.45"/>
<rect x="591.1276250741547" y="566.1160734908274" width="1.2923076923076922" height="13.883926509172625" fill="#3fb950" opacity="0.45"/>
<rect x="593.2870081075737" y="557.3136995572027" width="1.2923076923076922" height="22.686300442797346" fill="#f85149" opacity="0.45"/>
<rect x="595.4463911409927" y="561.7699314522298" width="1.2923076923076922" height="18.230068547770202" fill="#3fb950" opacity="0.45"/>
<rect x="597.6057741744116" y="568.1377019396538" width="1.2923076923076922" height="11.862298060346234" fill="#f85149" opacity="0.45"/>
<rect x="599.7651572078307" y="568.8987944638637" width="1.2923076923076922" height="11.101205536136263" fill="#f85149" opacity="0.45"/>
<rect x="601.9245402412497" y="570.0603254040215" width="1.2923076923076922" height="9.939674595978545" fill="#3fb950" opacity="0.45"/>
<rect x="604.0839232746687" y="568.5538904362778" width="1.2923076923076922" height="11.446109563722189" fill="#f85149" opacity="0.45"/>
<rect x="606.2433063080878" y="559.3004896464519" width="1.2923076923076922" height="20.699510353548135" fill="#3fb950" opacity="0.45"/>
<rect x="608.4026893415067" y="557.7311770544595" width="1.2923076923076922" height="22.268822945540478" fill="#f85149" opacity="0.45"/>
<rect x="610.5620723749258" y="568.2117117814734" width="1.2923076923076922" height="11.788288218526645" fill="#f85149" opacity="0.45"/>
<rect x="612.7214554083448" y="566.0706103784912" width="1.2923076923076922" height="13.92938962150879" fill="#3fb950" opacity="0.45"/>
<rect x="614.8808384417638" y="564.8206818688085" width="1.2923076923076922" height="15.179318131191508" fill="#3fb950" opacity="0.45"/>
<rect x="617.0402214751829" y="549.6283537001897" width="1.2923076923076922" height="30.371646299810322" fill="#3fb950" opacity="0.45"/>
<rect x="619.199604508602" y="562.8978216764403" width="1.2923076923076922" height="17.102178323559656" fill="#f85149" opacity="0.45"/>
<rect x="621.3589875420209" y="565.5576554774004" width="1.2923076923076922" height="14.44234452259957" fill="#3fb950" opacity="0.45"/>
<rect x="623.5183705754399" y="569.6398051184108" width="1.2923076923076922" height="10.360194881589223" fill="#f85149" opacity="0.45"/>
<rect x="625.677753608859" y="566.635803480604" width="1.2923076923076922" height="13.364196519396046" fill="#f85149" opacity="0.45"/>
<rect x="627.837136642278" y="570.8930651579237" width="1.2923076923076922" height="9.10693484207627" fill="#f85149" opacity="0.45"/>
<rect x="629.9965196756971" y="571.8542741968342" width="1.2923076923076922" height="8.14572580316576" fill="#3fb950" opacity="0.45"/>
<rect x="632.155902709116" y="569.2298762435873" width="1.2923076923076922" height="10.770123756412659" fill="#3fb950" opacity="0.45"/>
<rect x="634.315285742535" y="566.3857953728623" width="1.2923076923076922" height="13.614204627137724" fill="#3fb950" opacity="0.45"/>
<rect x="636.4746687759541" y="569.4399106612431" width="1.2923076923076922" height="10.560089338756939" fill="#3fb950" opacity="0.45"/>
<rect x="638.6340518093731" y="567.8010673879334" width="1.2923076923076922" height="12.198932612066642" fill="#3fb950" opacity="0.45"/>
<rect x="640.7934348427922" y="558.1473368769879" width="1.2923076923076922" height="21.85266312301212" fill="#3fb950" opacity="0.45"/>
<rect x="642.9528178762112" y="568.6880945404492" width="1.2923076923076922" height="11.311905459550758" fill="#f85149" opacity="0.45"/>
<rect x="645.1122009096301" y="569.9962307977993" width="1.2923076923076922" height="10.003769202200715" fill="#f85149" opacity="0.45"/>
<rect x="647.2715839430492" y="572.7516433621877" width="1.2923076923076922" height="7.248356637812321" fill="#3fb950" opacity="0.45"/>
<rect x="649.4309669764683" y="558.1115436033361" width="1.2923076923076922" height="21.888456396663855" fill="#3fb950" opacity="0.45"/>
<rect x="651.5903500098872" y="565.3093884874304" width="1.2923076923076922" height="14.690611512569603" fill="#3fb950" opacity="0.45"/>
<rect x="653.7497330433063" y="569.329762122943" width="1.2923076923076922" height="10.670237877057048" fill="#f85149" opacity="0.45"/>
<rect x="655.9091160767254" y="561.8767397917869" width="1.2923076923076922" height="18.123260208213082" fill="#3fb950" opacity="0.45"/>
<rect x="658.0684991101443" y="567.1374421164389" width="1.2923076923076922" height="12.862557883561067" fill="#f85149" opacity="0.45"/>
<rect x="660.2278821435633" y="557.9243457690599" width="1.2923076923076922" height="22.07565423094013" fill="#3fb950" opacity="0.45"/>
<rect x="662.3872651769824" y="552.5924930100966" width="1.2923076923076922" height="27.407506989903368" fill="#3fb950" opacity="0.45"/>
<rect x="664.5466482104014" y="535.6287805615541" width="1.2923076923076922" height="44.371219438445905" fill="#3fb950" opacity="0.45"/>
<rect x="666.7060312438205" y="539.4903170440709" width="1.2923076923076922" height="40.509682955929065" fill="#3fb950" opacity="0.45"/>
<rect x="668.8654142772394" y="555.081828636816" width="1.2923076923076922" height="24.918171363184" fill="#f85149" opacity="0.45"/>
<rect x="671.0247973106584" y="532.2883190839594" width="1.2923076923076922" height="47.711680916040564" fill="#3fb950" opacity="0.45"/>
<rect x="673.1841803440775" y="545.7161327525404" width="1.2923076923076922" height="34.283867247459625" fill="#f85149" opacity="0.45"/>
<rect x="675.3435633774965" y="546.172492323724" width="1.2923076923076922" height="33.827507676276014" fill="#f85149" opacity="0.45"/>
<rect x="677.5029464109156" y="555.4051757459031" width="1.2923076923076922" height="24.59482425409692" fill="#3fb950" opacity="0.45"/>
<rect x="679.6623294443345" y="564.4738920192931" width="1.2923076923076922" height="15.526107980706911" fill="#f85149" opacity="0.45"/>
<rect x="681.8217124777535" y="538.0396631952812" width="1.2923076923076922" height="41.96033680471885" fill="#3fb950" opacity="0.45"/>
<rect x="683.9810955111726" y="554.0540236769529" width="1.2923076923076922" height="25.945976323047148" fill="#3fb950" opacity="0.45"/>
<rect x="686.1404785445917" y="562.5021318241276" width="1.2923076923076922" height="17.49786817587244" fill="#3fb950" opacity="0.45"/>
<rect x="688.2998615780106" y="570.4550343355216" width="1.2923076923076922" height="9.544965664478354" fill="#f85149" opacity="0.45"/>
<rect x="690.4592446114297" y="566.173983161266" width="1.2923076923076922" height="13.826016838733949" fill="#f85149" opacity="0.45"/>
<rect x="692.6186276448487" y="571.1694541006557" width="1.2923076923076922" height="8.830545899344315" fill="#f85149" opacity="0.45"/>
<rect x="694.7780106782677" y="568.4224597173273" width="1.2923076923076922" height="11.577540282672658" fill="#f85149" opacity="0.45"/>
<rect x="696.9373937116868" y="561.1160827137297" width="1.2923076923076922" height="18.883917286270275" fill="#3fb950" opacity="0.45"/>
<rect x="699.0967767451058" y="569.0669580332335" width="1.2923076923076922" height="10.933041966766496" fill="#f85149" opacity="0.45"/>
<rect x="701.2561597785248" y="569.7109468838095" width="1.2923076923076922" height="10.28905311619053" fill="#f85149" opacity="0.45"/>
<rect x="703.4155428119439" y="570.9147347722875" width="1.2923076923076922" height="9.085265227712512" fill="#f85149" opacity="0.45"/>
<rect x="705.5749258453628" y="569.038539336922" width="1.2923076923076922" height="10.961460663078014" fill="#f85149" opacity="0.45"/>
<rect x="707.7343088787818" y="571.2086589248701" width="1.2923076923076922" height="8.791341075129935" fill="#f85149" opacity="0.45"/>
<rect x="709.8936919122009" y="568.5504828867518" width="1.2923076923076922" height="11.449517113248248" fill="#f85149" opacity="0.45"/>
<rect x="712.0530749456199" y="570.3118399020526" width="1.2923076923076922" height="9.688160097947389" fill="#3fb950" opacity="0.45"/>
<rect x="714.212457979039" y="571.872108150753" width="1.2923076923076922" height="8.127891849247021" fill="#f85149" opacity="0.45"/>
<rect x="716.371841012458" y="570.9459888698876" width="1.2923076923076922" height="9.054011130112372" fill="#f85149" opacity="0.45"/>
<rect x="718.5312240458769" y="572.509338583629" width="1.2923076923076922" height="7.49066141637104" fill="#3fb950" opacity="0.45"/>
<rect x="720.690607079296" y="570.8417885393708" width="1.2923076923076922" height="9.158211460629218" fill="#3fb950" opacity="0.45"/>
<rect x="722.849990112715" y="571.5414571493061" width="1.2923076923076922" height="8.458542850693902" fill="#3fb950" opacity="0.45"/>
<rect x="725.0093731461341" y="570.7938247791437" width="1.2923076923076922" height="9.206175220856267" fill="#3fb950" opacity="0.45"/>
<rect x="727.168756179553" y="566.9590412280232" width="1.2923076923076922" height="13.040958771976761" fill="#3fb950" opacity="0.45"/>
<rect x="729.328139212972" y="571.5577460362479" width="1.2923076923076922" height="8.442253963752137" fill="#f85149" opacity="0.45"/>
<rect x="731.4875222463911" y="572.5546143140832" width="1.2923076923076922" height="7.44538568591679" fill="#f85149" opacity="0.45"/>
<rect x="733.6469052798102" y="572.4314063922375" width="1.2923076923076922" height="7.568593607762523" fill="#f85149" opacity="0.45"/>
<rect x="735.8062883132291" y="567.4406446729561" width="1.2923076923076922" height="12.559355327043932" fill="#3fb950" opacity="0.45"/>
<rect x="737.9656713466482" y="559.0649539550241" width="1.2923076923076922" height="20.935046044975934" fill="#3fb950" opacity="0.45"/>
<rect x="740.1250543800672" y="565.9303193639334" width="1.2923076923076922" height="14.06968063606655" fill="#f85149" opacity="0.45"/>
<rect x="742.2844374134862" y="567.8044442628452" width="1.2923076923076922" height="12.195555737154791" fill="#3fb950" opacity="0.45"/>
<rect x="744.4438204469053" y="567.764809994033" width="1.2923076923076922" height="12.235190005966956" fill="#f85149" opacity="0.45"/>
<rect x="746.6032034803243" y="565.6771597730099" width="1.2923076923076922" height="14.322840226990138" fill="#3fb950" opacity="0.45"/>
<rect x="748.7625865137433" y="566.0848420657682" width="1.2923076923076922" height="13.915157934231843" fill="#f85149" opacity="0.45"/>
<rect x="750.9219695471623" y="561.5520116582246" width="1.2923076923076922" height="18.447988341775385" fill="#3fb950" opacity="0.45"/>
<rect x="753.0813525805813" y="560.7941232975122" width="1.2923076923076922" height="19.205876702487785" fill="#3fb950" opacity="0.45"/>
<rect x="755.2407356140003" y="560.634399914904" width="1.2923076923076922" height="19.365600085096048" fill="#3fb950" opacity="0.45"/>
<rect x="757.4001186474194" y="560.8319744376684" width="1.2923076923076922" height="19.16802556233165" fill="#3fb950" opacity="0.45"/>
<rect x="759.5595016808384" y="563.4521813050501" width="1.2923076923076922" height="16.54781869494991" fill="#f85149" opacity="0.45"/>
<rect x="761.7188847142575" y="562.8248340994785" width="1.2923076923076922" height="17.175165900521506" fill="#3fb950" opacity="0.45"/>
<rect x="763.8782677476764" y="566.7374504829143" width="1.2923076923076922" height="13.262549517085745" fill="#3fb950" opacity="0.45"/>
<rect x="766.0376507810954" y="559.6962495169056" width="1.2923076923076922" height="20.303750483094404" fill="#3fb950" opacity="0.45"/>
<rect x="768.1970338145145" y="565.238751519486" width="1.2923076923076922" height="14.761248480514041" fill="#f85149" opacity="0.45"/>
<rect x="770.3564168479336" y="566.6588794593415" width="1.2923076923076922" height="13.341120540658494" fill="#f85149" opacity="0.45"/>
<rect x="772.5157998813526" y="569.7309527337763" width="1.2923076923076922" height="10.269047266223652" fill="#3fb950" opacity="0.45"/>
<rect x="774.6751829147715" y="569.3646264892582" width="1.2923076923076922" height="10.635373510741829" fill="#f85149" opacity="0.45"/>
<rect x="776.8345659481906" y="568.1912071356071" width="1.2923076923076922" height="11.808792864392899" fill="#f85149" opacity="0.45"/>
<rect x="778.9939489816096" y="571.5156597988237" width="1.2923076923076922" height="8.484340201176337" fill="#f85149" opacity="0.45"/>
<rect x="781.1533320150287" y="573.7252356094541" width="1.2923076923076922" height="6.274764390545897" fill="#3fb950" opacity="0.45"/>
<rect x="783.3127150484477" y="573.9393630875777" width="1.2923076923076922" height="6.0606369124222965" fill="#3fb950" opacity="0.45"/>
<rect x="785.4720980818666" y="572.4825156340917" width="1.2923076923076922" height="7.517484365908331" fill="#f85149" opacity="0.45"/>
<rect x="787.6314811152857" y="574.094615311757" width="1.2923076923076922" height="5.905384688242975" fill="#3fb950" opacity="0.45"/>
<rect x="789.7908641487047" y="574.834804420117" width="1.2923076923076922" height="5.165195579882948" fill="#3fb950" opacity="0.45"/>
<rect x="791.9502471821237" y="575.1573453203241" width="1.2923076923076922" height="4.8426546796758885" fill="#f85149" opacity="0.45"/>
<rect x="794.1096302155428" y="574.2483097990103" width="1.2923076923076922" height="5.751690200989742" fill="#3fb950" opacity="0.45"/>
<rect x="796.2690132489618" y="575.4782731359317" width="1.2923076923076922" height="4.5217268640683415" fill="#3fb950" opacity="0.45"/>
<rect x="798.4283962823808" y="570.5490020148687" width="1.2923076923076922" height="9.450997985131266" fill="#3fb950" opacity="0.45"/>
<rect x="800.5877793157999" y="567.058488327029" width="1.2923076923076922" height="12.941511672971046" fill="#3fb950" opacity="0.45"/>
<rect x="802.7471623492188" y="550.6691980384153" width="1.2923076923076922" height="29.33080196158471" fill="#3fb950" opacity="0.45"/>
<rect x="804.9065453826379" y="560.2394422522935" width="1.2923076923076922" height="19.760557747706457" fill="#f85149" opacity="0.45"/>
<rect x="807.065928416057" y="566.8280366194733" width="1.2923076923076922" height="13.171963380526677" fill="#f85149" opacity="0.45"/>
<rect x="809.225311449476" y="568.3542267055554" width="1.2923076923076922" height="11.645773294444552" fill="#f85149" opacity="0.45"/>
<rect x="811.3846944828949" y="564.9386317616888" width="1.2923076923076922" height="15.061368238311161" fill="#f85149" opacity="0.45"/>
<rect x="813.544077516314" y="569.5689841027818" width="1.2923076923076922" height="10.43101589721823" fill="#3fb950" opacity="0.45"/>
<rect x="815.703460549733" y="572.4201521430494" width="1.2923076923076922" height="7.5798478569505505" fill="#3fb950" opacity="0.45"/>
<rect x="817.8628435831521" y="572.9619678549988" width="1.2923076923076922" height="7.038032145001239" fill="#f85149" opacity="0.45"/>
<rect x="820.0222266165711" y="564.5205487742226" width="1.2923076923076922" height="15.479451225777439" fill="#f85149" opacity="0.45"/>
<rect x="822.18160964999" y="571.2421542698199" width="1.2923076923076922" height="8.757845730180065" fill="#3fb950" opacity="0.45"/>
<rect x="824.3409926834091" y="570.8711994927654" width="1.2923076923076922" height="9.128800507234587" fill="#3fb950" opacity="0.45"/>
<rect x="826.5003757168281" y="571.8055322349835" width="1.2923076923076922" height="8.194467765016498" fill="#f85149" opacity="0.45"/>
<rect x="828.6597587502472" y="570.2629025562467" width="1.2923076923076922" height="9.737097443753328" fill="#f85149" opacity="0.45"/>
<rect x="830.8191417836662" y="571.1360627826581" width="1.2923076923076922" height="8.863937217341913" fill="#3fb950" opacity="0.45"/>
<rect x="832.9785248170851" y="568.3313614480801" width="1.2923076923076922" height="11.668638551919912" fill="#f85149" opacity="0.45"/>
<rect x="835.1379078505042" y="571.4325302608556" width="1.2923076923076922" height="8.567469739144371" fill="#3fb950" opacity="0.45"/>
<rect x="837.2972908839233" y="568.7028056852819" width="1.2923076923076922" height="11.297194314718126" fill="#f85149" opacity="0.45"/>
<rect x="839.4566739173422" y="571.8338429033062" width="1.2923076923076922" height="8.166157096693837" fill="#f85149" opacity="0.45"/>
<rect x="841.6160569507613" y="569.2569719304547" width="1.2923076923076922" height="10.74302806954529" fill="#f85149" opacity="0.45"/>
<rect x="843.7754399841804" y="571.297227205291" width="1.2923076923076922" height="8.702772794708949" fill="#3fb950" opacity="0.45"/>
<rect x="845.9348230175993" y="572.6438267614009" width="1.2923076923076922" height="7.356173238599126" fill="#3fb950" opacity="0.45"/>
<rect x="848.0942060510184" y="571.4265400421879" width="1.2923076923076922" height="8.573459957812133" fill="#3fb950" opacity="0.45"/>
<rect x="850.2535890844373" y="571.3905940623049" width="1.2923076923076922" height="8.6094059376951" fill="#3fb950" opacity="0.45"/>
<rect x="852.4129721178564" y="574.1205213570678" width="1.2923076923076922" height="5.879478642932213" fill="#f85149" opacity="0.45"/>
<rect x="854.5723551512755" y="569.4006038105947" width="1.2923076923076922" height="10.599396189405297" fill="#f85149" opacity="0.45"/>
<rect x="856.7317381846944" y="574.1398990442844" width="1.2923076923076922" height="5.860100955715552" fill="#3fb950" opacity="0.45"/>
<rect x="858.8911212181134" y="568.5223329267336" width="1.2923076923076922" height="11.477667073266389" fill="#f85149" opacity="0.45"/>
<rect x="861.0505042515325" y="571.2957928336608" width="1.2923076923076922" height="8.704207166339188" fill="#f85149" opacity="0.45"/>
<rect x="863.2098872849515" y="572.4691695095878" width="1.2923076923076922" height="7.5308304904122" fill="#3fb950" opacity="0.45"/>
<rect x="865.3692703183706" y="573.7840975266097" width="1.2923076923076922" height="6.215902473390315" fill="#3fb950" opacity="0.45"/>
<rect x="867.5286533517896" y="575.6820145898149" width="1.2923076923076922" height="4.317985410185088" fill="#f85149" opacity="0.45"/>
<rect x="869.6880363852085" y="571.4161420148376" width="1.2923076923076922" height="8.583857985162354" fill="#3fb950" opacity="0.45"/>
<rect x="871.8474194186276" y="569.6105748785038" width="1.2923076923076922" height="10.389425121496174" fill="#3fb950" opacity="0.45"/>
<rect x="874.0068024520466" y="563.0958929945858" width="1.2923076923076922" height="16.904107005414176" fill="#3fb950" opacity="0.45"/>
<rect x="876.1661854854657" y="565.8175281409423" width="1.2923076923076922" height="14.182471859057728" fill="#f85149" opacity="0.45"/>
<rect x="878.3255685188847" y="569.2400968916472" width="1.2923076923076922" height="10.759903108352773" fill="#3fb950" opacity="0.45"/>
<rect x="880.4849515523036" y="569.7596468347756" width="1.2923076923076922" height="10.240353165224406" fill="#3fb950" opacity="0.45"/>
<rect x="882.6443345857227" y="570.4922286388316" width="1.2923076923076922" height="9.507771361168352" fill="#3fb950" opacity="0.45"/>
<rect x="884.8037176191418" y="566.5406654980438" width="1.2923076923076922" height="13.459334501956164" fill="#3fb950" opacity="0.45"/>
<rect x="886.9631006525607" y="567.052782848801" width="1.2923076923076922" height="12.94721715119897" fill="#3fb950" opacity="0.45"/>
<rect x="889.1224836859798" y="562.0851844642234" width="1.2923076923076922" height="17.914815535776597" fill="#3fb950" opacity="0.45"/>
<rect x="891.2818667193989" y="569.8182380151195" width="1.2923076923076922" height="10.181761984880495" fill="#f85149" opacity="0.45"/>
<rect x="893.4412497528178" y="554.1439809839223" width="1.2923076923076922" height="25.856019016077653" fill="#3fb950" opacity="0.45"/>
<rect x="895.6006327862369" y="551.8011639852683" width="1.2923076923076922" height="28.198836014731683" fill="#f85149" opacity="0.45"/>
<rect x="897.7600158196559" y="557.5760548639705" width="1.2923076923076922" height="22.423945136029488" fill="#f85149" opacity="0.45"/>
<rect x="899.9193988530749" y="563.3604021927372" width="1.2923076923076922" height="16.639597807262817" fill="#f85149" opacity="0.45"/>
<rect x="902.078781886494" y="557.149865776301" width="1.2923076923076922" height="22.850134223699" fill="#3fb950" opacity="0.45"/>
<rect x="904.238164919913" y="560.9819266219978" width="1.2923076923076922" height="19.018073378002214" fill="#3fb950" opacity="0.45"/>
<rect x="906.3975479533319" y="563.9194056911903" width="1.2923076923076922" height="16.080594308809737" fill="#f85149" opacity="0.45"/>
<rect x="908.556930986751" y="557.21006337285" width="1.2923076923076922" height="22.78993662715004" fill="#3fb950" opacity="0.45"/>
<rect x="910.71631402017" y="562.2351486516627" width="1.2923076923076922" height="17.764851348337288" fill="#f85149" opacity="0.45"/>
<rect x="912.8756970535891" y="550.0663398443495" width="1.2923076923076922" height="29.9336601556505" fill="#3fb950" opacity="0.45"/>
<rect x="915.035080087008" y="561.8276797475245" width="1.2923076923076922" height="18.172320252475515" fill="#f85149" opacity="0.45"/>
<rect x="917.194463120427" y="561.0043190903118" width="1.2923076923076922" height="18.99568090968819" fill="#3fb950" opacity="0.45"/>
<rect x="919.3538461538461" y="555.2025252413398" width="1.2923076923076922" height="24.7974747586602" fill="#3fb950" opacity="0.45"/>
<polyline points="80.0,305.09160003933334 82.15938303341902,342.89104483256807 84.31876606683805,333.62408417358154 86.47814910025707,322.65005181425533 88.63753213367609,320.45524534239007 90.79691516709512,333.62408417358154 92.95629820051414,344.59811653290774 95.11568123393316,350.450933791215 97.27506426735218,348.7438620908754 99.43444730077121,353.8650771918942 101.59383033419023,348.98772947663815 103.75321336760925,349.47546424816375 105.91259640102828,353.1334750346058 108.0719794344473,346.0613208474845 110.23136246786632,352.40187287731743 112.39074550128535,363.37590523664363 114.55012853470437,363.8636400081692 116.70951156812339,358.0108227498619 118.86889460154242,373.13060066715576 121.02827763496143,367.5216507946113 123.18766066838046,360.2056292217272 125.34704370179949,362.1565683078296 127.5064267352185,358.4985575213875 129.66580976863753,356.05988366375954 131.82519280205656,343.62264698985643 133.98457583547557,352.40187287731743 136.1439588688946,353.3773424203686 138.30334190231363,349.47546424816375 140.46272493573264,316.3094997844224 142.62210796915167,316.3094997844224 144.7814910025707,326.795797372223 146.9408740359897,291.19115905085357 149.10025706940874,252.17237732880497 151.25964010282777,209.25171743455138 153.41902313624678,161.94144459656744 155.5784061696658,109.99769142909011 157.73778920308484,167.30652708334912 159.89717223650385,218.76254547930077 162.05655526992285,265.0973487742335 164.2159383033419,223.3960258087941 166.37532133676092,177.54895728538685 168.53470437017995,203.64276756200687 170.69408740359899,188.5229896447131 172.853470437018,139.26177772062658 175.012853470437,87.56189193891217 177.17223650385603,72.19824663585544 179.33161953727506,133.1650930765565 181.4910025706941,118.53304993078828 183.65038560411313,73.66145095043234 185.80976863753213,134.38443000537052 187.96915167095113,111.94863051519258 190.12853470437017,97.80432214094989 192.2879177377892,131.21415399045412 194.44730077120823,168.03812924063755 196.60668380462727,219.4941476365892 198.7660668380463,239.24740588337627 200.9254498714653,251.19690778575367 203.0848329048843,249.9775708569397 205.24421593830334,240.7106101979531 207.40359897172237,254.61105118643297 209.56298200514138,279.2416571484762 211.7223650385604,283.14353532068105 213.88174807197942,293.14209813695606 216.04113110539845,307.04253912543584 218.20051413881748,297.7755784664493 220.35989717223651,296.80010892339806 222.51928020565555,286.3138113355975 224.67866323907455,305.09160003933334 226.83804627249359,315.09016285560836 228.9974293059126,290.2156895078024 231.15681233933162,293.6298329084816 233.31619537275066,292.8982307511932 235.47557840616966,289.2402199647512 237.6349614395887,281.92419839186704 239.7943444730077,287.77701565017435 241.95372750642673,290.4595568935652 244.11311053984574,301.67745663865423 246.2724935732648,292.8982307511932 248.4318766066838,306.55480435391024 250.59125964010283,306.06706958238465 252.75064267352187,279.72939192000183 254.91002570694087,275.5836463620341 257.0694087403599,273.8765746616946 259.2287917737789,269.2430943322013 261.38817480719797,259.4883989016891 263.54755784061695,253.391714257619 265.706940874036,269.97469648948965 267.866323907455,268.2676247891501 270.025706940874,279.2416571484762 272.1850899742931,272.1695029613549 274.34447300771205,268.0237574033872 276.50385604113114,260.9516032162659 278.6632390745501,258.0251945871122 280.82262210796915,261.92707275931707 282.9820051413882,248.2704991566001 285.14138817480716,204.8621044908209 287.30077120822625,203.39890017624413 289.4601542416452,185.10884624403383 291.61953727506426,223.6398931945568 293.7789203084833,235.34552771117143 295.93830334190227,228.0295061382873 298.09768637532136,245.58795791320927 300.25706940874034,223.6398931945568 302.4164524421594,224.615362737608 304.5758354755784,232.90685385354337 306.73521850899743,249.4898360854141 308.89460154241647,245.10022314168356 311.05398457583544,233.88232339659464 313.21336760925453,228.76110829557572 315.3727506426735,241.1983449694788 317.5321336760926,250.46530562846533 319.6915167095116,265.0973487742335 321.8508997429306,274.85204420474577 324.01028277634964,276.3152485193225 326.1696658097686,275.09591159050854 328.32904884318765,265.5850835457592 330.4884318766067,282.16806577762986 332.64781491002566,289.7279547362768 334.80719794344475,287.0454134928859 336.9665809768638,288.0208830359371 339.12596401028276,291.4350264366164 341.2853470437018,330.4538081586651 343.4447300771208,348.2561273193498 345.60411311053986,342.89104483256807 347.76349614395883,332.40474724476746 349.9228791773779,325.8203278291718 352.0822622107969,306.06706958238465 354.24164524421593,304.8477326535706 356.40102827763496,307.5302738969615 358.560411311054,310.9444172976407 360.71979434447303,311.1882846834035 362.879177377892,304.11613049628215 365.0385604113111,303.14066095323096 367.1979434447301,300.70198709560293 369.3573264781491,310.2128151403523 371.51670951156814,307.04253912543584 373.67609254498717,314.11469331255716 375.83547557840615,314.6024280840828 377.9948586118252,309.7250803688267 380.1542416452442,296.3123741518725 382.31362467866325,296.5562415376353 384.4730077120822,294.8491698372956 386.6323907455013,301.1897218671286 388.79177377892034,288.9963525789883 390.9511568123393,307.77414128272426 393.11053984575835,303.8722631105194 395.2699228791774,313.8708259267944 397.4293059125964,312.89535638374315 399.5886889460154,312.89535638374315 401.7480719794344,309.48121298306387 403.90745501285346,295.82463938034687 406.0668380462725,305.8232021966219 408.22622107969147,311.91988684069196 410.38560411311056,312.40762161221755 412.5449871465296,303.3845283389938 414.70437017994857,316.3094997844224 416.8637532133676,308.2618760542499 419.02313624678663,315.8217650128968 421.18251928020567,317.0411019417108 423.34190231362464,280.46099407729025 425.50128534704373,281.43646362034144 427.6606683804627,263.87801184541956 429.82005141388174,248.7582339281257 431.9794344473008,254.12331641490738 434.1388174807198,256.56199027253547 436.2982005141388,249.00210131388846 438.4575835475578,251.19690778575367 440.6169665809769,244.12475359863237 442.7763496143959,234.37005816812024 444.9357326478149,236.0771298684599 447.09511568123395,236.0771298684599 449.254498714653,208.76398266302579 451.41388174807196,161.45370982504176 453.573264781491,170.96453786979112 455.73264781491,171.20840525555397 457.89203084832906,171.20840525555397 460.05141388174803,174.13481388470765 462.2107969151671,168.03812924063755 464.37017994858616,148.28487099385038 466.52956298200513,189.25459180200144 468.68894601542416,175.3541508135216 470.8483290488432,192.18100043115513 473.00771208226223,191.9371330453923 475.1670951156812,192.42486781691795 477.32647814910024,201.6918284759045 479.4858611825193,211.20265652065385 481.6452442159383,210.47105436336543 483.8046272493573,207.54464573421177 485.96401028277637,213.64133037828185 488.1233933161954,219.73801502235196 490.2827763496144,210.2271869776026 492.4421593830334,209.98331959183983 494.60154241645245,208.52011527726296 496.7609254498715,215.8361368501471 498.92030848329046,221.20121933692883 501.0796915167095,214.86066730709592 503.2390745501285,213.8851977640447 505.39845758354755,190.4739287308155 507.5578406169666,190.23006134505263 509.71722365038556,202.17956324743008 511.8766066838046,199.25315461827643 514.0359897172236,214.3729325355703 516.1953727506427,207.05691096268617 518.3547557840618,207.05691096268617 520.5141388174807,194.86354167454596 522.6735218508998,204.8621044908209 524.8329048843189,213.3974629925191 526.9922879177378,188.76685703047585 529.1516709511568,193.88807213149474 531.3110539845759,186.81591794437344 533.4704370179949,203.64276756200687 535.6298200514138,185.3527136297966 537.7892030848329,152.91835132334364 539.9485861182519,142.67592112130586 542.1079691516709,156.0886273382601 544.26735218509,169.98906832673993 546.4267352185091,165.84332276877225 548.5861182519279,168.52586401216314 550.745501285347,173.89094649894483 552.9048843187661,185.8404484013222 555.0642673521852,180.9631006860661 557.2236503856041,167.0626596975863 559.3830334190231,153.89382086639486 561.5424164524422,159.50277073893938 563.7017994858612,173.64707911318195 565.8611825192802,186.5720505586106 568.0205655526993,137.06697124876135 570.1799485861183,121.21559117417911 572.3393316195372,106.58354802841083 574.4987146529563,115.11890653010903 576.6580976863753,110.4854262006157 578.8174807197943,94.14631135450787 580.9768637532134,112.92410005824377 583.1362467866325,115.11890653010903 585.2956298200513,121.94719333146757 587.4550128534704,133.40896046231933 589.6143958868895,131.94575614774254 591.7737789203086,126.09293888943519 593.9331619537276,150.72354485147844 596.0925449871465,132.6773583050309 598.2519280205655,139.26177772062658 600.4113110539846,155.35702518097165 602.5706940874036,141.21271680672908 604.7300771208226,141.45658419249185 606.8894601542416,122.1910607172303 609.0488431876606,162.67304675385577 611.2082262210797,165.1117206114839 613.3676092544987,162.91691413961863 615.5269922879177,145.11459497893392 617.6863753213368,138.2863081775754 619.8457583547558,172.9154769558936 622.0051413881748,158.28343381012536 624.1645244215938,162.91691413961863 626.3239074550129,185.3527136297966 628.4832904884319,186.5720505586106 630.642673521851,180.47536591454048 632.8020565552699,179.74376375725205 634.9614395886889,173.89094649894483 637.120822622108,166.08719015453508 639.280205655527,164.86785322572103 641.4395886889461,154.1376882521577 643.598971722365,162.91691413961863 645.758354755784,179.49989637148929 647.9177377892031,174.37868127047042 650.0771208226222,149.01647315113883 652.236503856041,147.79713622232478 654.3958868894601,155.84475995249736 656.5552699228792,142.18818634978027 658.7146529562982,148.28487099385038 660.8740359897172,130.23868444740287 663.0334190231363,117.06984561621142 665.1928020565553,99.75526122705239 667.3521850899743,96.09725044061025 669.5115681233933,104.63260894230844 671.6709511568123,82.19680945213041 673.8303341902314,142.18818634978027 675.9897172236504,167.79426185487472 678.1491002570694,148.04100360808764 680.3084832904884,160.7221076677534 682.4678663239074,130.72641921892853 684.6272493573265,120.72785640265352 686.7866323907456,119.99625424536508 688.9460154241644,126.09293888943519 691.1053984575835,146.57779929351074 693.2647814910026,155.84475995249736 695.4241645244216,164.6239858399583 697.5835475578407,133.40896046231933 699.7429305912597,143.65139066435714 701.9023136246786,154.86929040944605 704.0616966580977,166.57492492606067 706.2210796915167,168.7697313979259 708.3804627249357,179.74376375725205 710.5398457583548,198.27768507522524 712.6992287917737,183.4017745436942 714.8586118251928,190.96166350234108 717.0179948586119,194.37580690302036 719.1773778920308,188.76685703047585 721.3367609254499,186.32818317284784 723.4961439588689,181.69470284335455 725.655526992288,180.71923330030336 727.8149100257069,179.49989637148929 729.9742930591259,183.64564192945696 732.133676092545,187.0597853301362 734.2930591259641,192.91260258844355 736.4524421593829,172.67160957013076 738.611825192802,151.69901439452963 740.7712082262211,153.1622187091064 742.9305912596401,152.91835132334364 745.0899742930592,159.01503596741378 747.2493573264782,156.0886273382601 749.4087403598971,171.69614002707957 751.5681233933162,163.648516296907 753.7275064267352,151.69901439452963 755.8868894601542,142.67592112130586 758.0462724935733,133.1650930765565 760.2056555269922,149.74807530842725 762.3650385604113,128.53161274706326 764.5244215938303,125.6052041179096 766.6838046272493,116.58211084468581 768.8431876606684,129.26321490435163 771.0025706940875,140.48111464944066 773.1619537275064,137.55470602028703 775.3213367609254,153.89382086639486 777.4807197943445,163.1607815253814 779.6401028277635,185.3527136297966 781.7994858611826,173.15934434165635 783.9588688946016,171.69614002707957 786.1182519280205,187.79138748742463 788.2776349614396,181.69470284335455 790.4370179948586,175.3541508135216 792.5964010282776,178.28055944267527 794.7557840616967,174.13481388470765 796.9151670951156,173.4032117274192 799.0745501285347,165.35558799724663 801.2339331619538,144.62686020740833 803.3933161953727,114.38730437282057 805.5526992287918,117.06984561621142 807.7120822622109,125.117469346384 809.8714652956298,140.72498203520348 812.0308483290488,176.3296203565729 814.1902313624679,171.20840525555397 816.3496143958869,166.33105754029793 818.508997429306,171.69614002707957 820.6683804627249,186.32818317284784 822.8277634961439,174.37868127047042 824.987146529563,168.7697313979259 827.146529562982,179.49989637148929 829.3059125964011,179.74376375725205 831.46529562982,169.98906832673993 833.624678663239,196.08287860335997 835.7840616966581,195.83901121759715 837.9434447300772,220.71348456540315 840.1028277634961,230.7120473816781 842.2622107969152,256.0742555010098 844.4215938303342,247.53889699931165 846.5809768637532,240.7106101979531 848.7403598971723,236.32099725422262 850.8997429305912,223.8837605803197 853.0591259640103,225.5908322806593 855.2185089974294,246.3195600704976 857.3778920308483,239.49127326913916 859.5372750642673,262.90254230236826 861.6966580976864,279.48552453423895 863.8560411311054,266.56055308881037 866.0154241645245,252.9039794860933 868.1748071979434,258.0251945871122 870.3341902313624,241.92994712676713 872.4935732647815,220.71348456540315 874.6529562982005,201.6918284759045 876.8123393316196,224.85923012337088 878.9717223650385,212.90972822099351 881.1311053984575,205.5937066481094 883.2904884318766,204.1305023335325 885.4498714652957,195.10740906030878 887.6092544987146,189.74232657352704 889.7686375321337,187.79138748742463 891.9280205655527,188.5229896447131 894.0874035989717,139.26177772062658 896.2467866323908,147.79713622232478 898.4061696658098,151.69901439452963 900.5655526992288,152.91835132334364 902.7249357326479,135.3598995484217 904.8843187660668,134.8721647768961 907.0437017994858,142.4320537355431 909.2030848329049,124.6297345748584 911.3624678663239,133.65282784808215 913.521850899743,105.12034371383403 915.6812339331619,126.58067366096078 917.8406169665809,126.33680627519803 920.0,99.26752645552679" stroke="#58a6ff" stroke-width="1.8" fill="none"/>
<line x1="80" y1="116.58211084468581" x2="920" y2="116.58211084468581" stroke="#f0883e" stroke-width="1.5" stroke-dasharray="6,3"/>
<text x="925" y="120.58211084468581" font-size="11" fill="#f0883e" font-weight="bold">颈线 23.19</text>
<line x1="80" y1="34.88653661414641" x2="920" y2="34.88653661414641" stroke="#a371f7" stroke-width="1.2" stroke-dasharray="4,4"/>
<text x="925" y="38.88653661414641" font-size="11" fill="#a371f7" font-weight="bold">目标 26.54 (+11.0%)</text>
<circle cx="710.5398457583548" cy="198.27768507522524" r="6" fill="#238636" stroke="#fff" stroke-width="2"/>
<text x="710.5398457583548" y="218.27768507522524" text-anchor="middle" font-size="10" fill="#3fb950">左底 19.84</text>
<circle cx="786.1182519280205" cy="187.79138748742463" r="6" fill="#8957e5" stroke="#fff" stroke-width="2"/>
<text x="786.1182519280205" y="207.79138748742463" text-anchor="middle" font-size="10" fill="#bc8cff">右底 20.27</text>
<circle cx="913.521850899743" cy="116.58211084468581" r="7" fill="#f0883e" stroke="#fff" stroke-width="2"/>
<text x="913.521850899743" y="104.58211084468581" text-anchor="middle" font-size="10" fill="#f0883e">突破</text>
<line x1="920.0" y1="99.26752645552679" x2="920" y2="99.26752645552679" stroke="#f85149" stroke-width="1"/>
<text x="925" y="103.26752645552679" font-size="11" fill="#f85149" font-weight="bold">现价 23.90</text>
<text x="80" y="598" font-size="13" fill="#58a6ff" font-weight="bold">筛选高分原因:</text>
<text x="90" y="618" font-size="11" fill="#c9d1d9">  1. 刚刚突破(3天前)</text>
<text x="90" y="636" font-size="11" fill="#c9d1d9">  2. 右底缩量(66%)</text>
<text x="90" y="654" font-size="11" fill="#c9d1d9">  3. 形态跨度大(35根K线)</text>
<text x="90" y="672" font-size="11" fill="#c9d1d9">  4. MACD改善</text>
<text x="90" y="690" font-size="11" fill="#c9d1d9">  5. 右底高于左底</text>
<text x="928" y="80" font-size="11" fill="#8b949e">突破日: 2026-05-13</text>
<text x="928" y="98" font-size="11" fill="#8b949e">突破后涨幅: 3.1%</text>
<text x="928" y="116" font-size="11" fill="#8b949e">目标空间: 11.0%</text>
<text x="928" y="134" font-size="11" fill="#8b949e">形态跨度: 35根K线</text>
</svg>