<svg xmlns="http://www.w3.org/2000/svg" viewBox="0 0 1000 700" width="1000" height="700">
<rect width="1000" height="700" fill="#0d1117"/>
<text x="500.0" y="24" text-anchor="middle" font-size="18" fill="#58a6ff" font-weight="bold">中科曙光 (603019.SH)</text>
<text x="500.0" y="46" text-anchor="middle" font-size="14" fill="#8b949e">双底突破 | 评分:78/100 | 突破后涨幅:0.5% | 目标空间:15.2%</text>
<line x1="80" y1="382.4" x2="920" y2="382.4" stroke="#21262d" stroke-width="0.5"/>
<text x="72" y="386.4" text-anchor="end" font-size="10" fill="#8b949e">47.54</text>
<line x1="80" y1="317.92" x2="920" y2="317.92" stroke="#21262d" stroke-width="0.5"/>
<text x="72" y="321.92" text-anchor="end" font-size="10" fill="#8b949e">63.63</text>
<line x1="80" y1="253.43999999999997" x2="920" y2="253.43999999999997" stroke="#21262d" stroke-width="0.5"/>
<text x="72" y="257.43999999999994" text-anchor="end" font-size="10" fill="#8b949e">79.73</text>
<line x1="80" y1="188.96" x2="920" y2="188.96" stroke="#21262d" stroke-width="0.5"/>
<text x="72" y="192.96" text-anchor="end" font-size="10" fill="#8b949e">95.82</text>
<line x1="80" y1="124.47999999999998" x2="920" y2="124.47999999999998" stroke="#21262d" stroke-width="0.5"/>
<text x="72" y="128.47999999999996" text-anchor="end" font-size="10" fill="#8b949e">111.92</text>
<line x1="80" y1="60.0" x2="920" y2="60.0" stroke="#21262d" stroke-width="0.5"/>
<text x="72" y="64.0" text-anchor="end" font-size="10" fill="#8b949e">128.01</text>
<text x="80.0" y="396.4" text-anchor="middle" font-size="9" fill="#8b949e">2024-10-08</text>
<text x="184.1688654353562" y="396.4" text-anchor="middle" font-size="9" fill="#8b949e">2024-12-12</text>
<text x="288.3377308707124" y="396.4" text-anchor="middle" font-size="9" fill="#8b949e">2025-02-26</text>
<text x="392.5065963060686" y="396.4" text-anchor="middle" font-size="9" fill="#8b949e">2025-05-08</text>
<text x="496.6754617414248" y="396.4" text-anchor="middle" font-size="9" fill="#8b949e">2025-07-29</text>
<text x="600.844327176781" y="396.4" text-anchor="middle" font-size="9" fill="#8b949e">2025-10-10</text>
<text x="705.0131926121372" y="396.4" text-anchor="middle" font-size="9" fill="#8b949e">2025-12-16</text>
<text x="809.1820580474935" y="396.4" text-anchor="middle" font-size="9" fill="#8b949e">2026-03-03</text>
<text x="913.3509234828496" y="396.4" text-anchor="middle" font-size="9" fill="#8b949e">2026-05-13</text>
<rect x="682.8496042216359" y="60" width="230.50131926121367" height="520.0" fill="#238636" opacity="0.10" rx="4"/>
<text x="798.1002638522427" y="52" text-anchor="middle" font-size="11" fill="#3fb950" font-weight="bold">双底区域</text>
<rect x="79.33684210526316" y="542.8534343563455" width="1.3263157894736843" height="37.146565643654526" fill="#3fb950" opacity="0.45"/>
<rect x="81.55320094431329" y="472.1367720619153" width="1.3263157894736843" height="107.86322793808472" fill="#3fb950" opacity="0.45"/>
<rect x="83.76955978336342" y="511.8952692747756" width="1.3263157894736843" height="68.10473072522439" fill="#f85149" opacity="0.45"/>
<rect x="85.98591862241355" y="532.990218193292" width="1.3263157894736843" height="47.00978180670802" fill="#f85149" opacity="0.45"/>
<rect x="88.20227746146368" y="531.073075364473" width="1.3263157894736843" height="48.92692463552703" fill="#3fb950" opacity="0.45"/>
<rect x="90.41863630051382" y="533.0799669469611" width="1.3263157894736843" height="46.92003305303888" fill="#f85149" opacity="0.45"/>
<rect x="92.63499513956396" y="539.2036699182406" width="1.3263157894736843" height="40.79633008175938" fill="#f85149" opacity="0.45"/>
<rect x="94.85135397861409" y="506.76908540104137" width="1.3263157894736843" height="73.23091459895863" fill="#3fb950" opacity="0.45"/>
<rect x="97.06771281766422" y="503.5186394502099" width="1.3263157894736843" height="76.48136054979011" fill="#3fb950" opacity="0.45"/>
<rect x="99.28407165671435" y="499.008631569187" width="1.3263157894736843" height="80.991368430813" fill="#3fb950" opacity="0.45"/>
<rect x="101.50043049576448" y="534.4878532265848" width="1.3263157894736843" height="45.512146773415225" fill="#f85149" opacity="0.45"/>
<rect x="103.7167893348146" y="537.7545870541333" width="1.3263157894736843" height="42.24541294586675" fill="#f85149" opacity="0.45"/>
<rect x="105.93314817386475" y="551.5156350812413" width="1.3263157894736843" height="28.48436491875873" fill="#3fb950" opacity="0.45"/>
<rect x="108.14950701291487" y="550.6612777399782" width="1.3263157894736843" height="29.33872226002177" fill="#f85149" opacity="0.45"/>
<rect x="110.36586585196501" y="555.6081382181599" width="1.3263157894736843" height="24.391861781840134" fill="#f85149" opacity="0.45"/>
<rect x="112.58222469101514" y="480.48521926443493" width="1.3263157894736843" height="99.51478073556507" fill="#3fb950" opacity="0.45"/>
<rect x="114.79858353006527" y="501.7991497500551" width="1.3263157894736843" height="78.20085024994489" fill="#f85149" opacity="0.45"/>
<rect x="117.0149423691154" y="492.4391064355361" width="1.3263157894736843" height="87.56089356446392" fill="#3fb950" opacity="0.45"/>
<rect x="119.23130120816553" y="500.07896513453323" width="1.3263157894736843" height="79.92103486546677" fill="#f85149" opacity="0.45"/>
<rect x="121.44766004721566" y="507.834646465332" width="1.3263157894736843" height="72.16535353466799" fill="#3fb950" opacity="0.45"/>
<rect x="123.6640188862658" y="483.3317702941681" width="1.3263157894736843" height="96.66822970583189" fill="#3fb950" opacity="0.45"/>
<rect x="125.88037772531592" y="494.1871811040332" width="1.3263157894736843" height="85.81281889596681" fill="#3fb950" opacity="0.45"/>
<rect x="128.09673656436604" y="507.53300162622685" width="1.3263157894736843" height="72.46699837377315" fill="#3fb950" opacity="0.45"/>
<rect x="130.31309540341618" y="507.28646648610885" width="1.3263157894736843" height="72.71353351389115" fill="#3fb950" opacity="0.45"/>
<rect x="132.52945424246633" y="495.509573901604" width="1.3263157894736843" height="84.49042609839597" fill="#3fb950" opacity="0.45"/>
<rect x="134.74581308151645" y="484.62536469604646" width="1.3263157894736843" height="95.37463530395354" fill="#f85149" opacity="0.45"/>
<rect x="136.96217192056656" y="523.3760819596216" width="1.3263157894736843" height="56.623918040378385" fill="#f85149" opacity="0.45"/>
<rect x="139.1785307596167" y="507.5062267056262" width="1.3263157894736843" height="72.4937732943738" fill="#f85149" opacity="0.45"/>
<rect x="141.39488959866685" y="502.6248710638011" width="1.3263157894736843" height="77.3751289361989" fill="#f85149" opacity="0.45"/>
<rect x="143.61124843771697" y="524.0217339032731" width="1.3263157894736843" height="55.978266096726884" fill="#f85149" opacity="0.45"/>
<rect x="145.8276072767671" y="505.434716163462" width="1.3263157894736843" height="74.56528383653801" fill="#3fb950" opacity="0.45"/>
<rect x="148.04396611581723" y="512.3134291080908" width="1.3263157894736843" height="67.68657089190924" fill="#3fb950" opacity="0.45"/>
<rect x="150.26032495486737" y="526.2424735634446" width="1.3263157894736843" height="53.757526436555395" fill="#3fb950" opacity="0.45"/>
<rect x="152.47668379391752" y="528.9305915483461" width="1.3263157894736843" height="51.069408451653885" fill="#f85149" opacity="0.45"/>
<rect x="154.69304263296763" y="521.0667587161468" width="1.3263157894736843" height="58.93324128385325" fill="#3fb950" opacity="0.45"/>
<rect x="156.90940147201775" y="540.6980540138827" width="1.3263157894736843" height="39.30194598611729" fill="#f85149" opacity="0.45"/>
<rect x="159.1257603110679" y="530.9342112589219" width="1.3263157894736843" height="49.06578874107811" fill="#3fb950" opacity="0.45"/>
<rect x="161.34211915011804" y="502.82289743503213" width="1.3263157894736843" height="77.17710256496787" fill="#3fb950" opacity="0.45"/>
<rect x="163.55847798916815" y="517.0449858115195" width="1.3263157894736843" height="62.955014188480504" fill="#3fb950" opacity="0.45"/>
<rect x="165.77483682821827" y="522.3233362375792" width="1.3263157894736843" height="57.676663762420844" fill="#f85149" opacity="0.45"/>
<rect x="167.9911956672684" y="502.48905059565163" width="1.3263157894736843" height="77.51094940434837" fill="#f85149" opacity="0.45"/>
<rect x="170.20755450631856" y="531.3377748059767" width="1.3263157894736843" height="48.662225194023335" fill="#3fb950" opacity="0.45"/>
<rect x="172.42391334536867" y="538.1011716258165" width="1.3263157894736843" height="41.898828374183495" fill="#f85149" opacity="0.45"/>
<rect x="174.64027218441882" y="540.7949592214724" width="1.3263157894736843" height="39.20504077852763" fill="#3fb950" opacity="0.45"/>
<rect x="176.85663102346894" y="547.7751221508273" width="1.3263157894736843" height="32.224877849172685" fill="#f85149" opacity="0.45"/>
<rect x="179.07298986251908" y="537.925672562446" width="1.3263157894736843" height="42.07432743755396" fill="#f85149" opacity="0.45"/>
<rect x="181.28934870156922" y="543.4398734857341" width="1.3263157894736843" height="36.5601265142659" fill="#f85149" opacity="0.45"/>
<rect x="183.50570754061934" y="543.3897645223133" width="1.3263157894736843" height="36.61023547768673" fill="#3fb950" opacity="0.45"/>
<rect x="185.72206637966949" y="548.703350374215" width="1.3263157894736843" height="31.296649625784994" fill="#f85149" opacity="0.45"/>
<rect x="187.9384252187196" y="557.0434693147557" width="1.3263157894736843" height="22.956530685244275" fill="#f85149" opacity="0.45"/>
<rect x="190.15478405776975" y="558.5461382720783" width="1.3263157894736843" height="21.453861727921662" fill="#3fb950" opacity="0.45"/>
<rect x="192.3711428968199" y="559.6522781048393" width="1.3263157894736843" height="20.347721895160703" fill="#3fb950" opacity="0.45"/>
<rect x="194.58750173586998" y="522.1161406597624" width="1.3263157894736843" height="57.883859340237564" fill="#3fb950" opacity="0.45"/>
<rect x="196.80386057492012" y="540.1430382323559" width="1.3263157894736843" height="39.856961767644066" fill="#f85149" opacity="0.45"/>
<rect x="199.02021941397027" y="533.5567549669894" width="1.3263157894736843" height="46.44324503301061" fill="#3fb950" opacity="0.45"/>
<rect x="201.2365782530204" y="548.4950355792897" width="1.3263157894736843" height="31.50496442071028" fill="#3fb950" opacity="0.45"/>
<rect x="203.45293709207053" y="526.5929856068428" width="1.3263157894736843" height="53.40701439315717" fill="#3fb950" opacity="0.45"/>
<rect x="205.66929593112067" y="538.0412582796772" width="1.3263157894736843" height="41.95874172032279" fill="#3fb950" opacity="0.45"/>
<rect x="207.8856547701708" y="526.33324145824" width="1.3263157894736843" height="53.66675854176003" fill="#f85149" opacity="0.45"/>
<rect x="210.10201360922093" y="547.7379592411419" width="1.3263157894736843" height="32.26204075885812" fill="#f85149" opacity="0.45"/>
<rect x="212.31837244827108" y="553.4966590646625" width="1.3263157894736843" height="26.50334093533752" fill="#f85149" opacity="0.45"/>
<rect x="214.5347312873212" y="534.0980746355051" width="1.3263157894736843" height="45.9019253644949" fill="#f85149" opacity="0.45"/>
<rect x="216.75109012637134" y="545.0926344611158" width="1.3263157894736843" height="34.907365538884164" fill="#f85149" opacity="0.45"/>
<rect x="218.96744896542145" y="557.2783032238166" width="1.3263157894736843" height="22.72169677618342" fill="#f85149" opacity="0.45"/>
<rect x="221.18380780447157" y="550.2428232952253" width="1.3263157894736843" height="29.75717670477468" fill="#3fb950" opacity="0.45"/>
<rect x="223.40016664352171" y="549.3035550570924" width="1.3263157894736843" height="30.696444942907647" fill="#f85149" opacity="0.45"/>
<rect x="225.61652548257186" y="556.644240181038" width="1.3263157894736843" height="23.355759818962042" fill="#3fb950" opacity="0.45"/>
<rect x="227.83288432162198" y="533.3623083544938" width="1.3263157894736843" height="46.63769164550615" fill="#f85149" opacity="0.45"/>
<rect x="230.04924316067212" y="558.1941383643305" width="1.3263157894736843" height="21.805861635669544" fill="#f85149" opacity="0.45"/>
<rect x="232.26560199972226" y="542.8964032047818" width="1.3263157894736843" height="37.10359679521821" fill="#3fb950" opacity="0.45"/>
<rect x="234.48196083877238" y="546.0113365742869" width="1.3263157894736843" height="33.98866342571307" fill="#3fb950" opacity="0.45"/>
<rect x="236.69831967782252" y="553.9744386538628" width="1.3263157894736843" height="26.025561346137238" fill="#f85149" opacity="0.45"/>
<rect x="238.91467851687264" y="559.2782451420416" width="1.3263157894736843" height="20.721754857958445" fill="#3fb950" opacity="0.45"/>
<rect x="241.13103735592279" y="561.552658206617" width="1.3263157894736843" height="18.447341793382975" fill="#3fb950" opacity="0.45"/>
<rect x="243.3473961949729" y="558.492743650768" width="1.3263157894736843" height="21.507256349231966" fill="#3fb950" opacity="0.45"/>
<rect x="245.56375503402302" y="541.3927094898237" width="1.3263157894736843" height="38.60729051017631" fill="#3fb950" opacity="0.45"/>
<rect x="247.78011387307316" y="544.5819947188788" width="1.3263157894736843" height="35.41800528112117" fill="#f85149" opacity="0.45"/>
<rect x="249.9964727121233" y="558.1933540954077" width="1.3263157894736843" height="21.8066459045923" fill="#3fb950" opacity="0.45"/>
<rect x="252.21283155117342" y="542.5823811111469" width="1.3263157894736843" height="37.4176188888531" fill="#3fb950" opacity="0.45"/>
<rect x="254.42919039022357" y="522.1097899196182" width="1.3263157894736843" height="57.89021008038185" fill="#3fb950" opacity="0.45"/>
<rect x="256.6455492292737" y="534.4560857398858" width="1.3263157894736843" height="45.54391426011421" fill="#3fb950" opacity="0.45"/>
<rect x="258.8619080683238" y="508.5022027949132" width="1.3263157894736843" height="71.49779720508678" fill="#3fb950" opacity="0.45"/>
<rect x="261.078266907374" y="527.1747119744102" width="1.3263157894736843" height="52.82528802558977" fill="#3fb950" opacity="0.45"/>
<rect x="263.2946257464241" y="536.0858368982064" width="1.3263157894736843" height="43.91416310179363" fill="#f85149" opacity="0.45"/>
<rect x="265.5109845854742" y="544.5581572325965" width="1.3263157894736843" height="35.4418427674035" fill="#f85149" opacity="0.45"/>
<rect x="267.72734342452435" y="542.4395640042936" width="1.3263157894736843" height="37.56043599570637" fill="#f85149" opacity="0.45"/>
<rect x="269.9437022635745" y="546.6761862570194" width="1.3263157894736843" height="33.32381374298063" fill="#3fb950" opacity="0.45"/>
<rect x="272.1600611026246" y="527.8150762299338" width="1.3263157894736843" height="52.184923770066234" fill="#3fb950" opacity="0.45"/>
<rect x="274.3764199416747" y="543.7054199989454" width="1.3263157894736843" height="36.294580001054555" fill="#f85149" opacity="0.45"/>
<rect x="276.59277878072487" y="554.4293391374889" width="1.3263157894736843" height="25.57066086251109" fill="#3fb950" opacity="0.45"/>
<rect x="278.809137619775" y="556.8826114697193" width="1.3263157894736843" height="23.117388530280664" fill="#f85149" opacity="0.45"/>
<rect x="281.02549645882516" y="514.4187495039405" width="1.3263157894736843" height="65.58125049605951" fill="#3fb950" opacity="0.45"/>
<rect x="283.2418552978753" y="531.4893791967893" width="1.3263157894736843" height="48.51062080321071" fill="#3fb950" opacity="0.45"/>
<rect x="285.4582141369254" y="547.8431457362699" width="1.3263157894736843" height="32.15685426373011" fill="#f85149" opacity="0.45"/>
<rect x="287.67457297597554" y="533.0421132066425" width="1.3263157894736843" height="46.95788679335749" fill="#3fb950" opacity="0.45"/>
<rect x="289.8909318150256" y="542.1940668971965" width="1.3263157894736843" height="37.805933102803465" fill="#f85149" opacity="0.45"/>
<rect x="292.1072906540758" y="542.9086165593607" width="1.3263157894736843" height="37.09138344063933" fill="#f85149" opacity="0.45"/>
<rect x="294.3236494931259" y="556.5018948609585" width="1.3263157894736843" height="23.498105139041513" fill="#f85149" opacity="0.45"/>
<rect x="296.54000833217606" y="563.2320164166715" width="1.3263157894736843" height="16.767983583328487" fill="#3fb950" opacity="0.45"/>
<rect x="298.7563671712262" y="563.772415488268" width="1.3263157894736843" height="16.227584511731948" fill="#3fb950" opacity="0.45"/>
<rect x="300.97272601027635" y="556.0299416341788" width="1.3263157894736843" height="23.97005836582116" fill="#3fb950" opacity="0.45"/>
<rect x="303.1890848493265" y="560.6115360098521" width="1.3263157894736843" height="19.388463990147898" fill="#f85149" opacity="0.45"/>
<rect x="305.40544368837664" y="562.5980779582791" width="1.3263157894736843" height="17.401922041720923" fill="#f85149" opacity="0.45"/>
<rect x="307.6218025274267" y="564.6742547984155" width="1.3263157894736843" height="15.325745201584482" fill="#f85149" opacity="0.45"/>
<rect x="309.8381613664768" y="558.9986374427202" width="1.3263157894736843" height="21.001362557279776" fill="#3fb950" opacity="0.45"/>
<rect x="312.054520205527" y="563.7235472627915" width="1.3263157894736843" height="16.2764527372085" fill="#f85149" opacity="0.45"/>
<rect x="314.2708790445771" y="562.775951783863" width="1.3263157894736843" height="17.22404821613702" fill="#3fb950" opacity="0.45"/>
<rect x="316.48723788362724" y="568.093680066605" width="1.3263157894736843" height="11.906319933395025" fill="#f85149" opacity="0.45"/>
<rect x="318.7035967226774" y="568.3070241902345" width="1.3263157894736843" height="11.692975809765471" fill="#3fb950" opacity="0.45"/>
<rect x="320.91995556172753" y="568.0886252083136" width="1.3263157894736843" height="11.911374791686399" fill="#f85149" opacity="0.45"/>
<rect x="323.1363144007777" y="569.9187580975923" width="1.3263157894736843" height="10.081241902407669" fill="#f85149" opacity="0.45"/>
<rect x="325.3526732398278" y="557.7671034252756" width="1.3263157894736843" height="22.23289657472435" fill="#f85149" opacity="0.45"/>
<rect x="327.5690320788779" y="562.7609490665723" width="1.3263157894736843" height="17.239050933427734" fill="#f85149" opacity="0.45"/>
<rect x="329.785390917928" y="569.3348530350422" width="1.3263157894736843" height="10.665146964957785" fill="#f85149" opacity="0.45"/>
<rect x="332.0017497569782" y="570.613490672887" width="1.3263157894736843" height="9.386509327113004" fill="#f85149" opacity="0.45"/>
<rect x="334.2181085960283" y="568.2137247815594" width="1.3263157894736843" height="11.78627521844055" fill="#3fb950" opacity="0.45"/>
<rect x="336.43446743507843" y="569.9946437747492" width="1.3263157894736843" height="10.005356225250807" fill="#3fb950" opacity="0.45"/>
<rect x="338.6508262741286" y="567.8829573210028" width="1.3263157894736843" height="12.117042678997223" fill="#3fb950" opacity="0.45"/>
<rect x="340.8671851131787" y="570.5055046032123" width="1.3263157894736843" height="9.49449539678767" fill="#f85149" opacity="0.45"/>
<rect x="343.0835439522288" y="572.8667463472581" width="1.3263157894736843" height="7.133253652741928" fill="#f85149" opacity="0.45"/>
<rect x="345.299902791279" y="570.8139015075748" width="1.3263157894736843" height="9.18609849242523" fill="#f85149" opacity="0.45"/>
<rect x="347.5162616303291" y="546.3029544126721" width="1.3263157894736843" height="33.69704558732792" fill="#f85149" opacity="0.45"/>
<rect x="349.73262046937924" y="555.118735007848" width="1.3263157894736843" height="24.881264992151955" fill="#3fb950" opacity="0.45"/>
<rect x="351.9489793084294" y="547.2941258336235" width="1.3263157894736843" height="32.705874166376475" fill="#3fb950" opacity="0.45"/>
<rect x="354.16533814747953" y="551.4022597156811" width="1.3263157894736843" height="28.59774028431889" fill="#3fb950" opacity="0.45"/>
<rect x="356.3816969865296" y="559.730326138043" width="1.3263157894736843" height="20.269673861957017" fill="#3fb950" opacity="0.45"/>
<rect x="358.59805582557976" y="565.0118784849458" width="1.3263157894736843" height="14.988121515054218" fill="#3fb950" opacity="0.45"/>
<rect x="360.8144146646299" y="566.8411152857092" width="1.3263157894736843" height="13.15888471429082" fill="#3fb950" opacity="0.45"/>
<rect x="363.03077350368" y="567.5536470892908" width="1.3263157894736843" height="12.446352910709152" fill="#3fb950" opacity="0.45"/>
<rect x="365.2471323427302" y="569.0959660486967" width="1.3263157894736843" height="10.90403395130329" fill="#f85149" opacity="0.45"/>
<rect x="367.4634911817803" y="567.4937873552849" width="1.3263157894736843" height="12.506212644715106" fill="#f85149" opacity="0.45"/>
<rect x="369.67985002083043" y="569.1831255916187" width="1.3263157894736843" height="10.816874408381295" fill="#3fb950" opacity="0.45"/>
<rect x="371.8962088598806" y="568.3904303732272" width="1.3263157894736843" height="11.609569626772782" fill="#f85149" opacity="0.45"/>
<rect x="374.1125676989307" y="563.9527304529926" width="1.3263157894736843" height="16.04726954700743" fill="#f85149" opacity="0.45"/>
<rect x="376.3289265379808" y="566.3584232933149" width="1.3263157894736843" height="13.6415767066851" fill="#f85149" opacity="0.45"/>
<rect x="378.54528537703095" y="570.6594694596695" width="1.3263157894736843" height="9.34053054033052" fill="#3fb950" opacity="0.45"/>
<rect x="380.7616442160811" y="570.0190837592925" width="1.3263157894736843" height="9.98091624070753" fill="#3fb950" opacity="0.45"/>
<rect x="382.9780030551312" y="572.9866031644497" width="1.3263157894736843" height="7.013396835550338" fill="#3fb950" opacity="0.45"/>
<rect x="385.1943618941814" y="566.1051851047473" width="1.3263157894736843" height="13.894814895252694" fill="#3fb950" opacity="0.45"/>
<rect x="387.41072073323147" y="564.1796134273752" width="1.3263157894736843" height="15.820386572624784" fill="#3fb950" opacity="0.45"/>
<rect x="389.6270795722816" y="564.4485931594909" width="1.3263157894736843" height="15.551406840509117" fill="#f85149" opacity="0.45"/>
<rect x="391.84343841133176" y="569.770643601368" width="1.3263157894736843" height="10.229356398632035" fill="#3fb950" opacity="0.45"/>
<rect x="394.0597972503819" y="572.3120430478801" width="1.3263157894736843" height="7.687956952119862" fill="#f85149" opacity="0.45"/>
<rect x="396.276156089432" y="570.0561190210414" width="1.3263157894736843" height="9.943880978958646" fill="#3fb950" opacity="0.45"/>
<rect x="398.49251492848214" y="569.7916820236953" width="1.3263157894736843" height="10.20831797630467" fill="#f85149" opacity="0.45"/>
<rect x="400.7088737675323" y="570.4844227805866" width="1.3263157894736843" height="9.515577219413444" fill="#3fb950" opacity="0.45"/>
<rect x="402.9252326065824" y="569.5277066012883" width="1.3263157894736843" height="10.472293398711713" fill="#f85149" opacity="0.45"/>
<rect x="405.1415914456325" y="571.2650144216246" width="1.3263157894736843" height="8.734985578375358" fill="#f85149" opacity="0.45"/>
<rect x="407.35795028468266" y="574.163807667096" width="1.3263157894736843" height="5.836192332904034" fill="#3fb950" opacity="0.45"/>
<rect x="409.5743091237328" y="573.9356819124021" width="1.3263157894736843" height="6.06431808759794" fill="#3fb950" opacity="0.45"/>
<rect x="411.7906679627829" y="574.5530828147135" width="1.3263157894736843" height="5.446917185286452" fill="#f85149" opacity="0.45"/>
<rect x="414.0070268018331" y="574.3744185931057" width="1.3263157894736843" height="5.625581406894298" fill="#f85149" opacity="0.45"/>
<rect x="416.2233856408832" y="572.1077894997075" width="1.3263157894736843" height="7.892210500292549" fill="#f85149" opacity="0.45"/>
<rect x="418.4397444799333" y="576.5690169770342" width="1.3263157894736843" height="3.4309830229658473" fill="#3fb950" opacity="0.45"/>
<rect x="420.65610331898347" y="513.7849315452002" width="1.3263157894736843" height="66.21506845479985" fill="#3fb950" opacity="0.45"/>
<rect x="422.8724621580336" y="546.7844970630448" width="1.3263157894736843" height="33.215502936955204" fill="#f85149" opacity="0.45"/>
<rect x="425.0888209970837" y="559.6576525935641" width="1.3263157894736843" height="20.34234740643592" fill="#f85149" opacity="0.45"/>
<rect x="427.30517983613385" y="566.3218000791056" width="1.3263157894736843" height="13.678199920894372" fill="#3fb950" opacity="0.45"/>
<rect x="429.521538675184" y="568.1644266378322" width="1.3263157894736843" height="11.835573362167793" fill="#f85149" opacity="0.45"/>
<rect x="431.7378975142341" y="569.5993109666498" width="1.3263157894736843" height="10.400689033350204" fill="#f85149" opacity="0.45"/>
<rect x="433.9542563532843" y="567.5299066154403" width="1.3263157894736843" height="12.470093384559732" fill="#3fb950" opacity="0.45"/>
<rect x="436.17061519233437" y="571.6269672942892" width="1.3263157894736843" height="8.373032705710784" fill="#f85149" opacity="0.45"/>
<rect x="438.3869740313845" y="572.2212920026125" width="1.3263157894736843" height="7.778707997387528" fill="#f85149" opacity="0.45"/>
<rect x="440.60333287043466" y="564.3033476782906" width="1.3263157894736843" height="15.696652321709394" fill="#3fb950" opacity="0.45"/>
<rect x="442.8196917094848" y="565.6877324410012" width="1.3263157894736843" height="14.31226755899877" fill="#3fb950" opacity="0.45"/>
<rect x="445.0360505485349" y="531.7967140703187" width="1.3263157894736843" height="48.20328592968133" fill="#3fb950" opacity="0.45"/>
<rect x="447.25240938758503" y="560.5181247815846" width="1.3263157894736843" height="19.48187521841544" fill="#f85149" opacity="0.45"/>
<rect x="449.4687682266352" y="568.5207829143621" width="1.3263157894736843" height="11.479217085637856" fill="#3fb950" opacity="0.45"/>
<rect x="451.68512706568526" y="568.1040721404238" width="1.3263157894736843" height="11.895927859576204" fill="#f85149" opacity="0.45"/>
<rect x="453.90148590473547" y="570.3363491317018" width="1.3263157894736843" height="9.663650868298191" fill="#f85149" opacity="0.45"/>
<rect x="456.11784474378555" y="572.1621710948639" width="1.3263157894736843" height="7.837828905136121" fill="#3fb950" opacity="0.45"/>
<rect x="458.3342035828357" y="571.8094716764232" width="1.3263157894736843" height="8.190528323576814" fill="#f85149" opacity="0.45"/>
<rect x="460.55056242188584" y="572.6645096364845" width="1.3263157894736843" height="7.335490363515532" fill="#f85149" opacity="0.45"/>
<rect x="462.766921260936" y="569.9261933346065" width="1.3263157894736843" height="10.073806665393477" fill="#3fb950" opacity="0.45"/>
<rect x="464.9832800999861" y="570.7983652219089" width="1.3263157894736843" height="9.201634778091147" fill="#f85149" opacity="0.45"/>
<rect x="467.1996389390362" y="571.1004808266043" width="1.3263157894736843" height="8.899519173395674" fill="#f85149" opacity="0.45"/>
<rect x="469.41599777808636" y="566.451114076628" width="1.3263157894736843" height="13.54888592337204" fill="#3fb950" opacity="0.45"/>
<rect x="471.63235661713645" y="573.0382188841147" width="1.3263157894736843" height="6.961781115885287" fill="#f85149" opacity="0.45"/>
<rect x="473.84871545618665" y="561.6138847947286" width="1.3263157894736843" height="18.38611520527138" fill="#3fb950" opacity="0.45"/>
<rect x="476.06507429523674" y="568.1594376458761" width="1.3263157894736843" height="11.840562354123904" fill="#f85149" opacity="0.45"/>
<rect x="478.2814331342869" y="569.0547587417863" width="1.3263157894736843" height="10.945241258213741" fill="#3fb950" opacity="0.45"/>
<rect x="480.49779197333703" y="569.8597301175416" width="1.3263157894736843" height="10.14026988245837" fill="#f85149" opacity="0.45"/>
<rect x="482.7141508123872" y="571.7579524585982" width="1.3263157894736843" height="8.242047541401803" fill="#f85149" opacity="0.45"/>
<rect x="484.93050965143726" y="569.622864563921" width="1.3263157894736843" height="10.377135436079016" fill="#f85149" opacity="0.45"/>
<rect x="487.1468684904874" y="570.5911987478216" width="1.3263157894736843" height="9.408801252178364" fill="#f85149" opacity="0.45"/>
<rect x="489.36322732953755" y="567.6559681435368" width="1.3263157894736843" height="12.344031856463175" fill="#3fb950" opacity="0.45"/>
<rect x="491.57958616858764" y="555.6526378206524" width="1.3263157894736843" height="24.347362179347556" fill="#3fb950" opacity="0.45"/>
<rect x="493.79594500763784" y="563.0526690233067" width="1.3263157894736843" height="16.94733097669325" fill="#f85149" opacity="0.45"/>
<rect x="496.0123038466879" y="559.1680645490401" width="1.3263157894736843" height="20.831935450959918" fill="#3fb950" opacity="0.45"/>
<rect x="498.2286626857381" y="565.4329951550656" width="1.3263157894736843" height="14.567004844934445" fill="#f85149" opacity="0.45"/>
<rect x="500.44502152478816" y="561.0680019677735" width="1.3263157894736843" height="18.93199803222649" fill="#f85149" opacity="0.45"/>
<rect x="502.66138036383836" y="566.0116952453508" width="1.3263157894736843" height="13.98830475464922" fill="#f85149" opacity="0.45"/>
<rect x="504.8777392028885" y="565.4079598205457" width="1.3263157894736843" height="14.59204017945433" fill="#3fb950" opacity="0.45"/>
<rect x="507.0940980419386" y="571.8519069564842" width="1.3263157894736843" height="8.148093043515814" fill="#f85149" opacity="0.45"/>
<rect x="509.31045688098874" y="568.001587696819" width="1.3263157894736843" height="11.998412303180999" fill="#f85149" opacity="0.45"/>
<rect x="511.5268157200388" y="569.4293017857389" width="1.3263157894736843" height="10.570698214261142" fill="#f85149" opacity="0.45"/>
<rect x="513.743174559089" y="570.9438379164362" width="1.3263157894736843" height="9.056162083563777" fill="#f85149" opacity="0.45"/>
<rect x="515.9595333981391" y="572.5666598341636" width="1.3263157894736843" height="7.433340165836398" fill="#3fb950" opacity="0.45"/>
<rect x="518.1758922371893" y="559.0253265839075" width="1.3263157894736843" height="20.974673416092514" fill="#3fb950" opacity="0.45"/>
<rect x="520.3922510762394" y="556.8221900847922" width="1.3263157894736843" height="23.17780991520783" fill="#3fb950" opacity="0.45"/>
<rect x="522.6086099152895" y="508.38955042726633" width="1.3263157894736843" height="71.61044957273367" fill="#3fb950" opacity="0.45"/>
<rect x="524.8249687543397" y="547.2049387308757" width="1.3263157894736843" height="32.79506126912429" fill="#f85149" opacity="0.45"/>
<rect x="527.0413275933898" y="543.010548032104" width="1.3263157894736843" height="36.989451967896" fill="#3fb950" opacity="0.45"/>
<rect x="529.25768643244" y="546.8233096946636" width="1.3263157894736843" height="33.176690305336365" fill="#f85149" opacity="0.45"/>
<rect x="531.4740452714901" y="528.4733183448733" width="1.3263157894736843" height="51.52668165512671" fill="#3fb950" opacity="0.45"/>
<rect x="533.6904041105402" y="542.471957476474" width="1.3263157894736843" height="37.52804252352598" fill="#f85149" opacity="0.45"/>
<rect x="535.9067629495903" y="513.6743680083887" width="1.3263157894736843" height="66.32563199161132" fill="#3fb950" opacity="0.45"/>
<rect x="538.1231217886406" y="571.0705407477665" width="1.3263157894736843" height="8.929459252233528" fill="#3fb950" opacity="0.45"/>
<rect x="540.3394806276905" y="471.6666666666667" width="1.3263157894736843" height="108.33333333333331" fill="#3fb950" opacity="0.45"/>
<rect x="542.5558394667407" y="507.9036549822537" width="1.3263157894736843" height="72.09634501774627" fill="#f85149" opacity="0.45"/>
<rect x="544.7721983057909" y="515.0817385903482" width="1.3263157894736843" height="64.91826140965179" fill="#3fb950" opacity="0.45"/>
<rect x="546.9885571448409" y="520.098813603157" width="1.3263157894736843" height="59.901186396842945" fill="#f85149" opacity="0.45"/>
<rect x="549.204915983891" y="520.4630610751309" width="1.3263157894736843" height="59.536938924869105" fill="#3fb950" opacity="0.45"/>
<rect x="551.4212748229412" y="523.4743560636839" width="1.3263157894736843" height="56.5256439363161" fill="#f85149" opacity="0.45"/>
<rect x="553.6376336619913" y="541.8742812439259" width="1.3263157894736843" height="38.12571875607409" fill="#f85149" opacity="0.45"/>
<rect x="555.8539925010415" y="522.1364892726402" width="1.3263157894736843" height="57.86351072735977" fill="#f85149" opacity="0.45"/>
<rect x="558.0703513400916" y="545.1548980610647" width="1.3263157894736843" height="34.84510193893527" fill="#3fb950" opacity="0.45"/>
<rect x="560.2867101791418" y="551.4632218172679" width="1.3263157894736843" height="28.536778182732064" fill="#3fb950" opacity="0.45"/>
<rect x="562.5030690181919" y="558.7715374668453" width="1.3263157894736843" height="21.228462533154698" fill="#f85149" opacity="0.45"/>
<rect x="564.7194278572421" y="543.3736543315242" width="1.3263157894736843" height="36.62634566847578" fill="#3fb950" opacity="0.45"/>
<rect x="566.9357866962922" y="534.2911921776841" width="1.3263157894736843" height="45.70880782231586" fill="#3fb950" opacity="0.45"/>
<rect x="569.1521455353424" y="494.8233595284181" width="1.3263157894736843" height="85.17664047158189" fill="#3fb950" opacity="0.45"/>
<rect x="571.3685043743925" y="520.7182093874225" width="1.3263157894736843" height="59.28179061257754" fill="#3fb950" opacity="0.45"/>
<rect x="573.5848632134425" y="503.77941907887487" width="1.3263157894736843" height="76.22058092112513" fill="#3fb950" opacity="0.45"/>
<rect x="575.8012220524927" y="519.3819790429268" width="1.3263157894736843" height="60.61802095707321" fill="#f85149" opacity="0.45"/>
<rect x="578.0175808915429" y="501.191503192471" width="1.3263157894736843" height="78.80849680752902" fill="#3fb950" opacity="0.45"/>
<rect x="580.2339397305929" y="535.7470827615491" width="1.3263157894736843" height="44.25291723845089" fill="#f85149" opacity="0.45"/>
<rect x="582.4502985696431" y="518.5405580541559" width="1.3263157894736843" height="61.459441945844105" fill="#3fb950" opacity="0.45"/>
<rect x="584.6666574086933" y="520.3556790354925" width="1.3263157894736843" height="59.64432096450753" fill="#f85149" opacity="0.45"/>
<rect x="586.8830162477433" y="535.5295415737626" width="1.3263157894736843" height="44.47045842623743" fill="#3fb950" opacity="0.45"/>
<rect x="589.0993750867934" y="530.1654449227353" width="1.3263157894736843" height="49.83455507726467" fill="#3fb950" opacity="0.45"/>
<rect x="591.3157339258436" y="540.0335096650148" width="1.3263157894736843" height="39.966490334985224" fill="#f85149" opacity="0.45"/>
<rect x="593.5320927648937" y="541.6767465725468" width="1.3263157894736843" height="38.32325342745321" fill="#3fb950" opacity="0.45"/>
<rect x="595.7484516039439" y="552.8974163366358" width="1.3263157894736843" height="27.102583663364157" fill="#f85149" opacity="0.45"/>
<rect x="597.964810442994" y="541.3187589553864" width="1.3263157894736843" height="38.68124104461356" fill="#3fb950" opacity="0.45"/>
<rect x="600.1811692820442" y="535.1351007694445" width="1.3263157894736843" height="44.864899230555466" fill="#f85149" opacity="0.45"/>
<rect x="602.3975281210943" y="550.374206210505" width="1.3263157894736843" height="29.625793789494992" fill="#3fb950" opacity="0.45"/>
<rect x="604.6138869601444" y="538.3975231602845" width="1.3263157894736843" height="41.60247683971545" fill="#f85149" opacity="0.45"/>
<rect x="606.8302457991945" y="551.1229359053709" width="1.3263157894736843" height="28.877064094629077" fill="#3fb950" opacity="0.45"/>
<rect x="609.0466046382447" y="561.4435580257513" width="1.3263157894736843" height="18.55644197424874" fill="#f85149" opacity="0.45"/>
<rect x="611.2629634772949" y="557.3242723093559" width="1.3263157894736843" height="22.675727690644067" fill="#f85149" opacity="0.45"/>
<rect x="613.4793223163449" y="560.165028122765" width="1.3263157894736843" height="19.834971877235034" fill="#3fb950" opacity="0.45"/>
<rect x="615.695681155395" y="555.0438133279088" width="1.3263157894736843" height="24.956186672091235" fill="#3fb950" opacity="0.45"/>
<rect x="617.9120399944452" y="553.6698921218616" width="1.3263157894736843" height="26.330107878138392" fill="#3fb950" opacity="0.45"/>
<rect x="620.1283988334953" y="562.606559397782" width="1.3263157894736843" height="17.393440602217993" fill="#f85149" opacity="0.45"/>
<rect x="622.3447576725455" y="547.8342221243142" width="1.3263157894736843" height="32.16577787568576" fill="#3fb950" opacity="0.45"/>
<rect x="624.5611165115956" y="551.4506975123153" width="1.3263157894736843" height="28.549302487684713" fill="#3fb950" opacity="0.45"/>
<rect x="626.7774753506457" y="559.8140197841891" width="1.3263157894736843" height="20.1859802158109" fill="#f85149" opacity="0.45"/>
<rect x="628.9938341896959" y="555.8778777107945" width="1.3263157894736843" height="24.12212228920555" fill="#3fb950" opacity="0.45"/>
<rect x="631.2101930287461" y="550.624767366545" width="1.3263157894736843" height="29.37523263345497" fill="#f85149" opacity="0.45"/>
<rect x="633.4265518677961" y="554.0119911450508" width="1.3263157894736843" height="25.988008854949157" fill="#f85149" opacity="0.45"/>
<rect x="635.6429107068462" y="562.9805392590381" width="1.3263157894736843" height="17.019460740961904" fill="#3fb950" opacity="0.45"/>
<rect x="637.8592695458964" y="562.3605460824291" width="1.3263157894736843" height="17.639453917570904" fill="#3fb950" opacity="0.45"/>
<rect x="640.0756283849465" y="562.2286316411412" width="1.3263157894736843" height="17.77136835885881" fill="#f85149" opacity="0.45"/>
<rect x="642.2919872239967" y="538.9906709546319" width="1.3263157894736843" height="41.00932904536808" fill="#3fb950" opacity="0.45"/>
<rect x="644.5083460630468" y="556.8677920548656" width="1.3263157894736843" height="23.132207945134382" fill="#f85149" opacity="0.45"/>
<rect x="646.7247049020968" y="555.5249592484944" width="1.3263157894736843" height="24.475040751505617" fill="#f85149" opacity="0.45"/>
<rect x="648.9410637411471" y="563.9442393122464" width="1.3263157894736843" height="16.055760687753605" fill="#f85149" opacity="0.45"/>
<rect x="651.1574225801972" y="564.7015183553177" width="1.3263157894736843" height="15.298481644682283" fill="#f85149" opacity="0.45"/>
<rect x="653.3737814192473" y="566.1693598496039" width="1.3263157894736843" height="13.830640150396107" fill="#3fb950" opacity="0.45"/>
<rect x="655.5901402582974" y="560.2638985979873" width="1.3263157894736843" height="19.73610140201265" fill="#f85149" opacity="0.45"/>
<rect x="657.8064990973476" y="564.7512239512587" width="1.3263157894736843" height="15.24877604874132" fill="#3fb950" opacity="0.45"/>
<rect x="660.0228579363977" y="563.8118433829414" width="1.3263157894736843" height="16.188156617058553" fill="#f85149" opacity="0.45"/>
<rect x="662.2392167754479" y="568.5458192700655" width="1.3263157894736843" height="11.454180729934478" fill="#f85149" opacity="0.45"/>
<rect x="664.455575614498" y="568.64210615105" width="1.3263157894736843" height="11.35789384894997" fill="#f85149" opacity="0.45"/>
<rect x="666.671934453548" y="563.3712251716515" width="1.3263157894736843" height="16.62877482834847" fill="#f85149" opacity="0.45"/>
<rect x="668.8882932925983" y="560.5338744946006" width="1.3263157894736843" height="19.466125505399418" fill="#f85149" opacity="0.45"/>
<rect x="671.1046521316484" y="559.9060845820208" width="1.3263157894736843" height="20.093915417979247" fill="#f85149" opacity="0.45"/>
<rect x="673.3210109706985" y="554.0547675003986" width="1.3263157894736843" height="25.94523249960139" fill="#3fb950" opacity="0.45"/>
<rect x="675.5373698097486" y="550.4126803197958" width="1.3263157894736843" height="29.587319680204246" fill="#3fb950" opacity="0.45"/>
<rect x="677.7537286487988" y="565.8302585105589" width="1.3263157894736843" height="14.169741489441094" fill="#3fb950" opacity="0.45"/>
<rect x="679.9700874878489" y="556.2053201978972" width="1.3263157894736843" height="23.79467980210279" fill="#3fb950" opacity="0.45"/>
<rect x="682.186446326899" y="566.416598074557" width="1.3263157894736843" height="13.583401925443013" fill="#f85149" opacity="0.45"/>
<rect x="684.4028051659492" y="567.0811332327735" width="1.3263157894736843" height="12.918866767226518" fill="#f85149" opacity="0.45"/>
<rect x="686.6191640049992" y="562.5529329678187" width="1.3263157894736843" height="17.44706703218128" fill="#3fb950" opacity="0.45"/>
<rect x="688.8355228440495" y="562.1304188080885" width="1.3263157894736843" height="17.869581191911493" fill="#f85149" opacity="0.45"/>
<rect x="691.0518816830996" y="558.9568337646498" width="1.3263157894736843" height="21.043166235350213" fill="#3fb950" opacity="0.45"/>
<rect x="693.2682405221497" y="561.4099570040902" width="1.3263157894736843" height="18.590042995909812" fill="#f85149" opacity="0.45"/>
<rect x="695.4845993611998" y="552.9287258225381" width="1.3263157894736843" height="27.071274177461873" fill="#f85149" opacity="0.45"/>
<rect x="697.7009582002499" y="529.198423980807" width="1.3263157894736843" height="50.80157601919302" fill="#f85149" opacity="0.45"/>
<rect x="699.9173170393001" y="535.1071203417301" width="1.3263157894736843" height="44.89287965826986" fill="#f85149" opacity="0.45"/>
<rect x="702.1336758783502" y="552.0416686540468" width="1.3263157894736843" height="27.958331345953184" fill="#f85149" opacity="0.45"/>
<rect x="704.3500347174004" y="552.8021822958328" width="1.3263157894736843" height="27.197817704167164" fill="#f85149" opacity="0.45"/>
<rect x="706.5663935564504" y="552.032830310913" width="1.3263157894736843" height="27.967169689086973" fill="#3fb950" opacity="0.45"/>
<rect x="708.7827523955007" y="563.6909265772839" width="1.3263157894736843" height="16.309073422716097" fill="#f85149" opacity="0.45"/>
<rect x="710.9991112345507" y="558.0736397333134" width="1.3263157894736843" height="21.92636026668663" fill="#3fb950" opacity="0.45"/>
<rect x="713.2154700736008" y="556.3159633870212" width="1.3263157894736843" height="23.684036612978844" fill="#3fb950" opacity="0.45"/>
<rect x="715.431828912651" y="557.9119843439688" width="1.3263157894736843" height="22.08801565603119" fill="#3fb950" opacity="0.45"/>
<rect x="717.6481877517011" y="559.40458494264" width="1.3263157894736843" height="20.595415057360015" fill="#f85149" opacity="0.45"/>
<rect x="719.8645465907513" y="562.2861467378466" width="1.3263157894736843" height="17.713853262153407" fill="#f85149" opacity="0.45"/>
<rect x="722.0809054298014" y="557.8195289434509" width="1.3263157894736843" height="22.180471056549095" fill="#f85149" opacity="0.45"/>
<rect x="724.2972642688514" y="557.5257211770645" width="1.3263157894736843" height="22.474278822935503" fill="#f85149" opacity="0.45"/>
<rect x="726.5136231079017" y="560.0676204928967" width="1.3263157894736843" height="19.932379507103292" fill="#3fb950" opacity="0.45"/>
<rect x="728.7299819469519" y="558.1474248360246" width="1.3263157894736843" height="21.852575163975416" fill="#3fb950" opacity="0.45"/>
<rect x="730.9463407860019" y="549.3494230454658" width="1.3263157894736843" height="30.650576954534245" fill="#3fb950" opacity="0.45"/>
<rect x="733.162699625052" y="543.7475657734861" width="1.3263157894736843" height="36.252434226513856" fill="#3fb950" opacity="0.45"/>
<rect x="735.3790584641022" y="555.9905642880884" width="1.3263157894736843" height="24.00943571191158" fill="#f85149" opacity="0.45"/>
<rect x="737.5954173031523" y="529.1060181076886" width="1.3263157894736843" height="50.893981892311444" fill="#3fb950" opacity="0.45"/>
<rect x="739.8117761422025" y="547.0612148130804" width="1.3263157894736843" height="32.93878518691963" fill="#3fb950" opacity="0.45"/>
<rect x="742.0281349812526" y="540.4093036587465" width="1.3263157894736843" height="39.59069634125353" fill="#3fb950" opacity="0.45"/>
<rect x="744.2444938203026" y="543.6448796461414" width="1.3263157894736843" height="36.35512035385864" fill="#f85149" opacity="0.45"/>
<rect x="746.4608526593529" y="542.5294695096289" width="1.3263157894736843" height="37.47053049037106" fill="#3fb950" opacity="0.45"/>
<rect x="748.677211498403" y="556.958410856871" width="1.3263157894736843" height="23.041589143129045" fill="#f85149" opacity="0.45"/>
<rect x="750.8935703374531" y="554.4876155264886" width="1.3263157894736843" height="25.51238447351136" fill="#3fb950" opacity="0.45"/>
<rect x="753.1099291765032" y="553.1187343715721" width="1.3263157894736843" height="26.881265628427855" fill="#3fb950" opacity="0.45"/>
<rect x="755.3262880155534" y="554.0379623942423" width="1.3263157894736843" height="25.9620376057577" fill="#f85149" opacity="0.45"/>
<rect x="757.5426468546035" y="516.544706486413" width="1.3263157894736843" height="63.45529351358698" fill="#3fb950" opacity="0.45"/>
<rect x="759.7590056936536" y="533.453701213587" width="1.3263157894736843" height="46.54629878641299" fill="#f85149" opacity="0.45"/>
<rect x="761.9753645327038" y="549.4130555418874" width="1.3263157894736843" height="30.58694445811261" fill="#f85149" opacity="0.45"/>
<rect x="764.1917233717538" y="552.9249214034342" width="1.3263157894736843" height="27.075078596565845" fill="#f85149" opacity="0.45"/>
<rect x="766.4080822108041" y="559.0007982669919" width="1.3263157894736843" height="20.999201733008135" fill="#f85149" opacity="0.45"/>
<rect x="768.6244410498542" y="558.2667143857858" width="1.3263157894736843" height="21.733285614214196" fill="#f85149" opacity="0.45"/>
<rect x="770.8407998889043" y="556.5485864338192" width="1.3263157894736843" height="23.451413566180804" fill="#f85149" opacity="0.45"/>
<rect x="773.0571587279544" y="559.6466952946819" width="1.3263157894736843" height="20.353304705318124" fill="#3fb950" opacity="0.45"/>
<rect x="775.2735175670045" y="565.0550444217962" width="1.3263157894736843" height="14.944955578203803" fill="#f85149" opacity="0.45"/>
<rect x="777.4898764060547" y="564.834804246037" width="1.3263157894736843" height="15.165195753962962" fill="#3fb950" opacity="0.45"/>
<rect x="779.7062352451048" y="565.207687866813" width="1.3263157894736843" height="14.79231213318701" fill="#f85149" opacity="0.45"/>
<rect x="781.922594084155" y="571.4472890374726" width="1.3263157894736843" height="8.552710962527385" fill="#f85149" opacity="0.45"/>
<rect x="784.138952923205" y="565.0648421668219" width="1.3263157894736843" height="14.935157833178096" fill="#3fb950" opacity="0.45"/>
<rect x="786.3553117622553" y="554.440371493358" width="1.3263157894736843" height="25.559628506641957" fill="#3fb950" opacity="0.45"/>
<rect x="788.5716706013054" y="558.4780273754473" width="1.3263157894736843" height="21.521972624552745" fill="#f85149" opacity="0.45"/>
<rect x="790.7880294403554" y="565.2899927034083" width="1.3263157894736843" height="14.710007296591698" fill="#f85149" opacity="0.45"/>
<rect x="793.0043882794056" y="559.1161782157492" width="1.3263157894736843" height="20.883821784250813" fill="#3fb950" opacity="0.45"/>
<rect x="795.2207471184557" y="562.9033000031609" width="1.3263157894736843" height="17.096699996839106" fill="#f85149" opacity="0.45"/>
<rect x="797.4371059575059" y="563.5435754157206" width="1.3263157894736843" height="16.456424584279375" fill="#f85149" opacity="0.45"/>
<rect x="799.653464796556" y="562.6000539483384" width="1.3263157894736843" height="17.399946051661573" fill="#f85149" opacity="0.45"/>
<rect x="801.8698236356062" y="560.3229995926578" width="1.3263157894736843" height="19.677000407342234" fill="#3fb950" opacity="0.45"/>
<rect x="804.0861824746562" y="557.6559087970653" width="1.3263157894736843" height="22.344091202934692" fill="#3fb950" opacity="0.45"/>
<rect x="806.3025413137065" y="561.4056072730008" width="1.3263157894736843" height="18.594392726999217" fill="#f85149" opacity="0.45"/>
<rect x="808.5189001527566" y="541.6145907074565" width="1.3263157894736843" height="38.3854092925435" fill="#f85149" opacity="0.45"/>
<rect x="810.7352589918066" y="564.1668986717011" width="1.3263157894736843" height="15.83310132829888" fill="#f85149" opacity="0.45"/>
<rect x="812.9516178308568" y="561.8688732918035" width="1.3263157894736843" height="18.13112670819646" fill="#3fb950" opacity="0.45"/>
<rect x="815.1679766699069" y="568.9503560049894" width="1.3263157894736843" height="11.04964399501057" fill="#f85149" opacity="0.45"/>
<rect x="817.3843355089571" y="558.8143689661017" width="1.3263157894736843" height="21.18563103389829" fill="#3fb950" opacity="0.45"/>
<rect x="819.6006943480072" y="559.3214355872958" width="1.3263157894736843" height="20.67856441270419" fill="#3fb950" opacity="0.45"/>
<rect x="821.8170531870574" y="564.9149314088329" width="1.3263157894736843" height="15.0850685911671" fill="#f85149" opacity="0.45"/>
<rect x="824.0334120261074" y="548.5785311158381" width="1.3263157894736843" height="31.421468884161868" fill="#3fb950" opacity="0.45"/>
<rect x="826.2497708651576" y="559.3842761559184" width="1.3263157894736843" height="20.61572384408157" fill="#f85149" opacity="0.45"/>
<rect x="828.4661297042078" y="563.0168076119835" width="1.3263157894736843" height="16.983192388016505" fill="#f85149" opacity="0.45"/>
<rect x="830.6824885432578" y="566.4800794358216" width="1.3263157894736843" height="13.519920564178392" fill="#f85149" opacity="0.45"/>
<rect x="832.898847382308" y="564.6839795288215" width="1.3263157894736843" height="15.31602047117849" fill="#3fb950" opacity="0.45"/>
<rect x="835.1152062213581" y="564.4218718510236" width="1.3263157894736843" height="15.578128148976361" fill="#f85149" opacity="0.45"/>
<rect x="837.3315650604083" y="559.7945698127853" width="1.3263157894736843" height="20.205430187214688" fill="#f85149" opacity="0.45"/>
<rect x="839.5479238994584" y="559.6582096491597" width="1.3263157894736843" height="20.341790350840256" fill="#f85149" opacity="0.45"/>
<rect x="841.7642827385085" y="566.8339098149811" width="1.3263157894736843" height="13.166090185018902" fill="#3fb950" opacity="0.45"/>
<rect x="843.9806415775586" y="564.8057704675493" width="1.3263157894736843" height="15.194229532450663" fill="#3fb950" opacity="0.45"/>
<rect x="846.1970004166088" y="566.5839031615778" width="1.3263157894736843" height="13.416096838422163" fill="#f85149" opacity="0.45"/>
<rect x="848.413359255659" y="569.6126930657367" width="1.3263157894736843" height="10.387306934263279" fill="#f85149" opacity="0.45"/>
<rect x="850.629718094709" y="566.6746133595058" width="1.3263157894736843" height="13.32538664049423" fill="#f85149" opacity="0.45"/>
<rect x="852.8460769337592" y="569.6739778613074" width="1.3263157894736843" height="10.326022138692565" fill="#f85149" opacity="0.45"/>
<rect x="855.0624357728093" y="567.1707548490976" width="1.3263157894736843" height="12.829245150902352" fill="#3fb950" opacity="0.45"/>
<rect x="857.2787946118594" y="567.5882376377568" width="1.3263157894736843" height="12.411762362243167" fill="#f85149" opacity="0.45"/>
<rect x="859.4951534509096" y="569.6546774932855" width="1.3263157894736843" height="10.345322506714524" fill="#f85149" opacity="0.45"/>
<rect x="861.7115122899597" y="569.0955958696804" width="1.3263157894736843" height="10.904404130319563" fill="#3fb950" opacity="0.45"/>
<rect x="863.9278711290098" y="556.7894300077378" width="1.3263157894736843" height="23.210569992262208" fill="#3fb950" opacity="0.45"/>
<rect x="866.14422996806" y="561.7547054878527" width="1.3263157894736843" height="18.245294512147325" fill="#3fb950" opacity="0.45"/>
<rect x="868.3605888071102" y="556.1097997151244" width="1.3263157894736843" height="23.89020028487562" fill="#3fb950" opacity="0.45"/>
<rect x="870.5769476461602" y="544.1949585160702" width="1.3263157894736843" height="35.80504148392981" fill="#3fb950" opacity="0.45"/>
<rect x="872.7933064852103" y="557.6222526314956" width="1.3263157894736843" height="22.3777473685044" fill="#f85149" opacity="0.45"/>
<rect x="875.0096653242605" y="554.4273667215717" width="1.3263157894736843" height="25.57263327842827" fill="#f85149" opacity="0.45"/>
<rect x="877.2260241633106" y="561.1058112866101" width="1.3263157894736843" height="18.894188713389894" fill="#3fb950" opacity="0.45"/>
<rect x="879.4423830023608" y="550.4349176115442" width="1.3263157894736843" height="29.565082388455835" fill="#3fb950" opacity="0.45"/>
<rect x="881.6587418414109" y="545.5986620281057" width="1.3263157894736843" height="34.40133797189435" fill="#3fb950" opacity="0.45"/>
<rect x="883.875100680461" y="557.9764302130427" width="1.3263157894736843" height="22.023569786957296" fill="#f85149" opacity="0.45"/>
<rect x="886.0914595195112" y="554.6404652505711" width="1.3263157894736843" height="25.359534749428917" fill="#3fb950" opacity="0.45"/>
<rect x="888.3078183585613" y="548.5055690870224" width="1.3263157894736843" height="31.494430912977577" fill="#f85149" opacity="0.45"/>
<rect x="890.5241771976114" y="537.8622800441453" width="1.3263157894736843" height="42.137719955854664" fill="#3fb950" opacity="0.45"/>
<rect x="892.7405360366615" y="540.7271699976416" width="1.3263157894736843" height="39.27283000235843" fill="#3fb950" opacity="0.45"/>
<rect x="894.9568948757117" y="547.7014846091308" width="1.3263157894736843" height="32.29851539086917" fill="#f85149" opacity="0.45"/>
<rect x="897.1732537147618" y="559.0247174479538" width="1.3263157894736843" height="20.975282552046224" fill="#f85149" opacity="0.45"/>
<rect x="899.389612553812" y="547.4148399343577" width="1.3263157894736843" height="32.5851600656423" fill="#3fb950" opacity="0.45"/>
<rect x="901.6059713928621" y="511.6833267254906" width="1.3263157894736843" height="68.31667327450941" fill="#3fb950" opacity="0.45"/>
<rect x="903.8223302319121" y="542.2421411525071" width="1.3263157894736843" height="37.75785884749291" fill="#f85149" opacity="0.45"/>
<rect x="906.0386890709624" y="545.3563709265854" width="1.3263157894736843" height="34.64362907341456" fill="#f85149" opacity="0.45"/>
<rect x="908.2550479100125" y="533.4300965571412" width="1.3263157894736843" height="46.569903442858845" fill="#3fb950" opacity="0.45"/>
<rect x="910.4714067490626" y="546.7493606920017" width="1.3263157894736843" height="33.25063930799831" fill="#f85149" opacity="0.45"/>
<rect x="912.6877655881127" y="538.0359950999531" width="1.3263157894736843" height="41.964004900046916" fill="#3fb950" opacity="0.45"/>
<rect x="914.9041244271629" y="530.055612553305" width="1.3263157894736843" height="49.94438744669503" fill="#f85149" opacity="0.45"/>
<rect x="917.120483266213" y="538.9821124157752" width="1.3263157894736843" height="41.01788758422481" fill="#f85149" opacity="0.45"/>
<rect x="919.3368421052631" y="532.7376912590275" width="1.3263157894736843" height="47.26230874097246" fill="#3fb950" opacity="0.45"/>
<polyline points="80.0,362.56688492524563 82.21635883905013,348.70457796230403 84.43271767810026,362.4867559832634 86.64907651715039,368.4964266319375 88.86543535620052,364.5300440038126 91.08179419525067,367.7752661540966 93.2981530343008,376.5093208301696 95.51451187335093,364.4499150618302 97.73087071240106,351.6292843446588 99.94722955145119,347.0218701806753 102.16358839050132,351.6292843446588 104.37994722955145,354.674184139987 106.59630606860159,354.1132815461108 108.81266490765171,354.8344420239516 111.02902374670185,355.5956669727837 113.24538258575198,333.8807236955746 115.46174142480211,338.6083312725316 117.67810026385224,327.6707306919447 119.89445910290237,330.6755660162817 122.1108179419525,306.4365610666295 124.32717678100263,285.48284273825243 126.54353562005277,283.9603928405884 128.7598944591029,269.9778924646733 130.97625329815304,254.59313560406756 133.19261213720318,222.78194563708593 135.4089709762533,236.72438154200987 137.62532981530342,241.53211806094916 139.84168865435356,264.929769119787 142.0580474934037,282.2776850589596 144.27440633245382,287.0052926359166 146.49076517150397,263.6076415770787 148.70712401055408,261.56435355652945 150.92348284960423,256.6364236246167 153.13984168865437,272.9827277890103 155.3562005277045,256.07552103074056 157.5725593667546,268.2150557410622 159.78891820580475,258.439324819219 162.0052770448549,245.37830727610057 164.221635883905,233.1185791528054 166.43799472295512,237.1250262519215 168.65435356200527,260.96338649166216 170.8707124010554,260.3624194267947 173.08707124010553,268.5756359799826 175.30343007915567,264.408930996902 177.5197889182058,272.42182519513403 179.73614775725594,272.6221475500899 181.95250659630608,277.51001301101144 184.1688654353562,273.22311461495724 186.38522427440634,284.6815533184292 188.60158311345646,286.8450347519519 190.8179419525066,286.60464792600493 193.03430079155675,284.8418112023939 195.25065963060683,267.33363737925663 197.46701846965698,270.2182792906202 199.68337730870712,265.2502848877163 201.89973614775727,264.44899546789304 204.11609498680738,257.1572617475018 206.33245382585753,256.31590785668743 208.54881266490764,273.02279226000144 210.7651715039578,276.2279499392943 212.98153034300793,283.119038949774 215.19788918205805,300.6272127729112 217.4142480211082,313.16739219314456 219.6306068601583,314.40939079387044 221.84696569920843,306.23623871167376 224.06332453825857,310.6833949916926 226.27968337730871,309.48146086195777 228.49604221635883,325.8277650263513 230.71240105540898,328.9127292926707 232.92875989445912,315.0904868007202 235.14511873350924,314.4895197358528 237.36147757255938,316.532807756402 239.5778364116095,314.769971032791 241.79419525065964,313.5279724320649 244.01055408970976,311.4446199405246 246.22691292875987,305.555142704824 248.44327176781002,310.3628792237633 250.65963060686016,306.4365610666295 252.87598944591028,304.4734019880626 255.09234828496042,284.0004573115795 257.30870712401054,280.394654922375 259.5250659630607,272.3016317821606 261.7414248021108,266.3320256044776 263.957783641161,272.5420186081076 266.17414248021106,273.10292120198386 268.3905013192612,282.39787847193304 270.60686015831135,276.46833676524125 272.82321899736144,267.7743465601594 275.0395778364116,280.7151706903044 277.2559366754617,276.1077565263209 279.47229551451187,280.35459045138384 281.688654353562,264.5691888808666 283.90501319261216,263.2069968671671 286.12137203166225,267.9746689151152 288.3377308707124,259.56113000697144 290.5540897097625,266.8127992563716 292.7704485488127,285.4427782672613 294.98680738786277,290.4909016121475 297.2031662269129,287.6463241717752 299.41952506596306,285.9235519191552 301.6358839050132,278.4314958438082 303.85224274406335,284.0805862535618 306.0686015831135,288.28735570763365 308.2849604221636,289.52935430835976 310.50131926121367,285.122262499332 312.71767810026387,292.2537383357586 314.93403693931396,286.7248413389784 317.1503957783641,287.1655505198812 319.36675461741424,286.64471239699617 321.5831134564644,290.4508371411564 323.79947229551453,292.17360939377625 326.0158311345647,303.63204809724823 328.23218997361477,304.95417563995653 330.44854881266485,310.3228147527721 332.66490765171505,311.12410417259537 334.88126649076514,309.6016542749312 337.0976253298153,308.11926884825823 339.31398416886543,306.9974636605058 341.5303430079156,308.8804937970903 343.74670184696566,310.5632015787191 345.96306068601587,311.5648133534981 348.17941952506595,334.8823354703536 350.3957783641161,327.4704083369889 352.61213720316624,314.0488105549501 354.8284960422164,311.32442652755117 357.0448548812665,310.60326604971027 359.2612137203166,310.4430081657456 361.47757255936676,309.9622345138516 363.69393139841685,308.8404293260991 365.91029023746705,310.4430081657456 368.12664907651714,312.2459093603478 370.3430079155673,312.2459093603478 372.55936675461743,316.77319458234894 374.7757255936676,318.8966115448805 376.99208443271766,324.265250657696 379.2084432717678,324.1851217157137 381.42480211081795,323.744412534811 383.64116094986804,323.4639612378728 385.85751978891824,319.1770628418186 388.0738786279683,312.045587005392 390.29023746701847,312.08565147638313 392.5065963060686,311.76513570845384 394.72295514511876,314.8901644457644 396.93931398416885,312.4862961862948 399.155672823219,314.85009997477323 401.37203166226914,313.287585606118 403.5883905013193,319.0969338998363 405.80474934036937,321.1001574493943 408.0211081794195,319.8982233196595 410.23746701846966,319.3373207257833 412.45382585751975,320.6193837975004 414.67018469656995,322.6226073470585 416.88654353562004,324.8662177225634 419.1029023746702,300.066310179035 421.3192612137203,294.1768329433343 423.53562005277047,294.9781223631576 425.75197889182056,298.4637313393886 427.9683377308707,297.1416037966802 430.18469656992085,300.7874706568759 432.40105540897093,302.830758677425 434.61741424802113,302.2297916125576 436.8337730870712,304.83398222698304 439.05013192612137,305.87565847275323 441.2664907651715,300.827535127867 443.48284960422166,298.8643760493002 445.69920844327174,288.84825830150993 447.9155672823219,292.6944475166614 450.13192612137203,290.8114173800768 452.3482849604221,295.1383802471222 454.5646437994723,299.3050852302029 456.7810026385224,297.3819906226272 458.99736147757255,297.7826353325388 461.2137203166227,300.2666325339907 463.43007915567284,296.3002499058658 465.64643799472293,298.70411816533544 467.8627968337731,300.50701935993766 470.0791556728232,297.1816682676714 472.2955145118733,297.6223774485742 474.5118733509235,293.5358014074758 476.7282321899736,293.6559948204492 478.94459102902374,293.1351566975642 481.1609498680739,294.3771552982901 483.37730870712403,294.81786447919285 485.5936675461741,296.9412814417244 487.81002638522426,297.82269980352993 490.0263852242744,296.0197986089278 492.2427440633245,290.9716752640415 494.4591029023747,294.8979934211752 496.6754617414248,291.0117397350327 498.8918205804749,296.1800564928924 501.108179419525,296.580701202804 503.3245382585752,300.066310179035 505.54089709762536,295.05825130513983 507.75725593667545,295.4989604860426 509.9736147757256,296.7409590867686 512.1899736147757,298.0230221584858 514.4063324538258,300.1063746500261 516.622691292876,299.5855365271411 518.8390501319261,295.8996051959542 521.0554089709763,293.4957369364846 523.2717678100264,276.0676920553297 525.4881266490765,277.8305287789408 527.7044854881267,274.384984273701 529.9208443271768,280.35459045138384 532.137203166227,267.8144110311506 534.353562005277,271.1798265944081 536.5699208443272,241.01127993806406 538.7862796833774,207.837897957383 541.0026385224273,206.99654406656867 543.2189973614776,217.49343546625272 545.4353562005277,202.22887201862048 547.6517150395778,218.29472488607595 549.8680738786279,203.71125744529346 552.084432717678,212.2049252954195 554.3007915567282,224.1842021217766 556.5171503957783,254.43287772010288 558.7335092348285,242.57379430671935 560.9498680738786,236.36380130308945 563.1662269129288,247.78217553557022 565.3825857519789,237.44554201985076 567.5989445910291,203.91157980024923 569.8153034300792,180.35367085744676 572.0316622691294,162.3647233824156 574.2480211081794,126.22657054838861 576.4643799472295,138.2058473747457 578.6807387862798,132.47662802300968 580.8970976253297,144.85654955927836 583.11345646438,102.06769454071868 585.3298153034301,113.20561747626135 587.5461741424801,101.90743665675407 589.7625329815303,70.05618221878132 591.9788918205804,90.32880454030862 594.1952506596306,89.88809535940585 596.4116094986807,95.09647658825673 598.6279683377309,79.43126843071292 600.844327176781,118.69445000205042 603.0606860158312,113.40593983121718 605.2770448548813,150.18512420110272 607.4934036939313,130.83398471237211 609.7097625329816,141.8517142349413 611.9261213720317,153.1899595254398 614.1424802110818,152.38867010561654 616.3588390501319,139.3276525624982 618.575197889182,133.558368739771 620.7915567282322,141.93184317692362 623.0079155672823,116.45083962654542 625.2242744063325,112.12387675950006 627.4406332453825,118.13354740817417 629.6569920844328,114.80819631590782 631.8733509234829,129.55192164065494 634.089709762533,146.37899945694244 636.3060686015831,146.33893498595134 638.5224274406332,143.29403519062308 640.7387862796834,145.69790345009272 642.9551451187335,114.12710030905808 645.1715039577837,127.5086336201058 647.3878627968337,144.5760982623402 649.604221635884,148.1418361805535 651.8205804749341,154.03131341625414 654.0369393139841,149.98480184614695 656.2532981530343,169.41607027685987 658.4696569920844,168.8151032119925 660.6860158311346,170.49781099362121 662.9023746701847,172.2606477172323 665.1187335092349,172.3808411302058 667.3350923482849,189.1678544755021 669.5514511873351,189.84895048235185 671.7678100263853,191.53165826398055 673.9841688654353,181.15496027727 676.2005277044855,175.7061922224721 678.4168865435356,175.58599880949862 680.6332453825858,167.69329802424 682.8496042216359,173.7830976148964 685.065963060686,180.1132840314998 687.2823218997361,172.9016792530909 689.4986807387863,176.5074816422953 691.7150395778365,166.89200860441673 693.9313984168865,171.69974512335605 696.1477572559367,211.8042805855079 698.3641160949868,213.7674396640748 700.5804749340369,216.49182369147368 702.7968337730871,230.39419512540647 705.0131926121372,241.45198911896685 707.2295514511873,228.39097157584845 709.4459102902375,232.79806338487614 711.6622691292876,228.91180969873355 713.8786279683377,222.58162328213012 716.0949868073878,221.66014044933345 718.311345646438,223.70342846988262 720.5277044854881,225.58645860646715 722.7440633245383,229.07206758269817 724.9604221635883,231.55606478415018 727.1767810026386,230.75477536432695 729.3931398416887,229.7531635895479 731.6094986807387,221.0992378554572 733.8258575197889,214.40847119993336 736.042216358839,215.73059874264166 738.2585751978892,200.26571294005365 740.4749340369393,198.90352092635413 742.6912928759895,188.2864361136966 744.9076517150395,206.27538358872772 747.1240105540898,198.54294068743368 749.3403693931399,199.82500375915086 751.5567282321899,198.34261833247788 753.7730870712401,195.29771853714973 755.9894459102902,204.83306263304593 758.2058047493404,179.31199461167654 760.4221635883905,184.44024689854513 762.6385224274406,188.6069518816259 764.8548812664907,199.34423010725692 767.0712401055409,201.14713130185913 769.2875989445911,206.03499676278074 771.5039577836411,213.8475686060571 773.7203166226913,213.20653707019855 775.9366754617414,223.62329952790031 778.1530343007915,221.299560210413 780.3693931398417,227.3893598010694 782.5857519788918,230.71471089333573 784.8021108179419,225.14574942556442 787.0184696569921,207.35712430548907 789.2348284960423,207.47731771846256 791.4511873350923,214.76905143885384 793.6675461741424,203.79138638727576 795.8839050131926,205.4740941689045 798.1002638522427,206.27538358872772 800.3166226912929,209.80105703594984 802.532981530343,204.1519666261962 804.749340369393,203.55099956132878 806.9656992084433,210.48215304279958 809.1820580474935,239.20837874346182 811.3984168865435,243.0145034876221 813.6147757255936,233.15864362379654 815.8311345646438,235.5625118832662 818.0474934036939,225.86690990340531 820.2638522427441,219.53672348680195 822.4802110817942,220.09762608067817 824.6965699208442,212.80589236028692 826.9129287598945,215.8908566266063 829.1292875989446,219.7771103127489 831.3456464379947,230.75477536432695 833.5620052770448,222.3412364561832 835.778364116095,233.2387725657789 837.9947229551451,237.2852841358861 840.2110817941953,254.03223301019128 842.4274406332454,249.6251412011636 844.6437994722954,240.12986157625855 846.8601583113457,244.49688891429508 849.0765171503958,246.62030587682656 851.2928759894459,252.75016993847413 853.509234828496,257.9585511673251 855.7255936675461,250.78701085990727 857.9419525065963,260.0419036588654 860.1583113456464,260.80312860769743 862.3746701846966,260.6028062527417 864.5910290237466,240.73082864112592 866.8073878627969,239.1282498014795 869.023746701847,231.11535560324737 871.240105540897,216.33156580750907 873.4564643799472,216.89246840138534 875.6728232189973,219.1360787768903 877.8891820580475,216.33156580750907 880.1055408970976,212.6055700053311 882.3218997361478,204.3923534521432 884.5382585751978,214.68892249687144 886.7546174142481,204.91319157502826 888.9709762532982,205.5542231108868 891.1873350923482,201.22726024384147 893.4036939313984,195.29771853714973 895.6200527704485,208.67925184819737 897.8364116094987,210.60234645577307 900.0527704485488,200.42597082401826 902.269129287599,173.02187266606435 904.485488126649,177.22864212013621 906.7018469656992,187.0444375129706 908.9182058047494,172.02026089128532 911.1345646437994,182.55721676196058 913.3509234828496,169.37600580586877 915.5672823218997,181.87612075511086 917.7836411609499,194.4163001753442 920.0,177.42896447509202" stroke="#58a6ff" stroke-width="1.8" fill="none"/>
<line x1="80" y1="179.31199461167654" x2="920" y2="179.31199461167654" stroke="#f0883e" stroke-width="1.5" stroke-dasharray="6,3"/>
<text x="925" y="183.31199461167654" font-size="11" fill="#f0883e" font-weight="bold">颈线 98.23</text>
<line x1="80" y1="117.17200010438629" x2="920" y2="117.17200010438629" stroke="#a371f7" stroke-width="1.2" stroke-dasharray="4,4"/>
<text x="925" y="121.17200010438629" font-size="11" fill="#a371f7" font-weight="bold">目标 113.74 (+15.2%)</text>
<circle cx="705.0131926121372" cy="241.45198911896685" r="6" fill="#238636" stroke="#fff" stroke-width="2"/>
<text x="705.0131926121372" y="261.4519891189668" text-anchor="middle" font-size="10" fill="#3fb950">左底 82.72</text>
<circle cx="782.5857519788918" cy="230.71471089333573" r="6" fill="#8957e5" stroke="#fff" stroke-width="2"/>
<text x="782.5857519788918" y="250.71471089333573" text-anchor="middle" font-size="10" fill="#bc8cff">右底 85.40</text>
<circle cx="902.269129287599" cy="179.31199461167654" r="7" fill="#f0883e" stroke="#fff" stroke-width="2"/>
<text x="902.269129287599" y="167.31199461167654" text-anchor="middle" font-size="10" fill="#f0883e">突破</text>
<line x1="920.0" y1="177.42896447509202" x2="920" y2="177.42896447509202" stroke="#f85149" stroke-width="1"/>
<text x="925" y="181.42896447509202" font-size="11" fill="#f85149" font-weight="bold">现价 98.70</text>
<text x="80" y="598" font-size="13" fill="#58a6ff" font-weight="bold">筛选高分原因:</text>
<text x="90" y="618" font-size="11" fill="#c9d1d9">  1. 突破8天</text>
<text x="90" y="636" font-size="11" fill="#c9d1d9">  2. 右底显著缩量(31%)</text>
<text x="90" y="654" font-size="11" fill="#c9d1d9">  3. 形态跨度大(35根K线)</text>
<text x="90" y="672" font-size="11" fill="#c9d1d9">  4. MACD改善</text>
<text x="90" y="690" font-size="11" fill="#c9d1d9">  5. 右底高于左底</text>
<text x="928" y="80" font-size="11" fill="#8b949e">突破日: 2026-05-06</text>
<text x="928" y="98" font-size="11" fill="#8b949e">突破后涨幅: 0.5%</text>
<text x="928" y="116" font-size="11" fill="#8b949e">目标空间: 15.2%</text>
<text x="928" y="134" font-size="11" fill="#8b949e">形态跨度: 35根K线</text>
</svg>