<svg xmlns="http://www.w3.org/2000/svg" viewBox="0 0 1000 700" width="1000" height="700">
<rect width="1000" height="700" fill="#0d1117"/>
<text x="500.0" y="24" text-anchor="middle" font-size="18" fill="#58a6ff" font-weight="bold">思看科技 (688583.SH)</text>
<text x="500.0" y="46" text-anchor="middle" font-size="14" fill="#8b949e">双底突破 | 评分:77/100 | 突破后涨幅:2.2% | 目标空间:8.8%</text>
<line x1="80" y1="382.4" x2="920" y2="382.4" stroke="#21262d" stroke-width="0.5"/>
<text x="72" y="386.4" text-anchor="end" font-size="10" fill="#8b949e">73.82</text>
<line x1="80" y1="317.91999999999996" x2="920" y2="317.91999999999996" stroke="#21262d" stroke-width="0.5"/>
<text x="72" y="321.91999999999996" text-anchor="end" font-size="10" fill="#8b949e">93.97</text>
<line x1="80" y1="253.44000000000003" x2="920" y2="253.44000000000003" stroke="#21262d" stroke-width="0.5"/>
<text x="72" y="257.44000000000005" text-anchor="end" font-size="10" fill="#8b949e">114.13</text>
<line x1="80" y1="188.96" x2="920" y2="188.96" stroke="#21262d" stroke-width="0.5"/>
<text x="72" y="192.96" text-anchor="end" font-size="10" fill="#8b949e">134.28</text>
<line x1="80" y1="124.48000000000002" x2="920" y2="124.48000000000002" stroke="#21262d" stroke-width="0.5"/>
<text x="72" y="128.48000000000002" text-anchor="end" font-size="10" fill="#8b949e">154.44</text>
<line x1="80" y1="60.0" x2="920" y2="60.0" stroke="#21262d" stroke-width="0.5"/>
<text x="72" y="64.0" text-anchor="end" font-size="10" fill="#8b949e">174.59</text>
<text x="80.0" y="396.4" text-anchor="middle" font-size="9" fill="#8b949e">2025-01-15</text>
<text x="185.32915360501568" y="396.4" text-anchor="middle" font-size="9" fill="#8b949e">2025-03-20</text>
<text x="290.65830721003135" y="396.4" text-anchor="middle" font-size="9" fill="#8b949e">2025-05-21</text>
<text x="395.98746081504703" y="396.4" text-anchor="middle" font-size="9" fill="#8b949e">2025-07-17</text>
<text x="501.31661442006265" y="396.4" text-anchor="middle" font-size="9" fill="#8b949e">2025-09-11</text>
<text x="606.6457680250784" y="396.4" text-anchor="middle" font-size="9" fill="#8b949e">2025-11-14</text>
<text x="711.9749216300941" y="396.4" text-anchor="middle" font-size="9" fill="#8b949e">2026-01-13</text>
<text x="817.3040752351097" y="396.4" text-anchor="middle" font-size="9" fill="#8b949e">2026-03-18</text>
<rect x="798.871473354232" y="60" width="121.12852664576803" height="520.0" fill="#238636" opacity="0.10" rx="4"/>
<text x="859.435736677116" y="52" text-anchor="middle" font-size="11" fill="#3fb950" font-weight="bold">双底区域</text>
<rect x="79.2125" y="471.6666666666667" width="1.575" height="108.33333333333331" fill="#3fb950" opacity="0.45"/>
<rect x="81.8457288401254" y="511.04423376738896" width="1.575" height="68.95576623261104" fill="#f85149" opacity="0.45"/>
<rect x="84.47895768025079" y="520.2350557779379" width="1.575" height="59.76494422206213" fill="#f85149" opacity="0.45"/>
<rect x="87.11218652037618" y="540.8743254825034" width="1.575" height="39.12567451749658" fill="#3fb950" opacity="0.45"/>
<rect x="89.74541536050157" y="539.2946463504185" width="1.575" height="40.705353649581525" fill="#3fb950" opacity="0.45"/>
<rect x="92.37864420062697" y="539.1733299325426" width="1.575" height="40.82667006745737" fill="#f85149" opacity="0.45"/>
<rect x="95.01187304075236" y="528.3704883035768" width="1.575" height="51.62951169642315" fill="#3fb950" opacity="0.45"/>
<rect x="97.64510188087775" y="546.2227957455809" width="1.575" height="33.777204254419075" fill="#3fb950" opacity="0.45"/>
<rect x="100.27833072100314" y="549.2463303022179" width="1.575" height="30.75366969778213" fill="#f85149" opacity="0.45"/>
<rect x="102.91155956112854" y="536.9891803980738" width="1.575" height="43.01081960192619" fill="#3fb950" opacity="0.45"/>
<rect x="105.54478840125392" y="538.4768427693417" width="1.575" height="41.523157230658285" fill="#3fb950" opacity="0.45"/>
<rect x="108.17801724137931" y="544.1159339551374" width="1.575" height="35.88406604486261" fill="#3fb950" opacity="0.45"/>
<rect x="110.8112460815047" y="556.5647933631432" width="1.575" height="23.435206636856833" fill="#3fb950" opacity="0.45"/>
<rect x="113.4444749216301" y="558.6819496276885" width="1.575" height="21.318050372311518" fill="#3fb950" opacity="0.45"/>
<rect x="116.07770376175549" y="556.8416566450875" width="1.575" height="23.158343354912517" fill="#f85149" opacity="0.45"/>
<rect x="118.71093260188088" y="558.7990321131389" width="1.575" height="21.20096788686112" fill="#f85149" opacity="0.45"/>
<rect x="121.34416144200628" y="563.0952276296246" width="1.575" height="16.90477237037544" fill="#f85149" opacity="0.45"/>
<rect x="123.97739028213167" y="563.8757599352356" width="1.575" height="16.12424006476442" fill="#3fb950" opacity="0.45"/>
<rect x="126.61061912225706" y="567.1540272941068" width="1.575" height="12.845972705893246" fill="#f85149" opacity="0.45"/>
<rect x="129.24384796238243" y="565.1869802996172" width="1.575" height="14.813019700382824" fill="#3fb950" opacity="0.45"/>
<rect x="131.87707680250784" y="562.8900877964732" width="1.575" height="17.109912203526846" fill="#f85149" opacity="0.45"/>
<rect x="134.51030564263323" y="565.1912036736077" width="1.575" height="14.808796326392326" fill="#f85149" opacity="0.45"/>
<rect x="137.1435344827586" y="567.1531826193086" width="1.575" height="12.846817380691391" fill="#f85149" opacity="0.45"/>
<rect x="139.77676332288402" y="549.3985195839639" width="1.575" height="30.60148041603611" fill="#3fb950" opacity="0.45"/>
<rect x="142.4099921630094" y="558.2756610498067" width="1.575" height="21.724338950193328" fill="#3fb950" opacity="0.45"/>
<rect x="145.0432210031348" y="564.9207915954338" width="1.575" height="15.079208404566202" fill="#f85149" opacity="0.45"/>
<rect x="147.6764498432602" y="560.4719633429331" width="1.575" height="19.528036657066878" fill="#f85149" opacity="0.45"/>
<rect x="150.30967868338558" y="563.8399034900566" width="1.575" height="16.1600965099434" fill="#f85149" opacity="0.45"/>
<rect x="152.94290752351097" y="569.6144066044213" width="1.575" height="10.385593395578667" fill="#3fb950" opacity="0.45"/>
<rect x="155.57613636363638" y="565.1022171836288" width="1.575" height="14.897782816371205" fill="#f85149" opacity="0.45"/>
<rect x="158.20936520376176" y="561.4773480797959" width="1.575" height="18.52265192020411" fill="#3fb950" opacity="0.45"/>
<rect x="160.84259404388715" y="565.300768553355" width="1.575" height="14.699231446644944" fill="#f85149" opacity="0.45"/>
<rect x="163.47582288401256" y="568.7554673606775" width="1.575" height="11.244532639322529" fill="#f85149" opacity="0.45"/>
<rect x="166.10905172413794" y="568.1027554688876" width="1.575" height="11.897244531112392" fill="#f85149" opacity="0.45"/>
<rect x="168.74228056426333" y="571.8231150586446" width="1.575" height="8.17688494135541" fill="#f85149" opacity="0.45"/>
<rect x="171.37550940438874" y="557.3433512414136" width="1.575" height="22.656648758586357" fill="#f85149" opacity="0.45"/>
<rect x="174.00873824451412" y="563.7840071352929" width="1.575" height="16.21599286470712" fill="#3fb950" opacity="0.45"/>
<rect x="176.6419670846395" y="544.4253700089831" width="1.575" height="35.57462999101688" fill="#3fb950" opacity="0.45"/>
<rect x="179.2751959247649" y="565.4343749895431" width="1.575" height="14.56562501045687" fill="#f85149" opacity="0.45"/>
<rect x="181.90842476489027" y="567.0964521481818" width="1.575" height="12.903547851818189" fill="#f85149" opacity="0.45"/>
<rect x="184.54165360501568" y="557.4709921618402" width="1.575" height="22.529007838159828" fill="#3fb950" opacity="0.45"/>
<rect x="187.1748824451411" y="560.8533551311411" width="1.575" height="19.146644868858857" fill="#f85149" opacity="0.45"/>
<rect x="189.80811128526645" y="565.8808067372041" width="1.575" height="14.119193262795875" fill="#f85149" opacity="0.45"/>
<rect x="192.44134012539186" y="570.0433324668919" width="1.575" height="9.956667533108089" fill="#f85149" opacity="0.45"/>
<rect x="195.07456896551724" y="547.7430097718803" width="1.575" height="32.25699022811966" fill="#3fb950" opacity="0.45"/>
<rect x="197.70779780564263" y="565.2862718221328" width="1.575" height="14.71372817786721" fill="#f85149" opacity="0.45"/>
<rect x="200.34102664576804" y="570.3597159709519" width="1.575" height="9.640284029048075" fill="#f85149" opacity="0.45"/>
<rect x="202.97425548589342" y="567.8393541915378" width="1.575" height="12.160645808462164" fill="#3fb950" opacity="0.45"/>
<rect x="205.6074843260188" y="562.3914973800299" width="1.575" height="17.608502619970068" fill="#f85149" opacity="0.45"/>
<rect x="208.2407131661442" y="569.5511299036093" width="1.575" height="10.448870096390692" fill="#3fb950" opacity="0.45"/>
<rect x="210.8739420062696" y="566.427786461143" width="1.575" height="13.572213538857" fill="#f85149" opacity="0.45"/>
<rect x="213.50717084639498" y="560.2514715453264" width="1.575" height="19.748528454673647" fill="#f85149" opacity="0.45"/>
<rect x="216.14039968652037" y="567.1982776950917" width="1.575" height="12.801722304908253" fill="#f85149" opacity="0.45"/>
<rect x="218.77362852664578" y="567.5149357184611" width="1.575" height="12.48506428153894" fill="#3fb950" opacity="0.45"/>
<rect x="221.40685736677116" y="566.2656300167795" width="1.575" height="13.734369983220517" fill="#3fb950" opacity="0.45"/>
<rect x="224.04008620689658" y="571.1288557252236" width="1.575" height="8.871144274776384" fill="#3fb950" opacity="0.45"/>
<rect x="226.67331504702196" y="572.651698801832" width="1.575" height="7.348301198167974" fill="#3fb950" opacity="0.45"/>
<rect x="229.30654388714734" y="573.942868698194" width="1.575" height="6.057131301805953" fill="#f85149" opacity="0.45"/>
<rect x="231.93977272727273" y="569.9381176623547" width="1.575" height="10.06188233764533" fill="#f85149" opacity="0.45"/>
<rect x="234.5730015673981" y="573.541088572047" width="1.575" height="6.458911427953012" fill="#f85149" opacity="0.45"/>
<rect x="237.20623040752352" y="574.6779786165376" width="1.575" height="5.322021383462356" fill="#3fb950" opacity="0.45"/>
<rect x="239.8394592476489" y="572.8097057812499" width="1.575" height="7.1902942187500685" fill="#3fb950" opacity="0.45"/>
<rect x="242.4726880877743" y="573.7757920231317" width="1.575" height="6.2242079768683425" fill="#f85149" opacity="0.45"/>
<rect x="245.1059169278997" y="566.8454147981892" width="1.575" height="13.154585201810846" fill="#3fb950" opacity="0.45"/>
<rect x="247.73914576802508" y="570.8068023415815" width="1.575" height="9.193197658418512" fill="#f85149" opacity="0.45"/>
<rect x="250.3723746081505" y="572.4937129392841" width="1.575" height="7.506287060715863" fill="#3fb950" opacity="0.45"/>
<rect x="253.00560344827588" y="567.7958956731761" width="1.575" height="12.204104326823881" fill="#3fb950" opacity="0.45"/>
<rect x="255.63883228840123" y="572.2506155323935" width="1.575" height="7.749384467606546" fill="#f85149" opacity="0.45"/>
<rect x="258.2720611285266" y="573.6405067957824" width="1.575" height="6.359493204217642" fill="#3fb950" opacity="0.45"/>
<rect x="260.905289968652" y="562.8152179340574" width="1.575" height="17.184782065942613" fill="#3fb950" opacity="0.45"/>
<rect x="263.53851880877744" y="556.7423334472669" width="1.575" height="23.2576665527331" fill="#f85149" opacity="0.45"/>
<rect x="266.1717476489028" y="564.3120450268846" width="1.575" height="15.687954973115438" fill="#f85149" opacity="0.45"/>
<rect x="268.8049764890282" y="570.0923024883112" width="1.575" height="9.907697511688752" fill="#f85149" opacity="0.45"/>
<rect x="271.43820532915356" y="568.8989987257431" width="1.575" height="11.101001274256873" fill="#3fb950" opacity="0.45"/>
<rect x="274.071434169279" y="573.3699785748238" width="1.575" height="6.63002142517621" fill="#3fb950" opacity="0.45"/>
<rect x="276.7046630094044" y="570.983128205683" width="1.575" height="9.016871794317012" fill="#3fb950" opacity="0.45"/>
<rect x="279.33789184952974" y="572.288900417617" width="1.575" height="7.711099582382985" fill="#f85149" opacity="0.45"/>
<rect x="281.97112068965515" y="573.990191603757" width="1.575" height="6.009808396242988" fill="#3fb950" opacity="0.45"/>
<rect x="284.6043495297805" y="572.4535908863747" width="1.575" height="7.546409113625259" fill="#f85149" opacity="0.45"/>
<rect x="287.2375783699059" y="576.6999400313381" width="1.575" height="3.3000599686619125" fill="#3fb950" opacity="0.45"/>
<rect x="289.87080721003133" y="574.4311751989704" width="1.575" height="5.568824801029564" fill="#f85149" opacity="0.45"/>
<rect x="292.50403605015674" y="570.5018430641657" width="1.575" height="9.498156935834345" fill="#f85149" opacity="0.45"/>
<rect x="295.13726489028215" y="575.6644004041834" width="1.575" height="4.335599595816575" fill="#f85149" opacity="0.45"/>
<rect x="297.7704937304075" y="576.6832999378157" width="1.575" height="3.3167000621842817" fill="#3fb950" opacity="0.45"/>
<rect x="300.40372257053286" y="576.0407874942127" width="1.575" height="3.9592125057872636" fill="#f85149" opacity="0.45"/>
<rect x="303.0369514106583" y="576.0846472331036" width="1.575" height="3.915352766896376" fill="#3fb950" opacity="0.45"/>
<rect x="305.6701802507837" y="575.6820435490285" width="1.575" height="4.317956450971451" fill="#3fb950" opacity="0.45"/>
<rect x="308.30340909090904" y="573.737992825917" width="1.575" height="6.26200717408301" fill="#f85149" opacity="0.45"/>
<rect x="310.93663793103445" y="576.1819960035837" width="1.575" height="3.818003996416337" fill="#3fb950" opacity="0.45"/>
<rect x="313.56986677115987" y="573.6290508938332" width="1.575" height="6.37094910616679" fill="#3fb950" opacity="0.45"/>
<rect x="316.2030956112852" y="575.6835111714902" width="1.575" height="4.316488828509819" fill="#3fb950" opacity="0.45"/>
<rect x="318.83632445141063" y="577.5650031673681" width="1.575" height="2.434996832631896" fill="#f85149" opacity="0.45"/>
<rect x="321.46955329153604" y="576.452587575152" width="1.575" height="3.5474124248479484" fill="#3fb950" opacity="0.45"/>
<rect x="324.10278213166146" y="572.0698973593419" width="1.575" height="7.930102640658106" fill="#f85149" opacity="0.45"/>
<rect x="326.7360109717868" y="574.6475280900665" width="1.575" height="5.352471909933456" fill="#3fb950" opacity="0.45"/>
<rect x="329.36923981191217" y="575.8869299797404" width="1.575" height="4.113070020259556" fill="#3fb950" opacity="0.45"/>
<rect x="332.0024686520376" y="576.0451586862929" width="1.575" height="3.9548413137071066" fill="#f85149" opacity="0.45"/>
<rect x="334.635697492163" y="558.976382145433" width="1.575" height="21.023617854566965" fill="#3fb950" opacity="0.45"/>
<rect x="337.26892633228834" y="566.8690023419258" width="1.575" height="13.130997658074193" fill="#f85149" opacity="0.45"/>
<rect x="339.90215517241376" y="571.1718179971416" width="1.575" height="8.828182002858398" fill="#3fb950" opacity="0.45"/>
<rect x="342.53538401253917" y="567.0735825780234" width="1.575" height="12.926417421976566" fill="#f85149" opacity="0.45"/>
<rect x="345.1686128526645" y="561.7566398017847" width="1.575" height="18.243360198215328" fill="#f85149" opacity="0.45"/>
<rect x="347.80184169278994" y="570.5721622411068" width="1.575" height="9.427837758893247" fill="#3fb950" opacity="0.45"/>
<rect x="350.43507053291535" y="567.5944090585265" width="1.575" height="12.40559094147352" fill="#3fb950" opacity="0.45"/>
<rect x="353.0682993730407" y="572.514998744196" width="1.575" height="7.485001255804036" fill="#3fb950" opacity="0.45"/>
<rect x="355.7015282131661" y="571.8966123245135" width="1.575" height="8.103387675486488" fill="#f85149" opacity="0.45"/>
<rect x="358.3347570532915" y="573.4413535952624" width="1.575" height="6.558646404737601" fill="#3fb950" opacity="0.45"/>
<rect x="360.9679858934169" y="572.395097156607" width="1.575" height="7.604902843393006" fill="#3fb950" opacity="0.45"/>
<rect x="363.6012147335423" y="573.8788740238036" width="1.575" height="6.1211259761963674" fill="#f85149" opacity="0.45"/>
<rect x="366.2344435736677" y="570.8188072821494" width="1.575" height="9.18119271785065" fill="#f85149" opacity="0.45"/>
<rect x="368.8676724137931" y="574.4531156268508" width="1.575" height="5.546884373149169" fill="#3fb950" opacity="0.45"/>
<rect x="371.50090125391847" y="568.6049568700926" width="1.575" height="11.395043129907435" fill="#3fb950" opacity="0.45"/>
<rect x="374.1341300940439" y="533.1782399946565" width="1.575" height="46.82176000534355" fill="#3fb950" opacity="0.45"/>
<rect x="376.7673589341693" y="544.709508052626" width="1.575" height="35.290491947373994" fill="#3fb950" opacity="0.45"/>
<rect x="379.40058777429465" y="550.4602124545545" width="1.575" height="29.539787545445506" fill="#3fb950" opacity="0.45"/>
<rect x="382.03381661442006" y="566.3774016094369" width="1.575" height="13.622598390563098" fill="#f85149" opacity="0.45"/>
<rect x="384.6670454545454" y="564.0081521514013" width="1.575" height="15.991847848598695" fill="#f85149" opacity="0.45"/>
<rect x="387.3002742946708" y="556.717975137777" width="1.575" height="23.28202486222301" fill="#3fb950" opacity="0.45"/>
<rect x="389.9335031347962" y="556.0374945619999" width="1.575" height="23.962505438000107" fill="#f85149" opacity="0.45"/>
<rect x="392.5667319749216" y="560.0639009479753" width="1.575" height="19.9360990520247" fill="#3fb950" opacity="0.45"/>
<rect x="395.199960815047" y="561.4398973109355" width="1.575" height="18.56010268906448" fill="#f85149" opacity="0.45"/>
<rect x="397.83318965517236" y="563.8051662389851" width="1.575" height="16.194833761014934" fill="#f85149" opacity="0.45"/>
<rect x="400.4664184952978" y="571.6909023358735" width="1.575" height="8.309097664126512" fill="#f85149" opacity="0.45"/>
<rect x="403.0996473354232" y="573.2578057616372" width="1.575" height="6.742194238362799" fill="#f85149" opacity="0.45"/>
<rect x="405.73287617554854" y="571.44240956871" width="1.575" height="8.55759043129001" fill="#f85149" opacity="0.45"/>
<rect x="408.36610501567395" y="568.4229716848439" width="1.575" height="11.577028315156099" fill="#3fb950" opacity="0.45"/>
<rect x="410.99933385579936" y="573.1730954378237" width="1.575" height="6.82690456217631" fill="#f85149" opacity="0.45"/>
<rect x="413.6325626959248" y="565.7068987547123" width="1.575" height="14.293101245287744" fill="#f85149" opacity="0.45"/>
<rect x="416.26579153605013" y="572.4788361044027" width="1.575" height="7.521163895597283" fill="#3fb950" opacity="0.45"/>
<rect x="418.89902037617554" y="564.8682211476876" width="1.575" height="15.131778852312436" fill="#f85149" opacity="0.45"/>
<rect x="421.53224921630095" y="568.8532595854265" width="1.575" height="11.146740414573514" fill="#f85149" opacity="0.45"/>
<rect x="424.1654780564263" y="572.732270219135" width="1.575" height="7.267729780865011" fill="#3fb950" opacity="0.45"/>
<rect x="426.7987068965517" y="570.6841344440287" width="1.575" height="9.3158655559713" fill="#3fb950" opacity="0.45"/>
<rect x="429.4319357366771" y="563.9366821050478" width="1.575" height="16.063317894952206" fill="#3fb950" opacity="0.45"/>
<rect x="432.0651645768025" y="568.7282582737439" width="1.575" height="11.271741726256096" fill="#3fb950" opacity="0.45"/>
<rect x="434.69839341692784" y="560.3316628589702" width="1.575" height="19.668337141029838" fill="#3fb950" opacity="0.45"/>
<rect x="437.33162225705325" y="569.1895246225465" width="1.575" height="10.810475377453486" fill="#f85149" opacity="0.45"/>
<rect x="439.96485109717867" y="570.703910392739" width="1.575" height="9.296089607261024" fill="#3fb950" opacity="0.45"/>
<rect x="442.598079937304" y="571.5724472538761" width="1.575" height="8.427552746123865" fill="#f85149" opacity="0.45"/>
<rect x="445.23130877742943" y="566.4312073940753" width="1.575" height="13.568792605924727" fill="#3fb950" opacity="0.45"/>
<rect x="447.86453761755484" y="560.6961505927814" width="1.575" height="19.30384940721865" fill="#f85149" opacity="0.45"/>
<rect x="450.4977664576802" y="566.795051063353" width="1.575" height="13.204948936647043" fill="#3fb950" opacity="0.45"/>
<rect x="453.1309952978056" y="548.7281645473289" width="1.575" height="31.271835452671098" fill="#3fb950" opacity="0.45"/>
<rect x="455.764224137931" y="564.3364033363745" width="1.575" height="15.663596663625526" fill="#f85149" opacity="0.45"/>
<rect x="458.39745297805644" y="567.1095657244222" width="1.575" height="12.890434275577832" fill="#3fb950" opacity="0.45"/>
<rect x="461.0306818181818" y="563.3307651970722" width="1.575" height="16.669234802927804" fill="#f85149" opacity="0.45"/>
<rect x="463.6639106583072" y="565.0789675098113" width="1.575" height="14.921032490188736" fill="#3fb950" opacity="0.45"/>
<rect x="466.2971394984326" y="551.8965608318383" width="1.575" height="28.103439168161685" fill="#3fb950" opacity="0.45"/>
<rect x="468.93036833855797" y="540.9838903622508" width="1.575" height="39.016109637749196" fill="#3fb950" opacity="0.45"/>
<rect x="471.5635971786834" y="549.8650123580796" width="1.575" height="30.13498764192036" fill="#f85149" opacity="0.45"/>
<rect x="474.1968260188088" y="551.1037913000899" width="1.575" height="28.896208699910062" fill="#3fb950" opacity="0.45"/>
<rect x="476.83005485893415" y="557.2929769481425" width="1.575" height="22.707023051857504" fill="#3fb950" opacity="0.45"/>
<rect x="479.4632836990595" y="540.7471280163459" width="1.575" height="39.25287198365413" fill="#3fb950" opacity="0.45"/>
<rect x="482.0965125391849" y="553.2695691577004" width="1.575" height="26.730430842299597" fill="#f85149" opacity="0.45"/>
<rect x="484.7297413793103" y="563.1232602744861" width="1.575" height="16.876739725513858" fill="#3fb950" opacity="0.45"/>
<rect x="487.3629702194357" y="550.7627010581858" width="1.575" height="29.237298941814174" fill="#f85149" opacity="0.45"/>
<rect x="489.9961990595611" y="563.7208360188307" width="1.575" height="16.27916398116929" fill="#3fb950" opacity="0.45"/>
<rect x="492.6294278996865" y="569.2425068492568" width="1.575" height="10.757493150743244" fill="#3fb950" opacity="0.45"/>
<rect x="495.26265673981186" y="571.073846278998" width="1.575" height="8.926153721002038" fill="#f85149" opacity="0.45"/>
<rect x="497.89588557993727" y="572.637592732704" width="1.575" height="7.362407267296021" fill="#3fb950" opacity="0.45"/>
<rect x="500.5291144200626" y="569.335368284872" width="1.575" height="10.664631715128053" fill="#3fb950" opacity="0.45"/>
<rect x="503.16234326018804" y="566.2983611652055" width="1.575" height="13.701638834794494" fill="#3fb950" opacity="0.45"/>
<rect x="505.79557210031345" y="567.4344910023779" width="1.575" height="12.565508997622146" fill="#f85149" opacity="0.45"/>
<rect x="508.42880094043886" y="572.4479632405325" width="1.575" height="7.552036759467455" fill="#3fb950" opacity="0.45"/>
<rect x="511.0620297805643" y="565.7837747197734" width="1.575" height="14.216225280226581" fill="#3fb950" opacity="0.45"/>
<rect x="513.6952586206897" y="565.7031610687307" width="1.575" height="14.296838931269349" fill="#f85149" opacity="0.45"/>
<rect x="516.328487460815" y="570.8067917831465" width="1.575" height="9.193208216853463" fill="#f85149" opacity="0.45"/>
<rect x="518.9617163009403" y="572.7046071194975" width="1.575" height="7.295392880502504" fill="#3fb950" opacity="0.45"/>
<rect x="521.5949451410658" y="567.7296942858757" width="1.575" height="12.270305714124333" fill="#f85149" opacity="0.45"/>
<rect x="524.2281739811912" y="569.1558854487125" width="1.575" height="10.844114551287475" fill="#3fb950" opacity="0.45"/>
<rect x="526.8614028213166" y="565.2344932570098" width="1.575" height="14.76550674299017" fill="#3fb950" opacity="0.45"/>
<rect x="529.494631661442" y="569.8954827019211" width="1.575" height="10.104517298078918" fill="#f85149" opacity="0.45"/>
<rect x="532.1278605015674" y="571.3235004740087" width="1.575" height="8.67649952599129" fill="#f85149" opacity="0.45"/>
<rect x="534.7610893416928" y="572.4670740078393" width="1.575" height="7.532925992160699" fill="#f85149" opacity="0.45"/>
<rect x="537.3943181818181" y="568.9503021612921" width="1.575" height="11.049697838707857" fill="#f85149" opacity="0.45"/>
<rect x="540.0275470219435" y="570.2467301582723" width="1.575" height="9.753269841727729" fill="#f85149" opacity="0.45"/>
<rect x="542.6607758620689" y="567.1487586350536" width="1.575" height="12.851241364946418" fill="#f85149" opacity="0.45"/>
<rect x="545.2940047021943" y="572.36940848431" width="1.575" height="7.630591515689957" fill="#f85149" opacity="0.45"/>
<rect x="547.9272335423198" y="575.4372040003668" width="1.575" height="4.562795999633181" fill="#3fb950" opacity="0.45"/>
<rect x="550.5604623824452" y="574.2025217311273" width="1.575" height="5.797478268872737" fill="#f85149" opacity="0.45"/>
<rect x="553.1936912225705" y="574.6465250387438" width="1.575" height="5.353474961256211" fill="#f85149" opacity="0.45"/>
<rect x="555.8269200626959" y="577.0189842610121" width="1.575" height="2.981015738987935" fill="#3fb950" opacity="0.45"/>
<rect x="558.4601489028213" y="576.7811871884794" width="1.575" height="3.2188128115205927" fill="#3fb950" opacity="0.45"/>
<rect x="561.0933777429467" y="577.3377539713766" width="1.575" height="2.662246028623372" fill="#f85149" opacity="0.45"/>
<rect x="563.7266065830721" y="577.1249064806926" width="1.575" height="2.87509351930737" fill="#f85149" opacity="0.45"/>
<rect x="566.3598354231975" y="572.8031595515647" width="1.575" height="7.196840448435296" fill="#3fb950" opacity="0.45"/>
<rect x="568.9930642633229" y="575.0954063433193" width="1.575" height="4.904593656680731" fill="#f85149" opacity="0.45"/>
<rect x="571.6262931034482" y="576.0127337324811" width="1.575" height="3.987266267518862" fill="#f85149" opacity="0.45"/>
<rect x="574.2595219435736" y="576.2656293670296" width="1.575" height="3.7343706329703537" fill="#3fb950" opacity="0.45"/>
<rect x="576.892750783699" y="572.844200188317" width="1.575" height="7.155799811682982" fill="#f85149" opacity="0.45"/>
<rect x="579.5259796238244" y="574.9933590692749" width="1.575" height="5.006640930725098" fill="#3fb950" opacity="0.45"/>
<rect x="582.1592084639498" y="575.7554563474176" width="1.575" height="4.244543652582365" fill="#3fb950" opacity="0.45"/>
<rect x="584.7924373040752" y="575.9768984041722" width="1.575" height="4.023101595827825" fill="#f85149" opacity="0.45"/>
<rect x="587.4256661442006" y="576.2106515961088" width="1.575" height="3.789348403891154" fill="#3fb950" opacity="0.45"/>
<rect x="590.058894984326" y="576.1217918073497" width="1.575" height="3.878208192650277" fill="#3fb950" opacity="0.45"/>
<rect x="592.6921238244514" y="576.4291372910701" width="1.575" height="3.5708627089298943" fill="#f85149" opacity="0.45"/>
<rect x="595.3253526645767" y="577.28316686255" width="1.575" height="2.716833137449953" fill="#f85149" opacity="0.45"/>
<rect x="597.9585815047021" y="575.200842874991" width="1.575" height="4.799157125008946" fill="#3fb950" opacity="0.45"/>
<rect x="600.5918103448275" y="577.1004848205929" width="1.575" height="2.8995151794071035" fill="#f85149" opacity="0.45"/>
<rect x="603.225039184953" y="574.9269253964051" width="1.575" height="5.073074603594932" fill="#3fb950" opacity="0.45"/>
<rect x="605.8582680250784" y="576.9704049016868" width="1.575" height="3.029595098313166" fill="#f85149" opacity="0.45"/>
<rect x="608.4914968652037" y="577.9336403661249" width="1.575" height="2.066359633875095" fill="#f85149" opacity="0.45"/>
<rect x="611.1247257053291" y="576.3371099718181" width="1.575" height="3.6628900281818915" fill="#3fb950" opacity="0.45"/>
<rect x="613.7579545454545" y="574.0798960673144" width="1.575" height="5.920103932685606" fill="#f85149" opacity="0.45"/>
<rect x="616.3911833855799" y="576.8511262617615" width="1.575" height="3.1488737382385352" fill="#f85149" opacity="0.45"/>
<rect x="619.0244122257053" y="575.9613669463223" width="1.575" height="4.0386330536776995" fill="#f85149" opacity="0.45"/>
<rect x="621.6576410658307" y="575.2026166920671" width="1.575" height="4.797383307932932" fill="#3fb950" opacity="0.45"/>
<rect x="624.2908699059561" y="567.9175394025361" width="1.575" height="12.082460597463864" fill="#3fb950" opacity="0.45"/>
<rect x="626.9240987460814" y="573.4409206994284" width="1.575" height="6.559079300571625" fill="#f85149" opacity="0.45"/>
<rect x="629.5573275862068" y="576.3838627218925" width="1.575" height="3.6161372781075443" fill="#f85149" opacity="0.45"/>
<rect x="632.1905564263323" y="575.8364501021196" width="1.575" height="4.1635498978804435" fill="#3fb950" opacity="0.45"/>
<rect x="634.8237852664577" y="567.516720093972" width="1.575" height="12.483279906027974" fill="#3fb950" opacity="0.45"/>
<rect x="637.4570141065831" y="572.730042389355" width="1.575" height="7.269957610644951" fill="#f85149" opacity="0.45"/>
<rect x="640.0902429467085" y="574.8445273698512" width="1.575" height="5.155472630148779" fill="#3fb950" opacity="0.45"/>
<rect x="642.7234717868338" y="566.5828265203326" width="1.575" height="13.41717347966744" fill="#3fb950" opacity="0.45"/>
<rect x="645.3567006269592" y="565.2928074933831" width="1.575" height="14.707192506616934" fill="#3fb950" opacity="0.45"/>
<rect x="647.9899294670846" y="568.4517962123288" width="1.575" height="11.548203787671241" fill="#f85149" opacity="0.45"/>
<rect x="650.62315830721" y="569.7997704888624" width="1.575" height="10.20022951113765" fill="#f85149" opacity="0.45"/>
<rect x="653.2563871473354" y="573.3281671723182" width="1.575" height="6.671832827681783" fill="#f85149" opacity="0.45"/>
<rect x="655.8896159874608" y="575.7072570917516" width="1.575" height="4.292742908248442" fill="#f85149" opacity="0.45"/>
<rect x="658.5228448275863" y="572.6330420472292" width="1.575" height="7.366957952770804" fill="#3fb950" opacity="0.45"/>
<rect x="661.1560736677116" y="575.627868219166" width="1.575" height="4.3721317808340245" fill="#f85149" opacity="0.45"/>
<rect x="663.789302507837" y="576.9511463162903" width="1.575" height="3.0488536837096945" fill="#f85149" opacity="0.45"/>
<rect x="666.4225313479624" y="574.3897122248192" width="1.575" height="5.610287775180836" fill="#f85149" opacity="0.45"/>
<rect x="669.0557601880878" y="556.4851299712483" width="1.575" height="23.514870028751716" fill="#3fb950" opacity="0.45"/>
<rect x="671.6889890282132" y="570.1086680625242" width="1.575" height="9.891331937475798" fill="#f85149" opacity="0.45"/>
<rect x="674.3222178683386" y="574.0573432502053" width="1.575" height="5.942656749794651" fill="#3fb950" opacity="0.45"/>
<rect x="676.955446708464" y="573.5466106335396" width="1.575" height="6.453389366460442" fill="#f85149" opacity="0.45"/>
<rect x="679.5886755485893" y="574.9958719767992" width="1.575" height="5.004128023200792" fill="#3fb950" opacity="0.45"/>
<rect x="682.2219043887147" y="575.549535190078" width="1.575" height="4.450464809921982" fill="#f85149" opacity="0.45"/>
<rect x="684.8551332288401" y="573.1002739117932" width="1.575" height="6.899726088206762" fill="#f85149" opacity="0.45"/>
<rect x="687.4883620689654" y="573.628670790174" width="1.575" height="6.371329209825944" fill="#f85149" opacity="0.45"/>
<rect x="690.1215909090909" y="574.4462209688114" width="1.575" height="5.553779031188583" fill="#f85149" opacity="0.45"/>
<rect x="692.7548197492163" y="575.491537706754" width="1.575" height="4.508462293245998" fill="#3fb950" opacity="0.45"/>
<rect x="695.3880485893417" y="557.7769756074487" width="1.575" height="22.223024392551338" fill="#3fb950" opacity="0.45"/>
<rect x="698.021277429467" y="563.1737507105421" width="1.575" height="16.826249289457905" fill="#f85149" opacity="0.45"/>
<rect x="700.6545062695924" y="568.8635857348331" width="1.575" height="11.136414265166877" fill="#f85149" opacity="0.45"/>
<rect x="703.2877351097178" y="568.0917007874675" width="1.575" height="11.908299212532484" fill="#3fb950" opacity="0.45"/>
<rect x="705.9209639498432" y="569.4910524085951" width="1.575" height="10.508947591404876" fill="#3fb950" opacity="0.45"/>
<rect x="708.5541927899686" y="551.4681734495515" width="1.575" height="28.5318265504485" fill="#3fb950" opacity="0.45"/>
<rect x="711.187421630094" y="562.5821615988291" width="1.575" height="17.41783840117091" fill="#f85149" opacity="0.45"/>
<rect x="713.8206504702193" y="561.4127832499169" width="1.575" height="18.587216750083144" fill="#3fb950" opacity="0.45"/>
<rect x="716.4538793103447" y="564.9556238724201" width="1.575" height="15.04437612757988" fill="#f85149" opacity="0.45"/>
<rect x="719.0871081504702" y="563.3281150298932" width="1.575" height="16.671884970106817" fill="#3fb950" opacity="0.45"/>
<rect x="721.7203369905956" y="567.2124682316996" width="1.575" height="12.787531768300369" fill="#f85149" opacity="0.45"/>
<rect x="724.353565830721" y="567.0809734825068" width="1.575" height="12.919026517493194" fill="#f85149" opacity="0.45"/>
<rect x="726.9867946708464" y="570.2778669830169" width="1.575" height="9.722133016983094" fill="#3fb950" opacity="0.45"/>
<rect x="729.6200235109718" y="570.2537409590964" width="1.575" height="9.746259040903624" fill="#f85149" opacity="0.45"/>
<rect x="732.2532523510971" y="568.6571155388748" width="1.575" height="11.342884461125209" fill="#3fb950" opacity="0.45"/>
<rect x="734.8864811912225" y="569.195975826317" width="1.575" height="10.804024173683047" fill="#f85149" opacity="0.45"/>
<rect x="737.5197100313479" y="567.1752603068437" width="1.575" height="12.824739693156289" fill="#f85149" opacity="0.45"/>
<rect x="740.1529388714733" y="563.8499128864139" width="1.575" height="16.150087113586096" fill="#f85149" opacity="0.45"/>
<rect x="742.7861677115988" y="531.2684302761726" width="1.575" height="48.73156972382742" fill="#3fb950" opacity="0.45"/>
<rect x="745.4193965517242" y="567.0342101739975" width="1.575" height="12.965789826002492" fill="#3fb950" opacity="0.45"/>
<rect x="748.0526253918496" y="499.0241735206341" width="1.575" height="80.97582647936588" fill="#3fb950" opacity="0.45"/>
<rect x="750.6858542319749" y="502.4525290326911" width="1.575" height="77.54747096730893" fill="#3fb950" opacity="0.45"/>
<rect x="753.3190830721003" y="516.9897729699321" width="1.575" height="63.01022703006788" fill="#3fb950" opacity="0.45"/>
<rect x="755.9523119122257" y="540.6883492088338" width="1.575" height="39.311650791166244" fill="#f85149" opacity="0.45"/>
<rect x="758.5855407523511" y="540.2872342640902" width="1.575" height="39.712765735909784" fill="#f85149" opacity="0.45"/>
<rect x="761.2187695924765" y="523.022609312858" width="1.575" height="56.97739068714202" fill="#f85149" opacity="0.45"/>
<rect x="763.8519984326019" y="539.9357967559095" width="1.575" height="40.06420324409055" fill="#3fb950" opacity="0.45"/>
<rect x="766.4852272727273" y="524.5457057919059" width="1.575" height="55.4542942080941" fill="#3fb950" opacity="0.45"/>
<rect x="769.1184561128526" y="533.2946256233984" width="1.575" height="46.70537437660164" fill="#f85149" opacity="0.45"/>
<rect x="771.751684952978" y="549.4401937268146" width="1.575" height="30.55980627318536" fill="#3fb950" opacity="0.45"/>
<rect x="774.3849137931035" y="542.196621645175" width="1.575" height="37.803378354824986" fill="#f85149" opacity="0.45"/>
<rect x="777.0181426332289" y="550.3813620621527" width="1.575" height="29.618637937847325" fill="#f85149" opacity="0.45"/>
<rect x="779.6513714733542" y="555.5882648290701" width="1.575" height="24.411735170929887" fill="#3fb950" opacity="0.45"/>
<rect x="782.2846003134796" y="541.9495542667335" width="1.575" height="38.05044573326654" fill="#3fb950" opacity="0.45"/>
<rect x="784.917829153605" y="544.5171228089257" width="1.575" height="35.482877191074294" fill="#f85149" opacity="0.45"/>
<rect x="787.5510579937303" y="548.4789643650221" width="1.575" height="31.52103563497792" fill="#f85149" opacity="0.45"/>
<rect x="790.1842868338557" y="562.2464667171977" width="1.575" height="17.753533282802323" fill="#f85149" opacity="0.45"/>
<rect x="792.8175156739811" y="557.7497876373851" width="1.575" height="22.25021236261489" fill="#3fb950" opacity="0.45"/>
<rect x="795.4507445141065" y="558.2241147702532" width="1.575" height="21.77588522974679" fill="#f85149" opacity="0.45"/>
<rect x="798.083973354232" y="561.2198595260328" width="1.575" height="18.780140473967208" fill="#f85149" opacity="0.45"/>
<rect x="800.7172021943574" y="561.1172737718047" width="1.575" height="18.882726228195338" fill="#3fb950" opacity="0.45"/>
<rect x="803.3504310344827" y="560.5458407124611" width="1.575" height="19.454159287538914" fill="#3fb950" opacity="0.45"/>
<rect x="805.9836598746081" y="563.5348280698561" width="1.575" height="16.465171930143924" fill="#f85149" opacity="0.45"/>
<rect x="808.6168887147335" y="568.1297005949467" width="1.575" height="11.870299405053288" fill="#f85149" opacity="0.45"/>
<rect x="811.2501175548589" y="567.7778935415417" width="1.575" height="12.222106458458256" fill="#f85149" opacity="0.45"/>
<rect x="813.8833463949843" y="563.7621089411524" width="1.575" height="16.237891058847595" fill="#f85149" opacity="0.45"/>
<rect x="816.5165752351097" y="571.4865227100404" width="1.575" height="8.51347728995961" fill="#3fb950" opacity="0.45"/>
<rect x="819.1498040752351" y="570.3518921706345" width="1.575" height="9.648107829365472" fill="#f85149" opacity="0.45"/>
<rect x="821.7830329153604" y="567.7798996441873" width="1.575" height="12.220100355812747" fill="#f85149" opacity="0.45"/>
<rect x="824.4162617554858" y="563.8630686963942" width="1.575" height="16.13693130360582" fill="#f85149" opacity="0.45"/>
<rect x="827.0494905956112" y="559.4000287904156" width="1.575" height="20.599971209584396" fill="#3fb950" opacity="0.45"/>
<rect x="829.6827194357367" y="566.0404819493483" width="1.575" height="13.959518050651695" fill="#3fb950" opacity="0.45"/>
<rect x="832.3159482758621" y="571.88050015274" width="1.575" height="8.119499847260045" fill="#f85149" opacity="0.45"/>
<rect x="834.9491771159875" y="568.2084665198687" width="1.575" height="11.791533480131307" fill="#3fb950" opacity="0.45"/>
<rect x="837.5824059561129" y="568.9759169245442" width="1.575" height="11.024083075455792" fill="#f85149" opacity="0.45"/>
<rect x="840.2156347962382" y="555.551183605434" width="1.575" height="24.44881639456605" fill="#3fb950" opacity="0.45"/>
<rect x="842.8488636363636" y="562.208287416324" width="1.575" height="17.79171258367603" fill="#3fb950" opacity="0.45"/>
<rect x="845.482092476489" y="569.0684088149352" width="1.575" height="10.931591185064804" fill="#f85149" opacity="0.45"/>
<rect x="848.1153213166144" y="569.317176101408" width="1.575" height="10.682823898592005" fill="#3fb950" opacity="0.45"/>
<rect x="850.7485501567398" y="572.0356246794094" width="1.575" height="7.964375320590648" fill="#f85149" opacity="0.45"/>
<rect x="853.3817789968653" y="558.9316354980042" width="1.575" height="21.068364501995802" fill="#3fb950" opacity="0.45"/>
<rect x="856.0150078369907" y="566.5708743719396" width="1.575" height="13.429125628060433" fill="#f85149" opacity="0.45"/>
<rect x="858.648236677116" y="568.449051019235" width="1.575" height="11.550948980765043" fill="#3fb950" opacity="0.45"/>
<rect x="861.2814655172414" y="566.7094221556965" width="1.575" height="13.29057784430347" fill="#3fb950" opacity="0.45"/>
<rect x="863.9146943573668" y="564.2722080517195" width="1.575" height="15.72779194828047" fill="#3fb950" opacity="0.45"/>
<rect x="866.5479231974922" y="562.4613308689621" width="1.575" height="17.538669131037864" fill="#f85149" opacity="0.45"/>
<rect x="869.1811520376176" y="564.0161237698084" width="1.575" height="15.98387623019164" fill="#3fb950" opacity="0.45"/>
<rect x="871.8143808777429" y="548.832566352373" width="1.575" height="31.167433647627035" fill="#f85149" opacity="0.45"/>
<rect x="874.4476097178683" y="551.6638846002692" width="1.575" height="28.33611539973083" fill="#3fb950" opacity="0.45"/>
<rect x="877.0808385579937" y="560.9872255282036" width="1.575" height="19.012774471796433" fill="#f85149" opacity="0.45"/>
<rect x="879.714067398119" y="570.1250864289121" width="1.575" height="9.874913571087859" fill="#3fb950" opacity="0.45"/>
<rect x="882.3472962382444" y="566.6778841104228" width="1.575" height="13.322115889577162" fill="#f85149" opacity="0.45"/>
<rect x="884.9805250783699" y="569.6148183833853" width="1.575" height="10.385181616614659" fill="#f85149" opacity="0.45"/>
<rect x="887.6137539184953" y="566.4615945699366" width="1.575" height="13.538405430063449" fill="#3fb950" opacity="0.45"/>
<rect x="890.2469827586207" y="549.2620834872022" width="1.575" height="30.737916512797824" fill="#3fb950" opacity="0.45"/>
<rect x="892.880211598746" y="567.6860562741193" width="1.575" height="12.313943725880677" fill="#3fb950" opacity="0.45"/>
<rect x="895.5134404388714" y="562.7500301565146" width="1.575" height="17.24996984348536" fill="#3fb950" opacity="0.45"/>
<rect x="898.1466692789968" y="559.7371807360737" width="1.575" height="20.262819263926303" fill="#f85149" opacity="0.45"/>
<rect x="900.7798981191222" y="556.5262234001754" width="1.575" height="23.473776599824646" fill="#3fb950" opacity="0.45"/>
<rect x="903.4131269592476" y="564.2637929790436" width="1.575" height="15.736207020956385" fill="#f85149" opacity="0.45"/>
<rect x="906.046355799373" y="563.3641720853367" width="1.575" height="16.63582791466331" fill="#f85149" opacity="0.45"/>
<rect x="908.6795846394984" y="564.780860656695" width="1.575" height="15.21913934330496" fill="#f85149" opacity="0.45"/>
<rect x="911.3128134796237" y="567.9595725321761" width="1.575" height="12.04042746782386" fill="#3fb950" opacity="0.45"/>
<rect x="913.9460423197492" y="560.3339540393599" width="1.575" height="19.666045960640076" fill="#f85149" opacity="0.45"/>
<rect x="916.5792711598746" y="562.2454847827449" width="1.575" height="17.75451521725506" fill="#3fb950" opacity="0.45"/>
<rect x="919.2125" y="548.0624974558233" width="1.575" height="31.93750254417671" fill="#3fb950" opacity="0.45"/>
<polyline points="80.0,298.636348986469 82.6332288401254,315.6878808927487 85.26645768025078,330.5959744543365 87.89968652037618,324.3576091227708 90.53291536050156,315.2719898706443 93.16614420062696,328.22859479005 95.79937304075236,313.73639225056655 98.43260188087774,312.07282816214905 101.06583072100314,329.06037683425876 103.69905956112854,303.5310664004668 106.33228840125392,278.76955477671356 108.9655172413793,274.6426361727547 111.5987460815047,260.88624082622516 114.2319749216301,255.76758209263278 116.86520376175548,264.4053187055699 119.49843260188088,279.44137873549755 122.13166144200628,280.78502665306553 124.76489028213166,266.7087151356865 127.39811912225706,276.2422170270023 130.03134796238243,255.44766592178323 132.66457680250784,259.60657614282707 135.29780564263322,263.4135785759364 137.9310344827586,270.16380978086136 140.56426332288402,226.8151686307508 143.1974921630094,222.46430870719732 145.83072100313478,236.22070405372685 148.4639498432602,271.73139901802404 151.09717868338558,284.20812968115547 153.73040752351096,278.481630222949 156.36363636363637,278.6415883083738 158.99686520376176,263.12565402217183 161.63009404388714,274.00280383105564 164.26332288401255,281.6807919314442 166.89655172413794,283.88821351030595 169.52978056426332,284.9119452570244 172.16300940438873,309.0016329219936 174.79623824451411,301.0677118849254 177.4294670846395,260.4383581870359 180.06269592476488,263.44557019302135 182.69592476489026,274.7066194069246 185.32915360501568,254.58389226048956 187.9623824451411,263.029679170917 190.59561128526644,276.9140409857863 193.22884012539186,282.2566410389734 195.86206896551724,237.94825137631426 198.49529780564262,245.9461556475524 201.12852664576803,255.3516910705284 203.76175548589342,252.56842038413748 206.3949843260188,263.029679170917 209.02821316614418,256.4074144343318 211.6614420062696,261.84598933877373 214.29467084639498,308.6177335169742 216.92789968652036,311.2410461179403 219.56112852664577,307.1781107481513 222.19435736677116,305.73848797932845 224.82758620689657,299.2121980939982 227.46081504702195,291.8861177815441 230.09404388714734,292.04607586696886 232.72727272727272,299.2761813281681 235.3605015673981,299.43613941359285 237.99373040752351,297.5806256226656 240.6269592476489,294.8293465533597 243.26018808777428,300.8757621824157 245.8934169278997,283.4083392540316 248.52664576802508,294.2534974458305 251.1598746081505,286.83144228212154 253.79310344827587,274.1627619164804 256.4263322884012,274.6426361727547 259.05956112852664,270.57970080296576 261.69278996865205,234.46116511405447 264.32601880877746,237.2444358004453 266.9592476489028,252.76037008664724 269.59247648902823,257.8470372031546 272.2257053291536,253.43219404543126 274.858934169279,252.95231978915697 277.4921630094044,252.95231978915697 280.12539184952976,257.6870791177299 282.7586206896552,253.8800766846206 285.39184952978053,263.4775618101063 288.02507836990594,260.5983162724606 290.65830721003135,266.13286602815737 293.29153605015676,276.7220912832766 295.9247648902822,279.28142065007285 298.55799373040753,278.38565537169416 301.1912225705329,285.93567700374285 303.8244514106583,284.6240207032598 306.4576802507837,279.1214625646481 309.09090909090907,288.3990315192842 311.7241379310345,286.15961832333755 314.3573667711599,279.1214625646481 316.99059561128524,277.6178565616553 319.62382445141066,282.22464942188844 322.25705329153607,278.481630222949 324.8902821316615,290.31852854438137 327.52351097178683,283.60028895654136 330.1567398119122,277.0420074541262 332.7899686520376,285.55177759872345 335.423197492163,253.43219404543126 338.05642633228837,269.5239774391623 340.6896551724138,266.3248157306671 343.3228840125392,356.2852429735533 345.95611285266455,375.0963138195053 348.58934169278996,374.4884730948912 351.22257053291537,364.2191640106215 353.8557993730407,362.45962507094913 356.48902821316614,367.80222512413616 359.12225705329155,363.4193735834977 361.7554858934169,357.2769831031868 364.3887147335423,360.70008613127675 367.0219435736677,367.7382418899662 369.65517241379314,363.4193735834977 372.2884012539185,356.06130165395865 374.9216300940439,319.81479949670756 377.5548589341693,314.9520736997947 380.1880877742947,308.29781734612465 382.8213166144201,314.3122413580958 385.45454545454544,315.43194795606905 388.08777429467085,290.9583608860804 390.7210031347962,302.89123405876774 393.3542319749216,292.11005910113875 395.98746081504703,305.70649636224346 398.6206896551724,313.0325766746976 401.2539184952978,315.1760150193894 403.8871473354232,315.9438138294283 406.52037617554856,318.5351348133094 409.153605015674,310.729180244581 411.7868338557994,312.5207108013384 414.4200626959248,318.47115157913953 417.05329153605015,317.57538630076084 419.68652037617557,328.3885528754748 422.319749216301,330.81991577393114 424.95297805642633,327.6207540654359 427.58620689655174,320.9984893288508 430.2194357366771,311.8168952254694 432.8526645768025,311.75291199129947 435.48589341692787,304.4268316788454 438.1191222570533,312.5207108013384 440.7523510971787,306.3463287039425 443.38557993730404,310.31328922247667 446.01880877742946,299.5641058819327 448.65203761755487,319.3029336233483 451.2852664576802,308.745699985314 453.91849529780563,302.2194100999837 456.55172413793105,305.5145466597338 459.18495297805646,304.9706891692896 461.8181818181818,313.5124509309719 464.4514106583072,307.3380688335761 467.08463949843264,290.3825117785513 469.717868338558,272.4672062109779 472.3510971786834,283.1524063173521 474.9843260188088,281.5848170801894 477.61755485893417,279.3454038842427 480.2507836990595,255.22372460218858 482.88401253918494,279.44137873549755 485.51724137931035,274.6426361727547 488.1504702194357,307.9459095581902 490.7836990595611,295.88506991716315 493.4169278996865,295.59714536339857 496.0501567398119,307.11412751398143 498.6833855799373,303.81899095423137 501.31661442006265,299.40414779650786 503.94984326018806,297.5166423884957 506.5830721003135,304.4908149130153 509.2163009404389,303.88297418840125 511.8495297805643,294.7973549362747 514.4827586206898,297.13274298347625 517.1159874608151,304.26687359342066 519.7492163009404,301.5155945241147 522.3824451410658,305.0026807863745 525.0156739811912,304.36284844467554 527.6489028213166,295.7571034488233 530.282131661442,298.636348986469 532.9153605015674,304.3948400617604 535.5485893416928,305.3225969572241 538.1818181818181,308.1378592606999 540.8150470219435,318.47115157913953 543.448275862069,328.06863670462525 546.0815047021944,336.38645714671287 548.7147335423198,332.1635636914992 551.3479623824452,338.62587034265954 553.9811912225705,341.2491829436256 556.6144200626959,339.8095601748028 559.2476489028213,334.4669601216157 561.8808777429467,335.7146331879289 564.5141065830721,338.33794578889496 567.1473354231975,327.81270376794566 569.780564263323,329.0283852171738 572.4137931034483,332.25953854275406 575.0470219435737,329.82817564429763 577.680250783699,340.25744281399216 580.3134796238244,337.0582811054969 582.9467084639498,334.5309433557856 585.5799373040752,339.52163562103823 588.2131661442006,339.1057445989339 590.846394984326,337.0262894884119 593.4796238244514,341.18519970945573 596.1128526645767,341.69706558281496 598.7460815047021,337.34620565926144 601.3793103448276,340.1294763456523 604.012539184953,333.8271277799167 606.6457680250784,338.36993740597995 609.2789968652037,340.03350149439746 611.9122257053291,339.23371106727365 614.5454545454545,350.84666806911133 617.1786833855799,354.6856621193056 619.8119122257053,362.36365021969425 622.4451410658307,354.3337543313712 625.0783699059562,336.6423900833925 627.7115987460814,340.09748472856734 630.3448275862069,341.4731242632203 632.9780564263323,335.2347589316546 635.6112852664577,325.5093073378291 638.2445141065831,325.8292235086786 640.8777429467085,324.6135420594504 643.5109717868338,322.2461623951639 646.1442006269592,309.32154909284316 648.7774294670846,317.2874617469963 651.41065830721,330.1161001980622 654.0438871473355,331.9076307548196 656.6771159874609,334.6269182070405 659.3103448275863,326.82096363831215 661.9435736677116,331.58771458397 664.576802507837,334.21102718493614 667.2100313479624,334.78687629246525 669.8432601880878,306.1863706185178 672.4764890282132,311.401004203365 675.1097178683386,308.10586764361494 677.742946708464,310.2812976053917 680.3761755485893,308.1698508777848 683.0094043887148,308.93764968782375 685.6426332288402,310.79316347875096 688.2758620689655,316.5836461711273 690.9090909090909,321.92624622431435 693.5423197492163,320.4226402213216 696.1755485893417,294.5094303825101 698.808777429467,308.26582572903976 701.4420062695924,309.8334149662023 704.0752351097178,307.4660353019159 706.7084639498432,307.11412751398143 709.3416927899686,280.9769763555753 711.9749216300941,295.88506991716315 714.6081504702194,290.9583608860804 717.2413793103448,297.6766004739204 719.8746081504702,285.6797440670633 722.5078369905956,288.36703990219934 725.141065830721,296.8128268126268 727.7742946708464,289.39077164891773 730.4075235109718,293.51769025287666 733.0407523510971,286.9274171333765 735.6739811912225,298.66834060355404 738.307210031348,308.2338341119547 740.9404388714734,320.45463183840656 743.5736677115988,275.5064098340484 746.2068965517242,206.88439118682544 748.8401253918496,164.27155722966884 751.4733542319749,119.29134360822573 754.1065830721003,106.3987219229899 756.7398119122257,112.0612381470265 759.3730407523511,117.88371245648783 762.0062695924765,135.47910185321166 764.639498432602,121.08287416498308 767.2727272727274,70.95201019286266 769.9059561128527,108.25423571391718 772.5391849529781,100.28832305976397 775.1724137931035,159.47281466692598 777.8056426332289,173.90103397223947 780.4388714733542,153.17046610119036 783.0721003134796,110.84555669779832 785.705329153605,115.96421543139071 788.3385579937303,146.676167832945 790.9717868338557,156.14568649009095 793.6050156739811,153.2344493353603 796.2382445141066,167.0548279160597 798.871473354232,177.0682040636498 801.5047021943574,168.84635847281703 804.1379310344827,161.45629492619304 806.7711598746081,179.43558372793632 809.4043887147335,193.064012606126 812.0376175548589,195.30342580207267 814.6708463949843,219.00921406202244 817.3040752351097,214.9462786922335 819.9373040752351,231.45395310806896 822.5705329153604,250.3290071881909 825.2037617554859,260.2144168674412 827.8369905956113,241.81923704359352 830.4702194357367,236.57261184166128 833.1034482758621,247.38577841637525 835.7366771159875,237.8522765250594 838.3699059561129,246.13810535006212 841.0031347962382,230.33424651009562 843.6363636363636,225.47152071318283 846.269592476489,237.91625975922932 848.9028213166144,234.46116511405447 851.5360501567399,242.33110291695277 854.1692789968653,221.8564679825832 856.8025078369907,231.10204532013447 859.435736677116,230.33424651009562 862.0689655172414,225.56749556443768 864.7021943573668,214.81831222389366 867.3354231974922,218.65730627408797 869.9686520376176,217.6975577615394 872.6018808777429,236.92451962959578 875.2351097178683,229.21453991212223 877.8683385579938,241.65927895816873 880.501567398119,240.0916897210061 883.1347962382445,248.72942633394325 885.7680250783699,258.00699528857945 888.4012539184953,245.78619756212765 891.0344827586207,237.02049448085066 893.667711598746,234.01328247486512 896.3009404388714,221.21663564088416 898.9341692789968,228.63869080459312 901.5673981191222,212.25898285709746 904.2006269592476,222.65625840970702 906.833855799373,222.81621649513175 909.4670846394985,234.14124894320494 912.1003134796238,233.69336630401563 914.7335423197492,239.45185737930703 917.3667711598746,237.50036873712494 920.0,205.860659440107" stroke="#58a6ff" stroke-width="1.8" fill="none"/>
<line x1="80" y1="214.81831222389366" x2="920" y2="214.81831222389366" stroke="#f0883e" stroke-width="1.5" stroke-dasharray="6,3"/>
<text x="925" y="218.81831222389366" font-size="11" fill="#f0883e" font-weight="bold">颈线 126.20</text>
<line x1="80" y1="169.4222075803462" x2="920" y2="169.4222075803462" stroke="#a371f7" stroke-width="1.2" stroke-dasharray="4,4"/>
<text x="925" y="173.4222075803462" font-size="11" fill="#a371f7" font-weight="bold">目标 140.39 (+8.8%)</text>
<circle cx="825.2037617554859" cy="260.2144168674412" r="6" fill="#238636" stroke="#fff" stroke-width="2"/>
<text x="825.2037617554859" y="280.2144168674412" text-anchor="middle" font-size="10" fill="#3fb950">左底 112.01</text>
<circle cx="885.7680250783699" cy="258.00699528857945" r="6" fill="#8957e5" stroke="#fff" stroke-width="2"/>
<text x="885.7680250783699" y="278.00699528857945" text-anchor="middle" font-size="10" fill="#bc8cff">右底 112.70</text>
<circle cx="920.0" cy="214.81831222389366" r="7" fill="#f0883e" stroke="#fff" stroke-width="2"/>
<text x="920.0" y="202.81831222389366" text-anchor="middle" font-size="10" fill="#f0883e">突破</text>
<line x1="920.0" y1="205.860659440107" x2="920" y2="205.860659440107" stroke="#f85149" stroke-width="1"/>
<text x="925" y="209.860659440107" font-size="11" fill="#f85149" font-weight="bold">现价 129.00</text>
<text x="80" y="598" font-size="13" fill="#58a6ff" font-weight="bold">筛选高分原因:</text>
<text x="90" y="618" font-size="11" fill="#c9d1d9">  1. 刚刚突破(0天前)</text>
<text x="90" y="636" font-size="11" fill="#c9d1d9">  2. 右底缩量(64%)</text>
<text x="90" y="654" font-size="11" fill="#c9d1d9">  3. 形态跨度适中(23根K线)</text>
<text x="90" y="672" font-size="11" fill="#c9d1d9">  4. MACD改善</text>
<text x="90" y="690" font-size="11" fill="#c9d1d9">  5. 右底高于左底</text>
<text x="928" y="80" font-size="11" fill="#8b949e">突破日: 2026-05-18</text>
<text x="928" y="98" font-size="11" fill="#8b949e">突破后涨幅: 2.2%</text>
<text x="928" y="116" font-size="11" fill="#8b949e">目标空间: 8.8%</text>
<text x="928" y="134" font-size="11" fill="#8b949e">形态跨度: 23根K线</text>
</svg>