<svg xmlns="http://www.w3.org/2000/svg" viewBox="0 0 1000 700" width="1000" height="700">
<rect width="1000" height="700" fill="#0d1117"/>
<text x="500.0" y="24" text-anchor="middle" font-size="18" fill="#58a6ff" font-weight="bold">瑞联新材 (688550.SH)</text>
<text x="500.0" y="46" text-anchor="middle" font-size="14" fill="#8b949e">双底突破 | 评分:77/100 | 突破后涨幅:2.9% | 目标空间:13.0%</text>
<line x1="80" y1="382.4" x2="920" y2="382.4" stroke="#21262d" stroke-width="0.5"/>
<text x="72" y="386.4" text-anchor="end" font-size="10" fill="#8b949e">23.36</text>
<line x1="80" y1="317.92" x2="920" y2="317.92" stroke="#21262d" stroke-width="0.5"/>
<text x="72" y="321.92" text-anchor="end" font-size="10" fill="#8b949e">29.39</text>
<line x1="80" y1="253.43999999999994" x2="920" y2="253.43999999999994" stroke="#21262d" stroke-width="0.5"/>
<text x="72" y="257.43999999999994" text-anchor="end" font-size="10" fill="#8b949e">35.43</text>
<line x1="80" y1="188.95999999999995" x2="920" y2="188.95999999999995" stroke="#21262d" stroke-width="0.5"/>
<text x="72" y="192.95999999999995" text-anchor="end" font-size="10" fill="#8b949e">41.46</text>
<line x1="80" y1="124.47999999999998" x2="920" y2="124.47999999999998" stroke="#21262d" stroke-width="0.5"/>
<text x="72" y="128.47999999999996" text-anchor="end" font-size="10" fill="#8b949e">47.50</text>
<line x1="80" y1="60.0" x2="920" y2="60.0" stroke="#21262d" stroke-width="0.5"/>
<text x="72" y="64.0" text-anchor="end" font-size="10" fill="#8b949e">53.53</text>
<text x="80.0" y="396.4" text-anchor="middle" font-size="9" fill="#8b949e">2024-10-08</text>
<text x="183.65038560411313" y="396.4" text-anchor="middle" font-size="9" fill="#8b949e">2024-12-13</text>
<text x="287.30077120822625" y="396.4" text-anchor="middle" font-size="9" fill="#8b949e">2025-02-28</text>
<text x="390.9511568123393" y="396.4" text-anchor="middle" font-size="9" fill="#8b949e">2025-05-13</text>
<text x="494.60154241645245" y="396.4" text-anchor="middle" font-size="9" fill="#8b949e">2025-07-21</text>
<text x="598.2519280205655" y="396.4" text-anchor="middle" font-size="9" fill="#8b949e">2025-09-25</text>
<text x="701.9023136246786" y="396.4" text-anchor="middle" font-size="9" fill="#8b949e">2025-12-10</text>
<text x="805.5526992287918" y="396.4" text-anchor="middle" font-size="9" fill="#8b949e">2026-02-26</text>
<text x="909.2030848329049" y="396.4" text-anchor="middle" font-size="9" fill="#8b949e">2026-05-11</text>
<rect x="820.6683804627249" y="60" width="99.33161953727506" height="520.0" fill="#238636" opacity="0.10" rx="4"/>
<text x="870.3341902313625" y="52" text-anchor="middle" font-size="11" fill="#3fb950" font-weight="bold">双底区域</text>
<rect x="79.35384615384615" y="509.42411935754706" width="1.2923076923076922" height="70.57588064245294" fill="#3fb950" opacity="0.45"/>
<rect x="81.51322918726517" y="532.527844347022" width="1.2923076923076922" height="47.47215565297802" fill="#f85149" opacity="0.45"/>
<rect x="83.6726122206842" y="551.8050478973514" width="1.2923076923076922" height="28.194952102648585" fill="#f85149" opacity="0.45"/>
<rect x="85.83199525410322" y="544.6961570439704" width="1.2923076923076922" height="35.3038429560296" fill="#f85149" opacity="0.45"/>
<rect x="87.99137828752224" y="522.399326005202" width="1.2923076923076922" height="57.600673994797944" fill="#3fb950" opacity="0.45"/>
<rect x="90.15076132094127" y="537.5268910476309" width="1.2923076923076922" height="42.4731089523691" fill="#f85149" opacity="0.45"/>
<rect x="92.31014435436029" y="552.9812121912487" width="1.2923076923076922" height="27.018787808751313" fill="#3fb950" opacity="0.45"/>
<rect x="94.46952738777931" y="544.5915585120612" width="1.2923076923076922" height="35.40844148793883" fill="#3fb950" opacity="0.45"/>
<rect x="96.62891042119833" y="539.0576938732006" width="1.2923076923076922" height="40.942306126799394" fill="#3fb950" opacity="0.45"/>
<rect x="98.78829345461736" y="515.8182336046332" width="1.2923076923076922" height="64.18176639536682" fill="#3fb950" opacity="0.45"/>
<rect x="100.94767648803638" y="539.0272950234084" width="1.2923076923076922" height="40.97270497659156" fill="#3fb950" opacity="0.45"/>
<rect x="103.1070595214554" y="522.8525211397172" width="1.2923076923076922" height="57.14747886028283" fill="#f85149" opacity="0.45"/>
<rect x="105.26644255487443" y="549.3906413264649" width="1.2923076923076922" height="30.609358673535098" fill="#3fb950" opacity="0.45"/>
<rect x="107.42582558829345" y="548.7129614078209" width="1.2923076923076922" height="31.2870385921791" fill="#3fb950" opacity="0.45"/>
<rect x="109.58520862171247" y="547.0880482842018" width="1.2923076923076922" height="32.91195171579818" fill="#3fb950" opacity="0.45"/>
<rect x="111.7445916551315" y="544.9353745486625" width="1.2923076923076922" height="35.06462545133752" fill="#f85149" opacity="0.45"/>
<rect x="113.90397468855052" y="550.3911482003599" width="1.2923076923076922" height="29.608851799640092" fill="#f85149" opacity="0.45"/>
<rect x="116.06335772196954" y="540.9948132750894" width="1.2923076923076922" height="39.00518672491057" fill="#3fb950" opacity="0.45"/>
<rect x="118.22274075538857" y="543.8513023719156" width="1.2923076923076922" height="36.14869762808439" fill="#f85149" opacity="0.45"/>
<rect x="120.38212378880758" y="537.8632776557974" width="1.2923076923076922" height="42.13672234420255" fill="#3fb950" opacity="0.45"/>
<rect x="122.54150682222661" y="549.5997059471619" width="1.2923076923076922" height="30.40029405283815" fill="#f85149" opacity="0.45"/>
<rect x="124.70088985564564" y="557.5246671675249" width="1.2923076923076922" height="22.475332832475146" fill="#f85149" opacity="0.45"/>
<rect x="126.86027288906465" y="556.1628176172833" width="1.2923076923076922" height="23.83718238271672" fill="#f85149" opacity="0.45"/>
<rect x="129.01965592248368" y="554.8663823554325" width="1.2923076923076922" height="25.133617644567494" fill="#3fb950" opacity="0.45"/>
<rect x="131.1790389559027" y="549.114510031766" width="1.2923076923076922" height="30.88548996823397" fill="#3fb950" opacity="0.45"/>
<rect x="133.33842198932172" y="558.3643628646564" width="1.2923076923076922" height="21.635637135343586" fill="#f85149" opacity="0.45"/>
<rect x="135.49780502274075" y="559.4244376091503" width="1.2923076923076922" height="20.575562390849655" fill="#3fb950" opacity="0.45"/>
<rect x="137.65718805615978" y="543.7976566008924" width="1.2923076923076922" height="36.202343399107576" fill="#f85149" opacity="0.45"/>
<rect x="139.8165710895788" y="559.6174639985151" width="1.2923076923076922" height="20.382536001484937" fill="#f85149" opacity="0.45"/>
<rect x="141.97595412299782" y="557.6668353982332" width="1.2923076923076922" height="22.33316460176684" fill="#f85149" opacity="0.45"/>
<rect x="144.13533715641685" y="560.8726148473494" width="1.2923076923076922" height="19.127385152650618" fill="#3fb950" opacity="0.45"/>
<rect x="146.29472018983586" y="560.1316397302585" width="1.2923076923076922" height="19.868360269741515" fill="#3fb950" opacity="0.45"/>
<rect x="148.4541032232549" y="560.461303273305" width="1.2923076923076922" height="19.53869672669498" fill="#f85149" opacity="0.45"/>
<rect x="150.61348625667392" y="559.173539882505" width="1.2923076923076922" height="20.826460117495003" fill="#f85149" opacity="0.45"/>
<rect x="152.77286929009293" y="562.3052710130715" width="1.2923076923076922" height="17.694728986928453" fill="#3fb950" opacity="0.45"/>
<rect x="154.93225232351196" y="548.4317846608743" width="1.2923076923076922" height="31.568215339125686" fill="#3fb950" opacity="0.45"/>
<rect x="157.091635356931" y="558.9511237337977" width="1.2923076923076922" height="21.048876266202342" fill="#3fb950" opacity="0.45"/>
<rect x="159.25101839035" y="566.3100104392347" width="1.2923076923076922" height="13.689989560765298" fill="#f85149" opacity="0.45"/>
<rect x="161.410401423769" y="560.3880369998537" width="1.2923076923076922" height="19.61196300014626" fill="#3fb950" opacity="0.45"/>
<rect x="163.56978445718804" y="554.3069552238429" width="1.2923076923076922" height="25.69304477615708" fill="#3fb950" opacity="0.45"/>
<rect x="165.72916749060707" y="561.4911809860968" width="1.2923076923076922" height="18.508819013903235" fill="#3fb950" opacity="0.45"/>
<rect x="167.8885505240261" y="562.194107086425" width="1.2923076923076922" height="17.805892913575008" fill="#f85149" opacity="0.45"/>
<rect x="170.04793355744513" y="569.868870636642" width="1.2923076923076922" height="10.131129363358014" fill="#f85149" opacity="0.45"/>
<rect x="172.20731659086414" y="565.2462083668929" width="1.2923076923076922" height="14.753791633107085" fill="#f85149" opacity="0.45"/>
<rect x="174.36669962428314" y="564.6281467733702" width="1.2923076923076922" height="15.37185322662981" fill="#3fb950" opacity="0.45"/>
<rect x="176.52608265770218" y="561.3891367143879" width="1.2923076923076922" height="18.61086328561214" fill="#f85149" opacity="0.45"/>
<rect x="178.6854656911212" y="567.0396774364756" width="1.2923076923076922" height="12.960322563524414" fill="#f85149" opacity="0.45"/>
<rect x="180.84484872454024" y="569.5488060664966" width="1.2923076923076922" height="10.451193933503419" fill="#3fb950" opacity="0.45"/>
<rect x="183.00423175795927" y="548.9956391768112" width="1.2923076923076922" height="31.00436082318879" fill="#3fb950" opacity="0.45"/>
<rect x="185.16361479137828" y="551.1312466701228" width="1.2923076923076922" height="28.868753329877222" fill="#f85149" opacity="0.45"/>
<rect x="187.32299782479728" y="552.0249476267502" width="1.2923076923076922" height="27.97505237324981" fill="#f85149" opacity="0.45"/>
<rect x="189.48238085821632" y="546.5739986887646" width="1.2923076923076922" height="33.42600131123538" fill="#3fb950" opacity="0.45"/>
<rect x="191.64176389163535" y="560.5563154459437" width="1.2923076923076922" height="19.44368455405629" fill="#3fb950" opacity="0.45"/>
<rect x="193.80114692505438" y="552.7545957035452" width="1.2923076923076922" height="27.245404296454808" fill="#f85149" opacity="0.45"/>
<rect x="195.96052995847342" y="560.8188681672812" width="1.2923076923076922" height="19.181131832718847" fill="#f85149" opacity="0.45"/>
<rect x="198.11991299189245" y="559.2353782066153" width="1.2923076923076922" height="20.764621793384663" fill="#3fb950" opacity="0.45"/>
<rect x="200.27929602531145" y="565.98445893977" width="1.2923076923076922" height="14.01554106023002" fill="#f85149" opacity="0.45"/>
<rect x="202.43867905873046" y="567.7589949497934" width="1.2923076923076922" height="12.241005050206581" fill="#3fb950" opacity="0.45"/>
<rect x="204.5980620921495" y="562.1880903846197" width="1.2923076923076922" height="17.811909615380273" fill="#3fb950" opacity="0.45"/>
<rect x="206.75744512556852" y="560.8581785471058" width="1.2923076923076922" height="19.14182145289419" fill="#3fb950" opacity="0.45"/>
<rect x="208.91682815898753" y="562.9282077748285" width="1.2923076923076922" height="17.07179222517152" fill="#f85149" opacity="0.45"/>
<rect x="211.07621119240656" y="558.7489398486034" width="1.2923076923076922" height="21.251060151396587" fill="#f85149" opacity="0.45"/>
<rect x="213.23559422582557" y="546.535930751556" width="1.2923076923076922" height="33.46406924844405" fill="#f85149" opacity="0.45"/>
<rect x="215.3949772592446" y="559.469127702434" width="1.2923076923076922" height="20.53087229756602" fill="#f85149" opacity="0.45"/>
<rect x="217.55436029266363" y="565.6139713812246" width="1.2923076923076922" height="14.386028618775413" fill="#3fb950" opacity="0.45"/>
<rect x="219.71374332608266" y="563.1714616413186" width="1.2923076923076922" height="16.828538358681385" fill="#3fb950" opacity="0.45"/>
<rect x="221.8731263595017" y="560.8875493860024" width="1.2923076923076922" height="19.112450613997567" fill="#3fb950" opacity="0.45"/>
<rect x="224.0325093929207" y="558.0950555441225" width="1.2923076923076922" height="21.904944455877512" fill="#f85149" opacity="0.45"/>
<rect x="226.19189242633973" y="567.2152907087706" width="1.2923076923076922" height="12.784709291229433" fill="#f85149" opacity="0.45"/>
<rect x="228.35127545975874" y="566.7092823028531" width="1.2923076923076922" height="13.290717697146874" fill="#3fb950" opacity="0.45"/>
<rect x="230.51065849317777" y="570.8040956652676" width="1.2923076923076922" height="9.195904334732404" fill="#3fb950" opacity="0.45"/>
<rect x="232.6700415265968" y="554.9492980563075" width="1.2923076923076922" height="25.050701943692502" fill="#3fb950" opacity="0.45"/>
<rect x="234.8294245600158" y="558.3902586483175" width="1.2923076923076922" height="21.609741351682487" fill="#3fb950" opacity="0.45"/>
<rect x="236.98880759343484" y="559.9706834967429" width="1.2923076923076922" height="20.029316503257064" fill="#3fb950" opacity="0.45"/>
<rect x="239.14819062685385" y="563.2752844349448" width="1.2923076923076922" height="16.72471556505525" fill="#3fb950" opacity="0.45"/>
<rect x="241.30757366027288" y="569.5813681539398" width="1.2923076923076922" height="10.41863184606018" fill="#f85149" opacity="0.45"/>
<rect x="243.46695669369188" y="561.7884590325287" width="1.2923076923076922" height="18.21154096747125" fill="#f85149" opacity="0.45"/>
<rect x="245.62633972711095" y="557.244360761091" width="1.2923076923076922" height="22.755639238908998" fill="#3fb950" opacity="0.45"/>
<rect x="247.78572276052995" y="562.5580733979403" width="1.2923076923076922" height="17.441926602059652" fill="#f85149" opacity="0.45"/>
<rect x="249.94510579394898" y="561.034775682589" width="1.2923076923076922" height="18.965224317410957" fill="#f85149" opacity="0.45"/>
<rect x="252.10448882736802" y="562.805067205909" width="1.2923076923076922" height="17.19493279409096" fill="#3fb950" opacity="0.45"/>
<rect x="254.26387186078702" y="546.1657459201455" width="1.2923076923076922" height="33.83425407985453" fill="#f85149" opacity="0.45"/>
<rect x="256.4232548942061" y="552.1955722081353" width="1.2923076923076922" height="27.80442779186467" fill="#3fb950" opacity="0.45"/>
<rect x="258.58263792762506" y="568.9825991084492" width="1.2923076923076922" height="11.017400891550778" fill="#f85149" opacity="0.45"/>
<rect x="260.74202096104415" y="561.2674530198051" width="1.2923076923076922" height="18.73254698019491" fill="#f85149" opacity="0.45"/>
<rect x="262.9014039944631" y="560.0107822284812" width="1.2923076923076922" height="19.989217771518838" fill="#f85149" opacity="0.45"/>
<rect x="265.06078702788216" y="552.8488258310854" width="1.2923076923076922" height="27.151174168914622" fill="#f85149" opacity="0.45"/>
<rect x="267.2201700613012" y="537.5086138968638" width="1.2923076923076922" height="42.491386103136165" fill="#3fb950" opacity="0.45"/>
<rect x="269.37955309472017" y="516.3347743921177" width="1.2923076923076922" height="63.66522560788235" fill="#3fb950" opacity="0.45"/>
<rect x="271.53893612813926" y="531.090180569944" width="1.2923076923076922" height="48.90981943005602" fill="#3fb950" opacity="0.45"/>
<rect x="273.69831916155823" y="546.1912002267348" width="1.2923076923076922" height="33.80879977326515" fill="#3fb950" opacity="0.45"/>
<rect x="275.8577021949773" y="544.037801207435" width="1.2923076923076922" height="35.962198792565005" fill="#3fb950" opacity="0.45"/>
<rect x="278.0170852283963" y="547.4455438032095" width="1.2923076923076922" height="32.55445619679051" fill="#f85149" opacity="0.45"/>
<rect x="280.17646826181533" y="554.3800322928349" width="1.2923076923076922" height="25.619967707165074" fill="#f85149" opacity="0.45"/>
<rect x="282.33585129523436" y="556.2519076903462" width="1.2923076923076922" height="23.74809230965377" fill="#f85149" opacity="0.45"/>
<rect x="284.49523432865334" y="557.2414470124179" width="1.2923076923076922" height="22.758552987582107" fill="#f85149" opacity="0.45"/>
<rect x="286.65461736207243" y="550.1268547979971" width="1.2923076923076922" height="29.87314520200289" fill="#f85149" opacity="0.45"/>
<rect x="288.8140003954914" y="534.1312953781426" width="1.2923076923076922" height="45.86870462185743" fill="#3fb950" opacity="0.45"/>
<rect x="290.97338342891044" y="535.8443147116363" width="1.2923076923076922" height="44.15568528836366" fill="#3fb950" opacity="0.45"/>
<rect x="293.13276646232947" y="550.480749125463" width="1.2923076923076922" height="29.519250874536965" fill="#3fb950" opacity="0.45"/>
<rect x="295.29214949574845" y="553.0738530013309" width="1.2923076923076922" height="26.926146998669083" fill="#f85149" opacity="0.45"/>
<rect x="297.45153252916754" y="544.8221672138557" width="1.2923076923076922" height="35.177832786144336" fill="#3fb950" opacity="0.45"/>
<rect x="299.6109155625865" y="546.682103809986" width="1.2923076923076922" height="33.31789619001404" fill="#3fb950" opacity="0.45"/>
<rect x="301.7702985960056" y="529.5414600820798" width="1.2923076923076922" height="50.458539917920234" fill="#3fb950" opacity="0.45"/>
<rect x="303.9296816294246" y="550.3494096966413" width="1.2923076923076922" height="29.65059030335874" fill="#3fb950" opacity="0.45"/>
<rect x="306.0890646628436" y="537.5022503202164" width="1.2923076923076922" height="42.497749679783624" fill="#3fb950" opacity="0.45"/>
<rect x="308.24844769626264" y="545.9787740734779" width="1.2923076923076922" height="34.021225926522106" fill="#3fb950" opacity="0.45"/>
<rect x="310.4078307296816" y="562.3966315396459" width="1.2923076923076922" height="17.60336846035409" fill="#f85149" opacity="0.45"/>
<rect x="312.5672137631007" y="545.6453705889528" width="1.2923076923076922" height="34.3546294110472" fill="#3fb950" opacity="0.45"/>
<rect x="314.7265967965197" y="562.0424534054911" width="1.2923076923076922" height="17.957546594508926" fill="#f85149" opacity="0.45"/>
<rect x="316.8859798299388" y="551.157041544739" width="1.2923076923076922" height="28.842958455261055" fill="#f85149" opacity="0.45"/>
<rect x="319.04536286335775" y="555.0108588805442" width="1.2923076923076922" height="24.98914111945578" fill="#f85149" opacity="0.45"/>
<rect x="321.2047458967768" y="556.752725587264" width="1.2923076923076922" height="23.247274412736033" fill="#f85149" opacity="0.45"/>
<rect x="323.3641289301958" y="552.910935348254" width="1.2923076923076922" height="27.089064651745957" fill="#3fb950" opacity="0.45"/>
<rect x="325.5235119636148" y="564.7991749909352" width="1.2923076923076922" height="15.200825009064829" fill="#3fb950" opacity="0.45"/>
<rect x="327.6828949970338" y="562.8534593997795" width="1.2923076923076922" height="17.146540600220533" fill="#3fb950" opacity="0.45"/>
<rect x="329.84227803045286" y="554.7154791855204" width="1.2923076923076922" height="25.284520814479606" fill="#3fb950" opacity="0.45"/>
<rect x="332.00166106387184" y="561.2913810770896" width="1.2923076923076922" height="18.708618922910432" fill="#f85149" opacity="0.45"/>
<rect x="334.1610440972909" y="559.3752255292898" width="1.2923076923076922" height="20.624774470710236" fill="#3fb950" opacity="0.45"/>
<rect x="336.32042713070996" y="550.154112853765" width="1.2923076923076922" height="29.845887146234986" fill="#3fb950" opacity="0.45"/>
<rect x="338.47981016412893" y="561.0593533418504" width="1.2923076923076922" height="18.940646658149603" fill="#f85149" opacity="0.45"/>
<rect x="340.63919319754797" y="547.2803683102518" width="1.2923076923076922" height="32.71963168974821" fill="#f85149" opacity="0.45"/>
<rect x="342.798576230967" y="545.2782571765979" width="1.2923076923076922" height="34.72174282340211" fill="#f85149" opacity="0.45"/>
<rect x="344.95795926438603" y="552.315212494558" width="1.2923076923076922" height="27.684787505442046" fill="#3fb950" opacity="0.45"/>
<rect x="347.117342297805" y="554.7937278430662" width="1.2923076923076922" height="25.206272156933778" fill="#3fb950" opacity="0.45"/>
<rect x="349.2767253312241" y="555.1852612442997" width="1.2923076923076922" height="24.81473875570032" fill="#3fb950" opacity="0.45"/>
<rect x="351.4361083646431" y="556.2827921649172" width="1.2923076923076922" height="23.71720783508283" fill="#3fb950" opacity="0.45"/>
<rect x="353.5954913980621" y="566.7023258855667" width="1.2923076923076922" height="13.297674114433335" fill="#f85149" opacity="0.45"/>
<rect x="355.75487443148114" y="567.7847267562564" width="1.2923076923076922" height="12.215273243743582" fill="#f85149" opacity="0.45"/>
<rect x="357.9142574649002" y="570.0191368182078" width="1.2923076923076922" height="9.980863181792188" fill="#f85149" opacity="0.45"/>
<rect x="360.0736404983192" y="560.486707125372" width="1.2923076923076922" height="19.51329287462795" fill="#3fb950" opacity="0.45"/>
<rect x="362.2330235317382" y="525.9711593217011" width="1.2923076923076922" height="54.028840678298934" fill="#f85149" opacity="0.45"/>
<rect x="364.3924065651573" y="548.969844302195" width="1.2923076923076922" height="31.030155697804958" fill="#f85149" opacity="0.45"/>
<rect x="366.55178959857625" y="562.2382611004073" width="1.2923076923076922" height="17.76173889959273" fill="#f85149" opacity="0.45"/>
<rect x="368.7111726319953" y="565.0130012571908" width="1.2923076923076922" height="14.986998742809192" fill="#3fb950" opacity="0.45"/>
<rect x="370.8705556654143" y="558.8171922038837" width="1.2923076923076922" height="21.18280779611632" fill="#3fb950" opacity="0.45"/>
<rect x="373.02993869883335" y="551.172953639765" width="1.2923076923076922" height="28.827046360235045" fill="#3fb950" opacity="0.45"/>
<rect x="375.1893217322523" y="567.8036661226311" width="1.2923076923076922" height="12.196333877368943" fill="#3fb950" opacity="0.45"/>
<rect x="377.34870476567136" y="548.9549980589563" width="1.2923076923076922" height="31.045001941043665" fill="#3fb950" opacity="0.45"/>
<rect x="379.5080877990904" y="561.2617516587652" width="1.2923076923076922" height="18.738248341234794" fill="#f85149" opacity="0.45"/>
<rect x="381.6674708325094" y="564.3705575156814" width="1.2923076923076922" height="15.629442484318588" fill="#3fb950" opacity="0.45"/>
<rect x="383.8268538659284" y="533.5582707527456" width="1.2923076923076922" height="46.44172924725444" fill="#3fb950" opacity="0.45"/>
<rect x="385.9862368993475" y="554.342607650788" width="1.2923076923076922" height="25.657392349212046" fill="#f85149" opacity="0.45"/>
<rect x="388.1456199327665" y="559.5512172105034" width="1.2923076923076922" height="20.44878278949659" fill="#f85149" opacity="0.45"/>
<rect x="390.3050029661855" y="567.2793805659464" width="1.2923076923076922" height="12.72061943405356" fill="#f85149" opacity="0.45"/>
<rect x="392.46438599960453" y="569.5535046439022" width="1.2923076923076922" height="10.446495356097785" fill="#f85149" opacity="0.45"/>
<rect x="394.62376903302356" y="568.4470306591758" width="1.2923076923076922" height="11.552969340824234" fill="#f85149" opacity="0.45"/>
<rect x="396.7831520664426" y="570.516643637088" width="1.2923076923076922" height="9.48335636291199" fill="#3fb950" opacity="0.45"/>
<rect x="398.9425350998616" y="563.4534015129177" width="1.2923076923076922" height="16.546598487082292" fill="#f85149" opacity="0.45"/>
<rect x="401.1019181332806" y="563.9507948091223" width="1.2923076923076922" height="16.04920519087773" fill="#f85149" opacity="0.45"/>
<rect x="403.26130116669964" y="524.7723914017344" width="1.2923076923076922" height="55.22760859826565" fill="#3fb950" opacity="0.45"/>
<rect x="405.42068420011867" y="535.2887599646469" width="1.2923076923076922" height="44.71124003535306" fill="#3fb950" opacity="0.45"/>
<rect x="407.58006723353765" y="528.9566480188693" width="1.2923076923076922" height="51.04335198113074" fill="#3fb950" opacity="0.45"/>
<rect x="409.73945026695674" y="555.497663033844" width="1.2923076923076922" height="24.502336966156008" fill="#f85149" opacity="0.45"/>
<rect x="411.89883330037577" y="547.1051649809519" width="1.2923076923076922" height="32.89483501904806" fill="#3fb950" opacity="0.45"/>
<rect x="414.05821633379475" y="525.6012646037947" width="1.2923076923076922" height="54.398735396205325" fill="#3fb950" opacity="0.45"/>
<rect x="416.2175993672138" y="537.1336800335251" width="1.2923076923076922" height="42.86631996647486" fill="#3fb950" opacity="0.45"/>
<rect x="418.3769824006328" y="552.3912348462995" width="1.2923076923076922" height="27.60876515370046" fill="#f85149" opacity="0.45"/>
<rect x="420.53636543405185" y="559.760540410628" width="1.2923076923076922" height="20.239459589372018" fill="#3fb950" opacity="0.45"/>
<rect x="422.6957484674708" y="538.4556200564878" width="1.2923076923076922" height="41.54437994351224" fill="#f85149" opacity="0.45"/>
<rect x="424.8551315008899" y="554.7807484171592" width="1.2923076923076922" height="25.219251582840798" fill="#f85149" opacity="0.45"/>
<rect x="427.0145145343089" y="550.8528701491737" width="1.2923076923076922" height="29.14712985082633" fill="#f85149" opacity="0.45"/>
<rect x="429.1738975677279" y="562.2978352778215" width="1.2923076923076922" height="17.70216472217851" fill="#3fb950" opacity="0.45"/>
<rect x="431.33328060114695" y="563.6845841349053" width="1.2923076923076922" height="16.31541586509468" fill="#f85149" opacity="0.45"/>
<rect x="433.492663634566" y="559.3361611152623" width="1.2923076923076922" height="20.663838884737743" fill="#3fb950" opacity="0.45"/>
<rect x="435.65204666798496" y="557.5767803824278" width="1.2923076923076922" height="22.42321961757216" fill="#3fb950" opacity="0.45"/>
<rect x="437.811429701404" y="557.7237922472939" width="1.2923076923076922" height="22.276207752706114" fill="#f85149" opacity="0.45"/>
<rect x="439.9708127348231" y="542.4873967998831" width="1.2923076923076922" height="37.51260320011693" fill="#3fb950" opacity="0.45"/>
<rect x="442.13019576824206" y="543.685149322585" width="1.2923076923076922" height="36.31485067741505" fill="#3fb950" opacity="0.45"/>
<rect x="444.2895788016611" y="562.9199395399576" width="1.2923076923076922" height="17.080060460042432" fill="#f85149" opacity="0.45"/>
<rect x="446.4489618350801" y="541.2516583285717" width="1.2923076923076922" height="38.74834167142831" fill="#f85149" opacity="0.45"/>
<rect x="448.60834486849916" y="562.6713879486074" width="1.2923076923076922" height="17.32861205139261" fill="#f85149" opacity="0.45"/>
<rect x="450.76772790191814" y="556.9814800853574" width="1.2923076923076922" height="23.01851991464264" fill="#3fb950" opacity="0.45"/>
<rect x="452.92711093533717" y="557.8829510384462" width="1.2923076923076922" height="22.11704896155379" fill="#3fb950" opacity="0.45"/>
<rect x="455.0864939687562" y="552.3768048528713" width="1.2923076923076922" height="27.62319514712874" fill="#3fb950" opacity="0.45"/>
<rect x="457.24587700217523" y="557.3997733039494" width="1.2923076923076922" height="22.60022669605064" fill="#f85149" opacity="0.45"/>
<rect x="459.4052600355942" y="563.8483910489408" width="1.2923076923076922" height="16.15160895105919" fill="#3fb950" opacity="0.45"/>
<rect x="461.5646430690133" y="555.6726960791306" width="1.2923076923076922" height="24.32730392086944" fill="#3fb950" opacity="0.45"/>
<rect x="463.72402610243233" y="564.4415344151753" width="1.2923076923076922" height="15.558465584824717" fill="#f85149" opacity="0.45"/>
<rect x="465.8834091358513" y="568.1397815377394" width="1.2923076923076922" height="11.860218462260605" fill="#f85149" opacity="0.45"/>
<rect x="468.04279216927034" y="542.7887427421897" width="1.2923076923076922" height="37.2112572578103" fill="#3fb950" opacity="0.45"/>
<rect x="470.2021752026894" y="532.8925927036356" width="1.2923076923076922" height="47.107407296364386" fill="#3fb950" opacity="0.45"/>
<rect x="472.3615582361084" y="548.732947705537" width="1.2923076923076922" height="31.267052294463042" fill="#f85149" opacity="0.45"/>
<rect x="474.5209412695274" y="471.6666666666667" width="1.2923076923076922" height="108.33333333333331" fill="#f85149" opacity="0.45"/>
<rect x="476.6803243029464" y="528.2715008308986" width="1.2923076923076922" height="51.72849916910138" fill="#f85149" opacity="0.45"/>
<rect x="478.83970733636545" y="517.8737130094366" width="1.2923076923076922" height="62.12628699056336" fill="#f85149" opacity="0.45"/>
<rect x="480.9990903697845" y="533.0154746931273" width="1.2923076923076922" height="46.98452530687268" fill="#f85149" opacity="0.45"/>
<rect x="483.15847340320346" y="545.4167296135348" width="1.2923076923076922" height="34.58327038646519" fill="#3fb950" opacity="0.45"/>
<rect x="485.31785643662255" y="553.7433403668879" width="1.2923076923076922" height="26.256659633112122" fill="#3fb950" opacity="0.45"/>
<rect x="487.4772394700416" y="550.3082135790391" width="1.2923076923076922" height="29.691786420960852" fill="#3fb950" opacity="0.45"/>
<rect x="489.63662250346056" y="556.2535853032186" width="1.2923076923076922" height="23.746414696781358" fill="#3fb950" opacity="0.45"/>
<rect x="491.7960055368796" y="564.3447752546958" width="1.2923076923076922" height="15.655224745304167" fill="#f85149" opacity="0.45"/>
<rect x="493.9553885702986" y="558.3485516786753" width="1.2923076923076922" height="21.651448321324665" fill="#f85149" opacity="0.45"/>
<rect x="496.11477160371766" y="548.3669821335684" width="1.2923076923076922" height="31.6330178664316" fill="#3fb950" opacity="0.45"/>
<rect x="498.27415463713663" y="556.9284649958652" width="1.2923076923076922" height="23.07153500413483" fill="#3fb950" opacity="0.45"/>
<rect x="500.43353767055567" y="561.6658356224648" width="1.2923076923076922" height="18.334164377535217" fill="#3fb950" opacity="0.45"/>
<rect x="502.5929207039747" y="564.8216209466219" width="1.2923076923076922" height="15.17837905337808" fill="#f85149" opacity="0.45"/>
<rect x="504.75230373739373" y="565.1702680037504" width="1.2923076923076922" height="14.82973199624962" fill="#3fb950" opacity="0.45"/>
<rect x="506.91168677081276" y="529.760186743831" width="1.2923076923076922" height="50.239813256168986" fill="#3fb950" opacity="0.45"/>
<rect x="509.07106980423174" y="555.4824005407949" width="1.2923076923076922" height="24.517599459205144" fill="#3fb950" opacity="0.45"/>
<rect x="511.2304528376508" y="562.2628072255922" width="1.2923076923076922" height="17.737192774407845" fill="#f85149" opacity="0.45"/>
<rect x="513.3898358710697" y="563.0271238661437" width="1.2923076923076922" height="16.97287613385629" fill="#3fb950" opacity="0.45"/>
<rect x="515.5492189044888" y="567.3279745779066" width="1.2923076923076922" height="12.672025422093384" fill="#3fb950" opacity="0.45"/>
<rect x="517.7086019379079" y="552.3910960963627" width="1.2923076923076922" height="27.60890390363727" fill="#3fb950" opacity="0.45"/>
<rect x="519.8679849713268" y="534.9503425619506" width="1.2923076923076922" height="45.049657438049394" fill="#3fb950" opacity="0.45"/>
<rect x="522.0273680047459" y="547.5904681122081" width="1.2923076923076922" height="32.4095318877919" fill="#f85149" opacity="0.45"/>
<rect x="524.186751038165" y="563.4135109060846" width="1.2923076923076922" height="16.58648909391536" fill="#f85149" opacity="0.45"/>
<rect x="526.346134071584" y="560.3574804796789" width="1.2923076923076922" height="19.642519520321116" fill="#3fb950" opacity="0.45"/>
<rect x="528.5055171050029" y="563.9341826575969" width="1.2923076923076922" height="16.06581734240308" fill="#3fb950" opacity="0.45"/>
<rect x="530.664900138422" y="553.2266923635431" width="1.2923076923076922" height="26.773307636456934" fill="#3fb950" opacity="0.45"/>
<rect x="532.824283171841" y="553.1318378612871" width="1.2923076923076922" height="26.868162138712933" fill="#f85149" opacity="0.45"/>
<rect x="534.98366620526" y="561.200386345803" width="1.2923076923076922" height="18.799613654196946" fill="#3fb950" opacity="0.45"/>
<rect x="537.143049238679" y="536.9416185869027" width="1.2923076923076922" height="43.05838141309732" fill="#3fb950" opacity="0.45"/>
<rect x="539.302432272098" y="554.5771707257816" width="1.2923076923076922" height="25.42282927421843" fill="#f85149" opacity="0.45"/>
<rect x="541.461815305517" y="564.7244076954402" width="1.2923076923076922" height="15.275592304559837" fill="#3fb950" opacity="0.45"/>
<rect x="543.6211983389361" y="561.0316601158261" width="1.2923076923076922" height="18.96833988417393" fill="#3fb950" opacity="0.45"/>
<rect x="545.7805813723552" y="509.0721549155658" width="1.2923076923076922" height="70.92784508443418" fill="#3fb950" opacity="0.45"/>
<rect x="547.939964405774" y="524.0411350870355" width="1.2923076923076922" height="55.958864912964486" fill="#3fb950" opacity="0.45"/>
<rect x="550.0993474391931" y="543.1368347995708" width="1.2923076923076922" height="36.863165200429194" fill="#f85149" opacity="0.45"/>
<rect x="552.2587304726122" y="537.9249141618179" width="1.2923076923076922" height="42.075085838182076" fill="#f85149" opacity="0.45"/>
<rect x="554.4181135060313" y="542.2738858743929" width="1.2923076923076922" height="37.72611412560707" fill="#f85149" opacity="0.45"/>
<rect x="556.5774965394502" y="553.5860799271437" width="1.2923076923076922" height="26.413920072856286" fill="#f85149" opacity="0.45"/>
<rect x="558.7368795728693" y="527.7047893276265" width="1.2923076923076922" height="52.295210672373514" fill="#3fb950" opacity="0.45"/>
<rect x="560.8962626062884" y="545.2132023766796" width="1.2923076923076922" height="34.78679762332035" fill="#f85149" opacity="0.45"/>
<rect x="563.0556456397073" y="553.514333596182" width="1.2923076923076922" height="26.48566640381796" fill="#f85149" opacity="0.45"/>
<rect x="565.2150286731263" y="546.0899695342009" width="1.2923076923076922" height="33.91003046579908" fill="#f85149" opacity="0.45"/>
<rect x="567.3744117065454" y="539.6556619531469" width="1.2923076923076922" height="40.34433804685307" fill="#3fb950" opacity="0.45"/>
<rect x="569.5337947399644" y="545.2218174863925" width="1.2923076923076922" height="34.778182513607476" fill="#3fb950" opacity="0.45"/>
<rect x="571.6931777733834" y="558.0642215240739" width="1.2923076923076922" height="21.9357784759261" fill="#f85149" opacity="0.45"/>
<rect x="573.8525608068024" y="561.0206925640027" width="1.2923076923076922" height="18.97930743599727" fill="#f85149" opacity="0.45"/>
<rect x="576.0119438402214" y="541.2809282584234" width="1.2923076923076922" height="38.71907174157661" fill="#3fb950" opacity="0.45"/>
<rect x="578.1713268736404" y="557.7960935780028" width="1.2923076923076922" height="22.203906421997203" fill="#f85149" opacity="0.45"/>
<rect x="580.3307099070595" y="555.8040544283983" width="1.2923076923076922" height="24.19594557160167" fill="#f85149" opacity="0.45"/>
<rect x="582.4900929404786" y="563.8715370611269" width="1.2923076923076922" height="16.1284629388731" fill="#f85149" opacity="0.45"/>
<rect x="584.6494759738974" y="561.3109195909186" width="1.2923076923076922" height="18.689080409081384" fill="#3fb950" opacity="0.45"/>
<rect x="586.8088590073165" y="546.6900314768301" width="1.2923076923076922" height="33.309968523169914" fill="#f85149" opacity="0.45"/>
<rect x="588.9682420407356" y="512.2982738440554" width="1.2923076923076922" height="67.70172615594458" fill="#3fb950" opacity="0.45"/>
<rect x="591.1276250741547" y="540.7211290247305" width="1.2923076923076922" height="39.278870975269456" fill="#3fb950" opacity="0.45"/>
<rect x="593.2870081075737" y="522.3396635323735" width="1.2923076923076922" height="57.66033646762651" fill="#3fb950" opacity="0.45"/>
<rect x="595.4463911409927" y="523.2957010515207" width="1.2923076923076922" height="56.70429894847928" fill="#3fb950" opacity="0.45"/>
<rect x="597.6057741744116" y="548.6118190107013" width="1.2923076923076922" height="31.38818098929869" fill="#f85149" opacity="0.45"/>
<rect x="599.7651572078307" y="542.7438129899243" width="1.2923076923076922" height="37.25618701007568" fill="#f85149" opacity="0.45"/>
<rect x="601.9245402412497" y="553.8433033895445" width="1.2923076923076922" height="26.15669661045547" fill="#f85149" opacity="0.45"/>
<rect x="604.0839232746687" y="560.0411369305662" width="1.2923076923076922" height="19.958863069433846" fill="#3fb950" opacity="0.45"/>
<rect x="606.2433063080878" y="550.9383527238796" width="1.2923076923076922" height="29.061647276120425" fill="#f85149" opacity="0.45"/>
<rect x="608.4026893415067" y="553.711074699764" width="1.2923076923076922" height="26.288925300235974" fill="#3fb950" opacity="0.45"/>
<rect x="610.5620723749258" y="552.8009066483633" width="1.2923076923076922" height="27.199093351636748" fill="#3fb950" opacity="0.45"/>
<rect x="612.7214554083448" y="550.6390564965486" width="1.2923076923076922" height="29.36094350345138" fill="#f85149" opacity="0.45"/>
<rect x="614.8808384417638" y="561.7758643223555" width="1.2923076923076922" height="18.22413567764454" fill="#3fb950" opacity="0.45"/>
<rect x="617.0402214751829" y="550.1679310861083" width="1.2923076923076922" height="29.832068913891703" fill="#f85149" opacity="0.45"/>
<rect x="619.199604508602" y="561.9617261695286" width="1.2923076923076922" height="18.03827383047144" fill="#f85149" opacity="0.45"/>
<rect x="621.3589875420209" y="567.5922175257471" width="1.2923076923076922" height="12.40778247425294" fill="#f85149" opacity="0.45"/>
<rect x="623.5183705754399" y="561.2588568305381" width="1.2923076923076922" height="18.741143169461907" fill="#3fb950" opacity="0.45"/>
<rect x="625.677753608859" y="568.7769780089112" width="1.2923076923076922" height="11.223021991088785" fill="#f85149" opacity="0.45"/>
<rect x="627.837136642278" y="563.6045254213656" width="1.2923076923076922" height="16.395474578634435" fill="#3fb950" opacity="0.45"/>
<rect x="629.9965196756971" y="546.8428203845198" width="1.2923076923076922" height="33.15717961548023" fill="#3fb950" opacity="0.45"/>
<rect x="632.155902709116" y="532.0454108167316" width="1.2923076923076922" height="47.954589183268354" fill="#3fb950" opacity="0.45"/>
<rect x="634.315285742535" y="552.9295152261561" width="1.2923076923076922" height="27.070484773843873" fill="#f85149" opacity="0.45"/>
<rect x="636.4746687759541" y="556.5483280098961" width="1.2923076923076922" height="23.451671990103932" fill="#f85149" opacity="0.45"/>
<rect x="638.6340518093731" y="553.1019120226432" width="1.2923076923076922" height="26.898087977356795" fill="#f85149" opacity="0.45"/>
<rect x="640.7934348427922" y="556.2803072796852" width="1.2923076923076922" height="23.71969272031481" fill="#f85149" opacity="0.45"/>
<rect x="642.9528178762112" y="531.288977695317" width="1.2923076923076922" height="48.711022304682956" fill="#f85149" opacity="0.45"/>
<rect x="645.1122009096301" y="552.7499665011079" width="1.2923076923076922" height="27.250033498892094" fill="#f85149" opacity="0.45"/>
<rect x="647.2715839430492" y="560.3358481031671" width="1.2923076923076922" height="19.66415189683289" fill="#f85149" opacity="0.45"/>
<rect x="649.4309669764683" y="562.347331164371" width="1.2923076923076922" height="17.652668835629015" fill="#3fb950" opacity="0.45"/>
<rect x="651.5903500098872" y="562.0346266476919" width="1.2923076923076922" height="17.96537335230812" fill="#3fb950" opacity="0.45"/>
<rect x="653.7497330433063" y="539.2573234981944" width="1.2923076923076922" height="40.74267650180559" fill="#3fb950" opacity="0.45"/>
<rect x="655.9091160767254" y="561.0178229630369" width="1.2923076923076922" height="18.982177036963094" fill="#f85149" opacity="0.45"/>
<rect x="658.0684991101443" y="569.6801202680572" width="1.2923076923076922" height="10.31987973194282" fill="#f85149" opacity="0.45"/>
<rect x="660.2278821435633" y="540.036593597845" width="1.2923076923076922" height="39.96340640215499" fill="#3fb950" opacity="0.45"/>
<rect x="662.3872651769824" y="550.970183220747" width="1.2923076923076922" height="29.029816779252997" fill="#f85149" opacity="0.45"/>
<rect x="664.5466482104014" y="556.7573421760706" width="1.2923076923076922" height="23.24265782392945" fill="#f85149" opacity="0.45"/>
<rect x="666.7060312438205" y="562.0192506319671" width="1.2923076923076922" height="17.98074936803289" fill="#f85149" opacity="0.45"/>
<rect x="668.8654142772394" y="566.5937162191206" width="1.2923076923076922" height="13.406283780879448" fill="#f85149" opacity="0.45"/>
<rect x="671.0247973106584" y="561.945353676985" width="1.2923076923076922" height="18.05464632301505" fill="#f85149" opacity="0.45"/>
<rect x="673.1841803440775" y="558.0760215755181" width="1.2923076923076922" height="21.923978424481902" fill="#f85149" opacity="0.45"/>
<rect x="675.3435633774965" y="564.1768184561867" width="1.2923076923076922" height="15.823181543813348" fill="#3fb950" opacity="0.45"/>
<rect x="677.5029464109156" y="558.474631223529" width="1.2923076923076922" height="21.525368776471055" fill="#3fb950" opacity="0.45"/>
<rect x="679.6623294443345" y="560.459184183361" width="1.2923076923076922" height="19.540815816638997" fill="#f85149" opacity="0.45"/>
<rect x="681.8217124777535" y="558.3460983275199" width="1.2923076923076922" height="21.65390167248006" fill="#3fb950" opacity="0.45"/>
<rect x="683.9810955111726" y="567.7811570987913" width="1.2923076923076922" height="12.218842901208745" fill="#3fb950" opacity="0.45"/>
<rect x="686.1404785445917" y="564.384016259552" width="1.2923076923076922" height="15.615983740447973" fill="#3fb950" opacity="0.45"/>
<rect x="688.2998615780106" y="566.1673944246394" width="1.2923076923076922" height="13.832605575360617" fill="#3fb950" opacity="0.45"/>
<rect x="690.4592446114297" y="568.2443548423873" width="1.2923076923076922" height="11.755645157612662" fill="#f85149" opacity="0.45"/>
<rect x="692.6186276448487" y="569.5353157885494" width="1.2923076923076922" height="10.464684211450617" fill="#3fb950" opacity="0.45"/>
<rect x="694.7780106782677" y="565.7937723788851" width="1.2923076923076922" height="14.206227621114863" fill="#3fb950" opacity="0.45"/>
<rect x="696.9373937116868" y="567.8963132395287" width="1.2923076923076922" height="12.103686760471305" fill="#f85149" opacity="0.45"/>
<rect x="699.0967767451058" y="566.2106907117396" width="1.2923076923076922" height="13.78930928826037" fill="#f85149" opacity="0.45"/>
<rect x="701.2561597785248" y="562.4047484109494" width="1.2923076923076922" height="17.595251589050577" fill="#f85149" opacity="0.45"/>
<rect x="703.4155428119439" y="564.2872381786267" width="1.2923076923076922" height="15.712761821373306" fill="#f85149" opacity="0.45"/>
<rect x="705.5749258453628" y="564.6957873675653" width="1.2923076923076922" height="15.304212632434655" fill="#3fb950" opacity="0.45"/>
<rect x="707.7343088787818" y="566.2297625212358" width="1.2923076923076922" height="13.770237478764216" fill="#f85149" opacity="0.45"/>
<rect x="709.8936919122009" y="559.7750397790247" width="1.2923076923076922" height="20.224960220975277" fill="#f85149" opacity="0.45"/>
<rect x="712.0530749456199" y="564.4153674384559" width="1.2923076923076922" height="15.58463256154414" fill="#3fb950" opacity="0.45"/>
<rect x="714.212457979039" y="565.0597410654501" width="1.2923076923076922" height="14.940258934549888" fill="#f85149" opacity="0.45"/>
<rect x="716.371841012458" y="566.1018413863118" width="1.2923076923076922" height="13.898158613688224" fill="#f85149" opacity="0.45"/>
<rect x="718.5312240458769" y="560.3299512308527" width="1.2923076923076922" height="19.670048769147343" fill="#3fb950" opacity="0.45"/>
<rect x="720.690607079296" y="567.8202467400799" width="1.2923076923076922" height="12.179753259920062" fill="#f85149" opacity="0.45"/>
<rect x="722.849990112715" y="568.2697019331165" width="1.2923076923076922" height="11.730298066883506" fill="#3fb950" opacity="0.45"/>
<rect x="725.0093731461341" y="569.8208694653208" width="1.2923076923076922" height="10.179130534679189" fill="#3fb950" opacity="0.45"/>
<rect x="727.168756179553" y="565.5525177728481" width="1.2923076923076922" height="14.447482227151909" fill="#f85149" opacity="0.45"/>
<rect x="729.328139212972" y="563.8541113304266" width="1.2923076923076922" height="16.145888669573424" fill="#f85149" opacity="0.45"/>
<rect x="731.4875222463911" y="557.3299505516571" width="1.2923076923076922" height="22.670049448342866" fill="#3fb950" opacity="0.45"/>
<rect x="733.6469052798102" y="564.0937703121903" width="1.2923076923076922" height="15.906229687809741" fill="#3fb950" opacity="0.45"/>
<rect x="735.8062883132291" y="561.7553923998606" width="1.2923076923076922" height="18.244607600139375" fill="#3fb950" opacity="0.45"/>
<rect x="737.9656713466482" y="565.2356129171728" width="1.2923076923076922" height="14.76438708282717" fill="#f85149" opacity="0.45"/>
<rect x="740.1250543800672" y="542.2219870912104" width="1.2923076923076922" height="37.778012908789606" fill="#3fb950" opacity="0.45"/>
<rect x="742.2844374134862" y="553.7272390674025" width="1.2923076923076922" height="26.27276093259752" fill="#f85149" opacity="0.45"/>
<rect x="744.4438204469053" y="557.5257330193122" width="1.2923076923076922" height="22.474266980687844" fill="#3fb950" opacity="0.45"/>
<rect x="746.6032034803243" y="554.1065435537507" width="1.2923076923076922" height="25.893456446249274" fill="#f85149" opacity="0.45"/>
<rect x="748.7625865137433" y="556.2963265905715" width="1.2923076923076922" height="23.70367340942846" fill="#f85149" opacity="0.45"/>
<rect x="750.9219695471623" y="554.4749561700593" width="1.2923076923076922" height="25.525043829940728" fill="#3fb950" opacity="0.45"/>
<rect x="753.0813525805813" y="551.5437313118147" width="1.2923076923076922" height="28.456268688185332" fill="#3fb950" opacity="0.45"/>
<rect x="755.2407356140003" y="553.5593074961546" width="1.2923076923076922" height="26.440692503845412" fill="#3fb950" opacity="0.45"/>
<rect x="757.4001186474194" y="556.6170786035857" width="1.2923076923076922" height="23.382921396414304" fill="#3fb950" opacity="0.45"/>
<rect x="759.5595016808384" y="556.6206104201591" width="1.2923076923076922" height="23.379389579840904" fill="#f85149" opacity="0.45"/>
<rect x="761.7188847142575" y="559.7950008494795" width="1.2923076923076922" height="20.204999150520507" fill="#3fb950" opacity="0.45"/>
<rect x="763.8782677476764" y="559.5724018031282" width="1.2923076923076922" height="20.427598196871827" fill="#3fb950" opacity="0.45"/>
<rect x="766.0376507810954" y="560.7724121657109" width="1.2923076923076922" height="19.227587834289125" fill="#3fb950" opacity="0.45"/>
<rect x="768.1970338145145" y="547.6173540658729" width="1.2923076923076922" height="32.38264593412714" fill="#3fb950" opacity="0.45"/>
<rect x="770.3564168479336" y="557.3186802726989" width="1.2923076923076922" height="22.681319727301116" fill="#3fb950" opacity="0.45"/>
<rect x="772.5157998813526" y="560.872097688494" width="1.2923076923076922" height="19.127902311505977" fill="#f85149" opacity="0.45"/>
<rect x="774.6751829147715" y="554.3489081592822" width="1.2923076923076922" height="25.651091840717754" fill="#f85149" opacity="0.45"/>
<rect x="776.8345659481906" y="556.2320475289364" width="1.2923076923076922" height="23.76795247106361" fill="#3fb950" opacity="0.45"/>
<rect x="778.9939489816096" y="556.5014053039929" width="1.2923076923076922" height="23.498594696007103" fill="#f85149" opacity="0.45"/>
<rect x="781.1533320150287" y="551.759689281645" width="1.2923076923076922" height="28.240310718354976" fill="#f85149" opacity="0.45"/>
<rect x="783.3127150484477" y="553.3759305342135" width="1.2923076923076922" height="26.624069465786533" fill="#f85149" opacity="0.45"/>
<rect x="785.4720980818666" y="549.8228536864451" width="1.2923076923076922" height="30.177146313554886" fill="#f85149" opacity="0.45"/>
<rect x="787.6314811152857" y="558.7240405417613" width="1.2923076923076922" height="21.27595945823873" fill="#3fb950" opacity="0.45"/>
<rect x="789.7908641487047" y="561.4469071426236" width="1.2923076923076922" height="18.55309285737644" fill="#3fb950" opacity="0.45"/>
<rect x="791.9502471821237" y="554.2208798084979" width="1.2923076923076922" height="25.779120191502102" fill="#3fb950" opacity="0.45"/>
<rect x="794.1096302155428" y="563.9522706039047" width="1.2923076923076922" height="16.047729396095292" fill="#3fb950" opacity="0.45"/>
<rect x="796.2690132489618" y="568.515547900699" width="1.2923076923076922" height="11.484452099301052" fill="#3fb950" opacity="0.45"/>
<rect x="798.4283962823808" y="565.5270256253668" width="1.2923076923076922" height="14.472974374633168" fill="#f85149" opacity="0.45"/>
<rect x="800.5877793157999" y="551.8240314114332" width="1.2923076923076922" height="28.175968588566775" fill="#f85149" opacity="0.45"/>
<rect x="802.7471623492188" y="553.8442557186563" width="1.2923076923076922" height="26.155744281343686" fill="#3fb950" opacity="0.45"/>
<rect x="804.9065453826379" y="559.8717674054276" width="1.2923076923076922" height="20.12823259457241" fill="#3fb950" opacity="0.45"/>
<rect x="807.065928416057" y="566.7938503893391" width="1.2923076923076922" height="13.206149610660873" fill="#f85149" opacity="0.45"/>
<rect x="809.225311449476" y="560.2408737714203" width="1.2923076923076922" height="19.759126228579703" fill="#f85149" opacity="0.45"/>
<rect x="811.3846944828949" y="555.7250489530153" width="1.2923076923076922" height="24.27495104698471" fill="#f85149" opacity="0.45"/>
<rect x="813.544077516314" y="557.9800255396912" width="1.2923076923076922" height="22.019974460308845" fill="#f85149" opacity="0.45"/>
<rect x="815.703460549733" y="560.0085496158616" width="1.2923076923076922" height="19.991450384138375" fill="#3fb950" opacity="0.45"/>
<rect x="817.8628435831521" y="556.802801700822" width="1.2923076923076922" height="23.197198299178012" fill="#3fb950" opacity="0.45"/>
<rect x="820.0222266165711" y="560.6986981083726" width="1.2923076923076922" height="19.301301891627418" fill="#f85149" opacity="0.45"/>
<rect x="822.18160964999" y="552.6451787647394" width="1.2923076923076922" height="27.3548212352606" fill="#3fb950" opacity="0.45"/>
<rect x="824.3409926834091" y="555.0116030847507" width="1.2923076923076922" height="24.988396915249268" fill="#f85149" opacity="0.45"/>
<rect x="826.5003757168281" y="560.7235154266158" width="1.2923076923076922" height="19.27648457338421" fill="#3fb950" opacity="0.45"/>
<rect x="828.6597587502472" y="564.4433192439079" width="1.2923076923076922" height="15.556680756092078" fill="#f85149" opacity="0.45"/>
<rect x="830.8191417836662" y="558.7016765746736" width="1.2923076923076922" height="21.29832342532643" fill="#f85149" opacity="0.45"/>
<rect x="832.9785248170851" y="562.7659964850662" width="1.2923076923076922" height="17.23400351493376" fill="#f85149" opacity="0.45"/>
<rect x="835.1379078505042" y="563.2529330814876" width="1.2923076923076922" height="16.74706691851236" fill="#f85149" opacity="0.45"/>
<rect x="837.2972908839233" y="558.0164726253652" width="1.2923076923076922" height="21.983527374634832" fill="#f85149" opacity="0.45"/>
<rect x="839.4566739173422" y="567.4528369074055" width="1.2923076923076922" height="12.547163092594474" fill="#f85149" opacity="0.45"/>
<rect x="841.6160569507613" y="554.5781924298617" width="1.2923076923076922" height="25.4218075701383" fill="#f85149" opacity="0.45"/>
<rect x="843.7754399841804" y="547.8839242285625" width="1.2923076923076922" height="32.11607577143752" fill="#3fb950" opacity="0.45"/>
<rect x="845.9348230175993" y="558.6731319285824" width="1.2923076923076922" height="21.326868071417607" fill="#3fb950" opacity="0.45"/>
<rect x="848.0942060510184" y="548.7225225398302" width="1.2923076923076922" height="31.277477460169848" fill="#3fb950" opacity="0.45"/>
<rect x="850.2535890844373" y="531.782120198003" width="1.2923076923076922" height="48.217879801997015" fill="#f85149" opacity="0.45"/>
<rect x="852.4129721178564" y="554.5846001542162" width="1.2923076923076922" height="25.41539984578378" fill="#f85149" opacity="0.45"/>
<rect x="854.5723551512755" y="560.3515205392114" width="1.2923076923076922" height="19.64847946078862" fill="#f85149" opacity="0.45"/>
<rect x="856.7317381846944" y="563.2209764483141" width="1.2923076923076922" height="16.779023551685896" fill="#3fb950" opacity="0.45"/>
<rect x="858.8911212181134" y="563.7156767343815" width="1.2923076923076922" height="16.284323265618468" fill="#f85149" opacity="0.45"/>
<rect x="861.0505042515325" y="558.2821282998349" width="1.2923076923076922" height="21.71787170016512" fill="#3fb950" opacity="0.45"/>
<rect x="863.2098872849515" y="560.949860721261" width="1.2923076923076922" height="19.05013927873904" fill="#f85149" opacity="0.45"/>
<rect x="865.3692703183706" y="557.6255825192933" width="1.2923076923076922" height="22.37441748070671" fill="#3fb950" opacity="0.45"/>
<rect x="867.5286533517896" y="562.6583517613625" width="1.2923076923076922" height="17.341648238637504" fill="#f85149" opacity="0.45"/>
<rect x="869.6880363852085" y="566.656841133554" width="1.2923076923076922" height="13.343158866445947" fill="#3fb950" opacity="0.45"/>
<rect x="871.8474194186276" y="565.2760269896766" width="1.2923076923076922" height="14.723973010323448" fill="#3fb950" opacity="0.45"/>
<rect x="874.0068024520466" y="556.2205249773658" width="1.2923076923076922" height="23.779475022634188" fill="#3fb950" opacity="0.45"/>
<rect x="876.1661854854657" y="566.8455347408011" width="1.2923076923076922" height="13.1544652591989" fill="#f85149" opacity="0.45"/>
<rect x="878.3255685188847" y="566.5439491395127" width="1.2923076923076922" height="13.456050860487267" fill="#3fb950" opacity="0.45"/>
<rect x="880.4849515523036" y="559.4460573720315" width="1.2923076923076922" height="20.553942627968468" fill="#3fb950" opacity="0.45"/>
<rect x="882.6443345857227" y="554.5361890398999" width="1.2923076923076922" height="25.46381096010009" fill="#f85149" opacity="0.45"/>
<rect x="884.8037176191418" y="565.3568488278687" width="1.2923076923076922" height="14.643151172131297" fill="#3fb950" opacity="0.45"/>
<rect x="886.9631006525607" y="560.7128821360038" width="1.2923076923076922" height="19.287117863996173" fill="#3fb950" opacity="0.45"/>
<rect x="889.1224836859798" y="556.5418319901272" width="1.2923076923076922" height="23.458168009872793" fill="#3fb950" opacity="0.45"/>
<rect x="891.2818667193989" y="558.1084638334705" width="1.2923076923076922" height="21.891536166529477" fill="#f85149" opacity="0.45"/>
<rect x="893.4412497528178" y="560.0864577053807" width="1.2923076923076922" height="19.913542294619333" fill="#f85149" opacity="0.45"/>
<rect x="895.6006327862369" y="566.207417474594" width="1.2923076923076922" height="13.792582525406033" fill="#f85149" opacity="0.45"/>
<rect x="897.7600158196559" y="568.7391749579457" width="1.2923076923076922" height="11.260825042054307" fill="#3fb950" opacity="0.45"/>
<rect x="899.9193988530749" y="564.2768697742578" width="1.2923076923076922" height="15.723130225742239" fill="#3fb950" opacity="0.45"/>
<rect x="902.078781886494" y="556.7499001340053" width="1.2923076923076922" height="23.250099865994684" fill="#3fb950" opacity="0.45"/>
<rect x="904.238164919913" y="554.7236338977157" width="1.2923076923076922" height="25.276366102284328" fill="#3fb950" opacity="0.45"/>
<rect x="906.3975479533319" y="560.1681814181621" width="1.2923076923076922" height="19.831818581837865" fill="#3fb950" opacity="0.45"/>
<rect x="908.556930986751" y="553.9683990712099" width="1.2923076923076922" height="26.031600928790112" fill="#3fb950" opacity="0.45"/>
<rect x="910.71631402017" y="554.3087968139133" width="1.2923076923076922" height="25.691203186086682" fill="#3fb950" opacity="0.45"/>
<rect x="912.8756970535891" y="509.8498041636818" width="1.2923076923076922" height="70.15019583631818" fill="#3fb950" opacity="0.45"/>
<rect x="915.035080087008" y="530.7500855543753" width="1.2923076923076922" height="49.249914445624654" fill="#3fb950" opacity="0.45"/>
<rect x="917.194463120427" y="531.4966800439071" width="1.2923076923076922" height="48.50331995609292" fill="#3fb950" opacity="0.45"/>
<rect x="919.3538461538461" y="541.3247227839331" width="1.2923076923076922" height="38.67527721606689" fill="#f85149" opacity="0.45"/>
<polyline points="80.0,329.69531486146093 82.15938303341902,353.95118122762824 84.31876606683805,357.7979265544213 86.47814910025707,374.6808643775686 88.63753213367609,345.6165663529099 90.79691516709512,348.71533342171546 92.95629820051414,347.7536470900172 95.11568123393316,341.0218427681293 97.27506426735218,332.0461036722789 99.43444730077121,309.393047858942 101.59383033419023,308.4313615272438 103.75321336760925,309.17933978523126 105.91259640102828,309.0724857483759 108.0719794344473,305.01203234787215 110.23136246786632,297.21168765743073 112.39074550128535,300.73787087365764 114.55012853470437,303.94349197931854 116.70951156812339,284.4960572716425 118.86889460154242,300.41730876309157 121.02827763496143,275.199756065226 123.18766066838046,275.3066101020813 125.34704370179949,279.9013336868619 127.5064267352185,282.572684608246 129.66580976863753,278.2985231340315 131.82519280205656,259.2785045737769 133.98457583547557,266.8651411905077 136.1439588688946,263.87322815855754 138.30334190231363,287.3811162667373 140.46272493573264,294.8608988466127 142.62210796915167,302.020119315922 144.7814910025707,295.60887710460025 146.9408740359897,292.296401962084 149.10025706940874,295.9294392151663 151.25964010282777,306.08057271642576 153.41902313624678,298.493936099695 155.5784061696658,290.37302929868747 157.73778920308484,287.8085324141588 159.89717223650385,291.0141535198197 162.05655526992285,287.3811162667373 164.2159383033419,283.32066286623353 166.37532133676092,283.2138088293782 168.53470437017995,283.8549330505104 170.69408740359899,285.56459764019615 172.853470437018,286.8468460824605 175.012853470437,285.2440355296301 177.17223650385603,286.8468460824605 179.33161953727506,286.9537001193159 181.4910025706941,286.098867824473 183.65038560411313,282.6795386451014 185.80976863753213,298.3870820628397 187.96915167095113,307.897091342967 190.12853470437017,290.05246718812134 192.2879177377892,288.8770727827124 194.44730077120823,290.05246718812134 196.60668380462727,297.9596659154182 198.7660668380463,289.7319050775553 200.9254498714653,295.7157311414556 203.0848329048843,295.07460692032345 205.24421593830334,289.7319050775553 207.40359897172237,288.23594856158024 209.56298200514138,297.63910380485214 211.7223650385604,308.3245074903884 213.88174807197942,323.81834283441594 216.04113110539845,329.80216889831627 218.20051413881748,318.15507888108175 220.35989717223651,311.74383666976 222.51928020565555,305.54630253214896 224.67866323907455,305.6531565690043 226.83804627249359,308.217653453533 228.9974293059126,294.647190772902 231.15681233933162,292.72381810950543 233.31619537275066,288.1290945247249 235.47557840616966,283.8549330505104 237.6349614395887,283.6412249767996 239.7943444730077,279.1533554288744 241.95372750642673,285.0303274559194 244.11311053984574,292.296401962084 246.2724935732648,281.50414423969244 248.4318766066838,286.3125758981837 250.59125964010283,288.9839268195677 252.75064267352187,281.0767280922709 254.91002570694087,287.5948243404481 257.0694087403599,281.0767280922709 259.2287917737789,282.3589765345353 261.38817480719797,284.8166193822086 263.54755784061695,287.70167837730344 265.706940874036,291.4415696672411 267.866323907455,289.7319050775553 270.025706940874,266.11716293252016 272.1850899742931,265.9034548588095 274.34447300771205,263.44581201113607 276.50385604113114,262.5909797162932 278.6632390745501,267.39941137478456 280.82262210796915,275.09290202837064 282.9820051413882,276.69571258120106 285.14138817480716,282.1452684608245 287.30077120822625,289.30448893013386 289.4601542416452,270.81874055415614 291.61953727506426,258.6373803526448 293.7789203084833,256.07288346811606 295.93830334190227,256.927715762959 298.09768637532136,253.82894869415347 300.25706940874034,245.38747978257982 302.4164524421594,232.8855574705024 304.5758354755784,229.78679040169686 306.73521850899743,222.20015378496612 308.89460154241647,217.71228423704088 311.05398457583544,218.56711653188384 313.21336760925453,205.7446321092403 315.3727506426735,210.87362587829773 317.5321336760926,216.857451942198 319.6915167095116,217.71228423704088 321.8508997429306,222.84127800609835 324.01028277634964,221.13161341641248 326.1696658097686,220.38363515842494 328.32904884318765,215.25464138936758 330.4884318766067,211.40789606257454 332.64781491002566,212.47643643112815 334.80719794344475,212.36958239427275 336.9665809768638,205.5309240355296 339.12596401028276,213.2244146891157 341.2853470437018,264.6212064165451 343.4447300771208,273.81065358610624 345.60411311053986,263.33895797428073 347.76349614395883,249.2342251093729 349.9228791773779,232.3512872862256 352.0822622107969,226.68802333289136 354.24164524421593,228.39768792257712 356.40102827763496,236.30488664987396 358.560411311054,237.2665729815723 360.71979434447303,230.32106058597367 362.879177377892,255.96602943126075 365.0385604113111,257.6756940209465 367.1979434447301,258.5305263157894 369.3573264781491,257.56883998409114 371.51670951156814,249.66164125679433 373.67609254498717,239.51050775553492 375.83547557840615,238.76252949754738 377.9948586118252,224.2303804852181 380.1542416452442,225.72633700119306 382.31362467866325,224.33723452207343 384.4730077120822,198.79911971364174 386.6323907455013,203.5006973352777 388.79177377892034,205.63777807238498 390.9511568123393,208.84339917804581 393.11053984575835,209.59137743603335 395.2699228791774,217.71228423704088 397.4293059125964,217.60543020018554 399.5886889460154,226.26060718546995 401.7480719794344,232.5649953599363 403.90745501285346,195.59349860798085 406.0668380462725,193.7769799814397 408.22622107969147,188.2205700649608 410.38560411311056,196.3414768659684 412.5449871465296,188.54113217552694 414.70437017994857,165.99493039904542 416.8637532133676,153.2793000132573 419.02313624678663,159.69054222457902 421.18251928020567,158.0877316717486 423.34190231362464,170.37594591011526 425.50128534704373,170.4827999469707 427.6606683804627,183.30528436961413 429.82005141388174,183.1984303327588 431.9794344473008,186.51090547527505 434.1388174807198,183.5189924433249 436.2982005141388,183.30528436961413 438.4575835475578,186.40405143841963 440.6169665809769,166.52920058332222 442.7763496143959,162.2550391091077 444.9357326478149,169.73482168898315 447.09511568123395,190.03708869150202 449.254498714653,192.38787750231998 451.41388174807196,182.3435980379159 453.573264781491,178.38999867426747 455.73264781491,173.04729683149932 457.89203084832906,183.1984303327588 460.05141388174803,183.09157629590345 462.2107969151671,172.4061726103672 464.37017994858616,177.0008961951478 466.52956298200513,177.21460426885847 468.68894601542416,156.48492111891815 470.8483290488432,145.05153917539434 473.00771208226223,155.0958186397984 475.1670951156812,202.43215696672402 477.32647814910024,207.88171284634757 479.4858611825193,211.83531220999595 481.6452442159383,222.84127800609835 483.8046272493573,212.69014450483883 485.96401028277637,212.5832904679835 488.1233933161954,211.83531220999595 490.2827763496144,203.71440540898843 492.4421593830334,208.2022749569137 494.60154241645245,211.7284581731406 496.7609254498715,208.2022749569137 498.92030848329046,206.92002651464927 501.0796915167095,205.1035078881081 503.2390745501285,209.37766936232265 505.39845758354755,207.0268805515046 507.5578406169666,189.93023465464668 509.71722365038556,189.60967254408055 511.8766066838046,192.81529364974142 514.0359897172236,188.32742410181615 516.1953727506427,187.25888373326262 518.3547557840618,175.71864775288338 520.5141388174807,163.85784966193813 522.6735218508998,180.95449555879617 524.8329048843189,182.5573061116266 526.9922879177378,180.5270794113747 529.1516709511568,178.1762906005568 531.3110539845759,177.42831234256926 533.4704370179949,192.49473153917532 535.6298200514138,183.1984303327588 537.7892030848329,155.4163807503645 539.9485861182519,164.7126819567811 542.1079691516709,161.72076892483096 544.26735218509,159.69054222457902 546.4267352185091,143.55558265941926 548.5861182519279,124.74927217287546 550.745501285347,135.96894604268851 552.9048843187661,151.56963542357147 555.0642673521852,154.1341323081002 557.2236503856041,157.33975341376103 559.3830334190231,140.13625348004769 561.5424164524422,151.35592734986076 563.7017994858612,153.1724459764019 565.8611825192802,162.78930929338458 568.0205655526993,143.34187458570858 570.1799485861183,131.58793053161867 572.3393316195372,141.7390640328781 574.4987146529563,147.93659817048916 576.6580976863753,128.80972557337918 578.8174807197943,134.04557337929197 580.9768637532134,143.98299880684073 583.1362467866325,144.08985284369612 585.2956298200513,142.59389632772104 587.4550128534704,146.01322550709267 589.6143958868895,109.25543682884788 591.7737789203086,102.63048654381541 593.9331619537276,84.89271642582517 596.0925449871465,72.17708604003705 598.2519280205655,75.27585310884255 600.4113110539846,89.16687790003975 602.5706940874036,95.57812011136144 604.7300771208226,92.90676918997738 606.8894601542416,99.2111573644438 609.0488431876606,98.24947103274549 611.2082262210797,90.02171019488263 613.3676092544987,108.18689646029422 615.5269922879177,106.37037783375312 617.6863753213368,127.42062309425954 619.8457583547558,136.71692430067606 622.0051413881748,137.99917274294046 624.1645244215938,123.25331565690038 626.3239074550129,128.70287153652384 628.4832904884319,115.02555481903744 630.642673521851,93.44103937425422 632.8020565552699,81.90080339387511 634.9614395886889,88.41889964205221 637.120822622108,93.33418533739888 639.280205655527,107.7594803128728 641.4395886889461,111.92678775023194 643.598971722365,137.67861063237436 645.758354755784,146.44064165451408 647.9177377892031,146.54749569136942 650.0771208226222,140.88423173803523 652.236503856041,131.2673684210526 654.3958868894601,110.53768527111225 656.5552699228792,121.22308895664852 658.7146529562982,122.93275354633428 660.8740359897172,99.85228158557602 663.0334190231363,106.04981572318704 665.1928020565553,119.72713244067344 667.3521850899743,130.83995227363113 669.5115681233933,138.85400503778334 671.6709511568123,144.73097706482827 673.8303341902314,151.14221927615 675.9897172236504,151.14221927615 678.1491002570694,141.52535595916743 680.3084832904884,144.73097706482827 682.4678663239074,139.922545406337 684.6272493573265,137.03748641124216 686.7866323907456,134.04557337929197 688.9460154241644,129.87826594193285 691.1053984575835,140.243107516903 693.2647814910026,135.22096778470097 695.4241645244216,130.94680631048647 697.5835475578407,134.57984356356886 699.7429305912597,143.6624366962746 701.9023136246786,147.93659817048916 704.0616966580977,151.14221927615 706.2210796915167,142.16648018029954 708.3804627249357,148.0434522073445 710.5398457583548,157.01919130319493 712.6992287917737,155.95065093464137 714.8586118251928,161.8276229616863 717.0179948586119,163.32357947766138 719.1773778920308,154.1341323081002 721.3367609254499,157.12604534005038 723.4961439588689,152.42446771841435 725.655526992288,152.317613681559 727.8149100257069,157.01919130319493 729.9742930591259,161.50706085112017 732.133676092545,149.53940872331958 734.2930591259641,147.82974413363377 736.4524421593829,137.03748641124216 738.611825192802,137.1443404480975 740.7712082262211,116.73521940872328 742.9305912596401,125.497250430863 745.0899742930592,117.80375977727694 747.2493573264782,120.36825666180559 749.4087403598971,128.06174731539176 751.5681233933162,122.3984833620575 753.7275064267352,107.225210128596 755.8868894601542,105.19498342834413 758.0462724935733,98.5700331433116 760.2056555269922,105.19498342834413 762.3650385604113,91.51766671085771 764.5244215938303,86.28181890494491 766.6838046272493,78.90889036192493 768.8431876606684,71.42910778204951 771.0025706940875,71.21539970833884 773.1619537275064,80.19113880418928 775.3213367609254,103.69902691236908 777.4807197943445,91.4108126740023 779.6401028277635,124.32185602545404 781.7994858611826,124.53556409916472 783.9588688946016,137.57175659551893 786.1182519280205,151.56963542357147 788.2776349614396,145.15839321224968 790.4370179948586,142.3801882540103 792.5964010282776,131.0536603473418 794.7557840616967,130.30568208935426 796.9151670951156,128.06174731539176 799.0745501285347,137.4649025586636 801.2339331619538,154.88211056608773 803.3933161953727,140.45681559061376 805.5526992287918,129.87826594193285 807.7120822622109,134.6866976004242 809.8714652956298,143.23502054885319 812.0308483290488,162.2550391091077 814.1902313624679,172.94044279464399 816.3496143958869,169.62796765212772 818.508997429306,147.29547394935696 820.6683804627249,155.20267267665383 822.8277634961439,138.21288081665114 824.987146529563,150.71480312872856 827.146529562982,145.05153917539434 829.3059125964011,147.82974413363377 831.46529562982,155.84379689778595 833.624678663239,173.04729683149932 835.7840616966581,174.65010738432983 837.9434447300772,193.6701259445843 840.1028277634961,200.29507622961683 842.2622107969152,230.21420654911833 844.4215938303342,183.62584648018023 846.5809768637532,179.56539307967643 848.7403598971723,152.21075964470364 850.8997429305912,193.6701259445843 853.0591259640103,208.73654514119045 855.2185089974294,217.92599231075164 857.3778920308483,203.28698926156702 859.5372750642673,217.92599231075164 861.6966580976864,206.81317247779393 863.8560411311054,215.25464138936758 866.0154241645245,193.88383401829506 868.1748071979434,203.28698926156702 870.3341902313624,201.89788678244727 872.4935732647815,197.30316319766666 874.6529562982005,180.7407874850855 876.8123393316196,186.51090547527505 878.9717223650385,183.30528436961413 881.1311053984575,175.71864775288338 883.2904884318766,183.839554553891 885.4498714652957,183.839554553891 887.6092544987146,179.03112289539968 889.7686375321337,177.42831234256926 891.9280205655527,194.20439612886116 894.0874035989717,204.35552963012057 896.2467866323908,213.43812276282637 898.4061696658098,209.484523399178 900.5655526992288,207.2405886252154 902.7249357326479,194.3112501657165 904.8843187660668,176.68033408458172 907.0437017994858,175.5049396791727 909.2030848329049,173.04729683149932 911.3624678663239,169.30740554156168 913.521850899743,140.45681559061376 915.6812339331619,132.3359087896062 917.8406169665809,127.74118520482563 920.0,138.4265888903619" stroke="#58a6ff" stroke-width="1.8" fill="none"/>
<line x1="80" y1="152.21075964470364" x2="920" y2="152.21075964470364" stroke="#f0883e" stroke-width="1.5" stroke-dasharray="6,3"/>
<text x="925" y="156.21075964470364" font-size="11" fill="#f0883e" font-weight="bold">颈线 44.90</text>
<line x1="80" y1="74.207312740289" x2="920" y2="74.207312740289" stroke="#a371f7" stroke-width="1.2" stroke-dasharray="4,4"/>
<text x="925" y="78.207312740289" font-size="11" fill="#a371f7" font-weight="bold">目标 52.20 (+13.0%)</text>
<circle cx="842.2622107969152" cy="230.21420654911833" r="6" fill="#238636" stroke="#fff" stroke-width="2"/>
<text x="842.2622107969152" y="250.21420654911833" text-anchor="middle" font-size="10" fill="#3fb950">左底 37.60</text>
<circle cx="896.2467866323908" cy="213.43812276282637" r="6" fill="#8957e5" stroke="#fff" stroke-width="2"/>
<text x="896.2467866323908" y="233.43812276282637" text-anchor="middle" font-size="10" fill="#bc8cff">右底 39.17</text>
<circle cx="913.521850899743" cy="152.21075964470364" r="7" fill="#f0883e" stroke="#fff" stroke-width="2"/>
<text x="913.521850899743" y="140.21075964470364" text-anchor="middle" font-size="10" fill="#f0883e">突破</text>
<line x1="920.0" y1="138.4265888903619" x2="920" y2="138.4265888903619" stroke="#f85149" stroke-width="1"/>
<text x="925" y="142.4265888903619" font-size="11" fill="#f85149" font-weight="bold">现价 46.19</text>
<text x="80" y="598" font-size="13" fill="#58a6ff" font-weight="bold">筛选高分原因:</text>
<text x="90" y="618" font-size="11" fill="#c9d1d9">  1. 刚刚突破(3天前)</text>
<text x="90" y="636" font-size="11" fill="#c9d1d9">  2. 右底缩量(54%)</text>
<text x="90" y="654" font-size="11" fill="#c9d1d9">  3. 形态跨度适中(25根K线)</text>
<text x="90" y="672" font-size="11" fill="#c9d1d9">  4. MACD改善</text>
<text x="90" y="690" font-size="11" fill="#c9d1d9">  5. 右底高于左底</text>
<text x="928" y="80" font-size="11" fill="#8b949e">突破日: 2026-05-13</text>
<text x="928" y="98" font-size="11" fill="#8b949e">突破后涨幅: 2.9%</text>
<text x="928" y="116" font-size="11" fill="#8b949e">目标空间: 13.0%</text>
<text x="928" y="134" font-size="11" fill="#8b949e">形态跨度: 25根K线</text>
</svg>