<svg xmlns="http://www.w3.org/2000/svg" viewBox="0 0 1000 700" width="1000" height="700">
<rect width="1000" height="700" fill="#0d1117"/>
<text x="500.0" y="24" text-anchor="middle" font-size="18" fill="#58a6ff" font-weight="bold">嘉环科技 (603206.SH)</text>
<text x="500.0" y="46" text-anchor="middle" font-size="14" fill="#8b949e">双底突破 | 评分:72/100 | 突破后涨幅:1.3% | 目标空间:13.3%</text>
<line x1="80" y1="382.4" x2="920" y2="382.4" stroke="#21262d" stroke-width="0.5"/>
<text x="72" y="386.4" text-anchor="end" font-size="10" fill="#8b949e">14.30</text>
<line x1="80" y1="317.92" x2="920" y2="317.92" stroke="#21262d" stroke-width="0.5"/>
<text x="72" y="321.92" text-anchor="end" font-size="10" fill="#8b949e">16.45</text>
<line x1="80" y1="253.44000000000003" x2="920" y2="253.44000000000003" stroke="#21262d" stroke-width="0.5"/>
<text x="72" y="257.44000000000005" text-anchor="end" font-size="10" fill="#8b949e">18.60</text>
<line x1="80" y1="188.96" x2="920" y2="188.96" stroke="#21262d" stroke-width="0.5"/>
<text x="72" y="192.96" text-anchor="end" font-size="10" fill="#8b949e">20.75</text>
<line x1="80" y1="124.47999999999995" x2="920" y2="124.47999999999995" stroke="#21262d" stroke-width="0.5"/>
<text x="72" y="128.47999999999996" text-anchor="end" font-size="10" fill="#8b949e">22.90</text>
<line x1="80" y1="60.0" x2="920" y2="60.0" stroke="#21262d" stroke-width="0.5"/>
<text x="72" y="64.0" text-anchor="end" font-size="10" fill="#8b949e">25.05</text>
<text x="80.0" y="396.4" text-anchor="middle" font-size="9" fill="#8b949e">2024-10-08</text>
<text x="183.65038560411313" y="396.4" text-anchor="middle" font-size="9" fill="#8b949e">2024-12-13</text>
<text x="287.30077120822625" y="396.4" text-anchor="middle" font-size="9" fill="#8b949e">2025-02-28</text>
<text x="390.9511568123393" y="396.4" text-anchor="middle" font-size="9" fill="#8b949e">2025-05-13</text>
<text x="494.60154241645245" y="396.4" text-anchor="middle" font-size="9" fill="#8b949e">2025-07-21</text>
<text x="598.2519280205655" y="396.4" text-anchor="middle" font-size="9" fill="#8b949e">2025-09-25</text>
<text x="701.9023136246786" y="396.4" text-anchor="middle" font-size="9" fill="#8b949e">2025-12-10</text>
<text x="805.5526992287918" y="396.4" text-anchor="middle" font-size="9" fill="#8b949e">2026-02-26</text>
<text x="909.2030848329049" y="396.4" text-anchor="middle" font-size="9" fill="#8b949e">2026-05-11</text>
<rect x="691.1053984575835" y="60" width="228.89460154241647" height="520.0" fill="#238636" opacity="0.10" rx="4"/>
<text x="805.5526992287918" y="52" text-anchor="middle" font-size="11" fill="#3fb950" font-weight="bold">双底区域</text>
<rect x="79.35384615384615" y="546.541048299009" width="1.2923076923076922" height="33.45895170099095" fill="#3fb950" opacity="0.45"/>
<rect x="81.51322918726517" y="559.3758487502249" width="1.2923076923076922" height="20.624151249775082" fill="#f85149" opacity="0.45"/>
<rect x="83.6726122206842" y="567.1576662520106" width="1.2923076923076922" height="12.842333747989414" fill="#f85149" opacity="0.45"/>
<rect x="85.83199525410322" y="566.2887363175713" width="1.2923076923076922" height="13.711263682428694" fill="#3fb950" opacity="0.45"/>
<rect x="87.99137828752224" y="566.8894402107688" width="1.2923076923076922" height="13.11055978923116" fill="#3fb950" opacity="0.45"/>
<rect x="90.15076132094127" y="566.3792899550078" width="1.2923076923076922" height="13.620710044992165" fill="#f85149" opacity="0.45"/>
<rect x="92.31014435436029" y="559.3759822828921" width="1.2923076923076922" height="20.624017717107904" fill="#3fb950" opacity="0.45"/>
<rect x="94.46952738777931" y="562.6412832981721" width="1.2923076923076922" height="17.358716701827916" fill="#3fb950" opacity="0.45"/>
<rect x="96.62891042119833" y="564.9661897499263" width="1.2923076923076922" height="15.033810250073657" fill="#3fb950" opacity="0.45"/>
<rect x="98.78829345461736" y="549.2899702731947" width="1.2923076923076922" height="30.71002972680526" fill="#3fb950" opacity="0.45"/>
<rect x="100.94767648803638" y="542.5766483040128" width="1.2923076923076922" height="37.42335169598721" fill="#3fb950" opacity="0.45"/>
<rect x="103.1070595214554" y="554.1416475910906" width="1.2923076923076922" height="25.858352408909354" fill="#3fb950" opacity="0.45"/>
<rect x="105.26644255487443" y="502.5671263028577" width="1.2923076923076922" height="77.43287369714233" fill="#f85149" opacity="0.45"/>
<rect x="107.42582558829345" y="532.1323681484697" width="1.2923076923076922" height="47.86763185153029" fill="#f85149" opacity="0.45"/>
<rect x="109.58520862171247" y="538.8926443121035" width="1.2923076923076922" height="41.10735568789653" fill="#3fb950" opacity="0.45"/>
<rect x="111.7445916551315" y="497.8714089770956" width="1.2923076923076922" height="82.1285910229044" fill="#3fb950" opacity="0.45"/>
<rect x="113.90397468855052" y="529.1030666059869" width="1.2923076923076922" height="50.896933394013104" fill="#f85149" opacity="0.45"/>
<rect x="116.06335772196954" y="542.3319425013202" width="1.2923076923076922" height="37.66805749867979" fill="#f85149" opacity="0.45"/>
<rect x="118.22274075538857" y="548.2801613206097" width="1.2923076923076922" height="31.71983867939025" fill="#f85149" opacity="0.45"/>
<rect x="120.38212378880758" y="563.5059525133563" width="1.2923076923076922" height="16.494047486643694" fill="#3fb950" opacity="0.45"/>
<rect x="122.54150682222661" y="556.3055321354533" width="1.2923076923076922" height="23.69446786454671" fill="#3fb950" opacity="0.45"/>
<rect x="124.70088985564564" y="551.6809158190534" width="1.2923076923076922" height="28.31908418094656" fill="#3fb950" opacity="0.45"/>
<rect x="126.86027288906465" y="561.4561973123948" width="1.2923076923076922" height="18.543802687605194" fill="#3fb950" opacity="0.45"/>
<rect x="129.01965592248368" y="550.4524974556259" width="1.2923076923076922" height="29.547502544374083" fill="#3fb950" opacity="0.45"/>
<rect x="131.1790389559027" y="558.9119685907906" width="1.2923076923076922" height="21.088031409209407" fill="#f85149" opacity="0.45"/>
<rect x="133.33842198932172" y="562.1714927774567" width="1.2923076923076922" height="17.828507222543294" fill="#f85149" opacity="0.45"/>
<rect x="135.49780502274075" y="562.223899213424" width="1.2923076923076922" height="17.776100786575967" fill="#f85149" opacity="0.45"/>
<rect x="137.65718805615978" y="567.5455108564461" width="1.2923076923076922" height="12.454489143553928" fill="#f85149" opacity="0.45"/>
<rect x="139.8165710895788" y="565.8638764578141" width="1.2923076923076922" height="14.136123542185942" fill="#f85149" opacity="0.45"/>
<rect x="141.97595412299782" y="567.4603149604836" width="1.2923076923076922" height="12.539685039516371" fill="#f85149" opacity="0.45"/>
<rect x="144.13533715641685" y="571.7071447638042" width="1.2923076923076922" height="8.292855236195805" fill="#3fb950" opacity="0.45"/>
<rect x="146.29472018983586" y="570.9541581626902" width="1.2923076923076922" height="9.045841837309808" fill="#3fb950" opacity="0.45"/>
<rect x="148.4541032232549" y="570.9263772048859" width="1.2923076923076922" height="9.073622795114147" fill="#f85149" opacity="0.45"/>
<rect x="150.61348625667392" y="570.5043893246458" width="1.2923076923076922" height="9.495610675354214" fill="#f85149" opacity="0.45"/>
<rect x="152.77286929009293" y="572.6734795886769" width="1.2923076923076922" height="7.326520411323145" fill="#3fb950" opacity="0.45"/>
<rect x="154.93225232351196" y="572.2544890032261" width="1.2923076923076922" height="7.745510996773874" fill="#3fb950" opacity="0.45"/>
<rect x="157.091635356931" y="570.2751240069681" width="1.2923076923076922" height="9.724875993031901" fill="#3fb950" opacity="0.45"/>
<rect x="159.25101839035" y="570.8398172213703" width="1.2923076923076922" height="9.160182778629746" fill="#f85149" opacity="0.45"/>
<rect x="161.410401423769" y="570.8100764148826" width="1.2923076923076922" height="9.189923585117413" fill="#3fb950" opacity="0.45"/>
<rect x="163.56978445718804" y="556.6065558540851" width="1.2923076923076922" height="23.39344414591494" fill="#3fb950" opacity="0.45"/>
<rect x="165.72916749060707" y="567.815041409128" width="1.2923076923076922" height="12.184958590872043" fill="#f85149" opacity="0.45"/>
<rect x="167.8885505240261" y="570.3478479518228" width="1.2923076923076922" height="9.652152048177186" fill="#f85149" opacity="0.45"/>
<rect x="170.04793355744513" y="569.411886672845" width="1.2923076923076922" height="10.588113327155042" fill="#3fb950" opacity="0.45"/>
<rect x="172.20731659086414" y="570.4020827581552" width="1.2923076923076922" height="9.597917241844812" fill="#f85149" opacity="0.45"/>
<rect x="174.36669962428314" y="572.0731598586909" width="1.2923076923076922" height="7.926840141309071" fill="#f85149" opacity="0.45"/>
<rect x="176.52608265770218" y="569.0626453352957" width="1.2923076923076922" height="10.937354664704344" fill="#f85149" opacity="0.45"/>
<rect x="178.6854656911212" y="571.5304009256225" width="1.2923076923076922" height="8.46959907437747" fill="#3fb950" opacity="0.45"/>
<rect x="180.84484872454024" y="566.584767968802" width="1.2923076923076922" height="13.415232031198002" fill="#3fb950" opacity="0.45"/>
<rect x="183.00423175795927" y="569.2746541236857" width="1.2923076923076922" height="10.72534587631435" fill="#f85149" opacity="0.45"/>
<rect x="185.16361479137828" y="570.3521579754473" width="1.2923076923076922" height="9.647842024552688" fill="#f85149" opacity="0.45"/>
<rect x="187.32299782479728" y="572.0913737144841" width="1.2923076923076922" height="7.908626285515879" fill="#f85149" opacity="0.45"/>
<rect x="189.48238085821632" y="570.4818223039048" width="1.2923076923076922" height="9.518177696095222" fill="#3fb950" opacity="0.45"/>
<rect x="191.64176389163535" y="566.9721708882616" width="1.2923076923076922" height="13.027829111738356" fill="#3fb950" opacity="0.45"/>
<rect x="193.80114692505438" y="567.8382514410198" width="1.2923076923076922" height="12.161748558980207" fill="#3fb950" opacity="0.45"/>
<rect x="195.96052995847342" y="545.6136659803055" width="1.2923076923076922" height="34.38633401969446" fill="#3fb950" opacity="0.45"/>
<rect x="198.11991299189245" y="553.8241705935227" width="1.2923076923076922" height="26.175829406477305" fill="#f85149" opacity="0.45"/>
<rect x="200.27929602531145" y="558.7139663520055" width="1.2923076923076922" height="21.286033647994486" fill="#f85149" opacity="0.45"/>
<rect x="202.43867905873046" y="567.3211759757078" width="1.2923076923076922" height="12.678824024292226" fill="#3fb950" opacity="0.45"/>
<rect x="204.5980620921495" y="568.351489382914" width="1.2923076923076922" height="11.648510617086004" fill="#f85149" opacity="0.45"/>
<rect x="206.75744512556852" y="557.5260289301984" width="1.2923076923076922" height="22.473971069801564" fill="#3fb950" opacity="0.45"/>
<rect x="208.91682815898753" y="554.5990647694371" width="1.2923076923076922" height="25.400935230562936" fill="#3fb950" opacity="0.45"/>
<rect x="211.07621119240656" y="557.6900029367073" width="1.2923076923076922" height="22.309997063292712" fill="#f85149" opacity="0.45"/>
<rect x="213.23559422582557" y="559.3416890396304" width="1.2923076923076922" height="20.65831096036959" fill="#f85149" opacity="0.45"/>
<rect x="215.3949772592446" y="569.7833273027136" width="1.2923076923076922" height="10.216672697286413" fill="#f85149" opacity="0.45"/>
<rect x="217.55436029266363" y="572.064667181063" width="1.2923076923076922" height="7.935332818937013" fill="#3fb950" opacity="0.45"/>
<rect x="219.71374332608266" y="570.2443293195847" width="1.2923076923076922" height="9.755670680415278" fill="#3fb950" opacity="0.45"/>
<rect x="221.8731263595017" y="568.9349942685883" width="1.2923076923076922" height="11.065005731411702" fill="#3fb950" opacity="0.45"/>
<rect x="224.0325093929207" y="569.2764105918453" width="1.2923076923076922" height="10.72358940815468" fill="#f85149" opacity="0.45"/>
<rect x="226.19189242633973" y="574.0391017403816" width="1.2923076923076922" height="5.960898259618375" fill="#f85149" opacity="0.45"/>
<rect x="228.35127545975874" y="571.3729186610838" width="1.2923076923076922" height="8.627081338916241" fill="#3fb950" opacity="0.45"/>
<rect x="230.51065849317777" y="573.4056022241429" width="1.2923076923076922" height="6.594397775857146" fill="#f85149" opacity="0.45"/>
<rect x="232.6700415265968" y="564.3547806455242" width="1.2923076923076922" height="15.645219354475785" fill="#f85149" opacity="0.45"/>
<rect x="234.8294245600158" y="571.3083422632712" width="1.2923076923076922" height="8.691657736728757" fill="#f85149" opacity="0.45"/>
<rect x="236.98880759343484" y="573.0254388295891" width="1.2923076923076922" height="6.97456117041088" fill="#3fb950" opacity="0.45"/>
<rect x="239.14819062685385" y="573.8663063604489" width="1.2923076923076922" height="6.1336936395510975" fill="#3fb950" opacity="0.45"/>
<rect x="241.30757366027288" y="576.0554450136844" width="1.2923076923076922" height="3.944554986315552" fill="#f85149" opacity="0.45"/>
<rect x="243.46695669369188" y="571.1909526684439" width="1.2923076923076922" height="8.809047331556144" fill="#3fb950" opacity="0.45"/>
<rect x="245.62633972711095" y="571.1658279835406" width="1.2923076923076922" height="8.834172016459434" fill="#3fb950" opacity="0.45"/>
<rect x="247.78572276052995" y="566.7419934397502" width="1.2923076923076922" height="13.258006560249783" fill="#3fb950" opacity="0.45"/>
<rect x="249.94510579394898" y="559.3627728205921" width="1.2923076923076922" height="20.637227179407887" fill="#3fb950" opacity="0.45"/>
<rect x="252.10448882736802" y="564.8434424136249" width="1.2923076923076922" height="15.15655758637513" fill="#3fb950" opacity="0.45"/>
<rect x="254.26387186078702" y="552.1483890344074" width="1.2923076923076922" height="27.851610965592613" fill="#3fb950" opacity="0.45"/>
<rect x="256.4232548942061" y="554.4517083897623" width="1.2923076923076922" height="25.548291610237698" fill="#3fb950" opacity="0.45"/>
<rect x="258.58263792762506" y="563.2915709521892" width="1.2923076923076922" height="16.708429047810796" fill="#f85149" opacity="0.45"/>
<rect x="260.74202096104415" y="524.4740170050391" width="1.2923076923076922" height="55.52598299496094" fill="#3fb950" opacity="0.45"/>
<rect x="262.9014039944631" y="546.9424269528429" width="1.2923076923076922" height="33.05757304715712" fill="#f85149" opacity="0.45"/>
<rect x="265.06078702788216" y="551.5406202359455" width="1.2923076923076922" height="28.45937976405446" fill="#3fb950" opacity="0.45"/>
<rect x="267.2201700613012" y="553.2387346200471" width="1.2923076923076922" height="26.761265379952874" fill="#3fb950" opacity="0.45"/>
<rect x="269.37955309472017" y="560.3554752113465" width="1.2923076923076922" height="19.644524788653484" fill="#f85149" opacity="0.45"/>
<rect x="271.53893612813926" y="558.2185909722726" width="1.2923076923076922" height="21.781409027727364" fill="#3fb950" opacity="0.45"/>
<rect x="273.69831916155823" y="561.3947825572697" width="1.2923076923076922" height="18.60521744273035" fill="#3fb950" opacity="0.45"/>
<rect x="275.8577021949773" y="559.8082069828274" width="1.2923076923076922" height="20.191793017172586" fill="#3fb950" opacity="0.45"/>
<rect x="278.0170852283963" y="503.9570575630219" width="1.2923076923076922" height="76.04294243697808" fill="#f85149" opacity="0.45"/>
<rect x="280.17646826181533" y="539.5791727319732" width="1.2923076923076922" height="40.420827268026756" fill="#f85149" opacity="0.45"/>
<rect x="282.33585129523436" y="555.0961473129602" width="1.2923076923076922" height="24.90385268703983" fill="#f85149" opacity="0.45"/>
<rect x="284.49523432865334" y="558.959799992148" width="1.2923076923076922" height="21.040200007852036" fill="#f85149" opacity="0.45"/>
<rect x="286.65461736207243" y="562.3615077084" width="1.2923076923076922" height="17.63849229159996" fill="#f85149" opacity="0.45"/>
<rect x="288.8140003954914" y="565.2576032252239" width="1.2923076923076922" height="14.742396774776125" fill="#3fb950" opacity="0.45"/>
<rect x="290.97338342891044" y="566.8468248008235" width="1.2923076923076922" height="13.15317519917653" fill="#3fb950" opacity="0.45"/>
<rect x="293.13276646232947" y="549.4550638997586" width="1.2923076923076922" height="30.544936100241443" fill="#3fb950" opacity="0.45"/>
<rect x="295.29214949574845" y="550.9611213302845" width="1.2923076923076922" height="29.038878669715473" fill="#3fb950" opacity="0.45"/>
<rect x="297.45153252916754" y="554.2871591656105" width="1.2923076923076922" height="25.712840834389453" fill="#f85149" opacity="0.45"/>
<rect x="299.6109155625865" y="566.8330627187166" width="1.2923076923076922" height="13.166937281283367" fill="#f85149" opacity="0.45"/>
<rect x="301.7702985960056" y="551.6006257078457" width="1.2923076923076922" height="28.399374292154334" fill="#3fb950" opacity="0.45"/>
<rect x="303.9296816294246" y="564.1209669997702" width="1.2923076923076922" height="15.87903300022981" fill="#3fb950" opacity="0.45"/>
<rect x="306.0890646628436" y="497.73297463393226" width="1.2923076923076922" height="82.26702536606774" fill="#3fb950" opacity="0.45"/>
<rect x="308.24844769626264" y="471.6666666666667" width="1.2923076923076922" height="108.33333333333331" fill="#f85149" opacity="0.45"/>
<rect x="310.4078307296816" y="493.60009544567384" width="1.2923076923076922" height="86.39990455432616" fill="#f85149" opacity="0.45"/>
<rect x="312.5672137631007" y="520.696603830966" width="1.2923076923076922" height="59.303396169034045" fill="#f85149" opacity="0.45"/>
<rect x="314.7265967965197" y="548.0465140771023" width="1.2923076923076922" height="31.9534859228977" fill="#f85149" opacity="0.45"/>
<rect x="316.8859798299388" y="548.9046894959677" width="1.2923076923076922" height="31.09531050403234" fill="#3fb950" opacity="0.45"/>
<rect x="319.04536286335775" y="553.7671213294375" width="1.2923076923076922" height="26.232878670562513" fill="#f85149" opacity="0.45"/>
<rect x="321.2047458967768" y="551.585608418668" width="1.2923076923076922" height="28.414391581331984" fill="#f85149" opacity="0.45"/>
<rect x="323.3641289301958" y="564.3897600412599" width="1.2923076923076922" height="15.610239958740067" fill="#f85149" opacity="0.45"/>
<rect x="325.5235119636148" y="566.5165101780748" width="1.2923076923076922" height="13.483489821925218" fill="#3fb950" opacity="0.45"/>
<rect x="327.6828949970338" y="566.434108196378" width="1.2923076923076922" height="13.56589180362198" fill="#f85149" opacity="0.45"/>
<rect x="329.84227803045286" y="562.2707650708808" width="1.2923076923076922" height="17.72923492911923" fill="#3fb950" opacity="0.45"/>
<rect x="332.00166106387184" y="563.4123666572021" width="1.2923076923076922" height="16.587633342797858" fill="#3fb950" opacity="0.45"/>
<rect x="334.1610440972909" y="565.9414753721925" width="1.2923076923076922" height="14.058524627807515" fill="#f85149" opacity="0.45"/>
<rect x="336.32042713070996" y="569.957110824383" width="1.2923076923076922" height="10.042889175617006" fill="#f85149" opacity="0.45"/>
<rect x="338.47981016412893" y="568.406488406972" width="1.2923076923076922" height="11.593511593027984" fill="#f85149" opacity="0.45"/>
<rect x="340.63919319754797" y="566.9869334381974" width="1.2923076923076922" height="13.013066561802589" fill="#f85149" opacity="0.45"/>
<rect x="342.798576230967" y="563.6001115328047" width="1.2923076923076922" height="16.399888467195296" fill="#f85149" opacity="0.45"/>
<rect x="344.95795926438603" y="561.9295377477065" width="1.2923076923076922" height="18.07046225229351" fill="#3fb950" opacity="0.45"/>
<rect x="347.117342297805" y="564.5658834661267" width="1.2923076923076922" height="15.434116533873294" fill="#3fb950" opacity="0.45"/>
<rect x="349.2767253312241" y="566.0291960627376" width="1.2923076923076922" height="13.970803937262417" fill="#3fb950" opacity="0.45"/>
<rect x="351.4361083646431" y="568.7021091884577" width="1.2923076923076922" height="11.297890811542288" fill="#3fb950" opacity="0.45"/>
<rect x="353.5954913980621" y="573.2606864107531" width="1.2923076923076922" height="6.739313589246876" fill="#3fb950" opacity="0.45"/>
<rect x="355.75487443148114" y="573.4895408586858" width="1.2923076923076922" height="6.510459141314186" fill="#f85149" opacity="0.45"/>
<rect x="357.9142574649002" y="573.671541775254" width="1.2923076923076922" height="6.328458224745987" fill="#f85149" opacity="0.45"/>
<rect x="360.0736404983192" y="574.0204071669868" width="1.2923076923076922" height="5.979592833013157" fill="#3fb950" opacity="0.45"/>
<rect x="362.2330235317382" y="573.7907309795643" width="1.2923076923076922" height="6.209269020435727" fill="#3fb950" opacity="0.45"/>
<rect x="364.3924065651573" y="574.0762854522989" width="1.2923076923076922" height="5.923714547701138" fill="#f85149" opacity="0.45"/>
<rect x="366.55178959857625" y="571.4814375781178" width="1.2923076923076922" height="8.518562421882166" fill="#3fb950" opacity="0.45"/>
<rect x="368.7111726319953" y="572.9961088928465" width="1.2923076923076922" height="7.0038911071535495" fill="#f85149" opacity="0.45"/>
<rect x="370.8705556654143" y="569.5912313165122" width="1.2923076923076922" height="10.408768683487779" fill="#f85149" opacity="0.45"/>
<rect x="373.02993869883335" y="573.5433873931091" width="1.2923076923076922" height="6.456612606890872" fill="#f85149" opacity="0.45"/>
<rect x="375.1893217322523" y="571.993586715188" width="1.2923076923076922" height="8.00641328481197" fill="#f85149" opacity="0.45"/>
<rect x="377.34870476567136" y="571.4769180109234" width="1.2923076923076922" height="8.523081989076559" fill="#3fb950" opacity="0.45"/>
<rect x="379.5080877990904" y="562.7760054331898" width="1.2923076923076922" height="17.223994566810234" fill="#3fb950" opacity="0.45"/>
<rect x="381.6674708325094" y="563.1416034952854" width="1.2923076923076922" height="16.85839650471462" fill="#3fb950" opacity="0.45"/>
<rect x="383.8268538659284" y="568.0270501975181" width="1.2923076923076922" height="11.972949802481935" fill="#3fb950" opacity="0.45"/>
<rect x="385.9862368993475" y="571.4843136663324" width="1.2923076923076922" height="8.515686333667645" fill="#f85149" opacity="0.45"/>
<rect x="388.1456199327665" y="573.6179602518162" width="1.2923076923076922" height="6.382039748183843" fill="#3fb950" opacity="0.45"/>
<rect x="390.3050029661855" y="571.9732486628134" width="1.2923076923076922" height="8.026751337186624" fill="#f85149" opacity="0.45"/>
<rect x="392.46438599960453" y="572.4408184325573" width="1.2923076923076922" height="7.5591815674426925" fill="#f85149" opacity="0.45"/>
<rect x="394.62376903302356" y="573.0069969410874" width="1.2923076923076922" height="6.993003058912564" fill="#f85149" opacity="0.45"/>
<rect x="396.7831520664426" y="574.6284943895009" width="1.2923076923076922" height="5.371505610499071" fill="#3fb950" opacity="0.45"/>
<rect x="398.9425350998616" y="575.2571250992622" width="1.2923076923076922" height="4.742874900737775" fill="#3fb950" opacity="0.45"/>
<rect x="401.1019181332806" y="574.3213692551568" width="1.2923076923076922" height="5.67863074484319" fill="#3fb950" opacity="0.45"/>
<rect x="403.26130116669964" y="573.477442799046" width="1.2923076923076922" height="6.522557200953997" fill="#f85149" opacity="0.45"/>
<rect x="405.42068420011867" y="574.5489910938546" width="1.2923076923076922" height="5.4510089061453755" fill="#f85149" opacity="0.45"/>
<rect x="407.58006723353765" y="573.5281852125463" width="1.2923076923076922" height="6.471814787453695" fill="#f85149" opacity="0.45"/>
<rect x="409.73945026695674" y="574.9070640765716" width="1.2923076923076922" height="5.092935923428399" fill="#3fb950" opacity="0.45"/>
<rect x="411.89883330037577" y="575.4876230261747" width="1.2923076923076922" height="4.512376973825326" fill="#f85149" opacity="0.45"/>
<rect x="414.05821633379475" y="575.0258074872086" width="1.2923076923076922" height="4.974192512791433" fill="#f85149" opacity="0.45"/>
<rect x="416.2175993672138" y="572.7489707412639" width="1.2923076923076922" height="7.251029258736139" fill="#3fb950" opacity="0.45"/>
<rect x="418.3769824006328" y="559.4589409930933" width="1.2923076923076922" height="20.54105900690672" fill="#3fb950" opacity="0.45"/>
<rect x="420.53636543405185" y="570.0222172441665" width="1.2923076923076922" height="9.97778275583346" fill="#f85149" opacity="0.45"/>
<rect x="422.6957484674708" y="572.5519422637743" width="1.2923076923076922" height="7.448057736225678" fill="#3fb950" opacity="0.45"/>
<rect x="424.8551315008899" y="571.780345317563" width="1.2923076923076922" height="8.219654682436953" fill="#3fb950" opacity="0.45"/>
<rect x="427.0145145343089" y="571.8719692706852" width="1.2923076923076922" height="8.128030729314787" fill="#3fb950" opacity="0.45"/>
<rect x="429.1738975677279" y="567.1221445082117" width="1.2923076923076922" height="12.877855491788296" fill="#3fb950" opacity="0.45"/>
<rect x="431.33328060114695" y="569.6245713419655" width="1.2923076923076922" height="10.37542865803448" fill="#f85149" opacity="0.45"/>
<rect x="433.492663634566" y="574.1987246362917" width="1.2923076923076922" height="5.801275363708328" fill="#f85149" opacity="0.45"/>
<rect x="435.65204666798496" y="573.9717211565599" width="1.2923076923076922" height="6.028278843440148" fill="#f85149" opacity="0.45"/>
<rect x="437.811429701404" y="571.9379138647483" width="1.2923076923076922" height="8.062086135251661" fill="#f85149" opacity="0.45"/>
<rect x="439.9708127348231" y="574.6804694122361" width="1.2923076923076922" height="5.319530587763893" fill="#3fb950" opacity="0.45"/>
<rect x="442.13019576824206" y="576.1478907062964" width="1.2923076923076922" height="3.85210929370362" fill="#3fb950" opacity="0.45"/>
<rect x="444.2895788016611" y="576.7352290066909" width="1.2923076923076922" height="3.264770993309071" fill="#f85149" opacity="0.45"/>
<rect x="446.4489618350801" y="575.1669391902474" width="1.2923076923076922" height="4.833060809752624" fill="#f85149" opacity="0.45"/>
<rect x="448.60834486849916" y="574.9923195486471" width="1.2923076923076922" height="5.00768045135294" fill="#f85149" opacity="0.45"/>
<rect x="450.76772790191814" y="574.9990988994386" width="1.2923076923076922" height="5.00090110056135" fill="#3fb950" opacity="0.45"/>
<rect x="452.92711093533717" y="573.1789459293457" width="1.2923076923076922" height="6.821054070654327" fill="#3fb950" opacity="0.45"/>
<rect x="455.0864939687562" y="572.9406414772793" width="1.2923076923076922" height="7.059358522720686" fill="#3fb950" opacity="0.45"/>
<rect x="457.24587700217523" y="574.1473659181738" width="1.2923076923076922" height="5.8526340818261815" fill="#f85149" opacity="0.45"/>
<rect x="459.4052600355942" y="572.8368968666814" width="1.2923076923076922" height="7.1631031333186" fill="#3fb950" opacity="0.45"/>
<rect x="461.5646430690133" y="573.346169915537" width="1.2923076923076922" height="6.6538300844630385" fill="#3fb950" opacity="0.45"/>
<rect x="463.72402610243233" y="574.1144963385785" width="1.2923076923076922" height="5.885503661421467" fill="#f85149" opacity="0.45"/>
<rect x="465.8834091358513" y="575.2632881454363" width="1.2923076923076922" height="4.736711854563737" fill="#f85149" opacity="0.45"/>
<rect x="468.04279216927034" y="576.1667907145637" width="1.2923076923076922" height="3.8332092854362827" fill="#3fb950" opacity="0.45"/>
<rect x="470.2021752026894" y="575.2558924900273" width="1.2923076923076922" height="4.74410750997265" fill="#f85149" opacity="0.45"/>
<rect x="472.3615582361084" y="576.3703766731825" width="1.2923076923076922" height="3.629623326817523" fill="#3fb950" opacity="0.45"/>
<rect x="474.5209412695274" y="575.4892665051544" width="1.2923076923076922" height="4.510733494845567" fill="#3fb950" opacity="0.45"/>
<rect x="476.6803243029464" y="575.0961915288658" width="1.2923076923076922" height="4.903808471134198" fill="#3fb950" opacity="0.45"/>
<rect x="478.83970733636545" y="574.6348156205269" width="1.2923076923076922" height="5.365184379473135" fill="#3fb950" opacity="0.45"/>
<rect x="480.9990903697845" y="572.3672727482127" width="1.2923076923076922" height="7.632727251787287" fill="#3fb950" opacity="0.45"/>
<rect x="483.15847340320346" y="575.5533621853654" width="1.2923076923076922" height="4.4466378146346415" fill="#f85149" opacity="0.45"/>
<rect x="485.31785643662255" y="573.8381864351051" width="1.2923076923076922" height="6.161813564894942" fill="#3fb950" opacity="0.45"/>
<rect x="487.4772394700416" y="563.4361971024088" width="1.2923076923076922" height="16.563802897591245" fill="#3fb950" opacity="0.45"/>
<rect x="489.63662250346056" y="569.3919594902153" width="1.2923076923076922" height="10.6080405097847" fill="#3fb950" opacity="0.45"/>
<rect x="491.7960055368796" y="573.7235537762663" width="1.2923076923076922" height="6.276446223733728" fill="#f85149" opacity="0.45"/>
<rect x="493.9553885702986" y="573.7753233641289" width="1.2923076923076922" height="6.224676635871106" fill="#3fb950" opacity="0.45"/>
<rect x="496.11477160371766" y="572.2627063981249" width="1.2923076923076922" height="7.737293601875081" fill="#f85149" opacity="0.45"/>
<rect x="498.27415463713663" y="573.4419025661085" width="1.2923076923076922" height="6.558097433891476" fill="#f85149" opacity="0.45"/>
<rect x="500.43353767055567" y="574.1093399232795" width="1.2923076923076922" height="5.890660076720451" fill="#3fb950" opacity="0.45"/>
<rect x="502.5929207039747" y="571.2314233383206" width="1.2923076923076922" height="8.76857666167939" fill="#3fb950" opacity="0.45"/>
<rect x="504.75230373739373" y="573.0267186888445" width="1.2923076923076922" height="6.973281311155461" fill="#f85149" opacity="0.45"/>
<rect x="506.91168677081276" y="572.8864066709469" width="1.2923076923076922" height="7.11359332905306" fill="#3fb950" opacity="0.45"/>
<rect x="509.07106980423174" y="573.5501667439007" width="1.2923076923076922" height="6.449833256099282" fill="#f85149" opacity="0.45"/>
<rect x="511.2304528376508" y="568.8966457409441" width="1.2923076923076922" height="11.103354259055891" fill="#f85149" opacity="0.45"/>
<rect x="513.3898358710697" y="572.407537983217" width="1.2923076923076922" height="7.592462016782974" fill="#3fb950" opacity="0.45"/>
<rect x="515.5492189044888" y="574.1293985842276" width="1.2923076923076922" height="5.8706014157723985" fill="#3fb950" opacity="0.45"/>
<rect x="517.7086019379079" y="574.7716824956133" width="1.2923076923076922" height="5.228317504386723" fill="#3fb950" opacity="0.45"/>
<rect x="519.8679849713268" y="550.2929218097366" width="1.2923076923076922" height="29.70707819026336" fill="#3fb950" opacity="0.45"/>
<rect x="522.0273680047459" y="551.0837454056624" width="1.2923076923076922" height="28.9162545943376" fill="#3fb950" opacity="0.45"/>
<rect x="524.186751038165" y="566.4979162677674" width="1.2923076923076922" height="13.502083732232563" fill="#f85149" opacity="0.45"/>
<rect x="526.346134071584" y="561.9604043372952" width="1.2923076923076922" height="18.039595662704755" fill="#3fb950" opacity="0.45"/>
<rect x="528.5055171050029" y="568.0153404097872" width="1.2923076923076922" height="11.9846595902128" fill="#f85149" opacity="0.45"/>
<rect x="530.664900138422" y="568.9947717077799" width="1.2923076923076922" height="11.005228292220067" fill="#f85149" opacity="0.45"/>
<rect x="532.824283171841" y="569.5751128964181" width="1.2923076923076922" height="10.42488710358191" fill="#f85149" opacity="0.45"/>
<rect x="534.98366620526" y="572.4159012368754" width="1.2923076923076922" height="7.5840987631246435" fill="#3fb950" opacity="0.45"/>
<rect x="537.143049238679" y="568.666160140124" width="1.2923076923076922" height="11.33383985987598" fill="#3fb950" opacity="0.45"/>
<rect x="539.302432272098" y="567.7440020302275" width="1.2923076923076922" height="12.255997969772466" fill="#3fb950" opacity="0.45"/>
<rect x="541.461815305517" y="570.5910828408284" width="1.2923076923076922" height="9.408917159171551" fill="#3fb950" opacity="0.45"/>
<rect x="543.6211983389361" y="569.6047900180953" width="1.2923076923076922" height="10.395209981904713" fill="#f85149" opacity="0.45"/>
<rect x="545.7805813723552" y="569.2232358294549" width="1.2923076923076922" height="10.776764170545107" fill="#3fb950" opacity="0.45"/>
<rect x="547.939964405774" y="567.1991004114393" width="1.2923076923076922" height="12.800899588560696" fill="#f85149" opacity="0.45"/>
<rect x="550.0993474391931" y="569.625902559939" width="1.2923076923076922" height="10.37409744006095" fill="#3fb950" opacity="0.45"/>
<rect x="552.2587304726122" y="551.9784779600841" width="1.2923076923076922" height="28.021522039915908" fill="#3fb950" opacity="0.45"/>
<rect x="554.4181135060313" y="556.3758114053256" width="1.2923076923076922" height="23.624188594674365" fill="#f85149" opacity="0.45"/>
<rect x="556.5774965394502" y="567.9219784776441" width="1.2923076923076922" height="12.078021522355925" fill="#f85149" opacity="0.45"/>
<rect x="558.7368795728693" y="556.6367917586153" width="1.2923076923076922" height="23.363208241384655" fill="#3fb950" opacity="0.45"/>
<rect x="560.8962626062884" y="563.2036407180741" width="1.2923076923076922" height="16.796359281925902" fill="#f85149" opacity="0.45"/>
<rect x="563.0556456397073" y="569.3941946216278" width="1.2923076923076922" height="10.605805378372224" fill="#f85149" opacity="0.45"/>
<rect x="565.2150286731263" y="571.9933607368282" width="1.2923076923076922" height="8.006639263171792" fill="#f85149" opacity="0.45"/>
<rect x="567.3744117065454" y="573.1741264272374" width="1.2923076923076922" height="6.825873572762589" fill="#3fb950" opacity="0.45"/>
<rect x="569.5337947399644" y="571.9468626077932" width="1.2923076923076922" height="8.05313739220685" fill="#f85149" opacity="0.45"/>
<rect x="571.6931777733834" y="572.9694639898869" width="1.2923076923076922" height="7.03053601011311" fill="#f85149" opacity="0.45"/>
<rect x="573.8525608068024" y="573.4385950646617" width="1.2923076923076922" height="6.56140493533826" fill="#3fb950" opacity="0.45"/>
<rect x="576.0119438402214" y="564.2238302947651" width="1.2923076923076922" height="15.776169705234906" fill="#3fb950" opacity="0.45"/>
<rect x="578.1713268736404" y="572.8970892843154" width="1.2923076923076922" height="7.102910715684629" fill="#f85149" opacity="0.45"/>
<rect x="580.3307099070595" y="574.4216214729227" width="1.2923076923076922" height="5.578378527077348" fill="#f85149" opacity="0.45"/>
<rect x="582.4900929404786" y="575.4538659679301" width="1.2923076923076922" height="4.546134032069858" fill="#3fb950" opacity="0.45"/>
<rect x="584.6494759738974" y="574.6555809774362" width="1.2923076923076922" height="5.344419022563784" fill="#3fb950" opacity="0.45"/>
<rect x="586.8088590073165" y="571.8815507531372" width="1.2923076923076922" height="8.118449246862838" fill="#f85149" opacity="0.45"/>
<rect x="588.9682420407356" y="573.6617096622575" width="1.2923076923076922" height="6.338290337742478" fill="#f85149" opacity="0.45"/>
<rect x="591.1276250741547" y="575.5818970891515" width="1.2923076923076922" height="4.418102910848461" fill="#3fb950" opacity="0.45"/>
<rect x="593.2870081075737" y="571.3018874995781" width="1.2923076923076922" height="8.698112500421871" fill="#f85149" opacity="0.45"/>
<rect x="595.4463911409927" y="573.2905730760002" width="1.2923076923076922" height="6.709426923999786" fill="#3fb950" opacity="0.45"/>
<rect x="597.6057741744116" y="568.8389288135234" width="1.2923076923076922" height="11.161071186476647" fill="#3fb950" opacity="0.45"/>
<rect x="599.7651572078307" y="573.4010210264868" width="1.2923076923076922" height="6.598978973513226" fill="#f85149" opacity="0.45"/>
<rect x="601.9245402412497" y="574.9947847671167" width="1.2923076923076922" height="5.005215232883302" fill="#3fb950" opacity="0.45"/>
<rect x="604.0839232746687" y="575.1922076795613" width="1.2923076923076922" height="4.807792320438693" fill="#3fb950" opacity="0.45"/>
<rect x="606.2433063080878" y="574.1870169029095" width="1.2923076923076922" height="5.812983097090523" fill="#f85149" opacity="0.45"/>
<rect x="608.4026893415067" y="573.9960898411324" width="1.2923076923076922" height="6.003910158867598" fill="#f85149" opacity="0.45"/>
<rect x="610.5620723749258" y="573.5310613007609" width="1.2923076923076922" height="6.468938699239061" fill="#f85149" opacity="0.45"/>
<rect x="612.7214554083448" y="573.2224981223095" width="1.2923076923076922" height="6.777501877690497" fill="#f85149" opacity="0.45"/>
<rect x="614.8808384417638" y="575.0757261068703" width="1.2923076923076922" height="4.92427389312968" fill="#3fb950" opacity="0.45"/>
<rect x="617.0402214751829" y="575.9179762144217" width="1.2923076923076922" height="4.082023785578258" fill="#f85149" opacity="0.45"/>
<rect x="619.199604508602" y="575.0689467560787" width="1.2923076923076922" height="4.931053243921269" fill="#f85149" opacity="0.45"/>
<rect x="621.3589875420209" y="573.7467843516453" width="1.2923076923076922" height="6.25321564835474" fill="#3fb950" opacity="0.45"/>
<rect x="623.5183705754399" y="572.8537425262241" width="1.2923076923076922" height="7.146257473775904" fill="#f85149" opacity="0.45"/>
<rect x="625.677753608859" y="576.3159158884904" width="1.2923076923076922" height="3.6840841115096055" fill="#f85149" opacity="0.45"/>
<rect x="627.837136642278" y="572.7616255294081" width="1.2923076923076922" height="7.238374470591907" fill="#3fb950" opacity="0.45"/>
<rect x="629.9965196756971" y="575.0175264074993" width="1.2923076923076922" height="4.982473592500696" fill="#f85149" opacity="0.45"/>
<rect x="632.155902709116" y="574.3011380289158" width="1.2923076923076922" height="5.69886197108417" fill="#3fb950" opacity="0.45"/>
<rect x="634.315285742535" y="576.2519845561775" width="1.2923076923076922" height="3.74801544382251" fill="#3fb950" opacity="0.45"/>
<rect x="636.4746687759541" y="574.3636395345164" width="1.2923076923076922" height="5.636360465483563" fill="#f85149" opacity="0.45"/>
<rect x="638.6340518093731" y="574.9440423536164" width="1.2923076923076922" height="5.055957646383604" fill="#f85149" opacity="0.45"/>
<rect x="640.7934348427922" y="575.2775042386113" width="1.2923076923076922" height="4.7224957613887" fill="#3fb950" opacity="0.45"/>
<rect x="642.9528178762112" y="574.1653579043049" width="1.2923076923076922" height="5.834642095695131" fill="#3fb950" opacity="0.45"/>
<rect x="645.1122009096301" y="575.8132372990411" width="1.2923076923076922" height="4.186762700958866" fill="#f85149" opacity="0.45"/>
<rect x="647.2715839430492" y="575.5450338556354" width="1.2923076923076922" height="4.454966144364562" fill="#3fb950" opacity="0.45"/>
<rect x="649.4309669764683" y="576.4313908303063" width="1.2923076923076922" height="3.568609169693673" fill="#f85149" opacity="0.45"/>
<rect x="651.5903500098872" y="576.4936971727781" width="1.2923076923076922" height="3.50630282722193" fill="#f85149" opacity="0.45"/>
<rect x="653.7497330433063" y="572.9616554103843" width="1.2923076923076922" height="7.03834458961569" fill="#3fb950" opacity="0.45"/>
<rect x="655.9091160767254" y="571.7150170281174" width="1.2923076923076922" height="8.284982971882641" fill="#f85149" opacity="0.45"/>
<rect x="658.0684991101443" y="570.262871871174" width="1.2923076923076922" height="9.737128128826043" fill="#f85149" opacity="0.45"/>
<rect x="660.2278821435633" y="573.5676410341531" width="1.2923076923076922" height="6.432358965846902" fill="#3fb950" opacity="0.45"/>
<rect x="662.3872651769824" y="576.3058701232266" width="1.2923076923076922" height="3.694129876773445" fill="#f85149" opacity="0.45"/>
<rect x="664.5466482104014" y="572.3493999143077" width="1.2923076923076922" height="7.650600085692304" fill="#3fb950" opacity="0.45"/>
<rect x="666.7060312438205" y="574.4289061935004" width="1.2923076923076922" height="5.571093806499562" fill="#3fb950" opacity="0.45"/>
<rect x="668.8654142772394" y="572.9290611135181" width="1.2923076923076922" height="7.07093888648194" fill="#3fb950" opacity="0.45"/>
<rect x="671.0247973106584" y="575.3423805713376" width="1.2923076923076922" height="4.657619428662429" fill="#f85149" opacity="0.45"/>
<rect x="673.1841803440775" y="571.5970111286725" width="1.2923076923076922" height="8.402988871327466" fill="#f85149" opacity="0.45"/>
<rect x="675.3435633774965" y="572.3878162354598" width="1.2923076923076922" height="7.612183764540191" fill="#3fb950" opacity="0.45"/>
<rect x="677.5029464109156" y="570.8324688159819" width="1.2923076923076922" height="9.167531184018117" fill="#3fb950" opacity="0.45"/>
<rect x="679.6623294443345" y="567.5736554339745" width="1.2923076923076922" height="12.426344566025477" fill="#3fb950" opacity="0.45"/>
<rect x="681.8217124777535" y="573.0509600037961" width="1.2923076923076922" height="6.949039996203851" fill="#f85149" opacity="0.45"/>
<rect x="683.9810955111726" y="570.7954905389372" width="1.2923076923076922" height="9.204509461062798" fill="#f85149" opacity="0.45"/>
<rect x="686.1404785445917" y="569.9314314653242" width="1.2923076923076922" height="10.06856853467582" fill="#3fb950" opacity="0.45"/>
<rect x="688.2998615780106" y="574.31664425309" width="1.2923076923076922" height="5.683355746910024" fill="#3fb950" opacity="0.45"/>
<rect x="690.4592446114297" y="570.5013078015587" width="1.2923076923076922" height="9.49869219844129" fill="#f85149" opacity="0.45"/>
<rect x="692.6186276448487" y="574.5253660835206" width="1.2923076923076922" height="5.4746339164794335" fill="#f85149" opacity="0.45"/>
<rect x="694.7780106782677" y="574.6558172275396" width="1.2923076923076922" height="5.344182772460385" fill="#3fb950" opacity="0.45"/>
<rect x="696.9373937116868" y="570.4043630852397" width="1.2923076923076922" height="9.595636914760348" fill="#3fb950" opacity="0.45"/>
<rect x="699.0967767451058" y="574.0701429496121" width="1.2923076923076922" height="5.929857050387909" fill="#f85149" opacity="0.45"/>
<rect x="701.2561597785248" y="574.0251321690537" width="1.2923076923076922" height="5.974867830946323" fill="#3fb950" opacity="0.45"/>
<rect x="703.4155428119439" y="572.4141118991361" width="1.2923076923076922" height="7.58588810086394" fill="#3fb950" opacity="0.45"/>
<rect x="705.5749258453628" y="573.1351883015093" width="1.2923076923076922" height="6.864811698490712" fill="#f85149" opacity="0.45"/>
<rect x="707.7343088787818" y="573.9883141312093" width="1.2923076923076922" height="6.011685868790664" fill="#f85149" opacity="0.45"/>
<rect x="709.8936919122009" y="574.8914058305919" width="1.2923076923076922" height="5.108594169408093" fill="#f85149" opacity="0.45"/>
<rect x="712.0530749456199" y="571.8143735498392" width="1.2923076923076922" height="8.18562645016084" fill="#f85149" opacity="0.45"/>
<rect x="714.212457979039" y="569.8484152333587" width="1.2923076923076922" height="10.15158476664135" fill="#3fb950" opacity="0.45"/>
<rect x="716.371841012458" y="572.6922748251593" width="1.2923076923076922" height="7.307725174840698" fill="#3fb950" opacity="0.45"/>
<rect x="718.5312240458769" y="574.1418191766171" width="1.2923076923076922" height="5.858180823382895" fill="#3fb950" opacity="0.45"/>
<rect x="720.690607079296" y="575.1272902598605" width="1.2923076923076922" height="4.8727097401394985" fill="#f85149" opacity="0.45"/>
<rect x="722.849990112715" y="573.2900861953524" width="1.2923076923076922" height="6.709913804647613" fill="#3fb950" opacity="0.45"/>
<rect x="725.0093731461341" y="572.7314882336166" width="1.2923076923076922" height="7.268511766383426" fill="#3fb950" opacity="0.45"/>
<rect x="727.168756179553" y="571.143908082648" width="1.2923076923076922" height="8.856091917352046" fill="#f85149" opacity="0.45"/>
<rect x="729.328139212972" y="573.4827841057302" width="1.2923076923076922" height="6.517215894269839" fill="#f85149" opacity="0.45"/>
<rect x="731.4875222463911" y="573.572970014745" width="1.2923076923076922" height="6.42702998525499" fill="#f85149" opacity="0.45"/>
<rect x="733.6469052798102" y="569.4303758113674" width="1.2923076923076922" height="10.569624188632588" fill="#3fb950" opacity="0.45"/>
<rect x="735.8062883132291" y="570.5557480427635" width="1.2923076923076922" height="9.444251957236474" fill="#f85149" opacity="0.45"/>
<rect x="737.9656713466482" y="571.703564033977" width="1.2923076923076922" height="8.296435966022955" fill="#3fb950" opacity="0.45"/>
<rect x="740.1250543800672" y="569.4607349768212" width="1.2923076923076922" height="10.539265023178814" fill="#f85149" opacity="0.45"/>
<rect x="742.2844374134862" y="559.762816147755" width="1.2923076923076922" height="20.23718385224504" fill="#3fb950" opacity="0.45"/>
<rect x="744.4438204469053" y="563.7776298604556" width="1.2923076923076922" height="16.22237013954441" fill="#3fb950" opacity="0.45"/>
<rect x="746.6032034803243" y="558.425254345281" width="1.2923076923076922" height="21.57474565471898" fill="#3fb950" opacity="0.45"/>
<rect x="748.7625865137433" y="556.3084061693191" width="1.2923076923076922" height="23.69159383068086" fill="#3fb950" opacity="0.45"/>
<rect x="750.9219695471623" y="549.3692475904812" width="1.2923076923076922" height="30.630752409518777" fill="#3fb950" opacity="0.45"/>
<rect x="753.0813525805813" y="559.7256283271403" width="1.2923076923076922" height="20.27437167285973" fill="#f85149" opacity="0.45"/>
<rect x="755.2407356140003" y="566.9877551776873" width="1.2923076923076922" height="13.01224482231271" fill="#f85149" opacity="0.45"/>
<rect x="757.4001186474194" y="570.4016718884102" width="1.2923076923076922" height="9.598328111589808" fill="#f85149" opacity="0.45"/>
<rect x="759.5595016808384" y="570.8577373052958" width="1.2923076923076922" height="9.142262694704186" fill="#f85149" opacity="0.45"/>
<rect x="761.7188847142575" y="574.0185582531345" width="1.2923076923076922" height="5.981441746865471" fill="#3fb950" opacity="0.45"/>
<rect x="763.8782677476764" y="573.4324525619749" width="1.2923076923076922" height="6.567547438025144" fill="#3fb950" opacity="0.45"/>
<rect x="766.0376507810954" y="573.0852676274989" width="1.2923076923076922" height="6.914732372501135" fill="#f85149" opacity="0.45"/>
<rect x="768.1970338145145" y="569.1458382412515" width="1.2923076923076922" height="10.854161758748546" fill="#f85149" opacity="0.45"/>
<rect x="770.3564168479336" y="571.8062301114944" width="1.2923076923076922" height="8.193769888505585" fill="#f85149" opacity="0.45"/>
<rect x="772.5157998813526" y="573.3905438479908" width="1.2923076923076922" height="6.609456152009216" fill="#f85149" opacity="0.45"/>
<rect x="774.6751829147715" y="572.0689813133848" width="1.2923076923076922" height="7.931018686615175" fill="#f85149" opacity="0.45"/>
<rect x="776.8345659481906" y="570.3892471873232" width="1.2923076923076922" height="9.610752812676765" fill="#3fb950" opacity="0.45"/>
<rect x="778.9939489816096" y="572.4202749453102" width="1.2923076923076922" height="7.5797250546897885" fill="#f85149" opacity="0.45"/>
<rect x="781.1533320150287" y="573.7116180101757" width="1.2923076923076922" height="6.288381989824302" fill="#3fb950" opacity="0.45"/>
<rect x="783.3127150484477" y="573.9102940753423" width="1.2923076923076922" height="6.089705924657665" fill="#f85149" opacity="0.45"/>
<rect x="785.4720980818666" y="575.3524468800887" width="1.2923076923076922" height="4.647553119911322" fill="#f85149" opacity="0.45"/>
<rect x="787.6314811152857" y="575.3173175168962" width="1.2923076923076922" height="4.682682483103804" fill="#f85149" opacity="0.45"/>
<rect x="789.7908641487047" y="574.6389715679969" width="1.2923076923076922" height="5.361028432003081" fill="#3fb950" opacity="0.45"/>
<rect x="791.9502471821237" y="574.8891912426666" width="1.2923076923076922" height="5.110808757333416" fill="#3fb950" opacity="0.45"/>
<rect x="794.1096302155428" y="576.8373301383091" width="1.2923076923076922" height="3.1626698616909152" fill="#f85149" opacity="0.45"/>
<rect x="796.2690132489618" y="575.998128684265" width="1.2923076923076922" height="4.001871315735002" fill="#f85149" opacity="0.45"/>
<rect x="798.4283962823808" y="575.9627938862001" width="1.2923076923076922" height="4.037206113799925" fill="#3fb950" opacity="0.45"/>
<rect x="800.5877793157999" y="574.2889105453064" width="1.2923076923076922" height="5.711089454693592" fill="#f85149" opacity="0.45"/>
<rect x="802.7471623492188" y="576.4342463750337" width="1.2923076923076922" height="3.5657536249663053" fill="#3fb950" opacity="0.45"/>
<rect x="804.9065453826379" y="574.9970424963652" width="1.2923076923076922" height="5.002957503634775" fill="#3fb950" opacity="0.45"/>
<rect x="807.065928416057" y="575.3269195428354" width="1.2923076923076922" height="4.673080457164588" fill="#f85149" opacity="0.45"/>
<rect x="809.225311449476" y="568.9145288465927" width="1.2923076923076922" height="11.085471153407298" fill="#f85149" opacity="0.45"/>
<rect x="811.3846944828949" y="570.8398644713909" width="1.2923076923076922" height="9.16013552860909" fill="#f85149" opacity="0.45"/>
<rect x="813.544077516314" y="574.6496665074578" width="1.2923076923076922" height="5.350333492542177" fill="#f85149" opacity="0.45"/>
<rect x="815.703460549733" y="575.3284110000096" width="1.2923076923076922" height="4.671588999990377" fill="#3fb950" opacity="0.45"/>
<rect x="817.8628435831521" y="576.0556504485569" width="1.2923076923076922" height="3.9443495514431106" fill="#3fb950" opacity="0.45"/>
<rect x="820.0222266165711" y="574.0230778203289" width="1.2923076923076922" height="5.976922179671078" fill="#3fb950" opacity="0.45"/>
<rect x="822.18160964999" y="572.77608814443" width="1.2923076923076922" height="7.223911855570009" fill="#3fb950" opacity="0.45"/>
<rect x="824.3409926834091" y="575.7168883438522" width="1.2923076923076922" height="4.283111656147753" fill="#f85149" opacity="0.45"/>
<rect x="826.5003757168281" y="575.2176857124452" width="1.2923076923076922" height="4.782314287554755" fill="#f85149" opacity="0.45"/>
<rect x="828.6597587502472" y="576.0630461039659" width="1.2923076923076922" height="3.9369538960340833" fill="#f85149" opacity="0.45"/>
<rect x="830.8191417836662" y="575.0660891570027" width="1.2923076923076922" height="4.933910842997307" fill="#3fb950" opacity="0.45"/>
<rect x="832.9785248170851" y="575.764754669138" width="1.2923076923076922" height="4.2352453308619715" fill="#f85149" opacity="0.45"/>
<rect x="835.1379078505042" y="574.2736816582101" width="1.2923076923076922" height="5.72631834178992" fill="#3fb950" opacity="0.45"/>
<rect x="837.2972908839233" y="574.7675737981638" width="1.2923076923076922" height="5.232426201836233" fill="#f85149" opacity="0.45"/>
<rect x="839.4566739173422" y="572.719798989373" width="1.2923076923076922" height="7.2802010106270245" fill="#f85149" opacity="0.45"/>
<rect x="841.6160569507613" y="571.7600072651885" width="1.2923076923076922" height="8.239992734811494" fill="#f85149" opacity="0.45"/>
<rect x="843.7754399841804" y="575.1811141964479" width="1.2923076923076922" height="4.818885803552121" fill="#3fb950" opacity="0.45"/>
<rect x="845.9348230175993" y="575.9866243314067" width="1.2923076923076922" height="4.013375668593312" fill="#3fb950" opacity="0.45"/>
<rect x="848.0942060510184" y="576.6655865849233" width="1.2923076923076922" height="3.3344134150767104" fill="#f85149" opacity="0.45"/>
<rect x="850.2535890844373" y="577.1660259342626" width="1.2923076923076922" height="2.8339740657373795" fill="#3fb950" opacity="0.45"/>
<rect x="852.4129721178564" y="576.9657269336034" width="1.2923076923076922" height="3.034273066396622" fill="#3fb950" opacity="0.45"/>
<rect x="854.5723551512755" y="577.0024997757757" width="1.2923076923076922" height="2.997500224224268" fill="#f85149" opacity="0.45"/>
<rect x="856.7317381846944" y="576.9905845531724" width="1.2923076923076922" height="3.0094154468275747" fill="#3fb950" opacity="0.45"/>
<rect x="858.8911212181134" y="577.1797900707182" width="1.2923076923076922" height="2.8202099292817593" fill="#f85149" opacity="0.45"/>
<rect x="861.0505042515325" y="561.8509486372427" width="1.2923076923076922" height="18.14905136275729" fill="#3fb950" opacity="0.45"/>
<rect x="863.2098872849515" y="568.6883450520022" width="1.2923076923076922" height="11.311654947997795" fill="#f85149" opacity="0.45"/>
<rect x="865.3692703183706" y="567.2357746448728" width="1.2923076923076922" height="12.764225355127223" fill="#3fb950" opacity="0.45"/>
<rect x="867.5286533517896" y="572.924822992099" width="1.2923076923076922" height="7.0751770079009475" fill="#f85149" opacity="0.45"/>
<rect x="869.6880363852085" y="572.0387823871316" width="1.2923076923076922" height="7.961217612868381" fill="#f85149" opacity="0.45"/>
<rect x="871.8474194186276" y="574.0612887066085" width="1.2923076923076922" height="5.9387112933915205" fill="#f85149" opacity="0.45"/>
<rect x="874.0068024520466" y="575.1260576506256" width="1.2923076923076922" height="4.873942349374374" fill="#3fb950" opacity="0.45"/>
<rect x="876.1661854854657" y="563.2020013477918" width="1.2923076923076922" height="16.797998652208207" fill="#3fb950" opacity="0.45"/>
<rect x="878.3255685188847" y="541.0189322204553" width="1.2923076923076922" height="38.981067779544674" fill="#3fb950" opacity="0.45"/>
<rect x="880.4849515523036" y="554.1513749323021" width="1.2923076923076922" height="25.848625067697867" fill="#f85149" opacity="0.45"/>
<rect x="882.6443345857227" y="564.9977014050146" width="1.2923076923076922" height="15.002298594985405" fill="#f85149" opacity="0.45"/>
<rect x="884.8037176191418" y="569.432841029837" width="1.2923076923076922" height="10.56715897016295" fill="#f85149" opacity="0.45"/>
<rect x="886.9631006525607" y="570.6457285169058" width="1.2923076923076922" height="9.35427148309418" fill="#f85149" opacity="0.45"/>
<rect x="889.1224836859798" y="571.1352798180042" width="1.2923076923076922" height="8.864720181995835" fill="#f85149" opacity="0.45"/>
<rect x="891.2818667193989" y="570.7371470351554" width="1.2923076923076922" height="9.26285296484457" fill="#3fb950" opacity="0.45"/>
<rect x="893.4412497528178" y="572.2748270556008" width="1.2923076923076922" height="7.725172944399219" fill="#3fb950" opacity="0.45"/>
<rect x="895.6006327862369" y="569.5809677902836" width="1.2923076923076922" height="10.41903220971642" fill="#3fb950" opacity="0.45"/>
<rect x="897.7600158196559" y="570.5853306643993" width="1.2923076923076922" height="9.414669335600706" fill="#f85149" opacity="0.45"/>
<rect x="899.9193988530749" y="572.9330403869978" width="1.2923076923076922" height="7.066959613002155" fill="#f85149" opacity="0.45"/>
<rect x="902.078781886494" y="566.4575277718396" width="1.2923076923076922" height="13.542472228160364" fill="#3fb950" opacity="0.45"/>
<rect x="904.238164919913" y="565.5466377646982" width="1.2923076923076922" height="14.453362235301825" fill="#3fb950" opacity="0.45"/>
<rect x="906.3975479533319" y="568.1123056695935" width="1.2923076923076922" height="11.887694330406475" fill="#3fb950" opacity="0.45"/>
<rect x="908.556930986751" y="566.8342953279514" width="1.2923076923076922" height="13.165704672048605" fill="#3fb950" opacity="0.45"/>
<rect x="910.71631402017" y="568.4272927965071" width="1.2923076923076922" height="11.572707203492882" fill="#f85149" opacity="0.45"/>
<rect x="912.8756970535891" y="567.2829650894281" width="1.2923076923076922" height="12.717034910571897" fill="#3fb950" opacity="0.45"/>
<rect x="915.035080087008" y="569.1220180677884" width="1.2923076923076922" height="10.877981932211583" fill="#f85149" opacity="0.45"/>
<rect x="917.194463120427" y="568.6467896859988" width="1.2923076923076922" height="11.353210314001217" fill="#f85149" opacity="0.45"/>
<rect x="919.3538461538461" y="552.2591163763205" width="1.2923076923076922" height="27.74088362367945" fill="#3fb950" opacity="0.45"/>
<polyline points="80.0,306.7813789127159 82.15938303341902,357.1498205218814 84.31876606683805,369.1423066193018 86.47814910025707,362.54643926572055 88.63753213367609,354.45151114996185 90.79691516709512,362.24662711328506 92.95629820051414,344.55771011959007 95.11568123393316,336.4627820038313 97.27506426735218,330.4665389551211 99.43444730077121,282.49659456543975 101.59383033419023,229.72965573679016 103.75321336760925,171.56609816430154 105.91259640102828,235.42608663306487 108.0719794344473,248.6178213402272 110.23136246786632,229.42984358435473 112.39074550128535,197.9495675786263 114.55012853470437,241.1225175293395 116.70951156812339,258.81143452303445 118.86889460154242,313.3772462662971 121.02827763496143,308.8800639797645 123.18766066838046,303.78325738836077 125.34704370179949,286.3941525471014 127.5064267352185,283.6958431751818 129.66580976863753,265.10748972418025 131.82519280205656,265.40730187661575 133.98457583547557,266.9063626387933 136.1439588688946,271.4035449253259 138.30334190231363,294.48908066286003 140.46272493573264,300.78513586400584 142.62210796915167,316.6751799430878 144.7814910025707,307.6808153700225 146.9408740359897,295.98814142503767 149.10025706940874,302.28419662618336 151.25964010282777,325.36973236371756 153.41902313624678,319.37348931500736 155.5784061696658,319.37348931500736 157.73778920308484,309.1798761322001 159.89717223650385,312.17799765655514 162.05655526992285,306.48156676028054 164.2159383033419,286.3941525471014 166.37532133676092,287.89321330927896 168.53470437017995,301.0849480164412 170.69408740359899,289.9918983763275 172.853470437018,292.6902077482471 175.012853470437,295.68832927260206 177.17223650385603,295.98814142503767 179.33161953727506,290.8913348336339 181.4910025706941,285.19490393735936 183.65038560411313,295.68832927260206 185.80976863753213,298.38663864452167 187.96915167095113,312.4778098089906 190.12853470437017,300.48532371157023 192.2879177377892,289.09246191902093 194.44730077120823,285.4947160897948 196.60668380462727,275.00129075455203 198.7660668380463,277.3997879740361 200.9254498714653,309.1798761322001 203.0848329048843,302.28419662618336 205.24421593830334,305.58213030297395 207.40359897172237,290.8913348336339 209.56298200514138,289.9918983763275 211.7223650385604,301.3847601688768 213.88174807197942,352.3528260829133 216.04113110539845,364.9449364852046 218.20051413881748,355.6507597597039 220.35989717223651,354.75132330239734 222.51928020565555,346.65639518663863 224.67866323907455,359.848129893801 226.83804627249359,363.44587572302714 228.9974293059126,341.85940074767046 231.15681233933162,348.7550802536872 233.31619537275066,358.94869343649447 235.47557840616966,364.64512433276917 237.6349614395887,359.24850558893 239.7943444730077,358.94869343649447 241.95372750642673,363.44587572302714 244.11311053984574,361.3471906559786 246.2724935732648,349.95432886342917 248.4318766066838,335.8631576989603 250.59125964010283,320.8725500771848 252.75064267352187,313.3772462662971 254.91002570694087,296.58776572990865 257.0694087403599,282.49659456543975 259.2287917737789,288.49283761414995 261.38817480719797,264.80767757174476 263.54755784061695,279.4984730410847 265.706940874036,275.9007272118585 267.866323907455,272.00316923019693 270.025706940874,283.9956553276173 272.1850899742931,262.40918035226065 274.34447300771205,261.8095560473896 276.50385604113114,206.94393215169154 278.6632390745501,233.62721371845177 280.82262210796915,250.7165064072758 282.9820051413882,257.6121859132925 285.14138817480716,270.50410846801935 287.30077120822625,299.88569940669925 289.4601542416452,294.48908066286003 291.61953727506426,286.6939646995369 293.7789203084833,269.60467201071293 295.93830334190227,251.31613071214676 298.09768637532136,254.01444008406645 300.25706940874034,257.9119980657281 302.4164524421594,202.4467498651589 304.5758354755784,141.58488292075066 306.73521850899743,74.72677292763217 308.89460154241647,148.48056242676725 311.05398457583544,181.1600870422377 313.21336760925453,196.15069466401314 315.3727506426735,203.04637417002988 317.5321336760926,202.1469377127234 319.6915167095116,227.93078282217712 321.8508997429306,250.11688210240476 324.01028277634964,257.0125616084215 326.1696658097686,254.01444008406645 328.32904884318765,265.40730187661575 330.4884318766067,257.0125616084215 332.64781491002566,249.8170699499693 334.80719794344475,255.21368869380848 336.9665809768638,260.01068313277665 339.12596401028276,272.6027935350679 341.2853470437018,326.56898097345953 343.4447300771208,347.5558316439451 345.60411311053986,339.1610913757509 347.76349614395883,325.669544516153 349.9228791773779,316.0755556382167 352.0822622107969,309.1798761322001 354.24164524421593,308.8800639797645 356.40102827763496,319.37348931500736 358.560411311054,321.1723622296204 360.71979434447303,318.77386501013626 362.879177377892,308.2804396748935 365.0385604113111,310.37912474194206 367.1979434447301,301.9843844737478 369.3573264781491,313.67705841873266 371.51670951156814,322.3716108393624 373.67609254498717,328.36785388807255 375.83547557840615,330.76635110755666 377.9948586118252,319.0736771625718 380.1542416452442,293.28983205311806 382.31362467866325,289.09246191902093 384.4730077120822,286.6939646995369 386.6323907455013,297.4872021872152 388.79177377892034,288.7926497665853 390.9511568123393,290.8913348336339 393.11053984575835,295.3885171201666 395.2699228791774,307.08119106515153 397.4293059125964,305.8819424554094 399.5886889460154,304.68269384566736 401.7480719794344,299.2860751018282 403.90745501285346,308.580251827329 406.0668380462725,314.8763070284747 408.22622107969147,324.47029590641097 410.38560411311056,316.6751799430878 412.5449871465296,318.77386501013626 414.70437017994857,326.56898097345953 416.8637532133676,312.4778098089906 419.02313624678663,309.7795004370711 421.18251928020567,313.9768705711682 423.34190231362464,311.5783733516841 425.50128534704373,304.382881693232 427.6606683804627,300.48532371157023 429.82005141388174,289.9918983763275 431.9794344473008,302.5840087786188 434.1388174807198,305.2823181505384 436.2982005141388,307.6808153700225 438.4575835475578,321.1723622296204 440.6169665809769,313.9768705711682 442.7763496143959,313.9768705711682 444.9357326478149,316.37536779065226 447.09511568123395,325.36973236371756 449.254498714653,332.5652240221697 451.41388174807196,321.77198653449136 453.573264781491,312.17799765655514 455.73264781491,307.08119106515153 457.89203084832906,307.98062752245795 460.05141388174803,302.28419662618336 462.2107969151671,295.98814142503767 464.37017994858616,299.5858872542638 466.52956298200513,304.382881693232 468.68894601542416,304.0830695407964 470.8483290488432,308.580251827329 473.00771208226223,303.78325738836077 475.1670951156812,301.3847601688768 477.32647814910024,301.3847601688768 479.4858611825193,300.78513586400584 481.6452442159383,295.98814142503767 483.8046272493573,296.2879535774731 485.96401028277637,295.08870496773113 488.1233933161954,289.6920862238919 490.2827763496144,286.6939646995369 492.4421593830334,288.7926497665853 494.60154241645245,286.6939646995369 496.7609254498715,292.6902077482471 498.92030848329046,295.68832927260206 501.0796915167095,288.49283761414995 503.2390745501285,283.6958431751818 505.39845758354755,284.2954674800528 507.5578406169666,280.9975338032622 509.71722365038556,288.19302546171434 511.8766066838046,302.88382093105434 514.0359897172236,296.8875778823442 516.1953727506427,289.6920862238919 518.3547557840618,286.99377685197237 520.5141388174807,268.70523555340634 522.6735218508998,263.6084289620027 524.8329048843189,269.60467201071293 526.9922879177378,258.81143452303445 529.1516709511568,263.3086168095672 531.3110539845759,266.9063626387933 533.4704370179949,276.20053936429406 535.6298200514138,273.2024178399389 537.7892030848329,266.3067383339222 539.9485861182519,261.5097438949541 542.1079691516709,258.81143452303445 544.26735218509,262.7089925046962 546.4267352185091,258.51162237059907 548.5861182519279,261.8095560473896 550.745501285347,258.51162237059907 552.9048843187661,252.81519147432434 555.0642673521852,260.01068313277665 557.2236503856041,271.10373277289034 559.3830334190231,255.21368869380848 561.5424164524422,278.2992244313426 563.7017994858612,299.5858872542638 565.8611825192802,301.9843844737478 568.0205655526993,291.4909591385051 570.1799485861183,292.9900199006825 572.3393316195372,302.88382093105434 574.4987146529563,301.3847601688768 576.6580976863753,281.5971581081332 578.8174807197943,285.4947160897948 580.9768637532134,293.58964420555355 583.1362467866325,287.59340115684336 585.2956298200513,284.2954674800528 587.4550128534704,294.78889281529564 589.6143958868895,300.48532371157023 591.7737789203086,297.7870143396507 593.9331619537276,310.07931258950657 596.0925449871465,297.4872021872152 598.2519280205655,292.3903955958115 600.4113110539846,304.0830695407964 602.5706940874036,302.5840087786188 604.7300771208226,299.2860751018282 606.8894601542416,301.3847601688768 609.0488431876606,305.2823181505384 611.2082262210797,306.7813789127159 613.3676092544987,310.9787490468131 615.5269922879177,304.9825059981029 617.6863753213368,311.27856119924854 619.8457583547558,322.9712351442334 622.0051413881748,310.37912474194206 624.1645244215938,317.57461640039423 626.3239074550129,320.5727379247494 628.4832904884319,310.37912474194206 630.642673521851,311.87818550411964 632.8020565552699,311.87818550411964 634.9614395886889,310.37912474194206 637.120822622108,310.67893689437756 639.280205655527,317.2748042479588 641.4395886889461,312.4778098089906 643.598971722365,312.17799765655514 645.758354755784,313.0774341138616 647.9177377892031,311.5783733516841 650.0771208226222,314.5764948760392 652.236503856041,316.37536779065226 654.3958868894601,308.580251827329 656.5552699228792,316.97499209552325 658.7146529562982,331.3659754124277 660.8740359897172,325.36973236371756 663.0334190231363,325.96935666858855 665.1928020565553,314.8763070284747 667.3521850899743,314.8763070284747 669.5115681233933,312.17799765655514 671.6709511568123,316.6751799430878 673.8303341902314,317.8744285528298 675.9897172236504,308.8800639797645 678.1491002570694,305.58213030297395 680.3084832904884,302.88382093105434 682.4678663239074,306.18175460784494 684.6272493573265,309.1798761322001 686.7866323907456,299.88569940669925 688.9460154241644,299.88569940669925 691.1053984575835,317.2748042479588 693.2647814910026,325.06992021128195 695.4241645244216,316.0755556382167 697.5835475578407,304.0830695407964 699.7429305912597,305.2823181505384 701.9023136246786,302.88382093105434 704.0616966580977,302.88382093105434 706.2210796915167,303.78325738836077 708.3804627249357,314.8763070284747 710.5398457583548,322.67142299179795 712.6992287917737,328.66766604050815 714.8586118251928,315.7757434857813 717.0179948586119,307.08119106515153 719.1773778920308,305.58213030297395 721.3367609254499,308.2804396748935 723.4961439588689,301.9843844737478 725.655526992288,297.7870143396507 727.8149100257069,298.38663864452167 729.9742930591259,299.88569940669925 732.133676092545,304.382881693232 734.2930591259641,292.6902077482471 736.4524421593829,293.8894563579891 738.611825192802,290.8913348336339 740.7712082262211,292.3903955958115 742.9305912596401,277.09997582160065 745.0899742930592,274.1018542972455 747.2493573264782,257.31237376085704 749.4087403598971,253.41481577919535 751.5681233933162,245.02007551100115 753.7275064267352,262.7089925046962 755.8868894601542,269.90448416314837 758.0462724935733,273.5022299923745 760.2056555269922,279.7982851935202 762.3650385604113,278.8988487362136 764.5244215938303,271.4035449253259 766.6838046272493,272.9026056875035 768.8431876606684,283.9956553276173 771.0025706940875,287.59340115684336 773.1619537275064,293.58964420555355 775.3213367609254,301.0849480164412 777.4807197943445,298.6864507969573 779.6401028277635,306.18175460784494 781.7994858611826,302.28419662618336 783.9588688946016,307.3810032175869 786.1182519280205,309.1798761322001 788.2776349614396,310.67893689437756 790.4370179948586,299.5858872542638 792.5964010282776,295.68832927260206 794.7557840616967,297.7870143396507 796.9151670951156,300.48532371157023 799.0745501285347,300.48532371157023 801.2339331619538,307.3810032175869 803.3933161953727,307.08119106515153 805.5526992287918,301.3847601688768 807.7120822622109,303.4834452359254 809.8714652956298,326.269168821024 812.0308483290488,342.15921290010596 814.1902313624679,343.65827366228353 816.3496143958869,337.36221846113784 818.508997429306,334.36409693678274 820.6683804627249,329.5671024978147 822.8277634961439,319.37348931500736 824.987146529563,322.07179868692697 827.146529562982,325.06992021128195 829.3059125964011,331.9655997172987 831.46529562982,323.27104729666894 833.624678663239,331.9655997172987 835.7840616966581,322.9712351442334 837.9434447300772,327.76822958320156 840.1028277634961,342.75883720497706 842.2622107969152,367.64324585712427 844.4215938303342,349.65451671099373 846.5809768637532,343.35846150984804 848.7403598971723,352.0530139304778 850.8997429305912,349.3547045585582 853.0591259640103,346.9562073390741 855.2185089974294,348.1554559488162 857.3778920308483,344.2578979671546 859.5372750642673,352.0530139304778 861.6966580976864,325.06992021128195 863.8560411311054,330.76635110755666 866.0154241645245,324.47029590641097 868.1748071979434,327.1686052783305 870.3341902313624,331.06616325999215 872.4935732647815,337.6620306135734 874.6529562982005,332.2654118697342 876.8123393316196,316.0755556382167 878.9717223650385,285.19490393735936 881.1311053984575,291.7907712909405 883.2904884318766,297.1873900347797 885.4498714652957,299.5858872542638 887.6092544987146,300.48532371157023 889.7686375321337,308.8800639797645 891.9280205655527,307.98062752245795 894.0874035989717,306.7813789127159 896.2467866323908,304.9825059981029 898.4061696658098,309.7795004370711 900.5655526992288,313.3772462662971 902.7249357326479,294.78889281529564 904.8843187660668,290.5915226811985 907.0437017994858,288.19302546171434 909.2030848329049,284.5952796324883 911.3624678663239,286.99377685197237 913.521850899743,279.1986608886492 915.6812339331619,286.6939646995369 917.8406169665809,289.9918983763275 920.0,237.8245838525489" stroke="#58a6ff" stroke-width="1.8" fill="none"/>
<line x1="80" y1="245.02007551100115" x2="920" y2="245.02007551100115" stroke="#f0883e" stroke-width="1.5" stroke-dasharray="6,3"/>
<text x="925" y="249.02007551100115" font-size="11" fill="#f0883e" font-weight="bold">颈线 18.88</text>
<line x1="80" y1="161.37248498149424" x2="920" y2="161.37248498149424" stroke="#a371f7" stroke-width="1.2" stroke-dasharray="4,4"/>
<text x="925" y="165.37248498149424" font-size="11" fill="#a371f7" font-weight="bold">目标 21.67 (+13.3%)</text>
<circle cx="712.6992287917737" cy="328.66766604050815" r="6" fill="#238636" stroke="#fff" stroke-width="2"/>
<text x="712.6992287917737" y="348.66766604050815" text-anchor="middle" font-size="10" fill="#3fb950">左底 16.09</text>
<circle cx="788.2776349614396" cy="310.67893689437756" r="6" fill="#8957e5" stroke="#fff" stroke-width="2"/>
<text x="788.2776349614396" y="330.67893689437756" text-anchor="middle" font-size="10" fill="#bc8cff">右底 16.69</text>
<circle cx="920.0" cy="245.02007551100115" r="7" fill="#f0883e" stroke="#fff" stroke-width="2"/>
<text x="920.0" y="233.02007551100115" text-anchor="middle" font-size="10" fill="#f0883e">突破</text>
<line x1="920.0" y1="237.8245838525489" x2="920" y2="237.8245838525489" stroke="#f85149" stroke-width="1"/>
<text x="925" y="241.8245838525489" font-size="11" fill="#f85149" font-weight="bold">现价 19.12</text>
<text x="80" y="598" font-size="13" fill="#58a6ff" font-weight="bold">筛选高分原因:</text>
<text x="90" y="618" font-size="11" fill="#c9d1d9">  1. 刚刚突破(0天前)</text>
<text x="90" y="636" font-size="11" fill="#c9d1d9">  2. 右底缩量(57%)</text>
<text x="90" y="654" font-size="11" fill="#c9d1d9">  3. 形态跨度大(35根K线)</text>
<text x="90" y="672" font-size="11" fill="#c9d1d9">  4. 右底高于左底</text>
<text x="90" y="690" font-size="11" fill="#c9d1d9">  5. 振幅理想(17.3%)</text>
<text x="928" y="80" font-size="11" fill="#8b949e">突破日: 2026-05-18</text>
<text x="928" y="98" font-size="11" fill="#8b949e">突破后涨幅: 1.3%</text>
<text x="928" y="116" font-size="11" fill="#8b949e">目标空间: 13.3%</text>
<text x="928" y="134" font-size="11" fill="#8b949e">形态跨度: 35根K线</text>
</svg>