<svg xmlns="http://www.w3.org/2000/svg" viewBox="0 0 1000 700" width="1000" height="700">
<rect width="1000" height="700" fill="#0d1117"/>
<text x="500.0" y="24" text-anchor="middle" font-size="18" fill="#58a6ff" font-weight="bold">深圳新星 (603978.SH)</text>
<text x="500.0" y="46" text-anchor="middle" font-size="14" fill="#8b949e">双底突破 | 评分:72/100 | 突破后涨幅:4.1% | 目标空间:18.3%</text>
<line x1="80" y1="382.4" x2="920" y2="382.4" stroke="#21262d" stroke-width="0.5"/>
<text x="72" y="386.4" text-anchor="end" font-size="10" fill="#8b949e">11.06</text>
<line x1="80" y1="317.92" x2="920" y2="317.92" stroke="#21262d" stroke-width="0.5"/>
<text x="72" y="321.92" text-anchor="end" font-size="10" fill="#8b949e">16.72</text>
<line x1="80" y1="253.43999999999997" x2="920" y2="253.43999999999997" stroke="#21262d" stroke-width="0.5"/>
<text x="72" y="257.43999999999994" text-anchor="end" font-size="10" fill="#8b949e">22.39</text>
<line x1="80" y1="188.95999999999995" x2="920" y2="188.95999999999995" stroke="#21262d" stroke-width="0.5"/>
<text x="72" y="192.95999999999995" text-anchor="end" font-size="10" fill="#8b949e">28.05</text>
<line x1="80" y1="124.47999999999998" x2="920" y2="124.47999999999998" stroke="#21262d" stroke-width="0.5"/>
<text x="72" y="128.47999999999996" text-anchor="end" font-size="10" fill="#8b949e">33.72</text>
<line x1="80" y1="60.0" x2="920" y2="60.0" stroke="#21262d" stroke-width="0.5"/>
<text x="72" y="64.0" text-anchor="end" font-size="10" fill="#8b949e">39.38</text>
<text x="80.0" y="396.4" text-anchor="middle" font-size="9" fill="#8b949e">2024-10-08</text>
<text x="183.65038560411313" y="396.4" text-anchor="middle" font-size="9" fill="#8b949e">2024-12-13</text>
<text x="287.30077120822625" y="396.4" text-anchor="middle" font-size="9" fill="#8b949e">2025-02-28</text>
<text x="390.9511568123393" y="396.4" text-anchor="middle" font-size="9" fill="#8b949e">2025-05-13</text>
<text x="494.60154241645245" y="396.4" text-anchor="middle" font-size="9" fill="#8b949e">2025-07-21</text>
<text x="598.2519280205655" y="396.4" text-anchor="middle" font-size="9" fill="#8b949e">2025-09-25</text>
<text x="701.9023136246786" y="396.4" text-anchor="middle" font-size="9" fill="#8b949e">2025-12-10</text>
<text x="805.5526992287918" y="396.4" text-anchor="middle" font-size="9" fill="#8b949e">2026-02-26</text>
<text x="909.2030848329049" y="396.4" text-anchor="middle" font-size="9" fill="#8b949e">2026-05-11</text>
<rect x="688.9460154241644" y="60" width="231.05398457583556" height="520.0" fill="#238636" opacity="0.10" rx="4"/>
<text x="804.4730077120822" y="52" text-anchor="middle" font-size="11" fill="#3fb950" font-weight="bold">双底区域</text>
<rect x="79.35384615384615" y="546.2393770236672" width="1.2923076923076922" height="33.7606229763328" fill="#3fb950" opacity="0.45"/>
<rect x="81.51322918726517" y="551.2635968628007" width="1.2923076923076922" height="28.736403137199318" fill="#3fb950" opacity="0.45"/>
<rect x="83.6726122206842" y="524.812129280526" width="1.2923076923076922" height="55.18787071947395" fill="#3fb950" opacity="0.45"/>
<rect x="85.83199525410322" y="506.5057091158488" width="1.2923076923076922" height="73.49429088415121" fill="#f85149" opacity="0.45"/>
<rect x="87.99137828752224" y="529.8408981817835" width="1.2923076923076922" height="50.15910181821653" fill="#f85149" opacity="0.45"/>
<rect x="90.15076132094127" y="548.2401801652737" width="1.2923076923076922" height="31.759819834726272" fill="#f85149" opacity="0.45"/>
<rect x="92.31014435436029" y="542.9630711242146" width="1.2923076923076922" height="37.03692887578541" fill="#3fb950" opacity="0.45"/>
<rect x="94.46952738777931" y="555.6051210352138" width="1.2923076923076922" height="24.394878964786244" fill="#f85149" opacity="0.45"/>
<rect x="96.62891042119833" y="550.3997377702401" width="1.2923076923076922" height="29.600262229759892" fill="#3fb950" opacity="0.45"/>
<rect x="98.78829345461736" y="525.1121889861088" width="1.2923076923076922" height="54.88781101389122" fill="#3fb950" opacity="0.45"/>
<rect x="100.94767648803638" y="538.638262153519" width="1.2923076923076922" height="41.36173784648099" fill="#3fb950" opacity="0.45"/>
<rect x="103.1070595214554" y="492.8908233152333" width="1.2923076923076922" height="87.10917668476668" fill="#3fb950" opacity="0.45"/>
<rect x="105.26644255487443" y="536.2931388644726" width="1.2923076923076922" height="43.70686113552745" fill="#f85149" opacity="0.45"/>
<rect x="107.42582558829345" y="528.6399885214515" width="1.2923076923076922" height="51.36001147854847" fill="#3fb950" opacity="0.45"/>
<rect x="109.58520862171247" y="510.03629606670853" width="1.2923076923076922" height="69.96370393329147" fill="#f85149" opacity="0.45"/>
<rect x="111.7445916551315" y="533.40426142257" width="1.2923076923076922" height="46.595738577429984" fill="#f85149" opacity="0.45"/>
<rect x="113.90397468855052" y="538.3231745617452" width="1.2923076923076922" height="41.67682543825481" fill="#3fb950" opacity="0.45"/>
<rect x="116.06335772196954" y="536.3892656759946" width="1.2923076923076922" height="43.61073432400542" fill="#3fb950" opacity="0.45"/>
<rect x="118.22274075538857" y="537.5517498842851" width="1.2923076923076922" height="42.44825011571493" fill="#f85149" opacity="0.45"/>
<rect x="120.38212378880758" y="546.5420940653762" width="1.2923076923076922" height="33.457905934623795" fill="#3fb950" opacity="0.45"/>
<rect x="122.54150682222661" y="546.0735778321573" width="1.2923076923076922" height="33.9264221678427" fill="#f85149" opacity="0.45"/>
<rect x="124.70088985564564" y="531.165938888199" width="1.2923076923076922" height="48.83406111180102" fill="#3fb950" opacity="0.45"/>
<rect x="126.86027288906465" y="538.0121974787206" width="1.2923076923076922" height="41.98780252127938" fill="#3fb950" opacity="0.45"/>
<rect x="129.01965592248368" y="547.5493192293653" width="1.2923076923076922" height="32.450680770634676" fill="#3fb950" opacity="0.45"/>
<rect x="131.1790389559027" y="549.6348244954279" width="1.2923076923076922" height="30.365175504572107" fill="#f85149" opacity="0.45"/>
<rect x="133.33842198932172" y="536.5074279363176" width="1.2923076923076922" height="43.49257206368236" fill="#f85149" opacity="0.45"/>
<rect x="135.49780502274075" y="551.429778859375" width="1.2923076923076922" height="28.570221140624994" fill="#3fb950" opacity="0.45"/>
<rect x="137.65718805615978" y="556.1162215444257" width="1.2923076923076922" height="23.883778455574316" fill="#f85149" opacity="0.45"/>
<rect x="139.8165710895788" y="556.6058905448652" width="1.2923076923076922" height="23.394109455134753" fill="#f85149" opacity="0.45"/>
<rect x="141.97595412299782" y="559.7447118196304" width="1.2923076923076922" height="20.255288180369575" fill="#f85149" opacity="0.45"/>
<rect x="144.13533715641685" y="565.7648194747064" width="1.2923076923076922" height="14.235180525293572" fill="#3fb950" opacity="0.45"/>
<rect x="146.29472018983586" y="562.2454639501035" width="1.2923076923076922" height="17.7545360498965" fill="#3fb950" opacity="0.45"/>
<rect x="148.4541032232549" y="564.3416004189482" width="1.2923076923076922" height="15.658399581051754" fill="#3fb950" opacity="0.45"/>
<rect x="150.61348625667392" y="568.2566741748491" width="1.2923076923076922" height="11.743325825150919" fill="#f85149" opacity="0.45"/>
<rect x="152.77286929009293" y="562.3092028515941" width="1.2923076923076922" height="17.690797148405863" fill="#3fb950" opacity="0.45"/>
<rect x="154.93225232351196" y="566.5977345384734" width="1.2923076923076922" height="13.402265461526554" fill="#3fb950" opacity="0.45"/>
<rect x="157.091635356931" y="567.8729529799367" width="1.2923076923076922" height="12.127047020063287" fill="#3fb950" opacity="0.45"/>
<rect x="159.25101839035" y="561.5627329761198" width="1.2923076923076922" height="18.437267023880167" fill="#f85149" opacity="0.45"/>
<rect x="161.410401423769" y="564.105926295256" width="1.2923076923076922" height="15.89407370474396" fill="#f85149" opacity="0.45"/>
<rect x="163.56978445718804" y="565.8614164303124" width="1.2923076923076922" height="14.138583569687626" fill="#f85149" opacity="0.45"/>
<rect x="165.72916749060707" y="565.1140861725819" width="1.2923076923076922" height="14.885913827418108" fill="#3fb950" opacity="0.45"/>
<rect x="167.8885505240261" y="564.5186942181334" width="1.2923076923076922" height="15.481305781866581" fill="#f85149" opacity="0.45"/>
<rect x="170.04793355744513" y="562.6206500787026" width="1.2923076923076922" height="17.379349921297376" fill="#3fb950" opacity="0.45"/>
<rect x="172.20731659086414" y="550.0688325245454" width="1.2923076923076922" height="29.931167475454572" fill="#3fb950" opacity="0.45"/>
<rect x="174.36669962428314" y="551.8662416724246" width="1.2923076923076922" height="28.13375832757538" fill="#3fb950" opacity="0.45"/>
<rect x="176.52608265770218" y="541.2764803259096" width="1.2923076923076922" height="38.723519674090426" fill="#f85149" opacity="0.45"/>
<rect x="178.6854656911212" y="562.325669044192" width="1.2923076923076922" height="17.674330955808045" fill="#f85149" opacity="0.45"/>
<rect x="180.84484872454024" y="566.9706164035783" width="1.2923076923076922" height="13.029383596421667" fill="#f85149" opacity="0.45"/>
<rect x="183.00423175795927" y="567.9893981923012" width="1.2923076923076922" height="12.010601807698777" fill="#f85149" opacity="0.45"/>
<rect x="185.16361479137828" y="566.7320879663968" width="1.2923076923076922" height="13.267912033603238" fill="#f85149" opacity="0.45"/>
<rect x="187.32299782479728" y="569.3799468799223" width="1.2923076923076922" height="10.620053120077728" fill="#f85149" opacity="0.45"/>
<rect x="189.48238085821632" y="567.1130347537311" width="1.2923076923076922" height="12.886965246268915" fill="#f85149" opacity="0.45"/>
<rect x="191.64176389163535" y="566.9496253064577" width="1.2923076923076922" height="13.050374693542267" fill="#3fb950" opacity="0.45"/>
<rect x="193.80114692505438" y="557.3860695653261" width="1.2923076923076922" height="22.613930434673875" fill="#3fb950" opacity="0.45"/>
<rect x="195.96052995847342" y="566.1017715537963" width="1.2923076923076922" height="13.898228446203689" fill="#f85149" opacity="0.45"/>
<rect x="198.11991299189245" y="570.2065084945873" width="1.2923076923076922" height="9.793491505412703" fill="#f85149" opacity="0.45"/>
<rect x="200.27929602531145" y="571.119177091129" width="1.2923076923076922" height="8.880822908870982" fill="#f85149" opacity="0.45"/>
<rect x="202.43867905873046" y="573.9604138852906" width="1.2923076923076922" height="6.0395861147094365" fill="#3fb950" opacity="0.45"/>
<rect x="204.5980620921495" y="571.6373817933554" width="1.2923076923076922" height="8.362618206644584" fill="#f85149" opacity="0.45"/>
<rect x="206.75744512556852" y="572.4894018030765" width="1.2923076923076922" height="7.5105981969235245" fill="#f85149" opacity="0.45"/>
<rect x="208.91682815898753" y="571.5397404860691" width="1.2923076923076922" height="8.46025951393085" fill="#f85149" opacity="0.45"/>
<rect x="211.07621119240656" y="569.0266289551932" width="1.2923076923076922" height="10.973371044806754" fill="#3fb950" opacity="0.45"/>
<rect x="213.23559422582557" y="567.6000891584157" width="1.2923076923076922" height="12.399910841584301" fill="#f85149" opacity="0.45"/>
<rect x="215.3949772592446" y="571.4175476229084" width="1.2923076923076922" height="8.582452377091613" fill="#f85149" opacity="0.45"/>
<rect x="217.55436029266363" y="573.6002798004837" width="1.2923076923076922" height="6.3997201995163095" fill="#3fb950" opacity="0.45"/>
<rect x="219.71374332608266" y="572.3108511147143" width="1.2923076923076922" height="7.689148885285704" fill="#f85149" opacity="0.45"/>
<rect x="221.8731263595017" y="572.2249689843561" width="1.2923076923076922" height="7.77503101564389" fill="#3fb950" opacity="0.45"/>
<rect x="224.0325093929207" y="573.4031166095756" width="1.2923076923076922" height="6.596883390424409" fill="#f85149" opacity="0.45"/>
<rect x="226.19189242633973" y="571.7847431603584" width="1.2923076923076922" height="8.215256839641597" fill="#3fb950" opacity="0.45"/>
<rect x="228.35127545975874" y="570.2452052550725" width="1.2923076923076922" height="9.754794744927494" fill="#3fb950" opacity="0.45"/>
<rect x="230.51065849317777" y="572.4654746282779" width="1.2923076923076922" height="7.534525371722111" fill="#f85149" opacity="0.45"/>
<rect x="232.6700415265968" y="572.5884925664317" width="1.2923076923076922" height="7.4115074335683175" fill="#3fb950" opacity="0.45"/>
<rect x="234.8294245600158" y="572.9610325085665" width="1.2923076923076922" height="7.038967491433482" fill="#f85149" opacity="0.45"/>
<rect x="236.98880759343484" y="574.8232119016776" width="1.2923076923076922" height="5.17678809832239" fill="#3fb950" opacity="0.45"/>
<rect x="239.14819062685385" y="571.3489772011882" width="1.2923076923076922" height="8.651022798811823" fill="#f85149" opacity="0.45"/>
<rect x="241.30757366027288" y="571.7644879409344" width="1.2923076923076922" height="8.235512059065627" fill="#f85149" opacity="0.45"/>
<rect x="243.46695669369188" y="569.5866021498047" width="1.2923076923076922" height="10.413397850195338" fill="#f85149" opacity="0.45"/>
<rect x="245.62633972711095" y="570.5108942690525" width="1.2923076923076922" height="9.489105730947472" fill="#3fb950" opacity="0.45"/>
<rect x="247.78572276052995" y="569.4858686695713" width="1.2923076923076922" height="10.514131330428654" fill="#f85149" opacity="0.45"/>
<rect x="249.94510579394898" y="572.5923503495073" width="1.2923076923076922" height="7.407649650492658" fill="#3fb950" opacity="0.45"/>
<rect x="252.10448882736802" y="570.5016047422727" width="1.2923076923076922" height="9.498395257727339" fill="#3fb950" opacity="0.45"/>
<rect x="254.26387186078702" y="571.8962397810417" width="1.2923076923076922" height="8.103760218958314" fill="#f85149" opacity="0.45"/>
<rect x="256.4232548942061" y="573.5844844458869" width="1.2923076923076922" height="6.415515554113085" fill="#3fb950" opacity="0.45"/>
<rect x="258.58263792762506" y="570.9775076266119" width="1.2923076923076922" height="9.022492373388104" fill="#f85149" opacity="0.45"/>
<rect x="260.74202096104415" y="570.0790306916061" width="1.2923076923076922" height="9.920969308393865" fill="#3fb950" opacity="0.45"/>
<rect x="262.9014039944631" y="564.8550423571945" width="1.2923076923076922" height="15.14495764280548" fill="#f85149" opacity="0.45"/>
<rect x="265.06078702788216" y="563.6707624178375" width="1.2923076923076922" height="16.329237582162477" fill="#f85149" opacity="0.45"/>
<rect x="267.2201700613012" y="569.5717210674975" width="1.2923076923076922" height="10.428278932502508" fill="#f85149" opacity="0.45"/>
<rect x="269.37955309472017" y="565.3465566267064" width="1.2923076923076922" height="14.653443373293612" fill="#f85149" opacity="0.45"/>
<rect x="271.53893612813926" y="560.3847711786016" width="1.2923076923076922" height="19.615228821398432" fill="#f85149" opacity="0.45"/>
<rect x="273.69831916155823" y="555.0982332399866" width="1.2923076923076922" height="24.901766760013402" fill="#3fb950" opacity="0.45"/>
<rect x="275.8577021949773" y="566.548861853074" width="1.2923076923076922" height="13.451138146926041" fill="#f85149" opacity="0.45"/>
<rect x="278.0170852283963" y="570.9403420863841" width="1.2923076923076922" height="9.059657913615865" fill="#f85149" opacity="0.45"/>
<rect x="280.17646826181533" y="572.223482362747" width="1.2923076923076922" height="7.7765176372530505" fill="#f85149" opacity="0.45"/>
<rect x="282.33585129523436" y="571.1055261882034" width="1.2923076923076922" height="8.894473811796615" fill="#3fb950" opacity="0.45"/>
<rect x="284.49523432865334" y="570.8520739283432" width="1.2923076923076922" height="9.147926071656798" fill="#f85149" opacity="0.45"/>
<rect x="286.65461736207243" y="571.9668543074744" width="1.2923076923076922" height="8.033145692525636" fill="#f85149" opacity="0.45"/>
<rect x="288.8140003954914" y="566.0670384981764" width="1.2923076923076922" height="13.93296150182357" fill="#3fb950" opacity="0.45"/>
<rect x="290.97338342891044" y="551.6703959999174" width="1.2923076923076922" height="28.329604000082554" fill="#f85149" opacity="0.45"/>
<rect x="293.13276646232947" y="563.2104672021169" width="1.2923076923076922" height="16.789532797883112" fill="#f85149" opacity="0.45"/>
<rect x="295.29214949574845" y="563.5769194287625" width="1.2923076923076922" height="16.423080571237506" fill="#3fb950" opacity="0.45"/>
<rect x="297.45153252916754" y="553.8085146630035" width="1.2923076923076922" height="26.191485336996493" fill="#3fb950" opacity="0.45"/>
<rect x="299.6109155625865" y="560.3968499791756" width="1.2923076923076922" height="19.603150020824387" fill="#3fb950" opacity="0.45"/>
<rect x="301.7702985960056" y="550.6580791569172" width="1.2923076923076922" height="29.34192084308279" fill="#3fb950" opacity="0.45"/>
<rect x="303.9296816294246" y="560.95716323848" width="1.2923076923076922" height="19.042836761519993" fill="#f85149" opacity="0.45"/>
<rect x="306.0890646628436" y="565.4394704772758" width="1.2923076923076922" height="14.56052952272421" fill="#f85149" opacity="0.45"/>
<rect x="308.24844769626264" y="569.364712724983" width="1.2923076923076922" height="10.635287275017049" fill="#3fb950" opacity="0.45"/>
<rect x="310.4078307296816" y="572.3774982197277" width="1.2923076923076922" height="7.622501780272273" fill="#3fb950" opacity="0.45"/>
<rect x="312.5672137631007" y="570.9555799578775" width="1.2923076923076922" height="9.04442004212251" fill="#3fb950" opacity="0.45"/>
<rect x="314.7265967965197" y="571.5433566931333" width="1.2923076923076922" height="8.456643306866681" fill="#f85149" opacity="0.45"/>
<rect x="316.8859798299388" y="572.4704473775603" width="1.2923076923076922" height="7.529552622439724" fill="#f85149" opacity="0.45"/>
<rect x="319.04536286335775" y="571.8170771803566" width="1.2923076923076922" height="8.182922819643409" fill="#f85149" opacity="0.45"/>
<rect x="321.2047458967768" y="571.5398222502577" width="1.2923076923076922" height="8.460177749742343" fill="#f85149" opacity="0.45"/>
<rect x="323.3641289301958" y="575.3223451069362" width="1.2923076923076922" height="4.6776548930638455" fill="#f85149" opacity="0.45"/>
<rect x="325.5235119636148" y="573.2629263335594" width="1.2923076923076922" height="6.737073666440551" fill="#3fb950" opacity="0.45"/>
<rect x="327.6828949970338" y="571.3398716438323" width="1.2923076923076922" height="8.660128356167661" fill="#f85149" opacity="0.45"/>
<rect x="329.84227803045286" y="573.9568831589689" width="1.2923076923076922" height="6.043116841031065" fill="#f85149" opacity="0.45"/>
<rect x="332.00166106387184" y="574.9432565966132" width="1.2923076923076922" height="5.056743403386804" fill="#f85149" opacity="0.45"/>
<rect x="334.1610440972909" y="575.7744639038067" width="1.2923076923076922" height="4.225536096193309" fill="#3fb950" opacity="0.45"/>
<rect x="336.32042713070996" y="577.1618089218601" width="1.2923076923076922" height="2.8381910781398574" fill="#f85149" opacity="0.45"/>
<rect x="338.47981016412893" y="576.0255171280451" width="1.2923076923076922" height="3.974482871954933" fill="#3fb950" opacity="0.45"/>
<rect x="340.63919319754797" y="574.7641186927156" width="1.2923076923076922" height="5.235881307284444" fill="#f85149" opacity="0.45"/>
<rect x="342.798576230967" y="569.190774280163" width="1.2923076923076922" height="10.809225719836945" fill="#f85149" opacity="0.45"/>
<rect x="344.95795926438603" y="568.8378131446202" width="1.2923076923076922" height="11.162186855379787" fill="#3fb950" opacity="0.45"/>
<rect x="347.117342297805" y="572.6154245751577" width="1.2923076923076922" height="7.384575424842296" fill="#3fb950" opacity="0.45"/>
<rect x="349.2767253312241" y="572.9501002649085" width="1.2923076923076922" height="7.049899735091458" fill="#3fb950" opacity="0.45"/>
<rect x="351.4361083646431" y="574.5782909915768" width="1.2923076923076922" height="5.4217090084232495" fill="#3fb950" opacity="0.45"/>
<rect x="353.5954913980621" y="573.2579851749862" width="1.2923076923076922" height="6.742014825013825" fill="#3fb950" opacity="0.45"/>
<rect x="355.75487443148114" y="573.5844844458869" width="1.2923076923076922" height="6.415515554113085" fill="#f85149" opacity="0.45"/>
<rect x="357.9142574649002" y="575.0036821901925" width="1.2923076923076922" height="4.996317809807465" fill="#f85149" opacity="0.45"/>
<rect x="360.0736404983192" y="575.652932587262" width="1.2923076923076922" height="4.347067412738056" fill="#3fb950" opacity="0.45"/>
<rect x="362.2330235317382" y="574.3153893931137" width="1.2923076923076922" height="5.684610606886281" fill="#3fb950" opacity="0.45"/>
<rect x="364.3924065651573" y="575.4516811869288" width="1.2923076923076922" height="4.548318813071205" fill="#3fb950" opacity="0.45"/>
<rect x="366.55178959857625" y="576.2752695583756" width="1.2923076923076922" height="3.724730441624388" fill="#3fb950" opacity="0.45"/>
<rect x="368.7111726319953" y="573.3763574206116" width="1.2923076923076922" height="6.623642579388388" fill="#f85149" opacity="0.45"/>
<rect x="370.8705556654143" y="573.0249572377583" width="1.2923076923076922" height="6.975042762241742" fill="#3fb950" opacity="0.45"/>
<rect x="373.02993869883335" y="572.3684279696351" width="1.2923076923076922" height="7.63157203036485" fill="#f85149" opacity="0.45"/>
<rect x="375.1893217322523" y="572.0586531918369" width="1.2923076923076922" height="7.941346808163075" fill="#3fb950" opacity="0.45"/>
<rect x="377.34870476567136" y="573.6047396653111" width="1.2923076923076922" height="6.395260334688942" fill="#3fb950" opacity="0.45"/>
<rect x="379.5080877990904" y="572.0536358439061" width="1.2923076923076922" height="7.946364156093864" fill="#3fb950" opacity="0.45"/>
<rect x="381.6674708325094" y="572.0471690399065" width="1.2923076923076922" height="7.952830960093479" fill="#f85149" opacity="0.45"/>
<rect x="383.8268538659284" y="570.8935135056971" width="1.2923076923076922" height="9.106486494302885" fill="#3fb950" opacity="0.45"/>
<rect x="385.9862368993475" y="572.811627036851" width="1.2923076923076922" height="7.18837296314905" fill="#f85149" opacity="0.45"/>
<rect x="388.1456199327665" y="558.575552680315" width="1.2923076923076922" height="21.424447319684987" fill="#3fb950" opacity="0.45"/>
<rect x="390.3050029661855" y="566.1471023632121" width="1.2923076923076922" height="13.85289763678793" fill="#f85149" opacity="0.45"/>
<rect x="392.46438599960453" y="571.618055712437" width="1.2923076923076922" height="8.381944287562987" fill="#f85149" opacity="0.45"/>
<rect x="394.62376903302356" y="574.1480998634406" width="1.2923076923076922" height="5.8519001365593795" fill="#3fb950" opacity="0.45"/>
<rect x="396.7831520664426" y="570.649521734102" width="1.2923076923076922" height="9.350478265898005" fill="#3fb950" opacity="0.45"/>
<rect x="398.9425350998616" y="574.4805456207778" width="1.2923076923076922" height="5.519454379222225" fill="#f85149" opacity="0.45"/>
<rect x="401.1019181332806" y="573.1784509188988" width="1.2923076923076922" height="6.821549081101239" fill="#3fb950" opacity="0.45"/>
<rect x="403.26130116669964" y="576.1394295088431" width="1.2923076923076922" height="3.8605704911568637" fill="#f85149" opacity="0.45"/>
<rect x="405.42068420011867" y="572.6559034232968" width="1.2923076923076922" height="7.344096576703237" fill="#f85149" opacity="0.45"/>
<rect x="407.58006723353765" y="571.8728254906982" width="1.2923076923076922" height="8.127174509301767" fill="#3fb950" opacity="0.45"/>
<rect x="409.73945026695674" y="575.4658040922153" width="1.2923076923076922" height="4.534195907784692" fill="#3fb950" opacity="0.45"/>
<rect x="411.89883330037577" y="576.7970179948627" width="1.2923076923076922" height="3.202982005137301" fill="#f85149" opacity="0.45"/>
<rect x="414.05821633379475" y="576.3737582399791" width="1.2923076923076922" height="3.626241760020889" fill="#f85149" opacity="0.45"/>
<rect x="416.2175993672138" y="572.8430319183434" width="1.2923076923076922" height="7.156968081656601" fill="#f85149" opacity="0.45"/>
<rect x="418.3769824006328" y="574.7280774100797" width="1.2923076923076922" height="5.271922589920337" fill="#f85149" opacity="0.45"/>
<rect x="420.53636543405185" y="567.7106566405932" width="1.2923076923076922" height="12.289343359406757" fill="#3fb950" opacity="0.45"/>
<rect x="422.6957484674708" y="573.2018652092423" width="1.2923076923076922" height="6.798134790757672" fill="#3fb950" opacity="0.45"/>
<rect x="424.8551315008899" y="573.2717364248705" width="1.2923076923076922" height="6.7282635751295174" fill="#f85149" opacity="0.45"/>
<rect x="427.0145145343089" y="571.9819156426516" width="1.2923076923076922" height="8.018084357348357" fill="#3fb950" opacity="0.45"/>
<rect x="429.1738975677279" y="570.6944920377776" width="1.2923076923076922" height="9.30550796222235" fill="#3fb950" opacity="0.45"/>
<rect x="431.33328060114695" y="564.2152375821739" width="1.2923076923076922" height="15.784762417826073" fill="#3fb950" opacity="0.45"/>
<rect x="433.492663634566" y="561.7699605953218" width="1.2923076923076922" height="18.230039404678223" fill="#3fb950" opacity="0.45"/>
<rect x="435.65204666798496" y="554.762925736052" width="1.2923076923076922" height="25.23707426394799" fill="#3fb950" opacity="0.45"/>
<rect x="437.811429701404" y="545.897290525195" width="1.2923076923076922" height="34.10270947480501" fill="#f85149" opacity="0.45"/>
<rect x="439.9708127348231" y="553.3660589065922" width="1.2923076923076922" height="26.63394109340777" fill="#3fb950" opacity="0.45"/>
<rect x="442.13019576824206" y="552.122499930572" width="1.2923076923076922" height="27.877500069428038" fill="#3fb950" opacity="0.45"/>
<rect x="444.2895788016611" y="564.9425672044308" width="1.2923076923076922" height="15.057432795569184" fill="#f85149" opacity="0.45"/>
<rect x="446.4489618350801" y="566.0846642556294" width="1.2923076923076922" height="13.915335744370623" fill="#f85149" opacity="0.45"/>
<rect x="448.60834486849916" y="570.6166302310005" width="1.2923076923076922" height="9.3833697689995" fill="#f85149" opacity="0.45"/>
<rect x="450.76772790191814" y="571.259036593837" width="1.2923076923076922" height="8.740963406163019" fill="#3fb950" opacity="0.45"/>
<rect x="452.92711093533717" y="553.9791044926488" width="1.2923076923076922" height="26.020895507351156" fill="#3fb950" opacity="0.45"/>
<rect x="455.0864939687562" y="559.2248346680936" width="1.2923076923076922" height="20.77516533190635" fill="#3fb950" opacity="0.45"/>
<rect x="457.24587700217523" y="558.438969319978" width="1.2923076923076922" height="21.561030680021986" fill="#3fb950" opacity="0.45"/>
<rect x="459.4052600355942" y="557.1810254216126" width="1.2923076923076922" height="22.818974578387383" fill="#3fb950" opacity="0.45"/>
<rect x="461.5646430690133" y="567.1913778542541" width="1.2923076923076922" height="12.808622145745858" fill="#3fb950" opacity="0.45"/>
<rect x="463.72402610243233" y="567.4319150888851" width="1.2923076923076922" height="12.568084911114852" fill="#3fb950" opacity="0.45"/>
<rect x="465.8834091358513" y="566.3377615845803" width="1.2923076923076922" height="13.662238415419665" fill="#3fb950" opacity="0.45"/>
<rect x="468.04279216927034" y="571.031211832241" width="1.2923076923076922" height="8.968788167759044" fill="#f85149" opacity="0.45"/>
<rect x="470.2021752026894" y="568.976329113049" width="1.2923076923076922" height="11.023670886950981" fill="#f85149" opacity="0.45"/>
<rect x="472.3615582361084" y="573.1884856147603" width="1.2923076923076922" height="6.811514385239661" fill="#f85149" opacity="0.45"/>
<rect x="474.5209412695274" y="571.0471930145388" width="1.2923076923076922" height="8.952806985461166" fill="#3fb950" opacity="0.45"/>
<rect x="476.6803243029464" y="568.2393364503329" width="1.2923076923076922" height="11.760663549667129" fill="#f85149" opacity="0.45"/>
<rect x="478.83970733636545" y="570.8494723405273" width="1.2923076923076922" height="9.150527659472687" fill="#3fb950" opacity="0.45"/>
<rect x="480.9990903697845" y="568.5256969377876" width="1.2923076923076922" height="11.474303062212357" fill="#f85149" opacity="0.45"/>
<rect x="483.15847340320346" y="569.5774817262328" width="1.2923076923076922" height="10.422518273767196" fill="#f85149" opacity="0.45"/>
<rect x="485.31785643662255" y="566.6425208727248" width="1.2923076923076922" height="13.357479127275155" fill="#f85149" opacity="0.45"/>
<rect x="487.4772394700416" y="570.5538223262926" width="1.2923076923076922" height="9.446177673707439" fill="#3fb950" opacity="0.45"/>
<rect x="489.63662250346056" y="567.3958645148642" width="1.2923076923076922" height="12.604135485135771" fill="#3fb950" opacity="0.45"/>
<rect x="491.7960055368796" y="567.9672846958658" width="1.2923076923076922" height="12.032715304134172" fill="#3fb950" opacity="0.45"/>
<rect x="493.9553885702986" y="567.8972276525365" width="1.2923076923076922" height="12.102772347463542" fill="#f85149" opacity="0.45"/>
<rect x="496.11477160371766" y="572.4058629600296" width="1.2923076923076922" height="7.594137039970406" fill="#f85149" opacity="0.45"/>
<rect x="498.27415463713663" y="570.1438845593036" width="1.2923076923076922" height="9.856115440696385" fill="#f85149" opacity="0.45"/>
<rect x="500.43353767055567" y="569.4868442650023" width="1.2923076923076922" height="10.513155734997667" fill="#3fb950" opacity="0.45"/>
<rect x="502.5929207039747" y="554.5836484613784" width="1.2923076923076922" height="25.416351538621598" fill="#3fb950" opacity="0.45"/>
<rect x="504.75230373739373" y="547.9046682508679" width="1.2923076923076922" height="32.09533174913213" fill="#f85149" opacity="0.45"/>
<rect x="506.91168677081276" y="566.0022032132491" width="1.2923076923076922" height="13.997796786750882" fill="#f85149" opacity="0.45"/>
<rect x="509.07106980423174" y="562.7646665470851" width="1.2923076923076922" height="17.235333452914915" fill="#f85149" opacity="0.45"/>
<rect x="511.2304528376508" y="568.7159845037537" width="1.2923076923076922" height="11.284015496246298" fill="#f85149" opacity="0.45"/>
<rect x="513.3898358710697" y="572.2507990348143" width="1.2923076923076922" height="7.749200965185651" fill="#3fb950" opacity="0.45"/>
<rect x="515.5492189044888" y="573.0202743796896" width="1.2923076923076922" height="6.9797256203104325" fill="#3fb950" opacity="0.45"/>
<rect x="517.7086019379079" y="570.1041174312599" width="1.2923076923076922" height="9.895882568740149" fill="#3fb950" opacity="0.45"/>
<rect x="519.8679849713268" y="557.7870876026604" width="1.2923076923076922" height="22.21291239733955" fill="#3fb950" opacity="0.45"/>
<rect x="522.0273680047459" y="566.0569759281598" width="1.2923076923076922" height="13.943024071840227" fill="#f85149" opacity="0.45"/>
<rect x="524.186751038165" y="570.649521734102" width="1.2923076923076922" height="9.350478265898005" fill="#f85149" opacity="0.45"/>
<rect x="526.346134071584" y="571.3432165424529" width="1.2923076923076922" height="8.656783457547135" fill="#3fb950" opacity="0.45"/>
<rect x="528.5055171050029" y="568.0960632927549" width="1.2923076923076922" height="11.903936707245066" fill="#f85149" opacity="0.45"/>
<rect x="530.664900138422" y="570.354804574927" width="1.2923076923076922" height="9.645195425072984" fill="#3fb950" opacity="0.45"/>
<rect x="532.824283171841" y="569.4033611702657" width="1.2923076923076922" height="10.596638829734275" fill="#f85149" opacity="0.45"/>
<rect x="534.98366620526" y="568.6539180515733" width="1.2923076923076922" height="11.346081948426672" fill="#3fb950" opacity="0.45"/>
<rect x="537.143049238679" y="568.7772314557719" width="1.2923076923076922" height="11.222768544228074" fill="#f85149" opacity="0.45"/>
<rect x="539.302432272098" y="570.4170512799775" width="1.2923076923076922" height="9.5829487200225" fill="#3fb950" opacity="0.45"/>
<rect x="541.461815305517" y="571.3266778770515" width="1.2923076923076922" height="8.673322122948548" fill="#f85149" opacity="0.45"/>
<rect x="543.6211983389361" y="553.577841162749" width="1.2923076923076922" height="26.422158837251004" fill="#f85149" opacity="0.45"/>
<rect x="545.7805813723552" y="565.8313810989773" width="1.2923076923076922" height="14.168618901022683" fill="#3fb950" opacity="0.45"/>
<rect x="547.939964405774" y="558.1174873970081" width="1.2923076923076922" height="21.882512602991937" fill="#3fb950" opacity="0.45"/>
<rect x="550.0993474391931" y="557.2204599180712" width="1.2923076923076922" height="22.779540081928758" fill="#3fb950" opacity="0.45"/>
<rect x="552.2587304726122" y="564.4185330872197" width="1.2923076923076922" height="15.581466912780343" fill="#f85149" opacity="0.45"/>
<rect x="554.4181135060313" y="563.5336215743971" width="1.2923076923076922" height="16.466378425602898" fill="#f85149" opacity="0.45"/>
<rect x="556.5774965394502" y="565.6507565734705" width="1.2923076923076922" height="14.349243426529483" fill="#3fb950" opacity="0.45"/>
<rect x="558.7368795728693" y="570.4129630705525" width="1.2923076923076922" height="9.58703692944755" fill="#f85149" opacity="0.45"/>
<rect x="560.8962626062884" y="569.7714858462216" width="1.2923076923076922" height="10.228514153778406" fill="#f85149" opacity="0.45"/>
<rect x="563.0556456397073" y="570.9057484015401" width="1.2923076923076922" height="9.094251598459891" fill="#f85149" opacity="0.45"/>
<rect x="565.2150286731263" y="568.7099618279598" width="1.2923076923076922" height="11.290038172040227" fill="#3fb950" opacity="0.45"/>
<rect x="567.3744117065454" y="563.3834950912012" width="1.2923076923076922" height="16.616504908798788" fill="#3fb950" opacity="0.45"/>
<rect x="569.5337947399644" y="565.7695004744982" width="1.2923076923076922" height="14.230499525501841" fill="#3fb950" opacity="0.45"/>
<rect x="571.6931777733834" y="538.6084275161012" width="1.2923076923076922" height="41.39157248389881" fill="#3fb950" opacity="0.45"/>
<rect x="573.8525608068024" y="515.8003257165075" width="1.2923076923076922" height="64.19967428349253" fill="#3fb950" opacity="0.45"/>
<rect x="576.0119438402214" y="531.3139246362779" width="1.2923076923076922" height="48.686075363722125" fill="#3fb950" opacity="0.45"/>
<rect x="578.1713268736404" y="501.85313352933065" width="1.2923076923076922" height="78.14686647066935" fill="#f85149" opacity="0.45"/>
<rect x="580.3307099070595" y="532.9891353461652" width="1.2923076923076922" height="47.0108646538348" fill="#3fb950" opacity="0.45"/>
<rect x="582.4900929404786" y="547.617478971866" width="1.2923076923076922" height="32.382521028133965" fill="#f85149" opacity="0.45"/>
<rect x="584.6494759738974" y="549.9926097180924" width="1.2923076923076922" height="30.007390281907647" fill="#f85149" opacity="0.45"/>
<rect x="586.8088590073165" y="545.5580824978134" width="1.2923076923076922" height="34.441917502186584" fill="#f85149" opacity="0.45"/>
<rect x="588.9682420407356" y="535.3149715781105" width="1.2923076923076922" height="44.685028421889456" fill="#3fb950" opacity="0.45"/>
<rect x="591.1276250741547" y="524.868756555894" width="1.2923076923076922" height="55.13124344410596" fill="#3fb950" opacity="0.45"/>
<rect x="593.2870081075737" y="531.6039161970128" width="1.2923076923076922" height="48.396083802987164" fill="#3fb950" opacity="0.45"/>
<rect x="595.4463911409927" y="551.5829417672076" width="1.2923076923076922" height="28.417058232792442" fill="#3fb950" opacity="0.45"/>
<rect x="597.6057741744116" y="559.494307134069" width="1.2923076923076922" height="20.505692865930996" fill="#f85149" opacity="0.45"/>
<rect x="599.7651572078307" y="559.7582326431652" width="1.2923076923076922" height="20.24176735683477" fill="#3fb950" opacity="0.45"/>
<rect x="601.9245402412497" y="556.2503501208306" width="1.2923076923076922" height="23.749649879169397" fill="#3fb950" opacity="0.45"/>
<rect x="604.0839232746687" y="564.1340308767764" width="1.2923076923076922" height="15.865969123223636" fill="#f85149" opacity="0.45"/>
<rect x="606.2433063080878" y="557.586932585764" width="1.2923076923076922" height="22.413067414236025" fill="#3fb950" opacity="0.45"/>
<rect x="608.4026893415067" y="561.2490855490299" width="1.2923076923076922" height="18.750914450970072" fill="#f85149" opacity="0.45"/>
<rect x="610.5620723749258" y="554.3387164016154" width="1.2923076923076922" height="25.661283598384557" fill="#3fb950" opacity="0.45"/>
<rect x="612.7214554083448" y="559.7631310613673" width="1.2923076923076922" height="20.23686893863271" fill="#f85149" opacity="0.45"/>
<rect x="614.8808384417638" y="563.2931530960155" width="1.2923076923076922" height="16.706846903984456" fill="#f85149" opacity="0.45"/>
<rect x="617.0402214751829" y="564.773835651797" width="1.2923076923076922" height="15.226164348203042" fill="#f85149" opacity="0.45"/>
<rect x="619.199604508602" y="565.672870069906" width="1.2923076923076922" height="14.327129930093975" fill="#f85149" opacity="0.45"/>
<rect x="621.3589875420209" y="559.7994009120755" width="1.2923076923076922" height="20.200599087924502" fill="#3fb950" opacity="0.45"/>
<rect x="623.5183705754399" y="569.7633094273715" width="1.2923076923076922" height="10.236690572628504" fill="#3fb950" opacity="0.45"/>
<rect x="625.677753608859" y="564.1474011798732" width="1.2923076923076922" height="15.852598820126786" fill="#3fb950" opacity="0.45"/>
<rect x="627.837136642278" y="568.2701838487219" width="1.2923076923076922" height="11.7298161512781" fill="#f85149" opacity="0.45"/>
<rect x="629.9965196756971" y="553.9904567069113" width="1.2923076923076922" height="26.009543293088655" fill="#3fb950" opacity="0.45"/>
<rect x="632.155902709116" y="553.0459948489819" width="1.2923076923076922" height="26.954005151018123" fill="#3fb950" opacity="0.45"/>
<rect x="634.315285742535" y="544.330500987537" width="1.2923076923076922" height="35.66949901246301" fill="#3fb950" opacity="0.45"/>
<rect x="636.4746687759541" y="558.5206443111825" width="1.2923076923076922" height="21.479355688817463" fill="#f85149" opacity="0.45"/>
<rect x="638.6340518093731" y="554.147869494269" width="1.2923076923076922" height="25.852130505730997" fill="#3fb950" opacity="0.45"/>
<rect x="640.7934348427922" y="531.6885086831253" width="1.2923076923076922" height="48.31149131687471" fill="#3fb950" opacity="0.45"/>
<rect x="642.9528178762112" y="532.531670286333" width="1.2923076923076922" height="47.468329713667" fill="#3fb950" opacity="0.45"/>
<rect x="645.1122009096301" y="547.1723045561871" width="1.2923076923076922" height="32.8276954438129" fill="#3fb950" opacity="0.45"/>
<rect x="647.2715839430492" y="546.3700454882769" width="1.2923076923076922" height="33.6299545117231" fill="#3fb950" opacity="0.45"/>
<rect x="649.4309669764683" y="558.8971163674735" width="1.2923076923076922" height="21.102883632526527" fill="#3fb950" opacity="0.45"/>
<rect x="651.5903500098872" y="562.4769922577833" width="1.2923076923076922" height="17.52300774221669" fill="#3fb950" opacity="0.45"/>
<rect x="653.7497330433063" y="492.1332074942448" width="1.2923076923076922" height="87.8667925057552" fill="#f85149" opacity="0.45"/>
<rect x="655.9091160767254" y="471.6666666666667" width="1.2923076923076922" height="108.33333333333331" fill="#3fb950" opacity="0.45"/>
<rect x="658.0684991101443" y="497.45275029085894" width="1.2923076923076922" height="82.54724970914106" fill="#f85149" opacity="0.45"/>
<rect x="660.2278821435633" y="490.41087273762565" width="1.2923076923076922" height="89.58912726237435" fill="#3fb950" opacity="0.45"/>
<rect x="662.3872651769824" y="507.3308881724173" width="1.2923076923076922" height="72.6691118275827" fill="#f85149" opacity="0.45"/>
<rect x="664.5466482104014" y="515.5627004019533" width="1.2923076923076922" height="64.4372995980467" fill="#f85149" opacity="0.45"/>
<rect x="666.7060312438205" y="523.3658917474278" width="1.2923076923076922" height="56.63410825257222" fill="#f85149" opacity="0.45"/>
<rect x="668.8654142772394" y="538.5266020044588" width="1.2923076923076922" height="41.47339799554118" fill="#f85149" opacity="0.45"/>
<rect x="671.0247973106584" y="523.2872996377852" width="1.2923076923076922" height="56.71270036221483" fill="#3fb950" opacity="0.45"/>
<rect x="673.1841803440775" y="526.1735160270074" width="1.2923076923076922" height="53.826483972992605" fill="#f85149" opacity="0.45"/>
<rect x="675.3435633774965" y="540.7312618507685" width="1.2923076923076922" height="39.26873814923147" fill="#3fb950" opacity="0.45"/>
<rect x="677.5029464109156" y="528.2560350419127" width="1.2923076923076922" height="51.743964958087304" fill="#3fb950" opacity="0.45"/>
<rect x="679.6623294443345" y="528.5485835918154" width="1.2923076923076922" height="51.45141640818463" fill="#f85149" opacity="0.45"/>
<rect x="681.8217124777535" y="537.3400921326881" width="1.2923076923076922" height="42.65990786731186" fill="#3fb950" opacity="0.45"/>
<rect x="683.9810955111726" y="547.4024726050944" width="1.2923076923076922" height="32.59752739490557" fill="#3fb950" opacity="0.45"/>
<rect x="686.1404785445917" y="549.9530692998441" width="1.2923076923076922" height="30.04693070015594" fill="#f85149" opacity="0.45"/>
<rect x="688.2998615780106" y="551.7080595583843" width="1.2923076923076922" height="28.29194044161568" fill="#f85149" opacity="0.45"/>
<rect x="690.4592446114297" y="544.908852541791" width="1.2923076923076922" height="35.09114745820898" fill="#f85149" opacity="0.45"/>
<rect x="692.6186276448487" y="558.9618884709824" width="1.2923076923076922" height="21.038111529017556" fill="#f85149" opacity="0.45"/>
<rect x="694.7780106782677" y="558.8873065231304" width="1.2923076923076922" height="21.112693476869595" fill="#f85149" opacity="0.45"/>
<rect x="696.9373937116868" y="557.6242969616319" width="1.2923076923076922" height="22.3757030383681" fill="#3fb950" opacity="0.45"/>
<rect x="699.0967767451058" y="543.1705737684142" width="1.2923076923076922" height="36.829426231585785" fill="#3fb950" opacity="0.45"/>
<rect x="701.2561597785248" y="560.2253310110245" width="1.2923076923076922" height="19.774668988975463" fill="#f85149" opacity="0.45"/>
<rect x="703.4155428119439" y="561.2353045667135" width="1.2923076923076922" height="18.764695433286533" fill="#f85149" opacity="0.45"/>
<rect x="705.5749258453628" y="550.6089333047971" width="1.2923076923076922" height="29.39106669520288" fill="#f85149" opacity="0.45"/>
<rect x="707.7343088787818" y="562.0806347791935" width="1.2923076923076922" height="17.919365220806526" fill="#f85149" opacity="0.45"/>
<rect x="709.8936919122009" y="558.6529777919944" width="1.2923076923076922" height="21.34702220800557" fill="#f85149" opacity="0.45"/>
<rect x="712.0530749456199" y="548.7166386744394" width="1.2923076923076922" height="31.283361325560577" fill="#3fb950" opacity="0.45"/>
<rect x="714.212457979039" y="562.7572334390395" width="1.2923076923076922" height="17.24276656096049" fill="#f85149" opacity="0.45"/>
<rect x="716.371841012458" y="568.3731323951528" width="1.2923076923076922" height="11.626867604847234" fill="#3fb950" opacity="0.45"/>
<rect x="718.5312240458769" y="567.5383850702526" width="1.2923076923076922" height="12.461614929747384" fill="#3fb950" opacity="0.45"/>
<rect x="720.690607079296" y="550.9991696189113" width="1.2923076923076922" height="29.00083038108869" fill="#3fb950" opacity="0.45"/>
<rect x="722.849990112715" y="523.1866274806933" width="1.2923076923076922" height="56.813372519306654" fill="#3fb950" opacity="0.45"/>
<rect x="725.0093731461341" y="545.2993787471191" width="1.2923076923076922" height="34.700621252880865" fill="#f85149" opacity="0.45"/>
<rect x="727.168756179553" y="524.6573626796327" width="1.2923076923076922" height="55.34263732036732" fill="#3fb950" opacity="0.45"/>
<rect x="729.328139212972" y="519.7561050303427" width="1.2923076923076922" height="60.243894969657276" fill="#f85149" opacity="0.45"/>
<rect x="731.4875222463911" y="538.2671289270818" width="1.2923076923076922" height="41.732871072918215" fill="#f85149" opacity="0.45"/>
<rect x="733.6469052798102" y="550.0987637923679" width="1.2923076923076922" height="29.90123620763211" fill="#f85149" opacity="0.45"/>
<rect x="735.8062883132291" y="542.1314735788487" width="1.2923076923076922" height="37.86852642115127" fill="#3fb950" opacity="0.45"/>
<rect x="737.9656713466482" y="534.718923651877" width="1.2923076923076922" height="45.28107634812295" fill="#3fb950" opacity="0.45"/>
<rect x="740.1250543800672" y="547.3081947791987" width="1.2923076923076922" height="32.69180522080126" fill="#f85149" opacity="0.45"/>
<rect x="742.2844374134862" y="549.039863661246" width="1.2923076923076922" height="30.960136338753955" fill="#f85149" opacity="0.45"/>
<rect x="744.4438204469053" y="551.8898436487463" width="1.2923076923076922" height="28.11015635125375" fill="#3fb950" opacity="0.45"/>
<rect x="746.6032034803243" y="552.5640414146936" width="1.2923076923076922" height="27.435958585306366" fill="#f85149" opacity="0.45"/>
<rect x="748.7625865137433" y="553.4459611015278" width="1.2923076923076922" height="26.554038898472186" fill="#f85149" opacity="0.45"/>
<rect x="750.9219695471623" y="558.3292046134694" width="1.2923076923076922" height="21.670795386530585" fill="#3fb950" opacity="0.45"/>
<rect x="753.0813525805813" y="554.614265433418" width="1.2923076923076922" height="25.38573456658196" fill="#3fb950" opacity="0.45"/>
<rect x="755.2407356140003" y="556.4300232085076" width="1.2923076923076922" height="23.569976791492422" fill="#3fb950" opacity="0.45"/>
<rect x="757.4001186474194" y="555.1080430843298" width="1.2923076923076922" height="24.89195691567022" fill="#3fb950" opacity="0.45"/>
<rect x="759.5595016808384" y="555.8234165522954" width="1.2923076923076922" height="24.176583447704616" fill="#f85149" opacity="0.45"/>
<rect x="761.7188847142575" y="552.8148753622446" width="1.2923076923076922" height="27.185124637755393" fill="#f85149" opacity="0.45"/>
<rect x="763.8782677476764" y="557.5070433987673" width="1.2923076923076922" height="22.492956601232663" fill="#3fb950" opacity="0.45"/>
<rect x="766.0376507810954" y="561.9635800519692" width="1.2923076923076922" height="18.03641994803081" fill="#3fb950" opacity="0.45"/>
<rect x="768.1970338145145" y="563.8171946463348" width="1.2923076923076922" height="16.18280535366523" fill="#f85149" opacity="0.45"/>
<rect x="770.3564168479336" y="561.2539226440906" width="1.2923076923076922" height="18.746077355909392" fill="#f85149" opacity="0.45"/>
<rect x="772.5157998813526" y="558.2300246528176" width="1.2923076923076922" height="21.769975347182367" fill="#3fb950" opacity="0.45"/>
<rect x="774.6751829147715" y="555.3021977247565" width="1.2923076923076922" height="24.697802275243475" fill="#3fb950" opacity="0.45"/>
<rect x="776.8345659481906" y="565.2140614757946" width="1.2923076923076922" height="14.785938524205449" fill="#f85149" opacity="0.45"/>
<rect x="778.9939489816096" y="567.0751259026988" width="1.2923076923076922" height="12.924874097301199" fill="#f85149" opacity="0.45"/>
<rect x="781.1533320150287" y="563.0357891630465" width="1.2923076923076922" height="16.964210836953498" fill="#3fb950" opacity="0.45"/>
<rect x="783.3127150484477" y="568.2616878062258" width="1.2923076923076922" height="11.738312193774163" fill="#f85149" opacity="0.45"/>
<rect x="785.4720980818666" y="569.3466837214185" width="1.2923076923076922" height="10.653316278581542" fill="#f85149" opacity="0.45"/>
<rect x="787.6314811152857" y="557.6490752273018" width="1.2923076923076922" height="22.35092477269825" fill="#3fb950" opacity="0.45"/>
<rect x="789.7908641487047" y="560.6087530233381" width="1.2923076923076922" height="19.391246976661932" fill="#f85149" opacity="0.45"/>
<rect x="791.9502471821237" y="567.7115857790989" width="1.2923076923076922" height="12.288414220901132" fill="#f85149" opacity="0.45"/>
<rect x="794.1096302155428" y="563.4630070479644" width="1.2923076923076922" height="16.536992952035575" fill="#3fb950" opacity="0.45"/>
<rect x="796.2690132489618" y="568.9762677899076" width="1.2923076923076922" height="11.023732210092362" fill="#f85149" opacity="0.45"/>
<rect x="798.4283962823808" y="569.9035573099749" width="1.2923076923076922" height="10.096442690025128" fill="#3fb950" opacity="0.45"/>
<rect x="800.5877793157999" y="561.5598414970901" width="1.2923076923076922" height="18.440158502909867" fill="#3fb950" opacity="0.45"/>
<rect x="802.7471623492188" y="559.9373631139549" width="1.2923076923076922" height="20.062636886045084" fill="#3fb950" opacity="0.45"/>
<rect x="804.9065453826379" y="557.8713195830326" width="1.2923076923076922" height="22.128680416967427" fill="#f85149" opacity="0.45"/>
<rect x="807.065928416057" y="567.3216579389685" width="1.2923076923076922" height="12.678342061031458" fill="#3fb950" opacity="0.45"/>
<rect x="809.225311449476" y="565.7517149052222" width="1.2923076923076922" height="14.24828509477777" fill="#f85149" opacity="0.45"/>
<rect x="811.3846944828949" y="563.3825436533714" width="1.2923076923076922" height="16.617456346628614" fill="#f85149" opacity="0.45"/>
<rect x="813.544077516314" y="570.5433081949622" width="1.2923076923076922" height="9.456691805037849" fill="#f85149" opacity="0.45"/>
<rect x="815.703460549733" y="571.4595446833657" width="1.2923076923076922" height="8.54045531663428" fill="#3fb950" opacity="0.45"/>
<rect x="817.8628435831521" y="571.6161584116084" width="1.2923076923076922" height="8.383841588391647" fill="#3fb950" opacity="0.45"/>
<rect x="820.0222266165711" y="567.348829665429" width="1.2923076923076922" height="12.65117033457102" fill="#3fb950" opacity="0.45"/>
<rect x="822.18160964999" y="572.1845254434802" width="1.2923076923076922" height="7.815474556519803" fill="#3fb950" opacity="0.45"/>
<rect x="824.3409926834091" y="564.1505045024822" width="1.2923076923076922" height="15.84949549751775" fill="#3fb950" opacity="0.45"/>
<rect x="826.5003757168281" y="559.7135931127978" width="1.2923076923076922" height="20.286406887202247" fill="#3fb950" opacity="0.45"/>
<rect x="828.6597587502472" y="524.2315199197033" width="1.2923076923076922" height="55.76848008029674" fill="#f85149" opacity="0.45"/>
<rect x="830.8191417836662" y="553.562023508828" width="1.2923076923076922" height="26.43797649117198" fill="#f85149" opacity="0.45"/>
<rect x="832.9785248170851" y="561.5652490831933" width="1.2923076923076922" height="18.434750916806706" fill="#f85149" opacity="0.45"/>
<rect x="835.1379078505042" y="565.7056909584811" width="1.2923076923076922" height="14.294309041518886" fill="#f85149" opacity="0.45"/>
<rect x="837.2972908839233" y="560.3975040926836" width="1.2923076923076922" height="19.602495907316438" fill="#f85149" opacity="0.45"/>
<rect x="839.4566739173422" y="563.7207240535656" width="1.2923076923076922" height="16.27927594643438" fill="#f85149" opacity="0.45"/>
<rect x="841.6160569507613" y="554.3077147662345" width="1.2923076923076922" height="25.69228523376546" fill="#3fb950" opacity="0.45"/>
<rect x="843.7754399841804" y="566.0487827848166" width="1.2923076923076922" height="13.95121721518342" fill="#3fb950" opacity="0.45"/>
<rect x="845.9348230175993" y="566.3871917530832" width="1.2923076923076922" height="13.612808246916757" fill="#3fb950" opacity="0.45"/>
<rect x="848.0942060510184" y="558.3306317702142" width="1.2923076923076922" height="21.669368229785846" fill="#3fb950" opacity="0.45"/>
<rect x="850.2535890844373" y="550.3961605869932" width="1.2923076923076922" height="29.603839413006767" fill="#3fb950" opacity="0.45"/>
<rect x="852.4129721178564" y="548.6507200140145" width="1.2923076923076922" height="31.349279985985504" fill="#3fb950" opacity="0.45"/>
<rect x="854.5723551512755" y="561.4613453823786" width="1.2923076923076922" height="18.538654617621432" fill="#f85149" opacity="0.45"/>
<rect x="856.7317381846944" y="562.7889467945159" width="1.2923076923076922" height="17.211053205484063" fill="#3fb950" opacity="0.45"/>
<rect x="858.8911212181134" y="566.4840247098697" width="1.2923076923076922" height="13.515975290130314" fill="#f85149" opacity="0.45"/>
<rect x="861.0505042515325" y="566.5517607652117" width="1.2923076923076922" height="13.448239234788275" fill="#f85149" opacity="0.45"/>
<rect x="863.2098872849515" y="568.2367627366721" width="1.2923076923076922" height="11.763237263327937" fill="#3fb950" opacity="0.45"/>
<rect x="865.3692703183706" y="566.6727048662208" width="1.2923076923076922" height="13.327295133779216" fill="#3fb950" opacity="0.45"/>
<rect x="867.5286533517896" y="562.26609082493" width="1.2923076923076922" height="17.73390917507004" fill="#3fb950" opacity="0.45"/>
<rect x="869.6880363852085" y="561.8547927991685" width="1.2923076923076922" height="18.145207200831464" fill="#3fb950" opacity="0.45"/>
<rect x="871.8474194186276" y="563.1749295125511" width="1.2923076923076922" height="16.825070487448897" fill="#3fb950" opacity="0.45"/>
<rect x="874.0068024520466" y="555.7239244011057" width="1.2923076923076922" height="24.276075598894295" fill="#3fb950" opacity="0.45"/>
<rect x="876.1661854854657" y="548.6983420789853" width="1.2923076923076922" height="31.30165792101468" fill="#f85149" opacity="0.45"/>
<rect x="878.3255685188847" y="564.7225286235125" width="1.2923076923076922" height="15.277471376487483" fill="#3fb950" opacity="0.45"/>
<rect x="880.4849515523036" y="566.6997855371078" width="1.2923076923076922" height="13.3002144628922" fill="#f85149" opacity="0.45"/>
<rect x="882.6443345857227" y="568.9614628969579" width="1.2923076923076922" height="11.038537103042131" fill="#f85149" opacity="0.45"/>
<rect x="884.8037176191418" y="562.0843197425071" width="1.2923076923076922" height="17.91568025749291" fill="#3fb950" opacity="0.45"/>
<rect x="886.9631006525607" y="565.9105436996624" width="1.2923076923076922" height="14.089456300337588" fill="#f85149" opacity="0.45"/>
<rect x="889.1224836859798" y="564.8413226980194" width="1.2923076923076922" height="15.15867730198056" fill="#f85149" opacity="0.45"/>
<rect x="891.2818667193989" y="554.6063770475047" width="1.2923076923076922" height="25.39362295249532" fill="#3fb950" opacity="0.45"/>
<rect x="893.4412497528178" y="560.7597714794995" width="1.2923076923076922" height="19.240228520500523" fill="#3fb950" opacity="0.45"/>
<rect x="895.6006327862369" y="559.2177732154504" width="1.2923076923076922" height="20.782226784549607" fill="#3fb950" opacity="0.45"/>
<rect x="897.7600158196559" y="546.015605164233" width="1.2923076923076922" height="33.984394835767034" fill="#3fb950" opacity="0.45"/>
<rect x="899.9193988530749" y="542.4992897808207" width="1.2923076923076922" height="37.50071021917927" fill="#f85149" opacity="0.45"/>
<rect x="902.078781886494" y="545.9398302025397" width="1.2923076923076922" height="34.060169797460276" fill="#3fb950" opacity="0.45"/>
<rect x="904.238164919913" y="505.9872572627798" width="1.2923076923076922" height="74.01274273722021" fill="#f85149" opacity="0.45"/>
<rect x="906.3975479533319" y="525.1621747794381" width="1.2923076923076922" height="54.837825220561854" fill="#f85149" opacity="0.45"/>
<rect x="908.556930986751" y="527.5401654139849" width="1.2923076923076922" height="52.45983458601506" fill="#3fb950" opacity="0.45"/>
<rect x="910.71631402017" y="526.398005181368" width="1.2923076923076922" height="53.601994818631965" fill="#3fb950" opacity="0.45"/>
<rect x="912.8756970535891" y="542.0753814872601" width="1.2923076923076922" height="37.924618512739926" fill="#3fb950" opacity="0.45"/>
<rect x="915.035080087008" y="542.6723604102763" width="1.2923076923076922" height="37.32763958972373" fill="#3fb950" opacity="0.45"/>
<rect x="917.194463120427" y="530.8536387119423" width="1.2923076923076922" height="49.14636128805773" fill="#3fb950" opacity="0.45"/>
<rect x="919.3538461538461" y="550.7906802296188" width="1.2923076923076922" height="29.20931977038117" fill="#f85149" opacity="0.45"/>
<polyline points="80.0,358.47400032481056 82.15938303341902,343.44910994838335 84.31876606683805,326.9444955197322 86.47814910025707,345.0426589277014 88.63753213367609,348.685056594714 90.79691516709512,356.4251516371159 92.95629820051414,351.3030299178794 95.11568123393316,357.56340090805736 97.27506426735218,351.98597948044426 99.43444730077121,336.3919644685463 101.59383033419023,319.2044004773303 103.75321336760925,312.37490485168155 105.91259640102828,312.9440294871523 108.0719794344473,293.3661420269592 110.23136246786632,300.0818127255138 112.39074550128535,308.27720747629235 114.55012853470437,298.6020886732899 116.70951156812339,290.97581855798217 118.86889460154242,298.14678896491336 121.02827763496143,292.0002429018295 123.18766066838046,293.5937918811475 125.34704370179949,282.43894902592126 127.5064267352185,264.1131357637638 129.66580976863753,250.79561929374876 131.82519280205656,276.5200528170257 133.98457583547557,297.6914892565368 136.1439588688946,293.13849217277095 138.30334190231363,297.46383940234847 140.46272493573264,309.7569315285162 142.62210796915167,322.7329732172488 144.7814910025707,316.24495237288255 146.9408740359897,306.2283587885977 149.10025706940874,305.2039344447504 151.25964010282777,311.00900572655183 153.41902313624678,304.52098488218553 155.5784061696658,302.2444863403026 157.73778920308484,300.19563765260796 159.89717223650385,305.65923415312693 162.05655526992285,309.8707564556104 164.2159383033419,312.60255470586986 166.37532133676092,307.93573269500985 168.53470437017995,314.7652283206586 170.69408740359899,314.1961036851879 172.853470437018,294.732041152089 175.012853470437,294.732041152089 177.17223650385603,303.15508575705576 179.33161953727506,304.8624596634679 181.4910025706941,305.2039344447504 183.65038560411313,307.252783132445 185.80976863753213,314.4237535393762 187.96915167095113,320.00117496698937 190.12853470437017,324.78182190494346 192.2879177377892,316.4726022270708 194.44730077120823,311.3504805078343 196.60668380462727,315.1067031019411 198.7660668380463,319.2044004773303 200.9254498714653,328.08274479067364 203.0848329048843,327.28597030101463 205.24421593830334,327.51362015520294 207.40359897172237,332.0666172389688 209.56298200514138,332.8633917286278 211.7223650385604,327.39979522810876 213.88174807197942,343.22146009419504 216.04113110539845,346.29473312573697 218.20051413881748,340.71731169812386 220.35989717223651,345.72560849026627 222.51928020565555,345.3841337089838 224.67866323907455,352.3274542617267 226.83804627249359,348.9127064489023 228.9974293059126,344.92883400060725 231.15681233933162,347.77445717796087 233.31619537275066,345.0426589277014 235.47557840616966,349.5956560114672 237.6349614395887,349.25418123018477 239.7943444730077,353.92100324104473 241.95372750642673,355.0592525119862 244.11311053984574,355.40072729326863 246.2724935732648,351.5306797720677 248.4318766066838,358.47400032481056 250.59125964010283,352.55510411591496 252.75064267352187,346.06708327154865 254.91002570694087,347.3191574695843 257.0694087403599,346.75003283411354 259.2287917737789,351.07538006369106 261.38817480719797,350.27860557403204 263.54755784061695,350.3924305011262 265.706940874036,351.87215455335013 267.866323907455,353.5795284597623 270.025706940874,358.018700616434 272.1850899742931,359.83989944994033 274.34447300771205,352.7827539701033 276.50385604113114,355.0592525119862 278.6632390745501,356.5389765642101 280.82262210796915,358.5878252519047 282.9820051413882,357.3357510538691 285.14138817480716,358.92930003318713 287.30077120822625,362.3440478460115 289.4601542416452,347.77445717796087 291.61953727506426,348.45740674052576 293.7789203084833,349.1403563030906 295.93830334190227,348.685056594714 298.09768637532136,344.1320595109482 300.25706940874034,340.3758369168414 302.4164524421594,334.9122404163224 304.5758354755784,337.9855134478644 306.73521850899743,341.4002612606887 308.89460154241647,341.0587864794063 311.05398457583544,340.26201198974724 313.21336760925453,340.034362135559 315.3727506426735,343.22146009419504 317.5321336760926,343.6767598025716 319.6915167095116,343.7905847296658 321.8508997429306,346.5223829799253 324.01028277634964,347.77445717796087 326.1696658097686,343.9044096567599 328.32904884318765,349.93713079274966 330.4884318766067,354.6039528036096 332.64781491002566,356.88045134549253 334.80719794344475,354.94542758489206 336.9665809768638,356.0836768558335 339.12596401028276,355.51455222036276 341.2853470437018,370.7670924509783 343.4447300771208,378.5071874933802 345.60411311053986,376.91363851406214 347.76349614395883,374.0680153367085 349.9228791773779,370.9947423051666 352.0822622107969,366.7832200026832 354.24164524421593,365.9864455130242 356.40102827763496,369.85649303422514 358.560411311054,370.3117927426017 360.71979434447303,369.0597185445661 362.879177377892,365.075846096271 365.0385604113111,364.16524667951785 367.1979434447301,363.2546472627647 369.3573264781491,364.96202116917686 371.51670951156814,361.4334484292583 373.67609254498717,361.88874813763493 375.83547557840615,357.4495759809633 377.9948586118252,354.71777773070374 380.1542416452442,348.34358181343157 382.31362467866325,349.70948093856134 384.4730077120822,344.1320595109482 386.6323907455013,344.5873592193248 388.79177377892034,341.4002612606887 390.9511568123393,345.49795863607795 393.11053984575835,346.29473312573697 395.2699228791774,345.9532583444545 397.4293059125964,340.9449615523121 399.5886889460154,341.5140861877829 401.7480719794344,339.1237627188058 403.90745501285346,340.3758369168414 406.0668380462725,345.49795863607795 408.22622107969147,344.4735342922306 410.38560411311056,341.8555609690653 412.5449871465296,342.53851053163015 414.70437017994857,344.3597093651365 416.8637532133676,345.0426589277014 419.02313624678663,347.091507615396 421.18251928020567,340.26201198974724 423.34190231362464,339.80671228137066 425.50128534704373,341.74173604197114 427.6606683804627,339.00993779171165 429.82005141388174,337.0749140311112 431.9794344473008,335.70901490598146 434.1388174807198,329.67629376999173 436.2982005141388,322.7329732172488 438.4575835475578,323.643572634002 440.6169665809769,317.2693767167298 442.7763496143959,316.4726022270708 444.9357326478149,318.06615120638884 447.09511568123395,326.03389610297904 449.254498714653,326.1477210300732 451.41388174807196,323.1882729256254 453.573264781491,311.4643054349284 455.73264781491,308.0495576221041 457.89203084832906,307.0251332782567 460.05141388174803,303.04126082996163 462.2107969151671,302.9274359028675 464.37017994858616,302.58596112158506 466.52956298200513,301.6753617048319 468.68894601542416,305.4315842989387 470.8483290488432,309.4154567472338 473.00771208226223,311.69195528911666 475.1670951156812,308.0495576221041 477.32647814910024,313.9684538309996 479.4858611825193,311.69195528911666 481.6452442159383,313.9684538309996 483.8046272493573,315.33435295612935 485.96401028277637,317.8385013522006 488.1233933161954,316.7002520812591 490.2827763496144,311.57813036202253 492.4421593830334,310.89518079945765 494.60154241645245,312.60255470586986 496.7609254498715,313.8546289039055 498.92030848329046,318.4076259876713 501.0796915167095,314.65140339356446 503.2390745501285,295.30116578755974 505.39845758354755,305.88688400731525 507.5578406169666,309.5292816743279 509.71722365038556,314.4237535393762 511.8766066838046,317.04172686254157 514.0359897172236,316.1311274457884 516.1953727506427,315.56200281031767 518.3547557840618,313.8546289039055 520.5141388174807,304.0656851738089 522.6735218508998,306.3421837156919 524.8329048843189,307.93573269500985 526.9922879177378,307.3666080595392 529.1516709511568,312.03343007039916 531.3110539845759,308.9601570388572 533.4704370179949,316.1311274457884 535.6298200514138,311.00900572655183 537.7892030848329,312.9440294871523 539.9485861182519,312.60255470586986 542.1079691516709,313.7408039768113 544.26735218509,314.0822787580938 546.4267352185091,313.3993291955289 548.5861182519279,309.7569315285162 550.745501285347,307.4804329866333 552.9048843187661,316.7002520812591 555.0642673521852,320.1149998940835 557.2236503856041,317.61085149801227 559.3830334190231,318.29380106057715 561.5424164524422,323.98504741528444 563.7017994858612,329.33481898870923 565.8611825192802,328.5380444990503 568.0205655526993,317.2693767167298 570.1799485861183,313.51315412262306 572.3393316195372,294.0490915895241 574.4987146529563,289.49609450575826 576.6580976863753,267.6417085036823 578.8174807197943,268.66613284752964 580.9768637532134,261.153687659316 583.1362467866325,265.25138503470527 585.2956298200513,274.8126789106135 587.4550128534704,275.0403287648018 589.6143958868895,251.70621871050196 591.7737789203086,248.40529582477174 593.9331619537276,241.91727498040544 596.0925449871465,241.91727498040544 598.2519280205655,250.3403195853722 600.4113110539846,247.38087148092438 602.5706940874036,240.55137585527567 604.7300771208226,244.6490732306649 606.8894601542416,235.65690399022745 609.0488431876606,245.90114742870054 611.2082262210797,235.99837877150983 613.3676092544987,248.40529582477174 615.5269922879177,248.8605955331483 617.6863753213368,257.5112899923034 619.8457583547558,267.7555334307765 622.0051413881748,265.5928598159877 624.1645244215938,261.60898736769263 626.3239074550129,257.8527647735858 628.4832904884319,262.8610615657283 630.642673521851,249.5435450957132 632.8020565552699,233.26658052125035 634.9614395886889,221.6564379576475 637.120822622108,223.93293649953043 639.280205655527,219.1522895615763 641.4395886889461,206.06242294574955 643.598971722365,187.96425953778038 645.758354755784,185.6877609958975 647.9177377892031,177.0370665367424 650.0771208226222,143.91401275234605 652.236503856041,107.49003608221942 654.3958868894601,110.7909589679496 656.5552699228792,88.48127325749705 658.7146529562982,108.74211028025499 660.8740359897172,68.78956087020991 663.0334190231363,97.13196771665218 665.1928020565553,107.03473637384283 667.3521850899743,131.39327077199002 669.5115681233933,146.98728578388798 671.6709511568123,110.90478389504382 673.8303341902314,150.6296834509006 675.9897172236504,145.8490365129465 678.1491002570694,131.50709569908412 680.3084832904884,140.9545646478982 682.4678663239074,139.70249044986258 684.6272493573265,131.27944584489592 686.7866323907456,138.3365913247329 688.9460154241644,156.66240458689032 691.1053984575835,175.7849923387068 693.2647814910026,186.25688563136822 695.4241645244216,188.53338417325114 697.5835475578407,187.5089598294038 699.7429305912597,183.0697876727321 701.9023136246786,189.55780851709844 704.0616966580977,195.81817950727643 706.2210796915167,210.7292449566095 708.3804627249357,217.4449156551641 710.5398457583548,231.10390690646153 712.6992287917737,212.66426871721 714.8586118251928,216.53431623841095 717.0179948586119,216.07901653003435 719.1773778920308,215.73754174875194 721.3367609254499,186.4845354855565 723.4961439588689,176.92324160964824 725.655526992288,180.11033956828436 727.8149100257069,147.3287605651704 729.9742930591259,174.98821784904777 732.133676092545,179.54121493281363 734.2930591259641,186.82601026683895 736.4524421593829,177.0370665367424 738.611825192802,177.0370665367424 740.7712082262211,188.41955924615695 742.9305912596401,195.2490548718057 745.0899742930592,194.33845545505255 747.2493573264782,196.95642877821788 749.4087403598971,204.58269889352565 751.5681233933162,204.2412241122432 753.7275064267352,202.64767513292517 755.8868894601542,198.54997775753594 758.0462724935733,188.87485895453355 760.2056555269922,206.29007279993783 762.3650385604113,215.50989189456365 764.5244215938303,210.04629539404468 766.6838046272493,208.79422119600906 768.8431876606684,215.1684171132812 771.0025706940875,223.36381186405964 773.1619537275064,214.71311740490464 775.3213367609254,208.11127163344415 777.4807197943445,211.29836959208023 779.6401028277635,222.79468722858897 781.7994858611826,211.41219451917442 783.9588688946016,218.4693399990114 786.1182519280205,223.47763679115383 788.2776349614396,213.46104320686902 790.4370179948586,221.54261303055333 792.5964010282776,228.25828372910794 794.7557840616967,221.08731332217678 796.9151670951156,227.2338593852606 799.0745501285347,226.20943504141331 801.2339331619538,214.82694233199874 803.3933161953727,207.31449714378513 805.5526992287918,220.29053883251777 807.7120822622109,214.82694233199874 809.8714652956298,218.81081478029387 812.0308483290488,234.86012950056838 814.1902313624679,237.36427789663958 816.3496143958869,237.25045296954548 818.508997429306,233.26658052125035 820.6683804627249,230.76243212517915 822.8277634961439,229.85183270842597 824.987146529563,223.47763679115383 827.146529562982,195.0214050176174 829.3059125964011,201.28177600779543 831.46529562982,206.74537250831443 833.624678663239,224.27441128081284 835.7840616966581,227.91680894782553 837.9434447300772,247.60852133511273 840.1028277634961,254.6656668149497 842.2622107969152,251.13709407503123 844.4215938303342,248.40529582477174 846.5809768637532,246.81174684545368 848.7403598971723,242.48639961587614 850.8997429305912,215.85136667584604 853.0591259640103,215.1684171132812 855.2185089974294,226.43708489560163 857.3778920308483,224.04676142662458 859.5372750642673,228.3721086562021 861.6966580976864,241.12050049074642 863.8560411311054,240.4375509281815 866.0154241645245,228.3721086562021 868.1748071979434,223.93293649953043 870.3341902313624,220.97348839508263 872.4935732647815,217.33109072806997 874.6529562982005,204.1273991851491 876.8123393316196,221.42878810345923 878.9717223650385,219.60758926995288 881.1311053984575,221.42878810345923 883.2904884318766,221.54261303055333 885.4498714652957,219.1522895615763 887.6092544987146,223.7052866453421 889.7686375321337,232.24215617740305 891.9280205655527,218.12786521772898 894.0874035989717,209.36334583147976 896.2467866323908,208.4527464147266 898.4061696658098,196.27347921565303 900.5655526992288,201.62325078907787 902.7249357326479,171.0043454007527 904.8843187660668,172.14259467169416 907.0437017994858,173.8499685781063 909.2030848329049,157.9144787849259 911.3624678663239,150.51585852380646 913.521850899743,147.6702353464528 915.6812339331619,147.44258549226453 917.8406169665809,122.40110153155251 920.0,132.4176951158373" stroke="#58a6ff" stroke-width="1.8" fill="none"/>
<line x1="80" y1="147.3287605651704" x2="920" y2="147.3287605651704" stroke="#f0883e" stroke-width="1.5" stroke-dasharray="6,3"/>
<text x="925" y="151.3287605651704" font-size="11" fill="#f0883e" font-weight="bold">颈线 31.71</text>
<line x1="80" y1="63.55361422387919" x2="920" y2="63.55361422387919" stroke="#a371f7" stroke-width="1.2" stroke-dasharray="4,4"/>
<text x="925" y="67.55361422387918" font-size="11" fill="#a371f7" font-weight="bold">目标 39.07 (+18.3%)</text>
<circle cx="710.5398457583548" cy="231.10390690646153" r="6" fill="#238636" stroke="#fff" stroke-width="2"/>
<text x="710.5398457583548" y="251.10390690646153" text-anchor="middle" font-size="10" fill="#3fb950">左底 24.35</text>
<circle cx="792.5964010282776" cy="228.25828372910794" r="6" fill="#8957e5" stroke="#fff" stroke-width="2"/>
<text x="792.5964010282776" y="248.25828372910794" text-anchor="middle" font-size="10" fill="#bc8cff">右底 24.60</text>
<circle cx="917.8406169665809" cy="147.3287605651704" r="7" fill="#f0883e" stroke="#fff" stroke-width="2"/>
<text x="917.8406169665809" y="135.3287605651704" text-anchor="middle" font-size="10" fill="#f0883e">突破</text>
<line x1="920.0" y1="132.4176951158373" x2="920" y2="132.4176951158373" stroke="#f85149" stroke-width="1"/>
<text x="925" y="136.4176951158373" font-size="11" fill="#f85149" font-weight="bold">现价 33.02</text>
<text x="80" y="598" font-size="13" fill="#58a6ff" font-weight="bold">筛选高分原因:</text>
<text x="90" y="618" font-size="11" fill="#c9d1d9">  1. 刚刚突破(1天前)</text>
<text x="90" y="636" font-size="11" fill="#c9d1d9">  2. 右底缩量(58%)</text>
<text x="90" y="654" font-size="11" fill="#c9d1d9">  3. 形态跨度大(38根K线)</text>
<text x="90" y="672" font-size="11" fill="#c9d1d9">  4. MACD改善</text>
<text x="90" y="690" font-size="11" fill="#c9d1d9">  5. 右底高于左底</text>
<text x="928" y="80" font-size="11" fill="#8b949e">突破日: 2026-05-15</text>
<text x="928" y="98" font-size="11" fill="#8b949e">突破后涨幅: 4.1%</text>
<text x="928" y="116" font-size="11" fill="#8b949e">目标空间: 18.3%</text>
<text x="928" y="134" font-size="11" fill="#8b949e">形态跨度: 38根K线</text>
</svg>