<svg xmlns="http://www.w3.org/2000/svg" viewBox="0 0 1000 700" width="1000" height="700">
<rect width="1000" height="700" fill="#0d1117"/>
<text x="500.0" y="24" text-anchor="middle" font-size="18" fill="#58a6ff" font-weight="bold">诺唯赞 (688105.SH)</text>
<text x="500.0" y="46" text-anchor="middle" font-size="14" fill="#8b949e">双底突破 | 评分:72/100 | 突破后涨幅:1.9% | 目标空间:8.9%</text>
<line x1="80" y1="382.4" x2="920" y2="382.4" stroke="#21262d" stroke-width="0.5"/>
<text x="72" y="386.4" text-anchor="end" font-size="10" fill="#8b949e">17.68</text>
<line x1="80" y1="317.92" x2="920" y2="317.92" stroke="#21262d" stroke-width="0.5"/>
<text x="72" y="321.92" text-anchor="end" font-size="10" fill="#8b949e">19.84</text>
<line x1="80" y1="253.43999999999994" x2="920" y2="253.43999999999994" stroke="#21262d" stroke-width="0.5"/>
<text x="72" y="257.43999999999994" text-anchor="end" font-size="10" fill="#8b949e">21.99</text>
<line x1="80" y1="188.96" x2="920" y2="188.96" stroke="#21262d" stroke-width="0.5"/>
<text x="72" y="192.96" text-anchor="end" font-size="10" fill="#8b949e">24.15</text>
<line x1="80" y1="124.48000000000005" x2="920" y2="124.48000000000005" stroke="#21262d" stroke-width="0.5"/>
<text x="72" y="128.48000000000005" text-anchor="end" font-size="10" fill="#8b949e">26.30</text>
<line x1="80" y1="60.0" x2="920" y2="60.0" stroke="#21262d" stroke-width="0.5"/>
<text x="72" y="64.0" text-anchor="end" font-size="10" fill="#8b949e">28.46</text>
<text x="80.0" y="396.4" text-anchor="middle" font-size="9" fill="#8b949e">2024-10-08</text>
<text x="183.65038560411313" y="396.4" text-anchor="middle" font-size="9" fill="#8b949e">2024-12-13</text>
<text x="287.30077120822625" y="396.4" text-anchor="middle" font-size="9" fill="#8b949e">2025-02-28</text>
<text x="390.9511568123393" y="396.4" text-anchor="middle" font-size="9" fill="#8b949e">2025-05-13</text>
<text x="494.60154241645245" y="396.4" text-anchor="middle" font-size="9" fill="#8b949e">2025-07-21</text>
<text x="598.2519280205655" y="396.4" text-anchor="middle" font-size="9" fill="#8b949e">2025-09-25</text>
<text x="701.9023136246786" y="396.4" text-anchor="middle" font-size="9" fill="#8b949e">2025-12-10</text>
<text x="805.5526992287918" y="396.4" text-anchor="middle" font-size="9" fill="#8b949e">2026-02-26</text>
<text x="909.2030848329049" y="396.4" text-anchor="middle" font-size="9" fill="#8b949e">2026-05-11</text>
<rect x="820.6683804627249" y="60" width="99.33161953727506" height="520.0" fill="#238636" opacity="0.10" rx="4"/>
<text x="870.3341902313625" y="52" text-anchor="middle" font-size="11" fill="#3fb950" font-weight="bold">双底区域</text>
<rect x="79.35384615384615" y="496.9474570625973" width="1.2923076923076922" height="83.05254293740268" fill="#3fb950" opacity="0.45"/>
<rect x="81.51322918726517" y="508.59273712416814" width="1.2923076923076922" height="71.40726287583186" fill="#f85149" opacity="0.45"/>
<rect x="83.6726122206842" y="529.4512236005781" width="1.2923076923076922" height="50.548776399421854" fill="#f85149" opacity="0.45"/>
<rect x="85.83199525410322" y="544.0598808795908" width="1.2923076923076922" height="35.940119120409236" fill="#f85149" opacity="0.45"/>
<rect x="87.99137828752224" y="544.0562468460807" width="1.2923076923076922" height="35.94375315391926" fill="#3fb950" opacity="0.45"/>
<rect x="90.15076132094127" y="542.7823278716464" width="1.2923076923076922" height="37.21767212835357" fill="#f85149" opacity="0.45"/>
<rect x="92.31014435436029" y="553.0602667471422" width="1.2923076923076922" height="26.939733252857764" fill="#f85149" opacity="0.45"/>
<rect x="94.46952738777931" y="557.7566974904562" width="1.2923076923076922" height="22.24330250954381" fill="#f85149" opacity="0.45"/>
<rect x="96.62891042119833" y="525.9473593342426" width="1.2923076923076922" height="54.052640665757394" fill="#3fb950" opacity="0.45"/>
<rect x="98.78829345461736" y="541.2765785500834" width="1.2923076923076922" height="38.7234214499166" fill="#3fb950" opacity="0.45"/>
<rect x="100.94767648803638" y="541.1818444129879" width="1.2923076923076922" height="38.81815558701214" fill="#3fb950" opacity="0.45"/>
<rect x="103.1070595214554" y="550.8803320535803" width="1.2923076923076922" height="29.119667946419668" fill="#3fb950" opacity="0.45"/>
<rect x="105.26644255487443" y="550.6481868443425" width="1.2923076923076922" height="29.35181315565751" fill="#3fb950" opacity="0.45"/>
<rect x="107.42582558829345" y="550.6928316675715" width="1.2923076923076922" height="29.307168332428546" fill="#3fb950" opacity="0.45"/>
<rect x="109.58520862171247" y="536.7575201282667" width="1.2923076923076922" height="43.24247987173328" fill="#3fb950" opacity="0.45"/>
<rect x="111.7445916551315" y="532.9525427315314" width="1.2923076923076922" height="47.047457268468634" fill="#f85149" opacity="0.45"/>
<rect x="113.90397468855052" y="549.3879381331478" width="1.2923076923076922" height="30.612061866852173" fill="#f85149" opacity="0.45"/>
<rect x="116.06335772196954" y="556.5266624224869" width="1.2923076923076922" height="23.47333757751312" fill="#3fb950" opacity="0.45"/>
<rect x="118.22274075538857" y="550.3103660397156" width="1.2923076923076922" height="29.689633960284368" fill="#f85149" opacity="0.45"/>
<rect x="120.38212378880758" y="552.6347043680942" width="1.2923076923076922" height="27.365295631905838" fill="#3fb950" opacity="0.45"/>
<rect x="122.54150682222661" y="545.4664486367661" width="1.2923076923076922" height="34.53355136323387" fill="#3fb950" opacity="0.45"/>
<rect x="124.70088985564564" y="553.0440775870292" width="1.2923076923076922" height="26.955922412970835" fill="#f85149" opacity="0.45"/>
<rect x="126.86027288906465" y="545.8616399415341" width="1.2923076923076922" height="34.13836005846588" fill="#3fb950" opacity="0.45"/>
<rect x="129.01965592248368" y="544.3503411752971" width="1.2923076923076922" height="35.6496588247029" fill="#3fb950" opacity="0.45"/>
<rect x="131.1790389559027" y="521.3925378245265" width="1.2923076923076922" height="58.60746217547353" fill="#3fb950" opacity="0.45"/>
<rect x="133.33842198932172" y="517.9134427107787" width="1.2923076923076922" height="62.08655728922133" fill="#f85149" opacity="0.45"/>
<rect x="135.49780502274075" y="546.4872053561759" width="1.2923076923076922" height="33.51279464382412" fill="#f85149" opacity="0.45"/>
<rect x="137.65718805615978" y="552.1636706527806" width="1.2923076923076922" height="27.836329347219362" fill="#f85149" opacity="0.45"/>
<rect x="139.8165710895788" y="548.2755827784797" width="1.2923076923076922" height="31.724417221520298" fill="#f85149" opacity="0.45"/>
<rect x="141.97595412299782" y="556.8435973738724" width="1.2923076923076922" height="23.1564026261276" fill="#f85149" opacity="0.45"/>
<rect x="144.13533715641685" y="561.9163539339135" width="1.2923076923076922" height="18.083646066086544" fill="#3fb950" opacity="0.45"/>
<rect x="146.29472018983586" y="555.3059420252472" width="1.2923076923076922" height="24.69405797475281" fill="#3fb950" opacity="0.45"/>
<rect x="148.4541032232549" y="561.7397162906709" width="1.2923076923076922" height="18.260283709329087" fill="#f85149" opacity="0.45"/>
<rect x="150.61348625667392" y="558.7052327135757" width="1.2923076923076922" height="21.294767286424303" fill="#f85149" opacity="0.45"/>
<rect x="152.77286929009293" y="551.3315163367618" width="1.2923076923076922" height="28.66848366323825" fill="#3fb950" opacity="0.45"/>
<rect x="154.93225232351196" y="562.7832217974678" width="1.2923076923076922" height="17.21677820253217" fill="#f85149" opacity="0.45"/>
<rect x="157.091635356931" y="560.9549487220817" width="1.2923076923076922" height="19.045051277918333" fill="#3fb950" opacity="0.45"/>
<rect x="159.25101839035" y="556.1641249422904" width="1.2923076923076922" height="23.835875057709586" fill="#f85149" opacity="0.45"/>
<rect x="161.410401423769" y="557.6959946996596" width="1.2923076923076922" height="22.30400530034035" fill="#3fb950" opacity="0.45"/>
<rect x="163.56978445718804" y="548.0534213219535" width="1.2923076923076922" height="31.946578678046535" fill="#3fb950" opacity="0.45"/>
<rect x="165.72916749060707" y="560.4662564901457" width="1.2923076923076922" height="19.533743509854276" fill="#f85149" opacity="0.45"/>
<rect x="167.8885505240261" y="562.9971968391558" width="1.2923076923076922" height="17.002803160844223" fill="#f85149" opacity="0.45"/>
<rect x="170.04793355744513" y="565.9941593482419" width="1.2923076923076922" height="14.005840651758149" fill="#3fb950" opacity="0.45"/>
<rect x="172.20731659086414" y="544.8397156084696" width="1.2923076923076922" height="35.160284391530354" fill="#3fb950" opacity="0.45"/>
<rect x="174.36669962428314" y="556.8246400510496" width="1.2923076923076922" height="23.17535994895036" fill="#f85149" opacity="0.45"/>
<rect x="176.52608265770218" y="554.1944787798883" width="1.2923076923076922" height="25.8055212201117" fill="#3fb950" opacity="0.45"/>
<rect x="178.6854656911212" y="561.5185912552539" width="1.2923076923076922" height="18.48140874474609" fill="#f85149" opacity="0.45"/>
<rect x="180.84484872454024" y="563.8082816323695" width="1.2923076923076922" height="16.19171836763053" fill="#f85149" opacity="0.45"/>
<rect x="183.00423175795927" y="557.6606251893966" width="1.2923076923076922" height="22.33937481060343" fill="#f85149" opacity="0.45"/>
<rect x="185.16361479137828" y="563.7176931797113" width="1.2923076923076922" height="16.28230682028868" fill="#f85149" opacity="0.45"/>
<rect x="187.32299782479728" y="565.9023245664016" width="1.2923076923076922" height="14.097675433598397" fill="#f85149" opacity="0.45"/>
<rect x="189.48238085821632" y="569.7786444693724" width="1.2923076923076922" height="10.221355530627648" fill="#f85149" opacity="0.45"/>
<rect x="191.64176389163535" y="563.9154003457589" width="1.2923076923076922" height="16.08459965424106" fill="#f85149" opacity="0.45"/>
<rect x="193.80114692505438" y="564.0158151200741" width="1.2923076923076922" height="15.98418487992592" fill="#3fb950" opacity="0.45"/>
<rect x="195.96052995847342" y="565.5444575408244" width="1.2923076923076922" height="14.455542459175604" fill="#f85149" opacity="0.45"/>
<rect x="198.11991299189245" y="569.0898967248245" width="1.2923076923076922" height="10.910103275175516" fill="#3fb950" opacity="0.45"/>
<rect x="200.27929602531145" y="565.8961716360183" width="1.2923076923076922" height="14.103828363981734" fill="#f85149" opacity="0.45"/>
<rect x="202.43867905873046" y="570.2699474329636" width="1.2923076923076922" height="9.73005256703641" fill="#3fb950" opacity="0.45"/>
<rect x="204.5980620921495" y="567.1659186875062" width="1.2923076923076922" height="12.834081312493822" fill="#f85149" opacity="0.45"/>
<rect x="206.75744512556852" y="569.7997139921774" width="1.2923076923076922" height="10.20028600782257" fill="#f85149" opacity="0.45"/>
<rect x="208.91682815898753" y="567.6929978582514" width="1.2923076923076922" height="12.307002141748626" fill="#f85149" opacity="0.45"/>
<rect x="211.07621119240656" y="563.5754279833861" width="1.2923076923076922" height="16.424572016613865" fill="#f85149" opacity="0.45"/>
<rect x="213.23559422582557" y="562.6597696121654" width="1.2923076923076922" height="17.340230387834595" fill="#3fb950" opacity="0.45"/>
<rect x="215.3949772592446" y="562.752234118224" width="1.2923076923076922" height="17.24776588177599" fill="#f85149" opacity="0.45"/>
<rect x="217.55436029266363" y="560.9176900391636" width="1.2923076923076922" height="19.08230996083637" fill="#f85149" opacity="0.45"/>
<rect x="219.71374332608266" y="559.4846082685453" width="1.2923076923076922" height="20.515391731454656" fill="#f85149" opacity="0.45"/>
<rect x="221.8731263595017" y="566.7061019348317" width="1.2923076923076922" height="13.293898065168264" fill="#f85149" opacity="0.45"/>
<rect x="224.0325093929207" y="564.7234021141537" width="1.2923076923076922" height="15.276597885846286" fill="#f85149" opacity="0.45"/>
<rect x="226.19189242633973" y="556.0382194563873" width="1.2923076923076922" height="23.96178054361269" fill="#3fb950" opacity="0.45"/>
<rect x="228.35127545975874" y="555.1312460316778" width="1.2923076923076922" height="24.868753968322153" fill="#3fb950" opacity="0.45"/>
<rect x="230.51065849317777" y="557.234498682403" width="1.2923076923076922" height="22.765501317597" fill="#f85149" opacity="0.45"/>
<rect x="232.6700415265968" y="554.6268238135381" width="1.2923076923076922" height="25.373176186461933" fill="#3fb950" opacity="0.45"/>
<rect x="234.8294245600158" y="563.0555644026426" width="1.2923076923076922" height="16.94443559735737" fill="#3fb950" opacity="0.45"/>
<rect x="236.98880759343484" y="560.9567198214457" width="1.2923076923076922" height="19.043280178554255" fill="#f85149" opacity="0.45"/>
<rect x="239.14819062685385" y="557.914784507767" width="1.2923076923076922" height="22.085215492233033" fill="#f85149" opacity="0.45"/>
<rect x="241.30757366027288" y="566.3606850818212" width="1.2923076923076922" height="13.639314918178798" fill="#f85149" opacity="0.45"/>
<rect x="243.46695669369188" y="562.681783721298" width="1.2923076923076922" height="17.31821627870204" fill="#3fb950" opacity="0.45"/>
<rect x="245.62633972711095" y="565.6974149296067" width="1.2923076923076922" height="14.30258507039332" fill="#3fb950" opacity="0.45"/>
<rect x="247.78572276052995" y="567.2447260495798" width="1.2923076923076922" height="12.755273950420246" fill="#f85149" opacity="0.45"/>
<rect x="249.94510579394898" y="551.0275694473794" width="1.2923076923076922" height="28.972430552620608" fill="#3fb950" opacity="0.45"/>
<rect x="252.10448882736802" y="535.6774906168064" width="1.2923076923076922" height="44.32250938319362" fill="#f85149" opacity="0.45"/>
<rect x="254.26387186078702" y="534.5793040570508" width="1.2923076923076922" height="45.42069594294924" fill="#3fb950" opacity="0.45"/>
<rect x="256.4232548942061" y="540.7557966215215" width="1.2923076923076922" height="39.24420337847846" fill="#3fb950" opacity="0.45"/>
<rect x="258.58263792762506" y="553.5842891315776" width="1.2923076923076922" height="26.415710868422366" fill="#f85149" opacity="0.45"/>
<rect x="260.74202096104415" y="559.919511556832" width="1.2923076923076922" height="20.08048844316795" fill="#3fb950" opacity="0.45"/>
<rect x="262.9014039944631" y="560.0149410144187" width="1.2923076923076922" height="19.985058985581304" fill="#f85149" opacity="0.45"/>
<rect x="265.06078702788216" y="537.816480116922" width="1.2923076923076922" height="42.18351988307802" fill="#3fb950" opacity="0.45"/>
<rect x="267.2201700613012" y="535.7461699143685" width="1.2923076923076922" height="44.253830085631535" fill="#3fb950" opacity="0.45"/>
<rect x="269.37955309472017" y="549.2022744427758" width="1.2923076923076922" height="30.797725557224226" fill="#f85149" opacity="0.45"/>
<rect x="271.53893612813926" y="549.4725310864774" width="1.2923076923076922" height="30.527468913522625" fill="#3fb950" opacity="0.45"/>
<rect x="273.69831916155823" y="550.0532286505628" width="1.2923076923076922" height="29.9467713494372" fill="#3fb950" opacity="0.45"/>
<rect x="275.8577021949773" y="552.1332733399914" width="1.2923076923076922" height="27.866726660008567" fill="#3fb950" opacity="0.45"/>
<rect x="278.0170852283963" y="553.478075646752" width="1.2923076923076922" height="26.521924353247982" fill="#f85149" opacity="0.45"/>
<rect x="280.17646826181533" y="562.0847789238086" width="1.2923076923076922" height="17.915221076191415" fill="#f85149" opacity="0.45"/>
<rect x="282.33585129523436" y="554.1319524127097" width="1.2923076923076922" height="25.868047587290334" fill="#3fb950" opacity="0.45"/>
<rect x="284.49523432865334" y="534.6426306987569" width="1.2923076923076922" height="45.357369301243125" fill="#3fb950" opacity="0.45"/>
<rect x="286.65461736207243" y="528.4315164215324" width="1.2923076923076922" height="51.568483578467635" fill="#f85149" opacity="0.45"/>
<rect x="288.8140003954914" y="548.8202679888292" width="1.2923076923076922" height="31.179732011170813" fill="#3fb950" opacity="0.45"/>
<rect x="290.97338342891044" y="552.704669352602" width="1.2923076923076922" height="27.295330647398032" fill="#3fb950" opacity="0.45"/>
<rect x="293.13276646232947" y="553.6736181357992" width="1.2923076923076922" height="26.326381864200812" fill="#f85149" opacity="0.45"/>
<rect x="295.29214949574845" y="547.0677979662249" width="1.2923076923076922" height="32.93220203377507" fill="#3fb950" opacity="0.45"/>
<rect x="297.45153252916754" y="485.6147957176654" width="1.2923076923076922" height="94.3852042823346" fill="#3fb950" opacity="0.45"/>
<rect x="299.6109155625865" y="527.2966090682952" width="1.2923076923076922" height="52.7033909317048" fill="#3fb950" opacity="0.45"/>
<rect x="301.7702985960056" y="548.4968652449512" width="1.2923076923076922" height="31.50313475504879" fill="#3fb950" opacity="0.45"/>
<rect x="303.9296816294246" y="537.7029723265674" width="1.2923076923076922" height="42.29702767343258" fill="#f85149" opacity="0.45"/>
<rect x="306.0890646628436" y="552.1267793089899" width="1.2923076923076922" height="27.873220691010147" fill="#f85149" opacity="0.45"/>
<rect x="308.24844769626264" y="544.5164309378825" width="1.2923076923076922" height="35.48356906211745" fill="#3fb950" opacity="0.45"/>
<rect x="310.4078307296816" y="559.285759727352" width="1.2923076923076922" height="20.714240272648" fill="#f85149" opacity="0.45"/>
<rect x="312.5672137631007" y="554.1028801446299" width="1.2923076923076922" height="25.89711985537008" fill="#3fb950" opacity="0.45"/>
<rect x="314.7265967965197" y="561.1552797390391" width="1.2923076923076922" height="18.844720260960912" fill="#f85149" opacity="0.45"/>
<rect x="316.8859798299388" y="561.2518374525168" width="1.2923076923076922" height="18.74816254748316" fill="#3fb950" opacity="0.45"/>
<rect x="319.04536286335775" y="544.4828981232563" width="1.2923076923076922" height="35.51710187674371" fill="#f85149" opacity="0.45"/>
<rect x="321.2047458967768" y="552.2568567178395" width="1.2923076923076922" height="27.74314328216053" fill="#3fb950" opacity="0.45"/>
<rect x="323.3641289301958" y="520.073396779663" width="1.2923076923076922" height="59.92660322033703" fill="#3fb950" opacity="0.45"/>
<rect x="325.5235119636148" y="556.9669839629021" width="1.2923076923076922" height="23.033016037097923" fill="#f85149" opacity="0.45"/>
<rect x="327.6828949970338" y="554.8914260585291" width="1.2923076923076922" height="25.108573941470922" fill="#3fb950" opacity="0.45"/>
<rect x="329.84227803045286" y="545.3707699133431" width="1.2923076923076922" height="34.62923008665689" fill="#3fb950" opacity="0.45"/>
<rect x="332.00166106387184" y="548.3455084052239" width="1.2923076923076922" height="31.65449159477612" fill="#f85149" opacity="0.45"/>
<rect x="334.1610440972909" y="526.0140182666041" width="1.2923076923076922" height="53.985981733395874" fill="#3fb950" opacity="0.45"/>
<rect x="336.32042713070996" y="549.2067874663405" width="1.2923076923076922" height="30.79321253365947" fill="#3fb950" opacity="0.45"/>
<rect x="338.47981016412893" y="551.436811473769" width="1.2923076923076922" height="28.563188526230988" fill="#f85149" opacity="0.45"/>
<rect x="340.63919319754797" y="525.5156440248113" width="1.2923076923076922" height="54.48435597518869" fill="#f85149" opacity="0.45"/>
<rect x="342.798576230967" y="534.6638707718712" width="1.2923076923076922" height="45.33612922812881" fill="#3fb950" opacity="0.45"/>
<rect x="344.95795926438603" y="546.4069417568475" width="1.2923076923076922" height="33.59305824315254" fill="#3fb950" opacity="0.45"/>
<rect x="347.117342297805" y="548.0359858326583" width="1.2923076923076922" height="31.964014167341702" fill="#3fb950" opacity="0.45"/>
<rect x="349.2767253312241" y="543.8154035710772" width="1.2923076923076922" height="36.18459642892276" fill="#3fb950" opacity="0.45"/>
<rect x="351.4361083646431" y="550.7909899301043" width="1.2923076923076922" height="29.209010069895726" fill="#3fb950" opacity="0.45"/>
<rect x="353.5954913980621" y="529.1037995016218" width="1.2923076923076922" height="50.89620049837822" fill="#3fb950" opacity="0.45"/>
<rect x="355.75487443148114" y="546.1519559254405" width="1.2923076923076922" height="33.84804407455954" fill="#f85149" opacity="0.45"/>
<rect x="357.9142574649002" y="547.1146599434726" width="1.2923076923076922" height="32.88534005652741" fill="#f85149" opacity="0.45"/>
<rect x="360.0736404983192" y="555.6134573518668" width="1.2923076923076922" height="24.386542648133172" fill="#f85149" opacity="0.45"/>
<rect x="362.2330235317382" y="560.4271479923362" width="1.2923076923076922" height="19.572852007663755" fill="#f85149" opacity="0.45"/>
<rect x="364.3924065651573" y="542.8828213614888" width="1.2923076923076922" height="37.11717863851118" fill="#f85149" opacity="0.45"/>
<rect x="366.55178959857625" y="553.9563118328127" width="1.2923076923076922" height="26.04368816718727" fill="#f85149" opacity="0.45"/>
<rect x="368.7111726319953" y="537.2412401627288" width="1.2923076923076922" height="42.758759837271214" fill="#f85149" opacity="0.45"/>
<rect x="370.8705556654143" y="527.9642872900379" width="1.2923076923076922" height="52.03571270996213" fill="#f85149" opacity="0.45"/>
<rect x="373.02993869883335" y="541.2122548450316" width="1.2923076923076922" height="38.787745154968434" fill="#3fb950" opacity="0.45"/>
<rect x="375.1893217322523" y="541.003907963545" width="1.2923076923076922" height="38.996092036455025" fill="#f85149" opacity="0.45"/>
<rect x="377.34870476567136" y="551.0535062136221" width="1.2923076923076922" height="28.946493786377914" fill="#f85149" opacity="0.45"/>
<rect x="379.5080877990904" y="552.6549604971173" width="1.2923076923076922" height="27.34503950288274" fill="#3fb950" opacity="0.45"/>
<rect x="381.6674708325094" y="560.5210293778862" width="1.2923076923076922" height="19.47897062211382" fill="#f85149" opacity="0.45"/>
<rect x="383.8268538659284" y="562.0185660461017" width="1.2923076923076922" height="17.981433953898318" fill="#3fb950" opacity="0.45"/>
<rect x="385.9862368993475" y="564.9469935694258" width="1.2923076923076922" height="15.053006430574214" fill="#f85149" opacity="0.45"/>
<rect x="388.1456199327665" y="559.3076951209573" width="1.2923076923076922" height="20.692304879042695" fill="#f85149" opacity="0.45"/>
<rect x="390.3050029661855" y="565.6387587425198" width="1.2923076923076922" height="14.361241257480174" fill="#3fb950" opacity="0.45"/>
<rect x="392.46438599960453" y="559.9356088821633" width="1.2923076923076922" height="20.06439111783675" fill="#3fb950" opacity="0.45"/>
<rect x="394.62376903302356" y="565.274253374141" width="1.2923076923076922" height="14.72574662585896" fill="#f85149" opacity="0.45"/>
<rect x="396.7831520664426" y="569.9618548591438" width="1.2923076923076922" height="10.038145140856159" fill="#3fb950" opacity="0.45"/>
<rect x="398.9425350998616" y="567.0307772464009" width="1.2923076923076922" height="12.96922275359907" fill="#3fb950" opacity="0.45"/>
<rect x="401.1019181332806" y="560.5501934807478" width="1.2923076923076922" height="19.449806519252206" fill="#3fb950" opacity="0.45"/>
<rect x="403.26130116669964" y="565.6412645201386" width="1.2923076923076922" height="14.358735479861366" fill="#f85149" opacity="0.45"/>
<rect x="405.42068420011867" y="562.5163630406944" width="1.2923076923076922" height="17.483636959305613" fill="#f85149" opacity="0.45"/>
<rect x="407.58006723353765" y="563.565955881602" width="1.2923076923076922" height="16.434044118397992" fill="#f85149" opacity="0.45"/>
<rect x="409.73945026695674" y="560.3263396403847" width="1.2923076923076922" height="19.67366035961527" fill="#f85149" opacity="0.45"/>
<rect x="411.89883330037577" y="570.3526643328926" width="1.2923076923076922" height="9.647335667107427" fill="#3fb950" opacity="0.45"/>
<rect x="414.05821633379475" y="566.9180828498282" width="1.2923076923076922" height="13.081917150171762" fill="#f85149" opacity="0.45"/>
<rect x="416.2175993672138" y="556.3496312016078" width="1.2923076923076922" height="23.65036879839215" fill="#3fb950" opacity="0.45"/>
<rect x="418.3769824006328" y="560.8247925977048" width="1.2923076923076922" height="19.1752074022952" fill="#3fb950" opacity="0.45"/>
<rect x="420.53636543405185" y="524.9481181922927" width="1.2923076923076922" height="55.05188180770733" fill="#3fb950" opacity="0.45"/>
<rect x="422.6957484674708" y="556.9045100727417" width="1.2923076923076922" height="23.095489927258313" fill="#f85149" opacity="0.45"/>
<rect x="424.8551315008899" y="556.0747959380689" width="1.2923076923076922" height="23.92520406193114" fill="#f85149" opacity="0.45"/>
<rect x="427.0145145343089" y="561.2591973543186" width="1.2923076923076922" height="18.740802645681356" fill="#f85149" opacity="0.45"/>
<rect x="429.1738975677279" y="524.4970388631475" width="1.2923076923076922" height="55.50296113685249" fill="#3fb950" opacity="0.45"/>
<rect x="431.33328060114695" y="539.9353577998146" width="1.2923076923076922" height="40.0646422001854" fill="#f85149" opacity="0.45"/>
<rect x="433.492663634566" y="545.1101559217348" width="1.2923076923076922" height="34.88984407826524" fill="#f85149" opacity="0.45"/>
<rect x="435.65204666798496" y="544.4835934437474" width="1.2923076923076922" height="35.516406556252605" fill="#3fb950" opacity="0.45"/>
<rect x="437.811429701404" y="520.5708133158738" width="1.2923076923076922" height="59.42918668412619" fill="#f85149" opacity="0.45"/>
<rect x="439.9708127348231" y="554.1195153593975" width="1.2923076923076922" height="25.880484640602504" fill="#f85149" opacity="0.45"/>
<rect x="442.13019576824206" y="544.5243287291208" width="1.2923076923076922" height="35.47567127087916" fill="#f85149" opacity="0.45"/>
<rect x="444.2895788016611" y="561.3366534331736" width="1.2923076923076922" height="18.663346566826363" fill="#f85149" opacity="0.45"/>
<rect x="446.4489618350801" y="560.5140105767026" width="1.2923076923076922" height="19.485989423297383" fill="#f85149" opacity="0.45"/>
<rect x="448.60834486849916" y="564.8288153244519" width="1.2923076923076922" height="15.171184675548147" fill="#3fb950" opacity="0.45"/>
<rect x="450.76772790191814" y="561.8647296672646" width="1.2923076923076922" height="18.135270332735445" fill="#3fb950" opacity="0.45"/>
<rect x="452.92711093533717" y="561.6827262489116" width="1.2923076923076922" height="18.31727375108835" fill="#3fb950" opacity="0.45"/>
<rect x="455.0864939687562" y="559.9844387475932" width="1.2923076923076922" height="20.01556125240677" fill="#3fb950" opacity="0.45"/>
<rect x="457.24587700217523" y="563.363958719317" width="1.2923076923076922" height="16.636041280683003" fill="#f85149" opacity="0.45"/>
<rect x="459.4052600355942" y="566.042346370199" width="1.2923076923076922" height="13.95765362980103" fill="#f85149" opacity="0.45"/>
<rect x="461.5646430690133" y="550.4450483069118" width="1.2923076923076922" height="29.554951693088242" fill="#3fb950" opacity="0.45"/>
<rect x="463.72402610243233" y="560.9243808589833" width="1.2923076923076922" height="19.07561914101666" fill="#3fb950" opacity="0.45"/>
<rect x="465.8834091358513" y="562.8752140103628" width="1.2923076923076922" height="17.12478598963719" fill="#f85149" opacity="0.45"/>
<rect x="468.04279216927034" y="554.4805047675572" width="1.2923076923076922" height="25.51949523244275" fill="#3fb950" opacity="0.45"/>
<rect x="470.2021752026894" y="555.3553228993682" width="1.2923076923076922" height="24.64467710063184" fill="#f85149" opacity="0.45"/>
<rect x="472.3615582361084" y="565.5819130125607" width="1.2923076923076922" height="14.418086987439324" fill="#f85149" opacity="0.45"/>
<rect x="474.5209412695274" y="541.033058947152" width="1.2923076923076922" height="38.96694105284803" fill="#f85149" opacity="0.45"/>
<rect x="476.6803243029464" y="559.7803556238349" width="1.2923076923076922" height="20.219644376165093" fill="#f85149" opacity="0.45"/>
<rect x="478.83970733636545" y="548.1811766227479" width="1.2923076923076922" height="31.8188233772521" fill="#3fb950" opacity="0.45"/>
<rect x="480.9990903697845" y="533.4113493016056" width="1.2923076923076922" height="46.58865069839442" fill="#3fb950" opacity="0.45"/>
<rect x="483.15847340320346" y="555.2790081956589" width="1.2923076923076922" height="24.72099180434111" fill="#f85149" opacity="0.45"/>
<rect x="485.31785643662255" y="546.3916053482801" width="1.2923076923076922" height="33.60839465171989" fill="#3fb950" opacity="0.45"/>
<rect x="487.4772394700416" y="557.5121021086517" width="1.2923076923076922" height="22.487897891348325" fill="#f85149" opacity="0.45"/>
<rect x="489.63662250346056" y="545.9093809088365" width="1.2923076923076922" height="34.09061909116349" fill="#3fb950" opacity="0.45"/>
<rect x="491.7960055368796" y="546.8898746360366" width="1.2923076923076922" height="33.11012536396345" fill="#3fb950" opacity="0.45"/>
<rect x="493.9553885702986" y="547.8017809004564" width="1.2923076923076922" height="32.19821909954362" fill="#f85149" opacity="0.45"/>
<rect x="496.11477160371766" y="546.9752678638935" width="1.2923076923076922" height="33.024732136106536" fill="#f85149" opacity="0.45"/>
<rect x="498.27415463713663" y="537.3114544130731" width="1.2923076923076922" height="42.68854558692692" fill="#3fb950" opacity="0.45"/>
<rect x="500.43353767055567" y="503.7559828342022" width="1.2923076923076922" height="76.2440171657978" fill="#3fb950" opacity="0.45"/>
<rect x="502.5929207039747" y="530.521649817709" width="1.2923076923076922" height="49.478350182291024" fill="#3fb950" opacity="0.45"/>
<rect x="504.75230373739373" y="505.9201613030512" width="1.2923076923076922" height="74.0798386969488" fill="#3fb950" opacity="0.45"/>
<rect x="506.91168677081276" y="498.6695560109215" width="1.2923076923076922" height="81.3304439890785" fill="#3fb950" opacity="0.45"/>
<rect x="509.07106980423174" y="510.45841319427245" width="1.2923076923076922" height="69.54158680572755" fill="#f85149" opacity="0.45"/>
<rect x="511.2304528376508" y="520.8469605048676" width="1.2923076923076922" height="59.15303949513236" fill="#f85149" opacity="0.45"/>
<rect x="513.3898358710697" y="531.4864004394506" width="1.2923076923076922" height="48.51359956054944" fill="#f85149" opacity="0.45"/>
<rect x="515.5492189044888" y="538.8465121492976" width="1.2923076923076922" height="41.15348785070239" fill="#3fb950" opacity="0.45"/>
<rect x="517.7086019379079" y="541.3045750392902" width="1.2923076923076922" height="38.69542496070983" fill="#f85149" opacity="0.45"/>
<rect x="519.8679849713268" y="542.3884222538242" width="1.2923076923076922" height="37.61157774617584" fill="#3fb950" opacity="0.45"/>
<rect x="522.0273680047459" y="543.6713279176244" width="1.2923076923076922" height="36.32867208237565" fill="#f85149" opacity="0.45"/>
<rect x="524.186751038165" y="543.6760377300072" width="1.2923076923076922" height="36.32396226999276" fill="#f85149" opacity="0.45"/>
<rect x="526.346134071584" y="519.9438047832318" width="1.2923076923076922" height="60.056195216768174" fill="#3fb950" opacity="0.45"/>
<rect x="528.5055171050029" y="542.8276024190936" width="1.2923076923076922" height="37.17239758090636" fill="#3fb950" opacity="0.45"/>
<rect x="530.664900138422" y="538.4210416050314" width="1.2923076923076922" height="41.578958394968595" fill="#3fb950" opacity="0.45"/>
<rect x="532.824283171841" y="533.7524630391241" width="1.2923076923076922" height="46.24753696087589" fill="#f85149" opacity="0.45"/>
<rect x="534.98366620526" y="543.5881387245315" width="1.2923076923076922" height="36.41186127546848" fill="#3fb950" opacity="0.45"/>
<rect x="537.143049238679" y="520.919116404885" width="1.2923076923076922" height="59.08088359511498" fill="#3fb950" opacity="0.45"/>
<rect x="539.302432272098" y="537.3429275047351" width="1.2923076923076922" height="42.657072495264856" fill="#f85149" opacity="0.45"/>
<rect x="541.461815305517" y="534.6874854300587" width="1.2923076923076922" height="45.3125145699413" fill="#f85149" opacity="0.45"/>
<rect x="543.6211983389361" y="544.9536300957152" width="1.2923076923076922" height="35.0463699042848" fill="#f85149" opacity="0.45"/>
<rect x="545.7805813723552" y="539.6006987355339" width="1.2923076923076922" height="40.39930126446609" fill="#3fb950" opacity="0.45"/>
<rect x="547.939964405774" y="523.8244540402036" width="1.2923076923076922" height="56.17554595979641" fill="#f85149" opacity="0.45"/>
<rect x="550.0993474391931" y="531.9676146962939" width="1.2923076923076922" height="48.032385303706064" fill="#f85149" opacity="0.45"/>
<rect x="552.2587304726122" y="527.5341331718979" width="1.2923076923076922" height="52.465866828102094" fill="#f85149" opacity="0.45"/>
<rect x="554.4181135060313" y="523.1527350880599" width="1.2923076923076922" height="56.8472649119401" fill="#f85149" opacity="0.45"/>
<rect x="556.5774965394502" y="536.5002121888048" width="1.2923076923076922" height="43.49978781119523" fill="#f85149" opacity="0.45"/>
<rect x="558.7368795728693" y="534.383197440058" width="1.2923076923076922" height="45.616802559942016" fill="#f85149" opacity="0.45"/>
<rect x="560.8962626062884" y="533.5666025599339" width="1.2923076923076922" height="46.433397440066074" fill="#f85149" opacity="0.45"/>
<rect x="563.0556456397073" y="532.6849755350123" width="1.2923076923076922" height="47.31502446498769" fill="#f85149" opacity="0.45"/>
<rect x="565.2150286731263" y="538.2616951392839" width="1.2923076923076922" height="41.738304860716084" fill="#f85149" opacity="0.45"/>
<rect x="567.3744117065454" y="541.4848860738064" width="1.2923076923076922" height="38.515113926193635" fill="#3fb950" opacity="0.45"/>
<rect x="569.5337947399644" y="539.9050785603164" width="1.2923076923076922" height="40.09492143968362" fill="#3fb950" opacity="0.45"/>
<rect x="571.6931777733834" y="546.3063433129686" width="1.2923076923076922" height="33.69365668703142" fill="#f85149" opacity="0.45"/>
<rect x="573.8525608068024" y="546.4553255676227" width="1.2923076923076922" height="33.54467443237729" fill="#f85149" opacity="0.45"/>
<rect x="576.0119438402214" y="534.9100929412396" width="1.2923076923076922" height="45.089907058760446" fill="#3fb950" opacity="0.45"/>
<rect x="578.1713268736404" y="517.7491765245754" width="1.2923076923076922" height="62.25082347542457" fill="#3fb950" opacity="0.45"/>
<rect x="580.3307099070595" y="536.7628990226317" width="1.2923076923076922" height="43.2371009773683" fill="#f85149" opacity="0.45"/>
<rect x="582.4900929404786" y="555.2163243974255" width="1.2923076923076922" height="24.783675602574476" fill="#f85149" opacity="0.45"/>
<rect x="584.6494759738974" y="551.2399177015034" width="1.2923076923076922" height="28.760082298496627" fill="#f85149" opacity="0.45"/>
<rect x="586.8088590073165" y="536.8940522103542" width="1.2923076923076922" height="43.105947789645825" fill="#f85149" opacity="0.45"/>
<rect x="588.9682420407356" y="549.2769098819028" width="1.2923076923076922" height="30.72309011809716" fill="#f85149" opacity="0.45"/>
<rect x="591.1276250741547" y="553.7050781082067" width="1.2923076923076922" height="26.29492189179325" fill="#3fb950" opacity="0.45"/>
<rect x="593.2870081075737" y="540.8881830191716" width="1.2923076923076922" height="39.111816980828394" fill="#f85149" opacity="0.45"/>
<rect x="595.4463911409927" y="526.5794712569041" width="1.2923076923076922" height="53.42052874309593" fill="#3fb950" opacity="0.45"/>
<rect x="597.6057741744116" y="542.0091708433328" width="1.2923076923076922" height="37.990829156667246" fill="#3fb950" opacity="0.45"/>
<rect x="599.7651572078307" y="542.789110526248" width="1.2923076923076922" height="37.21088947375199" fill="#3fb950" opacity="0.45"/>
<rect x="601.9245402412497" y="542.4424473440554" width="1.2923076923076922" height="37.55755265594462" fill="#3fb950" opacity="0.45"/>
<rect x="604.0839232746687" y="544.0053572576867" width="1.2923076923076922" height="35.99464274231332" fill="#3fb950" opacity="0.45"/>
<rect x="606.2433063080878" y="552.5222198795943" width="1.2923076923076922" height="27.47778012040567" fill="#f85149" opacity="0.45"/>
<rect x="608.4026893415067" y="547.4221490315831" width="1.2923076923076922" height="32.5778509684169" fill="#f85149" opacity="0.45"/>
<rect x="610.5620723749258" y="555.2438748319777" width="1.2923076923076922" height="24.756125168022322" fill="#f85149" opacity="0.45"/>
<rect x="612.7214554083448" y="552.1852780650222" width="1.2923076923076922" height="27.814721934977797" fill="#f85149" opacity="0.45"/>
<rect x="614.8808384417638" y="555.2613103212727" width="1.2923076923076922" height="24.73868967872727" fill="#3fb950" opacity="0.45"/>
<rect x="617.0402214751829" y="554.2051972108545" width="1.2923076923076922" height="25.79480278914548" fill="#f85149" opacity="0.45"/>
<rect x="619.199604508602" y="538.6728919346012" width="1.2923076923076922" height="41.32710806539876" fill="#3fb950" opacity="0.45"/>
<rect x="621.3589875420209" y="529.8587470046219" width="1.2923076923076922" height="50.14125299537807" fill="#f85149" opacity="0.45"/>
<rect x="623.5183705754399" y="559.1914060486383" width="1.2923076923076922" height="20.808593951361672" fill="#3fb950" opacity="0.45"/>
<rect x="625.677753608859" y="564.629455132331" width="1.2923076923076922" height="15.370544867668968" fill="#3fb950" opacity="0.45"/>
<rect x="627.837136642278" y="561.6426994032838" width="1.2923076923076922" height="18.357300596716186" fill="#3fb950" opacity="0.45"/>
<rect x="629.9965196756971" y="562.1163438502525" width="1.2923076923076922" height="17.88365614974748" fill="#f85149" opacity="0.45"/>
<rect x="632.155902709116" y="528.6751278592457" width="1.2923076923076922" height="51.32487214075434" fill="#3fb950" opacity="0.45"/>
<rect x="634.315285742535" y="562.6481590718898" width="1.2923076923076922" height="17.351840928110164" fill="#f85149" opacity="0.45"/>
<rect x="636.4746687759541" y="555.1748413145428" width="1.2923076923076922" height="24.825158685457154" fill="#3fb950" opacity="0.45"/>
<rect x="638.6340518093731" y="551.3570726446226" width="1.2923076923076922" height="28.642927355377424" fill="#f85149" opacity="0.45"/>
<rect x="640.7934348427922" y="549.0920202275493" width="1.2923076923076922" height="30.907979772450744" fill="#3fb950" opacity="0.45"/>
<rect x="642.9528178762112" y="560.3930379305099" width="1.2923076923076922" height="19.606962069490123" fill="#f85149" opacity="0.45"/>
<rect x="645.1122009096301" y="558.9313693042302" width="1.2923076923076922" height="21.068630695769798" fill="#f85149" opacity="0.45"/>
<rect x="647.2715839430492" y="562.8192603897129" width="1.2923076923076922" height="17.180739610287105" fill="#3fb950" opacity="0.45"/>
<rect x="649.4309669764683" y="561.4311251851783" width="1.2923076923076922" height="18.568874814821697" fill="#f85149" opacity="0.45"/>
<rect x="651.5903500098872" y="559.5809167161868" width="1.2923076923076922" height="20.419083283813166" fill="#3fb950" opacity="0.45"/>
<rect x="653.7497330433063" y="548.313182562016" width="1.2923076923076922" height="31.68681743798402" fill="#3fb950" opacity="0.45"/>
<rect x="655.9091160767254" y="559.9349398001813" width="1.2923076923076922" height="20.06506019981873" fill="#3fb950" opacity="0.45"/>
<rect x="658.0684991101443" y="546.5918707689647" width="1.2923076923076922" height="33.40812923103533" fill="#3fb950" opacity="0.45"/>
<rect x="660.2278821435633" y="548.7034147885646" width="1.2923076923076922" height="31.2965852114354" fill="#3fb950" opacity="0.45"/>
<rect x="662.3872651769824" y="550.0615593772011" width="1.2923076923076922" height="29.938440622798907" fill="#f85149" opacity="0.45"/>
<rect x="664.5466482104014" y="554.2251253585139" width="1.2923076923076922" height="25.77487464148612" fill="#f85149" opacity="0.45"/>
<rect x="666.7060312438205" y="565.8751021132132" width="1.2923076923076922" height="14.124897886786812" fill="#3fb950" opacity="0.45"/>
<rect x="668.8654142772394" y="560.798396657553" width="1.2923076923076922" height="19.201603342447015" fill="#f85149" opacity="0.45"/>
<rect x="671.0247973106584" y="567.6734632882285" width="1.2923076923076922" height="12.326536711771496" fill="#f85149" opacity="0.45"/>
<rect x="673.1841803440775" y="541.2794516668296" width="1.2923076923076922" height="38.72054833317043" fill="#f85149" opacity="0.45"/>
<rect x="675.3435633774965" y="548.3531175728621" width="1.2923076923076922" height="31.64688242713794" fill="#3fb950" opacity="0.45"/>
<rect x="677.5029464109156" y="561.0387807586474" width="1.2923076923076922" height="18.961219241352637" fill="#3fb950" opacity="0.45"/>
<rect x="679.6623294443345" y="562.0030066102071" width="1.2923076923076922" height="17.99699338979292" fill="#3fb950" opacity="0.45"/>
<rect x="681.8217124777535" y="571.6087411211408" width="1.2923076923076922" height="8.391258878859162" fill="#f85149" opacity="0.45"/>
<rect x="683.9810955111726" y="567.5973453733375" width="1.2923076923076922" height="12.402654626662525" fill="#3fb950" opacity="0.45"/>
<rect x="686.1404785445917" y="558.0964993025199" width="1.2923076923076922" height="21.903500697480126" fill="#f85149" opacity="0.45"/>
<rect x="688.2998615780106" y="564.3198669634928" width="1.2923076923076922" height="15.680133036507186" fill="#f85149" opacity="0.45"/>
<rect x="690.4592446114297" y="554.4307696735634" width="1.2923076923076922" height="25.569230326436582" fill="#f85149" opacity="0.45"/>
<rect x="692.6186276448487" y="564.9014303983785" width="1.2923076923076922" height="15.098569601621534" fill="#f85149" opacity="0.45"/>
<rect x="694.7780106782677" y="564.9788995964881" width="1.2923076923076922" height="15.021100403511923" fill="#3fb950" opacity="0.45"/>
<rect x="696.9373937116868" y="564.057206368175" width="1.2923076923076922" height="15.942793631824998" fill="#f85149" opacity="0.45"/>
<rect x="699.0967767451058" y="557.7509512569638" width="1.2923076923076922" height="22.249048743036155" fill="#f85149" opacity="0.45"/>
<rect x="701.2561597785248" y="546.8528652189549" width="1.2923076923076922" height="33.14713478104511" fill="#f85149" opacity="0.45"/>
<rect x="703.4155428119439" y="531.360048898893" width="1.2923076923076922" height="48.639951101107044" fill="#f85149" opacity="0.45"/>
<rect x="705.5749258453628" y="524.2782490550403" width="1.2923076923076922" height="55.721750944959695" fill="#f85149" opacity="0.45"/>
<rect x="707.7343088787818" y="547.7172797819087" width="1.2923076923076922" height="32.2827202180913" fill="#f85149" opacity="0.45"/>
<rect x="709.8936919122009" y="564.5200405493956" width="1.2923076923076922" height="15.479959450604383" fill="#f85149" opacity="0.45"/>
<rect x="712.0530749456199" y="559.2650837821834" width="1.2923076923076922" height="20.73491621781659" fill="#f85149" opacity="0.45"/>
<rect x="714.212457979039" y="563.4417296602811" width="1.2923076923076922" height="16.558270339718888" fill="#3fb950" opacity="0.45"/>
<rect x="716.371841012458" y="556.9108204341795" width="1.2923076923076922" height="23.089179565820473" fill="#3fb950" opacity="0.45"/>
<rect x="718.5312240458769" y="549.2541217367519" width="1.2923076923076922" height="30.745878263248073" fill="#f85149" opacity="0.45"/>
<rect x="720.690607079296" y="558.3476280730895" width="1.2923076923076922" height="21.65237192691052" fill="#f85149" opacity="0.45"/>
<rect x="722.849990112715" y="565.4516388148929" width="1.2923076923076922" height="14.548361185107069" fill="#3fb950" opacity="0.45"/>
<rect x="725.0093731461341" y="564.1927807446804" width="1.2923076923076922" height="15.807219255319637" fill="#3fb950" opacity="0.45"/>
<rect x="727.168756179553" y="560.8606606396407" width="1.2923076923076922" height="19.13933936035926" fill="#f85149" opacity="0.45"/>
<rect x="729.328139212972" y="524.0227515727059" width="1.2923076923076922" height="55.97724842729406" fill="#3fb950" opacity="0.45"/>
<rect x="731.4875222463911" y="559.4276707038044" width="1.2923076923076922" height="20.572329296195562" fill="#f85149" opacity="0.45"/>
<rect x="733.6469052798102" y="561.5492378338795" width="1.2923076923076922" height="18.450762166120512" fill="#f85149" opacity="0.45"/>
<rect x="735.8062883132291" y="547.474350545432" width="1.2923076923076922" height="32.525649454568" fill="#3fb950" opacity="0.45"/>
<rect x="737.9656713466482" y="556.0959441764013" width="1.2923076923076922" height="23.904055823598696" fill="#3fb950" opacity="0.45"/>
<rect x="740.1250543800672" y="541.8994807560517" width="1.2923076923076922" height="38.10051924394827" fill="#3fb950" opacity="0.45"/>
<rect x="742.2844374134862" y="540.9918120108512" width="1.2923076923076922" height="39.00818798914884" fill="#3fb950" opacity="0.45"/>
<rect x="744.4438204469053" y="548.0311841854935" width="1.2923076923076922" height="31.968815814506456" fill="#3fb950" opacity="0.45"/>
<rect x="746.6032034803243" y="536.2628717547657" width="1.2923076923076922" height="43.73712824523432" fill="#3fb950" opacity="0.45"/>
<rect x="748.7625865137433" y="504.7320553726193" width="1.2923076923076922" height="75.2679446273807" fill="#3fb950" opacity="0.45"/>
<rect x="750.9219695471623" y="488.43679984809114" width="1.2923076923076922" height="91.56320015190886" fill="#3fb950" opacity="0.45"/>
<rect x="753.0813525805813" y="532.8440858541779" width="1.2923076923076922" height="47.15591414582207" fill="#f85149" opacity="0.45"/>
<rect x="755.2407356140003" y="538.242160569261" width="1.2923076923076922" height="41.757839430738954" fill="#f85149" opacity="0.45"/>
<rect x="757.4001186474194" y="556.1223269972985" width="1.2923076923076922" height="23.8776730027015" fill="#f85149" opacity="0.45"/>
<rect x="759.5595016808384" y="555.4118012902" width="1.2923076923076922" height="24.588198709800054" fill="#f85149" opacity="0.45"/>
<rect x="761.7188847142575" y="561.6540344392138" width="1.2923076923076922" height="18.345965560786226" fill="#3fb950" opacity="0.45"/>
<rect x="763.8782677476764" y="558.7564502833335" width="1.2923076923076922" height="21.243549716666507" fill="#3fb950" opacity="0.45"/>
<rect x="766.0376507810954" y="553.0704210501628" width="1.2923076923076922" height="26.92957894983715" fill="#3fb950" opacity="0.45"/>
<rect x="768.1970338145145" y="518.9872405763284" width="1.2923076923076922" height="61.01275942367158" fill="#3fb950" opacity="0.45"/>
<rect x="770.3564168479336" y="530.5310825617294" width="1.2923076923076922" height="49.46891743827064" fill="#f85149" opacity="0.45"/>
<rect x="772.5157998813526" y="545.1534625809998" width="1.2923076923076922" height="34.84653741900024" fill="#f85149" opacity="0.45"/>
<rect x="774.6751829147715" y="551.1615826325935" width="1.2923076923076922" height="28.838417367406464" fill="#f85149" opacity="0.45"/>
<rect x="776.8345659481906" y="533.3544773331373" width="1.2923076923076922" height="46.64552266686269" fill="#f85149" opacity="0.45"/>
<rect x="778.9939489816096" y="559.7751079220154" width="1.2923076923076922" height="20.224892077984578" fill="#f85149" opacity="0.45"/>
<rect x="781.1533320150287" y="561.1004806127895" width="1.2923076923076922" height="18.89951938721049" fill="#3fb950" opacity="0.45"/>
<rect x="783.3127150484477" y="560.5862058344837" width="1.2923076923076922" height="19.413794165516265" fill="#3fb950" opacity="0.45"/>
<rect x="785.4720980818666" y="564.9854723430169" width="1.2923076923076922" height="15.014527656983091" fill="#f85149" opacity="0.45"/>
<rect x="787.6314811152857" y="568.5514431603856" width="1.2923076923076922" height="11.448556839614412" fill="#f85149" opacity="0.45"/>
<rect x="789.7908641487047" y="564.4902860800794" width="1.2923076923076922" height="15.509713919920614" fill="#3fb950" opacity="0.45"/>
<rect x="791.9502471821237" y="567.4902922562208" width="1.2923076923076922" height="12.509707743779245" fill="#f85149" opacity="0.45"/>
<rect x="794.1096302155428" y="568.8944329513047" width="1.2923076923076922" height="11.10556704869532" fill="#3fb950" opacity="0.45"/>
<rect x="796.2690132489618" y="570.1709495381397" width="1.2923076923076922" height="9.829050461860334" fill="#f85149" opacity="0.45"/>
<rect x="798.4283962823808" y="569.5776181319239" width="1.2923076923076922" height="10.422381868076059" fill="#f85149" opacity="0.45"/>
<rect x="800.5877793157999" y="556.641495257551" width="1.2923076923076922" height="23.358504742448986" fill="#3fb950" opacity="0.45"/>
<rect x="802.7471623492188" y="561.0636811037806" width="1.2923076923076922" height="18.936318896219404" fill="#3fb950" opacity="0.45"/>
<rect x="804.9065453826379" y="564.7556623610888" width="1.2923076923076922" height="15.244337638911247" fill="#f85149" opacity="0.45"/>
<rect x="807.065928416057" y="568.5134366799583" width="1.2923076923076922" height="11.486563320041682" fill="#3fb950" opacity="0.45"/>
<rect x="809.225311449476" y="557.0860543171854" width="1.2923076923076922" height="22.913945682814642" fill="#f85149" opacity="0.45"/>
<rect x="811.3846944828949" y="559.3618251652249" width="1.2923076923076922" height="20.6381748347751" fill="#f85149" opacity="0.45"/>
<rect x="813.544077516314" y="561.7754269015522" width="1.2923076923076922" height="18.224573098447763" fill="#f85149" opacity="0.45"/>
<rect x="815.703460549733" y="568.0924004437295" width="1.2923076923076922" height="11.907599556270497" fill="#3fb950" opacity="0.45"/>
<rect x="817.8628435831521" y="565.2524754115904" width="1.2923076923076922" height="14.747524588409647" fill="#3fb950" opacity="0.45"/>
<rect x="820.0222266165711" y="558.985814210607" width="1.2923076923076922" height="21.014185789392968" fill="#f85149" opacity="0.45"/>
<rect x="822.18160964999" y="564.2465303305661" width="1.2923076923076922" height="15.753469669433912" fill="#3fb950" opacity="0.45"/>
<rect x="824.3409926834091" y="567.150490444157" width="1.2923076923076922" height="12.849509555843042" fill="#f85149" opacity="0.45"/>
<rect x="826.5003757168281" y="564.8570741987496" width="1.2923076923076922" height="15.142925801250385" fill="#f85149" opacity="0.45"/>
<rect x="828.6597587502472" y="562.3111647802996" width="1.2923076923076922" height="17.688835219700422" fill="#f85149" opacity="0.45"/>
<rect x="830.8191417836662" y="570.1025195064141" width="1.2923076923076922" height="9.897480493585931" fill="#3fb950" opacity="0.45"/>
<rect x="832.9785248170851" y="566.2872303756035" width="1.2923076923076922" height="13.712769624396515" fill="#f85149" opacity="0.45"/>
<rect x="835.1379078505042" y="569.5832594113798" width="1.2923076923076922" height="10.4167405886202" fill="#3fb950" opacity="0.45"/>
<rect x="837.2972908839233" y="563.8717788243848" width="1.2923076923076922" height="16.12822117561518" fill="#f85149" opacity="0.45"/>
<rect x="839.4566739173422" y="562.6729019859686" width="1.2923076923076922" height="17.327098014031435" fill="#f85149" opacity="0.45"/>
<rect x="841.6160569507613" y="540.7562426761762" width="1.2923076923076922" height="39.24375732382384" fill="#f85149" opacity="0.45"/>
<rect x="843.7754399841804" y="561.9484173920303" width="1.2923076923076922" height="18.05158260796975" fill="#3fb950" opacity="0.45"/>
<rect x="845.9348230175993" y="567.7852393369827" width="1.2923076923076922" height="12.214760663017273" fill="#3fb950" opacity="0.45"/>
<rect x="848.0942060510184" y="567.5553244010182" width="1.2923076923076922" height="12.444675598981803" fill="#f85149" opacity="0.45"/>
<rect x="850.2535890844373" y="561.0280098506629" width="1.2923076923076922" height="18.971990149337103" fill="#3fb950" opacity="0.45"/>
<rect x="852.4129721178564" y="568.399220449858" width="1.2923076923076922" height="11.600779550141965" fill="#3fb950" opacity="0.45"/>
<rect x="854.5723551512755" y="565.9294158270445" width="1.2923076923076922" height="14.070584172955478" fill="#3fb950" opacity="0.45"/>
<rect x="856.7317381846944" y="553.6538474191943" width="1.2923076923076922" height="26.346152580805665" fill="#3fb950" opacity="0.45"/>
<rect x="858.8911212181134" y="558.8426569049725" width="1.2923076923076922" height="21.1573430950275" fill="#f85149" opacity="0.45"/>
<rect x="861.0505042515325" y="559.3373446362372" width="1.2923076923076922" height="20.662655363762838" fill="#f85149" opacity="0.45"/>
<rect x="863.2098872849515" y="565.7049847394812" width="1.2923076923076922" height="14.295015260518767" fill="#3fb950" opacity="0.45"/>
<rect x="865.3692703183706" y="561.3847092625853" width="1.2923076923076922" height="18.61529073741474" fill="#3fb950" opacity="0.45"/>
<rect x="867.5286533517896" y="562.9110820522986" width="1.2923076923076922" height="17.08891794770136" fill="#f85149" opacity="0.45"/>
<rect x="869.6880363852085" y="565.418880036285" width="1.2923076923076922" height="14.581119963714968" fill="#3fb950" opacity="0.45"/>
<rect x="871.8474194186276" y="564.5292109083251" width="1.2923076923076922" height="15.470789091674874" fill="#f85149" opacity="0.45"/>
<rect x="874.0068024520466" y="560.8441303789095" width="1.2923076923076922" height="19.15586962109046" fill="#f85149" opacity="0.45"/>
<rect x="876.1661854854657" y="562.180011592577" width="1.2923076923076922" height="17.81998840742301" fill="#3fb950" opacity="0.45"/>
<rect x="878.3255685188847" y="562.9996894975201" width="1.2923076923076922" height="17.00031050247992" fill="#f85149" opacity="0.45"/>
<rect x="880.4849515523036" y="554.2423771782453" width="1.2923076923076922" height="25.757622821754694" fill="#f85149" opacity="0.45"/>
<rect x="882.6443345857227" y="567.1316380753707" width="1.2923076923076922" height="12.868361924629312" fill="#f85149" opacity="0.45"/>
<rect x="884.8037176191418" y="559.7346612602421" width="1.2923076923076922" height="20.265338739757908" fill="#f85149" opacity="0.45"/>
<rect x="886.9631006525607" y="560.5641130098238" width="1.2923076923076922" height="19.435886990176186" fill="#3fb950" opacity="0.45"/>
<rect x="889.1224836859798" y="520.104843632816" width="1.2923076923076922" height="59.89515636718397" fill="#3fb950" opacity="0.45"/>
<rect x="891.2818667193989" y="542.4737498854083" width="1.2923076923076922" height="37.526250114591676" fill="#f85149" opacity="0.45"/>
<rect x="893.4412497528178" y="552.4844757842579" width="1.2923076923076922" height="27.51552421574206" fill="#3fb950" opacity="0.45"/>
<rect x="895.6006327862369" y="551.3975061871414" width="1.2923076923076922" height="28.602493812858597" fill="#3fb950" opacity="0.45"/>
<rect x="897.7600158196559" y="555.9689235538615" width="1.2923076923076922" height="24.031076446138513" fill="#3fb950" opacity="0.45"/>
<rect x="899.9193988530749" y="553.9506836726114" width="1.2923076923076922" height="26.049316327388624" fill="#3fb950" opacity="0.45"/>
<rect x="902.078781886494" y="539.1055255918509" width="1.2923076923076922" height="40.89447440814911" fill="#3fb950" opacity="0.45"/>
<rect x="904.238164919913" y="557.8291551333282" width="1.2923076923076922" height="22.170844866671814" fill="#f85149" opacity="0.45"/>
<rect x="906.3975479533319" y="544.5229380881387" width="1.2923076923076922" height="35.477061911861256" fill="#3fb950" opacity="0.45"/>
<rect x="908.556930986751" y="525.8903036962107" width="1.2923076923076922" height="54.10969630378929" fill="#3fb950" opacity="0.45"/>
<rect x="910.71631402017" y="541.5946811151238" width="1.2923076923076922" height="38.40531888487624" fill="#f85149" opacity="0.45"/>
<rect x="912.8756970535891" y="555.5977011271539" width="1.2923076923076922" height="24.40229887284613" fill="#3fb950" opacity="0.45"/>
<rect x="915.035080087008" y="548.5109553243365" width="1.2923076923076922" height="31.489044675663536" fill="#f85149" opacity="0.45"/>
<rect x="917.194463120427" y="551.2139022197334" width="1.2923076923076922" height="28.786097780266573" fill="#f85149" opacity="0.45"/>
<rect x="919.3538461538461" y="471.6666666666667" width="1.2923076923076922" height="108.33333333333331" fill="#3fb950" opacity="0.45"/>
<polyline points="80.0,76.696136391057 82.15938303341902,187.1060705899822 84.31876606683805,191.8934932110738 86.47814910025707,235.5787246285348 88.63753213367609,228.39759069689742 90.79691516709512,264.90168818272093 92.95629820051414,274.1773195110859 95.11568123393316,285.24823432236025 97.27506426735218,234.38186897326193 99.43444730077121,222.11409850671467 101.59383033419023,204.75969150525754 103.75321336760925,204.75969150525754 105.91259640102828,200.27148279798416 108.0719794344473,164.96424096743357 110.23136246786632,149.10590353506754 112.39074550128535,190.99585146961923 114.55012853470437,205.35811933289395 116.70951156812339,200.27148279798416 118.86889460154242,228.6968046107156 121.02827763496143,211.94082543689498 123.18766066838046,180.224150572163 125.34704370179949,191.8934932110738 127.5064267352185,155.98782355288677 129.66580976863753,147.31062005215824 131.82519280205656,88.3654790299677 133.98457583547557,91.35761816815001 136.1439588688946,98.23953818596922 138.30334190231363,137.735774809975 140.46272493573264,170.3500914161616 142.62210796915167,178.42886708925369 144.7814910025707,164.96424096743357 146.9408740359897,158.08232094961437 149.10025706940874,162.5705296568877 151.25964010282777,208.35025847107624 153.41902313624678,182.61786188270884 155.5784061696658,191.8934932110738 157.73778920308484,175.73594186488964 159.89717223650385,192.79113495252855 162.05655526992285,187.4052845038005 164.2159383033419,155.98782355288677 166.37532133676092,160.17681834634192 168.53470437017995,175.4367279510714 170.69408740359899,173.3422305543438 172.853470437018,152.99568441470447 175.012853470437,163.4681713983424 177.17223650385603,158.08232094961437 179.33161953727506,160.7752461739784 181.4910025706941,168.255594019434 183.65038560411313,186.80685667616405 185.80976863753213,202.0667662808935 187.96915167095113,202.9644080223482 190.12853470437017,203.56283584998465 192.2879177377892,206.25576107434867 194.44730077120823,204.16126367762106 196.60668380462727,219.42117328235065 198.7660668380463,218.5235315408959 200.9254498714653,220.9172428514418 203.0848329048843,220.31881502380523 205.24421593830334,222.11409850671467 207.40359897172237,233.4842272318072 209.56298200514138,248.1457090089002 211.7223650385604,263.1064046998115 213.88174807197942,257.4213403372653 216.04113110539845,264.60247426890265 218.20051413881748,275.67338908017706 220.35989717223651,298.114432616544 222.51928020565555,309.4845613416365 224.67866323907455,323.8468292049114 226.83804627249359,308.5869196001819 228.9974293059126,293.6262239092706 231.15681233933162,298.114432616544 233.31619537275066,289.4372291158155 235.47557840616966,279.26395604599577 237.6349614395887,289.1380152019972 239.7943444730077,308.5869196001819 241.95372750642673,312.775914393637 244.11311053984574,304.6971387205449 246.2724935732648,301.10657175472625 248.4318766066838,307.9884917725454 250.59125964010283,298.41364653036226 252.75064267352187,307.6892778587272 254.91002570694087,279.26395604599577 257.0694087403599,264.60247426890265 259.2287917737789,279.8623838736322 261.38817480719797,274.4765334249041 263.54755784061695,281.9568812703598 265.706940874036,261.9095490445386 267.866323907455,255.92527076817416 270.025706940874,272.980463855813 272.1850899742931,254.72841511290125 274.34447300771205,248.74413683653677 276.50385604113114,242.16143073253573 278.6632390745501,244.85435595689972 280.82262210796915,249.04335075035496 282.9820051413882,238.27164985289883 285.14138817480716,214.33453674744075 287.30077120822625,250.2402064056278 289.4601542416452,243.6575003016269 291.61953727506426,234.38186897326193 293.7789203084833,245.75199769835447 295.93830334190227,228.6968046107156 298.09768637532136,200.27148279798416 300.25706940874034,184.1139314518 302.4164524421594,179.62572274452657 304.5758354755784,192.49192103871027 306.73521850899743,196.38170191834726 308.89460154241647,193.38956278016497 311.05398457583544,208.64947238489452 313.21336760925453,203.56283584998465 315.3727506426735,206.8541889019851 317.5321336760926,204.46047759143934 319.6915167095116,236.4763663699895 321.8508997429306,229.29523243835206 324.01028277634964,191.59427929725567 326.1696658097686,192.19270712489208 328.32904884318765,191.59427929725567 330.4884318766067,182.31864796889062 332.64781491002566,183.81471753798172 334.80719794344475,164.96424096743357 336.9665809768638,164.06659922597885 339.12596401028276,179.62572274452657 341.2853470437018,281.65766735654154 343.4447300771208,252.63391771617367 345.60411311053986,245.75199769835447 347.76349614395883,218.82274545471418 349.9228791773779,187.70449841761865 352.0822622107969,187.1060705899822 354.24164524421593,151.20040093179514 356.40102827763496,164.06659922597885 358.560411311054,167.05873836416114 360.71979434447303,180.5233644859813 362.879177377892,180.82257839979945 365.0385604113111,206.8541889019851 367.1979434447301,212.83846717834962 369.3573264781491,233.4842272318072 371.51670951156814,236.17715245617123 373.67609254498717,219.72038719616882 375.83547557840615,241.26378899108116 377.9948586118252,251.13784814708254 380.1542416452442,238.57086376671708 382.31362467866325,239.76771942199 384.4730077120822,237.6732220252624 386.6323907455013,248.74413683653677 388.79177377892034,252.03548988853726 390.9511568123393,249.64177857799137 393.11053984575835,243.35828638780873 395.2699228791774,252.03548988853726 397.4293059125964,250.83863423326434 399.5886889460154,249.64177857799137 401.7480719794344,242.16143073253573 403.90745501285346,245.15356987071806 406.0668380462725,256.82291250962885 408.22622107969147,257.72055425108346 410.38560411311056,272.980463855813 412.5449871465296,272.68124994199474 414.70437017994857,276.5710308216318 416.8637532133676,255.32684294053772 419.02313624678663,255.0276290267194 421.18251928020567,223.01174024816927 423.34190231362464,228.6968046107156 425.50128534704373,243.95671421544515 427.6606683804627,252.3347038023554 429.82005141388174,216.12982023035016 431.9794344473008,226.90152112780626 434.1388174807198,229.89366026598847 436.2982005141388,223.909381989624 438.4575835475578,231.98815766271605 440.6169665809769,240.66536116344457 442.7763496143959,255.0276290267194 444.9357326478149,263.4056186136298 447.09511568123395,277.76788647690466 449.254498714653,273.27967776963135 451.41388174807196,264.0040464412662 453.573264781491,249.94099249180965 455.73264781491,248.4449229227185 457.89203084832906,254.72841511290125 460.05141388174803,256.82291250962885 462.2107969151671,234.38186897326193 464.37017994858616,232.5865854903525 466.52956298200513,241.5630029048993 468.68894601542416,229.89366026598847 470.8483290488432,230.79130200744316 473.00771208226223,236.7755802838077 475.1670951156812,238.57086376671708 477.32647814910024,243.6575003016269 479.4858611825193,231.68894374889788 481.6452442159383,210.44475586780382 483.8046272493573,214.9329645750772 485.96401028277637,205.0589054190758 488.1233933161954,207.75183064343983 490.2827763496144,197.57855757362015 492.4421593830334,190.0982097281645 494.60154241645245,190.99585146961923 496.7609254498715,198.1769854012566 498.92030848329046,192.79113495252855 501.0796915167095,169.45244967470688 503.2390745501285,162.5705296568877 505.39845758354755,150.0035452765223 507.5578406169666,120.38136780851787 509.71722365038556,151.79882875943156 511.8766066838046,161.07446008779664 514.0359897172236,162.5705296568877 516.1953727506427,157.7831070357961 518.3547557840618,160.17681834634192 520.5141388174807,158.97996269106906 522.6735218508998,167.95638010561572 524.8329048843189,172.14537489907093 526.9922879177378,146.11376439688536 529.1516709511568,141.62555568961193 531.3110539845759,130.2554269645194 533.4704370179949,151.49961484561342 535.6298200514138,147.6098339659764 537.7892030848329,132.64913827506513 539.9485861182519,136.8381330685203 542.1079691516709,148.8066896212494 544.26735218509,151.20040093179514 546.4267352185091,135.04284958561098 548.5861182519279,137.735774809975 550.745501285347,144.61769482779422 552.9048843187661,168.55480793325228 555.0642673521852,179.92493665834482 557.2236503856041,181.42100622743598 559.3830334190231,182.31864796889062 561.5424164524422,198.77541322889303 563.7017994858612,216.42903414416833 565.8611825192802,229.5944463521703 568.0205655526993,217.6258897994412 570.1799485861183,206.25576107434867 572.3393316195372,226.90152112780626 574.4987146529563,232.5865854903525 576.6580976863753,226.60230721398798 578.8174807197943,212.83846717834962 580.9768637532134,224.80702373107866 583.1362467866325,231.09051592126144 585.2956298200513,232.28737157653433 587.4550128534704,243.95671421544515 589.6143958868895,249.34256466417318 591.7737789203086,247.24806726744563 593.9331619537276,262.8071907859934 596.0925449871465,233.7834411456255 598.2519280205655,233.18501331798896 600.4113110539846,226.90152112780626 602.5706940874036,222.11409850671467 604.7300771208226,217.0274619718048 606.8894601542416,220.31881502380523 609.0488431876606,230.19287417980672 611.2082262210797,239.16929159435355 613.3676092544987,242.75985856017215 615.5269922879177,235.8779385423531 617.6863753213368,245.15356987071806 619.8457583547558,230.19287417980672 622.0051413881748,254.429201199083 624.1645244215938,243.6575003016269 626.3239074550129,243.6575003016269 628.4832904884319,237.3740081114441 630.642673521851,239.4685055081717 632.8020565552699,217.6258897994412 634.9614395886889,220.01960110998706 637.120822622108,213.43689500598614 639.280205655527,224.5078098172604 641.4395886889461,208.05104455725797 643.598971722365,211.0431836954403 645.758354755784,223.01174024816927 647.9177377892031,222.11409850671467 650.0771208226222,226.30309330016982 652.236503856041,224.20859590344224 654.3958868894601,204.46047759143934 656.5552699228792,203.26362193616637 658.7146529562982,196.08248800452898 660.8740359897172,193.09034886634672 663.0334190231363,198.77541322889303 665.1928020565553,205.9565471605305 667.3521850899743,205.9565471605305 669.5115681233933,214.33453674744075 671.6709511568123,218.5235315408959 673.8303341902314,248.4449229227185 675.9897172236504,234.68108288708012 678.1491002570694,233.18501331798896 680.3084832904884,231.38972983507963 682.4678663239074,233.18501331798896 684.6272493573265,229.5944463521703 686.7866323907456,237.3740081114441 688.9460154241644,246.6496394398092 691.1053984575835,260.1142655616293 693.2647814910026,261.6103351307205 695.4241645244216,257.4213403372653 697.5835475578407,258.31898207871996 699.7429305912597,264.90168818272093 701.9023136246786,279.8623838736322 704.0616966580977,295.12229347836166 706.2210796915167,304.39792480672673 708.3804627249357,310.6814169969095 710.5398457583548,313.97277004891 712.6992287917737,314.5711978765464 714.8586118251928,312.4767004798188 717.0179948586119,308.5869196001819 719.1773778920308,316.66569527327397 721.3367609254499,323.5476152910932 723.4961439588689,320.5554761529109 725.655526992288,314.5711978765464 727.8149100257069,316.0672674456375 729.9742930591259,303.500283065272 732.133676092545,310.3822030830912 734.2930591259641,312.4767004798188 736.4524421593829,298.41364653036226 738.611825192802,295.72072130599815 740.7712082262211,294.5238656507252 742.9305912596401,281.65766735654154 745.0899742930592,270.8859664590854 747.2493573264782,257.72055425108346 749.4087403598971,244.2559281292633 751.5681233933162,226.60230721398798 753.7275064267352,244.2559281292633 755.8868894601542,257.72055425108346 758.0462724935733,261.01190730308406 760.2056555269922,271.4843942867219 762.3650385604113,267.5946134070849 764.5244215938303,263.1064046998115 766.6838046272493,253.23234554381008 768.8431876606684,236.17715245617123 771.0025706940875,246.94885335362733 773.1619537275064,251.43706206090081 775.3213367609254,259.2166238201746 777.4807197943445,284.3505925809055 779.6401028277635,296.9175769612711 781.7994858611826,283.15373692563264 783.9588688946016,281.0592395289051 786.1182519280205,283.452950839451 788.2776349614396,286.4450899776332 790.4370179948586,278.9647421321775 792.5964010282776,283.15373692563264 794.7557840616967,281.3584534427233 796.9151670951156,286.14587606381497 799.0745501285347,289.7364430296336 801.2339331619538,281.9568812703598 803.3933161953727,277.4686725630864 805.5526992287918,283.452950839451 807.7120822622109,281.65766735654154 809.8714652956298,303.20106915145385 812.0308483290488,319.95704832527446 814.1902313624679,323.24840137727494 816.3496143958869,319.95704832527446 818.508997429306,304.9963526343632 820.6683804627249,312.775914393637 822.8277634961439,296.0199352198164 824.987146529563,300.5081439270897 827.146529562982,308.8861335140001 829.3059125964011,309.78377525545477 831.46529562982,305.59478046199956 833.624678663239,308.5869196001819 835.7840616966581,303.500283065272 837.9434447300772,316.0672674456375 840.1028277634961,323.8468292049114 842.2622107969152,366.0359910532812 844.4215938303342,346.5870866550966 846.5809768637532,344.492589258369 848.7403598971723,354.3666484143704 850.8997429305912,330.7287492227305 853.0591259640103,330.42953530891225 855.2185089974294,326.5397544292754 857.3778920308483,299.0120743579987 859.5372750642673,304.9963526343632 861.6966580976864,332.52403270563985 863.8560411311054,328.3350379121848 866.0154241645245,314.8704117903645 868.1748071979434,319.358620497638 870.3341902313624,312.4767004798188 872.4935732647815,324.74447094636605 874.6529562982005,326.2405405154572 876.8123393316196,325.94132660163893 878.9717223650385,332.52403270563985 881.1311053984575,347.185514482733 883.2904884318766,348.0831562241877 885.4498714652957,352.2721510176428 887.6092544987146,351.9729371038246 889.7686375321337,321.15390398054734 891.9280205655527,337.01224141291334 894.0874035989717,329.2326796536394 896.2467866323908,321.7523318081838 898.4061696658098,316.0672674456375 900.5655526992288,314.5711978765464 902.7249357326479,307.0908500310908 904.8843187660668,307.6892778587272 907.0437017994858,302.0042134961809 909.2030848329049,283.452950839451 911.3624678663239,305.8939943758179 913.521850899743,304.09871089290846 915.6812339331619,321.7523318081838 917.8406169665809,328.634251826003 920.0,287.34273171908785" stroke="#58a6ff" stroke-width="1.8" fill="none"/>
<line x1="80" y1="299.0120743579987" x2="920" y2="299.0120743579987" stroke="#f0883e" stroke-width="1.5" stroke-dasharray="6,3"/>
<text x="925" y="303.0120743579987" font-size="11" fill="#f0883e" font-weight="bold">颈线 20.47</text>
<line x1="80" y1="231.9881576627162" x2="920" y2="231.9881576627162" stroke="#a371f7" stroke-width="1.2" stroke-dasharray="4,4"/>
<text x="925" y="235.9881576627162" font-size="11" fill="#a371f7" font-weight="bold">目标 22.71 (+8.9%)</text>
<circle cx="842.2622107969152" cy="366.0359910532812" r="6" fill="#238636" stroke="#fff" stroke-width="2"/>
<text x="842.2622107969152" y="386.0359910532812" text-anchor="middle" font-size="10" fill="#3fb950">左底 18.23</text>
<circle cx="885.4498714652957" cy="352.2721510176428" r="6" fill="#8957e5" stroke="#fff" stroke-width="2"/>
<text x="885.4498714652957" y="372.2721510176428" text-anchor="middle" font-size="10" fill="#bc8cff">右底 18.69</text>
<circle cx="909.2030848329049" cy="299.0120743579987" r="7" fill="#f0883e" stroke="#fff" stroke-width="2"/>
<text x="909.2030848329049" y="287.0120743579987" text-anchor="middle" font-size="10" fill="#f0883e">突破</text>
<line x1="920.0" y1="287.34273171908785" x2="920" y2="287.34273171908785" stroke="#f85149" stroke-width="1"/>
<text x="925" y="291.34273171908785" font-size="11" fill="#f85149" font-weight="bold">现价 20.86</text>
<text x="80" y="598" font-size="13" fill="#58a6ff" font-weight="bold">筛选高分原因:</text>
<text x="90" y="618" font-size="11" fill="#c9d1d9">  1. 突破仅5天</text>
<text x="90" y="636" font-size="11" fill="#c9d1d9">  2. 右底缩量(52%)</text>
<text x="90" y="654" font-size="11" fill="#c9d1d9">  3. 形态跨度适中(20根K线)</text>
<text x="90" y="672" font-size="11" fill="#c9d1d9">  4. MACD改善</text>
<text x="90" y="690" font-size="11" fill="#c9d1d9">  5. 右底高于左底</text>
<text x="928" y="80" font-size="11" fill="#8b949e">突破日: 2026-05-11</text>
<text x="928" y="98" font-size="11" fill="#8b949e">突破后涨幅: 1.9%</text>
<text x="928" y="116" font-size="11" fill="#8b949e">目标空间: 8.9%</text>
<text x="928" y="134" font-size="11" fill="#8b949e">形态跨度: 20根K线</text>
</svg>