<svg xmlns="http://www.w3.org/2000/svg" viewBox="0 0 1000 700" width="1000" height="700">
<rect width="1000" height="700" fill="#0d1117"/>
<text x="500.0" y="24" text-anchor="middle" font-size="18" fill="#58a6ff" font-weight="bold">多氟多 (002407.SZ)</text>
<text x="500.0" y="46" text-anchor="middle" font-size="14" fill="#8b949e">双底突破 | 评分:71/100 | 突破后涨幅:2.3% | 目标空间:21.4%</text>
<line x1="80" y1="382.4" x2="920" y2="382.4" stroke="#21262d" stroke-width="0.5"/>
<text x="72" y="386.4" text-anchor="end" font-size="10" fill="#8b949e">10.44</text>
<line x1="80" y1="317.92" x2="920" y2="317.92" stroke="#21262d" stroke-width="0.5"/>
<text x="72" y="321.92" text-anchor="end" font-size="10" fill="#8b949e">16.64</text>
<line x1="80" y1="253.43999999999994" x2="920" y2="253.43999999999994" stroke="#21262d" stroke-width="0.5"/>
<text x="72" y="257.43999999999994" text-anchor="end" font-size="10" fill="#8b949e">22.85</text>
<line x1="80" y1="188.95999999999995" x2="920" y2="188.95999999999995" stroke="#21262d" stroke-width="0.5"/>
<text x="72" y="192.95999999999995" text-anchor="end" font-size="10" fill="#8b949e">29.05</text>
<line x1="80" y1="124.47999999999998" x2="920" y2="124.47999999999998" stroke="#21262d" stroke-width="0.5"/>
<text x="72" y="128.47999999999996" text-anchor="end" font-size="10" fill="#8b949e">35.26</text>
<line x1="80" y1="60.0" x2="920" y2="60.0" stroke="#21262d" stroke-width="0.5"/>
<text x="72" y="64.0" text-anchor="end" font-size="10" fill="#8b949e">41.46</text>
<text x="80.0" y="396.4" text-anchor="middle" font-size="9" fill="#8b949e">2024-10-08</text>
<text x="183.65038560411313" y="396.4" text-anchor="middle" font-size="9" fill="#8b949e">2024-12-13</text>
<text x="287.30077120822625" y="396.4" text-anchor="middle" font-size="9" fill="#8b949e">2025-02-28</text>
<text x="390.9511568123393" y="396.4" text-anchor="middle" font-size="9" fill="#8b949e">2025-05-13</text>
<text x="494.60154241645245" y="396.4" text-anchor="middle" font-size="9" fill="#8b949e">2025-07-21</text>
<text x="598.2519280205655" y="396.4" text-anchor="middle" font-size="9" fill="#8b949e">2025-09-25</text>
<text x="701.9023136246786" y="396.4" text-anchor="middle" font-size="9" fill="#8b949e">2025-12-10</text>
<text x="805.5526992287918" y="396.4" text-anchor="middle" font-size="9" fill="#8b949e">2026-02-26</text>
<text x="909.2030848329049" y="396.4" text-anchor="middle" font-size="9" fill="#8b949e">2026-05-11</text>
<rect x="688.9460154241644" y="60" width="224.57583547557851" height="520.0" fill="#238636" opacity="0.10" rx="4"/>
<text x="801.2339331619537" y="52" text-anchor="middle" font-size="11" fill="#3fb950" font-weight="bold">双底区域</text>
<rect x="79.35384615384615" y="552.2773007316415" width="1.2923076923076922" height="27.722699268358497" fill="#3fb950" opacity="0.45"/>
<rect x="81.51322918726517" y="558.3011098907007" width="1.2923076923076922" height="21.698890109299327" fill="#f85149" opacity="0.45"/>
<rect x="83.6726122206842" y="567.3395492445633" width="1.2923076923076922" height="12.660450755436727" fill="#f85149" opacity="0.45"/>
<rect x="85.83199525410322" y="570.1540614805799" width="1.2923076923076922" height="9.845938519420088" fill="#f85149" opacity="0.45"/>
<rect x="87.99137828752224" y="571.6993372595732" width="1.2923076923076922" height="8.300662740426787" fill="#3fb950" opacity="0.45"/>
<rect x="90.15076132094127" y="572.6027114186022" width="1.2923076923076922" height="7.397288581397788" fill="#f85149" opacity="0.45"/>
<rect x="92.31014435436029" y="573.5655921771408" width="1.2923076923076922" height="6.434407822859157" fill="#f85149" opacity="0.45"/>
<rect x="94.46952738777931" y="573.3002651100039" width="1.2923076923076922" height="6.69973488999608" fill="#f85149" opacity="0.45"/>
<rect x="96.62891042119833" y="568.8034373457701" width="1.2923076923076922" height="11.196562654229865" fill="#3fb950" opacity="0.45"/>
<rect x="98.78829345461736" y="568.9876850385019" width="1.2923076923076922" height="11.012314961498078" fill="#3fb950" opacity="0.45"/>
<rect x="100.94767648803638" y="570.395380249691" width="1.2923076923076922" height="9.604619750308984" fill="#3fb950" opacity="0.45"/>
<rect x="103.1070595214554" y="567.989532239314" width="1.2923076923076922" height="12.01046776068597" fill="#3fb950" opacity="0.45"/>
<rect x="105.26644255487443" y="572.4958383090482" width="1.2923076923076922" height="7.5041616909518325" fill="#f85149" opacity="0.45"/>
<rect x="107.42582558829345" y="559.2492446971855" width="1.2923076923076922" height="20.75075530281447" fill="#3fb950" opacity="0.45"/>
<rect x="109.58520862171247" y="568.7523976842251" width="1.2923076923076922" height="11.247602315774884" fill="#3fb950" opacity="0.45"/>
<rect x="111.7445916551315" y="569.1278986937753" width="1.2923076923076922" height="10.87210130622475" fill="#f85149" opacity="0.45"/>
<rect x="113.90397468855052" y="572.284493030114" width="1.2923076923076922" height="7.715506969885951" fill="#f85149" opacity="0.45"/>
<rect x="116.06335772196954" y="567.6574972237612" width="1.2923076923076922" height="12.342502776238803" fill="#3fb950" opacity="0.45"/>
<rect x="118.22274075538857" y="569.8614153491553" width="1.2923076923076922" height="10.138584650844678" fill="#f85149" opacity="0.45"/>
<rect x="120.38212378880758" y="573.3453771055852" width="1.2923076923076922" height="6.6546228944148424" fill="#3fb950" opacity="0.45"/>
<rect x="122.54150682222661" y="564.639940722163" width="1.2923076923076922" height="15.360059277836967" fill="#3fb950" opacity="0.45"/>
<rect x="124.70088985564564" y="562.2441239766922" width="1.2923076923076922" height="17.755876023307792" fill="#3fb950" opacity="0.45"/>
<rect x="126.86027288906465" y="567.2205331023133" width="1.2923076923076922" height="12.779466897686689" fill="#3fb950" opacity="0.45"/>
<rect x="129.01965592248368" y="563.6385915747941" width="1.2923076923076922" height="16.361408425205923" fill="#3fb950" opacity="0.45"/>
<rect x="131.1790389559027" y="561.2100622953839" width="1.2923076923076922" height="18.789937704616136" fill="#3fb950" opacity="0.45"/>
<rect x="133.33842198932172" y="529.550961643866" width="1.2923076923076922" height="50.449038356134" fill="#3fb950" opacity="0.45"/>
<rect x="135.49780502274075" y="554.2776231036638" width="1.2923076923076922" height="25.722376896336186" fill="#f85149" opacity="0.45"/>
<rect x="137.65718805615978" y="560.3237997098181" width="1.2923076923076922" height="19.676200290181896" fill="#f85149" opacity="0.45"/>
<rect x="139.8165710895788" y="565.4097463042849" width="1.2923076923076922" height="14.590253695715091" fill="#f85149" opacity="0.45"/>
<rect x="141.97595412299782" y="566.7276571693479" width="1.2923076923076922" height="13.272342830652065" fill="#f85149" opacity="0.45"/>
<rect x="144.13533715641685" y="564.2647936360648" width="1.2923076923076922" height="15.735206363935163" fill="#3fb950" opacity="0.45"/>
<rect x="146.29472018983586" y="563.8609375451372" width="1.2923076923076922" height="16.139062454862824" fill="#3fb950" opacity="0.45"/>
<rect x="148.4541032232549" y="542.3573226769557" width="1.2923076923076922" height="37.64267732304427" fill="#3fb950" opacity="0.45"/>
<rect x="150.61348625667392" y="557.9445691711894" width="1.2923076923076922" height="22.055430828810586" fill="#f85149" opacity="0.45"/>
<rect x="152.77286929009293" y="561.8874809799256" width="1.2923076923076922" height="18.112519020074387" fill="#3fb950" opacity="0.45"/>
<rect x="154.93225232351196" y="566.0526971858759" width="1.2923076923076922" height="13.9473028141241" fill="#f85149" opacity="0.45"/>
<rect x="157.091635356931" y="567.9976573946522" width="1.2923076923076922" height="12.002342605347849" fill="#3fb950" opacity="0.45"/>
<rect x="159.25101839035" y="569.1244208991901" width="1.2923076923076922" height="10.875579100809887" fill="#f85149" opacity="0.45"/>
<rect x="161.410401423769" y="568.3746734320348" width="1.2923076923076922" height="11.625326567965203" fill="#3fb950" opacity="0.45"/>
<rect x="163.56978445718804" y="568.2562753681624" width="1.2923076923076922" height="11.743724631837608" fill="#3fb950" opacity="0.45"/>
<rect x="165.72916749060707" y="571.272425005644" width="1.2923076923076922" height="8.727574994356019" fill="#f85149" opacity="0.45"/>
<rect x="167.8885505240261" y="570.7044661622471" width="1.2923076923076922" height="9.295533837752942" fill="#f85149" opacity="0.45"/>
<rect x="170.04793355744513" y="573.2475753999331" width="1.2923076923076922" height="6.752424600066888" fill="#3fb950" opacity="0.45"/>
<rect x="172.20731659086414" y="570.8935569405514" width="1.2923076923076922" height="9.106443059448566" fill="#3fb950" opacity="0.45"/>
<rect x="174.36669962428314" y="559.6565451034528" width="1.2923076923076922" height="20.3434548965472" fill="#3fb950" opacity="0.45"/>
<rect x="176.52608265770218" y="564.1901488990545" width="1.2923076923076922" height="15.80985110094548" fill="#f85149" opacity="0.45"/>
<rect x="178.6854656911212" y="572.6684653924746" width="1.2923076923076922" height="7.331534607525441" fill="#3fb950" opacity="0.45"/>
<rect x="180.84484872454024" y="571.8655904097311" width="1.2923076923076922" height="8.134409590268888" fill="#f85149" opacity="0.45"/>
<rect x="183.00423175795927" y="571.3678846357298" width="1.2923076923076922" height="8.632115364270248" fill="#f85149" opacity="0.45"/>
<rect x="185.16361479137828" y="573.0155160335638" width="1.2923076923076922" height="6.984483966436187" fill="#f85149" opacity="0.45"/>
<rect x="187.32299782479728" y="574.757298059777" width="1.2923076923076922" height="5.242701940223014" fill="#f85149" opacity="0.45"/>
<rect x="189.48238085821632" y="576.1542376034853" width="1.2923076923076922" height="3.845762396514715" fill="#f85149" opacity="0.45"/>
<rect x="191.64176389163535" y="575.4083347309999" width="1.2923076923076922" height="4.591665269000146" fill="#3fb950" opacity="0.45"/>
<rect x="193.80114692505438" y="576.3960096300732" width="1.2923076923076922" height="3.603990369926805" fill="#3fb950" opacity="0.45"/>
<rect x="195.96052995847342" y="569.7484637330813" width="1.2923076923076922" height="10.25153626691872" fill="#3fb950" opacity="0.45"/>
<rect x="198.11991299189245" y="573.8326388266212" width="1.2923076923076922" height="6.167361173378822" fill="#3fb950" opacity="0.45"/>
<rect x="200.27929602531145" y="574.4157416939795" width="1.2923076923076922" height="5.5842583060205015" fill="#f85149" opacity="0.45"/>
<rect x="202.43867905873046" y="576.2281509477489" width="1.2923076923076922" height="3.7718490522511274" fill="#f85149" opacity="0.45"/>
<rect x="204.5980620921495" y="575.5971061688092" width="1.2923076923076922" height="4.402893831190795" fill="#3fb950" opacity="0.45"/>
<rect x="206.75744512556852" y="574.9876117226335" width="1.2923076923076922" height="5.01238827736654" fill="#f85149" opacity="0.45"/>
<rect x="208.91682815898753" y="572.5598888883444" width="1.2923076923076922" height="7.440111111655597" fill="#f85149" opacity="0.45"/>
<rect x="211.07621119240656" y="574.1985680831066" width="1.2923076923076922" height="5.801431916893421" fill="#f85149" opacity="0.45"/>
<rect x="213.23559422582557" y="574.971574428255" width="1.2923076923076922" height="5.028425571744947" fill="#f85149" opacity="0.45"/>
<rect x="215.3949772592446" y="575.786629601978" width="1.2923076923076922" height="4.213370398021993" fill="#3fb950" opacity="0.45"/>
<rect x="217.55436029266363" y="576.6598304990687" width="1.2923076923076922" height="3.3401695009313244" fill="#3fb950" opacity="0.45"/>
<rect x="219.71374332608266" y="574.9832642034742" width="1.2923076923076922" height="5.016735796525836" fill="#f85149" opacity="0.45"/>
<rect x="221.8731263595017" y="576.7941746171781" width="1.2923076923076922" height="3.2058253828218994" fill="#3fb950" opacity="0.45"/>
<rect x="224.0325093929207" y="576.6758493982572" width="1.2923076923076922" height="3.3241506017427582" fill="#f85149" opacity="0.45"/>
<rect x="226.19189242633973" y="576.5356405257334" width="1.2923076923076922" height="3.4643594742666437" fill="#3fb950" opacity="0.45"/>
<rect x="228.35127545975874" y="574.9654024741707" width="1.2923076923076922" height="5.0345975258293265" fill="#3fb950" opacity="0.45"/>
<rect x="230.51065849317777" y="576.0720817425725" width="1.2923076923076922" height="3.92791825742745" fill="#f85149" opacity="0.45"/>
<rect x="232.6700415265968" y="575.6011718736606" width="1.2923076923076922" height="4.398828126339367" fill="#3fb950" opacity="0.45"/>
<rect x="234.8294245600158" y="576.9222051382416" width="1.2923076923076922" height="3.0777948617584343" fill="#3fb950" opacity="0.45"/>
<rect x="236.98880759343484" y="576.3596530090329" width="1.2923076923076922" height="3.6403469909671458" fill="#3fb950" opacity="0.45"/>
<rect x="239.14819062685385" y="576.984641723584" width="1.2923076923076922" height="3.015358276416009" fill="#f85149" opacity="0.45"/>
<rect x="241.30757366027288" y="577.0695741544463" width="1.2923076923076922" height="2.9304258455537138" fill="#f85149" opacity="0.45"/>
<rect x="243.46695669369188" y="570.6667990678849" width="1.2923076923076922" height="9.333200932115119" fill="#f85149" opacity="0.45"/>
<rect x="245.62633972711095" y="572.5770858154883" width="1.2923076923076922" height="7.422914184511683" fill="#3fb950" opacity="0.45"/>
<rect x="247.78572276052995" y="576.1849038565103" width="1.2923076923076922" height="3.8150961434896544" fill="#f85149" opacity="0.45"/>
<rect x="249.94510579394898" y="576.2815738900854" width="1.2923076923076922" height="3.718426109914617" fill="#3fb950" opacity="0.45"/>
<rect x="252.10448882736802" y="574.2729258551559" width="1.2923076923076922" height="5.727074144844096" fill="#3fb950" opacity="0.45"/>
<rect x="254.26387186078702" y="572.3602065276523" width="1.2923076923076922" height="7.639793472347719" fill="#3fb950" opacity="0.45"/>
<rect x="256.4232548942061" y="574.293672686029" width="1.2923076923076922" height="5.706327313970974" fill="#3fb950" opacity="0.45"/>
<rect x="258.58263792762506" y="575.2572969781397" width="1.2923076923076922" height="4.7427030218602795" fill="#f85149" opacity="0.45"/>
<rect x="260.74202096104415" y="573.6923479115507" width="1.2923076923076922" height="6.307652088449345" fill="#3fb950" opacity="0.45"/>
<rect x="262.9014039944631" y="572.5302406251233" width="1.2923076923076922" height="7.46975937487673" fill="#3fb950" opacity="0.45"/>
<rect x="265.06078702788216" y="569.4168668909497" width="1.2923076923076922" height="10.583133109050323" fill="#3fb950" opacity="0.45"/>
<rect x="267.2201700613012" y="573.0961222836871" width="1.2923076923076922" height="6.903877716312877" fill="#f85149" opacity="0.45"/>
<rect x="269.37955309472017" y="571.2482934598463" width="1.2923076923076922" height="8.751706540153691" fill="#f85149" opacity="0.45"/>
<rect x="271.53893612813926" y="573.8234629380412" width="1.2923076923076922" height="6.176537061958811" fill="#3fb950" opacity="0.45"/>
<rect x="273.69831916155823" y="574.782596596416" width="1.2923076923076922" height="5.217403403583944" fill="#f85149" opacity="0.45"/>
<rect x="275.8577021949773" y="573.6762646291978" width="1.2923076923076922" height="6.323735370802183" fill="#3fb950" opacity="0.45"/>
<rect x="278.0170852283963" y="572.093446843133" width="1.2923076923076922" height="7.9065531568669485" fill="#3fb950" opacity="0.45"/>
<rect x="280.17646826181533" y="573.3760367363419" width="1.2923076923076922" height="6.623963263658084" fill="#f85149" opacity="0.45"/>
<rect x="282.33585129523436" y="571.8405637539973" width="1.2923076923076922" height="8.159436246002656" fill="#3fb950" opacity="0.45"/>
<rect x="284.49523432865334" y="567.9286960354849" width="1.2923076923076922" height="12.071303964515096" fill="#3fb950" opacity="0.45"/>
<rect x="286.65461736207243" y="571.1507548054085" width="1.2923076923076922" height="8.849245194591504" fill="#f85149" opacity="0.45"/>
<rect x="288.8140003954914" y="563.0079923273516" width="1.2923076923076922" height="16.992007672648356" fill="#3fb950" opacity="0.45"/>
<rect x="290.97338342891044" y="569.1884589697572" width="1.2923076923076922" height="10.811541030242779" fill="#f85149" opacity="0.45"/>
<rect x="293.13276646232947" y="572.4551838358612" width="1.2923076923076922" height="7.5448161641387514" fill="#f85149" opacity="0.45"/>
<rect x="295.29214949574845" y="572.5044435788404" width="1.2923076923076922" height="7.495556421159563" fill="#3fb950" opacity="0.45"/>
<rect x="297.45153252916754" y="572.7911973630657" width="1.2923076923076922" height="7.2088026369342515" fill="#f85149" opacity="0.45"/>
<rect x="299.6109155625865" y="574.9706807899341" width="1.2923076923076922" height="5.029319210065864" fill="#3fb950" opacity="0.45"/>
<rect x="301.7702985960056" y="575.2702516066101" width="1.2923076923076922" height="4.729748393389855" fill="#3fb950" opacity="0.45"/>
<rect x="303.9296816294246" y="560.7451161470077" width="1.2923076923076922" height="19.254883852992293" fill="#3fb950" opacity="0.45"/>
<rect x="306.0890646628436" y="567.9345063401377" width="1.2923076923076922" height="12.06549365986234" fill="#3fb950" opacity="0.45"/>
<rect x="308.24844769626264" y="569.0658130886543" width="1.2923076923076922" height="10.934186911345705" fill="#3fb950" opacity="0.45"/>
<rect x="310.4078307296816" y="571.8640433742682" width="1.2923076923076922" height="8.135956625731751" fill="#3fb950" opacity="0.45"/>
<rect x="312.5672137631007" y="573.5955638277989" width="1.2923076923076922" height="6.4044361722011445" fill="#f85149" opacity="0.45"/>
<rect x="314.7265967965197" y="574.2635042068401" width="1.2923076923076922" height="5.736495793159861" fill="#f85149" opacity="0.45"/>
<rect x="316.8859798299388" y="575.0867993218856" width="1.2923076923076922" height="4.9132006781144355" fill="#f85149" opacity="0.45"/>
<rect x="319.04536286335775" y="574.6505448868605" width="1.2923076923076922" height="5.34945511313947" fill="#f85149" opacity="0.45"/>
<rect x="321.2047458967768" y="574.7919214860335" width="1.2923076923076922" height="5.208078513966484" fill="#f85149" opacity="0.45"/>
<rect x="323.3641289301958" y="574.0468441896667" width="1.2923076923076922" height="5.953155810333328" fill="#3fb950" opacity="0.45"/>
<rect x="325.5235119636148" y="575.3585304904024" width="1.2923076923076922" height="4.641469509597641" fill="#f85149" opacity="0.45"/>
<rect x="327.6828949970338" y="575.8803700176243" width="1.2923076923076922" height="4.119629982375727" fill="#f85149" opacity="0.45"/>
<rect x="329.84227803045286" y="574.5716894909032" width="1.2923076923076922" height="5.428310509096832" fill="#f85149" opacity="0.45"/>
<rect x="332.00166106387184" y="575.566591860052" width="1.2923076923076922" height="4.433408139948028" fill="#f85149" opacity="0.45"/>
<rect x="334.1610440972909" y="577.3846970003935" width="1.2923076923076922" height="2.615302999606456" fill="#3fb950" opacity="0.45"/>
<rect x="336.32042713070996" y="577.9461619738845" width="1.2923076923076922" height="2.0538380261155" fill="#3fb950" opacity="0.45"/>
<rect x="338.47981016412893" y="577.5901786286245" width="1.2923076923076922" height="2.4098213713755285" fill="#3fb950" opacity="0.45"/>
<rect x="340.63919319754797" y="571.9754909996236" width="1.2923076923076922" height="8.024509000376383" fill="#f85149" opacity="0.45"/>
<rect x="342.798576230967" y="573.3164127755211" width="1.2923076923076922" height="6.683587224478856" fill="#3fb950" opacity="0.45"/>
<rect x="344.95795926438603" y="573.0033284845085" width="1.2923076923076922" height="6.996671515491471" fill="#3fb950" opacity="0.45"/>
<rect x="347.117342297805" y="574.4512528720961" width="1.2923076923076922" height="5.54874712790388" fill="#3fb950" opacity="0.45"/>
<rect x="349.2767253312241" y="576.1661495925973" width="1.2923076923076922" height="3.8338504074026787" fill="#3fb950" opacity="0.45"/>
<rect x="351.4361083646431" y="576.7926625325758" width="1.2923076923076922" height="3.2073374674241677" fill="#3fb950" opacity="0.45"/>
<rect x="353.5954913980621" y="576.9875713415128" width="1.2923076923076922" height="3.012428658487238" fill="#f85149" opacity="0.45"/>
<rect x="355.75487443148114" y="576.9174028899903" width="1.2923076923076922" height="3.082597110009715" fill="#f85149" opacity="0.45"/>
<rect x="357.9142574649002" y="577.980587099995" width="1.2923076923076922" height="2.0194129000050225" fill="#f85149" opacity="0.45"/>
<rect x="360.0736404983192" y="577.935838961268" width="1.2923076923076922" height="2.0641610387319815" fill="#3fb950" opacity="0.45"/>
<rect x="362.2330235317382" y="576.9507397566716" width="1.2923076923076922" height="3.0492602433283764" fill="#3fb950" opacity="0.45"/>
<rect x="364.3924065651573" y="573.7227967334322" width="1.2923076923076922" height="6.277203266567767" fill="#3fb950" opacity="0.45"/>
<rect x="366.55178959857625" y="575.0593058711986" width="1.2923076923076922" height="4.940694128801397" fill="#f85149" opacity="0.45"/>
<rect x="368.7111726319953" y="571.2335486115038" width="1.2923076923076922" height="8.766451388496193" fill="#3fb950" opacity="0.45"/>
<rect x="370.8705556654143" y="575.6018123941697" width="1.2923076923076922" height="4.398187605830344" fill="#f85149" opacity="0.45"/>
<rect x="373.02993869883335" y="576.0478022994488" width="1.2923076923076922" height="3.95219770055121" fill="#f85149" opacity="0.45"/>
<rect x="375.1893217322523" y="576.3368014005421" width="1.2923076923076922" height="3.663198599457928" fill="#3fb950" opacity="0.45"/>
<rect x="377.34870476567136" y="574.8956732997808" width="1.2923076923076922" height="5.10432670021919" fill="#3fb950" opacity="0.45"/>
<rect x="379.5080877990904" y="573.7759488985748" width="1.2923076923076922" height="6.224051101425175" fill="#3fb950" opacity="0.45"/>
<rect x="381.6674708325094" y="573.859028198016" width="1.2923076923076922" height="6.140971801984051" fill="#3fb950" opacity="0.45"/>
<rect x="383.8268538659284" y="575.7395415951075" width="1.2923076923076922" height="4.260458404892461" fill="#3fb950" opacity="0.45"/>
<rect x="385.9862368993475" y="576.8902453354692" width="1.2923076923076922" height="3.109754664530783" fill="#f85149" opacity="0.45"/>
<rect x="388.1456199327665" y="575.8346668006425" width="1.2923076923076922" height="4.165333199357519" fill="#3fb950" opacity="0.45"/>
<rect x="390.3050029661855" y="575.8042602876975" width="1.2923076923076922" height="4.1957397123024975" fill="#f85149" opacity="0.45"/>
<rect x="392.46438599960453" y="576.1832527042732" width="1.2923076923076922" height="3.8167472957268274" fill="#3fb950" opacity="0.45"/>
<rect x="394.62376903302356" y="575.8997931306386" width="1.2923076923076922" height="4.1002068693613865" fill="#f85149" opacity="0.45"/>
<rect x="396.7831520664426" y="577.5617481269687" width="1.2923076923076922" height="2.4382518730312768" fill="#f85149" opacity="0.45"/>
<rect x="398.9425350998616" y="576.5992849392386" width="1.2923076923076922" height="3.4007150607613994" fill="#3fb950" opacity="0.45"/>
<rect x="401.1019181332806" y="577.1873460460577" width="1.2923076923076922" height="2.8126539539423447" fill="#f85149" opacity="0.45"/>
<rect x="403.26130116669964" y="575.069943073657" width="1.2923076923076922" height="4.930056926343013" fill="#3fb950" opacity="0.45"/>
<rect x="405.42068420011867" y="575.7875578232557" width="1.2923076923076922" height="4.2124421767442755" fill="#f85149" opacity="0.45"/>
<rect x="407.58006723353765" y="576.7219135288631" width="1.2923076923076922" height="3.2780864711369304" fill="#f85149" opacity="0.45"/>
<rect x="409.73945026695674" y="577.5008320880158" width="1.2923076923076922" height="2.499167911984159" fill="#3fb950" opacity="0.45"/>
<rect x="411.89883330037577" y="576.7711971855889" width="1.2923076923076922" height="3.2288028144110967" fill="#3fb950" opacity="0.45"/>
<rect x="414.05821633379475" y="577.0217157570268" width="1.2923076923076922" height="2.9782842429732455" fill="#f85149" opacity="0.45"/>
<rect x="416.2175993672138" y="577.253583813422" width="1.2923076923076922" height="2.746416186578017" fill="#3fb950" opacity="0.45"/>
<rect x="418.3769824006328" y="577.3534663829452" width="1.2923076923076922" height="2.6465336170548426" fill="#f85149" opacity="0.45"/>
<rect x="420.53636543405185" y="577.6128562186198" width="1.2923076923076922" height="2.387143781380246" fill="#f85149" opacity="0.45"/>
<rect x="422.6957484674708" y="577.3051039573248" width="1.2923076923076922" height="2.6948960426751682" fill="#3fb950" opacity="0.45"/>
<rect x="424.8551315008899" y="577.1483728932192" width="1.2923076923076922" height="2.8516271067808248" fill="#f85149" opacity="0.45"/>
<rect x="427.0145145343089" y="568.3219366302782" width="1.2923076923076922" height="11.678063369721826" fill="#3fb950" opacity="0.45"/>
<rect x="429.1738975677279" y="572.8554977490395" width="1.2923076923076922" height="7.1445022509605" fill="#3fb950" opacity="0.45"/>
<rect x="431.33328060114695" y="574.5518815505179" width="1.2923076923076922" height="5.448118449482081" fill="#f85149" opacity="0.45"/>
<rect x="433.492663634566" y="572.9977286208272" width="1.2923076923076922" height="7.002271379172839" fill="#3fb950" opacity="0.45"/>
<rect x="435.65204666798496" y="575.3346377141684" width="1.2923076923076922" height="4.665362285831634" fill="#f85149" opacity="0.45"/>
<rect x="437.811429701404" y="571.2719540887849" width="1.2923076923076922" height="8.728045911215077" fill="#f85149" opacity="0.45"/>
<rect x="439.9708127348231" y="569.802633520124" width="1.2923076923076922" height="10.197366479875996" fill="#f85149" opacity="0.45"/>
<rect x="442.13019576824206" y="573.3565301091658" width="1.2923076923076922" height="6.64346989083424" fill="#3fb950" opacity="0.45"/>
<rect x="444.2895788016611" y="575.1911004160006" width="1.2923076923076922" height="4.808899583999391" fill="#f85149" opacity="0.45"/>
<rect x="446.4489618350801" y="574.9555812823322" width="1.2923076923076922" height="5.0444187176677815" fill="#f85149" opacity="0.45"/>
<rect x="448.60834486849916" y="573.3546387157497" width="1.2923076923076922" height="6.645361284250271" fill="#3fb950" opacity="0.45"/>
<rect x="450.76772790191814" y="575.2435024253027" width="1.2923076923076922" height="4.756497574697278" fill="#3fb950" opacity="0.45"/>
<rect x="452.92711093533717" y="567.9785517826139" width="1.2923076923076922" height="12.021448217386137" fill="#3fb950" opacity="0.45"/>
<rect x="455.0864939687562" y="571.0801397186775" width="1.2923076923076922" height="8.919860281322485" fill="#3fb950" opacity="0.45"/>
<rect x="457.24587700217523" y="571.5852013611793" width="1.2923076923076922" height="8.414798638820685" fill="#f85149" opacity="0.45"/>
<rect x="459.4052600355942" y="573.1275445790134" width="1.2923076923076922" height="6.8724554209866255" fill="#3fb950" opacity="0.45"/>
<rect x="461.5646430690133" y="573.6305264613554" width="1.2923076923076922" height="6.36947353864457" fill="#3fb950" opacity="0.45"/>
<rect x="463.72402610243233" y="574.2081964933559" width="1.2923076923076922" height="5.791803506644101" fill="#f85149" opacity="0.45"/>
<rect x="465.8834091358513" y="574.6704922627845" width="1.2923076923076922" height="5.329507737215522" fill="#3fb950" opacity="0.45"/>
<rect x="468.04279216927034" y="573.7523276353423" width="1.2923076923076922" height="6.24767236465766" fill="#3fb950" opacity="0.45"/>
<rect x="470.2021752026894" y="574.3914979375239" width="1.2923076923076922" height="5.608502062476077" fill="#f85149" opacity="0.45"/>
<rect x="472.3615582361084" y="575.858190569369" width="1.2923076923076922" height="4.141809430631042" fill="#3fb950" opacity="0.45"/>
<rect x="474.5209412695274" y="572.1933544301143" width="1.2923076923076922" height="7.806645569885745" fill="#3fb950" opacity="0.45"/>
<rect x="476.6803243029464" y="574.023376710221" width="1.2923076923076922" height="5.976623289779013" fill="#f85149" opacity="0.45"/>
<rect x="478.83970733636545" y="573.3090421908689" width="1.2923076923076922" height="6.690957809131078" fill="#3fb950" opacity="0.45"/>
<rect x="480.9990903697845" y="573.7925737353156" width="1.2923076923076922" height="6.207426264684386" fill="#3fb950" opacity="0.45"/>
<rect x="483.15847340320346" y="574.0080741197236" width="1.2923076923076922" height="5.991925880276426" fill="#3fb950" opacity="0.45"/>
<rect x="485.31785643662255" y="573.7979981088862" width="1.2923076923076922" height="6.2020018911138095" fill="#f85149" opacity="0.45"/>
<rect x="487.4772394700416" y="575.6189464097645" width="1.2923076923076922" height="4.381053590235524" fill="#f85149" opacity="0.45"/>
<rect x="489.63662250346056" y="573.89643187326" width="1.2923076923076922" height="6.103568126740015" fill="#3fb950" opacity="0.45"/>
<rect x="491.7960055368796" y="563.7269918668391" width="1.2923076923076922" height="16.273008133160943" fill="#3fb950" opacity="0.45"/>
<rect x="493.9553885702986" y="571.1209553337272" width="1.2923076923076922" height="8.879044666272762" fill="#3fb950" opacity="0.45"/>
<rect x="496.11477160371766" y="569.1786797189516" width="1.2923076923076922" height="10.821320281048429" fill="#3fb950" opacity="0.45"/>
<rect x="498.27415463713663" y="571.4383577115955" width="1.2923076923076922" height="8.561642288404528" fill="#f85149" opacity="0.45"/>
<rect x="500.43353767055567" y="560.1507167935883" width="1.2923076923076922" height="19.849283206411656" fill="#3fb950" opacity="0.45"/>
<rect x="502.5929207039747" y="564.5402185586951" width="1.2923076923076922" height="15.459781441304926" fill="#f85149" opacity="0.45"/>
<rect x="504.75230373739373" y="569.1317775034981" width="1.2923076923076922" height="10.868222496501858" fill="#3fb950" opacity="0.45"/>
<rect x="506.91168677081276" y="571.7448414406012" width="1.2923076923076922" height="8.255158559398751" fill="#f85149" opacity="0.45"/>
<rect x="509.07106980423174" y="572.2768531398831" width="1.2923076923076922" height="7.723146860116913" fill="#f85149" opacity="0.45"/>
<rect x="511.2304528376508" y="570.7037200533484" width="1.2923076923076922" height="9.296279946651566" fill="#f85149" opacity="0.45"/>
<rect x="513.3898358710697" y="574.216670053589" width="1.2923076923076922" height="5.783329946410959" fill="#3fb950" opacity="0.45"/>
<rect x="515.5492189044888" y="574.6753614695267" width="1.2923076923076922" height="5.324638530473294" fill="#f85149" opacity="0.45"/>
<rect x="517.7086019379079" y="572.836172130531" width="1.2923076923076922" height="7.163827869468946" fill="#3fb950" opacity="0.45"/>
<rect x="519.8679849713268" y="570.6738366996016" width="1.2923076923076922" height="9.326163300398434" fill="#3fb950" opacity="0.45"/>
<rect x="522.0273680047459" y="571.8736199100822" width="1.2923076923076922" height="8.126380089917802" fill="#f85149" opacity="0.45"/>
<rect x="524.186751038165" y="572.955429985575" width="1.2923076923076922" height="7.044570014424949" fill="#f85149" opacity="0.45"/>
<rect x="526.346134071584" y="564.5037887247994" width="1.2923076923076922" height="15.496211275200608" fill="#3fb950" opacity="0.45"/>
<rect x="528.5055171050029" y="570.3619602367517" width="1.2923076923076922" height="9.638039763248344" fill="#f85149" opacity="0.45"/>
<rect x="530.664900138422" y="571.441083878725" width="1.2923076923076922" height="8.558916121275047" fill="#3fb950" opacity="0.45"/>
<rect x="532.824283171841" y="570.0498416932039" width="1.2923076923076922" height="9.950158306796084" fill="#f85149" opacity="0.45"/>
<rect x="534.98366620526" y="567.9715921465018" width="1.2923076923076922" height="12.028407853498152" fill="#3fb950" opacity="0.45"/>
<rect x="537.143049238679" y="563.0860828513169" width="1.2923076923076922" height="16.91391714868314" fill="#3fb950" opacity="0.45"/>
<rect x="539.302432272098" y="567.4041733858777" width="1.2923076923076922" height="12.595826614122302" fill="#f85149" opacity="0.45"/>
<rect x="541.461815305517" y="569.4230167708063" width="1.2923076923076922" height="10.57698322919373" fill="#3fb950" opacity="0.45"/>
<rect x="543.6211983389361" y="567.5970546769939" width="1.2923076923076922" height="12.402945323006065" fill="#f85149" opacity="0.45"/>
<rect x="545.7805813723552" y="566.8798379993027" width="1.2923076923076922" height="13.120162000697292" fill="#3fb950" opacity="0.45"/>
<rect x="547.939964405774" y="547.9945256503778" width="1.2923076923076922" height="32.005474349622204" fill="#3fb950" opacity="0.45"/>
<rect x="550.0993474391931" y="559.0764877437192" width="1.2923076923076922" height="20.923512256280787" fill="#f85149" opacity="0.45"/>
<rect x="552.2587304726122" y="561.7575498678511" width="1.2923076923076922" height="18.24245013214886" fill="#f85149" opacity="0.45"/>
<rect x="554.4181135060313" y="565.9181238637016" width="1.2923076923076922" height="14.081876136298433" fill="#3fb950" opacity="0.45"/>
<rect x="556.5774965394502" y="561.2883496478801" width="1.2923076923076922" height="18.711650352119932" fill="#3fb950" opacity="0.45"/>
<rect x="558.7368795728693" y="568.2848460411645" width="1.2923076923076922" height="11.715153958835458" fill="#3fb950" opacity="0.45"/>
<rect x="560.8962626062884" y="568.0116495118277" width="1.2923076923076922" height="11.988350488172273" fill="#f85149" opacity="0.45"/>
<rect x="563.0556456397073" y="568.3176115532506" width="1.2923076923076922" height="11.682388446749428" fill="#f85149" opacity="0.45"/>
<rect x="565.2150286731263" y="545.2922314302656" width="1.2923076923076922" height="34.70776856973441" fill="#3fb950" opacity="0.45"/>
<rect x="567.3744117065454" y="552.855908918322" width="1.2923076923076922" height="27.14409108167797" fill="#3fb950" opacity="0.45"/>
<rect x="569.5337947399644" y="490.1314149416651" width="1.2923076923076922" height="89.86858505833487" fill="#3fb950" opacity="0.45"/>
<rect x="571.6931777733834" y="471.6666666666667" width="1.2923076923076922" height="108.33333333333331" fill="#3fb950" opacity="0.45"/>
<rect x="573.8525608068024" y="494.5391507547171" width="1.2923076923076922" height="85.46084924528287" fill="#f85149" opacity="0.45"/>
<rect x="576.0119438402214" y="496.95718999318746" width="1.2923076923076922" height="83.04281000681254" fill="#3fb950" opacity="0.45"/>
<rect x="578.1713268736404" y="519.4328287650499" width="1.2923076923076922" height="60.56717123495014" fill="#f85149" opacity="0.45"/>
<rect x="580.3307099070595" y="496.24938319089057" width="1.2923076923076922" height="83.75061680910943" fill="#3fb950" opacity="0.45"/>
<rect x="582.4900929404786" y="527.6102356398796" width="1.2923076923076922" height="52.38976436012035" fill="#f85149" opacity="0.45"/>
<rect x="584.6494759738974" y="536.485868366347" width="1.2923076923076922" height="43.51413163365305" fill="#f85149" opacity="0.45"/>
<rect x="586.8088590073165" y="526.8861424723344" width="1.2923076923076922" height="53.11385752766557" fill="#f85149" opacity="0.45"/>
<rect x="588.9682420407356" y="551.427504770351" width="1.2923076923076922" height="28.572495229649007" fill="#f85149" opacity="0.45"/>
<rect x="591.1276250741547" y="560.0449900722632" width="1.2923076923076922" height="19.955009927736796" fill="#3fb950" opacity="0.45"/>
<rect x="593.2870081075737" y="553.2822343656965" width="1.2923076923076922" height="26.717765634303532" fill="#f85149" opacity="0.45"/>
<rect x="595.4463911409927" y="533.4200800449761" width="1.2923076923076922" height="46.57991995502391" fill="#3fb950" opacity="0.45"/>
<rect x="597.6057741744116" y="551.7621739770843" width="1.2923076923076922" height="28.23782602291567" fill="#f85149" opacity="0.45"/>
<rect x="599.7651572078307" y="522.732594703183" width="1.2923076923076922" height="57.267405296816946" fill="#3fb950" opacity="0.45"/>
<rect x="601.9245402412497" y="559.6718800694844" width="1.2923076923076922" height="20.32811993051564" fill="#3fb950" opacity="0.45"/>
<rect x="604.0839232746687" y="484.5437351303403" width="1.2923076923076922" height="95.45626486965972" fill="#3fb950" opacity="0.45"/>
<rect x="606.2433063080878" y="507.2540619411955" width="1.2923076923076922" height="72.74593805880448" fill="#f85149" opacity="0.45"/>
<rect x="608.4026893415067" y="526.4490539994034" width="1.2923076923076922" height="53.55094600059658" fill="#f85149" opacity="0.45"/>
<rect x="610.5620723749258" y="517.883521864162" width="1.2923076923076922" height="62.11647813583795" fill="#3fb950" opacity="0.45"/>
<rect x="612.7214554083448" y="516.0002598578093" width="1.2923076923076922" height="63.99974014219072" fill="#f85149" opacity="0.45"/>
<rect x="614.8808384417638" y="537.167699321116" width="1.2923076923076922" height="42.83230067888405" fill="#3fb950" opacity="0.45"/>
<rect x="617.0402214751829" y="535.0315836579312" width="1.2923076923076922" height="44.96841634206885" fill="#f85149" opacity="0.45"/>
<rect x="619.199604508602" y="532.7224093601671" width="1.2923076923076922" height="47.27759063983285" fill="#f85149" opacity="0.45"/>
<rect x="621.3589875420209" y="518.1884677552999" width="1.2923076923076922" height="61.81153224470006" fill="#3fb950" opacity="0.45"/>
<rect x="623.5183705754399" y="520.9744917287647" width="1.2923076923076922" height="59.02550827123525" fill="#f85149" opacity="0.45"/>
<rect x="625.677753608859" y="531.7933297629006" width="1.2923076923076922" height="48.20667023709939" fill="#f85149" opacity="0.45"/>
<rect x="627.837136642278" y="509.7590331676604" width="1.2923076923076922" height="70.24096683233961" fill="#3fb950" opacity="0.45"/>
<rect x="629.9965196756971" y="523.8509460874218" width="1.2923076923076922" height="56.14905391257821" fill="#f85149" opacity="0.45"/>
<rect x="632.155902709116" y="518.1861341415208" width="1.2923076923076922" height="61.813865858479176" fill="#3fb950" opacity="0.45"/>
<rect x="634.315285742535" y="498.42200521196065" width="1.2923076923076922" height="81.57799478803935" fill="#3fb950" opacity="0.45"/>
<rect x="636.4746687759541" y="485.89339204607006" width="1.2923076923076922" height="94.10660795392994" fill="#3fb950" opacity="0.45"/>
<rect x="638.6340518093731" y="490.0454615777684" width="1.2923076923076922" height="89.95453842223162" fill="#3fb950" opacity="0.45"/>
<rect x="640.7934348427922" y="480.48771828964703" width="1.2923076923076922" height="99.51228171035297" fill="#3fb950" opacity="0.45"/>
<rect x="642.9528178762112" y="502.089624911337" width="1.2923076923076922" height="77.91037508866299" fill="#f85149" opacity="0.45"/>
<rect x="645.1122009096301" y="504.9328987624261" width="1.2923076923076922" height="75.06710123757392" fill="#3fb950" opacity="0.45"/>
<rect x="647.2715839430492" y="497.5231216866676" width="1.2923076923076922" height="82.4768783133324" fill="#3fb950" opacity="0.45"/>
<rect x="649.4309669764683" y="520.5251722941305" width="1.2923076923076922" height="59.47482770586953" fill="#f85149" opacity="0.45"/>
<rect x="651.5903500098872" y="495.75461917564326" width="1.2923076923076922" height="84.24538082435674" fill="#3fb950" opacity="0.45"/>
<rect x="653.7497330433063" y="471.72771772631273" width="1.2923076923076922" height="108.27228227368727" fill="#3fb950" opacity="0.45"/>
<rect x="655.9091160767254" y="489.55609875815253" width="1.2923076923076922" height="90.44390124184747" fill="#3fb950" opacity="0.45"/>
<rect x="658.0684991101443" y="492.7468801868457" width="1.2923076923076922" height="87.25311981315429" fill="#3fb950" opacity="0.45"/>
<rect x="660.2278821435633" y="484.992633315128" width="1.2923076923076922" height="95.00736668487201" fill="#3fb950" opacity="0.45"/>
<rect x="662.3872651769824" y="484.6428646007927" width="1.2923076923076922" height="95.35713539920732" fill="#3fb950" opacity="0.45"/>
<rect x="664.5466482104014" y="493.75226266353195" width="1.2923076923076922" height="86.24773733646805" fill="#3fb950" opacity="0.45"/>
<rect x="666.7060312438205" y="497.41430199812817" width="1.2923076923076922" height="82.58569800187183" fill="#f85149" opacity="0.45"/>
<rect x="668.8654142772394" y="487.78399410105993" width="1.2923076923076922" height="92.21600589894007" fill="#3fb950" opacity="0.45"/>
<rect x="671.0247973106584" y="497.942678807904" width="1.2923076923076922" height="82.05732119209603" fill="#f85149" opacity="0.45"/>
<rect x="673.1841803440775" y="499.5886947401692" width="1.2923076923076922" height="80.41130525983078" fill="#f85149" opacity="0.45"/>
<rect x="675.3435633774965" y="511.4396953362175" width="1.2923076923076922" height="68.56030466378252" fill="#f85149" opacity="0.45"/>
<rect x="677.5029464109156" y="500.60573682396335" width="1.2923076923076922" height="79.39426317603665" fill="#3fb950" opacity="0.45"/>
<rect x="679.6623294443345" y="523.9691414363026" width="1.2923076923076922" height="56.03085856369739" fill="#f85149" opacity="0.45"/>
<rect x="681.8217124777535" y="522.0569022232529" width="1.2923076923076922" height="57.943097776747095" fill="#3fb950" opacity="0.45"/>
<rect x="683.9810955111726" y="507.0956344726858" width="1.2923076923076922" height="72.90436552731421" fill="#3fb950" opacity="0.45"/>
<rect x="686.1404785445917" y="499.56020243067564" width="1.2923076923076922" height="80.43979756932436" fill="#f85149" opacity="0.45"/>
<rect x="688.2998615780106" y="531.7893773724185" width="1.2923076923076922" height="48.21062262758153" fill="#f85149" opacity="0.45"/>
<rect x="690.4592446114297" y="533.7286159413568" width="1.2923076923076922" height="46.27138405864321" fill="#f85149" opacity="0.45"/>
<rect x="692.6186276448487" y="547.8292445020494" width="1.2923076923076922" height="32.17075549795061" fill="#f85149" opacity="0.45"/>
<rect x="694.7780106782677" y="542.9946313859288" width="1.2923076923076922" height="37.005368614071244" fill="#f85149" opacity="0.45"/>
<rect x="696.9373937116868" y="537.4153430922905" width="1.2923076923076922" height="42.58465690770947" fill="#3fb950" opacity="0.45"/>
<rect x="699.0967767451058" y="548.4099214117758" width="1.2923076923076922" height="31.590078588224173" fill="#f85149" opacity="0.45"/>
<rect x="701.2561597785248" y="543.4264117428887" width="1.2923076923076922" height="36.57358825711128" fill="#f85149" opacity="0.45"/>
<rect x="703.4155428119439" y="526.1783400848831" width="1.2923076923076922" height="53.821659915116925" fill="#3fb950" opacity="0.45"/>
<rect x="705.5749258453628" y="508.3940464365523" width="1.2923076923076922" height="71.60595356344771" fill="#f85149" opacity="0.45"/>
<rect x="707.7343088787818" y="544.5456288047599" width="1.2923076923076922" height="35.45437119524013" fill="#f85149" opacity="0.45"/>
<rect x="709.8936919122009" y="541.1098455220523" width="1.2923076923076922" height="38.8901544779477" fill="#f85149" opacity="0.45"/>
<rect x="712.0530749456199" y="523.9702079894076" width="1.2923076923076922" height="56.02979201059236" fill="#3fb950" opacity="0.45"/>
<rect x="714.212457979039" y="541.748006664121" width="1.2923076923076922" height="38.25199333587898" fill="#f85149" opacity="0.45"/>
<rect x="716.371841012458" y="547.3566720758826" width="1.2923076923076922" height="32.64332792411744" fill="#3fb950" opacity="0.45"/>
<rect x="718.5312240458769" y="549.8395896771905" width="1.2923076923076922" height="30.160410322809525" fill="#3fb950" opacity="0.45"/>
<rect x="720.690607079296" y="515.5226960808401" width="1.2923076923076922" height="64.47730391915991" fill="#3fb950" opacity="0.45"/>
<rect x="722.849990112715" y="493.4072318142836" width="1.2923076923076922" height="86.59276818571641" fill="#3fb950" opacity="0.45"/>
<rect x="725.0093731461341" y="514.9396502385702" width="1.2923076923076922" height="65.06034976142985" fill="#f85149" opacity="0.45"/>
<rect x="727.168756179553" y="482.03598659811826" width="1.2923076923076922" height="97.96401340188174" fill="#3fb950" opacity="0.45"/>
<rect x="729.328139212972" y="498.6208196875976" width="1.2923076923076922" height="81.37918031240241" fill="#f85149" opacity="0.45"/>
<rect x="731.4875222463911" y="520.550430361352" width="1.2923076923076922" height="59.44956963864797" fill="#3fb950" opacity="0.45"/>
<rect x="733.6469052798102" y="536.4349265672116" width="1.2923076923076922" height="43.56507343278838" fill="#f85149" opacity="0.45"/>
<rect x="735.8062883132291" y="510.47194647464795" width="1.2923076923076922" height="69.52805352535205" fill="#3fb950" opacity="0.45"/>
<rect x="737.9656713466482" y="507.4834131677213" width="1.2923076923076922" height="72.51658683227868" fill="#3fb950" opacity="0.45"/>
<rect x="740.1250543800672" y="527.5763112308358" width="1.2923076923076922" height="52.42368876916419" fill="#f85149" opacity="0.45"/>
<rect x="742.2844374134862" y="536.4670265413304" width="1.2923076923076922" height="43.53297345866963" fill="#f85149" opacity="0.45"/>
<rect x="744.4438204469053" y="548.2819405577247" width="1.2923076923076922" height="31.718059442275262" fill="#3fb950" opacity="0.45"/>
<rect x="746.6032034803243" y="538.4136533543033" width="1.2923076923076922" height="41.58634664569672" fill="#f85149" opacity="0.45"/>
<rect x="748.7625865137433" y="529.8851717066617" width="1.2923076923076922" height="50.11482829333829" fill="#3fb950" opacity="0.45"/>
<rect x="750.9219695471623" y="533.4559352131422" width="1.2923076923076922" height="46.5440647868578" fill="#f85149" opacity="0.45"/>
<rect x="753.0813525805813" y="536.7940595368707" width="1.2923076923076922" height="43.20594046312931" fill="#3fb950" opacity="0.45"/>
<rect x="755.2407356140003" y="549.0412123183551" width="1.2923076923076922" height="30.958787681644935" fill="#f85149" opacity="0.45"/>
<rect x="757.4001186474194" y="552.9044979726808" width="1.2923076923076922" height="27.095502027319185" fill="#3fb950" opacity="0.45"/>
<rect x="759.5595016808384" y="548.0463577766997" width="1.2923076923076922" height="31.953642223300335" fill="#f85149" opacity="0.45"/>
<rect x="761.7188847142575" y="559.4652870038852" width="1.2923076923076922" height="20.534712996114763" fill="#3fb950" opacity="0.45"/>
<rect x="763.8782677476764" y="562.0519269866368" width="1.2923076923076922" height="17.948073013363228" fill="#3fb950" opacity="0.45"/>
<rect x="766.0376507810954" y="556.9598871694978" width="1.2923076923076922" height="23.040112830502153" fill="#3fb950" opacity="0.45"/>
<rect x="768.1970338145145" y="555.0135819044428" width="1.2923076923076922" height="24.986418095557156" fill="#f85149" opacity="0.45"/>
<rect x="770.3564168479336" y="541.4993055374363" width="1.2923076923076922" height="38.50069446256373" fill="#f85149" opacity="0.45"/>
<rect x="772.5157998813526" y="559.3453606676435" width="1.2923076923076922" height="20.65463933235651" fill="#f85149" opacity="0.45"/>
<rect x="774.6751829147715" y="562.5566527329727" width="1.2923076923076922" height="17.44334726702732" fill="#f85149" opacity="0.45"/>
<rect x="776.8345659481906" y="559.6313709182969" width="1.2923076923076922" height="20.368629081703148" fill="#3fb950" opacity="0.45"/>
<rect x="778.9939489816096" y="565.0229226875042" width="1.2923076923076922" height="14.977077312495794" fill="#f85149" opacity="0.45"/>
<rect x="781.1533320150287" y="562.2747052439403" width="1.2923076923076922" height="17.725294756059725" fill="#3fb950" opacity="0.45"/>
<rect x="783.3127150484477" y="566.8512091975007" width="1.2923076923076922" height="13.14879080249932" fill="#f85149" opacity="0.45"/>
<rect x="785.4720980818666" y="566.3256571530718" width="1.2923076923076922" height="13.674342846928198" fill="#f85149" opacity="0.45"/>
<rect x="787.6314811152857" y="539.2537657197751" width="1.2923076923076922" height="40.74623428022494" fill="#3fb950" opacity="0.45"/>
<rect x="789.7908641487047" y="557.7278716278288" width="1.2923076923076922" height="22.27212837217121" fill="#3fb950" opacity="0.45"/>
<rect x="791.9502471821237" y="565.9127035370727" width="1.2923076923076922" height="14.08729646292727" fill="#f85149" opacity="0.45"/>
<rect x="794.1096302155428" y="547.5968676347039" width="1.2923076923076922" height="32.403132365296074" fill="#3fb950" opacity="0.45"/>
<rect x="796.2690132489618" y="559.7694113658463" width="1.2923076923076922" height="20.23058863415372" fill="#f85149" opacity="0.45"/>
<rect x="798.4283962823808" y="558.2748257397916" width="1.2923076923076922" height="21.725174260208405" fill="#3fb950" opacity="0.45"/>
<rect x="800.5877793157999" y="562.8019330901607" width="1.2923076923076922" height="17.198066909839326" fill="#f85149" opacity="0.45"/>
<rect x="802.7471623492188" y="540.2948963046227" width="1.2923076923076922" height="39.70510369537726" fill="#3fb950" opacity="0.45"/>
<rect x="804.9065453826379" y="546.4503017083377" width="1.2923076923076922" height="33.54969829166225" fill="#f85149" opacity="0.45"/>
<rect x="807.065928416057" y="563.5438592905134" width="1.2923076923076922" height="16.45614070948659" fill="#f85149" opacity="0.45"/>
<rect x="809.225311449476" y="558.153457220669" width="1.2923076923076922" height="21.846542779331003" fill="#f85149" opacity="0.45"/>
<rect x="811.3846944828949" y="561.161081791386" width="1.2923076923076922" height="18.838918208614018" fill="#f85149" opacity="0.45"/>
<rect x="813.544077516314" y="568.0834150337294" width="1.2923076923076922" height="11.916584966270648" fill="#3fb950" opacity="0.45"/>
<rect x="815.703460549733" y="564.0136591936723" width="1.2923076923076922" height="15.98634080632769" fill="#3fb950" opacity="0.45"/>
<rect x="817.8628435831521" y="570.1038878645711" width="1.2923076923076922" height="9.896112135428893" fill="#f85149" opacity="0.45"/>
<rect x="820.0222266165711" y="563.1487729223747" width="1.2923076923076922" height="16.851227077625254" fill="#3fb950" opacity="0.45"/>
<rect x="822.18160964999" y="558.777036495777" width="1.2923076923076922" height="21.222963504223003" fill="#3fb950" opacity="0.45"/>
<rect x="824.3409926834091" y="539.6943831259188" width="1.2923076923076922" height="40.30561687408124" fill="#3fb950" opacity="0.45"/>
<rect x="826.5003757168281" y="554.9160410425823" width="1.2923076923076922" height="25.083958957417735" fill="#f85149" opacity="0.45"/>
<rect x="828.6597587502472" y="545.792111883606" width="1.2923076923076922" height="34.207888116393974" fill="#3fb950" opacity="0.45"/>
<rect x="830.8191417836662" y="544.1522068333951" width="1.2923076923076922" height="35.8477931666049" fill="#f85149" opacity="0.45"/>
<rect x="832.9785248170851" y="549.1161072299468" width="1.2923076923076922" height="30.883892770053194" fill="#f85149" opacity="0.45"/>
<rect x="835.1379078505042" y="551.0827307179524" width="1.2923076923076922" height="28.91726928204764" fill="#f85149" opacity="0.45"/>
<rect x="837.2972908839233" y="554.0016525797039" width="1.2923076923076922" height="25.998347420296113" fill="#f85149" opacity="0.45"/>
<rect x="839.4566739173422" y="545.3239278139199" width="1.2923076923076922" height="34.67607218608009" fill="#3fb950" opacity="0.45"/>
<rect x="841.6160569507613" y="558.9970955761231" width="1.2923076923076922" height="21.002904423876885" fill="#f85149" opacity="0.45"/>
<rect x="843.7754399841804" y="557.5893911673392" width="1.2923076923076922" height="22.41060883266084" fill="#3fb950" opacity="0.45"/>
<rect x="845.9348230175993" y="560.1666411415013" width="1.2923076923076922" height="19.83335885849874" fill="#3fb950" opacity="0.45"/>
<rect x="848.0942060510184" y="539.019108584701" width="1.2923076923076922" height="40.98089141529897" fill="#3fb950" opacity="0.45"/>
<rect x="850.2535890844373" y="543.4787821124645" width="1.2923076923076922" height="36.5212178875355" fill="#3fb950" opacity="0.45"/>
<rect x="852.4129721178564" y="549.7549125715626" width="1.2923076923076922" height="30.245087428437387" fill="#3fb950" opacity="0.45"/>
<rect x="854.5723551512755" y="559.8762222996586" width="1.2923076923076922" height="20.123777700341407" fill="#f85149" opacity="0.45"/>
<rect x="856.7317381846944" y="556.1006533721245" width="1.2923076923076922" height="23.899346627875502" fill="#3fb950" opacity="0.45"/>
<rect x="858.8911212181134" y="560.9151417826914" width="1.2923076923076922" height="19.08485821730858" fill="#f85149" opacity="0.45"/>
<rect x="861.0505042515325" y="563.7098240040951" width="1.2923076923076922" height="16.29017599590486" fill="#f85149" opacity="0.45"/>
<rect x="863.2098872849515" y="566.83355901288" width="1.2923076923076922" height="13.16644098712004" fill="#3fb950" opacity="0.45"/>
<rect x="865.3692703183706" y="557.794929084851" width="1.2923076923076922" height="22.205070915149008" fill="#3fb950" opacity="0.45"/>
<rect x="867.5286533517896" y="556.11986530836" width="1.2923076923076922" height="23.880134691640023" fill="#f85149" opacity="0.45"/>
<rect x="869.6880363852085" y="545.3165071943514" width="1.2923076923076922" height="34.6834928056486" fill="#3fb950" opacity="0.45"/>
<rect x="871.8474194186276" y="550.6708896430328" width="1.2923076923076922" height="29.32911035696725" fill="#3fb950" opacity="0.45"/>
<rect x="874.0068024520466" y="534.2837408287286" width="1.2923076923076922" height="45.71625917127142" fill="#3fb950" opacity="0.45"/>
<rect x="876.1661854854657" y="541.0182830968794" width="1.2923076923076922" height="38.98171690312063" fill="#f85149" opacity="0.45"/>
<rect x="878.3255685188847" y="544.030286826482" width="1.2923076923076922" height="35.969713173518016" fill="#3fb950" opacity="0.45"/>
<rect x="880.4849515523036" y="554.0308214642786" width="1.2923076923076922" height="25.969178535721426" fill="#f85149" opacity="0.45"/>
<rect x="882.6443345857227" y="555.7077505130161" width="1.2923076923076922" height="24.292249486983906" fill="#3fb950" opacity="0.45"/>
<rect x="884.8037176191418" y="520.8856514237796" width="1.2923076923076922" height="59.114348576220436" fill="#3fb950" opacity="0.45"/>
<rect x="886.9631006525607" y="542.3640659856355" width="1.2923076923076922" height="37.635934014364466" fill="#f85149" opacity="0.45"/>
<rect x="889.1224836859798" y="534.8452830620167" width="1.2923076923076922" height="45.15471693798327" fill="#f85149" opacity="0.45"/>
<rect x="891.2818667193989" y="506.70932923235387" width="1.2923076923076922" height="73.29067076764613" fill="#3fb950" opacity="0.45"/>
<rect x="893.4412497528178" y="495.922090823174" width="1.2923076923076922" height="84.07790917682598" fill="#3fb950" opacity="0.45"/>
<rect x="895.6006327862369" y="522.973771093525" width="1.2923076923076922" height="57.02622890647501" fill="#f85149" opacity="0.45"/>
<rect x="897.7600158196559" y="502.1234345343965" width="1.2923076923076922" height="77.8765654656035" fill="#3fb950" opacity="0.45"/>
<rect x="899.9193988530749" y="512.8320022353246" width="1.2923076923076922" height="67.16799776467542" fill="#3fb950" opacity="0.45"/>
<rect x="902.078781886494" y="511.6415005018134" width="1.2923076923076922" height="68.35849949818657" fill="#3fb950" opacity="0.45"/>
<rect x="904.238164919913" y="525.9588163045603" width="1.2923076923076922" height="54.04118369543971" fill="#f85149" opacity="0.45"/>
<rect x="906.3975479533319" y="513.6158286311181" width="1.2923076923076922" height="66.38417136888188" fill="#f85149" opacity="0.45"/>
<rect x="908.556930986751" y="533.6827261971505" width="1.2923076923076922" height="46.31727380284951" fill="#3fb950" opacity="0.45"/>
<rect x="910.71631402017" y="533.0367000077274" width="1.2923076923076922" height="46.963299992272596" fill="#f85149" opacity="0.45"/>
<rect x="912.8756970535891" y="549.437397247229" width="1.2923076923076922" height="30.562602752771" fill="#f85149" opacity="0.45"/>
<rect x="915.035080087008" y="544.4763006455078" width="1.2923076923076922" height="35.52369935449224" fill="#f85149" opacity="0.45"/>
<rect x="917.194463120427" y="523.2074326809266" width="1.2923076923076922" height="56.79256731907344" fill="#3fb950" opacity="0.45"/>
<rect x="919.3538461538461" y="473.3940860965815" width="1.2923076923076922" height="106.60591390341853" fill="#3fb950" opacity="0.45"/>
<polyline points="80.0,348.1833570770133 82.15938303341902,361.58820078773147 84.31876606683805,363.4586440962038 86.47814910025707,370.4208497444062 88.63753213367609,368.9660605044833 90.79691516709512,372.1873795357412 92.95629820051414,372.3952065700159 95.11568123393316,374.4734769127629 97.27506426735218,370.940417330093 99.43444730077121,369.58954160730747 101.59383033419023,368.1347523673845 103.75321336760925,366.26430905891226 105.91259640102828,369.2778010558954 108.0719794344473,361.17254671918204 110.23136246786632,360.9647196849074 112.39074550128535,364.39386575043994 114.55012853470437,365.53691443895076 116.70951156812339,364.6016927847146 118.86889460154242,366.99170367887365 121.02827763496143,364.6016927847146 123.18766066838046,359.7177574792592 125.34704370179949,359.7177574792592 127.5064267352185,357.43166010223746 129.66580976863753,357.43166010223746 131.82519280205656,344.1307299086567 133.98457583547557,342.3642001173217 136.1439588688946,342.5720271515964 138.30334190231363,349.8459733512109 140.46272493573264,354.72990865666634 142.62210796915167,356.4964384480013 144.7814910025707,350.0538003854856 146.9408740359897,348.391184111288 149.10025706940874,339.66244867175055 151.25964010282777,347.3520489399145 153.41902313624678,347.0403083885024 155.5784061696658,351.7164166596832 157.73778920308484,350.2616274197603 159.89717223650385,353.48294645101817 162.05655526992285,353.1712058996061 164.2159383033419,350.0538003854856 166.37532133676092,352.3398977625073 168.53470437017995,354.10642755384225 170.69408740359899,353.6907734852929 172.853470437018,352.96337886533144 175.012853470437,347.45596245705184 177.17223650385603,349.2224922483868 179.33161953727506,348.8068381798374 181.4910025706941,349.63814631693623 183.65038560411313,353.3790329338808 185.80976863753213,356.1846978965893 187.96915167095113,357.1199195508254 190.12853470437017,357.3277465851001 192.2879177377892,357.1199195508254 194.44730077120823,356.2886114137266 196.60668380462727,354.31425458811697 198.7660668380463,354.31425458811697 200.9254498714653,358.782535825023 203.0848329048843,358.9903628592977 205.24421593830334,358.05514120506155 207.40359897172237,361.06863320204474 209.56298200514138,366.16039554177485 211.7223650385604,370.3169362272689 213.88174807197942,372.29129305287853 216.04113110539845,371.66781195005444 218.20051413881748,370.7325902958183 220.35989717223651,372.6030336042906 222.51928020565555,371.87563898432916 224.67866323907455,375.096958015587 226.83804627249359,373.95390932707613 228.9974293059126,370.21302271013155 231.15681233933162,370.940417330093 233.31619537275066,370.3169362272689 235.47557840616966,369.69345512444477 237.6349614395887,368.75823347020867 239.7943444730077,369.7973686415821 241.95372750642673,370.6286767786809 244.11311053984574,375.5126120841364 246.2724935732648,371.9795525014665 248.4318766066838,373.6421687756641 250.59125964010283,373.01868767284003 252.75064267352187,369.48562809017005 254.91002570694087,366.783876644599 257.0694087403599,366.36822257604956 259.2287917737789,367.9269253331098 261.38817480719797,365.9525685075002 263.54755784061695,365.9525685075002 265.706940874036,363.66647113047844 267.866323907455,365.1212603704014 270.025706940874,365.7447414732255 272.1850899742931,364.70560630185196 274.34447300771205,365.4330009218134 276.50385604113114,364.9134333361267 278.6632390745501,364.6016927847146 280.82262210796915,364.70560630185196 282.9820051413882,362.5234224419676 285.14138817480716,360.0294980306712 287.30077120822625,364.1860387161652 289.4601542416452,358.1590547221989 291.61953727506426,360.34123858208324 293.7789203084833,362.627335959105 295.93830334190227,362.1077683734182 298.09768637532136,364.08212519902787 300.25706940874034,363.77038464761586 302.4164524421594,363.66647113047844 304.5758354755784,360.0294980306712 306.73521850899743,359.4060169278471 308.89460154241647,358.9903628592977 311.05398457583544,358.470795273611 313.21336760925453,359.09427637643506 315.3727506426735,361.2764602363194 317.5321336760926,362.3155954076929 319.6915167095116,363.25081706192907 321.8508997429306,364.2899522333026 324.01028277634964,361.4842872705941 326.1696658097686,362.41950892483027 328.32904884318765,363.77038464761586 330.4884318766067,366.36822257604956 332.64781491002566,367.1995307131484 334.80719794344475,366.88779016173635 336.9665809768638,366.67996312746163 339.12596401028276,366.67996312746163 341.2853470437018,379.0456716668063 343.4447300771208,378.7339311153943 345.60411311053986,378.4221905639822 347.76349614395883,376.65566077264725 349.9228791773779,376.5517472555099 352.0822622107969,375.3047850498617 354.24164524421593,375.5126120841364 356.40102827763496,376.1360931869605 358.560411311054,376.65566077264725 360.71979434447303,376.5517472555099 362.879177377892,375.20087153272436 365.0385604113111,373.12260118997733 367.1979434447301,373.2265147071147 369.3573264781491,370.7325902958183 371.51670951156814,371.04433084723036 373.67609254498717,373.4343417413894 375.83547557840615,371.66781195005444 377.9948586118252,370.1091091929942 380.1542416452442,367.8230118159725 382.31362467866325,367.3034442302857 384.4730077120822,367.3034442302857 386.6323907455013,367.9269253331098 388.79177377892034,366.36822257604956 390.9511568123393,366.4721360931869 393.11053984575835,366.05648202463755 395.2699228791774,367.1995307131484 397.4293059125964,367.51127126456043 399.5886889460154,366.783876644599 401.7480719794344,367.71909829883515 403.90745501285346,367.4073577474231 406.0668380462725,369.9012821587195 408.22622107969147,370.4208497444062 410.38560411311056,370.21302271013155 412.5449871465296,368.86214698734597 414.70437017994857,371.35607139864237 416.8637532133676,369.9012821587195 419.02313624678663,371.35607139864237 421.18251928020567,371.7717254671918 423.34190231362464,370.940417330093 425.50128534704373,371.4599849157797 427.6606683804627,368.34257940165924 429.82005141388174,366.67996312746163 431.9794344473008,368.03083885024716 434.1388174807198,366.5760496103243 436.2982005141388,367.51127126456043 438.4575835475578,370.1091091929942 440.6169665809769,373.4343417413894 442.7763496143959,371.87563898432916 444.9357326478149,372.81086063856526 447.09511568123395,373.8499958099388 449.254498714653,373.7460822928014 451.41388174807196,371.66781195005444 453.573264781491,366.26430905891226 455.73264781491,365.4330009218134 457.89203084832906,365.9525685075002 460.05141388174803,365.9525685075002 462.2107969151671,364.1860387161652 464.37017994858616,365.6408279560881 466.52956298200513,365.1212603704014 468.68894601542416,363.87429816475316 470.8483290488432,365.7447414732255 473.00771208226223,365.6408279560881 475.1670951156812,363.04299002765435 477.32647814910024,365.53691443895076 479.4858611825193,364.39386575043994 481.6452442159383,364.39386575043994 483.8046272493573,363.9782116818905 485.96401028277637,366.05648202463755 488.1233933161954,366.99170367887365 490.2827763496144,364.39386575043994 492.4421593830334,361.6921143048688 494.60154241645245,360.9647196849074 496.7609254498715,359.5099304449845 498.92030848329046,361.4842872705941 501.0796915167095,356.392524930864 503.2390745501285,356.4964384480013 505.39845758354755,356.0807843794519 507.5578406169666,356.80817899941337 509.71722365038556,358.470795273611 511.8766066838046,361.7960278220062 514.0359897172236,361.4842872705941 516.1953727506427,361.89994133914354 518.3547557840618,361.58820078773147 520.5141388174807,359.1981898935724 522.6735218508998,361.06863320204474 524.8329048843189,361.58820078773147 526.9922879177378,357.43166010223746 529.1516709511568,358.67862230788563 531.3110539845759,358.26296823933626 533.4704370179949,360.86080616777 535.6298200514138,356.9120925165507 537.7892030848329,354.0025140367049 539.9485861182519,354.2103410709796 542.1079691516709,353.0672923824688 544.26735218509,353.3790329338808 546.4267352185091,353.0672923824688 548.5861182519279,347.0403083885024 550.745501285347,349.5342327997988 552.9048843187661,353.89860051956754 555.0642673521852,353.89860051956754 557.2236503856041,350.6772814883097 559.3830334190231,350.0538003854856 561.5424164524422,352.65163831391936 563.7017994858612,353.58685996815547 565.8611825192802,347.3520489399145 568.0205655526993,333.0119835749602 570.1799485861183,317.21712897008297 572.3393316195372,307.96882594485874 574.4987146529563,314.51537752451185 576.6580976863753,307.2414313248973 578.8174807197943,313.16450180172626 580.9768637532134,306.20229615352383 583.1362467866325,308.2805664962708 585.2956298200513,314.61929104164915 587.4550128534704,320.3345344842034 589.6143958868895,322.7245453783625 591.7737789203086,321.685410206989 593.9331619537276,324.3871616525601 596.0925449871465,313.9958099388251 598.2519280205655,317.6327830386323 600.4113110539846,307.55317187630936 602.5706940874036,289.2643928601358 604.7300771208226,277.8339059750272 606.8894601542416,279.1847816978128 609.0488431876606,294.14832816559124 611.2082262210797,274.50867342663196 613.3676092544987,281.4708790748345 615.5269922879177,277.0025978379284 617.6863753213368,278.4573870778513 619.8457583547558,280.22391686918627 622.0051413881748,267.6503812955669 624.1645244215938,272.43040308388504 626.3239074550129,286.666554931702 628.4832904884319,268.4816894326657 630.642673521851,269.2090840526272 632.8020565552699,264.63688929858375 634.9614395886889,241.98374256264142 637.120822622108,231.6963043660437 639.280205655527,215.4857956926171 641.4395886889461,195.74222743652058 643.598971722365,207.0688008044918 645.758354755784,201.66529791334955 647.9177377892031,183.3765188971759 650.0771208226222,187.63697309980725 652.236503856041,157.294226095701 654.3958868894601,148.5654906561636 656.5552699228792,144.40894997066954 658.7146529562982,134.74499287689596 660.8740359897172,99.10265649878485 663.0334190231363,92.97175898768126 665.1928020565553,68.44816894326658 667.3521850899743,110.63705690103073 669.5115681233933,95.77742395038965 671.6709511568123,135.26456046258275 673.8303341902314,157.294226095701 675.9897172236504,167.47775077516133 678.1491002570694,143.9932959021201 680.3084832904884,154.28073409871783 682.4678663239074,154.28073409871783 684.6272493573265,131.83541439705022 686.7866323907456,132.35498198273694 688.9460154241644,148.25375010475153 691.1053984575835,158.22944774993715 693.2647814910026,161.03511271264568 695.4241645244216,169.14036704935887 697.5835475578407,162.38598843543116 699.7429305912597,162.59381546970587 701.9023136246786,164.04860470962876 704.0616966580977,158.02162071566244 706.2210796915167,184.93522165423616 708.3804627249357,187.0134919969832 710.5398457583548,198.3400653649543 712.6992287917737,179.01215117740722 714.8586118251928,194.079611162323 717.0179948586119,189.4035028911422 719.1773778920308,183.79217296572534 721.3367609254499,153.03377189306963 723.4961439588689,135.88804156540687 725.655526992288,136.3036956339563 727.8149100257069,106.89617028408611 729.9742930591259,137.86239839101654 732.133676092545,135.5763010139948 734.2930591259641,138.48587949384066 736.4524421593829,127.26321964300676 738.611825192802,125.91234392022128 740.7712082262211,140.5641498365876 742.9305912596401,148.981144724713 745.0899742930592,148.66940417330093 747.2493573264782,151.57898265314674 749.4087403598971,148.25375010475153 751.5681233933162,163.0094695382553 753.7275064267352,153.96899354730576 755.8868894601542,158.54118830134922 758.0462724935733,156.25509092432745 760.2056555269922,171.73820497779266 762.3650385604113,166.64644263806255 764.5244215938303,165.5033939495517 766.6838046272493,161.34685326405764 768.8431876606684,167.2699237408866 771.0025706940875,184.72739461996142 773.1619537275064,186.80566496270845 775.3213367609254,191.48177323388924 777.4807197943445,190.02698399396635 779.6401028277635,196.2617950222073 781.7994858611826,188.57219475404344 783.9588688946016,189.92307047682894 786.1182519280205,199.48311405346516 788.2776349614396,181.81781614011567 790.4370179948586,181.60998910584095 792.5964010282776,190.54655157965306 794.7557840616967,177.1417078689349 796.9151670951156,180.0512863487807 799.0745501285347,174.12821587195174 801.2339331619538,174.95952400905054 803.3933161953727,160.8272856783709 805.5526992287918,167.58166429229868 807.7120822622109,172.46559959775408 809.8714652956298,186.18218385988433 812.0308483290488,194.4952652308724 814.1902313624679,192.2091678538507 816.3496143958869,191.06611916533979 818.508997429306,193.56004357663622 820.6683804627249,190.13089751110365 822.8277634961439,187.74088661694458 824.987146529563,172.36168608061678 827.146529562982,175.16735104332525 829.3059125964011,170.28341573786975 831.46529562982,173.4008212519903 833.624678663239,193.0404759909495 835.7840616966581,207.27662783876642 837.9434447300772,224.21453113215452 840.1028277634961,219.4345093438364 842.2622107969152,224.63018520070392 844.4215938303342,219.33059582669907 846.5809768637532,214.65448755551833 848.7403598971723,203.74356825609658 850.8997429305912,194.91091929942178 853.0591259640103,191.06611916533979 855.2185089974294,201.76921143048688 857.3778920308483,199.37920053632786 859.5372750642673,202.28877901617366 861.6966580976864,209.4588116986508 863.8560411311054,206.23749266739293 866.0154241645245,198.02832481354227 868.1748071979434,205.09444397888205 870.3341902313624,197.1970166764435 872.4935732647815,192.93656247381207 874.6529562982005,169.9716751864578 876.8123393316196,178.70041062599515 878.9717223650385,178.07692952317103 881.1311053984575,179.01215117740722 883.2904884318766,177.86910248889635 885.4498714652957,158.8529288527613 887.6092544987146,159.26858292131067 889.7686375321337,178.70041062599515 891.9280205655527,147.5263554847901 894.0874035989717,132.14715494846223 896.2467866323908,140.0445822509009 898.4061696658098,118.11883013492 900.5655526992288,113.54663538087654 902.7249357326479,94.73828877901622 904.8843187660668,100.76527277298251 907.0437017994858,127.26321964300676 909.2030848329049,122.17145730327665 911.3624678663239,134.22542529120926 913.521850899743,135.056733428308 915.6812339331619,146.38330679627921 917.8406169665809,111.88401910667895 920.0,98.16743484454872" stroke="#58a6ff" stroke-width="1.8" fill="none"/>
<line x1="80" y1="106.89617028408611" x2="920" y2="106.89617028408611" stroke="#f0883e" stroke-width="1.5" stroke-dasharray="6,3"/>
<text x="925" y="110.89617028408611" font-size="11" fill="#f0883e" font-weight="bold">颈线 36.95</text>
<line x1="80" y1="14.309226514707063" x2="920" y2="14.309226514707063" stroke="#a371f7" stroke-width="1.2" stroke-dasharray="4,4"/>
<text x="925" y="18.309226514707063" font-size="11" fill="#a371f7" font-weight="bold">目标 45.86 (+21.4%)</text>
<circle cx="710.5398457583548" cy="198.3400653649543" r="6" fill="#238636" stroke="#fff" stroke-width="2"/>
<text x="710.5398457583548" y="218.3400653649543" text-anchor="middle" font-size="10" fill="#3fb950">左底 28.15</text>
<circle cx="786.1182519280205" cy="199.48311405346516" r="6" fill="#8957e5" stroke="#fff" stroke-width="2"/>
<text x="786.1182519280205" y="219.48311405346516" text-anchor="middle" font-size="10" fill="#bc8cff">右底 28.04</text>
<circle cx="902.7249357326479" cy="106.89617028408611" r="7" fill="#f0883e" stroke="#fff" stroke-width="2"/>
<text x="902.7249357326479" y="94.89617028408611" text-anchor="middle" font-size="10" fill="#f0883e">突破</text>
<line x1="920.0" y1="98.16743484454872" x2="920" y2="98.16743484454872" stroke="#f85149" stroke-width="1"/>
<text x="925" y="102.16743484454872" font-size="11" fill="#f85149" font-weight="bold">现价 37.79</text>
<text x="80" y="598" font-size="13" fill="#58a6ff" font-weight="bold">筛选高分原因:</text>
<text x="90" y="618" font-size="11" fill="#c9d1d9">  1. 突破8天</text>
<text x="90" y="636" font-size="11" fill="#c9d1d9">  2. 右底显著缩量(35%)</text>
<text x="90" y="654" font-size="11" fill="#c9d1d9">  3. 形态跨度大(35根K线)</text>
<text x="90" y="672" font-size="11" fill="#c9d1d9">  4. MACD底背离</text>
<text x="90" y="690" font-size="11" fill="#c9d1d9">  5. 两底齐平</text>
<text x="928" y="80" font-size="11" fill="#8b949e">突破日: 2026-05-06</text>
<text x="928" y="98" font-size="11" fill="#8b949e">突破后涨幅: 2.3%</text>
<text x="928" y="116" font-size="11" fill="#8b949e">目标空间: 21.4%</text>
<text x="928" y="134" font-size="11" fill="#8b949e">形态跨度: 35根K线</text>
</svg>