<svg xmlns="http://www.w3.org/2000/svg" viewBox="0 0 900 700" width="900" height="700">
<rect width="900" height="700" fill="#1a1a2e"/>
<text x="450.0" y="28" text-anchor="middle" font-size="16" fill="#e0e0e0" font-weight="bold">金达莱 (688057.SH)  三角收敛上涨中继  评分:98/100</text>
<line x1="70" y1="374.0" x2="840" y2="374.0" stroke="#2a2a4a" stroke-width="0.5"/>
<text x="65" y="378.0" text-anchor="end" font-size="10" fill="#888">8.63</text>
<line x1="70" y1="309.2" x2="840" y2="309.2" stroke="#2a2a4a" stroke-width="0.5"/>
<text x="65" y="313.2" text-anchor="end" font-size="10" fill="#888">10.17</text>
<line x1="70" y1="244.39999999999995" x2="840" y2="244.39999999999995" stroke="#2a2a4a" stroke-width="0.5"/>
<text x="65" y="248.39999999999995" text-anchor="end" font-size="10" fill="#888">11.71</text>
<line x1="70" y1="179.59999999999997" x2="840" y2="179.59999999999997" stroke="#2a2a4a" stroke-width="0.5"/>
<text x="65" y="183.59999999999997" text-anchor="end" font-size="10" fill="#888">13.25</text>
<line x1="70" y1="114.79999999999998" x2="840" y2="114.79999999999998" stroke="#2a2a4a" stroke-width="0.5"/>
<text x="65" y="118.79999999999998" text-anchor="end" font-size="10" fill="#888">14.80</text>
<line x1="70" y1="50.0" x2="840" y2="50.0" stroke="#2a2a4a" stroke-width="0.5"/>
<text x="65" y="54.0" text-anchor="end" font-size="10" fill="#888">16.34</text>
<text x="70.0" y="551.0" text-anchor="middle" font-size="9" fill="#888">2024-05-06</text>
<text x="166.43545279383432" y="551.0" text-anchor="middle" font-size="9" fill="#888">2024-08-06</text>
<text x="262.87090558766863" y="551.0" text-anchor="middle" font-size="9" fill="#888">2024-11-14</text>
<text x="359.3063583815029" y="551.0" text-anchor="middle" font-size="9" fill="#888">2025-02-24</text>
<text x="455.7418111753372" y="551.0" text-anchor="middle" font-size="9" fill="#888">2025-05-30</text>
<text x="552.1772639691715" y="551.0" text-anchor="middle" font-size="9" fill="#888">2025-09-01</text>
<text x="648.6127167630058" y="551.0" text-anchor="middle" font-size="9" fill="#888">2025-12-09</text>
<text x="745.0481695568401" y="551.0" text-anchor="middle" font-size="9" fill="#888">2026-03-20</text>
<rect x="801.4258188824663" y="50" width="34.12331406551061" height="486.0" fill="#FFD700" opacity="0.06"/>
<rect x="69.48173076923077" y="522.0201843780351" width="1.0365384615384616" height="13.979815621964917" fill="#4CAF50" opacity="0.5"/>
<rect x="70.96535311990515" y="528.0684160072134" width="1.0365384615384616" height="7.931583992786614" fill="#f44336" opacity="0.5"/>
<rect x="72.44897547057951" y="526.0557403530212" width="1.0365384615384616" height="9.944259646978821" fill="#f44336" opacity="0.5"/>
<rect x="73.93259782125389" y="527.0727137715443" width="1.0365384615384616" height="8.927286228455728" fill="#4CAF50" opacity="0.5"/>
<rect x="75.41622017192826" y="528.9182364366804" width="1.0365384615384616" height="7.081763563319555" fill="#f44336" opacity="0.5"/>
<rect x="76.89984252260264" y="528.1687389739321" width="1.0365384615384616" height="7.831261026067864" fill="#4CAF50" opacity="0.5"/>
<rect x="78.383464873277" y="530.3349155519778" width="1.0365384615384616" height="5.665084448022185" fill="#f44336" opacity="0.5"/>
<rect x="79.86708722395139" y="531.0447862680475" width="1.0365384615384616" height="4.95521373195254" fill="#f44336" opacity="0.5"/>
<rect x="81.35070957462575" y="530.1873283837022" width="1.0365384615384616" height="5.812671616297848" fill="#4CAF50" opacity="0.5"/>
<rect x="82.83433192530013" y="530.8257114218787" width="1.0365384615384616" height="5.1742885781212635" fill="#4CAF50" opacity="0.5"/>
<rect x="84.3179542759745" y="526.7688109151322" width="1.0365384615384616" height="9.231189084867765" fill="#4CAF50" opacity="0.5"/>
<rect x="85.80157662664888" y="526.7032278242037" width="1.0365384615384616" height="9.296772175796264" fill="#f44336" opacity="0.5"/>
<rect x="87.28519897732325" y="531.4377622026602" width="1.0365384615384616" height="4.562237797339776" fill="#f44336" opacity="0.5"/>
<rect x="88.76882132799763" y="527.9963323694558" width="1.0365384615384616" height="8.003667630544214" fill="#f44336" opacity="0.5"/>
<rect x="90.252443678672" y="532.1660710000743" width="1.0365384615384616" height="3.8339289999256607" fill="#f44336" opacity="0.5"/>
<rect x="91.73606602934638" y="528.8315288607109" width="1.0365384615384616" height="7.168471139289068" fill="#4CAF50" opacity="0.5"/>
<rect x="93.21968838002074" y="530.7786214239745" width="1.0365384615384616" height="5.221378576025472" fill="#f44336" opacity="0.5"/>
<rect x="94.70331073069512" y="531.1661512022877" width="1.0365384615384616" height="4.833848797712335" fill="#4CAF50" opacity="0.5"/>
<rect x="96.18693308136949" y="531.4291803806123" width="1.0365384615384616" height="4.570819619387748" fill="#f44336" opacity="0.5"/>
<rect x="97.67055543204387" y="531.8232932232742" width="1.0365384615384616" height="4.176706776725837" fill="#f44336" opacity="0.5"/>
<rect x="99.15417778271824" y="525.9430672641886" width="1.0365384615384616" height="10.056932735811415" fill="#f44336" opacity="0.5"/>
<rect x="100.63780013339262" y="528.3263932796102" width="1.0365384615384616" height="7.673606720389785" fill="#f44336" opacity="0.5"/>
<rect x="102.121422484067" y="522.901572343091" width="1.0365384615384616" height="13.098427656909053" fill="#f44336" opacity="0.5"/>
<rect x="103.60504483474136" y="517.6540448819364" width="1.0365384615384616" height="18.345955118063557" fill="#f44336" opacity="0.5"/>
<rect x="105.08866718541573" y="526.1452810305002" width="1.0365384615384616" height="9.8547189694998" fill="#4CAF50" opacity="0.5"/>
<rect x="106.57228953609011" y="528.7861258876537" width="1.0365384615384616" height="7.213874112346275" fill="#f44336" opacity="0.5"/>
<rect x="108.05591188676449" y="527.8350197870715" width="1.0365384615384616" height="8.164980212928526" fill="#4CAF50" opacity="0.5"/>
<rect x="109.53953423743886" y="528.6771110755274" width="1.0365384615384616" height="7.322888924472636" fill="#4CAF50" opacity="0.5"/>
<rect x="111.02315658811322" y="531.5644174267741" width="1.0365384615384616" height="4.435582573225929" fill="#4CAF50" opacity="0.5"/>
<rect x="112.5067789387876" y="531.6508407757314" width="1.0365384615384616" height="4.3491592242686465" fill="#f44336" opacity="0.5"/>
<rect x="113.99040128946199" y="530.2625660244346" width="1.0365384615384616" height="5.737433975565409" fill="#4CAF50" opacity="0.5"/>
<rect x="115.47402364013635" y="531.5816635883896" width="1.0365384615384616" height="4.418336411610426" fill="#f44336" opacity="0.5"/>
<rect x="116.95764599081072" y="524.9734038902889" width="1.0365384615384616" height="11.026596109711136" fill="#4CAF50" opacity="0.5"/>
<rect x="118.4412683414851" y="526.170962316351" width="1.0365384615384616" height="9.829037683648949" fill="#f44336" opacity="0.5"/>
<rect x="119.92489069215948" y="524.0336393643577" width="1.0365384615384616" height="11.966360635642332" fill="#f44336" opacity="0.5"/>
<rect x="121.40851304283386" y="530.8413989192335" width="1.0365384615384616" height="5.158601080766516" fill="#4CAF50" opacity="0.5"/>
<rect x="122.89213539350821" y="530.5611510851331" width="1.0365384615384616" height="5.438848914866867" fill="#4CAF50" opacity="0.5"/>
<rect x="124.3757577441826" y="531.7606074141482" width="1.0365384615384616" height="4.2393925858517605" fill="#f44336" opacity="0.5"/>
<rect x="125.85938009485697" y="530.5007849351719" width="1.0365384615384616" height="5.4992150648281495" fill="#4CAF50" opacity="0.5"/>
<rect x="127.34300244553135" y="530.9749306033216" width="1.0365384615384616" height="5.025069396678418" fill="#f44336" opacity="0.5"/>
<rect x="128.82662479620572" y="531.7276554179512" width="1.0365384615384616" height="4.272344582048845" fill="#f44336" opacity="0.5"/>
<rect x="130.3102471468801" y="531.9557338423797" width="1.0365384615384616" height="4.044266157620314" fill="#f44336" opacity="0.5"/>
<rect x="131.79386949755448" y="530.7177418316685" width="1.0365384615384616" height="5.282258168331509" fill="#f44336" opacity="0.5"/>
<rect x="133.27749184822886" y="532.2794225662911" width="1.0365384615384616" height="3.720577433708854" fill="#4CAF50" opacity="0.5"/>
<rect x="134.76111419890324" y="531.6247469022821" width="1.0365384615384616" height="4.375253097717859" fill="#f44336" opacity="0.5"/>
<rect x="136.2447365495776" y="527.4295286953054" width="1.0365384615384616" height="8.570471304694593" fill="#4CAF50" opacity="0.5"/>
<rect x="137.72835890025198" y="532.0945833221813" width="1.0365384615384616" height="3.905416677818721" fill="#f44336" opacity="0.5"/>
<rect x="139.21198125092636" y="524.5202635152074" width="1.0365384615384616" height="11.479736484792625" fill="#4CAF50" opacity="0.5"/>
<rect x="140.6956036016007" y="527.1926667393363" width="1.0365384615384616" height="8.807333260663654" fill="#f44336" opacity="0.5"/>
<rect x="142.1792259522751" y="532.0357941737075" width="1.0365384615384616" height="3.9642058262925275" fill="#f44336" opacity="0.5"/>
<rect x="143.66284830294947" y="532.8966444449734" width="1.0365384615384616" height="3.10335555502661" fill="#4CAF50" opacity="0.5"/>
<rect x="145.14647065362385" y="529.1817240456701" width="1.0365384615384616" height="6.81827595432992" fill="#4CAF50" opacity="0.5"/>
<rect x="146.63009300429823" y="531.897439799024" width="1.0365384615384616" height="4.102560200975972" fill="#4CAF50" opacity="0.5"/>
<rect x="148.11371535497258" y="527.296052022897" width="1.0365384615384616" height="8.703947977102985" fill="#4CAF50" opacity="0.5"/>
<rect x="149.59733770564696" y="530.10667209251" width="1.0365384615384616" height="5.893327907489947" fill="#f44336" opacity="0.5"/>
<rect x="151.08096005632135" y="524.6359530778154" width="1.0365384615384616" height="11.36404692218457" fill="#4CAF50" opacity="0.5"/>
<rect x="152.5645824069957" y="523.9678912383897" width="1.0365384615384616" height="12.032108761610289" fill="#f44336" opacity="0.5"/>
<rect x="154.0482047576701" y="531.9299425331693" width="1.0365384615384616" height="4.07005746683069" fill="#4CAF50" opacity="0.5"/>
<rect x="155.53182710834446" y="530.2835713175028" width="1.0365384615384616" height="5.716428682497167" fill="#4CAF50" opacity="0.5"/>
<rect x="157.0154494590188" y="532.6442325208491" width="1.0365384615384616" height="3.355767479150927" fill="#f44336" opacity="0.5"/>
<rect x="158.49907180969322" y="533.1820633769744" width="1.0365384615384616" height="2.8179366230256164" fill="#4CAF50" opacity="0.5"/>
<rect x="159.98269416036757" y="529.3673151160705" width="1.0365384615384616" height="6.632684883929528" fill="#4CAF50" opacity="0.5"/>
<rect x="161.46631651104195" y="531.096423898148" width="1.0365384615384616" height="4.903576101851968" fill="#f44336" opacity="0.5"/>
<rect x="162.94993886171633" y="531.9228001834093" width="1.0365384615384616" height="4.077199816590678" fill="#f44336" opacity="0.5"/>
<rect x="164.43356121239069" y="531.2622932813421" width="1.0365384615384616" height="4.7377067186579325" fill="#f44336" opacity="0.5"/>
<rect x="165.9171835630651" y="532.5422225292833" width="1.0365384615384616" height="3.457777470716678" fill="#4CAF50" opacity="0.5"/>
<rect x="167.40080591373945" y="533.8280563641891" width="1.0365384615384616" height="2.1719436358108624" fill="#f44336" opacity="0.5"/>
<rect x="168.88442826441383" y="532.6750573987607" width="1.0365384615384616" height="3.324942601239286" fill="#f44336" opacity="0.5"/>
<rect x="170.3680506150882" y="533.1475252106767" width="1.0365384615384616" height="2.85247478932331" fill="#4CAF50" opacity="0.5"/>
<rect x="171.85167296576256" y="531.956632366483" width="1.0365384615384616" height="4.04336763351705" fill="#4CAF50" opacity="0.5"/>
<rect x="173.33529531643697" y="530.7926860767753" width="1.0365384615384616" height="5.20731392322466" fill="#4CAF50" opacity="0.5"/>
<rect x="174.81891766711132" y="532.9859100640534" width="1.0365384615384616" height="3.014089935946572" fill="#f44336" opacity="0.5"/>
<rect x="176.30254001778567" y="530.6989828488586" width="1.0365384615384616" height="5.301017151141423" fill="#f44336" opacity="0.5"/>
<rect x="177.78616236846008" y="533.1686496957178" width="1.0365384615384616" height="2.831350304282182" fill="#f44336" opacity="0.5"/>
<rect x="179.26978471913444" y="532.9371697157553" width="1.0365384615384616" height="3.062830284244683" fill="#f44336" opacity="0.5"/>
<rect x="180.75340706980882" y="532.4859089064003" width="1.0365384615384616" height="3.5140910935997454" fill="#f44336" opacity="0.5"/>
<rect x="182.2370294204832" y="532.8969653464388" width="1.0365384615384616" height="3.103034653561167" fill="#f44336" opacity="0.5"/>
<rect x="183.72065177115755" y="532.3582818092767" width="1.0365384615384616" height="3.6417181907232816" fill="#f44336" opacity="0.5"/>
<rect x="185.20427412183196" y="532.347499520037" width="1.0365384615384616" height="3.6525004799630096" fill="#f44336" opacity="0.5"/>
<rect x="186.6878964725063" y="532.4503255181864" width="1.0365384615384616" height="3.549674481813554" fill="#4CAF50" opacity="0.5"/>
<rect x="188.17151882318066" y="532.1904503428367" width="1.0365384615384616" height="3.809549657163302" fill="#f44336" opacity="0.5"/>
<rect x="189.65514117385507" y="532.511956936783" width="1.0365384615384616" height="3.488043063216992" fill="#f44336" opacity="0.5"/>
<rect x="191.13876352452942" y="530.5718691940798" width="1.0365384615384616" height="5.428130805920205" fill="#4CAF50" opacity="0.5"/>
<rect x="192.62238587520383" y="528.5941717996237" width="1.0365384615384616" height="7.405828200376277" fill="#4CAF50" opacity="0.5"/>
<rect x="194.10600822587818" y="527.1080771130389" width="1.0365384615384616" height="8.891922886961083" fill="#4CAF50" opacity="0.5"/>
<rect x="195.58963057655254" y="532.6068062413622" width="1.0365384615384616" height="3.3931937586378353" fill="#4CAF50" opacity="0.5"/>
<rect x="197.07325292722695" y="532.8925735806686" width="1.0365384615384616" height="3.107426419331432" fill="#f44336" opacity="0.5"/>
<rect x="198.5568752779013" y="534.3867091411167" width="1.0365384615384616" height="1.6132908588832606" fill="#4CAF50" opacity="0.5"/>
<rect x="200.04049762857568" y="532.462666471687" width="1.0365384615384616" height="3.5373335283129563" fill="#f44336" opacity="0.5"/>
<rect x="201.52411997925006" y="531.5881824724453" width="1.0365384615384616" height="4.411817527554717" fill="#4CAF50" opacity="0.5"/>
<rect x="203.0077423299244" y="532.7523854833253" width="1.0365384615384616" height="3.24761451667473" fill="#4CAF50" opacity="0.5"/>
<rect x="204.4913646805988" y="534.2180158250266" width="1.0365384615384616" height="1.781984174973445" fill="#f44336" opacity="0.5"/>
<rect x="205.97498703127317" y="534.4753237886525" width="1.0365384615384616" height="1.5246762113474688" fill="#f44336" opacity="0.5"/>
<rect x="207.45860938194753" y="533.2280256354428" width="1.0365384615384616" height="2.7719743645571953" fill="#f44336" opacity="0.5"/>
<rect x="208.94223173262193" y="533.8820228220677" width="1.0365384615384616" height="2.117977177932289" fill="#f44336" opacity="0.5"/>
<rect x="210.4258540832963" y="533.5335421677954" width="1.0365384615384616" height="2.4664578322045827" fill="#4CAF50" opacity="0.5"/>
<rect x="211.90947643397067" y="534.1450336631657" width="1.0365384615384616" height="1.854966336834309" fill="#f44336" opacity="0.5"/>
<rect x="213.39309878464505" y="533.9583240219428" width="1.0365384615384616" height="2.041675978057242" fill="#4CAF50" opacity="0.5"/>
<rect x="214.8767211353194" y="528.1055030480082" width="1.0365384615384616" height="7.894496951991755" fill="#4CAF50" opacity="0.5"/>
<rect x="216.36034348599378" y="527.5114044120663" width="1.0365384615384616" height="8.488595587933673" fill="#4CAF50" opacity="0.5"/>
<rect x="217.84396583666816" y="526.7324757006279" width="1.0365384615384616" height="9.267524299372099" fill="#4CAF50" opacity="0.5"/>
<rect x="219.32758818734254" y="525.4968216863081" width="1.0365384615384616" height="10.503178313691933" fill="#4CAF50" opacity="0.5"/>
<rect x="220.81121053801692" y="500.25837985787166" width="1.0365384615384616" height="35.74162014212834" fill="#4CAF50" opacity="0.5"/>
<rect x="222.29483288869127" y="482.49327472953286" width="1.0365384615384616" height="53.50672527046714" fill="#4CAF50" opacity="0.5"/>
<rect x="223.77845523936566" y="501.01204903967107" width="1.0365384615384616" height="34.98795096032893" fill="#f44336" opacity="0.5"/>
<rect x="225.26207759004004" y="517.6409521021453" width="1.0365384615384616" height="18.35904789785468" fill="#f44336" opacity="0.5"/>
<rect x="226.7456999407144" y="520.8980928080379" width="1.0365384615384616" height="15.101907191962141" fill="#f44336" opacity="0.5"/>
<rect x="228.22932229138877" y="524.7613338646806" width="1.0365384615384616" height="11.238666135319363" fill="#4CAF50" opacity="0.5"/>
<rect x="229.71294464206315" y="529.8823711367608" width="1.0365384615384616" height="6.117628863239247" fill="#f44336" opacity="0.5"/>
<rect x="231.19656699273753" y="529.972315233225" width="1.0365384615384616" height="6.027684766774996" fill="#f44336" opacity="0.5"/>
<rect x="232.68018934341188" y="529.255907295873" width="1.0365384615384616" height="6.744092704126956" fill="#4CAF50" opacity="0.5"/>
<rect x="234.16381169408626" y="523.2835734475848" width="1.0365384615384616" height="12.716426552415214" fill="#4CAF50" opacity="0.5"/>
<rect x="235.64743404476064" y="520.2940187208266" width="1.0365384615384616" height="15.705981279173443" fill="#4CAF50" opacity="0.5"/>
<rect x="237.13105639543502" y="527.3404831229445" width="1.0365384615384616" height="8.659516877055466" fill="#f44336" opacity="0.5"/>
<rect x="238.6146787461094" y="525.6509002327994" width="1.0365384615384616" height="10.349099767200642" fill="#4CAF50" opacity="0.5"/>
<rect x="240.09830109678376" y="530.0304809159945" width="1.0365384615384616" height="5.969519084005469" fill="#4CAF50" opacity="0.5"/>
<rect x="241.58192344745814" y="520.3139604547521" width="1.0365384615384616" height="15.686039545247922" fill="#4CAF50" opacity="0.5"/>
<rect x="243.06554579813252" y="516.243921325148" width="1.0365384615384616" height="19.756078674852006" fill="#4CAF50" opacity="0.5"/>
<rect x="244.54916814880687" y="520.9469706855353" width="1.0365384615384616" height="15.053029314464652" fill="#f44336" opacity="0.5"/>
<rect x="246.03279049948125" y="527.1341618178749" width="1.0365384615384616" height="8.865838182125117" fill="#f44336" opacity="0.5"/>
<rect x="247.51641285015563" y="519.0685418672687" width="1.0365384615384616" height="16.931458132731336" fill="#4CAF50" opacity="0.5"/>
<rect x="249.00003520083" y="518.9887932687931" width="1.0365384615384616" height="17.011206731206926" fill="#f44336" opacity="0.5"/>
<rect x="250.4836575515044" y="528.9930339839746" width="1.0365384615384616" height="7.006966016025444" fill="#4CAF50" opacity="0.5"/>
<rect x="251.96727990217875" y="521.7692669378786" width="1.0365384615384616" height="14.23073306212143" fill="#4CAF50" opacity="0.5"/>
<rect x="253.45090225285313" y="519.5781150572061" width="1.0365384615384616" height="16.421884942793895" fill="#f44336" opacity="0.5"/>
<rect x="254.9345246035275" y="508.0589076921609" width="1.0365384615384616" height="27.941092307839085" fill="#4CAF50" opacity="0.5"/>
<rect x="256.41814695420186" y="485.0847374354573" width="1.0365384615384616" height="50.91526256454267" fill="#4CAF50" opacity="0.5"/>
<rect x="257.90176930487627" y="507.1986533807594" width="1.0365384615384616" height="28.801346619240576" fill="#4CAF50" opacity="0.5"/>
<rect x="259.38539165555056" y="497.61098861082263" width="1.0365384615384616" height="38.38901138917737" fill="#f44336" opacity="0.5"/>
<rect x="260.869014006225" y="514.2665173263175" width="1.0365384615384616" height="21.733482673682488" fill="#f44336" opacity="0.5"/>
<rect x="262.3526363568994" y="519.3185149402553" width="1.0365384615384616" height="16.68148505974466" fill="#f44336" opacity="0.5"/>
<rect x="263.83625870757373" y="507.57300786176177" width="1.0365384615384616" height="28.426992138238234" fill="#f44336" opacity="0.5"/>
<rect x="265.3198810582481" y="516.803692672898" width="1.0365384615384616" height="19.196307327101977" fill="#f44336" opacity="0.5"/>
<rect x="266.8035034089225" y="520.8332432061733" width="1.0365384615384616" height="15.166756793826721" fill="#4CAF50" opacity="0.5"/>
<rect x="268.28712575959685" y="518.5472420209217" width="1.0365384615384616" height="17.452757979078342" fill="#4CAF50" opacity="0.5"/>
<rect x="269.7707481102712" y="516.2065042142743" width="1.0365384615384616" height="19.793495785725668" fill="#4CAF50" opacity="0.5"/>
<rect x="271.2543704609456" y="513.5494125743548" width="1.0365384615384616" height="22.450587425645153" fill="#f44336" opacity="0.5"/>
<rect x="272.73799281161996" y="526.5746196854573" width="1.0365384615384616" height="9.425380314542736" fill="#4CAF50" opacity="0.5"/>
<rect x="274.2216151622943" y="519.2945665223181" width="1.0365384615384616" height="16.705433477681936" fill="#f44336" opacity="0.5"/>
<rect x="275.7052375129687" y="524.6128573409151" width="1.0365384615384616" height="11.38714265908493" fill="#4CAF50" opacity="0.5"/>
<rect x="277.18885986364313" y="519.8694935878516" width="1.0365384615384616" height="16.130506412148407" fill="#4CAF50" opacity="0.5"/>
<rect x="278.6724822143174" y="516.5680134680447" width="1.0365384615384616" height="19.431986531955317" fill="#4CAF50" opacity="0.5"/>
<rect x="280.15610456499184" y="518.1081571300277" width="1.0365384615384616" height="17.891842869972265" fill="#4CAF50" opacity="0.5"/>
<rect x="281.63972691566624" y="513.6454629672762" width="1.0365384615384616" height="22.354537032723783" fill="#4CAF50" opacity="0.5"/>
<rect x="283.12334926634054" y="525.5187621779328" width="1.0365384615384616" height="10.481237822067214" fill="#f44336" opacity="0.5"/>
<rect x="284.60697161701495" y="525.9566643177111" width="1.0365384615384616" height="10.043335682288898" fill="#4CAF50" opacity="0.5"/>
<rect x="286.09059396768936" y="523.8513398261316" width="1.0365384615384616" height="12.148660173868393" fill="#4CAF50" opacity="0.5"/>
<rect x="287.5742163183637" y="527.04796768425" width="1.0365384615384616" height="8.952032315749989" fill="#f44336" opacity="0.5"/>
<rect x="289.05783866903806" y="524.3802404529035" width="1.0365384615384616" height="11.619759547096464" fill="#4CAF50" opacity="0.5"/>
<rect x="290.5414610197125" y="526.918855271772" width="1.0365384615384616" height="9.081144728227969" fill="#4CAF50" opacity="0.5"/>
<rect x="292.0250833703868" y="522.3972344313473" width="1.0365384615384616" height="13.602765568652671" fill="#4CAF50" opacity="0.5"/>
<rect x="293.5087057210612" y="515.7154607918144" width="1.0365384615384616" height="20.284539208185606" fill="#f44336" opacity="0.5"/>
<rect x="294.9923280717356" y="527.2291394830402" width="1.0365384615384616" height="8.770860516959829" fill="#4CAF50" opacity="0.5"/>
<rect x="296.47595042241" y="515.3059813532632" width="1.0365384615384616" height="20.694018646736822" fill="#f44336" opacity="0.5"/>
<rect x="297.9595727730843" y="528.1789528091473" width="1.0365384615384616" height="7.82104719085271" fill="#f44336" opacity="0.5"/>
<rect x="299.4431951237587" y="527.5145492464279" width="1.0365384615384616" height="8.485450753572081" fill="#f44336" opacity="0.5"/>
<rect x="300.9268174744331" y="527.60684967651" width="1.0365384615384616" height="8.393150323489976" fill="#4CAF50" opacity="0.5"/>
<rect x="302.4104398251074" y="524.3752710644955" width="1.0365384615384616" height="11.62472893550455" fill="#f44336" opacity="0.5"/>
<rect x="303.8940621757818" y="526.0909845025429" width="1.0365384615384616" height="9.909015497457062" fill="#4CAF50" opacity="0.5"/>
<rect x="305.3776845264562" y="527.6040165750006" width="1.0365384615384616" height="8.395983424999372" fill="#f44336" opacity="0.5"/>
<rect x="306.8613068771305" y="530.8214846911478" width="1.0365384615384616" height="5.178515308852184" fill="#4CAF50" opacity="0.5"/>
<rect x="308.3449292278049" y="528.9801979253558" width="1.0365384615384616" height="7.01980207464419" fill="#4CAF50" opacity="0.5"/>
<rect x="309.82855157847933" y="530.2939135133042" width="1.0365384615384616" height="5.706086486695767" fill="#f44336" opacity="0.5"/>
<rect x="311.31217392915363" y="529.4631821367259" width="1.0365384615384616" height="6.536817863274109" fill="#f44336" opacity="0.5"/>
<rect x="312.79579627982804" y="528.0204366538192" width="1.0365384615384616" height="7.979563346180839" fill="#f44336" opacity="0.5"/>
<rect x="314.27941863050245" y="526.8179730196421" width="1.0365384615384616" height="9.182026980357932" fill="#f44336" opacity="0.5"/>
<rect x="315.76304098117686" y="529.8467143996406" width="1.0365384615384616" height="6.153285600359368" fill="#4CAF50" opacity="0.5"/>
<rect x="317.24666333185115" y="529.2193612032629" width="1.0365384615384616" height="6.780638796737094" fill="#4CAF50" opacity="0.5"/>
<rect x="318.73028568252556" y="528.3615824174522" width="1.0365384615384616" height="7.638417582547845" fill="#4CAF50" opacity="0.5"/>
<rect x="320.21390803319997" y="531.6000466580543" width="1.0365384615384616" height="4.399953341945661" fill="#f44336" opacity="0.5"/>
<rect x="321.69753038387427" y="531.6829675967314" width="1.0365384615384616" height="4.317032403268627" fill="#f44336" opacity="0.5"/>
<rect x="323.1811527345487" y="531.9474087415041" width="1.0365384615384616" height="4.052591258495909" fill="#4CAF50" opacity="0.5"/>
<rect x="324.6647750852231" y="529.4985729840604" width="1.0365384615384616" height="6.501427015939612" fill="#4CAF50" opacity="0.5"/>
<rect x="326.1483974358974" y="531.4706316813375" width="1.0365384615384616" height="4.529368318662478" fill="#f44336" opacity="0.5"/>
<rect x="327.6320197865718" y="530.1940214714106" width="1.0365384615384616" height="5.805978528589435" fill="#f44336" opacity="0.5"/>
<rect x="329.1156421372462" y="531.3557764625397" width="1.0365384615384616" height="4.644223537460334" fill="#4CAF50" opacity="0.5"/>
<rect x="330.59926448792055" y="529.3108639639879" width="1.0365384615384616" height="6.689136036012087" fill="#4CAF50" opacity="0.5"/>
<rect x="332.0828868385949" y="531.5875956811941" width="1.0365384615384616" height="4.412404318805898" fill="#f44336" opacity="0.5"/>
<rect x="333.5665091892693" y="531.4799561610627" width="1.0365384615384616" height="4.52004383893734" fill="#4CAF50" opacity="0.5"/>
<rect x="335.05013153994366" y="528.6665304957803" width="1.0365384615384616" height="7.333469504219693" fill="#4CAF50" opacity="0.5"/>
<rect x="336.533753890618" y="530.3493377806973" width="1.0365384615384616" height="5.650662219302717" fill="#4CAF50" opacity="0.5"/>
<rect x="338.0173762412924" y="526.9161688680754" width="1.0365384615384616" height="9.083831131924626" fill="#4CAF50" opacity="0.5"/>
<rect x="339.5009985919668" y="527.4824224254279" width="1.0365384615384616" height="8.517577574572101" fill="#4CAF50" opacity="0.5"/>
<rect x="340.98462094264113" y="527.2358325707486" width="1.0365384615384616" height="8.764167429251415" fill="#4CAF50" opacity="0.5"/>
<rect x="342.46824329331554" y="526.3182652576144" width="1.0365384615384616" height="9.681734742385629" fill="#4CAF50" opacity="0.5"/>
<rect x="343.95186564398995" y="527.884420275527" width="1.0365384615384616" height="8.115579724473037" fill="#4CAF50" opacity="0.5"/>
<rect x="345.43548799466424" y="530.1649661358657" width="1.0365384615384616" height="5.835033864134289" fill="#f44336" opacity="0.5"/>
<rect x="346.91911034533865" y="530.399783491069" width="1.0365384615384616" height="5.600216508930998" fill="#4CAF50" opacity="0.5"/>
<rect x="348.40273269601306" y="529.8678113788418" width="1.0365384615384616" height="6.132188621158207" fill="#f44336" opacity="0.5"/>
<rect x="349.8863550466874" y="526.782536329241" width="1.0365384615384616" height="9.217463670759003" fill="#4CAF50" opacity="0.5"/>
<rect x="351.36997739736177" y="526.4655865361044" width="1.0365384615384616" height="9.53441346389559" fill="#4CAF50" opacity="0.5"/>
<rect x="352.8535997480362" y="527.2816297941775" width="1.0365384615384616" height="8.718370205822453" fill="#f44336" opacity="0.5"/>
<rect x="354.3372220987105" y="528.8465928923613" width="1.0365384615384616" height="7.153407107638714" fill="#4CAF50" opacity="0.5"/>
<rect x="355.8208444493849" y="529.8382884440186" width="1.0365384615384616" height="6.161711555981356" fill="#4CAF50" opacity="0.5"/>
<rect x="357.3044668000593" y="526.9881883255398" width="1.0365384615384616" height="9.011811674460205" fill="#4CAF50" opacity="0.5"/>
<rect x="358.78808915073364" y="523.6512531781053" width="1.0365384615384616" height="12.348746821894679" fill="#4CAF50" opacity="0.5"/>
<rect x="360.271711501408" y="526.2326579152407" width="1.0365384615384616" height="9.76734208475932" fill="#4CAF50" opacity="0.5"/>
<rect x="361.7553338520824" y="525.0922474558719" width="1.0365384615384616" height="10.90775254412813" fill="#4CAF50" opacity="0.5"/>
<rect x="363.23895620275675" y="518.32449056082" width="1.0365384615384616" height="17.67550943918002" fill="#f44336" opacity="0.5"/>
<rect x="364.7225785534311" y="518.9748569765784" width="1.0365384615384616" height="17.025143023421606" fill="#f44336" opacity="0.5"/>
<rect x="366.2062009041055" y="523.7849223913929" width="1.0365384615384616" height="12.21507760860709" fill="#4CAF50" opacity="0.5"/>
<rect x="367.68982325477987" y="526.4462224248167" width="1.0365384615384616" height="9.55377757518329" fill="#4CAF50" opacity="0.5"/>
<rect x="369.1734456054543" y="526.6705417177925" width="1.0365384615384616" height="9.329458282207497" fill="#f44336" opacity="0.5"/>
<rect x="370.6570679561286" y="523.7207879413656" width="1.0365384615384616" height="12.279212058634357" fill="#4CAF50" opacity="0.5"/>
<rect x="372.14069030680304" y="526.4726188625048" width="1.0365384615384616" height="9.52738113749524" fill="#f44336" opacity="0.5"/>
<rect x="373.6243126574774" y="519.7511176215469" width="1.0365384615384616" height="16.248882378453118" fill="#4CAF50" opacity="0.5"/>
<rect x="375.10793500815174" y="523.9031424912715" width="1.0365384615384616" height="12.096857508728476" fill="#4CAF50" opacity="0.5"/>
<rect x="376.59155735882615" y="528.7543107995059" width="1.0365384615384616" height="7.245689200494098" fill="#f44336" opacity="0.5"/>
<rect x="378.0751797095005" y="524.1576081847747" width="1.0365384615384616" height="11.842391815225255" fill="#4CAF50" opacity="0.5"/>
<rect x="379.55880206017486" y="521.8001926705365" width="1.0365384615384616" height="14.19980732946351" fill="#4CAF50" opacity="0.5"/>
<rect x="381.04242441084926" y="522.964780763175" width="1.0365384615384616" height="13.035219236825014" fill="#4CAF50" opacity="0.5"/>
<rect x="382.5260467615236" y="526.8317626140439" width="1.0365384615384616" height="9.168237385956104" fill="#f44336" opacity="0.5"/>
<rect x="384.00966911219797" y="524.934015527556" width="1.0365384615384616" height="11.065984472444029" fill="#4CAF50" opacity="0.5"/>
<rect x="385.4932914628724" y="513.7879890610109" width="1.0365384615384616" height="22.212010938989124" fill="#4CAF50" opacity="0.5"/>
<rect x="386.97691381354673" y="523.1106258949238" width="1.0365384615384616" height="12.889374105076172" fill="#f44336" opacity="0.5"/>
<rect x="388.46053616422114" y="523.129760790879" width="1.0365384615384616" height="12.870239209120996" fill="#f44336" opacity="0.5"/>
<rect x="389.9441585148955" y="521.2780126373127" width="1.0365384615384616" height="14.721987362687287" fill="#f44336" opacity="0.5"/>
<rect x="391.42778086556984" y="524.4259459901996" width="1.0365384615384616" height="11.57405400980042" fill="#4CAF50" opacity="0.5"/>
<rect x="392.91140321624425" y="526.7311829261528" width="1.0365384615384616" height="9.26881707384723" fill="#f44336" opacity="0.5"/>
<rect x="394.3950255669186" y="527.5301358890364" width="1.0365384615384616" height="8.469864110963613" fill="#f44336" opacity="0.5"/>
<rect x="395.87864791759296" y="523.9595111258344" width="1.0365384615384616" height="12.04048887416559" fill="#f44336" opacity="0.5"/>
<rect x="397.36227026826737" y="526.8523094764472" width="1.0365384615384616" height="9.147690523552797" fill="#4CAF50" opacity="0.5"/>
<rect x="398.8458926189417" y="528.3702375884064" width="1.0365384615384616" height="7.6297624115935605" fill="#4CAF50" opacity="0.5"/>
<rect x="400.3295149696161" y="529.1336071630764" width="1.0365384615384616" height="6.866392836923637" fill="#f44336" opacity="0.5"/>
<rect x="401.8131373202905" y="488.01383432612124" width="1.0365384615384616" height="47.98616567387876" fill="#f44336" opacity="0.5"/>
<rect x="403.29675967096483" y="513.8885962547419" width="1.0365384615384616" height="22.111403745258144" fill="#4CAF50" opacity="0.5"/>
<rect x="404.78038202163924" y="511.18613831621843" width="1.0365384615384616" height="24.813861683781568" fill="#4CAF50" opacity="0.5"/>
<rect x="406.2640043723136" y="517.5381994529023" width="1.0365384615384616" height="18.46180054709771" fill="#4CAF50" opacity="0.5"/>
<rect x="407.747626722988" y="521.1083749540527" width="1.0365384615384616" height="14.891625045947308" fill="#4CAF50" opacity="0.5"/>
<rect x="409.23124907366235" y="527.4449503028745" width="1.0365384615384616" height="8.555049697125469" fill="#4CAF50" opacity="0.5"/>
<rect x="410.7148714243367" y="528.6775970120323" width="1.0365384615384616" height="7.322402987967735" fill="#4CAF50" opacity="0.5"/>
<rect x="412.1984937750111" y="526.916984874659" width="1.0365384615384616" height="9.083015125341035" fill="#f44336" opacity="0.5"/>
<rect x="413.68211612568547" y="528.3490947661387" width="1.0365384615384616" height="7.650905233861295" fill="#4CAF50" opacity="0.5"/>
<rect x="415.1657384763598" y="526.785415273817" width="1.0365384615384616" height="9.214584726183034" fill="#f44336" opacity="0.5"/>
<rect x="416.64936082703423" y="527.1667929126063" width="1.0365384615384616" height="8.833207087393703" fill="#4CAF50" opacity="0.5"/>
<rect x="418.1329831777086" y="526.1668731148196" width="1.0365384615384616" height="9.833126885180377" fill="#4CAF50" opacity="0.5"/>
<rect x="419.61660552838293" y="519.450588814829" width="1.0365384615384616" height="16.54941118517104" fill="#4CAF50" opacity="0.5"/>
<rect x="421.10022787905734" y="528.6911482224883" width="1.0365384615384616" height="7.308851777511677" fill="#f44336" opacity="0.5"/>
<rect x="422.5838502297317" y="527.752300557887" width="1.0365384615384616" height="8.247699442113003" fill="#4CAF50" opacity="0.5"/>
<rect x="424.06747258040605" y="528.0985440705142" width="1.0365384615384616" height="7.901455929485792" fill="#f44336" opacity="0.5"/>
<rect x="425.55109493108046" y="524.4645366835755" width="1.0365384615384616" height="11.535463316424512" fill="#4CAF50" opacity="0.5"/>
<rect x="427.03471728175487" y="524.6069894284036" width="1.0365384615384616" height="11.393010571596392" fill="#4CAF50" opacity="0.5"/>
<rect x="428.5183396324292" y="520.9927862461909" width="1.0365384615384616" height="15.007213753809083" fill="#4CAF50" opacity="0.5"/>
<rect x="430.00196198310357" y="525.7690744896115" width="1.0365384615384616" height="10.230925510388488" fill="#4CAF50" opacity="0.5"/>
<rect x="431.485584333778" y="526.2786935226155" width="1.0365384615384616" height="9.721306477384474" fill="#4CAF50" opacity="0.5"/>
<rect x="432.96920668445233" y="524.5018529397029" width="1.0365384615384616" height="11.498147060297129" fill="#f44336" opacity="0.5"/>
<rect x="434.4528290351267" y="525.5153239479456" width="1.0365384615384616" height="10.484676052054397" fill="#4CAF50" opacity="0.5"/>
<rect x="435.9364513858011" y="524.9998553396568" width="1.0365384615384616" height="11.000144660343153" fill="#f44336" opacity="0.5"/>
<rect x="437.42007373647544" y="520.9571753521373" width="1.0365384615384616" height="15.042824647862744" fill="#f44336" opacity="0.5"/>
<rect x="438.9036960871498" y="524.202277668768" width="1.0365384615384616" height="11.797722331231967" fill="#4CAF50" opacity="0.5"/>
<rect x="440.3873184378242" y="518.1327106764427" width="1.0365384615384616" height="17.867289323557316" fill="#f44336" opacity="0.5"/>
<rect x="441.8709407884986" y="499.9110177744219" width="1.0365384615384616" height="36.08898222557809" fill="#4CAF50" opacity="0.5"/>
<rect x="443.3545631391729" y="512.2485972253182" width="1.0365384615384616" height="23.751402774681765" fill="#4CAF50" opacity="0.5"/>
<rect x="444.8381854898473" y="505.4012017551504" width="1.0365384615384616" height="30.598798244849604" fill="#4CAF50" opacity="0.5"/>
<rect x="446.3218078405217" y="511.3315616917555" width="1.0365384615384616" height="24.668438308244504" fill="#f44336" opacity="0.5"/>
<rect x="447.805430191196" y="520.627517860968" width="1.0365384615384616" height="15.372482139031945" fill="#f44336" opacity="0.5"/>
<rect x="449.28905254187043" y="515.497192783616" width="1.0365384615384616" height="20.502807216383985" fill="#4CAF50" opacity="0.5"/>
<rect x="450.77267489254484" y="521.0424067813657" width="1.0365384615384616" height="14.957593218634315" fill="#f44336" opacity="0.5"/>
<rect x="452.2562972432192" y="518.6805444896772" width="1.0365384615384616" height="17.31945551032277" fill="#4CAF50" opacity="0.5"/>
<rect x="453.73991959389355" y="515.8481581320923" width="1.0365384615384616" height="20.151841867907706" fill="#4CAF50" opacity="0.5"/>
<rect x="455.22354194456796" y="512.5847552633165" width="1.0365384615384616" height="23.415244736683462" fill="#f44336" opacity="0.5"/>
<rect x="456.7071642952423" y="511.0416409706246" width="1.0365384615384616" height="24.9583590293754" fill="#4CAF50" opacity="0.5"/>
<rect x="458.1907866459167" y="525.0071535558429" width="1.0365384615384616" height="10.992846444157067" fill="#f44336" opacity="0.5"/>
<rect x="459.674408996591" y="525.2382576226601" width="1.0365384615384616" height="10.761742377339942" fill="#4CAF50" opacity="0.5"/>
<rect x="461.1580313472654" y="495.99173815329493" width="1.0365384615384616" height="40.00826184670507" fill="#4CAF50" opacity="0.5"/>
<rect x="462.6416536979398" y="516.3904082598277" width="1.0365384615384616" height="19.609591740172277" fill="#4CAF50" opacity="0.5"/>
<rect x="464.1252760486142" y="521.6298765098923" width="1.0365384615384616" height="14.370123490107744" fill="#f44336" opacity="0.5"/>
<rect x="465.6088983992886" y="524.0448892528756" width="1.0365384615384616" height="11.955110747124422" fill="#4CAF50" opacity="0.5"/>
<rect x="467.09252074996294" y="525.3583022765852" width="1.0365384615384616" height="10.641697723414836" fill="#f44336" opacity="0.5"/>
<rect x="468.57614310063724" y="522.205912977635" width="1.0365384615384616" height="13.794087022365034" fill="#f44336" opacity="0.5"/>
<rect x="470.05976545131165" y="524.5048510762516" width="1.0365384615384616" height="11.495148923748388" fill="#4CAF50" opacity="0.5"/>
<rect x="471.54338780198606" y="525.5781289490444" width="1.0365384615384616" height="10.421871050955588" fill="#4CAF50" opacity="0.5"/>
<rect x="473.0270101526604" y="527.7553445375022" width="1.0365384615384616" height="8.244655462497803" fill="#f44336" opacity="0.5"/>
<rect x="474.5106325033348" y="525.8926398910435" width="1.0365384615384616" height="10.107360108956527" fill="#f44336" opacity="0.5"/>
<rect x="475.99425485400917" y="529.0698027831279" width="1.0365384615384616" height="6.930197216872102" fill="#f44336" opacity="0.5"/>
<rect x="477.4778772046836" y="526.4991344921658" width="1.0365384615384616" height="9.500865507834192" fill="#4CAF50" opacity="0.5"/>
<rect x="478.9614995553579" y="522.7945654572771" width="1.0365384615384616" height="13.205434542722855" fill="#4CAF50" opacity="0.5"/>
<rect x="480.4451219060323" y="521.099738120325" width="1.0365384615384616" height="14.900261879674986" fill="#4CAF50" opacity="0.5"/>
<rect x="481.92874425670664" y="523.2212452143774" width="1.0365384615384616" height="12.778754785622596" fill="#f44336" opacity="0.5"/>
<rect x="483.41236660738105" y="521.6421624517131" width="1.0365384615384616" height="14.357837548286852" fill="#4CAF50" opacity="0.5"/>
<rect x="484.89598895805545" y="523.4639659142446" width="1.0365384615384616" height="12.536034085755432" fill="#4CAF50" opacity="0.5"/>
<rect x="486.3796113087298" y="520.9888895855388" width="1.0365384615384616" height="15.0111104144612" fill="#4CAF50" opacity="0.5"/>
<rect x="487.8632336594041" y="519.3902685079341" width="1.0365384615384616" height="16.609731492065862" fill="#4CAF50" opacity="0.5"/>
<rect x="489.3468560100785" y="523.1314203098862" width="1.0365384615384616" height="12.868579690113847" fill="#4CAF50" opacity="0.5"/>
<rect x="490.8304783607529" y="525.4584693768779" width="1.0365384615384616" height="10.541530623122071" fill="#f44336" opacity="0.5"/>
<rect x="492.3141007114273" y="517.7228828305862" width="1.0365384615384616" height="18.277117169413827" fill="#4CAF50" opacity="0.5"/>
<rect x="493.7977230621017" y="519.7826118082293" width="1.0365384615384616" height="16.217388191770738" fill="#4CAF50" opacity="0.5"/>
<rect x="495.28134541277603" y="526.8769363717686" width="1.0365384615384616" height="9.12306362823142" fill="#f44336" opacity="0.5"/>
<rect x="496.7649677634504" y="523.183498033425" width="1.0365384615384616" height="12.816501966574947" fill="#4CAF50" opacity="0.5"/>
<rect x="498.24859011412474" y="522.2617131581733" width="1.0365384615384616" height="13.73828684182672" fill="#4CAF50" opacity="0.5"/>
<rect x="499.73221246479915" y="521.1426288933382" width="1.0365384615384616" height="14.857371106661844" fill="#4CAF50" opacity="0.5"/>
<rect x="501.2158348154735" y="515.0130808328101" width="1.0365384615384616" height="20.986919167189853" fill="#f44336" opacity="0.5"/>
<rect x="502.6994571661479" y="523.518299116655" width="1.0365384615384616" height="12.481700883344956" fill="#f44336" opacity="0.5"/>
<rect x="504.1830795168223" y="525.3019519792489" width="1.0365384615384616" height="10.698048020751116" fill="#f44336" opacity="0.5"/>
<rect x="505.66670186749667" y="523.0620414130518" width="1.0365384615384616" height="12.937958586948184" fill="#4CAF50" opacity="0.5"/>
<rect x="507.15032421817097" y="509.0699215120395" width="1.0365384615384616" height="26.930078487960486" fill="#4CAF50" opacity="0.5"/>
<rect x="508.6339465688454" y="518.0344781535562" width="1.0365384615384616" height="17.965521846443835" fill="#4CAF50" opacity="0.5"/>
<rect x="510.1175689195198" y="519.3507884590682" width="1.0365384615384616" height="16.649211540931788" fill="#f44336" opacity="0.5"/>
<rect x="511.6011912701942" y="518.1121913198792" width="1.0365384615384616" height="17.88780868012077" fill="#4CAF50" opacity="0.5"/>
<rect x="513.0848136208685" y="521.6755637099618" width="1.0365384615384616" height="14.324436290038193" fill="#4CAF50" opacity="0.5"/>
<rect x="514.568435971543" y="514.7475119486016" width="1.0365384615384616" height="21.25248805139836" fill="#4CAF50" opacity="0.5"/>
<rect x="516.0520583222174" y="512.4576507771511" width="1.0365384615384616" height="23.542349222848884" fill="#4CAF50" opacity="0.5"/>
<rect x="517.5356806728917" y="516.6185325273227" width="1.0365384615384616" height="19.381467472677286" fill="#f44336" opacity="0.5"/>
<rect x="519.0193030235661" y="517.0622750737726" width="1.0365384615384616" height="18.93772492622736" fill="#f44336" opacity="0.5"/>
<rect x="520.5029253742405" y="515.681390224795" width="1.0365384615384616" height="20.318609775205005" fill="#4CAF50" opacity="0.5"/>
<rect x="521.9865477249148" y="515.6132582593693" width="1.0365384615384616" height="20.38674174063067" fill="#4CAF50" opacity="0.5"/>
<rect x="523.4701700755893" y="519.1136514447003" width="1.0365384615384616" height="16.88634855529972" fill="#f44336" opacity="0.5"/>
<rect x="524.9537924262636" y="519.6095542322088" width="1.0365384615384616" height="16.39044576779122" fill="#4CAF50" opacity="0.5"/>
<rect x="526.4374147769379" y="497.5531438295186" width="1.0365384615384616" height="38.4468561704814" fill="#4CAF50" opacity="0.5"/>
<rect x="527.9210371276123" y="472.52844071431093" width="1.0365384615384616" height="63.47155928568907" fill="#4CAF50" opacity="0.5"/>
<rect x="529.4046594782867" y="490.1654419776347" width="1.0365384615384616" height="45.834558022365286" fill="#f44336" opacity="0.5"/>
<rect x="530.888281828961" y="503.9381386251729" width="1.0365384615384616" height="32.06186137482712" fill="#f44336" opacity="0.5"/>
<rect x="532.3719041796355" y="492.8782971236393" width="1.0365384615384616" height="43.1217028763607" fill="#4CAF50" opacity="0.5"/>
<rect x="533.8555265303098" y="501.57386498818687" width="1.0365384615384616" height="34.42613501181313" fill="#f44336" opacity="0.5"/>
<rect x="535.3391488809841" y="508.85639367691675" width="1.0365384615384616" height="27.143606323083247" fill="#4CAF50" opacity="0.5"/>
<rect x="536.8227712316585" y="505.24970875760937" width="1.0365384615384616" height="30.75029124239063" fill="#f44336" opacity="0.5"/>
<rect x="538.3063935823329" y="516.1644019420049" width="1.0365384615384616" height="19.83559805799507" fill="#4CAF50" opacity="0.5"/>
<rect x="539.7900159330072" y="509.1763416066022" width="1.0365384615384616" height="26.823658393397807" fill="#4CAF50" opacity="0.5"/>
<rect x="541.2736382836817" y="509.73175786303517" width="1.0365384615384616" height="26.26824213696483" fill="#4CAF50" opacity="0.5"/>
<rect x="542.757260634356" y="515.0843209581442" width="1.0365384615384616" height="20.91567904185581" fill="#f44336" opacity="0.5"/>
<rect x="544.2408829850303" y="502.28460672251987" width="1.0365384615384616" height="33.71539327748013" fill="#4CAF50" opacity="0.5"/>
<rect x="545.7245053357047" y="511.0839724582265" width="1.0365384615384616" height="24.916027541773474" fill="#4CAF50" opacity="0.5"/>
<rect x="547.2081276863792" y="494.4534648884249" width="1.0365384615384616" height="41.54653511157511" fill="#f44336" opacity="0.5"/>
<rect x="548.6917500370536" y="495.65200435611007" width="1.0365384615384616" height="40.34799564388993" fill="#4CAF50" opacity="0.5"/>
<rect x="550.175372387728" y="515.2220793729632" width="1.0365384615384616" height="20.777920627036792" fill="#f44336" opacity="0.5"/>
<rect x="551.6589947384023" y="497.9278008747598" width="1.0365384615384616" height="38.07219912524022" fill="#f44336" opacity="0.5"/>
<rect x="553.1426170890766" y="506.35893676314794" width="1.0365384615384616" height="29.641063236852062" fill="#f44336" opacity="0.5"/>
<rect x="554.6262394397511" y="520.3793326675747" width="1.0365384615384616" height="15.620667332425342" fill="#f44336" opacity="0.5"/>
<rect x="556.1098617904254" y="521.6762055128927" width="1.0365384615384616" height="14.323794487107307" fill="#f44336" opacity="0.5"/>
<rect x="557.5934841410998" y="515.0063052275821" width="1.0365384615384616" height="20.99369477241794" fill="#4CAF50" opacity="0.5"/>
<rect x="559.0771064917742" y="517.9913306593705" width="1.0365384615384616" height="18.008669340629467" fill="#4CAF50" opacity="0.5"/>
<rect x="560.5607288424485" y="515.5105239473529" width="1.0365384615384616" height="20.489476052647092" fill="#f44336" opacity="0.5"/>
<rect x="562.044351193123" y="518.0375588076246" width="1.0365384615384616" height="17.962441192375422" fill="#f44336" opacity="0.5"/>
<rect x="563.5279735437973" y="515.2167249027965" width="1.0365384615384616" height="20.7832750972035" fill="#4CAF50" opacity="0.5"/>
<rect x="565.0115958944716" y="521.5855004215247" width="1.0365384615384616" height="14.41449957847533" fill="#f44336" opacity="0.5"/>
<rect x="566.495218245146" y="522.6120183664921" width="1.0365384615384616" height="13.387981633507934" fill="#f44336" opacity="0.5"/>
<rect x="567.9788405958204" y="523.707768510481" width="1.0365384615384616" height="12.292231489519054" fill="#4CAF50" opacity="0.5"/>
<rect x="569.4624629464947" y="523.356106347394" width="1.0365384615384616" height="12.643893652606039" fill="#f44336" opacity="0.5"/>
<rect x="570.9460852971692" y="515.7065672369142" width="1.0365384615384616" height="20.293432763085775" fill="#f44336" opacity="0.5"/>
<rect x="572.4297076478435" y="525.258272705492" width="1.0365384615384616" height="10.741727294507996" fill="#f44336" opacity="0.5"/>
<rect x="573.9133299985178" y="525.8020998347149" width="1.0365384615384616" height="10.197900165285091" fill="#4CAF50" opacity="0.5"/>
<rect x="575.3969523491922" y="519.0144837232572" width="1.0365384615384616" height="16.98551627674283" fill="#f44336" opacity="0.5"/>
<rect x="576.8805746998667" y="526.0676687189234" width="1.0365384615384616" height="9.932331281076586" fill="#4CAF50" opacity="0.5"/>
<rect x="578.364197050541" y="525.1429132129628" width="1.0365384615384616" height="10.857086787037247" fill="#f44336" opacity="0.5"/>
<rect x="579.8478194012155" y="523.5224158240263" width="1.0365384615384616" height="12.477584175973675" fill="#f44336" opacity="0.5"/>
<rect x="581.3314417518898" y="525.8280836848046" width="1.0365384615384616" height="10.171916315195404" fill="#4CAF50" opacity="0.5"/>
<rect x="582.8150641025641" y="523.9580624849332" width="1.0365384615384616" height="12.04193751506682" fill="#f44336" opacity="0.5"/>
<rect x="584.2986864532385" y="518.6704406778217" width="1.0365384615384616" height="17.329559322178284" fill="#f44336" opacity="0.5"/>
<rect x="585.7823088039129" y="517.6267040770786" width="1.0365384615384616" height="18.373295922921443" fill="#4CAF50" opacity="0.5"/>
<rect x="587.2659311545873" y="521.5097493384475" width="1.0365384615384616" height="14.490250661552523" fill="#f44336" opacity="0.5"/>
<rect x="588.7495535052617" y="521.7605200807913" width="1.0365384615384616" height="14.239479919208748" fill="#f44336" opacity="0.5"/>
<rect x="590.233175855936" y="522.7913931170757" width="1.0365384615384616" height="13.2086068829243" fill="#4CAF50" opacity="0.5"/>
<rect x="591.7167982066104" y="524.3492413713393" width="1.0365384615384616" height="11.650758628660697" fill="#f44336" opacity="0.5"/>
<rect x="593.2004205572847" y="526.0403920943586" width="1.0365384615384616" height="9.959607905641406" fill="#f44336" opacity="0.5"/>
<rect x="594.6840429079591" y="522.8174411474585" width="1.0365384615384616" height="13.182558852541547" fill="#4CAF50" opacity="0.5"/>
<rect x="596.1676652586335" y="522.9060099519278" width="1.0365384615384616" height="13.093990048072214" fill="#4CAF50" opacity="0.5"/>
<rect x="597.6512876093079" y="526.2029974512182" width="1.0365384615384616" height="9.797002548781848" fill="#4CAF50" opacity="0.5"/>
<rect x="599.1349099599823" y="523.5088737821835" width="1.0365384615384616" height="12.491126217816486" fill="#4CAF50" opacity="0.5"/>
<rect x="600.6185323106566" y="521.0218965934156" width="1.0365384615384616" height="14.97810340658441" fill="#4CAF50" opacity="0.5"/>
<rect x="602.1021546613309" y="525.3553591517161" width="1.0365384615384616" height="10.64464084828387" fill="#4CAF50" opacity="0.5"/>
<rect x="603.5857770120053" y="526.7546270703585" width="1.0365384615384616" height="9.245372929641462" fill="#f44336" opacity="0.5"/>
<rect x="605.0693993626797" y="523.0663414926892" width="1.0365384615384616" height="12.933658507310838" fill="#f44336" opacity="0.5"/>
<rect x="606.5530217133542" y="527.7266559464894" width="1.0365384615384616" height="8.273344053510641" fill="#f44336" opacity="0.5"/>
<rect x="608.0366440640286" y="522.3773385404883" width="1.0365384615384616" height="13.622661459511733" fill="#4CAF50" opacity="0.5"/>
<rect x="609.5202664147029" y="525.6488189575805" width="1.0365384615384616" height="10.351181042419512" fill="#f44336" opacity="0.5"/>
<rect x="611.0038887653773" y="523.0209935313118" width="1.0365384615384616" height="12.979006468688226" fill="#f44336" opacity="0.5"/>
<rect x="612.4875111160516" y="518.8408760304387" width="1.0365384615384616" height="17.15912396956128" fill="#4CAF50" opacity="0.5"/>
<rect x="613.971133466726" y="524.6659161060769" width="1.0365384615384616" height="11.334083893923093" fill="#4CAF50" opacity="0.5"/>
<rect x="615.4547558174004" y="519.6798591589862" width="1.0365384615384616" height="16.320140841013767" fill="#4CAF50" opacity="0.5"/>
<rect x="616.9383781680748" y="525.8819401193234" width="1.0365384615384616" height="10.118059880676583" fill="#4CAF50" opacity="0.5"/>
<rect x="618.4220005187492" y="520.8322254900971" width="1.0365384615384616" height="15.16777450990287" fill="#4CAF50" opacity="0.5"/>
<rect x="619.9056228694235" y="519.9382215131416" width="1.0365384615384616" height="16.06177848685843" fill="#4CAF50" opacity="0.5"/>
<rect x="621.3892452200978" y="521.5321849351903" width="1.0365384615384616" height="14.467815064809656" fill="#4CAF50" opacity="0.5"/>
<rect x="622.8728675707722" y="517.0578191277092" width="1.0365384615384616" height="18.942180872290805" fill="#f44336" opacity="0.5"/>
<rect x="624.3564899214466" y="523.5293106212273" width="1.0365384615384616" height="12.470689378772704" fill="#f44336" opacity="0.5"/>
<rect x="625.840112272121" y="518.815964908105" width="1.0365384615384616" height="17.184035091894998" fill="#f44336" opacity="0.5"/>
<rect x="627.3237346227954" y="521.7863572330681" width="1.0365384615384616" height="14.213642766931912" fill="#f44336" opacity="0.5"/>
<rect x="628.8073569734697" y="526.704951523504" width="1.0365384615384616" height="9.29504847649605" fill="#f44336" opacity="0.5"/>
<rect x="630.2909793241441" y="518.397142652602" width="1.0365384615384616" height="17.602857347397958" fill="#f44336" opacity="0.5"/>
<rect x="631.7746016748184" y="523.7697391677696" width="1.0365384615384616" height="12.230260832230442" fill="#4CAF50" opacity="0.5"/>
<rect x="633.2582240254928" y="526.8671901358316" width="1.0365384615384616" height="9.132809864168394" fill="#4CAF50" opacity="0.5"/>
<rect x="634.7418463761672" y="525.1672008695921" width="1.0365384615384616" height="10.83279913040792" fill="#f44336" opacity="0.5"/>
<rect x="636.2254687268417" y="528.4455394094321" width="1.0365384615384616" height="7.554460590567942" fill="#4CAF50" opacity="0.5"/>
<rect x="637.709091077516" y="530.2759797056912" width="1.0365384615384616" height="5.724020294308843" fill="#4CAF50" opacity="0.5"/>
<rect x="639.1927134281904" y="518.102894345994" width="1.0365384615384616" height="17.897105654006054" fill="#4CAF50" opacity="0.5"/>
<rect x="640.6763357788647" y="527.2770729933679" width="1.0365384615384616" height="8.722927006632062" fill="#f44336" opacity="0.5"/>
<rect x="642.1599581295391" y="528.6397764821735" width="1.0365384615384616" height="7.360223517826512" fill="#f44336" opacity="0.5"/>
<rect x="643.6435804802135" y="526.387745009195" width="1.0365384615384616" height="9.612254990805013" fill="#f44336" opacity="0.5"/>
<rect x="645.1272028308879" y="519.1371597691991" width="1.0365384615384616" height="16.862840230800884" fill="#4CAF50" opacity="0.5"/>
<rect x="646.6108251815623" y="528.4901630503588" width="1.0365384615384616" height="7.509836949641226" fill="#4CAF50" opacity="0.5"/>
<rect x="648.0944475322366" y="529.4537109591879" width="1.0365384615384616" height="6.546289040812098" fill="#f44336" opacity="0.5"/>
<rect x="649.578069882911" y="528.2640100347231" width="1.0365384615384616" height="7.735989965276872" fill="#f44336" opacity="0.5"/>
<rect x="651.0616922335853" y="524.4891544102836" width="1.0365384615384616" height="11.510845589716382" fill="#f44336" opacity="0.5"/>
<rect x="652.5453145842597" y="524.1615415198801" width="1.0365384615384616" height="11.838458480119925" fill="#f44336" opacity="0.5"/>
<rect x="654.0289369349341" y="526.5509738317589" width="1.0365384615384616" height="9.449026168241062" fill="#4CAF50" opacity="0.5"/>
<rect x="655.5125592856085" y="523.6792907975739" width="1.0365384615384616" height="12.320709202426087" fill="#f44336" opacity="0.5"/>
<rect x="656.9961816362828" y="524.4819753860704" width="1.0365384615384616" height="11.518024613929583" fill="#f44336" opacity="0.5"/>
<rect x="658.4798039869572" y="529.7694596639824" width="1.0365384615384616" height="6.2305403360176115" fill="#4CAF50" opacity="0.5"/>
<rect x="659.9634263376315" y="526.1940855590914" width="1.0365384615384616" height="9.805914440908623" fill="#4CAF50" opacity="0.5"/>
<rect x="661.4470486883059" y="470.58843548912745" width="1.0365384615384616" height="65.41156451087255" fill="#4CAF50" opacity="0.5"/>
<rect x="662.9306710389803" y="505.61673751658566" width="1.0365384615384616" height="30.38326248341434" fill="#f44336" opacity="0.5"/>
<rect x="664.4142933896547" y="523.0291994402145" width="1.0365384615384616" height="12.970800559785516" fill="#4CAF50" opacity="0.5"/>
<rect x="665.897915740329" y="519.4058551505426" width="1.0365384615384616" height="16.594144849457393" fill="#4CAF50" opacity="0.5"/>
<rect x="667.3815380910034" y="515.925367024684" width="1.0365384615384616" height="20.074632975316035" fill="#f44336" opacity="0.5"/>
<rect x="668.8651604416779" y="524.4120922155047" width="1.0365384615384616" height="11.587907784495314" fill="#f44336" opacity="0.5"/>
<rect x="670.3487827923522" y="522.8997386204312" width="1.0365384615384616" height="13.100261379568792" fill="#f44336" opacity="0.5"/>
<rect x="671.8324051430266" y="524.4597323302067" width="1.0365384615384616" height="11.540267669793252" fill="#4CAF50" opacity="0.5"/>
<rect x="673.316027493701" y="521.4749361137508" width="1.0365384615384616" height="14.5250638862492" fill="#4CAF50" opacity="0.5"/>
<rect x="674.7996498443754" y="519.272800234346" width="1.0365384615384616" height="16.72719976565395" fill="#4CAF50" opacity="0.5"/>
<rect x="676.2832721950497" y="524.9187222805731" width="1.0365384615384616" height="11.081277719426907" fill="#f44336" opacity="0.5"/>
<rect x="677.7668945457241" y="521.1740222252743" width="1.0365384615384616" height="14.825977774725743" fill="#4CAF50" opacity="0.5"/>
<rect x="679.2505168963984" y="520.9647761325622" width="1.0365384615384616" height="15.035223867437821" fill="#4CAF50" opacity="0.5"/>
<rect x="680.7341392470728" y="511.14002019132397" width="1.0365384615384616" height="24.85997980867603" fill="#4CAF50" opacity="0.5"/>
<rect x="682.2177615977472" y="509.6404018001229" width="1.0365384615384616" height="26.359598199877098" fill="#4CAF50" opacity="0.5"/>
<rect x="683.7013839484216" y="511.75339125242056" width="1.0365384615384616" height="24.246608747579444" fill="#f44336" opacity="0.5"/>
<rect x="685.1850062990959" y="521.6735099405828" width="1.0365384615384616" height="14.32649005941721" fill="#f44336" opacity="0.5"/>
<rect x="686.6686286497703" y="520.1889555810321" width="1.0365384615384616" height="15.811044418967867" fill="#4CAF50" opacity="0.5"/>
<rect x="688.1522510004447" y="520.1199617659564" width="1.0365384615384616" height="15.880038234043582" fill="#4CAF50" opacity="0.5"/>
<rect x="689.635873351119" y="517.1080447913617" width="1.0365384615384616" height="18.89195520863825" fill="#4CAF50" opacity="0.5"/>
<rect x="691.1194957017934" y="522.1475455853729" width="1.0365384615384616" height="13.852454414627118" fill="#4CAF50" opacity="0.5"/>
<rect x="692.6031180524678" y="521.2053697141439" width="1.0365384615384616" height="14.794630285856101" fill="#f44336" opacity="0.5"/>
<rect x="694.0867404031421" y="520.7979073705186" width="1.0365384615384616" height="15.202092629481399" fill="#4CAF50" opacity="0.5"/>
<rect x="695.5703627538165" y="515.0915458254239" width="1.0365384615384616" height="20.90845417457615" fill="#f44336" opacity="0.5"/>
<rect x="697.053985104491" y="518.3218775060298" width="1.0365384615384616" height="17.67812249397025" fill="#f44336" opacity="0.5"/>
<rect x="698.5376074551652" y="517.9071811265114" width="1.0365384615384616" height="18.092818873488568" fill="#f44336" opacity="0.5"/>
<rect x="700.0212298058397" y="518.2399742834289" width="1.0365384615384616" height="17.760025716571135" fill="#f44336" opacity="0.5"/>
<rect x="701.5048521565141" y="516.1139012199535" width="1.0365384615384616" height="19.886098780046495" fill="#4CAF50" opacity="0.5"/>
<rect x="702.9884745071885" y="517.9107110426315" width="1.0365384615384616" height="18.089288957368467" fill="#f44336" opacity="0.5"/>
<rect x="704.4720968578628" y="518.2741548738079" width="1.0365384615384616" height="17.725845126192098" fill="#4CAF50" opacity="0.5"/>
<rect x="705.9557192085372" y="522.0349825198998" width="1.0365384615384616" height="13.965017480100187" fill="#4CAF50" opacity="0.5"/>
<rect x="707.4393415592116" y="521.535238083419" width="1.0365384615384616" height="14.464761916580983" fill="#4CAF50" opacity="0.5"/>
<rect x="708.9229639098859" y="517.4468433899901" width="1.0365384615384616" height="18.553156610009864" fill="#4CAF50" opacity="0.5"/>
<rect x="710.4065862605603" y="516.8626376877979" width="1.0365384615384616" height="19.13736231220207" fill="#4CAF50" opacity="0.5"/>
<rect x="711.8902086112347" y="524.8954798458599" width="1.0365384615384616" height="11.104520154140118" fill="#f44336" opacity="0.5"/>
<rect x="713.373830961909" y="522.896758821109" width="1.0365384615384616" height="13.10324117889104" fill="#f44336" opacity="0.5"/>
<rect x="714.8574533125834" y="521.0482746938771" width="1.0365384615384616" height="14.951725306122853" fill="#f44336" opacity="0.5"/>
<rect x="716.3410756632578" y="518.7857176528313" width="1.0365384615384616" height="17.214282347168705" fill="#4CAF50" opacity="0.5"/>
<rect x="717.8246980139321" y="508.8636460500363" width="1.0365384615384616" height="27.136353949963677" fill="#4CAF50" opacity="0.5"/>
<rect x="719.3083203646065" y="503.13522482134397" width="1.0365384615384616" height="32.86477517865603" fill="#4CAF50" opacity="0.5"/>
<rect x="720.7919427152809" y="510.92775762483643" width="1.0365384615384616" height="25.07224237516357" fill="#4CAF50" opacity="0.5"/>
<rect x="722.2755650659552" y="516.3232665046385" width="1.0365384615384616" height="19.676733495361532" fill="#f44336" opacity="0.5"/>
<rect x="723.7591874166296" y="508.81148580897775" width="1.0365384615384616" height="27.18851419102225" fill="#f44336" opacity="0.5"/>
<rect x="725.242809767304" y="513.9971342989766" width="1.0365384615384616" height="22.00286570102344" fill="#f44336" opacity="0.5"/>
<rect x="726.7264321179784" y="514.0123450284398" width="1.0365384615384616" height="21.987654971560232" fill="#f44336" opacity="0.5"/>
<rect x="728.2100544686527" y="519.2793649614682" width="1.0365384615384616" height="16.720635038531782" fill="#4CAF50" opacity="0.5"/>
<rect x="729.6936768193272" y="512.0637671498217" width="1.0365384615384616" height="23.93623285017827" fill="#4CAF50" opacity="0.5"/>
<rect x="731.1772991700016" y="522.5379084651954" width="1.0365384615384616" height="13.462091534804586" fill="#f44336" opacity="0.5"/>
<rect x="732.6609215206759" y="480.7018285456347" width="1.0365384615384616" height="55.298171454365274" fill="#4CAF50" opacity="0.5"/>
<rect x="734.1445438713503" y="510.47062890296985" width="1.0365384615384616" height="25.52937109703015" fill="#f44336" opacity="0.5"/>
<rect x="735.6281662220247" y="515.127660993209" width="1.0365384615384616" height="20.87233900679098" fill="#f44336" opacity="0.5"/>
<rect x="737.111788572699" y="518.4675392655125" width="1.0365384615384616" height="17.532460734487472" fill="#f44336" opacity="0.5"/>
<rect x="738.5954109233734" y="522.185989580936" width="1.0365384615384616" height="13.814010419063948" fill="#4CAF50" opacity="0.5"/>
<rect x="740.0790332740478" y="517.7952690325825" width="1.0365384615384616" height="18.204730967417504" fill="#f44336" opacity="0.5"/>
<rect x="741.5626556247221" y="521.4744501772459" width="1.0365384615384616" height="14.525549822754101" fill="#4CAF50" opacity="0.5"/>
<rect x="743.0462779753965" y="520.7583081296798" width="1.0365384615384616" height="15.24169187032021" fill="#f44336" opacity="0.5"/>
<rect x="744.5299003260709" y="518.000297563177" width="1.0365384615384616" height="17.999702436822986" fill="#f44336" opacity="0.5"/>
<rect x="746.0135226767453" y="501.9517310480827" width="1.0365384615384616" height="34.048268951917294" fill="#f44336" opacity="0.5"/>
<rect x="747.4971450274196" y="512.3374594254132" width="1.0365384615384616" height="23.662540574586842" fill="#4CAF50" opacity="0.5"/>
<rect x="748.980767378094" y="519.3015163311989" width="1.0365384615384616" height="16.698483668801146" fill="#4CAF50" opacity="0.5"/>
<rect x="750.4643897287683" y="523.1765207187044" width="1.0365384615384616" height="12.82347928129559" fill="#f44336" opacity="0.5"/>
<rect x="751.9480120794427" y="524.7940658141584" width="1.0365384615384616" height="11.205934185841556" fill="#4CAF50" opacity="0.5"/>
<rect x="753.4316344301171" y="522.6566420074188" width="1.0365384615384616" height="13.343357992581218" fill="#f44336" opacity="0.5"/>
<rect x="754.9152567807915" y="520.4156495448524" width="1.0365384615384616" height="15.584350455147614" fill="#f44336" opacity="0.5"/>
<rect x="756.3988791314658" y="523.6088850160502" width="1.0365384615384616" height="12.39111498394982" fill="#4CAF50" opacity="0.5"/>
<rect x="757.8825014821402" y="522.904790526359" width="1.0365384615384616" height="13.095209473641034" fill="#f44336" opacity="0.5"/>
<rect x="759.3661238328147" y="525.5384105162327" width="1.0365384615384616" height="10.461589483767284" fill="#f44336" opacity="0.5"/>
<rect x="760.849746183489" y="520.8764365434254" width="1.0365384615384616" height="15.12356345657463" fill="#4CAF50" opacity="0.5"/>
<rect x="762.3333685341634" y="518.0721978286685" width="1.0365384615384616" height="17.92780217133145" fill="#4CAF50" opacity="0.5"/>
<rect x="763.8169908848378" y="522.5006013776814" width="1.0365384615384616" height="13.499398622318608" fill="#f44336" opacity="0.5"/>
<rect x="765.3006132355122" y="523.1359312676293" width="1.0365384615384616" height="12.864068732370697" fill="#4CAF50" opacity="0.5"/>
<rect x="766.7842355861865" y="524.0089574573565" width="1.0365384615384616" height="11.991042542643527" fill="#4CAF50" opacity="0.5"/>
<rect x="768.2678579368609" y="526.8736815140473" width="1.0365384615384616" height="9.126318485952652" fill="#4CAF50" opacity="0.5"/>
<rect x="769.7514802875352" y="525.4725248610654" width="1.0365384615384616" height="10.52747513893462" fill="#f44336" opacity="0.5"/>
<rect x="771.2351026382096" y="527.0012627681044" width="1.0365384615384616" height="8.998737231895575" fill="#4CAF50" opacity="0.5"/>
<rect x="772.718724988884" y="527.8498546033894" width="1.0365384615384616" height="8.150145396610583" fill="#f44336" opacity="0.5"/>
<rect x="774.2023473395584" y="522.5768383972634" width="1.0365384615384616" height="13.423161602736627" fill="#4CAF50" opacity="0.5"/>
<rect x="775.6859696902327" y="527.8235040087677" width="1.0365384615384616" height="8.176495991232287" fill="#f44336" opacity="0.5"/>
<rect x="777.1695920409071" y="524.5238576116207" width="1.0365384615384616" height="11.476142388379344" fill="#f44336" opacity="0.5"/>
<rect x="778.6532143915814" y="525.7830841307325" width="1.0365384615384616" height="10.216915869267496" fill="#f44336" opacity="0.5"/>
<rect x="780.1368367422558" y="524.7431066614421" width="1.0365384615384616" height="11.256893338557916" fill="#4CAF50" opacity="0.5"/>
<rect x="781.6204590929302" y="524.1234367630091" width="1.0365384615384616" height="11.876563236990933" fill="#4CAF50" opacity="0.5"/>
<rect x="783.1040814436046" y="528.8551930516359" width="1.0365384615384616" height="7.144806948364135" fill="#f44336" opacity="0.5"/>
<rect x="784.587703794279" y="524.9580281257863" width="1.0365384615384616" height="11.041971874213687" fill="#f44336" opacity="0.5"/>
<rect x="786.0713261449533" y="519.869475250625" width="1.0365384615384616" height="16.130524749375013" fill="#4CAF50" opacity="0.5"/>
<rect x="787.5549484956277" y="517.2395685491373" width="1.0365384615384616" height="18.76043145086271" fill="#4CAF50" opacity="0.5"/>
<rect x="789.038570846302" y="522.7973252098802" width="1.0365384615384616" height="13.202674790119772" fill="#f44336" opacity="0.5"/>
<rect x="790.5221931969764" y="507.83376322398817" width="1.0365384615384616" height="28.16623677601183" fill="#4CAF50" opacity="0.5"/>
<rect x="792.0058155476509" y="510.7866068230968" width="1.0365384615384616" height="25.213393176903196" fill="#f44336" opacity="0.5"/>
<rect x="793.4894378983253" y="512.0008062822967" width="1.0365384615384616" height="23.999193717703292" fill="#f44336" opacity="0.5"/>
<rect x="794.9730602489997" y="493.1134262116948" width="1.0365384615384616" height="42.88657378830521" fill="#4CAF50" opacity="0.5"/>
<rect x="796.456682599674" y="513.8194098987868" width="1.0365384615384616" height="22.18059010121317" fill="#f44336" opacity="0.5"/>
<rect x="797.9403049503483" y="489.50543934929885" width="1.0365384615384616" height="46.494560650701146" fill="#4CAF50" opacity="0.5"/>
<rect x="799.4239273010227" y="504.4623815963889" width="1.0365384615384616" height="31.537618403611077" fill="#f44336" opacity="0.5"/>
<rect x="800.9075496516971" y="505.598446133054" width="1.0365384615384616" height="30.401553866946017" fill="#f44336" opacity="0.5"/>
<rect x="802.3911720023715" y="445.8875219525775" width="1.0365384615384616" height="90.11247804742248" fill="#4CAF50" opacity="0.5"/>
<rect x="803.8747943530459" y="437.42852264837336" width="1.0365384615384616" height="98.57147735162664" fill="#4CAF50" opacity="0.5"/>
<rect x="805.3584167037202" y="483.25923902176635" width="1.0365384615384616" height="52.74076097823365" fill="#4CAF50" opacity="0.5"/>
<rect x="806.8420390543945" y="437.0" width="1.0365384615384616" height="99.0" fill="#4CAF50" opacity="0.5"/>
<rect x="808.3256614050689" y="463.2129737359978" width="1.0365384615384616" height="72.78702626400218" fill="#4CAF50" opacity="0.5"/>
<rect x="809.8092837557433" y="454.22382687361306" width="1.0365384615384616" height="81.77617312638694" fill="#f44336" opacity="0.5"/>
<rect x="811.2929061064177" y="494.4164878709896" width="1.0365384615384616" height="41.58351212901039" fill="#f44336" opacity="0.5"/>
<rect x="812.7765284570921" y="489.02501318103924" width="1.0365384615384616" height="46.97498681896076" fill="#f44336" opacity="0.5"/>
<rect x="814.2601508077665" y="457.04632029744835" width="1.0365384615384616" height="78.95367970255165" fill="#4CAF50" opacity="0.5"/>
<rect x="815.7437731584408" y="440.01402575565345" width="1.0365384615384616" height="95.98597424434655" fill="#4CAF50" opacity="0.5"/>
<rect x="817.2273955091151" y="459.5364881636444" width="1.0365384615384616" height="76.46351183635562" fill="#4CAF50" opacity="0.5"/>
<rect x="818.7110178597895" y="452.2072362215422" width="1.0365384615384616" height="83.79276377845781" fill="#f44336" opacity="0.5"/>
<rect x="820.194640210464" y="487.25959669029726" width="1.0365384615384616" height="48.74040330970274" fill="#f44336" opacity="0.5"/>
<rect x="821.6782625611384" y="498.8381249833877" width="1.0365384615384616" height="37.16187501661233" fill="#f44336" opacity="0.5"/>
<rect x="823.1618849118128" y="495.48417288967" width="1.0365384615384616" height="40.51582711033001" fill="#f44336" opacity="0.5"/>
<rect x="824.6455072624871" y="502.4126555758551" width="1.0365384615384616" height="33.587344424144874" fill="#4CAF50" opacity="0.5"/>
<rect x="826.1291296131614" y="512.2815675587418" width="1.0365384615384616" height="23.718432441258187" fill="#f44336" opacity="0.5"/>
<rect x="827.6127519638358" y="495.9133190037477" width="1.0365384615384616" height="40.08668099625231" fill="#f44336" opacity="0.5"/>
<rect x="829.0963743145102" y="509.37594231812363" width="1.0365384615384616" height="26.624057681876366" fill="#4CAF50" opacity="0.5"/>
<rect x="830.5799966651846" y="507.89840194774683" width="1.0365384615384616" height="28.101598052253166" fill="#4CAF50" opacity="0.5"/>
<rect x="832.063619015859" y="513.4023663542639" width="1.0365384615384616" height="22.597633645736096" fill="#f44336" opacity="0.5"/>
<rect x="833.5472413665334" y="508.5199514119062" width="1.0365384615384616" height="27.48004858809378" fill="#f44336" opacity="0.5"/>
<rect x="835.0308637172077" y="488.5682512037046" width="1.0365384615384616" height="47.43174879629538" fill="#4CAF50" opacity="0.5"/>
<rect x="836.514486067882" y="504.73655980848525" width="1.0365384615384616" height="31.263440191514746" fill="#4CAF50" opacity="0.5"/>
<rect x="837.9981084185564" y="485.8517561182203" width="1.0365384615384616" height="50.148243881779706" fill="#4CAF50" opacity="0.5"/>
<rect x="839.4817307692308" y="490.39753625468813" width="1.0365384615384616" height="45.602463745311866" fill="#4CAF50" opacity="0.5"/>
<polyline points="801.4258188824663,-9.064340239912717 802.9094412331407,-1.1565664433712826 804.3930635838151,6.751207353170372 805.8766859344894,14.658981149711806 807.3603082851637,22.566754946253315 808.8439306358381,30.474528742794895 810.3275529865125,38.3823025393364 811.8111753371869,46.29007633587784 813.2947976878613,54.19785013241931 814.7784200385357,62.105623928960924 816.26204238921,70.0133977255024 817.7456647398843,77.92117152204395 819.2292870905587,85.82894531858541 820.7129094412331,93.73671911512696 822.1965317919075,101.64449291166844 823.680154142582,109.55226670820997 825.1637764932563,117.46004050475152 826.6473988439305,125.367814301293 828.131021194605,133.27558809783454 829.6146435452794,141.183361894376 831.0982658959538,149.09113569091755 832.5818882466282,156.998909487459 834.0655105973026,164.90668328400056 835.5491329479769,172.81445708054213 837.0327552986512,180.72223087708358 838.5163776493256,188.63000467362514 840.0,196.53777847016667" stroke="#f85149" stroke-width="2.5" fill="none"/>
<polyline points="801.4258188824663,222.70073220127745 802.9094412331407,221.60344629056402 804.3930635838151,220.50616037985054 805.8766859344894,219.40887446913715 807.3603082851637,218.31158855842372 808.8439306358381,217.21430264771027 810.3275529865125,216.11701673699682 811.8111753371869,215.01973082628334 813.2947976878613,213.9224449155699 814.7784200385357,212.82515900485654 816.26204238921,211.72787309414306 817.7456647398843,210.6305871834296 819.2292870905587,209.5333012727162 820.7129094412331,208.4360153620027 822.1965317919075,207.33872945128928 823.680154142582,206.2414435405759 825.1637764932563,205.14415762986243 826.6473988439305,204.04687171914898 828.131021194605,202.94958580843553 829.6146435452794,201.85229989772208 831.0982658959538,200.7550139870087 832.5818882466282,199.65772807629526 834.0655105973026,198.5604421655818 835.5491329479769,197.46315625486835 837.0327552986512,196.3658703441549 838.5163776493256,195.26858443344145 840.0,194.171298522728" stroke="#3fb950" stroke-width="2.5" fill="none"/>
<polygon points="801.4258188824663,-9.064340239912717 802.9094412331407,-1.1565664433712826 804.3930635838151,6.751207353170372 805.8766859344894,14.658981149711806 807.3603082851637,22.566754946253315 808.8439306358381,30.474528742794895 810.3275529865125,38.3823025393364 811.8111753371869,46.29007633587784 813.2947976878613,54.19785013241931 814.7784200385357,62.105623928960924 816.26204238921,70.0133977255024 817.7456647398843,77.92117152204395 819.2292870905587,85.82894531858541 820.7129094412331,93.73671911512696 822.1965317919075,101.64449291166844 823.680154142582,109.55226670820997 825.1637764932563,117.46004050475152 826.6473988439305,125.367814301293 828.131021194605,133.27558809783454 829.6146435452794,141.183361894376 831.0982658959538,149.09113569091755 832.5818882466282,156.998909487459 834.0655105973026,164.90668328400056 835.5491329479769,172.81445708054213 835.5491329479769,197.46315625486835 834.0655105973026,198.5604421655818 832.5818882466282,199.65772807629526 831.0982658959538,200.7550139870087 829.6146435452794,201.85229989772208 828.131021194605,202.94958580843553 826.6473988439305,204.04687171914898 825.1637764932563,205.14415762986243 823.680154142582,206.2414435405759 822.1965317919075,207.33872945128928 820.7129094412331,208.4360153620027 819.2292870905587,209.5333012727162 817.7456647398843,210.6305871834296 816.26204238921,211.72787309414306 814.7784200385357,212.82515900485654 813.2947976878613,213.9224449155699 811.8111753371869,215.01973082628334 810.3275529865125,216.11701673699682 808.8439306358381,217.21430264771027 807.3603082851637,218.31158855842372 805.8766859344894,219.40887446913715 804.3930635838151,220.50616037985054 802.9094412331407,221.60344629056402 801.4258188824663,222.70073220127745" fill="#FFD700" opacity="0.12"/>
<polygon points="810.26204238921,62.0133977255024 822.26204238921,62.0133977255024 816.26204238921,72.0133977255024" fill="#f85149" stroke="#fff" stroke-width="1"/>
<polygon points="825.0982658959538,141.09113569091755 837.0982658959538,141.09113569091755 831.0982658959538,151.09113569091755" fill="#f85149" stroke="#fff" stroke-width="1"/>
<polygon points="795.4258188824663,230.70073220127745 807.4258188824663,230.70073220127745 801.4258188824663,220.70073220127745" fill="#3fb950" stroke="#fff" stroke-width="1"/>
<polygon points="829.5491329479769,205.46315625486835 841.5491329479769,205.46315625486835 835.5491329479769,195.46315625486835" fill="#3fb950" stroke="#fff" stroke-width="1"/>
<circle cx="837.0327552986512" cy="156.66240847484028" r="6" fill="#e53935" stroke="#fff" stroke-width="2"/>
<text x="837.0327552986512" y="144.66240847484028" text-anchor="middle" font-size="10" fill="#e53935">突破</text>
<polyline points="70.0,247.09705561613956 71.48362235067438,247.51768188191306 72.96724470134875,248.3589344134601 74.45086705202313,241.20828789531086 75.9344894026975,241.6289141610843 77.41811175337187,240.3670353637638 78.90173410404624,241.20828789531086 80.38535645472062,246.25580308459263 81.86897880539499,244.57329802149863 83.35260115606937,236.58139897180246 84.83622350674374,227.32762112478582 86.31984585741812,242.89079295840475 87.80346820809248,243.31141922417822 89.28709055876686,256.3508334631563 90.77071290944123,257.6127122604767 92.25433526011561,251.3033182738744 93.73795761078998,260.55709612089106 95.22157996146436,258.0333385262502 96.70520231213872,260.55709612089106 98.1888246628131,261.3983486524381 99.67244701348747,277.38214675183053 101.15606936416185,286.63592459884717 102.63969171483623,303.88160149556006 104.1233140655106,319.44477332917904 105.60693641618496,313.55600560835023 107.09055876685935,313.9766318741237 108.57418111753373,309.3497429506154 110.05780346820809,306.405359090201 111.54142581888246,305.564106558654 113.02504816955684,309.3497429506154 114.50867052023122,307.24661162174795 115.99229287090559,308.50849041906844 117.47591522157995,303.88160149556006 118.95953757225433,315.6591369372177 120.44315992292871,332.9048138339306 121.9267822736031,330.38105623928965 123.41040462427745,320.7066521264995 124.89402697495183,325.33354105000785 126.37764932562621,324.49228851846084 127.86127167630059,324.9129147842343 129.34489402697494,325.75416731578133 130.82851637764932,327.43667237887524 132.3121387283237,337.1110764916654 133.79576107899808,332.06356130238356 135.27938342967246,342.1585916809472 136.76300578034682,334.5873188970245 138.2466281310212,335.42857142857144 139.73025048169558,316.07976320299116 141.21387283236993,317.7622682660851 142.6974951830443,329.96042997351617 144.1811175337187,329.96042997351617 145.66473988439307,324.49228851846084 147.14836223506745,321.12727839227296 148.6319845857418,310.6116217479358 150.11560693641619,316.50038946876464 151.59922928709057,313.9766318741237 153.08285163776492,342.1585916809472 154.56647398843933,337.95232902321237 156.05009633911368,334.166692631251 157.53371868978803,341.31733914940025 159.01734104046244,338.37295528898585 160.5009633911368,327.8572986446487 161.98458574181117,328.6985511761957 163.46820809248555,332.9048138339306 164.9518304431599,342.5792179467207 166.43545279383432,338.7935815547593 167.91907514450867,340.8967128836268 169.40269749518305,342.9998442124942 170.88631984585743,342.1585916809472 172.36994219653178,337.1110764916654 173.8535645472062,330.8016825050631 175.33718689788054,332.4841875681571 176.8208092485549,335.42857142857144 178.3044315992293,338.7935815547593 179.78805394990366,340.0554603520798 181.27167630057804,345.1029755413616 182.75529865125242,345.5236018071351 184.23892100192677,350.15049073064347 185.72254335260118,354.7773796541518 187.20616570327553,353.93612712260483 188.68978805394988,357.7217635145662 190.1734104046243,359.8248948434336 191.65703275529864,354.3567533883783 193.14065510597305,343.8410967440412 194.6242774566474,340.0554603520798 196.10789980732176,338.7935815547593 197.59152215799617,342.9998442124942 199.07514450867052,339.63483408630634 200.5587668593449,345.9442280729086 202.04238921001928,341.73796541517373 203.52601156069363,337.5317027574389 205.009633911368,340.8967128836268 206.4932562620424,341.73796541517373 207.97687861271675,348.888611933323 209.46050096339115,353.09487459105776 210.9441233140655,345.1029755413616 212.4277456647399,345.9442280729086 213.91136801541427,345.5236018071351 215.39499036608862,334.5873188970245 216.878612716763,328.27792491042214 218.36223506743738,318.18289453185855 219.84585741811176,300.9372176351457 221.32947976878614,250.041439476554 222.8131021194605,210.08194422807293 224.29672447013488,239.1051565664434 225.78034682080926,240.7876616295373 227.2639691714836,268.5489951705873 228.747591522158,257.6127122604767 230.23121387283237,268.12836890481384 231.71483622350675,271.4933790310017 233.1984585741811,271.07275276522824 234.68208092485548,256.3508334631563 236.16570327552986,252.56519707119494 237.64932562620425,253.40644960274187 239.13294797687863,252.56519707119494 240.61657032755298,252.56519707119494 242.10019267822736,246.25580308459263 243.58381502890174,236.16077270602898 245.0674373795761,252.14457080542144 246.55105973025047,256.3508334631563 248.03468208092485,242.89079295840475 249.51830443159923,259.2952173235707 251.0019267822736,252.56519707119494 252.48554913294797,244.9939242872722 253.96917148362235,245.41455055304567 255.45279383429673,229.4307524536532 256.9364161849711,218.07384327776913 258.4200385356455,205.87568157033803 259.9036608863198,220.59760087241006 261.3872832369942,224.8038635301449 262.87090558766863,235.31952017448202 264.354527938343,246.67642935036608 265.83815028901734,254.24770213428883 267.32177263969174,247.51768188191306 268.8053949903661,239.1051565664434 270.28901734104045,233.21638884561455 271.77263969171486,249.6208132107805 273.2562620423892,248.77956067923355 274.73988439306356,253.82707586851532 276.22350674373797,247.93830814768654 277.7071290944124,241.6289141610843 279.1907514450867,230.27200498520014 280.6743737957611,223.12135846705092 282.1579961464355,215.97071194890168 283.6416184971098,229.0101261878797 285.1252408477842,222.28010593550394 286.6088631984586,217.65321701199565 288.09248554913296,221.85947966973046 289.5761078998073,219.756348340863 291.0597302504817,218.4944695435426 292.5433526011561,212.18507555694032 294.0269749518304,229.0101261878797 295.51059730250483,227.74824739055933 296.99421965317924,250.4620657423275 298.47784200385354,252.56519707119494 299.96146435452795,255.93020719738277 301.44508670520236,248.3589344134601 302.92870905587665,262.6602274497585 304.41233140655106,259.2952173235707 305.89595375722547,264.3427325128525 307.37957610789977,264.3427325128525 308.8631984585742,260.9777223866646 310.3468208092486,264.3427325128525 311.8304431599229,270.2315002336813 313.3140655105973,280.74715687801836 314.7976878612717,290.84218725658206 316.2813102119461,289.15968219348804 317.7649325626204,285.7946720673002 319.2485549132948,282.8502882068858 320.7321772639692,287.89780339616766 322.2157996146435,297.57220750895783 323.6994219653179,294.6278236485434 325.18304431599233,282.00903567533885 326.66666666666663,285.7946720673002 328.15028901734104,286.63592459884717 329.63391136801545,283.6915407384328 331.1175337186898,280.74715687801836 332.60115606936415,282.8502882068858 334.08477842003856,282.8502882068858 335.5684007707129,281.5884094095654 337.05202312138726,280.32653061224494 338.5356454720617,278.6440255491509 340.019267822736,276.12026795451004 341.5028901734104,268.12836890481384 342.9865125240848,263.922106247079 344.4701348747592,260.13646985511764 345.9537572254335,262.6602274497585 347.4373795761079,262.2396011839851 348.9210019267823,266.8664901074934 350.40462427745666,262.2396011839851 351.888246628131,261.3983486524381 353.3718689788054,270.65212649945477 354.8554913294798,263.922106247079 356.3391136801541,263.08085371553204 357.82273603082854,262.6602274497585 359.3063583815029,262.6602274497585 360.78998073217724,261.81897491821155 362.27360308285165,256.77145972892976 363.757225433526,262.2396011839851 365.24084778420035,276.12026795451004 366.72447013487476,271.4933790310017 368.2080924855491,263.5014799813055 369.6917148362235,266.02523757594645 371.1753371868979,258.8745910577972 372.6589595375723,261.81897491821155 374.14258188824664,254.6683284000623 375.626204238921,253.82707586851532 377.1098265895954,254.6683284000623 378.59344894026975,254.6683284000623 380.0770712909441,247.93830814768654 381.5606936416185,239.9464090979903 383.04431599229287,241.20828789531086 384.5279383429672,240.3670353637638 386.0115606936416,234.4782676429351 387.495183044316,242.89079295840475 388.9788053949904,248.3589344134601 390.46242774566474,254.24770213428883 391.9460500963391,247.09705561613956 393.4296724470135,251.3033182738744 394.91329479768785,255.50958093160932 396.3969171483622,260.9777223866646 397.8805394990366,253.82707586851532 399.36416184971097,251.3033182738744 400.8477842003854,252.56519707119494 402.33140655105973,331.6429350366101 403.8150289017341,324.9129147842343 405.2986512524085,316.50038946876464 406.78227360308284,308.08786415329496 408.26589595375725,304.3022277613336 409.7495183044316,301.77847016669267 411.23314065510596,298.4134600405048 412.71676300578036,304.722854027107 414.2003853564547,298.8340863062782 415.68400770712907,303.0403489640131 417.1676300578035,298.4134600405048 418.65125240847783,295.4690761800904 420.1348747591522,283.6915407384328 421.6184971098266,284.1121670042063 423.10211946050094,283.6915407384328 424.5857418111753,287.89780339616766 426.0693641618497,271.07275276522824 427.5529865125241,263.5014799813055 429.03660886319847,258.0333385262502 430.5202312138728,254.24770213428883 432.0038535645472,252.56519707119494 433.4874759152216,254.24770213428883 434.97109826589593,252.14457080542144 436.45472061657034,256.3508334631563 437.9383429672447,263.08085371553204 439.42196531791905,263.08085371553204 440.90558766859345,263.5014799813055 442.38921001926786,251.3033182738744 443.87283236994216,250.041439476554 445.35645472061657,237.4226515033494 446.840077071291,246.67642935036608 448.3236994219653,249.6208132107805 449.8073217726397,240.7876616295373 451.2909441233141,242.0495404268578 452.77456647398844,237.4226515033494 454.2581888246628,237.4226515033494 455.7418111753372,241.6289141610843 457.22543352601156,237.0020252375759 458.70905587668597,237.84327776912292 460.19267822736026,237.84327776912292 461.67630057803467,222.28010593550394 463.159922928709,221.85947966973046 464.64354527938343,226.06574232746533 466.12716763005784,225.22448979591837 467.6107899807322,225.64511606169188 469.0944123314065,233.63701511138802 470.5780346820809,230.6926312509737 472.0616570327553,230.6926312509737 473.54527938342966,234.89889390870854 475.02890173410407,240.7876616295373 476.5125240847784,243.31141922417822 477.99614643545283,236.16077270602898 479.4797687861271,227.32762112478582 480.96339113680153,226.90699485901226 482.4470134874759,230.6926312509737 483.9306358381503,225.64511606169188 485.4142581888247,223.96261099859794 486.89788053949906,223.96261099859794 488.38150289017335,223.54198473282437 489.86512524084776,222.28010593550394 491.34874759152217,224.8038635301449 492.8323699421965,218.9150958093161 494.31599229287093,217.65321701199565 495.7996146435453,218.4944695435426 497.28323699421964,215.5500856831282 498.766859344894,213.02632808848725 500.2504816955684,207.558186633432 501.73410404624275,207.97881289920548 503.21772639691716,210.5025704938464 504.70134874759157,221.85947966973046 506.1849710982659,216.8119644804487 507.6685934489402,201.6694189126032 509.1522157996146,199.5662875837358 510.63583815028903,203.35192397569716 512.1194605009634,199.5662875837358 513.6030828516377,197.46315625486835 515.0867052023121,197.04252998909487 516.5703275529866,190.73313600249259 518.0539499036609,193.2568935971335 519.5375722543353,203.77255024147064 521.0211946050097,191.99501479981302 522.504816955684,185.68562081321082 523.9884393063585,186.10624707898427 525.4720616570328,183.16186321856986 526.9556840077071,179.79685309238198 528.4393063583815,156.66240847484028 529.9229287090559,160.44804486680164 531.4065510597302,161.28929739834865 532.8901734104047,158.34491353793425 534.373795761079,167.59869138495094 535.8574181117533,167.1780651191774 537.3410404624277,170.5430752453653 538.8246628131021,170.5430752453653 540.3082851637764,159.60679233525468 541.7919075144509,157.50366100638732 543.2755298651252,161.28929739834865 544.7591522157995,156.66240847484028 546.2427745664739,152.45614581710544 547.7263969171483,178.53497429506155 549.2100192678228,177.69372176351453 550.6936416184972,181.89998442124943 552.1772639691715,186.52687334475775 553.6608863198458,205.87568157033803 555.1445086705203,211.76444929116684 556.6281310211946,214.2882068858078 558.111753371869,210.08194422807293 559.5953757225434,203.77255024147064 561.0789980732177,207.13756036765852 562.5626204238922,207.558186633432 564.0462427745665,200.40754011528276 565.5298651252408,203.77255024147064 567.0134874759152,210.92319675961988 568.4971098265896,207.97881289920548 569.9807321772639,210.92319675961988 571.4643545279384,218.07384327776913 572.9479768786127,219.33572207508956 574.431599229287,216.39133821467516 575.9152215799614,224.38323726437142 577.3988439306358,216.39133821467516 578.8824662813101,220.17697460663658 580.3660886319847,220.59760087241006 581.849710982659,218.07384327776913 583.3333333333333,219.756348340863 584.8169556840077,220.59760087241006 586.3005780346821,215.1294594173547 587.7842003853565,219.756348340863 589.2678227360309,221.85947966973046 590.7514450867052,213.02632808848725 592.2350674373796,219.33572207508956 593.7186897880539,225.22448979591837 595.2023121387283,214.2882068858078 596.6859344894027,204.6138027730176 598.1695568400771,204.19317650724412 599.6531791907515,202.93129770992368 601.1368015414258,198.7250350521888 602.6204238921001,198.7250350521888 604.1040462427745,199.14566131796235 605.5876685934489,205.87568157033803 607.0712909441233,206.71693410188504 608.5549132947978,202.93129770992368 610.038535645472,205.87568157033803 611.5221579961465,208.39943916497896 613.0057803468208,202.51067144415015 614.4894026974952,199.14566131796235 615.9730250481696,197.46315625486835 617.456647398844,196.6219037233214 618.9402697495184,190.31250973671914 620.4238921001927,190.31250973671914 621.907514450867,188.20937840785163 623.3911368015414,189.0506309393987 624.8747591522158,195.3600249260009 626.3583815028902,198.7250350521888 627.8420038535646,209.66131796229948 629.3256262042389,212.18507555694032 630.8092485549133,235.31952017448202 632.2928709055876,231.95451004829414 633.776493256262,225.64511606169188 635.2601156069364,227.32762112478582 636.7437379576108,221.01822713818356 638.2273603082851,215.97071194890168 639.7109826589596,208.82006543075244 641.1946050096338,213.02632808848725 642.6782273603083,216.39133821467516 644.1618497109827,222.70073220127745 645.6454720616571,218.4944695435426 647.1290944123315,217.23259074622217 648.6127167630058,225.64511606169188 650.0963391136802,227.32762112478582 651.5799614643545,235.31952017448202 653.0635838150289,239.9464090979903 654.5472061657033,239.1051565664434 656.0308285163777,247.09705561613956 657.514450867052,247.51768188191306 658.9980732177264,243.31141922417822 660.4816955684007,234.4782676429351 661.9653179190751,215.5500856831282 663.4489402697495,222.28010593550394 664.9325626204239,218.9150958093161 666.4161849710982,210.08194422807293 667.8998073217726,217.65321701199565 669.383429672447,220.17697460663658 670.8670520231213,224.38323726437142 672.3506743737958,223.12135846705092 673.8342967244702,213.8675806200343 675.3179190751446,212.6057018227138 676.8015414258189,213.4469543542608 678.2851637764933,207.558186633432 679.7687861271676,205.03442903879107 681.252408477842,203.77255024147064 682.7360308285164,202.09004517837667 684.2196531791908,203.35192397569716 685.7032755298651,203.77255024147064 687.1868978805395,201.6694189126032 688.6705202312139,193.677519862907 690.1541425818882,191.15376226826606 691.6377649325626,188.6300046736252 693.121387283237,189.89188347094563 694.6050096339113,185.2649945474373 696.0886319845857,191.99501479981302 697.5722543352601,192.83626733136003 699.0558766859344,201.2487926468297 700.5394990366088,202.93129770992368 702.0231213872833,198.30440878641528 703.5067437379577,210.08194422807293 704.990366088632,198.7250350521888 706.4739884393064,197.46315625486835 707.9576107899808,195.3600249260009 709.4412331406551,193.2568935971335 710.9248554913295,191.5743885340395 712.4084778420039,192.83626733136003 713.8921001926782,197.88378252064183 715.3757225433526,203.35192397569716 716.859344894027,198.7250350521888 718.3429672447013,188.20937840785163 719.8265895953757,176.01121670042062 721.3102119460501,171.3843277769123 722.7938342967244,172.22558030845926 724.2774566473988,184.84436828166375 725.7610789980732,200.82816638105623 727.2447013487476,205.87568157033803 728.7283236994219,203.77255024147064 730.2119460500963,186.10624707898427 731.6955684007708,190.73313600249259 733.179190751445,157.92428727216077 734.6628131021195,162.1305499298956 736.1464354527939,173.90808537155317 737.6300578034682,177.69372176351453 739.1136801541426,174.74933790310018 740.597302504817,187.78875214207818 742.0809248554913,180.63810562392894 743.5645472061657,197.88378252064183 745.0481695568401,215.97071194890168 746.5317919075145,248.3589344134601 748.0154142581888,239.52578283221686 749.4990366088632,231.11325751674715 750.9826589595375,239.52578283221686 752.4662813102119,231.95451004829414 753.9499036608863,233.21638884561455 755.4335260115607,236.58139897180246 756.917148362235,227.74824739055933 758.4007707129094,231.53388378252066 759.8843930635838,237.4226515033494 761.3680154142581,236.16077270602898 762.8516377649325,219.756348340863 764.335260115607,226.06574232746533 765.8188824662814,215.97071194890168 767.3025048169557,215.97071194890168 768.7861271676301,213.4469543542608 770.2697495183044,215.97071194890168 771.7533718689788,212.18507555694032 773.2369942196532,215.97071194890168 774.7206165703276,215.5500856831282 776.2042389210019,217.65321701199565 777.6878612716763,219.33572207508956 779.1714836223506,220.59760087241006 780.655105973025,217.23259074622217 782.1387283236994,208.39943916497896 783.6223506743738,215.1294594173547 785.1059730250482,218.4944695435426 786.5895953757225,212.6057018227138 788.0732177263969,202.93129770992368 789.5568400770712,203.35192397569716 791.0404624277456,198.30440878641528 792.52408477842,202.93129770992368 794.0077071290945,216.8119644804487 795.4913294797689,201.2487926468297 796.9749518304432,205.87568157033803 798.4585741811175,201.2487926468297 799.9421965317919,208.39943916497896 801.4258188824663,208.82006543075244 802.9094412331407,166.75743885340393 804.3930635838151,158.34491353793425 805.8766859344894,140.6786103754479 807.3603082851637,123.0123072129615 808.8439306358381,109.97289297398346 810.3275529865125,110.8141455055304 811.8111753371869,115.86166069481224 813.2947976878613,152.45614581710544 814.7784200385357,107.02850911356904 816.26204238921,84.31469076180088 817.7456647398843,80.52905436983954 819.2292870905587,135.63109518616602 820.7129094412331,148.67050942514408 822.1965317919075,168.86057018227137 823.680154142582,174.32871163732665 825.1637764932563,162.1305499298956 826.6473988439305,178.11434802928807 828.131021194605,187.3681258763047 829.6146435452794,170.1224489795918 831.0982658959538,156.66240847484028 832.5818882466282,168.01931765072442 834.0655105973026,176.85246923196758 835.5491329479769,159.60679233525468 837.0327552986512,156.66240847484028 838.5163776493256,146.56737809627668 840.0,133.52796385729863" stroke="#2196F3" stroke-width="1.8" fill="none"/>
<line x1="70" y1="3.975073999065252" x2="840" y2="3.975073999065252" stroke="#FFD700" stroke-width="1" stroke-dasharray="5,5"/>
<text x="845" y="7.975073999065252" font-size="10" fill="#FFD700">目标 17.43</text>
<line x1="70" y1="156.66240847484028" x2="840" y2="156.66240847484028" stroke="#3fb950" stroke-width="1" stroke-dasharray="2,2"/>
<text x="845" y="160.66240847484028" font-size="10" fill="#3fb950">突破价 13.80</text>
<line x1="840.0" y1="133.52796385729863" x2="840" y2="133.52796385729863" stroke="#88ccff" stroke-width="1"/>
<text x="845" y="137.52796385729863" font-size="10" fill="#88ccff">现价 14.35</text>
<text x="70" y="605" font-size="12" fill="#e0e0e0" font-weight="bold">上榜理由 (综合得分: 98):</text>
<text x="70" y="623" font-size="11" fill="#aaa">1. 形态刚收敛完成（距截止日仅3天），突破信号最新鲜</text>
<text x="70" y="641" font-size="11" fill="#aaa">2. 突破后日线胜率95%，表现优秀</text>
<text x="70" y="659" font-size="11" fill="#aaa">3. 量度目标涨幅26.3%（目标¥17.43 / 突破¥13.80）</text>
<text x="70" y="677" font-size="11" fill="#aaa">4. 收敛前上涨趋势+3.5%，确认中继属性</text>
<text x="70" y="695" font-size="11" fill="#aaa">5. 三角持续23个交易日，整理充分</text>
</svg>