<svg xmlns="http://www.w3.org/2000/svg" viewBox="0 0 900 700" width="900" height="700">
<rect width="900" height="700" fill="#1a1a2e"/>
<text x="450.0" y="28" text-anchor="middle" font-size="16" fill="#e0e0e0" font-weight="bold">矩阵股份 (301365.SZ)  三角收敛上涨中继  评分:98/100</text>
<line x1="70" y1="374.0" x2="840" y2="374.0" stroke="#2a2a4a" stroke-width="0.5"/>
<text x="65" y="378.0" text-anchor="end" font-size="10" fill="#888">9.12</text>
<line x1="70" y1="309.2" x2="840" y2="309.2" stroke="#2a2a4a" stroke-width="0.5"/>
<text x="65" y="313.2" text-anchor="end" font-size="10" fill="#888">15.38</text>
<line x1="70" y1="244.40000000000003" x2="840" y2="244.40000000000003" stroke="#2a2a4a" stroke-width="0.5"/>
<text x="65" y="248.40000000000003" text-anchor="end" font-size="10" fill="#888">21.65</text>
<line x1="70" y1="179.6" x2="840" y2="179.6" stroke="#2a2a4a" stroke-width="0.5"/>
<text x="65" y="183.6" text-anchor="end" font-size="10" fill="#888">27.92</text>
<line x1="70" y1="114.80000000000005" x2="840" y2="114.80000000000005" stroke="#2a2a4a" stroke-width="0.5"/>
<text x="65" y="118.80000000000005" text-anchor="end" font-size="10" fill="#888">34.18</text>
<line x1="70" y1="50.0" x2="840" y2="50.0" stroke="#2a2a4a" stroke-width="0.5"/>
<text x="65" y="54.0" text-anchor="end" font-size="10" fill="#888">40.45</text>
<text x="70.0" y="551.0" text-anchor="middle" font-size="9" fill="#888">2024-05-06</text>
<text x="166.43545279383432" y="551.0" text-anchor="middle" font-size="9" fill="#888">2024-08-06</text>
<text x="262.87090558766863" y="551.0" text-anchor="middle" font-size="9" fill="#888">2024-11-14</text>
<text x="359.3063583815029" y="551.0" text-anchor="middle" font-size="9" fill="#888">2025-02-24</text>
<text x="455.7418111753372" y="551.0" text-anchor="middle" font-size="9" fill="#888">2025-05-30</text>
<text x="552.1772639691715" y="551.0" text-anchor="middle" font-size="9" fill="#888">2025-09-01</text>
<text x="648.6127167630058" y="551.0" text-anchor="middle" font-size="9" fill="#888">2025-12-09</text>
<text x="745.0481695568401" y="551.0" text-anchor="middle" font-size="9" fill="#888">2026-03-20</text>
<rect x="810.3275529865125" y="50" width="25.221579961464386" height="486.0" fill="#FFD700" opacity="0.06"/>
<rect x="69.48173076923077" y="532.084292197988" width="1.0365384615384616" height="3.9157078020119798" fill="#4CAF50" opacity="0.5"/>
<rect x="70.96535311990515" y="531.486975055721" width="1.0365384615384616" height="4.513024944278982" fill="#4CAF50" opacity="0.5"/>
<rect x="72.44897547057951" y="532.7785264861876" width="1.0365384615384616" height="3.2214735138123842" fill="#f44336" opacity="0.5"/>
<rect x="73.93259782125389" y="532.8961894377001" width="1.0365384615384616" height="3.103810562299941" fill="#4CAF50" opacity="0.5"/>
<rect x="75.41622017192826" y="530.8669425939077" width="1.0365384615384616" height="5.133057406092348" fill="#f44336" opacity="0.5"/>
<rect x="76.89984252260264" y="531.4112650778919" width="1.0365384615384616" height="4.588734922108074" fill="#f44336" opacity="0.5"/>
<rect x="78.383464873277" y="532.4947613951765" width="1.0365384615384616" height="3.5052386048234894" fill="#4CAF50" opacity="0.5"/>
<rect x="79.86708722395139" y="530.1157629885045" width="1.0365384615384616" height="5.884237011495543" fill="#4CAF50" opacity="0.5"/>
<rect x="81.35070957462575" y="524.8125791210686" width="1.0365384615384616" height="11.187420878931448" fill="#4CAF50" opacity="0.5"/>
<rect x="82.83433192530013" y="520.5131805332193" width="1.0365384615384616" height="15.48681946678073" fill="#4CAF50" opacity="0.5"/>
<rect x="84.3179542759745" y="523.6550360572376" width="1.0365384615384616" height="12.344963942762433" fill="#f44336" opacity="0.5"/>
<rect x="85.80157662664888" y="528.6138573862295" width="1.0365384615384616" height="7.386142613770517" fill="#f44336" opacity="0.5"/>
<rect x="87.28519897732325" y="526.1961704365035" width="1.0365384615384616" height="9.803829563496492" fill="#4CAF50" opacity="0.5"/>
<rect x="88.76882132799763" y="530.111230780184" width="1.0365384615384616" height="5.888769219816027" fill="#f44336" opacity="0.5"/>
<rect x="90.252443678672" y="532.6219733878295" width="1.0365384615384616" height="3.3780266121705154" fill="#f44336" opacity="0.5"/>
<rect x="91.73606602934638" y="530.4512433291193" width="1.0365384615384616" height="5.548756670880721" fill="#4CAF50" opacity="0.5"/>
<rect x="93.21968838002074" y="532.5374858910633" width="1.0365384615384616" height="3.462514108936716" fill="#f44336" opacity="0.5"/>
<rect x="94.70331073069512" y="532.4989020269013" width="1.0365384615384616" height="3.5010979730986946" fill="#4CAF50" opacity="0.5"/>
<rect x="96.18693308136949" y="531.6985427272764" width="1.0365384615384616" height="4.30145727272361" fill="#f44336" opacity="0.5"/>
<rect x="97.67055543204387" y="533.0096652335358" width="1.0365384615384616" height="2.9903347664642297" fill="#4CAF50" opacity="0.5"/>
<rect x="99.15417778271824" y="531.76577371486" width="1.0365384615384616" height="4.234226285140039" fill="#f44336" opacity="0.5"/>
<rect x="100.63780013339262" y="529.4503735505224" width="1.0365384615384616" height="6.549626449477614" fill="#f44336" opacity="0.5"/>
<rect x="102.121422484067" y="529.6865834086345" width="1.0365384615384616" height="6.313416591365467" fill="#f44336" opacity="0.5"/>
<rect x="103.60504483474136" y="528.8327060562672" width="1.0365384615384616" height="7.16729394373283" fill="#f44336" opacity="0.5"/>
<rect x="105.08866718541573" y="528.0977245401393" width="1.0365384615384616" height="7.902275459860675" fill="#4CAF50" opacity="0.5"/>
<rect x="106.57228953609011" y="530.8836291846787" width="1.0365384615384616" height="5.116370815321261" fill="#f44336" opacity="0.5"/>
<rect x="108.05591188676449" y="531.3887087151816" width="1.0365384615384616" height="4.611291284818435" fill="#4CAF50" opacity="0.5"/>
<rect x="109.53953423743886" y="532.8045798992874" width="1.0365384615384616" height="3.1954201007125675" fill="#f44336" opacity="0.5"/>
<rect x="111.02315658811322" y="532.8119849616417" width="1.0365384615384616" height="3.188015038358344" fill="#f44336" opacity="0.5"/>
<rect x="112.5067789387876" y="533.225183564012" width="1.0365384615384616" height="2.7748164359879866" fill="#f44336" opacity="0.5"/>
<rect x="113.99040128946199" y="532.2961118742832" width="1.0365384615384616" height="3.703888125716844" fill="#4CAF50" opacity="0.5"/>
<rect x="115.47402364013635" y="531.0717565384363" width="1.0365384615384616" height="4.9282434615637385" fill="#4CAF50" opacity="0.5"/>
<rect x="116.95764599081072" y="531.847938891024" width="1.0365384615384616" height="4.152061108976" fill="#f44336" opacity="0.5"/>
<rect x="118.4412683414851" y="529.9521925273917" width="1.0365384615384616" height="6.04780747260827" fill="#4CAF50" opacity="0.5"/>
<rect x="119.92489069215948" y="529.2070222657837" width="1.0365384615384616" height="6.792977734216265" fill="#f44336" opacity="0.5"/>
<rect x="121.40851304283386" y="531.7835032175542" width="1.0365384615384616" height="4.216496782445802" fill="#4CAF50" opacity="0.5"/>
<rect x="122.89213539350821" y="530.2430021201294" width="1.0365384615384616" height="5.756997879870596" fill="#4CAF50" opacity="0.5"/>
<rect x="124.3757577441826" y="512.3269693945236" width="1.0365384615384616" height="23.673030605476356" fill="#4CAF50" opacity="0.5"/>
<rect x="125.85938009485697" y="512.3532941973432" width="1.0365384615384616" height="23.64670580265681" fill="#4CAF50" opacity="0.5"/>
<rect x="127.34300244553135" y="519.2024379725676" width="1.0365384615384616" height="16.797562027432377" fill="#4CAF50" opacity="0.5"/>
<rect x="128.82662479620572" y="524.272459300745" width="1.0365384615384616" height="11.727540699254973" fill="#f44336" opacity="0.5"/>
<rect x="130.3102471468801" y="526.6390707052068" width="1.0365384615384616" height="9.360929294793209" fill="#f44336" opacity="0.5"/>
<rect x="131.79386949755448" y="526.7535583969976" width="1.0365384615384616" height="9.246441603002381" fill="#f44336" opacity="0.5"/>
<rect x="133.27749184822886" y="528.1757762235505" width="1.0365384615384616" height="7.8242237764494575" fill="#4CAF50" opacity="0.5"/>
<rect x="134.76111419890324" y="529.64095116575" width="1.0365384615384616" height="6.359048834249961" fill="#f44336" opacity="0.5"/>
<rect x="136.2447365495776" y="528.1665606040657" width="1.0365384615384616" height="7.833439395934306" fill="#4CAF50" opacity="0.5"/>
<rect x="137.72835890025198" y="531.3288013730362" width="1.0365384615384616" height="4.671198626963815" fill="#f44336" opacity="0.5"/>
<rect x="139.21198125092636" y="530.1802413089302" width="1.0365384615384616" height="5.819758691069751" fill="#4CAF50" opacity="0.5"/>
<rect x="140.6956036016007" y="528.2122626328782" width="1.0365384615384616" height="7.787737367121849" fill="#4CAF50" opacity="0.5"/>
<rect x="142.1792259522751" y="530.0143058802594" width="1.0365384615384616" height="5.985694119740629" fill="#f44336" opacity="0.5"/>
<rect x="143.66284830294947" y="533.1328257653719" width="1.0365384615384616" height="2.8671742346281235" fill="#f44336" opacity="0.5"/>
<rect x="145.14647065362385" y="531.782409904683" width="1.0365384615384616" height="4.21759009531695" fill="#f44336" opacity="0.5"/>
<rect x="146.63009300429823" y="528.7170630196692" width="1.0365384615384616" height="7.28293698033076" fill="#f44336" opacity="0.5"/>
<rect x="148.11371535497258" y="532.4495478678598" width="1.0365384615384616" height="3.550452132140208" fill="#4CAF50" opacity="0.5"/>
<rect x="149.59733770564696" y="532.2930025234936" width="1.0365384615384616" height="3.7069974765064444" fill="#4CAF50" opacity="0.5"/>
<rect x="151.08096005632135" y="530.9146451526545" width="1.0365384615384616" height="5.085354847345457" fill="#f44336" opacity="0.5"/>
<rect x="152.5645824069957" y="532.6691796910887" width="1.0365384615384616" height="3.3308203089112567" fill="#f44336" opacity="0.5"/>
<rect x="154.0482047576701" y="532.90402484661" width="1.0365384615384616" height="3.095975153389986" fill="#4CAF50" opacity="0.5"/>
<rect x="155.53182710834446" y="532.5320076957196" width="1.0365384615384616" height="3.467992304280415" fill="#4CAF50" opacity="0.5"/>
<rect x="157.0154494590188" y="532.6975205318267" width="1.0365384615384616" height="3.30247946817326" fill="#4CAF50" opacity="0.5"/>
<rect x="158.49907180969322" y="526.6774219496089" width="1.0365384615384616" height="9.322578050391144" fill="#4CAF50" opacity="0.5"/>
<rect x="159.98269416036757" y="525.6024046225697" width="1.0365384615384616" height="10.39759537743032" fill="#4CAF50" opacity="0.5"/>
<rect x="161.46631651104195" y="522.6918041557794" width="1.0365384615384616" height="13.308195844220563" fill="#4CAF50" opacity="0.5"/>
<rect x="162.94993886171633" y="526.2671388482282" width="1.0365384615384616" height="9.732861151771772" fill="#f44336" opacity="0.5"/>
<rect x="164.43356121239069" y="527.3217748073114" width="1.0365384615384616" height="8.678225192688615" fill="#f44336" opacity="0.5"/>
<rect x="165.9171835630651" y="531.2140073985615" width="1.0365384615384616" height="4.7859926014384655" fill="#4CAF50" opacity="0.5"/>
<rect x="167.40080591373945" y="532.1779061433313" width="1.0365384615384616" height="3.8220938566687437" fill="#4CAF50" opacity="0.5"/>
<rect x="168.88442826441383" y="531.6125005551153" width="1.0365384615384616" height="4.387499444884725" fill="#f44336" opacity="0.5"/>
<rect x="170.3680506150882" y="525.6443498422611" width="1.0365384615384616" height="10.355650157738864" fill="#4CAF50" opacity="0.5"/>
<rect x="171.85167296576256" y="529.0603865231859" width="1.0365384615384616" height="6.939613476814088" fill="#f44336" opacity="0.5"/>
<rect x="173.33529531643697" y="527.0290189625832" width="1.0365384615384616" height="8.970981037416777" fill="#4CAF50" opacity="0.5"/>
<rect x="174.81891766711132" y="519.9896193627989" width="1.0365384615384616" height="16.010380637201138" fill="#4CAF50" opacity="0.5"/>
<rect x="176.30254001778567" y="519.7302948545528" width="1.0365384615384616" height="16.269705145447233" fill="#4CAF50" opacity="0.5"/>
<rect x="177.78616236846008" y="520.3530916145119" width="1.0365384615384616" height="15.646908385488132" fill="#4CAF50" opacity="0.5"/>
<rect x="179.26978471913444" y="527.0316553198611" width="1.0365384615384616" height="8.968344680138898" fill="#f44336" opacity="0.5"/>
<rect x="180.75340706980882" y="527.8817642321194" width="1.0365384615384616" height="8.118235767880606" fill="#f44336" opacity="0.5"/>
<rect x="182.2370294204832" y="527.6811839672196" width="1.0365384615384616" height="8.318816032780433" fill="#4CAF50" opacity="0.5"/>
<rect x="183.72065177115755" y="527.4209910118701" width="1.0365384615384616" height="8.579008988129885" fill="#f44336" opacity="0.5"/>
<rect x="185.20427412183196" y="524.7325734316748" width="1.0365384615384616" height="11.267426568325163" fill="#4CAF50" opacity="0.5"/>
<rect x="186.6878964725063" y="522.2287163689199" width="1.0365384615384616" height="13.77128363108011" fill="#f44336" opacity="0.5"/>
<rect x="188.17151882318066" y="523.7609982348312" width="1.0365384615384616" height="12.239001765168837" fill="#f44336" opacity="0.5"/>
<rect x="189.65514117385507" y="527.6616516613867" width="1.0365384615384616" height="8.338348338613287" fill="#f44336" opacity="0.5"/>
<rect x="191.13876352452942" y="529.711609417795" width="1.0365384615384616" height="6.288390582205011" fill="#4CAF50" opacity="0.5"/>
<rect x="192.62238587520383" y="529.0160724589405" width="1.0365384615384616" height="6.983927541059529" fill="#4CAF50" opacity="0.5"/>
<rect x="194.10600822587818" y="530.5165707116685" width="1.0365384615384616" height="5.483429288331536" fill="#f44336" opacity="0.5"/>
<rect x="195.58963057655254" y="530.9221044929527" width="1.0365384615384616" height="5.0778955070472875" fill="#4CAF50" opacity="0.5"/>
<rect x="197.07325292722695" y="532.2458000972304" width="1.0365384615384616" height="3.754199902769642" fill="#f44336" opacity="0.5"/>
<rect x="198.5568752779013" y="532.573898637467" width="1.0365384615384616" height="3.426101362533018" fill="#4CAF50" opacity="0.5"/>
<rect x="200.04049762857568" y="532.3081305618738" width="1.0365384615384616" height="3.6918694381262185" fill="#f44336" opacity="0.5"/>
<rect x="201.52411997925006" y="532.9505487985738" width="1.0365384615384616" height="3.0494512014262227" fill="#f44336" opacity="0.5"/>
<rect x="203.0077423299244" y="532.6719866361906" width="1.0365384615384616" height="3.3280133638094185" fill="#4CAF50" opacity="0.5"/>
<rect x="204.4913646805988" y="533.0101421040433" width="1.0365384615384616" height="2.989857895956675" fill="#f44336" opacity="0.5"/>
<rect x="205.97498703127317" y="532.8181493852768" width="1.0365384615384616" height="3.181850614723203" fill="#4CAF50" opacity="0.5"/>
<rect x="207.45860938194753" y="531.5449438998679" width="1.0365384615384616" height="4.455056100132083" fill="#f44336" opacity="0.5"/>
<rect x="208.94223173262193" y="530.9176459475563" width="1.0365384615384616" height="5.082354052443748" fill="#f44336" opacity="0.5"/>
<rect x="210.4258540832963" y="532.2548218669153" width="1.0365384615384616" height="3.7451781330846643" fill="#4CAF50" opacity="0.5"/>
<rect x="211.90947643397067" y="533.6769039986084" width="1.0365384615384616" height="2.3230960013916047" fill="#f44336" opacity="0.5"/>
<rect x="213.39309878464505" y="532.7869395675011" width="1.0365384615384616" height="3.213060432498878" fill="#f44336" opacity="0.5"/>
<rect x="214.8767211353194" y="530.9248183901507" width="1.0365384615384616" height="5.075181609849324" fill="#4CAF50" opacity="0.5"/>
<rect x="216.36034348599378" y="530.2254121892911" width="1.0365384615384616" height="5.774587810708908" fill="#4CAF50" opacity="0.5"/>
<rect x="217.84396583666816" y="528.8373274354956" width="1.0365384615384616" height="7.162672564504419" fill="#4CAF50" opacity="0.5"/>
<rect x="219.32758818734254" y="523.6678534060036" width="1.0365384615384616" height="12.332146593996413" fill="#4CAF50" opacity="0.5"/>
<rect x="220.81121053801692" y="514.5525860855631" width="1.0365384615384616" height="21.44741391443688" fill="#4CAF50" opacity="0.5"/>
<rect x="222.29483288869127" y="505.7154195649822" width="1.0365384615384616" height="30.2845804350178" fill="#4CAF50" opacity="0.5"/>
<rect x="223.77845523936566" y="519.222458779896" width="1.0365384615384616" height="16.777541220104013" fill="#f44336" opacity="0.5"/>
<rect x="225.26207759004004" y="521.59397846129" width="1.0365384615384616" height="14.406021538709979" fill="#4CAF50" opacity="0.5"/>
<rect x="226.7456999407144" y="525.3182944789148" width="1.0365384615384616" height="10.681705521085178" fill="#f44336" opacity="0.5"/>
<rect x="228.22932229138877" y="525.374584583795" width="1.0365384615384616" height="10.625415416204987" fill="#4CAF50" opacity="0.5"/>
<rect x="229.71294464206315" y="528.5333360563682" width="1.0365384615384616" height="7.466663943631829" fill="#f44336" opacity="0.5"/>
<rect x="231.19656699273753" y="522.0151132744661" width="1.0365384615384616" height="13.984886725533897" fill="#4CAF50" opacity="0.5"/>
<rect x="232.68018934341188" y="523.9723953185626" width="1.0365384615384616" height="12.027604681437424" fill="#f44336" opacity="0.5"/>
<rect x="234.16381169408626" y="526.6437967633271" width="1.0365384615384616" height="9.356203236672854" fill="#4CAF50" opacity="0.5"/>
<rect x="235.64743404476064" y="525.1747254401506" width="1.0365384615384616" height="10.82527455984939" fill="#4CAF50" opacity="0.5"/>
<rect x="237.13105639543502" y="528.0385887201974" width="1.0365384615384616" height="7.961411279802633" fill="#f44336" opacity="0.5"/>
<rect x="238.6146787461094" y="528.0740632335697" width="1.0365384615384616" height="7.9259367664302545" fill="#f44336" opacity="0.5"/>
<rect x="240.09830109678376" y="527.9907116966306" width="1.0365384615384616" height="8.00928830336943" fill="#4CAF50" opacity="0.5"/>
<rect x="241.58192344745814" y="514.0000637550453" width="1.0365384615384616" height="21.99993624495471" fill="#4CAF50" opacity="0.5"/>
<rect x="243.06554579813252" y="450.261400502537" width="1.0365384615384616" height="85.73859949746299" fill="#4CAF50" opacity="0.5"/>
<rect x="244.54916814880687" y="463.22216322748403" width="1.0365384615384616" height="72.77783677251597" fill="#4CAF50" opacity="0.5"/>
<rect x="246.03279049948125" y="444.78772573613384" width="1.0365384615384616" height="91.21227426386616" fill="#f44336" opacity="0.5"/>
<rect x="247.51641285015563" y="458.42843214203555" width="1.0365384615384616" height="77.57156785796445" fill="#4CAF50" opacity="0.5"/>
<rect x="249.00003520083" y="482.90949074521893" width="1.0365384615384616" height="53.09050925478107" fill="#f44336" opacity="0.5"/>
<rect x="250.4836575515044" y="509.17446376250166" width="1.0365384615384616" height="26.82553623749834" fill="#f44336" opacity="0.5"/>
<rect x="251.96727990217875" y="505.8638077097707" width="1.0365384615384616" height="30.136192290229303" fill="#4CAF50" opacity="0.5"/>
<rect x="253.45090225285313" y="507.66264855845844" width="1.0365384615384616" height="28.337351441541557" fill="#f44336" opacity="0.5"/>
<rect x="254.9345246035275" y="511.86899536538414" width="1.0365384615384616" height="24.131004634615863" fill="#4CAF50" opacity="0.5"/>
<rect x="256.41814695420186" y="509.11219145279813" width="1.0365384615384616" height="26.88780854720187" fill="#f44336" opacity="0.5"/>
<rect x="257.90176930487627" y="514.9659707837413" width="1.0365384615384616" height="21.03402921625866" fill="#4CAF50" opacity="0.5"/>
<rect x="259.38539165555056" y="512.9321374536846" width="1.0365384615384616" height="23.067862546315382" fill="#f44336" opacity="0.5"/>
<rect x="260.869014006225" y="521.67624443935" width="1.0365384615384616" height="14.323755560650056" fill="#4CAF50" opacity="0.5"/>
<rect x="262.3526363568994" y="524.158103426818" width="1.0365384615384616" height="11.841896573181998" fill="#f44336" opacity="0.5"/>
<rect x="263.83625870757373" y="523.3340479276594" width="1.0365384615384616" height="12.665952072340588" fill="#f44336" opacity="0.5"/>
<rect x="265.3198810582481" y="523.1192584724307" width="1.0365384615384616" height="12.880741527569285" fill="#f44336" opacity="0.5"/>
<rect x="266.8035034089225" y="526.2540074627865" width="1.0365384615384616" height="9.74599253721351" fill="#4CAF50" opacity="0.5"/>
<rect x="268.28712575959685" y="526.3511262125108" width="1.0365384615384616" height="9.648873787489151" fill="#4CAF50" opacity="0.5"/>
<rect x="269.7707481102712" y="527.6996578531451" width="1.0365384615384616" height="8.30034214685486" fill="#4CAF50" opacity="0.5"/>
<rect x="271.2543704609456" y="513.115329391538" width="1.0365384615384616" height="22.884670608461988" fill="#f44336" opacity="0.5"/>
<rect x="272.73799281161996" y="513.0371265052828" width="1.0365384615384616" height="22.9628734947172" fill="#4CAF50" opacity="0.5"/>
<rect x="274.2216151622943" y="518.3452884355788" width="1.0365384615384616" height="17.654711564421177" fill="#f44336" opacity="0.5"/>
<rect x="275.7052375129687" y="521.2995361233031" width="1.0365384615384616" height="14.700463876696858" fill="#4CAF50" opacity="0.5"/>
<rect x="277.18885986364313" y="517.8928778956949" width="1.0365384615384616" height="18.107122104305063" fill="#4CAF50" opacity="0.5"/>
<rect x="278.6724822143174" y="517.3222848868352" width="1.0365384615384616" height="18.677715113164822" fill="#4CAF50" opacity="0.5"/>
<rect x="280.15610456499184" y="518.7097221822992" width="1.0365384615384616" height="17.290277817700826" fill="#f44336" opacity="0.5"/>
<rect x="281.63972691566624" y="486.83429397983974" width="1.0365384615384616" height="49.16570602016026" fill="#4CAF50" opacity="0.5"/>
<rect x="283.12334926634054" y="507.3122689222272" width="1.0365384615384616" height="28.68773107777281" fill="#f44336" opacity="0.5"/>
<rect x="284.60697161701495" y="520.1285282523747" width="1.0365384615384616" height="15.871471747625264" fill="#f44336" opacity="0.5"/>
<rect x="286.09059396768936" y="518.5624932593138" width="1.0365384615384616" height="17.437506740686217" fill="#4CAF50" opacity="0.5"/>
<rect x="287.5742163183637" y="523.3138875484751" width="1.0365384615384616" height="12.686112451524878" fill="#f44336" opacity="0.5"/>
<rect x="289.05783866903806" y="518.2162193618433" width="1.0365384615384616" height="17.783780638156713" fill="#4CAF50" opacity="0.5"/>
<rect x="290.5414610197125" y="524.0105837291328" width="1.0365384615384616" height="11.989416270867196" fill="#f44336" opacity="0.5"/>
<rect x="292.0250833703868" y="524.5046060670522" width="1.0365384615384616" height="11.495393932947763" fill="#4CAF50" opacity="0.5"/>
<rect x="293.5087057210612" y="527.640708129011" width="1.0365384615384616" height="8.359291870988955" fill="#f44336" opacity="0.5"/>
<rect x="294.9923280717356" y="524.5137286386332" width="1.0365384615384616" height="11.48627136136679" fill="#f44336" opacity="0.5"/>
<rect x="296.47595042241" y="523.2570314021795" width="1.0365384615384616" height="12.74296859782055" fill="#f44336" opacity="0.5"/>
<rect x="297.9595727730843" y="526.4160736494523" width="1.0365384615384616" height="9.5839263505477" fill="#4CAF50" opacity="0.5"/>
<rect x="299.4431951237587" y="521.1048488923187" width="1.0365384615384616" height="14.895151107681272" fill="#4CAF50" opacity="0.5"/>
<rect x="300.9268174744331" y="481.4183127908677" width="1.0365384615384616" height="54.581687209132326" fill="#4CAF50" opacity="0.5"/>
<rect x="302.4104398251074" y="497.767558386189" width="1.0365384615384616" height="38.23244161381098" fill="#f44336" opacity="0.5"/>
<rect x="303.8940621757818" y="506.5517186174992" width="1.0365384615384616" height="29.448281382500795" fill="#4CAF50" opacity="0.5"/>
<rect x="305.3776845264562" y="516.6680805823044" width="1.0365384615384616" height="19.331919417695644" fill="#f44336" opacity="0.5"/>
<rect x="306.8613068771305" y="510.9348641958793" width="1.0365384615384616" height="25.0651358041207" fill="#4CAF50" opacity="0.5"/>
<rect x="308.3449292278049" y="514.14810684719" width="1.0365384615384616" height="21.85189315281002" fill="#f44336" opacity="0.5"/>
<rect x="309.82855157847933" y="522.486827377419" width="1.0365384615384616" height="13.51317262258101" fill="#4CAF50" opacity="0.5"/>
<rect x="311.31217392915363" y="517.0983457210535" width="1.0365384615384616" height="18.901654278946467" fill="#f44336" opacity="0.5"/>
<rect x="312.79579627982804" y="508.55203144016616" width="1.0365384615384616" height="27.44796855983384" fill="#4CAF50" opacity="0.5"/>
<rect x="314.27941863050245" y="507.9893940270921" width="1.0365384615384616" height="28.01060597290791" fill="#f44336" opacity="0.5"/>
<rect x="315.76304098117686" y="518.6016703038632" width="1.0365384615384616" height="17.398329696136784" fill="#4CAF50" opacity="0.5"/>
<rect x="317.24666333185115" y="523.6290097831098" width="1.0365384615384616" height="12.370990216890164" fill="#4CAF50" opacity="0.5"/>
<rect x="318.73028568252556" y="524.9361234755083" width="1.0365384615384616" height="11.063876524491661" fill="#f44336" opacity="0.5"/>
<rect x="320.21390803319997" y="526.9047612408799" width="1.0365384615384616" height="9.095238759120093" fill="#4CAF50" opacity="0.5"/>
<rect x="321.69753038387427" y="526.2708103634375" width="1.0365384615384616" height="9.729189636562523" fill="#f44336" opacity="0.5"/>
<rect x="323.1811527345487" y="527.9501156715462" width="1.0365384615384616" height="8.0498843284538" fill="#4CAF50" opacity="0.5"/>
<rect x="324.6647750852231" y="526.6251522895776" width="1.0365384615384616" height="9.374847710422387" fill="#4CAF50" opacity="0.5"/>
<rect x="326.1483974358974" y="529.4527230100965" width="1.0365384615384616" height="6.54727698990348" fill="#f44336" opacity="0.5"/>
<rect x="327.6320197865718" y="524.9100933243847" width="1.0365384615384616" height="11.089906675615339" fill="#4CAF50" opacity="0.5"/>
<rect x="329.1156421372462" y="528.8629931489957" width="1.0365384615384616" height="7.137006851004344" fill="#f44336" opacity="0.5"/>
<rect x="330.59926448792055" y="528.058167549982" width="1.0365384615384616" height="7.941832450017955" fill="#4CAF50" opacity="0.5"/>
<rect x="332.0828868385949" y="528.8671027647524" width="1.0365384615384616" height="7.132897235247583" fill="#f44336" opacity="0.5"/>
<rect x="333.5665091892693" y="530.7224391991082" width="1.0365384615384616" height="5.27756080089182" fill="#f44336" opacity="0.5"/>
<rect x="335.05013153994366" y="529.2975423683214" width="1.0365384615384616" height="6.702457631678612" fill="#4CAF50" opacity="0.5"/>
<rect x="336.533753890618" y="523.9634782277695" width="1.0365384615384616" height="12.036521772230458" fill="#4CAF50" opacity="0.5"/>
<rect x="338.0173762412924" y="524.0371411517121" width="1.0365384615384616" height="11.962858848287851" fill="#f44336" opacity="0.5"/>
<rect x="339.5009985919668" y="527.2137578218394" width="1.0365384615384616" height="8.786242178160592" fill="#4CAF50" opacity="0.5"/>
<rect x="340.98462094264113" y="527.4992985770172" width="1.0365384615384616" height="8.500701422982843" fill="#4CAF50" opacity="0.5"/>
<rect x="342.46824329331554" y="523.210026702712" width="1.0365384615384616" height="12.789973297288043" fill="#4CAF50" opacity="0.5"/>
<rect x="343.95186564398995" y="527.5442756075781" width="1.0365384615384616" height="8.455724392421871" fill="#4CAF50" opacity="0.5"/>
<rect x="345.43548799466424" y="528.7021365850808" width="1.0365384615384616" height="7.29786341491922" fill="#f44336" opacity="0.5"/>
<rect x="346.91911034533865" y="525.7109682644772" width="1.0365384615384616" height="10.289031735522826" fill="#4CAF50" opacity="0.5"/>
<rect x="348.40273269601306" y="527.2472279282813" width="1.0365384615384616" height="8.75277207171871" fill="#f44336" opacity="0.5"/>
<rect x="349.8863550466874" y="528.5481267960968" width="1.0365384615384616" height="7.451873203903233" fill="#4CAF50" opacity="0.5"/>
<rect x="351.36997739736177" y="472.5612340188462" width="1.0365384615384616" height="63.43876598115378" fill="#4CAF50" opacity="0.5"/>
<rect x="352.8535997480362" y="474.41783047690103" width="1.0365384615384616" height="61.58216952309897" fill="#f44336" opacity="0.5"/>
<rect x="354.3372220987105" y="498.51126702030615" width="1.0365384615384616" height="37.48873297969385" fill="#4CAF50" opacity="0.5"/>
<rect x="355.8208444493849" y="484.8808152688164" width="1.0365384615384616" height="51.11918473118362" fill="#4CAF50" opacity="0.5"/>
<rect x="357.3044668000593" y="501.8494574986076" width="1.0365384615384616" height="34.15054250139241" fill="#f44336" opacity="0.5"/>
<rect x="358.78808915073364" y="507.59444444487957" width="1.0365384615384616" height="28.40555555512043" fill="#4CAF50" opacity="0.5"/>
<rect x="360.271711501408" y="518.1725798949013" width="1.0365384615384616" height="17.827420105098668" fill="#f44336" opacity="0.5"/>
<rect x="361.7553338520824" y="518.2113731168471" width="1.0365384615384616" height="17.788626883152915" fill="#f44336" opacity="0.5"/>
<rect x="363.23895620275675" y="514.9221568519795" width="1.0365384615384616" height="21.07784314802052" fill="#f44336" opacity="0.5"/>
<rect x="364.7225785534311" y="523.4633457441588" width="1.0365384615384616" height="12.5366542558412" fill="#f44336" opacity="0.5"/>
<rect x="366.2062009041055" y="524.8633289986691" width="1.0365384615384616" height="11.13667100133091" fill="#f44336" opacity="0.5"/>
<rect x="367.68982325477987" y="522.7212887103365" width="1.0365384615384616" height="13.278711289663534" fill="#4CAF50" opacity="0.5"/>
<rect x="369.1734456054543" y="524.422708403612" width="1.0365384615384616" height="11.577291596388022" fill="#4CAF50" opacity="0.5"/>
<rect x="370.6570679561286" y="505.53146385891745" width="1.0365384615384616" height="30.468536141082552" fill="#4CAF50" opacity="0.5"/>
<rect x="372.14069030680304" y="510.711650028349" width="1.0365384615384616" height="25.288349971650973" fill="#f44336" opacity="0.5"/>
<rect x="373.6243126574774" y="519.5504875342046" width="1.0365384615384616" height="16.44951246579535" fill="#4CAF50" opacity="0.5"/>
<rect x="375.10793500815174" y="522.2855841462036" width="1.0365384615384616" height="13.714415853796368" fill="#f44336" opacity="0.5"/>
<rect x="376.59155735882615" y="524.3846595648977" width="1.0365384615384616" height="11.615340435102326" fill="#f44336" opacity="0.5"/>
<rect x="378.0751797095005" y="483.52066427117916" width="1.0365384615384616" height="52.47933572882084" fill="#4CAF50" opacity="0.5"/>
<rect x="379.55880206017486" y="437.0" width="1.0365384615384616" height="99.0" fill="#4CAF50" opacity="0.5"/>
<rect x="381.04242441084926" y="460.4729194570921" width="1.0365384615384616" height="75.52708054290792" fill="#4CAF50" opacity="0.5"/>
<rect x="382.5260467615236" y="479.3959863849299" width="1.0365384615384616" height="56.60401361507007" fill="#4CAF50" opacity="0.5"/>
<rect x="384.00966911219797" y="479.6795343641652" width="1.0365384615384616" height="56.32046563583481" fill="#4CAF50" opacity="0.5"/>
<rect x="385.4932914628724" y="489.3105196921242" width="1.0365384615384616" height="46.68948030787578" fill="#f44336" opacity="0.5"/>
<rect x="386.97691381354673" y="501.48774928007316" width="1.0365384615384616" height="34.51225071992684" fill="#f44336" opacity="0.5"/>
<rect x="388.46053616422114" y="507.4596412940645" width="1.0365384615384616" height="28.54035870593549" fill="#f44336" opacity="0.5"/>
<rect x="389.9441585148955" y="501.77716703124787" width="1.0365384615384616" height="34.22283296875213" fill="#4CAF50" opacity="0.5"/>
<rect x="391.42778086556984" y="511.2665334494291" width="1.0365384615384616" height="24.73346655057088" fill="#f44336" opacity="0.5"/>
<rect x="392.91140321624425" y="516.4957636182226" width="1.0365384615384616" height="19.504236381777446" fill="#f44336" opacity="0.5"/>
<rect x="394.3950255669186" y="511.0768010193288" width="1.0365384615384616" height="24.923198980671202" fill="#f44336" opacity="0.5"/>
<rect x="395.87864791759296" y="513.3639650218204" width="1.0365384615384616" height="22.636034978179623" fill="#4CAF50" opacity="0.5"/>
<rect x="397.36227026826737" y="520.7618471794698" width="1.0365384615384616" height="15.238152820530217" fill="#f44336" opacity="0.5"/>
<rect x="398.8458926189417" y="515.477703239375" width="1.0365384615384616" height="20.522296760624954" fill="#4CAF50" opacity="0.5"/>
<rect x="400.3295149696161" y="501.5333970309416" width="1.0365384615384616" height="34.466602969058385" fill="#4CAF50" opacity="0.5"/>
<rect x="401.8131373202905" y="498.6211061938966" width="1.0365384615384616" height="37.378893806103406" fill="#f44336" opacity="0.5"/>
<rect x="403.29675967096483" y="505.22120337726295" width="1.0365384615384616" height="30.778796622737048" fill="#4CAF50" opacity="0.5"/>
<rect x="404.78038202163924" y="506.8075770913241" width="1.0365384615384616" height="29.192422908675894" fill="#4CAF50" opacity="0.5"/>
<rect x="406.2640043723136" y="513.9561761603594" width="1.0365384615384616" height="22.043823839640595" fill="#4CAF50" opacity="0.5"/>
<rect x="407.747626722988" y="514.7701514699258" width="1.0365384615384616" height="21.22984853007415" fill="#4CAF50" opacity="0.5"/>
<rect x="409.23124907366235" y="501.5126240863898" width="1.0365384615384616" height="34.48737591361021" fill="#f44336" opacity="0.5"/>
<rect x="410.7148714243367" y="516.352601664038" width="1.0365384615384616" height="19.647398335961952" fill="#f44336" opacity="0.5"/>
<rect x="412.1984937750111" y="514.5293938955092" width="1.0365384615384616" height="21.4706061044908" fill="#f44336" opacity="0.5"/>
<rect x="413.68211612568547" y="521.8119199142643" width="1.0365384615384616" height="14.188080085735692" fill="#4CAF50" opacity="0.5"/>
<rect x="415.1657384763598" y="521.601612266408" width="1.0365384615384616" height="14.398387733592017" fill="#4CAF50" opacity="0.5"/>
<rect x="416.64936082703423" y="518.7139519849319" width="1.0365384615384616" height="17.286048015068104" fill="#4CAF50" opacity="0.5"/>
<rect x="418.1329831777086" y="524.2817602141417" width="1.0365384615384616" height="11.718239785858259" fill="#f44336" opacity="0.5"/>
<rect x="419.61660552838293" y="522.0689841338442" width="1.0365384615384616" height="13.931015866155803" fill="#4CAF50" opacity="0.5"/>
<rect x="421.10022787905734" y="524.8673998444658" width="1.0365384615384616" height="11.132600155534192" fill="#f44336" opacity="0.5"/>
<rect x="422.5838502297317" y="524.0776557598806" width="1.0365384615384616" height="11.9223442401194" fill="#f44336" opacity="0.5"/>
<rect x="424.06747258040605" y="515.5833513802928" width="1.0365384615384616" height="20.41664861970719" fill="#4CAF50" opacity="0.5"/>
<rect x="425.55109493108046" y="525.4320532954583" width="1.0365384615384616" height="10.567946704541669" fill="#4CAF50" opacity="0.5"/>
<rect x="427.03471728175487" y="523.2790837554103" width="1.0365384615384616" height="12.720916244589716" fill="#4CAF50" opacity="0.5"/>
<rect x="428.5183396324292" y="523.4112544259434" width="1.0365384615384616" height="12.588745574056588" fill="#4CAF50" opacity="0.5"/>
<rect x="430.00196198310357" y="523.917745182989" width="1.0365384615384616" height="12.082254817010948" fill="#f44336" opacity="0.5"/>
<rect x="431.485584333778" y="518.9557485942756" width="1.0365384615384616" height="17.044251405724367" fill="#4CAF50" opacity="0.5"/>
<rect x="432.96920668445233" y="523.7833917637097" width="1.0365384615384616" height="12.216608236290313" fill="#f44336" opacity="0.5"/>
<rect x="434.4528290351267" y="522.782351397289" width="1.0365384615384616" height="13.217648602711051" fill="#4CAF50" opacity="0.5"/>
<rect x="435.9364513858011" y="526.2689338973748" width="1.0365384615384616" height="9.731066102625164" fill="#f44336" opacity="0.5"/>
<rect x="437.42007373647544" y="526.7120745398299" width="1.0365384615384616" height="9.287925460170072" fill="#f44336" opacity="0.5"/>
<rect x="438.9036960871498" y="526.0097567149767" width="1.0365384615384616" height="9.990243285023325" fill="#f44336" opacity="0.5"/>
<rect x="440.3873184378242" y="516.5686899129257" width="1.0365384615384616" height="19.43131008707428" fill="#f44336" opacity="0.5"/>
<rect x="441.8709407884986" y="521.4190057549501" width="1.0365384615384616" height="14.580994245049851" fill="#4CAF50" opacity="0.5"/>
<rect x="443.3545631391729" y="514.4574717427693" width="1.0365384615384616" height="21.542528257230742" fill="#4CAF50" opacity="0.5"/>
<rect x="444.8381854898473" y="518.1260792049135" width="1.0365384615384616" height="17.87392079508652" fill="#f44336" opacity="0.5"/>
<rect x="446.3218078405217" y="524.5608845409445" width="1.0365384615384616" height="11.439115459055529" fill="#f44336" opacity="0.5"/>
<rect x="447.805430191196" y="526.9299617148604" width="1.0365384615384616" height="9.070038285139617" fill="#f44336" opacity="0.5"/>
<rect x="449.28905254187043" y="528.9680985104737" width="1.0365384615384616" height="7.031901489526263" fill="#f44336" opacity="0.5"/>
<rect x="450.77267489254484" y="528.4795970148541" width="1.0365384615384616" height="7.520402985145893" fill="#f44336" opacity="0.5"/>
<rect x="452.2562972432192" y="527.5194589562014" width="1.0365384615384616" height="8.480541043798553" fill="#f44336" opacity="0.5"/>
<rect x="453.73991959389355" y="528.194443959276" width="1.0365384615384616" height="7.805556040724014" fill="#4CAF50" opacity="0.5"/>
<rect x="455.22354194456796" y="529.2505376688539" width="1.0365384615384616" height="6.7494623311461055" fill="#f44336" opacity="0.5"/>
<rect x="456.7071642952423" y="527.6567046144946" width="1.0365384615384616" height="8.343295385505371" fill="#4CAF50" opacity="0.5"/>
<rect x="458.1907866459167" y="527.218216367236" width="1.0365384615384616" height="8.781783632764018" fill="#4CAF50" opacity="0.5"/>
<rect x="459.674408996591" y="529.6927090623097" width="1.0365384615384616" height="6.307290937690254" fill="#4CAF50" opacity="0.5"/>
<rect x="461.1580313472654" y="530.2349069524877" width="1.0365384615384616" height="5.765093047512323" fill="#4CAF50" opacity="0.5"/>
<rect x="462.6416536979398" y="528.8632141377674" width="1.0365384615384616" height="7.136785862232614" fill="#4CAF50" opacity="0.5"/>
<rect x="464.1252760486142" y="517.7397404308102" width="1.0365384615384616" height="18.26025956918977" fill="#4CAF50" opacity="0.5"/>
<rect x="465.6088983992886" y="525.9479380138048" width="1.0365384615384616" height="10.052061986195213" fill="#4CAF50" opacity="0.5"/>
<rect x="467.09252074996294" y="528.1194240867344" width="1.0365384615384616" height="7.880575913265602" fill="#f44336" opacity="0.5"/>
<rect x="468.57614310063724" y="529.697555307306" width="1.0365384615384616" height="6.302444692694053" fill="#f44336" opacity="0.5"/>
<rect x="470.05976545131165" y="524.1367799488346" width="1.0365384615384616" height="11.8632200511654" fill="#4CAF50" opacity="0.5"/>
<rect x="471.54338780198606" y="529.11426125956" width="1.0365384615384616" height="6.885738740440047" fill="#f44336" opacity="0.5"/>
<rect x="473.0270101526604" y="529.5149487958481" width="1.0365384615384616" height="6.485051204151887" fill="#f44336" opacity="0.5"/>
<rect x="474.5106325033348" y="526.3818862987509" width="1.0365384615384616" height="9.618113701249058" fill="#f44336" opacity="0.5"/>
<rect x="475.99425485400917" y="529.3158650514031" width="1.0365384615384616" height="6.68413494859692" fill="#f44336" opacity="0.5"/>
<rect x="477.4778772046836" y="526.6521749516766" width="1.0365384615384616" height="9.347825048323443" fill="#4CAF50" opacity="0.5"/>
<rect x="478.9614995553579" y="525.1781410736239" width="1.0365384615384616" height="10.82185892637608" fill="#4CAF50" opacity="0.5"/>
<rect x="480.4451219060323" y="521.9307692265518" width="1.0365384615384616" height="14.069230773448226" fill="#4CAF50" opacity="0.5"/>
<rect x="481.92874425670664" y="529.7615257412562" width="1.0365384615384616" height="6.2384742587438495" fill="#f44336" opacity="0.5"/>
<rect x="483.41236660738105" y="526.3862362882596" width="1.0365384615384616" height="9.613763711740376" fill="#4CAF50" opacity="0.5"/>
<rect x="484.89598895805545" y="520.9082115323478" width="1.0365384615384616" height="15.091788467652236" fill="#4CAF50" opacity="0.5"/>
<rect x="486.3796113087298" y="524.6487256392481" width="1.0365384615384616" height="11.351274360751859" fill="#f44336" opacity="0.5"/>
<rect x="487.8632336594041" y="527.8307817347591" width="1.0365384615384616" height="8.169218265240943" fill="#f44336" opacity="0.5"/>
<rect x="489.3468560100785" y="528.70310583408" width="1.0365384615384616" height="7.29689416591998" fill="#4CAF50" opacity="0.5"/>
<rect x="490.8304783607529" y="527.2302350548266" width="1.0365384615384616" height="8.769764945173392" fill="#f44336" opacity="0.5"/>
<rect x="492.3141007114273" y="523.2506925137244" width="1.0365384615384616" height="12.749307486275598" fill="#4CAF50" opacity="0.5"/>
<rect x="493.7977230621017" y="524.0163992231282" width="1.0365384615384616" height="11.983600776871754" fill="#4CAF50" opacity="0.5"/>
<rect x="495.28134541277603" y="515.0471744648981" width="1.0365384615384616" height="20.95282553510185" fill="#4CAF50" opacity="0.5"/>
<rect x="496.7649677634504" y="510.43019950394813" width="1.0365384615384616" height="25.56980049605187" fill="#4CAF50" opacity="0.5"/>
<rect x="498.24859011412474" y="519.5111360248353" width="1.0365384615384616" height="16.48886397516469" fill="#f44336" opacity="0.5"/>
<rect x="499.73221246479915" y="524.8809305604954" width="1.0365384615384616" height="11.119069439504642" fill="#f44336" opacity="0.5"/>
<rect x="501.2158348154735" y="525.2324190175817" width="1.0365384615384616" height="10.76758098241828" fill="#4CAF50" opacity="0.5"/>
<rect x="502.6994571661479" y="527.7869716799933" width="1.0365384615384616" height="8.213028320006742" fill="#f44336" opacity="0.5"/>
<rect x="504.1830795168223" y="527.4392051390639" width="1.0365384615384616" height="8.560794860936085" fill="#f44336" opacity="0.5"/>
<rect x="505.66670186749667" y="529.4408981723058" width="1.0365384615384616" height="6.559101827694235" fill="#4CAF50" opacity="0.5"/>
<rect x="507.15032421817097" y="528.5080929354318" width="1.0365384615384616" height="7.491907064568181" fill="#4CAF50" opacity="0.5"/>
<rect x="508.6339465688454" y="521.3912852335718" width="1.0365384615384616" height="14.608714766428193" fill="#4CAF50" opacity="0.5"/>
<rect x="510.1175689195198" y="526.8595942375151" width="1.0365384615384616" height="9.140405762484875" fill="#f44336" opacity="0.5"/>
<rect x="511.6011912701942" y="527.5545341389861" width="1.0365384615384616" height="8.445465861013872" fill="#f44336" opacity="0.5"/>
<rect x="513.0848136208685" y="529.8530228467849" width="1.0365384615384616" height="6.146977153215062" fill="#4CAF50" opacity="0.5"/>
<rect x="514.568435971543" y="527.5360990230205" width="1.0365384615384616" height="8.463900976979517" fill="#4CAF50" opacity="0.5"/>
<rect x="516.0520583222174" y="523.2361537787357" width="1.0365384615384616" height="12.763846221264316" fill="#4CAF50" opacity="0.5"/>
<rect x="517.5356806728917" y="528.3774110313616" width="1.0365384615384616" height="7.622588968638411" fill="#f44336" opacity="0.5"/>
<rect x="519.0193030235661" y="517.4224044314612" width="1.0365384615384616" height="18.577595568538754" fill="#4CAF50" opacity="0.5"/>
<rect x="520.5029253742405" y="473.1522083956622" width="1.0365384615384616" height="62.84779160433777" fill="#4CAF50" opacity="0.5"/>
<rect x="521.9865477249148" y="491.32325440996544" width="1.0365384615384616" height="44.67674559003456" fill="#4CAF50" opacity="0.5"/>
<rect x="523.4701700755893" y="478.71273174939375" width="1.0365384615384616" height="57.287268250606246" fill="#4CAF50" opacity="0.5"/>
<rect x="524.9537924262636" y="493.9809041499286" width="1.0365384615384616" height="42.01909585007138" fill="#f44336" opacity="0.5"/>
<rect x="526.4374147769379" y="504.93034726057334" width="1.0365384615384616" height="31.069652739426658" fill="#f44336" opacity="0.5"/>
<rect x="527.9210371276123" y="516.9080201105656" width="1.0365384615384616" height="19.091979889434356" fill="#f44336" opacity="0.5"/>
<rect x="529.4046594782867" y="518.0655786823805" width="1.0365384615384616" height="17.934421317619467" fill="#4CAF50" opacity="0.5"/>
<rect x="530.888281828961" y="522.1936993410751" width="1.0365384615384616" height="13.806300658924897" fill="#f44336" opacity="0.5"/>
<rect x="532.3719041796355" y="515.7095475999946" width="1.0365384615384616" height="20.290452400005393" fill="#f44336" opacity="0.5"/>
<rect x="533.8555265303098" y="512.777352265501" width="1.0365384615384616" height="23.22264773449899" fill="#f44336" opacity="0.5"/>
<rect x="535.3391488809841" y="518.5157677035581" width="1.0365384615384616" height="17.48423229644186" fill="#4CAF50" opacity="0.5"/>
<rect x="536.8227712316585" y="520.0568115804225" width="1.0365384615384616" height="15.943188419577496" fill="#f44336" opacity="0.5"/>
<rect x="538.3063935823329" y="515.2088800909363" width="1.0365384615384616" height="20.791119909063696" fill="#4CAF50" opacity="0.5"/>
<rect x="539.7900159330072" y="523.0518685280111" width="1.0365384615384616" height="12.948131471988859" fill="#f44336" opacity="0.5"/>
<rect x="541.2736382836817" y="526.1165291847335" width="1.0365384615384616" height="9.883470815266492" fill="#f44336" opacity="0.5"/>
<rect x="542.757260634356" y="526.8230613042356" width="1.0365384615384616" height="9.17693869576442" fill="#4CAF50" opacity="0.5"/>
<rect x="544.2408829850303" y="522.5239961380421" width="1.0365384615384616" height="13.476003861957906" fill="#4CAF50" opacity="0.5"/>
<rect x="545.7245053357047" y="524.6466049224377" width="1.0365384615384616" height="11.353395077562254" fill="#f44336" opacity="0.5"/>
<rect x="547.2081276863792" y="514.8766409189749" width="1.0365384615384616" height="21.123359081025114" fill="#f44336" opacity="0.5"/>
<rect x="548.6917500370536" y="518.9667515089151" width="1.0365384615384616" height="17.03324849108492" fill="#f44336" opacity="0.5"/>
<rect x="550.175372387728" y="483.32255365272937" width="1.0365384615384616" height="52.67744634727063" fill="#4CAF50" opacity="0.5"/>
<rect x="551.6589947384023" y="483.8000367257257" width="1.0365384615384616" height="52.199963274274296" fill="#4CAF50" opacity="0.5"/>
<rect x="553.1426170890766" y="506.0727080080801" width="1.0365384615384616" height="29.9272919919199" fill="#f44336" opacity="0.5"/>
<rect x="554.6262394397511" y="514.7992173089152" width="1.0365384615384616" height="21.200782691084783" fill="#f44336" opacity="0.5"/>
<rect x="556.1098617904254" y="513.7902407316886" width="1.0365384615384616" height="22.20975926831136" fill="#f44336" opacity="0.5"/>
<rect x="557.5934841410998" y="519.2873829548615" width="1.0365384615384616" height="16.712617045138472" fill="#4CAF50" opacity="0.5"/>
<rect x="559.0771064917742" y="517.228736850424" width="1.0365384615384616" height="18.771263149576043" fill="#4CAF50" opacity="0.5"/>
<rect x="560.5607288424485" y="497.01435111187936" width="1.0365384615384616" height="38.985648888120636" fill="#4CAF50" opacity="0.5"/>
<rect x="562.044351193123" y="506.0701608217101" width="1.0365384615384616" height="29.92983917828991" fill="#f44336" opacity="0.5"/>
<rect x="563.5279735437973" y="517.5816016410893" width="1.0365384615384616" height="18.418398358910736" fill="#f44336" opacity="0.5"/>
<rect x="565.0115958944716" y="512.2640573804806" width="1.0365384615384616" height="23.735942619519392" fill="#4CAF50" opacity="0.5"/>
<rect x="566.495218245146" y="519.4326733798484" width="1.0365384615384616" height="16.56732662015156" fill="#f44336" opacity="0.5"/>
<rect x="567.9788405958204" y="521.1771277286905" width="1.0365384615384616" height="14.822872271309507" fill="#4CAF50" opacity="0.5"/>
<rect x="569.4624629464947" y="524.1789190183258" width="1.0365384615384616" height="11.821080981674186" fill="#f44336" opacity="0.5"/>
<rect x="570.9460852971692" y="520.0111250595941" width="1.0365384615384616" height="15.988874940405935" fill="#f44336" opacity="0.5"/>
<rect x="572.4297076478435" y="523.8314936530443" width="1.0365384615384616" height="12.168506346955724" fill="#4CAF50" opacity="0.5"/>
<rect x="573.9133299985178" y="525.9640818251362" width="1.0365384615384616" height="10.03591817486381" fill="#4CAF50" opacity="0.5"/>
<rect x="575.3969523491922" y="524.8555052207471" width="1.0365384615384616" height="11.14449477925291" fill="#f44336" opacity="0.5"/>
<rect x="576.8805746998667" y="528.7027181344804" width="1.0365384615384616" height="7.297281865519608" fill="#4CAF50" opacity="0.5"/>
<rect x="578.364197050541" y="528.2345708678448" width="1.0365384615384616" height="7.765429132155191" fill="#f44336" opacity="0.5"/>
<rect x="579.8478194012155" y="528.049250459189" width="1.0365384615384616" height="7.950749540810989" fill="#f44336" opacity="0.5"/>
<rect x="581.3314417518898" y="527.7941518765796" width="1.0365384615384616" height="8.205848123420424" fill="#4CAF50" opacity="0.5"/>
<rect x="582.8150641025641" y="529.1544889700247" width="1.0365384615384616" height="6.845511029975341" fill="#f44336" opacity="0.5"/>
<rect x="584.2986864532385" y="522.3760189548292" width="1.0365384615384616" height="13.623981045170808" fill="#f44336" opacity="0.5"/>
<rect x="585.7823088039129" y="525.3305070163053" width="1.0365384615384616" height="10.669492983694681" fill="#4CAF50" opacity="0.5"/>
<rect x="587.2659311545873" y="523.9018339914174" width="1.0365384615384616" height="12.098166008582552" fill="#4CAF50" opacity="0.5"/>
<rect x="588.7495535052617" y="516.8070243648442" width="1.0365384615384616" height="19.19297563515579" fill="#4CAF50" opacity="0.5"/>
<rect x="590.233175855936" y="465.67579768409405" width="1.0365384615384616" height="70.32420231590595" fill="#4CAF50" opacity="0.5"/>
<rect x="591.7167982066104" y="440.37106740435587" width="1.0365384615384616" height="95.62893259564413" fill="#f44336" opacity="0.5"/>
<rect x="593.2004205572847" y="446.30194080069913" width="1.0365384615384616" height="89.69805919930087" fill="#4CAF50" opacity="0.5"/>
<rect x="594.6840429079591" y="457.9739086393334" width="1.0365384615384616" height="78.02609136066661" fill="#4CAF50" opacity="0.5"/>
<rect x="596.1676652586335" y="457.30615423379317" width="1.0365384615384616" height="78.69384576620683" fill="#4CAF50" opacity="0.5"/>
<rect x="597.6512876093079" y="473.134533170912" width="1.0365384615384616" height="62.86546682908801" fill="#f44336" opacity="0.5"/>
<rect x="599.1349099599823" y="490.0523945071347" width="1.0365384615384616" height="45.94760549286531" fill="#f44336" opacity="0.5"/>
<rect x="600.6185323106566" y="489.5814984503373" width="1.0365384615384616" height="46.41850154966272" fill="#f44336" opacity="0.5"/>
<rect x="602.1021546613309" y="503.1404739036266" width="1.0365384615384616" height="32.85952609637337" fill="#f44336" opacity="0.5"/>
<rect x="603.5857770120053" y="507.9170415277964" width="1.0365384615384616" height="28.082958472203586" fill="#4CAF50" opacity="0.5"/>
<rect x="605.0693993626797" y="499.85600308185934" width="1.0365384615384616" height="36.14399691814066" fill="#f44336" opacity="0.5"/>
<rect x="606.5530217133542" y="515.9616570186903" width="1.0365384615384616" height="20.03834298130971" fill="#f44336" opacity="0.5"/>
<rect x="608.0366440640286" y="515.2352436637158" width="1.0365384615384616" height="20.764756336284222" fill="#4CAF50" opacity="0.5"/>
<rect x="609.5202664147029" y="515.1647288605227" width="1.0365384615384616" height="20.8352711394773" fill="#4CAF50" opacity="0.5"/>
<rect x="611.0038887653773" y="515.6223151900624" width="1.0365384615384616" height="20.37768480993759" fill="#f44336" opacity="0.5"/>
<rect x="612.4875111160516" y="519.3902319046695" width="1.0365384615384616" height="16.609768095330537" fill="#f44336" opacity="0.5"/>
<rect x="613.971133466726" y="518.5844137946807" width="1.0365384615384616" height="17.4155862053193" fill="#f44336" opacity="0.5"/>
<rect x="615.4547558174004" y="525.2240136902603" width="1.0365384615384616" height="10.775986309739665" fill="#f44336" opacity="0.5"/>
<rect x="616.9383781680748" y="523.0991019702424" width="1.0365384615384616" height="12.900898029757627" fill="#f44336" opacity="0.5"/>
<rect x="618.4220005187492" y="517.6808062146602" width="1.0365384615384616" height="18.31919378533985" fill="#4CAF50" opacity="0.5"/>
<rect x="619.9056228694235" y="521.343485749925" width="1.0365384615384616" height="14.65651425007502" fill="#f44336" opacity="0.5"/>
<rect x="621.3892452200978" y="522.9796904935354" width="1.0365384615384616" height="13.020309506464628" fill="#f44336" opacity="0.5"/>
<rect x="622.8728675707722" y="526.3077930282526" width="1.0365384615384616" height="9.692206971747396" fill="#4CAF50" opacity="0.5"/>
<rect x="624.3564899214466" y="517.7000865157531" width="1.0365384615384616" height="18.299913484246872" fill="#4CAF50" opacity="0.5"/>
<rect x="625.840112272121" y="486.54205377557923" width="1.0365384615384616" height="49.457946224420766" fill="#4CAF50" opacity="0.5"/>
<rect x="627.3237346227954" y="504.4509683365345" width="1.0365384615384616" height="31.549031663465485" fill="#f44336" opacity="0.5"/>
<rect x="628.8073569734697" y="497.07167249769475" width="1.0365384615384616" height="38.92832750230525" fill="#4CAF50" opacity="0.5"/>
<rect x="630.2909793241441" y="492.5854414727509" width="1.0365384615384616" height="43.414558527249085" fill="#f44336" opacity="0.5"/>
<rect x="631.7746016748184" y="503.67424320450715" width="1.0365384615384616" height="32.32575679549285" fill="#f44336" opacity="0.5"/>
<rect x="633.2582240254928" y="498.6401383672458" width="1.0365384615384616" height="37.35986163275419" fill="#4CAF50" opacity="0.5"/>
<rect x="634.7418463761672" y="512.3239685996219" width="1.0365384615384616" height="23.676031400378065" fill="#f44336" opacity="0.5"/>
<rect x="636.2254687268417" y="508.1965186612349" width="1.0365384615384616" height="27.803481338765096" fill="#4CAF50" opacity="0.5"/>
<rect x="637.709091077516" y="515.1841215944996" width="1.0365384615384616" height="20.81587840550037" fill="#4CAF50" opacity="0.5"/>
<rect x="639.1927134281904" y="516.5795455017173" width="1.0365384615384616" height="19.420454498282652" fill="#f44336" opacity="0.5"/>
<rect x="640.6763357788647" y="524.9164438438277" width="1.0365384615384616" height="11.083556156172335" fill="#f44336" opacity="0.5"/>
<rect x="642.1599581295391" y="503.73885721979286" width="1.0365384615384616" height="32.26114278020714" fill="#4CAF50" opacity="0.5"/>
<rect x="643.6435804802135" y="482.0569936034265" width="1.0365384615384616" height="53.94300639657348" fill="#4CAF50" opacity="0.5"/>
<rect x="645.1272028308879" y="480.4065486535193" width="1.0365384615384616" height="55.59345134648072" fill="#4CAF50" opacity="0.5"/>
<rect x="646.6108251815623" y="489.5390686061463" width="1.0365384615384616" height="46.460931393853684" fill="#4CAF50" opacity="0.5"/>
<rect x="648.0944475322366" y="467.46339524439054" width="1.0365384615384616" height="68.53660475560946" fill="#4CAF50" opacity="0.5"/>
<rect x="649.578069882911" y="498.6845842493552" width="1.0365384615384616" height="37.315415750644775" fill="#f44336" opacity="0.5"/>
<rect x="651.0616922335853" y="481.0700228554788" width="1.0365384615384616" height="54.92997714452122" fill="#f44336" opacity="0.5"/>
<rect x="652.5453145842597" y="500.2887184820785" width="1.0365384615384616" height="35.71128151792152" fill="#f44336" opacity="0.5"/>
<rect x="654.0289369349341" y="509.64367720303636" width="1.0365384615384616" height="26.35632279696364" fill="#4CAF50" opacity="0.5"/>
<rect x="655.5125592856085" y="512.2219764659294" width="1.0365384615384616" height="23.7780235340706" fill="#f44336" opacity="0.5"/>
<rect x="656.9961816362828" y="519.569314226766" width="1.0365384615384616" height="16.430685773234018" fill="#4CAF50" opacity="0.5"/>
<rect x="658.4798039869572" y="516.7089983980566" width="1.0365384615384616" height="19.291001601943435" fill="#4CAF50" opacity="0.5"/>
<rect x="659.9634263376315" y="523.384770666288" width="1.0365384615384616" height="12.615229333712023" fill="#4CAF50" opacity="0.5"/>
<rect x="661.4470486883059" y="526.465284359642" width="1.0365384615384616" height="9.534715640357945" fill="#f44336" opacity="0.5"/>
<rect x="662.9306710389803" y="513.2844284489423" width="1.0365384615384616" height="22.71557155105768" fill="#4CAF50" opacity="0.5"/>
<rect x="664.4142933896547" y="520.7989577851529" width="1.0365384615384616" height="15.20104221484712" fill="#f44336" opacity="0.5"/>
<rect x="665.897915740329" y="522.5096047289012" width="1.0365384615384616" height="13.490395271098805" fill="#f44336" opacity="0.5"/>
<rect x="667.3815380910034" y="522.5363560012804" width="1.0365384615384616" height="13.46364399871959" fill="#f44336" opacity="0.5"/>
<rect x="668.8651604416779" y="510.43764721325834" width="1.0365384615384616" height="25.562352786741656" fill="#4CAF50" opacity="0.5"/>
<rect x="670.3487827923522" y="510.49274708036745" width="1.0365384615384616" height="25.50725291963255" fill="#f44336" opacity="0.5"/>
<rect x="671.8324051430266" y="513.8652606042302" width="1.0365384615384616" height="22.13473939576977" fill="#f44336" opacity="0.5"/>
<rect x="673.316027493701" y="520.1145904517656" width="1.0365384615384616" height="15.885409548234406" fill="#4CAF50" opacity="0.5"/>
<rect x="674.7996498443754" y="523.8585744700831" width="1.0365384615384616" height="12.141425529916887" fill="#4CAF50" opacity="0.5"/>
<rect x="676.2832721950497" y="520.921970991141" width="1.0365384615384616" height="15.078029008858948" fill="#f44336" opacity="0.5"/>
<rect x="677.7668945457241" y="523.8999924183189" width="1.0365384615384616" height="12.100007581681098" fill="#f44336" opacity="0.5"/>
<rect x="679.2505168963984" y="505.06816283727807" width="1.0365384615384616" height="30.931837162721934" fill="#4CAF50" opacity="0.5"/>
<rect x="680.7341392470728" y="500.9118835566574" width="1.0365384615384616" height="35.088116443342585" fill="#4CAF50" opacity="0.5"/>
<rect x="682.2177615977472" y="505.809471610873" width="1.0365384615384616" height="30.190528389126996" fill="#f44336" opacity="0.5"/>
<rect x="683.7013839484216" y="486.85554379489923" width="1.0365384615384616" height="49.14445620510077" fill="#4CAF50" opacity="0.5"/>
<rect x="685.1850062990959" y="513.3443861920357" width="1.0365384615384616" height="22.6556138079643" fill="#f44336" opacity="0.5"/>
<rect x="686.6686286497703" y="516.3550674334921" width="1.0365384615384616" height="19.64493256650792" fill="#f44336" opacity="0.5"/>
<rect x="688.1522510004447" y="520.8659522759807" width="1.0365384615384616" height="15.134047724019297" fill="#4CAF50" opacity="0.5"/>
<rect x="689.635873351119" y="519.1857746437726" width="1.0365384615384616" height="16.81422535622744" fill="#4CAF50" opacity="0.5"/>
<rect x="691.1194957017934" y="517.7558532261737" width="1.0365384615384616" height="18.244146773826287" fill="#4CAF50" opacity="0.5"/>
<rect x="692.6031180524678" y="522.5739628624511" width="1.0365384615384616" height="13.42603713754886" fill="#4CAF50" opacity="0.5"/>
<rect x="694.0867404031421" y="524.0687386690876" width="1.0365384615384616" height="11.931261330912434" fill="#f44336" opacity="0.5"/>
<rect x="695.5703627538165" y="519.5053205308399" width="1.0365384615384616" height="16.494679469160133" fill="#f44336" opacity="0.5"/>
<rect x="697.053985104491" y="520.5800238212032" width="1.0365384615384616" height="15.419976178796787" fill="#4CAF50" opacity="0.5"/>
<rect x="698.5376074551652" y="523.6812329191893" width="1.0365384615384616" height="12.318767080810744" fill="#f44336" opacity="0.5"/>
<rect x="700.0212298058397" y="521.6487177677714" width="1.0365384615384616" height="14.351282232228641" fill="#f44336" opacity="0.5"/>
<rect x="701.5048521565141" y="525.2264096737864" width="1.0365384615384616" height="10.773590326213593" fill="#4CAF50" opacity="0.5"/>
<rect x="702.9884745071885" y="524.8520857102778" width="1.0365384615384616" height="11.147914289722166" fill="#f44336" opacity="0.5"/>
<rect x="704.4720968578628" y="525.3839707911038" width="1.0365384615384616" height="10.61602920889618" fill="#4CAF50" opacity="0.5"/>
<rect x="705.9557192085372" y="527.5524134221758" width="1.0365384615384616" height="8.447586577824154" fill="#f44336" opacity="0.5"/>
<rect x="707.4393415592116" y="527.3490649821341" width="1.0365384615384616" height="8.65093501786589" fill="#4CAF50" opacity="0.5"/>
<rect x="708.9229639098859" y="527.228474898644" width="1.0365384615384616" height="8.77152510135602" fill="#f44336" opacity="0.5"/>
<rect x="710.4065862605603" y="524.8807754806554" width="1.0365384615384616" height="11.119224519344584" fill="#4CAF50" opacity="0.5"/>
<rect x="711.8902086112347" y="506.93958105102934" width="1.0365384615384616" height="29.060418948970664" fill="#4CAF50" opacity="0.5"/>
<rect x="713.373830961909" y="513.485314996526" width="1.0365384615384616" height="22.51468500347403" fill="#f44336" opacity="0.5"/>
<rect x="714.8574533125834" y="523.7909519059039" width="1.0365384615384616" height="12.209048094096147" fill="#4CAF50" opacity="0.5"/>
<rect x="716.3410756632578" y="525.53017231015" width="1.0365384615384616" height="10.469827689850035" fill="#4CAF50" opacity="0.5"/>
<rect x="717.8246980139321" y="521.8235702872353" width="1.0365384615384616" height="14.17642971276473" fill="#4CAF50" opacity="0.5"/>
<rect x="719.3083203646065" y="521.4655374609059" width="1.0365384615384616" height="14.53446253909408" fill="#f44336" opacity="0.5"/>
<rect x="720.7919427152809" y="524.436960240897" width="1.0365384615384616" height="11.563039759103049" fill="#4CAF50" opacity="0.5"/>
<rect x="722.2755650659552" y="508.5176424856729" width="1.0365384615384616" height="27.482357514327077" fill="#4CAF50" opacity="0.5"/>
<rect x="723.7591874166296" y="515.9211889344738" width="1.0365384615384616" height="20.078811065526224" fill="#f44336" opacity="0.5"/>
<rect x="725.242809767304" y="517.769589422991" width="1.0365384615384616" height="18.230410577009025" fill="#f44336" opacity="0.5"/>
<rect x="726.7264321179784" y="525.2407545589753" width="1.0365384615384616" height="10.759245441024746" fill="#4CAF50" opacity="0.5"/>
<rect x="728.2100544686527" y="527.430094198471" width="1.0365384615384616" height="8.56990580152899" fill="#f44336" opacity="0.5"/>
<rect x="729.6936768193272" y="527.7505279176216" width="1.0365384615384616" height="8.249472082378361" fill="#4CAF50" opacity="0.5"/>
<rect x="731.1772991700016" y="525.8909849426091" width="1.0365384615384616" height="10.109015057390934" fill="#4CAF50" opacity="0.5"/>
<rect x="732.6609215206759" y="521.1954969357241" width="1.0365384615384616" height="14.804503064275877" fill="#4CAF50" opacity="0.5"/>
<rect x="734.1445438713503" y="525.4297115898762" width="1.0365384615384616" height="10.570288410123794" fill="#f44336" opacity="0.5"/>
<rect x="735.6281662220247" y="513.4589514237465" width="1.0365384615384616" height="22.541048576253502" fill="#4CAF50" opacity="0.5"/>
<rect x="737.111788572699" y="520.6364379899553" width="1.0365384615384616" height="15.363562010044689" fill="#f44336" opacity="0.5"/>
<rect x="738.5954109233734" y="526.0646627322859" width="1.0365384615384616" height="9.93533726771409" fill="#4CAF50" opacity="0.5"/>
<rect x="740.0790332740478" y="522.5185683436463" width="1.0365384615384616" height="13.48143165635372" fill="#4CAF50" opacity="0.5"/>
<rect x="741.5626556247221" y="508.4631668149193" width="1.0365384615384616" height="27.536833185080695" fill="#4CAF50" opacity="0.5"/>
<rect x="743.0462779753965" y="510.89279878931205" width="1.0365384615384616" height="25.107201210687947" fill="#4CAF50" opacity="0.5"/>
<rect x="744.5299003260709" y="476.4031005550996" width="1.0365384615384616" height="59.59689944490037" fill="#4CAF50" opacity="0.5"/>
<rect x="746.0135226767453" y="484.9293203657346" width="1.0365384615384616" height="51.07067963426539" fill="#f44336" opacity="0.5"/>
<rect x="747.4971450274196" y="495.27021855370504" width="1.0365384615384616" height="40.729781446294965" fill="#4CAF50" opacity="0.5"/>
<rect x="748.980767378094" y="506.76649644174006" width="1.0365384615384616" height="29.23350355825994" fill="#f44336" opacity="0.5"/>
<rect x="750.4643897287683" y="501.1864330281837" width="1.0365384615384616" height="34.81356697181627" fill="#f44336" opacity="0.5"/>
<rect x="751.9480120794427" y="514.6574316883095" width="1.0365384615384616" height="21.342568311690457" fill="#f44336" opacity="0.5"/>
<rect x="753.4316344301171" y="513.3977336569542" width="1.0365384615384616" height="22.602266343045812" fill="#4CAF50" opacity="0.5"/>
<rect x="754.9152567807915" y="500.1890060220321" width="1.0365384615384616" height="35.81099397796788" fill="#4CAF50" opacity="0.5"/>
<rect x="756.3988791314658" y="504.50381566896937" width="1.0365384615384616" height="31.496184331030634" fill="#4CAF50" opacity="0.5"/>
<rect x="757.8825014821402" y="505.4773332408076" width="1.0365384615384616" height="30.52266675919242" fill="#f44336" opacity="0.5"/>
<rect x="759.3661238328147" y="507.50970106637754" width="1.0365384615384616" height="28.490298933622455" fill="#f44336" opacity="0.5"/>
<rect x="760.849746183489" y="515.9764012344668" width="1.0365384615384616" height="20.023598765533166" fill="#4CAF50" opacity="0.5"/>
<rect x="762.3333685341634" y="504.73462874865373" width="1.0365384615384616" height="31.265371251346266" fill="#4CAF50" opacity="0.5"/>
<rect x="763.8169908848378" y="517.1599318024655" width="1.0365384615384616" height="18.840068197534492" fill="#f44336" opacity="0.5"/>
<rect x="765.3006132355122" y="517.6183865791087" width="1.0365384615384616" height="18.381613420891313" fill="#f44336" opacity="0.5"/>
<rect x="766.7842355861865" y="517.3762759330891" width="1.0365384615384616" height="18.62372406691088" fill="#f44336" opacity="0.5"/>
<rect x="768.2678579368609" y="511.4437199204832" width="1.0365384615384616" height="24.556280079516796" fill="#4CAF50" opacity="0.5"/>
<rect x="769.7514802875352" y="515.8338751076258" width="1.0365384615384616" height="20.166124892374228" fill="#4CAF50" opacity="0.5"/>
<rect x="771.2351026382096" y="519.9461543606767" width="1.0365384615384616" height="16.0538456393233" fill="#4CAF50" opacity="0.5"/>
<rect x="772.718724988884" y="522.6825575203266" width="1.0365384615384616" height="13.317442479673446" fill="#f44336" opacity="0.5"/>
<rect x="774.2023473395584" y="519.9566028648885" width="1.0365384615384616" height="16.04339713511149" fill="#4CAF50" opacity="0.5"/>
<rect x="775.6859696902327" y="514.18407761605" width="1.0365384615384616" height="21.81592238395001" fill="#4CAF50" opacity="0.5"/>
<rect x="777.1695920409071" y="499.7413603102286" width="1.0365384615384616" height="36.25863968977143" fill="#4CAF50" opacity="0.5"/>
<rect x="778.6532143915814" y="506.67182019949377" width="1.0365384615384616" height="29.328179800506234" fill="#4CAF50" opacity="0.5"/>
<rect x="780.1368367422558" y="508.5045808861591" width="1.0365384615384616" height="27.49541911384091" fill="#f44336" opacity="0.5"/>
<rect x="781.6204590929302" y="511.79762762307166" width="1.0365384615384616" height="24.202372376928338" fill="#4CAF50" opacity="0.5"/>
<rect x="783.1040814436046" y="509.7776623076961" width="1.0365384615384616" height="26.22233769230388" fill="#f44336" opacity="0.5"/>
<rect x="784.587703794279" y="499.8762022310036" width="1.0365384615384616" height="36.12379776899638" fill="#4CAF50" opacity="0.5"/>
<rect x="786.0713261449533" y="515.077015703087" width="1.0365384615384616" height="20.922984296913" fill="#f44336" opacity="0.5"/>
<rect x="787.5549484956277" y="510.76003881538736" width="1.0365384615384616" height="25.23996118461264" fill="#4CAF50" opacity="0.5"/>
<rect x="789.038570846302" y="514.0190765434145" width="1.0365384615384616" height="21.980923456585515" fill="#4CAF50" opacity="0.5"/>
<rect x="790.5221931969764" y="517.7851516849229" width="1.0365384615384616" height="18.21484831507712" fill="#4CAF50" opacity="0.5"/>
<rect x="792.0058155476509" y="515.0016856708655" width="1.0365384615384616" height="20.998314329134473" fill="#4CAF50" opacity="0.5"/>
<rect x="793.4894378983253" y="509.8706636876717" width="1.0365384615384616" height="26.12933631232829" fill="#f44336" opacity="0.5"/>
<rect x="794.9730602489997" y="518.7622012001143" width="1.0365384615384616" height="17.237798799885695" fill="#f44336" opacity="0.5"/>
<rect x="796.456682599674" y="524.3126870112096" width="1.0365384615384616" height="11.687312988790381" fill="#f44336" opacity="0.5"/>
<rect x="797.9403049503483" y="516.2437976483787" width="1.0365384615384616" height="19.756202351621255" fill="#4CAF50" opacity="0.5"/>
<rect x="799.4239273010227" y="515.2422842884463" width="1.0365384615384616" height="20.757715711553715" fill="#f44336" opacity="0.5"/>
<rect x="800.9075496516971" y="523.4908801697294" width="1.0365384615384616" height="12.509119830270606" fill="#4CAF50" opacity="0.5"/>
<rect x="802.3911720023715" y="522.693560434966" width="1.0365384615384616" height="13.306439565033997" fill="#f44336" opacity="0.5"/>
<rect x="803.8747943530459" y="521.9257291317557" width="1.0365384615384616" height="14.074270868244298" fill="#f44336" opacity="0.5"/>
<rect x="805.3584167037202" y="520.3073857087035" width="1.0365384615384616" height="15.692614291296536" fill="#4CAF50" opacity="0.5"/>
<rect x="806.8420390543945" y="525.4565520331632" width="1.0365384615384616" height="10.543447966836766" fill="#4CAF50" opacity="0.5"/>
<rect x="808.3256614050689" y="526.2930604434641" width="1.0365384615384616" height="9.706939556535872" fill="#f44336" opacity="0.5"/>
<rect x="809.8092837557433" y="522.7417437412165" width="1.0365384615384616" height="13.25825625878349" fill="#4CAF50" opacity="0.5"/>
<rect x="811.2929061064177" y="524.205697429677" width="1.0365384615384616" height="11.794302570322998" fill="#f44336" opacity="0.5"/>
<rect x="812.7765284570921" y="523.0892156304501" width="1.0365384615384616" height="12.910784369549901" fill="#f44336" opacity="0.5"/>
<rect x="814.2601508077665" y="524.1778334594467" width="1.0365384615384616" height="11.822166540553326" fill="#4CAF50" opacity="0.5"/>
<rect x="815.7437731584408" y="528.3993431977165" width="1.0365384615384616" height="7.600656802283538" fill="#f44336" opacity="0.5"/>
<rect x="817.2273955091151" y="522.3700328730099" width="1.0365384615384616" height="13.629967126990095" fill="#f44336" opacity="0.5"/>
<rect x="818.7110178597895" y="524.418831407615" width="1.0365384615384616" height="11.581168592384984" fill="#f44336" opacity="0.5"/>
<rect x="820.194640210464" y="525.9561998922743" width="1.0365384615384616" height="10.043800107725701" fill="#4CAF50" opacity="0.5"/>
<rect x="821.6782625611384" y="520.9004808023299" width="1.0365384615384616" height="15.099519197670134" fill="#f44336" opacity="0.5"/>
<rect x="823.1618849118128" y="524.3503791662923" width="1.0365384615384616" height="11.649620833707672" fill="#4CAF50" opacity="0.5"/>
<rect x="824.6455072624871" y="521.9192506714448" width="1.0365384615384616" height="14.080749328555157" fill="#4CAF50" opacity="0.5"/>
<rect x="826.1291296131614" y="523.4943849741106" width="1.0365384615384616" height="12.50561502588937" fill="#4CAF50" opacity="0.5"/>
<rect x="827.6127519638358" y="525.3312746615128" width="1.0365384615384616" height="10.668725338487206" fill="#f44336" opacity="0.5"/>
<rect x="829.0963743145102" y="526.1174170168168" width="1.0365384615384616" height="9.88258298318317" fill="#4CAF50" opacity="0.5"/>
<rect x="830.5799966651846" y="526.3679678831218" width="1.0365384615384616" height="9.632032116878236" fill="#4CAF50" opacity="0.5"/>
<rect x="832.063619015859" y="516.6176214794037" width="1.0365384615384616" height="19.382378520596262" fill="#4CAF50" opacity="0.5"/>
<rect x="833.5472413665334" y="519.3058025628432" width="1.0365384615384616" height="16.694197437156845" fill="#4CAF50" opacity="0.5"/>
<rect x="835.0308637172077" y="509.91193043306356" width="1.0365384615384616" height="26.08806956693644" fill="#f44336" opacity="0.5"/>
<rect x="836.514486067882" y="522.2173877866167" width="1.0365384615384616" height="13.782612213383345" fill="#4CAF50" opacity="0.5"/>
<rect x="837.9981084185564" y="523.2854110128774" width="1.0365384615384616" height="12.714588987122625" fill="#4CAF50" opacity="0.5"/>
<rect x="839.4817307692308" y="518.8344528975141" width="1.0365384615384616" height="17.165547102485903" fill="#4CAF50" opacity="0.5"/>
<polyline points="810.3275529865125,96.51706825065992 811.8111753371869,99.47849570163577 813.2947976878613,102.43992315261158 814.7784200385357,105.40135060358745 816.26204238921,108.36277805456331 817.7456647398843,111.32420550553918 819.2292870905587,114.28563295651496 820.7129094412331,117.24706040749084 822.1965317919075,120.20848785846668 823.680154142582,123.16991530944256 825.1637764932563,126.13134276041836 826.6473988439305,129.09277021139422 828.131021194605,132.0541976623701 829.6146435452794,135.01562511334586 831.0982658959538,137.97705256432175 832.5818882466282,140.93848001529759 834.0655105973026,143.89990746627342 835.5491329479769,146.86133491724928 837.0327552986512,149.82276236822514 838.5163776493256,152.784189819201 840.0,155.74561727017678" stroke="#f85149" stroke-width="2.5" fill="none"/>
<polyline points="810.3275529865125,203.9421961627956 811.8111753371869,200.50652248157525 813.2947976878613,197.07084880035498 814.7784200385357,193.6351751191347 816.26204238921,190.1995014379144 817.7456647398843,186.76382775669404 819.2292870905587,183.32815407547375 820.7129094412331,179.89248039425345 822.1965317919075,176.4568067130332 823.680154142582,173.0211330318129 825.1637764932563,169.58545935059254 826.6473988439305,166.1497856693723 828.131021194605,162.714111988152 829.6146435452794,159.27843830693172 831.0982658959538,155.84276462571137 832.5818882466282,152.40709094449107 834.0655105973026,148.97141726327078 835.5491329479769,145.53574358205054 837.0327552986512,142.10006990083025 838.5163776493256,138.66439621960984 840.0,135.2287225383896" stroke="#3fb950" stroke-width="2.5" fill="none"/>
<polygon points="810.3275529865125,96.51706825065992 811.8111753371869,99.47849570163577 813.2947976878613,102.43992315261158 814.7784200385357,105.40135060358745 816.26204238921,108.36277805456331 817.7456647398843,111.32420550553918 819.2292870905587,114.28563295651496 820.7129094412331,117.24706040749084 822.1965317919075,120.20848785846668 823.680154142582,123.16991530944256 825.1637764932563,126.13134276041836 826.6473988439305,129.09277021139422 828.131021194605,132.0541976623701 829.6146435452794,135.01562511334586 831.0982658959538,137.97705256432175 832.5818882466282,140.93848001529759 834.0655105973026,143.89990746627342 835.5491329479769,146.86133491724928 835.5491329479769,145.53574358205054 834.0655105973026,148.97141726327078 832.5818882466282,152.40709094449107 831.0982658959538,155.84276462571137 829.6146435452794,159.27843830693172 828.131021194605,162.714111988152 826.6473988439305,166.1497856693723 825.1637764932563,169.58545935059254 823.680154142582,173.0211330318129 822.1965317919075,176.4568067130332 820.7129094412331,179.89248039425345 819.2292870905587,183.32815407547375 817.7456647398843,186.76382775669404 816.26204238921,190.1995014379144 814.7784200385357,193.6351751191347 813.2947976878613,197.07084880035498 811.8111753371869,200.50652248157525 810.3275529865125,203.9421961627956" fill="#FFD700" opacity="0.12"/>
<polygon points="804.3275529865125,88.51706825065992 816.3275529865125,88.51706825065992 810.3275529865125,98.51706825065992" fill="#f85149" stroke="#fff" stroke-width="1"/>
<polygon points="820.6473988439305,121.09277021139422 832.6473988439305,121.09277021139422 826.6473988439305,131.09277021139422" fill="#f85149" stroke="#fff" stroke-width="1"/>
<polygon points="816.1965317919075,184.4568067130332 828.1965317919075,184.4568067130332 822.1965317919075,174.4568067130332" fill="#3fb950" stroke="#fff" stroke-width="1"/>
<polygon points="829.5491329479769,153.53574358205054 841.5491329479769,153.53574358205054 835.5491329479769,143.53574358205054" fill="#3fb950" stroke="#fff" stroke-width="1"/>
<circle cx="837.0327552986512" cy="124.12885372213943" r="6" fill="#e53935" stroke="#fff" stroke-width="2"/>
<text x="837.0327552986512" y="112.12885372213943" text-anchor="middle" font-size="10" fill="#e53935">突破</text>
<polyline points="70.0,348.7460748609165 71.48362235067438,348.43583008033806 72.96724470134875,350.19388383694917 74.45086705202313,348.2290002266191 75.9344894026975,348.3324151534786 77.41811175337187,352.4690122278576 78.90173410404624,349.4699793489328 80.38535645472062,348.3324151534786 81.86897880539499,344.5060628596781 83.35260115606937,338.818241882407 84.83622350674374,343.98898822538075 86.31984585741812,346.36753154314863 87.80346820809248,341.81727476133176 89.28709055876686,345.74704198199174 90.77071290944123,348.7460748609165 92.25433526011561,346.677776323727 93.73795761078998,349.6768092026518 95.22157996146436,349.1597345683544 96.70520231213872,351.6416928129818 98.1888246628131,350.7109584712465 99.67244701348747,354.8475555456255 101.15606936416185,359.19098247372335 102.63969171483623,364.0514840361186 104.1233140655106,370.0495497939681 105.60693641618496,362.1900153526481 107.09055876685935,363.5344094018212 108.57418111753373,361.67294071835073 110.05780346820809,361.9831854989291 111.54142581888246,362.39684520636706 113.02504816955684,364.36172881669705 114.50867052023122,362.0866004257886 115.99229287090559,359.70805710802074 117.47591522157995,363.84465418239967 118.95953757225433,361.67294071835073 120.44315992292871,367.87783632991915 121.9267822736031,367.1539318419029 123.41040462427745,362.1900153526481 124.89402697495183,356.3987794485176 126.37764932562621,354.64072569190654 127.86127167630059,353.60657642331176 129.34489402697494,356.50219437537703 130.82851637764932,359.70805710802074 132.3121387283237,365.1890482315728 133.79576107899808,362.1900153526481 135.27938342967246,364.4651437435565 136.76300578034682,364.36172881669705 138.2466281310212,364.9822183778539 139.73025048169558,361.9831854989291 141.21387283236993,360.1217168154586 142.6974951830443,364.568558670416 144.1811175337187,364.6719735972755 145.66473988439307,366.533442280746 147.14836223506745,368.7051557447949 148.6319845857418,367.36076169562176 150.11560693641619,367.0505169150434 151.59922928709057,367.46417662248126 153.08285163776492,368.7051557447949 154.56647398843933,368.1880811104976 156.05009633911368,366.2231975001676 157.53371868978803,365.7061228658702 159.01734104046244,363.12074969438333 160.5009633911368,358.673907839426 161.98458574181117,357.8465884245502 163.46820809248555,359.08756754686385 164.9518304431599,362.5002601332265 166.43545279383432,361.1558660840534 167.91907514450867,361.0524511571939 169.40269749518305,362.29343027950756 170.88631984585743,361.4661108646318 172.36994219653178,362.70708998694545 173.8535645472062,359.70805710802074 175.33718689788054,356.709024229096 176.8208092485549,354.43389583818754 178.3044315992293,354.02023613074965 179.78805394990366,354.53731076504704 181.27167630057804,358.8807376931449 182.75529865125242,355.57146003364176 184.23892100192677,359.70805710802074 185.72254335260118,354.9509704724849 187.20616570327553,359.3978123274423 188.68978805394988,359.50122725430174 190.1734104046243,362.9139198406644 191.65703275529864,360.431961596037 193.14065510597305,358.9841526200044 194.6242774566474,359.9148869617397 196.10789980732176,359.9148869617397 197.59152215799617,362.1900153526481 199.07514450867052,359.8114720348802 200.5587668593449,362.60367506008595 202.04238921001928,363.0173347675239 203.52601156069363,361.56952579149123 205.009633911368,362.1900153526481 206.4932562620424,362.1900153526481 207.97687861271675,363.4309944749618 209.46050096339115,364.2583138898376 210.9441233140655,362.0866004257886 212.4277456647399,362.81050491380495 213.91136801541427,362.9139198406644 215.39499036608862,360.74220637661546 216.878612716763,359.08756754686385 218.36223506743738,356.3987794485176 219.84585741811176,350.09046891008967 221.32947976878614,335.7157940766228 222.8131021194605,324.0299073415023 224.29672447013488,342.5411792493481 225.78034682080926,336.853358272077 227.2639691714836,342.64459417620753 228.747591522158,336.9567731989365 230.23121387283237,339.85239115100177 231.71483622350675,335.4055492960444 233.1984585741811,338.71482695554755 234.68208092485548,336.4396985646391 236.16570327552986,333.2338358319954 237.64932562620425,334.3714000274497 239.13294797687863,334.5782298811686 240.61657032755298,334.4748149543091 242.10019267822736,307.6903488977054 243.58381502890174,300.34788909068277 245.0674373795761,266.73803786135386 246.55105973025047,288.86883220928115 248.03468208092485,287.31760830638905 249.51830443159923,314.20548928985227 251.0019267822736,315.13622363158754 252.48554913294797,310.4825519229112 253.96917148362235,312.1371907526628 255.45279383429673,309.03474294687857 256.9364161849711,309.2415728005975 258.4200385356455,306.44936977539174 259.9036608863198,307.5869339708459 261.3872832369942,307.380104117127 262.87090558766863,313.1713400212575 264.354527938343,315.4464684121659 265.83815028901734,320.4103849014207 267.32177263969174,316.68744753447965 268.8053949903661,312.3440206063817 270.28901734104045,312.2406056795223 271.77263969171486,313.48158480183594 273.2562620423892,308.5176683125812 274.73988439306356,311.41328626464644 276.22350674373797,310.99962655720856 277.7071290944124,308.00059367828385 279.1907514450867,306.1391249948133 280.6743737957611,306.9664444096891 282.1579961464355,292.59176957622225 283.6416184971098,301.38203835927754 285.1252408477842,301.7956980667154 286.6088631984586,301.07179357869904 288.09248554913296,303.243507042748 289.5761078998073,302.0025279204344 291.0597302504817,303.5537518233265 292.5433526011561,301.58886821299643 294.0269749518304,304.5879010919212 295.51059730250483,304.89814587249964 296.99421965317924,314.51573407043065 298.47784200385354,313.58499972869544 299.96146435452795,304.89814587249964 301.44508670520236,286.80053367209166 302.92870905587665,308.9313280200191 304.41233140655106,307.89717875142435 305.89595375722547,315.3430534853065 307.37957610789977,304.1742413844833 308.8631984585742,310.2757220691923 310.3468208092486,310.0688922154733 311.8304431599229,311.10304148406806 313.3140655105973,306.0357100679538 314.7976878612717,325.5811312443944 316.2813102119461,324.96064168323755 317.7649325626204,319.27282070596647 319.2485549132948,322.16843865803173 320.7321772639692,320.6172147551396 322.2157996146435,330.8552925142276 323.6994219653179,330.3382178799302 325.18304431599233,321.44453417001546 326.66666666666663,323.9264924146428 328.15028901734104,321.0308744625775 329.63391136801545,322.16843865803173 331.1175337186898,318.23867143737175 332.60115606936415,320.10014012084224 334.08477842003856,323.30600285348595 335.5684007707129,322.6855132923291 337.05202312138726,318.4455012910907 338.5356454720617,324.1333222683617 340.019267822736,318.9625759253881 341.5028901734104,317.3079370956365 342.9865125240848,314.8259788510091 344.4701348747592,311.41328626464644 345.9537572254335,313.6884146555549 347.4373795761079,313.1713400212575 348.9210019267823,315.75671319274437 350.40462427745666,314.20548928985227 351.888246628131,294.8668979671306 353.3718689788054,308.5176683125812 354.8554913294798,304.48448616506175 356.3391136801541,297.4522711386175 357.82273603082854,300.8649637249801 359.3063583815029,300.8649637249801 360.78998073217724,303.5537518233265 362.27360308285165,304.5879010919212 363.757225433526,304.89814587249964 365.24084778420035,309.75864743489484 366.72447013487476,310.58596684977067 368.2080924855491,305.93229514109436 369.6917148362235,305.93229514109436 371.1753371868979,299.1069099683691 372.6589595375723,302.9332622621696 374.14258188824664,301.27862343241804 375.626204238921,301.58886821299643 377.1098265895954,302.0025279204344 378.59344894026975,291.45420538076803 380.0770712909441,262.2911960063964 381.5606936416185,258.9819183468933 383.04431599229287,254.84532127251433 384.5279383429672,244.9174882940048 386.0115606936416,251.7428734667301 387.495183044316,260.84338703036383 388.9788053949904,269.94390059399745 390.46242774566474,261.5672915183801 391.9460500963391,266.2209632270564 393.4296724470135,276.66587083986326 394.91329479768785,284.93906498862117 396.3969171483622,281.629787329118 397.8805394990366,283.594670939448 399.36416184971097,278.0102648890364 400.8477842003854,269.84048566713795 402.33140655105973,309.55181758117595 403.8150289017341,294.55665318655224 405.2986512524085,289.07566206300015 406.78227360308284,284.1117455737454 408.26589595375725,280.80246791424224 409.7495183044316,282.5605216708533 411.23314065510596,285.2493097691996 412.71676300578036,296.0044621625849 414.2003853564547,294.55665318655224 415.68400770712907,294.55665318655224 417.1676300578035,289.5927366972975 418.65125240847783,293.0054292836602 420.1348747591522,292.2815247956438 421.6184971098266,297.65910099233645 423.10211946050094,298.7966651877906 424.5857418111753,294.45323825969274 426.0693641618497,294.03957855225485 427.5529865125241,290.42005611217326 429.03660886319847,284.6288202080427 430.5202312138728,286.5937038183728 432.0038535645472,282.4571067439938 433.4874759152216,287.73126801382693 434.97109826589593,282.3536918171343 436.45472061657034,285.86979933035644 437.9383429672447,286.6971187452323 439.42196531791905,287.31760830638905 440.90558766859345,288.86883220928115 442.38921001926786,287.524438160108 443.87283236994216,282.3536918171343 445.35645472061657,290.83371581961114 446.840077071291,294.3498233328333 448.3236994219653,296.4181218700228 449.8073217726397,299.31373982208805 451.2909441233141,300.24447416382327 452.77456647398844,303.450336896467 454.2581888246628,298.27959055349334 455.7418111753372,300.8649637249801 457.22543352601156,297.8659308460554 458.70905587668597,296.4181218700228 460.19267822736026,295.59080245514696 461.67630057803467,295.59080245514696 463.159922928709,293.2122591373791 464.64354527938343,292.48835464936275 466.12716763005784,291.5576203076275 467.6107899807322,292.48835464936275 469.0944123314065,298.07276069977434 470.5780346820809,292.6951845030817 472.0616570327553,293.419088991098 473.54527938342966,295.383972601428 475.02890173410407,301.07179357869904 476.5125240847784,304.27765631134275 477.99614643545283,300.9683786518396 479.4797687861271,296.7283666506012 480.96339113680153,296.0044621625849 482.4470134874759,296.6249517237417 483.9306358381503,294.3498233328333 485.4142581888247,291.04054567333014 486.89788053949906,291.35079045390853 488.38150289017335,292.2815247956438 489.86512524084776,291.35079045390853 491.34874759152217,292.6951845030817 492.8323699421965,287.31760830638905 494.31599229287093,286.80053367209166 495.7996146435453,281.5263724022585 497.28323699421964,277.3897753278796 498.766859344894,280.69905298738274 500.2504816955684,281.21612762168013 501.73410404624275,280.28539327994486 503.21772639691716,280.5956380605233 504.70134874759157,282.3536918171343 506.1849710982659,282.1468619634154 507.6685934489402,281.422957475399 509.1522157996146,278.9409992307717 510.63583815028903,282.25027689027485 512.1194605009634,282.7673515245722 513.6030828516377,282.1468619634154 515.0867052023121,280.0785634262259 516.5703275529866,278.1136798158959 518.0539499036609,279.0444141576312 519.5375722543353,277.906849962177 521.0211946050097,266.6346229344943 522.504816955684,266.6346229344943 523.9884393063585,257.844354151439 525.4720616570328,259.91265268862855 526.9556840077071,267.25511249565113 528.4393063583815,270.2541453745759 529.9229287090559,268.7029214716838 531.4065510597302,270.77122000887323 532.8901734104047,272.3224439117654 534.373795761079,279.87173357250697 535.8574181117533,274.3907424489548 537.3410404624277,275.3214767906901 538.8246628131021,269.3234110328406 540.3082851637764,272.7361036192033 541.7919075144509,274.4941573758143 543.2755298651252,274.18391259523594 544.7591522157995,272.012199131187 546.2427745664739,272.2190289849059 547.7263969171483,274.3907424489548 549.2100192678228,276.04538127870643 550.6936416184972,269.1165811791217 552.1772639691715,256.49996010226585 553.6608863198458,258.3614287857364 555.1445086705203,264.5663243973048 556.6281310211946,269.3234110328406 558.111753371869,262.2911960063964 559.5953757225434,256.70678995598485 561.0789980732177,245.43456292830217 562.5626204238922,254.63849141879535 564.0462427745665,258.2580138588769 565.5298651252408,250.60530927127587 567.0134874759152,258.3614287857364 568.4971098265896,255.1555660530927 569.9807321772639,260.5331422497853 571.4643545279384,265.0833990316022 572.9479768786127,265.0833990316022 574.431599229287,263.945834836148 575.9152215799614,268.5995065448243 577.3988439306358,266.6346229344943 578.8824662813101,268.7029214716838 580.3660886319847,270.15073044771646 581.849710982659,267.4619423493701 583.3333333333333,267.6687722030891 584.8169556840077,274.2873275220954 586.3005780346821,272.012199131187 587.7842003853565,271.9087842043275 589.2678227360309,264.0492497630075 590.7514450867052,223.20035365351532 592.2350674373796,223.30376858037476 593.7186897880539,199.10467569525792 595.2023121387283,192.6929502299706 596.6859344894027,179.35242466509843 598.1695568400771,198.27735628038218 599.6531791907515,205.3095713068264 601.1368015414258,216.1681386270711 602.6204238921001,217.82277745682268 604.1040462427745,216.8920431150874 605.5876685934489,223.61401336095324 607.0712909441233,229.5086641919432 608.5549132947978,226.406216386159 610.038535645472,224.5447477026885 611.5221579961465,227.33695072789425 613.0057803468208,229.92232389938113 614.4894026974952,233.33501648574375 615.9730250481696,236.12721951094954 617.456647398844,236.54087921838743 618.9402697495184,233.74867619318167 620.4238921001927,235.81697473037113 621.907514450867,238.71259268243642 623.3911368015414,238.195518048139 624.8747591522158,235.71355980351166 626.3583815028902,224.23450292211004 627.8420038535646,229.5086641919432 629.3256262042389,225.88914175186164 630.8092485549133,238.6091777555769 632.2928709055876,241.71162556136116 633.776493256262,227.33695072789425 635.2601156069364,234.16233590061952 636.7437379576108,228.26768506962952 638.2273603082851,224.44133277582904 639.7109826589596,230.64622838739746 641.1946050096338,230.95647316797584 642.6782273603083,223.30376858037476 644.1618497109827,213.37593560186534 645.6454720616571,203.24127276963688 647.1290944123315,198.27735628038218 648.6127167630058,177.90461568906585 650.0963391136802,189.07342778988897 651.5799614643545,217.40911774938473 653.0635838150289,223.51059843409374 654.5472061657033,222.78669394607743 656.0308285163777,231.26671794855426 657.514450867052,228.37109999648902 658.9980732177264,217.82277745682268 660.4816955684007,215.96130877335216 661.9653179190751,217.61594760310376 663.4489402697495,204.17200711137218 664.9325626204239,207.0676250634374 666.4161849710982,212.44520126013006 667.8998073217726,214.51349979731955 669.383429672447,199.41492047583637 670.8670520231213,213.27252067500584 672.3506743737958,221.7525446774827 673.8342967244702,220.82181033574741 675.3179190751446,220.09790584773108 676.8015414258189,220.9252252626069 678.2851637764933,223.09693872665582 679.7687861271676,210.79056243037846 681.252408477842,199.00126076839848 682.7360308285164,200.65589959815003 684.2196531791908,191.96904574195426 685.7032755298651,195.79539803575474 687.1868978805395,203.55151755021532 688.6705202312139,200.3456548175716 690.1541425818882,199.51833540269584 691.6377649325626,197.55345179236582 693.121387283237,196.31247267005213 694.6050096339113,199.7251652564148 696.0886319845857,210.2734877960811 697.5722543352601,203.3446876964963 699.0558766859344,212.13495647955165 700.5394990366088,215.13398935847636 702.0231213872833,213.58276545558428 703.5067437379577,216.1681386270711 704.990366088632,209.34275345434583 706.4739884393064,211.72129677211373 707.9576107899808,211.72129677211373 709.4412331406551,216.6852132613685 710.9248554913295,209.96324301550266 712.4084778420039,202.51736828162055 713.8921001926782,210.17007286922163 715.3757225433526,207.9983594051727 716.859344894027,206.55055042914003 718.3429672447013,198.69101598782004 719.8265895953757,204.58566681881004 721.3102119460501,201.89687872046366 722.7938342967244,193.00319501054895 724.2774566473988,200.65589959815003 725.7610789980732,214.82374457789794 727.2447013487476,213.7895953093032 728.7283236994219,213.99642516302214 730.2119460500963,206.13689072170214 731.6955684007708,202.82761306219896 733.179190751445,195.48515325517633 734.6628131021195,198.48418613410107 736.1464354527939,190.62465169278107 737.6300578034682,200.75931452500947 739.1136801541426,200.75931452500947 740.597302504817,196.93296223120896 742.0809248554913,179.97291422625528 743.5645472061657,178.52510525022265 745.0481695568401,158.25577958576577 746.5317919075145,160.6343229035337 748.0154142581888,152.67137353535418 749.4990366088632,160.73773783039314 750.9826589595375,174.07826339526525 752.4662813102119,178.73193510394162 753.9499036608863,174.1816783221247 755.4335260115607,159.49675870807948 756.917148362235,148.4313615341158 758.4007707129094,148.53477646097522 759.8843930635838,168.39044241799422 761.3680154142581,164.66750505105318 762.8516377649325,139.8479226047794 764.335260115607,146.56989285064526 765.8188824662814,150.08600036386733 767.3025048169557,156.70455568287366 768.7861271676301,153.8089377308084 770.2697495183044,151.8440541204784 771.7533718689788,151.53380933989996 773.2369942196532,156.49772582915477 774.7206165703276,148.12111675353736 776.2042389210019,142.0196360688284 777.6878612716763,110.58149830354836 779.1714836223506,105.10050717999627 780.655105973025,123.40494923412312 782.1387283236994,108.72002962007782 783.6223506743738,111.20198786470519 785.1059730250482,97.13755781181679 786.5895953757225,104.48001761883944 788.0732177263969,93.51803537173518 789.5568400770712,83.38337253950678 791.0404624277456,70.45650668207256 792.52408477842,63.42429165562834 794.0077071290945,83.90044717380412 795.4913294797689,90.93266220024833 796.9749518304432,99.10244142214677 798.4585741811175,79.03994561140888 799.9421965317919,98.275122007271 801.4258188824663,89.07119351677781 802.9094412331407,99.30927127586574 804.3930635838151,108.72002962007782 805.8766859344894,104.48001761883944 807.3603082851637,101.58439966677413 808.8439306358381,101.6878145936336 810.3275529865125,100.3434205444605 811.8111753371869,114.40785059734891 813.2947976878613,133.84985684692995 814.7784200385357,126.50739703990737 816.26204238921,134.4703464080868 817.7456647398843,149.87917051014844 819.2292870905587,156.08406612171683 820.7129094412331,148.12111675353736 822.1965317919075,166.11531402708582 823.680154142582,149.7757555832889 825.1637764932563,146.46647792378576 826.6473988439305,138.5035285556063 828.131021194605,139.95133753163896 829.6146435452794,137.26254943329263 831.0982658959538,135.19425089610314 832.5818882466282,118.02737303743052 834.0655105973026,107.89271020520205 835.5491329479769,137.05571957957366 837.0327552986512,124.12885372213943 838.5163776493256,121.12982084321469 840.0,118.95810737916575" stroke="#2196F3" stroke-width="1.8" fill="none"/>
<line x1="70" y1="44.18911525976614" x2="840" y2="44.18911525976614" stroke="#FFD700" stroke-width="1" stroke-dasharray="5,5"/>
<text x="845" y="48.18911525976614" font-size="10" fill="#FFD700">目标 41.01</text>
<line x1="70" y1="124.12885372213943" x2="840" y2="124.12885372213943" stroke="#3fb950" stroke-width="1" stroke-dasharray="2,2"/>
<text x="845" y="128.1288537221394" font-size="10" fill="#3fb950">突破价 33.28</text>
<line x1="840.0" y1="118.95810737916575" x2="840" y2="118.95810737916575" stroke="#88ccff" stroke-width="1"/>
<text x="845" y="122.95810737916575" font-size="10" fill="#88ccff">现价 33.78</text>
<text x="70" y="605" font-size="12" fill="#e0e0e0" font-weight="bold">上榜理由 (综合得分: 98):</text>
<text x="70" y="623" font-size="11" fill="#aaa">1. 形态刚收敛完成（距截止日仅3天），突破信号最新鲜</text>
<text x="70" y="641" font-size="11" fill="#aaa">2. 突破后日线胜率95%，表现优秀</text>
<text x="70" y="659" font-size="11" fill="#aaa">3. 量度目标涨幅23.2%（目标¥41.01 / 突破¥33.28）</text>
<text x="70" y="677" font-size="11" fill="#aaa">4. 三角收敛对称度93%，形态标准</text>
<text x="70" y="695" font-size="11" fill="#aaa">5. 收敛前强上涨趋势+17.6%，典型上涨中继</text>
<text x="70" y="713" font-size="11" fill="#aaa">6. 三角持续17个交易日，整理充分</text>
</svg>