<svg xmlns="http://www.w3.org/2000/svg" viewBox="0 0 900 700" width="900" height="700">
<rect width="900" height="700" fill="#1a1a2e"/>
<text x="450.0" y="28" text-anchor="middle" font-size="16" fill="#e0e0e0" font-weight="bold">英诺特 (688253.SH)  三角收敛上涨中继  评分:98/100</text>
<line x1="70" y1="374.0" x2="840" y2="374.0" stroke="#2a2a4a" stroke-width="0.5"/>
<text x="65" y="378.0" text-anchor="end" font-size="10" fill="#888">26.73</text>
<line x1="70" y1="309.2" x2="840" y2="309.2" stroke="#2a2a4a" stroke-width="0.5"/>
<text x="65" y="313.2" text-anchor="end" font-size="10" fill="#888">35.50</text>
<line x1="70" y1="244.39999999999995" x2="840" y2="244.39999999999995" stroke="#2a2a4a" stroke-width="0.5"/>
<text x="65" y="248.39999999999995" text-anchor="end" font-size="10" fill="#888">44.26</text>
<line x1="70" y1="179.6" x2="840" y2="179.6" stroke="#2a2a4a" stroke-width="0.5"/>
<text x="65" y="183.6" text-anchor="end" font-size="10" fill="#888">53.03</text>
<line x1="70" y1="114.80000000000003" x2="840" y2="114.80000000000003" stroke="#2a2a4a" stroke-width="0.5"/>
<text x="65" y="118.80000000000003" text-anchor="end" font-size="10" fill="#888">61.79</text>
<line x1="70" y1="50.0" x2="840" y2="50.0" stroke="#2a2a4a" stroke-width="0.5"/>
<text x="65" y="54.0" text-anchor="end" font-size="10" fill="#888">70.56</text>
<text x="70.0" y="551.0" text-anchor="middle" font-size="9" fill="#888">2024-05-06</text>
<text x="166.43545279383432" y="551.0" text-anchor="middle" font-size="9" fill="#888">2024-08-06</text>
<text x="262.87090558766863" y="551.0" text-anchor="middle" font-size="9" fill="#888">2024-11-14</text>
<text x="359.3063583815029" y="551.0" text-anchor="middle" font-size="9" fill="#888">2025-02-24</text>
<text x="455.7418111753372" y="551.0" text-anchor="middle" font-size="9" fill="#888">2025-05-30</text>
<text x="552.1772639691715" y="551.0" text-anchor="middle" font-size="9" fill="#888">2025-09-01</text>
<text x="648.6127167630058" y="551.0" text-anchor="middle" font-size="9" fill="#888">2025-12-09</text>
<text x="745.0481695568401" y="551.0" text-anchor="middle" font-size="9" fill="#888">2026-03-20</text>
<rect x="792.52408477842" y="50" width="43.02504816955684" height="486.0" fill="#FFD700" opacity="0.06"/>
<rect x="69.48173076923077" y="469.0434170274624" width="1.0365384615384616" height="66.9565829725376" fill="#4CAF50" opacity="0.5"/>
<rect x="70.96535311990515" y="462.0576090865828" width="1.0365384615384616" height="73.94239091341723" fill="#4CAF50" opacity="0.5"/>
<rect x="72.44897547057951" y="483.9187879656043" width="1.0365384615384616" height="52.08121203439572" fill="#f44336" opacity="0.5"/>
<rect x="73.93259782125389" y="498.6768741606883" width="1.0365384615384616" height="37.32312583931167" fill="#4CAF50" opacity="0.5"/>
<rect x="75.41622017192826" y="493.90206258700806" width="1.0365384615384616" height="42.09793741299194" fill="#f44336" opacity="0.5"/>
<rect x="76.89984252260264" y="507.49797129314845" width="1.0365384615384616" height="28.502028706851547" fill="#f44336" opacity="0.5"/>
<rect x="78.383464873277" y="507.2944470218282" width="1.0365384615384616" height="28.705552978171795" fill="#4CAF50" opacity="0.5"/>
<rect x="79.86708722395139" y="507.18056379862537" width="1.0365384615384616" height="28.81943620137463" fill="#f44336" opacity="0.5"/>
<rect x="81.35070957462575" y="516.8902445319957" width="1.0365384615384616" height="19.109755468004323" fill="#4CAF50" opacity="0.5"/>
<rect x="82.83433192530013" y="516.8721369387381" width="1.0365384615384616" height="19.127863061261905" fill="#f44336" opacity="0.5"/>
<rect x="84.3179542759745" y="509.02957753051606" width="1.0365384615384616" height="26.970422469483935" fill="#4CAF50" opacity="0.5"/>
<rect x="85.80157662664888" y="509.8589645321598" width="1.0365384615384616" height="26.141035467840197" fill="#4CAF50" opacity="0.5"/>
<rect x="87.28519897732325" y="519.7118814050932" width="1.0365384615384616" height="16.28811859490679" fill="#f44336" opacity="0.5"/>
<rect x="88.76882132799763" y="521.6495969594696" width="1.0365384615384616" height="14.35040304053041" fill="#f44336" opacity="0.5"/>
<rect x="90.252443678672" y="522.600144067588" width="1.0365384615384616" height="13.399855932412038" fill="#4CAF50" opacity="0.5"/>
<rect x="91.73606602934638" y="512.4641818198601" width="1.0365384615384616" height="23.535818180139927" fill="#4CAF50" opacity="0.5"/>
<rect x="93.21968838002074" y="519.9175633569184" width="1.0365384615384616" height="16.082436643081564" fill="#4CAF50" opacity="0.5"/>
<rect x="94.70331073069512" y="514.7920990859537" width="1.0365384615384616" height="21.207900914046263" fill="#f44336" opacity="0.5"/>
<rect x="96.18693308136949" y="514.1766862984681" width="1.0365384615384616" height="21.8233137015319" fill="#f44336" opacity="0.5"/>
<rect x="97.67055543204387" y="520.8785434848903" width="1.0365384615384616" height="15.121456515109685" fill="#4CAF50" opacity="0.5"/>
<rect x="99.15417778271824" y="521.3898206881603" width="1.0365384615384616" height="14.610179311839715" fill="#f44336" opacity="0.5"/>
<rect x="100.63780013339262" y="525.1534839467545" width="1.0365384615384616" height="10.846516053245523" fill="#f44336" opacity="0.5"/>
<rect x="102.121422484067" y="523.5190113489978" width="1.0365384615384616" height="12.480988651002235" fill="#f44336" opacity="0.5"/>
<rect x="103.60504483474136" y="520.0559341384799" width="1.0365384615384616" height="15.94406586152013" fill="#f44336" opacity="0.5"/>
<rect x="105.08866718541573" y="525.5736562637605" width="1.0365384615384616" height="10.42634373623946" fill="#f44336" opacity="0.5"/>
<rect x="106.57228953609011" y="521.2882658590586" width="1.0365384615384616" height="14.711734140941417" fill="#4CAF50" opacity="0.5"/>
<rect x="108.05591188676449" y="520.8972856900612" width="1.0365384615384616" height="15.102714309938847" fill="#f44336" opacity="0.5"/>
<rect x="109.53953423743886" y="525.0841589413528" width="1.0365384615384616" height="10.915841058647175" fill="#f44336" opacity="0.5"/>
<rect x="111.02315658811322" y="522.0937745297804" width="1.0365384615384616" height="13.906225470219624" fill="#4CAF50" opacity="0.5"/>
<rect x="112.5067789387876" y="519.6488940573316" width="1.0365384615384616" height="16.35110594266837" fill="#f44336" opacity="0.5"/>
<rect x="113.99040128946199" y="522.9013054971323" width="1.0365384615384616" height="13.098694502867716" fill="#4CAF50" opacity="0.5"/>
<rect x="115.47402364013635" y="527.6349772958507" width="1.0365384615384616" height="8.365022704149283" fill="#f44336" opacity="0.5"/>
<rect x="116.95764599081072" y="516.9241412696546" width="1.0365384615384616" height="19.07585873034543" fill="#f44336" opacity="0.5"/>
<rect x="118.4412683414851" y="519.413986111529" width="1.0365384615384616" height="16.58601388847103" fill="#4CAF50" opacity="0.5"/>
<rect x="119.92489069215948" y="522.067196982854" width="1.0365384615384616" height="13.932803017145943" fill="#f44336" opacity="0.5"/>
<rect x="121.40851304283386" y="525.4726260471738" width="1.0365384615384616" height="10.527373952826224" fill="#f44336" opacity="0.5"/>
<rect x="122.89213539350821" y="524.9273336453545" width="1.0365384615384616" height="11.072666354645548" fill="#4CAF50" opacity="0.5"/>
<rect x="124.3757577441826" y="525.1895299034262" width="1.0365384615384616" height="10.810470096573795" fill="#f44336" opacity="0.5"/>
<rect x="125.85938009485697" y="526.5232049158021" width="1.0365384615384616" height="9.476795084197875" fill="#f44336" opacity="0.5"/>
<rect x="127.34300244553135" y="520.8220291786438" width="1.0365384615384616" height="15.177970821356212" fill="#4CAF50" opacity="0.5"/>
<rect x="128.82662479620572" y="503.3679169618217" width="1.0365384615384616" height="32.63208303817828" fill="#f44336" opacity="0.5"/>
<rect x="130.3102471468801" y="520.4102845078454" width="1.0365384615384616" height="15.589715492154596" fill="#f44336" opacity="0.5"/>
<rect x="131.79386949755448" y="522.600863294423" width="1.0365384615384616" height="13.399136705577007" fill="#f44336" opacity="0.5"/>
<rect x="133.27749184822886" y="520.7675710149962" width="1.0365384615384616" height="15.232428985003821" fill="#4CAF50" opacity="0.5"/>
<rect x="134.76111419890324" y="526.1604099772445" width="1.0365384615384616" height="9.839590022755488" fill="#f44336" opacity="0.5"/>
<rect x="136.2447365495776" y="524.2020314589732" width="1.0365384615384616" height="11.797968541026762" fill="#f44336" opacity="0.5"/>
<rect x="137.72835890025198" y="514.2910941341859" width="1.0365384615384616" height="21.70890586581413" fill="#f44336" opacity="0.5"/>
<rect x="139.21198125092636" y="519.1430406705467" width="1.0365384615384616" height="16.856959329453275" fill="#4CAF50" opacity="0.5"/>
<rect x="140.6956036016007" y="512.6840198480966" width="1.0365384615384616" height="23.31598015190343" fill="#4CAF50" opacity="0.5"/>
<rect x="142.1792259522751" y="489.37168659932115" width="1.0365384615384616" height="46.62831340067885" fill="#f44336" opacity="0.5"/>
<rect x="143.66284830294947" y="511.21491865343637" width="1.0365384615384616" height="24.78508134656363" fill="#f44336" opacity="0.5"/>
<rect x="145.14647065362385" y="519.5526953527775" width="1.0365384615384616" height="16.447304647222495" fill="#f44336" opacity="0.5"/>
<rect x="146.63009300429823" y="523.1731224718087" width="1.0365384615384616" height="12.82687752819129" fill="#f44336" opacity="0.5"/>
<rect x="148.11371535497258" y="524.0608430005169" width="1.0365384615384616" height="11.939156999483089" fill="#4CAF50" opacity="0.5"/>
<rect x="149.59733770564696" y="525.2592695219445" width="1.0365384615384616" height="10.740730478055525" fill="#f44336" opacity="0.5"/>
<rect x="151.08096005632135" y="517.0390991023638" width="1.0365384615384616" height="18.96090089763618" fill="#f44336" opacity="0.5"/>
<rect x="152.5645824069957" y="523.0294971036055" width="1.0365384615384616" height="12.970502896394464" fill="#f44336" opacity="0.5"/>
<rect x="154.0482047576701" y="522.5627188876915" width="1.0365384615384616" height="13.437281112308483" fill="#4CAF50" opacity="0.5"/>
<rect x="155.53182710834446" y="525.2201351206284" width="1.0365384615384616" height="10.779864879371644" fill="#4CAF50" opacity="0.5"/>
<rect x="157.0154494590188" y="521.368658496227" width="1.0365384615384616" height="14.631341503773001" fill="#f44336" opacity="0.5"/>
<rect x="158.49907180969322" y="525.4616007228678" width="1.0365384615384616" height="10.538399277132157" fill="#f44336" opacity="0.5"/>
<rect x="159.98269416036757" y="519.2984021283986" width="1.0365384615384616" height="16.701597871601393" fill="#4CAF50" opacity="0.5"/>
<rect x="161.46631651104195" y="521.3440186310092" width="1.0365384615384616" height="14.655981368990751" fill="#f44336" opacity="0.5"/>
<rect x="162.94993886171633" y="503.56676202796837" width="1.0365384615384616" height="32.433237972031634" fill="#4CAF50" opacity="0.5"/>
<rect x="164.43356121239069" y="510.59093437437605" width="1.0365384615384616" height="25.409065625623953" fill="#4CAF50" opacity="0.5"/>
<rect x="165.9171835630651" y="522.503327674105" width="1.0365384615384616" height="13.49667232589502" fill="#4CAF50" opacity="0.5"/>
<rect x="167.40080591373945" y="521.1474750907345" width="1.0365384615384616" height="14.852524909265526" fill="#4CAF50" opacity="0.5"/>
<rect x="168.88442826441383" y="507.760539856876" width="1.0365384615384616" height="28.239460143124006" fill="#4CAF50" opacity="0.5"/>
<rect x="170.3680506150882" y="525.2327850514322" width="1.0365384615384616" height="10.767214948567812" fill="#f44336" opacity="0.5"/>
<rect x="171.85167296576256" y="501.40193156208375" width="1.0365384615384616" height="34.598068437916254" fill="#4CAF50" opacity="0.5"/>
<rect x="173.33529531643697" y="519.680032348541" width="1.0365384615384616" height="16.319967651459024" fill="#4CAF50" opacity="0.5"/>
<rect x="174.81891766711132" y="522.2837265676495" width="1.0365384615384616" height="13.716273432350476" fill="#f44336" opacity="0.5"/>
<rect x="176.30254001778567" y="522.9435368045849" width="1.0365384615384616" height="13.056463195415063" fill="#4CAF50" opacity="0.5"/>
<rect x="177.78616236846008" y="521.9850443553129" width="1.0365384615384616" height="14.01495564468712" fill="#4CAF50" opacity="0.5"/>
<rect x="179.26978471913444" y="525.0937711964652" width="1.0365384615384616" height="10.90622880353476" fill="#f44336" opacity="0.5"/>
<rect x="180.75340706980882" y="523.9039415510889" width="1.0365384615384616" height="12.096058448911094" fill="#f44336" opacity="0.5"/>
<rect x="182.2370294204832" y="523.3303962268924" width="1.0365384615384616" height="12.66960377310761" fill="#f44336" opacity="0.5"/>
<rect x="183.72065177115755" y="521.8477904907187" width="1.0365384615384616" height="14.152209509281306" fill="#f44336" opacity="0.5"/>
<rect x="185.20427412183196" y="524.8613424678703" width="1.0365384615384616" height="11.138657532129741" fill="#f44336" opacity="0.5"/>
<rect x="186.6878964725063" y="526.957271002962" width="1.0365384615384616" height="9.042728997038012" fill="#4CAF50" opacity="0.5"/>
<rect x="188.17151882318066" y="528.8522221758786" width="1.0365384615384616" height="7.147777824121363" fill="#f44336" opacity="0.5"/>
<rect x="189.65514117385507" y="526.9297711533885" width="1.0365384615384616" height="9.070228846611485" fill="#f44336" opacity="0.5"/>
<rect x="191.13876352452942" y="520.1432059687878" width="1.0365384615384616" height="15.856794031212189" fill="#4CAF50" opacity="0.5"/>
<rect x="192.62238587520383" y="515.1994691652968" width="1.0365384615384616" height="20.80053083470318" fill="#f44336" opacity="0.5"/>
<rect x="194.10600822587818" y="521.8194275689432" width="1.0365384615384616" height="14.180572431056817" fill="#f44336" opacity="0.5"/>
<rect x="195.58963057655254" y="526.9646494241399" width="1.0365384615384616" height="9.035350575860093" fill="#4CAF50" opacity="0.5"/>
<rect x="197.07325292722695" y="524.5020421255815" width="1.0365384615384616" height="11.49795787441849" fill="#4CAF50" opacity="0.5"/>
<rect x="198.5568752779013" y="527.7677550310835" width="1.0365384615384616" height="8.232244968916461" fill="#4CAF50" opacity="0.5"/>
<rect x="200.04049762857568" y="524.731856253094" width="1.0365384615384616" height="11.268143746906048" fill="#f44336" opacity="0.5"/>
<rect x="201.52411997925006" y="527.6878954679222" width="1.0365384615384616" height="8.312104532077797" fill="#4CAF50" opacity="0.5"/>
<rect x="203.0077423299244" y="526.9984107779239" width="1.0365384615384616" height="9.001589222076063" fill="#4CAF50" opacity="0.5"/>
<rect x="204.4913646805988" y="530.6412439282383" width="1.0365384615384616" height="5.358756071761718" fill="#4CAF50" opacity="0.5"/>
<rect x="205.97498703127317" y="523.9733257869359" width="1.0365384615384616" height="12.026674213064098" fill="#4CAF50" opacity="0.5"/>
<rect x="207.45860938194753" y="527.8343892819731" width="1.0365384615384616" height="8.165610718026869" fill="#f44336" opacity="0.5"/>
<rect x="208.94223173262193" y="529.0516426234933" width="1.0365384615384616" height="6.948357376506692" fill="#f44336" opacity="0.5"/>
<rect x="210.4258540832963" y="528.7377043407625" width="1.0365384615384616" height="7.262295659237452" fill="#4CAF50" opacity="0.5"/>
<rect x="211.90947643397067" y="526.876565290583" width="1.0365384615384616" height="9.123434709416983" fill="#f44336" opacity="0.5"/>
<rect x="213.39309878464505" y="524.3596690582206" width="1.0365384615384616" height="11.640330941779439" fill="#f44336" opacity="0.5"/>
<rect x="214.8767211353194" y="521.834666716353" width="1.0365384615384616" height="14.165333283646987" fill="#f44336" opacity="0.5"/>
<rect x="216.36034348599378" y="515.2814694859788" width="1.0365384615384616" height="20.718530514021154" fill="#4CAF50" opacity="0.5"/>
<rect x="217.84396583666816" y="511.30897660046986" width="1.0365384615384616" height="24.69102339953014" fill="#4CAF50" opacity="0.5"/>
<rect x="219.32758818734254" y="518.0137953091538" width="1.0365384615384616" height="17.986204690846193" fill="#4CAF50" opacity="0.5"/>
<rect x="220.81121053801692" y="494.0578048120078" width="1.0365384615384616" height="41.94219518799218" fill="#4CAF50" opacity="0.5"/>
<rect x="222.29483288869127" y="470.6757150217298" width="1.0365384615384616" height="65.32428497827021" fill="#4CAF50" opacity="0.5"/>
<rect x="223.77845523936566" y="495.1047452390004" width="1.0365384615384616" height="40.89525476099959" fill="#f44336" opacity="0.5"/>
<rect x="225.26207759004004" y="495.95779057276945" width="1.0365384615384616" height="40.042209427230546" fill="#4CAF50" opacity="0.5"/>
<rect x="226.7456999407144" y="520.8622466509585" width="1.0365384615384616" height="15.137753349041532" fill="#f44336" opacity="0.5"/>
<rect x="228.22932229138877" y="514.9970956569126" width="1.0365384615384616" height="21.00290434308738" fill="#4CAF50" opacity="0.5"/>
<rect x="229.71294464206315" y="516.8027696258755" width="1.0365384615384616" height="19.1972303741245" fill="#f44336" opacity="0.5"/>
<rect x="231.19656699273753" y="520.99649668583" width="1.0365384615384616" height="15.003503314169961" fill="#f44336" opacity="0.5"/>
<rect x="232.68018934341188" y="520.6193849025099" width="1.0365384615384616" height="15.380615097490136" fill="#f44336" opacity="0.5"/>
<rect x="234.16381169408626" y="515.588951650179" width="1.0365384615384616" height="20.411048349821044" fill="#4CAF50" opacity="0.5"/>
<rect x="235.64743404476064" y="516.8384940458445" width="1.0365384615384616" height="19.161505954155473" fill="#f44336" opacity="0.5"/>
<rect x="237.13105639543502" y="509.83497620183954" width="1.0365384615384616" height="26.165023798160462" fill="#f44336" opacity="0.5"/>
<rect x="238.6146787461094" y="514.4806400204307" width="1.0365384615384616" height="21.519359979569344" fill="#4CAF50" opacity="0.5"/>
<rect x="240.09830109678376" y="500.80454175293397" width="1.0365384615384616" height="35.19545824706603" fill="#4CAF50" opacity="0.5"/>
<rect x="241.58192344745814" y="513.4225473467495" width="1.0365384615384616" height="22.577452653250475" fill="#4CAF50" opacity="0.5"/>
<rect x="243.06554579813252" y="489.99867470810415" width="1.0365384615384616" height="46.00132529189585" fill="#f44336" opacity="0.5"/>
<rect x="244.54916814880687" y="504.4610825205742" width="1.0365384615384616" height="31.538917479425777" fill="#f44336" opacity="0.5"/>
<rect x="246.03279049948125" y="518.0291952249149" width="1.0365384615384616" height="17.97080477508507" fill="#f44336" opacity="0.5"/>
<rect x="247.51641285015563" y="517.8575877020844" width="1.0365384615384616" height="18.142412297915598" fill="#4CAF50" opacity="0.5"/>
<rect x="249.00003520083" y="508.23959569793806" width="1.0365384615384616" height="27.760404302061943" fill="#4CAF50" opacity="0.5"/>
<rect x="250.4836575515044" y="511.5873427700908" width="1.0365384615384616" height="24.4126572299092" fill="#f44336" opacity="0.5"/>
<rect x="251.96727990217875" y="507.42158940327164" width="1.0365384615384616" height="28.57841059672836" fill="#4CAF50" opacity="0.5"/>
<rect x="253.45090225285313" y="510.69374150432" width="1.0365384615384616" height="25.306258495680026" fill="#f44336" opacity="0.5"/>
<rect x="254.9345246035275" y="509.6703917175154" width="1.0365384615384616" height="26.329608282484628" fill="#f44336" opacity="0.5"/>
<rect x="256.41814695420186" y="503.99228200803003" width="1.0365384615384616" height="32.00771799196997" fill="#4CAF50" opacity="0.5"/>
<rect x="257.90176930487627" y="504.64785303738506" width="1.0365384615384616" height="31.35214696261494" fill="#4CAF50" opacity="0.5"/>
<rect x="259.38539165555056" y="507.0956611861268" width="1.0365384615384616" height="28.90433881387321" fill="#f44336" opacity="0.5"/>
<rect x="260.869014006225" y="521.5903411297579" width="1.0365384615384616" height="14.409658870242083" fill="#f44336" opacity="0.5"/>
<rect x="262.3526363568994" y="518.0285098440487" width="1.0365384615384616" height="17.9714901559513" fill="#f44336" opacity="0.5"/>
<rect x="263.83625870757373" y="518.3675702970513" width="1.0365384615384616" height="17.632429702948684" fill="#f44336" opacity="0.5"/>
<rect x="265.3198810582481" y="516.9176682281396" width="1.0365384615384616" height="19.082331771860368" fill="#f44336" opacity="0.5"/>
<rect x="266.8035034089225" y="517.6160036389545" width="1.0365384615384616" height="18.383996361045547" fill="#4CAF50" opacity="0.5"/>
<rect x="268.28712575959685" y="513.0137980441816" width="1.0365384615384616" height="22.986201955818387" fill="#4CAF50" opacity="0.5"/>
<rect x="269.7707481102712" y="519.8355968822051" width="1.0365384615384616" height="16.164403117794905" fill="#4CAF50" opacity="0.5"/>
<rect x="271.2543704609456" y="517.2930707900401" width="1.0365384615384616" height="18.706929209959867" fill="#f44336" opacity="0.5"/>
<rect x="272.73799281161996" y="523.3773575084717" width="1.0365384615384616" height="12.622642491528268" fill="#f44336" opacity="0.5"/>
<rect x="274.2216151622943" y="526.5250918285575" width="1.0365384615384616" height="9.474908171442507" fill="#4CAF50" opacity="0.5"/>
<rect x="275.7052375129687" y="526.4479822503534" width="1.0365384615384616" height="9.552017749646552" fill="#4CAF50" opacity="0.5"/>
<rect x="277.18885986364313" y="526.7020047069827" width="1.0365384615384616" height="9.297995293017266" fill="#f44336" opacity="0.5"/>
<rect x="278.6724822143174" y="497.0459976971066" width="1.0365384615384616" height="38.9540023028934" fill="#4CAF50" opacity="0.5"/>
<rect x="280.15610456499184" y="508.06749740856117" width="1.0365384615384616" height="27.932502591438833" fill="#f44336" opacity="0.5"/>
<rect x="281.63972691566624" y="510.69515457351343" width="1.0365384615384616" height="25.304845426486565" fill="#4CAF50" opacity="0.5"/>
<rect x="283.12334926634054" y="511.410260661822" width="1.0365384615384616" height="24.589739338177992" fill="#f44336" opacity="0.5"/>
<rect x="284.60697161701495" y="523.3894828267606" width="1.0365384615384616" height="12.610517173239373" fill="#4CAF50" opacity="0.5"/>
<rect x="286.09059396768936" y="519.089682500882" width="1.0365384615384616" height="16.910317499118037" fill="#f44336" opacity="0.5"/>
<rect x="287.5742163183637" y="517.3899548754605" width="1.0365384615384616" height="18.61004512453951" fill="#f44336" opacity="0.5"/>
<rect x="289.05783866903806" y="509.55918232584025" width="1.0365384615384616" height="26.440817674159746" fill="#f44336" opacity="0.5"/>
<rect x="290.5414610197125" y="520.874160431943" width="1.0365384615384616" height="15.125839568057017" fill="#4CAF50" opacity="0.5"/>
<rect x="292.0250833703868" y="516.1684623263599" width="1.0365384615384616" height="19.831537673640128" fill="#f44336" opacity="0.5"/>
<rect x="293.5087057210612" y="516.9396681077984" width="1.0365384615384616" height="19.06033189220159" fill="#f44336" opacity="0.5"/>
<rect x="294.9923280717356" y="518.4618313198971" width="1.0365384615384616" height="17.5381686801029" fill="#f44336" opacity="0.5"/>
<rect x="296.47595042241" y="520.7873793681812" width="1.0365384615384616" height="15.212620631818822" fill="#f44336" opacity="0.5"/>
<rect x="297.9595727730843" y="518.175689038966" width="1.0365384615384616" height="17.82431096103403" fill="#f44336" opacity="0.5"/>
<rect x="299.4431951237587" y="522.342254709034" width="1.0365384615384616" height="13.657745290965977" fill="#4CAF50" opacity="0.5"/>
<rect x="300.9268174744331" y="519.849211423117" width="1.0365384615384616" height="16.150788576882974" fill="#4CAF50" opacity="0.5"/>
<rect x="302.4104398251074" y="524.5005359799741" width="1.0365384615384616" height="11.499464020025925" fill="#f44336" opacity="0.5"/>
<rect x="303.8940621757818" y="522.7917968653846" width="1.0365384615384616" height="13.20820313461536" fill="#4CAF50" opacity="0.5"/>
<rect x="305.3776845264562" y="524.4125787687999" width="1.0365384615384616" height="11.587421231200096" fill="#f44336" opacity="0.5"/>
<rect x="306.8613068771305" y="525.3635997204801" width="1.0365384615384616" height="10.636400279519876" fill="#4CAF50" opacity="0.5"/>
<rect x="308.3449292278049" y="518.7031699997539" width="1.0365384615384616" height="17.296830000246132" fill="#4CAF50" opacity="0.5"/>
<rect x="309.82855157847933" y="519.6494271313387" width="1.0365384615384616" height="16.35057286866129" fill="#f44336" opacity="0.5"/>
<rect x="311.31217392915363" y="515.1654539667475" width="1.0365384615384616" height="20.834546033252536" fill="#f44336" opacity="0.5"/>
<rect x="312.79579627982804" y="518.4301091857275" width="1.0365384615384616" height="17.569890814272526" fill="#f44336" opacity="0.5"/>
<rect x="314.27941863050245" y="514.4439171443848" width="1.0365384615384616" height="21.55608285561516" fill="#4CAF50" opacity="0.5"/>
<rect x="315.76304098117686" y="481.7094838968402" width="1.0365384615384616" height="54.2905161031598" fill="#4CAF50" opacity="0.5"/>
<rect x="317.24666333185115" y="498.61011298741613" width="1.0365384615384616" height="37.38988701258387" fill="#f44336" opacity="0.5"/>
<rect x="318.73028568252556" y="521.0981784373146" width="1.0365384615384616" height="14.901821562685427" fill="#f44336" opacity="0.5"/>
<rect x="320.21390803319997" y="520.1433751986314" width="1.0365384615384616" height="15.856624801368639" fill="#f44336" opacity="0.5"/>
<rect x="321.69753038387427" y="519.134088411824" width="1.0365384615384616" height="16.865911588176004" fill="#f44336" opacity="0.5"/>
<rect x="323.1811527345487" y="511.9868944306629" width="1.0365384615384616" height="24.013105569337085" fill="#f44336" opacity="0.5"/>
<rect x="324.6647750852231" y="507.54509334307915" width="1.0365384615384616" height="28.454906656920855" fill="#4CAF50" opacity="0.5"/>
<rect x="326.1483974358974" y="516.7459422444185" width="1.0365384615384616" height="19.25405775558147" fill="#f44336" opacity="0.5"/>
<rect x="327.6320197865718" y="492.99064988020575" width="1.0365384615384616" height="43.00935011979425" fill="#f44336" opacity="0.5"/>
<rect x="329.1156421372462" y="498.64095512639926" width="1.0365384615384616" height="37.35904487360074" fill="#4CAF50" opacity="0.5"/>
<rect x="330.59926448792055" y="515.7287524239183" width="1.0365384615384616" height="20.27124757608169" fill="#4CAF50" opacity="0.5"/>
<rect x="332.0828868385949" y="517.4201708640226" width="1.0365384615384616" height="18.579829135977434" fill="#f44336" opacity="0.5"/>
<rect x="333.5665091892693" y="517.929552693045" width="1.0365384615384616" height="18.070447306954975" fill="#f44336" opacity="0.5"/>
<rect x="335.05013153994366" y="517.8157625462561" width="1.0365384615384616" height="18.18423745374389" fill="#f44336" opacity="0.5"/>
<rect x="336.533753890618" y="463.7545105736174" width="1.0365384615384616" height="72.24548942638262" fill="#f44336" opacity="0.5"/>
<rect x="338.0173762412924" y="500.0670550178187" width="1.0365384615384616" height="35.93294498218131" fill="#4CAF50" opacity="0.5"/>
<rect x="339.5009985919668" y="513.1410081175625" width="1.0365384615384616" height="22.858991882437522" fill="#f44336" opacity="0.5"/>
<rect x="340.98462094264113" y="506.82950494971647" width="1.0365384615384616" height="29.170495050283535" fill="#4CAF50" opacity="0.5"/>
<rect x="342.46824329331554" y="497.5479587974903" width="1.0365384615384616" height="38.45204120250969" fill="#4CAF50" opacity="0.5"/>
<rect x="343.95186564398995" y="478.0111687423248" width="1.0365384615384616" height="57.9888312576752" fill="#4CAF50" opacity="0.5"/>
<rect x="345.43548799466424" y="501.16005980821984" width="1.0365384615384616" height="34.83994019178016" fill="#f44336" opacity="0.5"/>
<rect x="346.91911034533865" y="515.672051964844" width="1.0365384615384616" height="20.327948035156055" fill="#f44336" opacity="0.5"/>
<rect x="348.40273269601306" y="511.34743408241184" width="1.0365384615384616" height="24.652565917588163" fill="#f44336" opacity="0.5"/>
<rect x="349.8863550466874" y="511.8146692189034" width="1.0365384615384616" height="24.18533078109658" fill="#4CAF50" opacity="0.5"/>
<rect x="351.36997739736177" y="494.70641203330166" width="1.0365384615384616" height="41.29358796669834" fill="#4CAF50" opacity="0.5"/>
<rect x="352.8535997480362" y="491.415255420825" width="1.0365384615384616" height="44.58474457917498" fill="#f44336" opacity="0.5"/>
<rect x="354.3372220987105" y="493.9203394101092" width="1.0365384615384616" height="42.07966058989081" fill="#4CAF50" opacity="0.5"/>
<rect x="355.8208444493849" y="502.3633347646645" width="1.0365384615384616" height="33.6366652353355" fill="#4CAF50" opacity="0.5"/>
<rect x="357.3044668000593" y="509.0830710840556" width="1.0365384615384616" height="26.916928915944425" fill="#f44336" opacity="0.5"/>
<rect x="358.78808915073364" y="513.1890609316325" width="1.0365384615384616" height="22.810939068367475" fill="#f44336" opacity="0.5"/>
<rect x="360.271711501408" y="507.5842277443952" width="1.0365384615384616" height="28.415772255604793" fill="#f44336" opacity="0.5"/>
<rect x="361.7553338520824" y="517.2208858002828" width="1.0365384615384616" height="18.77911419971724" fill="#4CAF50" opacity="0.5"/>
<rect x="363.23895620275675" y="510.4165430206194" width="1.0365384615384616" height="25.583456979380628" fill="#4CAF50" opacity="0.5"/>
<rect x="364.7225785534311" y="516.3024246704975" width="1.0365384615384616" height="19.697575329502456" fill="#f44336" opacity="0.5"/>
<rect x="366.2062009041055" y="506.70595024095593" width="1.0365384615384616" height="29.29404975904407" fill="#4CAF50" opacity="0.5"/>
<rect x="367.68982325477987" y="496.22077374961367" width="1.0365384615384616" height="39.77922625038633" fill="#4CAF50" opacity="0.5"/>
<rect x="369.1734456054543" y="519.0058883438586" width="1.0365384615384616" height="16.9941116561414" fill="#f44336" opacity="0.5"/>
<rect x="370.6570679561286" y="511.0771486378194" width="1.0365384615384616" height="24.92285136218061" fill="#4CAF50" opacity="0.5"/>
<rect x="372.14069030680304" y="483.2039018760923" width="1.0365384615384616" height="52.79609812390771" fill="#4CAF50" opacity="0.5"/>
<rect x="373.6243126574774" y="497.04708076810516" width="1.0365384615384616" height="38.95291923189484" fill="#4CAF50" opacity="0.5"/>
<rect x="375.10793500815174" y="513.5781880338432" width="1.0365384615384616" height="22.421811966156838" fill="#f44336" opacity="0.5"/>
<rect x="376.59155735882615" y="513.4309834544495" width="1.0365384615384616" height="22.56901654555054" fill="#4CAF50" opacity="0.5"/>
<rect x="378.0751797095005" y="515.6110361447595" width="1.0365384615384616" height="20.38896385524049" fill="#4CAF50" opacity="0.5"/>
<rect x="379.55880206017486" y="492.9929767905543" width="1.0365384615384616" height="43.00702320944572" fill="#4CAF50" opacity="0.5"/>
<rect x="381.04242441084926" y="484.91709173556654" width="1.0365384615384616" height="51.082908264433456" fill="#4CAF50" opacity="0.5"/>
<rect x="382.5260467615236" y="502.81373153172495" width="1.0365384615384616" height="33.186268468275046" fill="#4CAF50" opacity="0.5"/>
<rect x="384.00966911219797" y="469.62261462843276" width="1.0365384615384616" height="66.37738537156724" fill="#4CAF50" opacity="0.5"/>
<rect x="385.4932914628724" y="497.4686915387813" width="1.0365384615384616" height="38.531308461218714" fill="#4CAF50" opacity="0.5"/>
<rect x="386.97691381354673" y="492.5884074651215" width="1.0365384615384616" height="43.41159253487848" fill="#f44336" opacity="0.5"/>
<rect x="388.46053616422114" y="495.1260935837616" width="1.0365384615384616" height="40.87390641623841" fill="#f44336" opacity="0.5"/>
<rect x="389.9441585148955" y="515.4138495310794" width="1.0365384615384616" height="20.58615046892055" fill="#4CAF50" opacity="0.5"/>
<rect x="391.42778086556984" y="518.5216879155532" width="1.0365384615384616" height="17.47831208444677" fill="#f44336" opacity="0.5"/>
<rect x="392.91140321624425" y="509.8020863817497" width="1.0365384615384616" height="26.19791361825031" fill="#4CAF50" opacity="0.5"/>
<rect x="394.3950255669186" y="513.4804070302521" width="1.0365384615384616" height="22.51959296974792" fill="#f44336" opacity="0.5"/>
<rect x="395.87864791759296" y="512.6321847470235" width="1.0365384615384616" height="23.36781525297647" fill="#f44336" opacity="0.5"/>
<rect x="397.36227026826737" y="504.83508047477346" width="1.0365384615384616" height="31.164919525226537" fill="#4CAF50" opacity="0.5"/>
<rect x="398.8458926189417" y="510.9453778201555" width="1.0365384615384616" height="25.0546221798445" fill="#4CAF50" opacity="0.5"/>
<rect x="400.3295149696161" y="514.626913835685" width="1.0365384615384616" height="21.373086164315055" fill="#f44336" opacity="0.5"/>
<rect x="401.8131373202905" y="485.4947916524217" width="1.0365384615384616" height="50.505208347578275" fill="#f44336" opacity="0.5"/>
<rect x="403.29675967096483" y="508.29067772620726" width="1.0365384615384616" height="27.709322273792736" fill="#4CAF50" opacity="0.5"/>
<rect x="404.78038202163924" y="506.4466816591772" width="1.0365384615384616" height="29.553318340822784" fill="#4CAF50" opacity="0.5"/>
<rect x="406.2640043723136" y="510.45379897067227" width="1.0365384615384616" height="25.546201029327733" fill="#4CAF50" opacity="0.5"/>
<rect x="407.747626722988" y="520.9721445113462" width="1.0365384615384616" height="15.027855488653813" fill="#4CAF50" opacity="0.5"/>
<rect x="409.23124907366235" y="518.8660198781819" width="1.0365384615384616" height="17.133980121818126" fill="#4CAF50" opacity="0.5"/>
<rect x="410.7148714243367" y="524.2317143735282" width="1.0365384615384616" height="11.768285626471766" fill="#4CAF50" opacity="0.5"/>
<rect x="412.1984937750111" y="521.1137814288879" width="1.0365384615384616" height="14.886218571112067" fill="#f44336" opacity="0.5"/>
<rect x="413.68211612568547" y="523.4279318472104" width="1.0365384615384616" height="12.572068152789598" fill="#f44336" opacity="0.5"/>
<rect x="415.1657384763598" y="514.5176167412417" width="1.0365384615384616" height="21.48238325875832" fill="#4CAF50" opacity="0.5"/>
<rect x="416.64936082703423" y="509.6260704214951" width="1.0365384615384616" height="26.373929578504885" fill="#4CAF50" opacity="0.5"/>
<rect x="418.1329831777086" y="519.5113017330503" width="1.0365384615384616" height="16.488698266949655" fill="#4CAF50" opacity="0.5"/>
<rect x="419.61660552838293" y="513.1824609677349" width="1.0365384615384616" height="22.81753903226513" fill="#f44336" opacity="0.5"/>
<rect x="421.10022787905734" y="516.1635292764211" width="1.0365384615384616" height="19.83647072357894" fill="#4CAF50" opacity="0.5"/>
<rect x="422.5838502297317" y="515.0489307579855" width="1.0365384615384616" height="20.951069242014455" fill="#4CAF50" opacity="0.5"/>
<rect x="424.06747258040605" y="499.7631943722701" width="1.0365384615384616" height="36.23680562772989" fill="#f44336" opacity="0.5"/>
<rect x="425.55109493108046" y="505.6406060684796" width="1.0365384615384616" height="30.3593939315204" fill="#f44336" opacity="0.5"/>
<rect x="427.03471728175487" y="523.5408589217973" width="1.0365384615384616" height="12.45914107820272" fill="#4CAF50" opacity="0.5"/>
<rect x="428.5183396324292" y="518.0536573987971" width="1.0365384615384616" height="17.9463426012029" fill="#4CAF50" opacity="0.5"/>
<rect x="430.00196198310357" y="513.4530510260456" width="1.0365384615384616" height="22.546948973954386" fill="#f44336" opacity="0.5"/>
<rect x="431.485584333778" y="500.9774861915285" width="1.0365384615384616" height="35.0225138084715" fill="#4CAF50" opacity="0.5"/>
<rect x="432.96920668445233" y="516.5810700693603" width="1.0365384615384616" height="19.418929930639706" fill="#f44336" opacity="0.5"/>
<rect x="434.4528290351267" y="519.585280559149" width="1.0365384615384616" height="16.414719440850945" fill="#4CAF50" opacity="0.5"/>
<rect x="435.9364513858011" y="517.7003731774458" width="1.0365384615384616" height="18.29962682255416" fill="#f44336" opacity="0.5"/>
<rect x="437.42007373647544" y="490.6989816465961" width="1.0365384615384616" height="45.30101835340389" fill="#4CAF50" opacity="0.5"/>
<rect x="438.9036960871498" y="520.1959210650472" width="1.0365384615384616" height="15.804078934952827" fill="#f44336" opacity="0.5"/>
<rect x="440.3873184378242" y="515.2632265088464" width="1.0365384615384616" height="20.7367734911536" fill="#4CAF50" opacity="0.5"/>
<rect x="441.8709407884986" y="520.683497628731" width="1.0365384615384616" height="15.316502371269053" fill="#4CAF50" opacity="0.5"/>
<rect x="443.3545631391729" y="514.5851986792551" width="1.0365384615384616" height="21.414801320744914" fill="#4CAF50" opacity="0.5"/>
<rect x="444.8381854898473" y="481.19604055157305" width="1.0365384615384616" height="54.80395944842695" fill="#4CAF50" opacity="0.5"/>
<rect x="446.3218078405217" y="506.515245130283" width="1.0365384615384616" height="29.484754869716994" fill="#f44336" opacity="0.5"/>
<rect x="447.805430191196" y="519.100902439508" width="1.0365384615384616" height="16.89909756049201" fill="#f44336" opacity="0.5"/>
<rect x="449.28905254187043" y="524.5418957537327" width="1.0365384615384616" height="11.45810424626734" fill="#4CAF50" opacity="0.5"/>
<rect x="450.77267489254484" y="525.846387079592" width="1.0365384615384616" height="10.153612920408023" fill="#f44336" opacity="0.5"/>
<rect x="452.2562972432192" y="521.2907450762663" width="1.0365384615384616" height="14.709254923733738" fill="#f44336" opacity="0.5"/>
<rect x="453.73991959389355" y="518.9181342084967" width="1.0365384615384616" height="17.081865791503333" fill="#4CAF50" opacity="0.5"/>
<rect x="455.22354194456796" y="523.7665438411277" width="1.0365384615384616" height="12.233456158872286" fill="#f44336" opacity="0.5"/>
<rect x="456.7071642952423" y="526.8850775517126" width="1.0365384615384616" height="9.114922448287416" fill="#4CAF50" opacity="0.5"/>
<rect x="458.1907866459167" y="522.8194997907704" width="1.0365384615384616" height="13.180500209229649" fill="#4CAF50" opacity="0.5"/>
<rect x="459.674408996591" y="523.7429108934789" width="1.0365384615384616" height="12.257089106521107" fill="#f44336" opacity="0.5"/>
<rect x="461.1580313472654" y="527.1917474126637" width="1.0365384615384616" height="8.808252587336256" fill="#f44336" opacity="0.5"/>
<rect x="462.6416536979398" y="520.4980386432075" width="1.0365384615384616" height="15.501961356792549" fill="#4CAF50" opacity="0.5"/>
<rect x="464.1252760486142" y="512.4638602831574" width="1.0365384615384616" height="23.536139716842627" fill="#f44336" opacity="0.5"/>
<rect x="465.6088983992886" y="526.8112341094886" width="1.0365384615384616" height="9.188765890511377" fill="#4CAF50" opacity="0.5"/>
<rect x="467.09252074996294" y="525.6170383341492" width="1.0365384615384616" height="10.382961665850758" fill="#f44336" opacity="0.5"/>
<rect x="468.57614310063724" y="518.9998806844134" width="1.0365384615384616" height="17.00011931558663" fill="#f44336" opacity="0.5"/>
<rect x="470.05976545131165" y="526.9751501359309" width="1.0365384615384616" height="9.024849864069097" fill="#4CAF50" opacity="0.5"/>
<rect x="471.54338780198606" y="525.1857983853763" width="1.0365384615384616" height="10.814201614623698" fill="#4CAF50" opacity="0.5"/>
<rect x="473.0270101526604" y="528.4418398053207" width="1.0365384615384616" height="7.558160194679317" fill="#f44336" opacity="0.5"/>
<rect x="474.5106325033348" y="527.8028109931706" width="1.0365384615384616" height="8.197189006829376" fill="#f44336" opacity="0.5"/>
<rect x="475.99425485400917" y="530.4580187766494" width="1.0365384615384616" height="5.541981223350604" fill="#f44336" opacity="0.5"/>
<rect x="477.4778772046836" y="529.3235442130915" width="1.0365384615384616" height="6.676455786908491" fill="#4CAF50" opacity="0.5"/>
<rect x="478.9614995553579" y="524.8038043210704" width="1.0365384615384616" height="11.196195678929598" fill="#f44336" opacity="0.5"/>
<rect x="480.4451219060323" y="524.5011705918873" width="1.0365384615384616" height="11.49882940811267" fill="#4CAF50" opacity="0.5"/>
<rect x="481.92874425670664" y="527.9377887163694" width="1.0365384615384616" height="8.062211283630631" fill="#f44336" opacity="0.5"/>
<rect x="483.41236660738105" y="524.6923749305987" width="1.0365384615384616" height="11.307625069401297" fill="#4CAF50" opacity="0.5"/>
<rect x="484.89598895805545" y="522.7298248966842" width="1.0365384615384616" height="13.27017510331575" fill="#4CAF50" opacity="0.5"/>
<rect x="486.3796113087298" y="524.0239170486589" width="1.0365384615384616" height="11.97608295134114" fill="#4CAF50" opacity="0.5"/>
<rect x="487.8632336594041" y="519.8873219838797" width="1.0365384615384616" height="16.1126780161203" fill="#f44336" opacity="0.5"/>
<rect x="489.3468560100785" y="523.996349507148" width="1.0365384615384616" height="12.003650492851989" fill="#4CAF50" opacity="0.5"/>
<rect x="490.8304783607529" y="524.3473237411351" width="1.0365384615384616" height="11.652676258864858" fill="#f44336" opacity="0.5"/>
<rect x="492.3141007114273" y="529.4730080108964" width="1.0365384615384616" height="6.526991989103635" fill="#4CAF50" opacity="0.5"/>
<rect x="493.7977230621017" y="525.8211802943983" width="1.0365384615384616" height="10.178819705601654" fill="#4CAF50" opacity="0.5"/>
<rect x="495.28134541277603" y="515.7795298384692" width="1.0365384615384616" height="20.220470161530784" fill="#f44336" opacity="0.5"/>
<rect x="496.7649677634504" y="489.1537270223479" width="1.0365384615384616" height="46.84627297765212" fill="#4CAF50" opacity="0.5"/>
<rect x="498.24859011412474" y="516.0497560526164" width="1.0365384615384616" height="19.95024394738357" fill="#f44336" opacity="0.5"/>
<rect x="499.73221246479915" y="521.6072387296343" width="1.0365384615384616" height="14.392761270365668" fill="#f44336" opacity="0.5"/>
<rect x="501.2158348154735" y="515.9250928883807" width="1.0365384615384616" height="20.074907111619268" fill="#f44336" opacity="0.5"/>
<rect x="502.6994571661479" y="518.0373182574044" width="1.0365384615384616" height="17.962681742595578" fill="#4CAF50" opacity="0.5"/>
<rect x="504.1830795168223" y="514.2232837358838" width="1.0365384615384616" height="21.776716264116203" fill="#4CAF50" opacity="0.5"/>
<rect x="505.66670186749667" y="492.53535390917517" width="1.0365384615384616" height="43.46464609082483" fill="#4CAF50" opacity="0.5"/>
<rect x="507.15032421817097" y="515.8199250021196" width="1.0365384615384616" height="20.18007499788041" fill="#f44336" opacity="0.5"/>
<rect x="508.6339465688454" y="513.8387258394484" width="1.0365384615384616" height="22.161274160551557" fill="#4CAF50" opacity="0.5"/>
<rect x="510.1175689195198" y="505.93905135903526" width="1.0365384615384616" height="30.06094864096474" fill="#4CAF50" opacity="0.5"/>
<rect x="511.6011912701942" y="490.18843213165326" width="1.0365384615384616" height="45.81156786834674" fill="#4CAF50" opacity="0.5"/>
<rect x="513.0848136208685" y="492.88759736698876" width="1.0365384615384616" height="43.11240263301124" fill="#4CAF50" opacity="0.5"/>
<rect x="514.568435971543" y="510.6898746023953" width="1.0365384615384616" height="25.31012539760468" fill="#f44336" opacity="0.5"/>
<rect x="516.0520583222174" y="506.93566283056225" width="1.0365384615384616" height="29.06433716943775" fill="#f44336" opacity="0.5"/>
<rect x="517.5356806728917" y="510.49944872096427" width="1.0365384615384616" height="25.500551279035733" fill="#f44336" opacity="0.5"/>
<rect x="519.0193030235661" y="510.290407556745" width="1.0365384615384616" height="25.70959244325502" fill="#f44336" opacity="0.5"/>
<rect x="520.5029253742405" y="511.6865706888441" width="1.0365384615384616" height="24.313429311155915" fill="#4CAF50" opacity="0.5"/>
<rect x="521.9865477249148" y="507.3132907649052" width="1.0365384615384616" height="28.68670923509478" fill="#4CAF50" opacity="0.5"/>
<rect x="523.4701700755893" y="505.0023472521176" width="1.0365384615384616" height="30.997652747882398" fill="#4CAF50" opacity="0.5"/>
<rect x="524.9537924262636" y="513.6271293045918" width="1.0365384615384616" height="22.37287069540821" fill="#f44336" opacity="0.5"/>
<rect x="526.4374147769379" y="502.8000577603678" width="1.0365384615384616" height="33.19994223963221" fill="#4CAF50" opacity="0.5"/>
<rect x="527.9210371276123" y="507.07811205135283" width="1.0365384615384616" height="28.921887948647168" fill="#4CAF50" opacity="0.5"/>
<rect x="529.4046594782867" y="498.6225429194233" width="1.0365384615384616" height="37.377457080576676" fill="#4CAF50" opacity="0.5"/>
<rect x="530.888281828961" y="508.7453983157699" width="1.0365384615384616" height="27.254601684230124" fill="#f44336" opacity="0.5"/>
<rect x="532.3719041796355" y="510.61304425343315" width="1.0365384615384616" height="25.386955746566855" fill="#f44336" opacity="0.5"/>
<rect x="533.8555265303098" y="511.0643125541877" width="1.0365384615384616" height="24.935687445812277" fill="#f44336" opacity="0.5"/>
<rect x="535.3391488809841" y="517.2940269386561" width="1.0365384615384616" height="18.70597306134391" fill="#4CAF50" opacity="0.5"/>
<rect x="536.8227712316585" y="505.9602897043982" width="1.0365384615384616" height="30.03971029560182" fill="#4CAF50" opacity="0.5"/>
<rect x="538.3063935823329" y="505.22745678997995" width="1.0365384615384616" height="30.772543210020046" fill="#f44336" opacity="0.5"/>
<rect x="539.7900159330072" y="512.024108073255" width="1.0365384615384616" height="23.97589192674502" fill="#f44336" opacity="0.5"/>
<rect x="541.2736382836817" y="513.1274020381427" width="1.0365384615384616" height="22.87259796185731" fill="#f44336" opacity="0.5"/>
<rect x="542.757260634356" y="508.3985786744414" width="1.0365384615384616" height="27.60142132555859" fill="#f44336" opacity="0.5"/>
<rect x="544.2408829850303" y="512.5950557193534" width="1.0365384615384616" height="23.404944280646646" fill="#4CAF50" opacity="0.5"/>
<rect x="545.7245053357047" y="509.84514691543563" width="1.0365384615384616" height="26.154853084564365" fill="#4CAF50" opacity="0.5"/>
<rect x="547.2081276863792" y="506.5183081904509" width="1.0365384615384616" height="29.48169180954909" fill="#f44336" opacity="0.5"/>
<rect x="548.6917500370536" y="508.9664378758954" width="1.0365384615384616" height="27.033562124104606" fill="#f44336" opacity="0.5"/>
<rect x="550.175372387728" y="501.0988070663545" width="1.0365384615384616" height="34.90119293364552" fill="#f44336" opacity="0.5"/>
<rect x="551.6589947384023" y="518.3046844871959" width="1.0365384615384616" height="17.695315512804086" fill="#4CAF50" opacity="0.5"/>
<rect x="553.1426170890766" y="512.3867253204769" width="1.0365384615384616" height="23.6132746795231" fill="#f44336" opacity="0.5"/>
<rect x="554.6262394397511" y="520.4222321347986" width="1.0365384615384616" height="15.577767865201395" fill="#f44336" opacity="0.5"/>
<rect x="556.1098617904254" y="523.6732135824215" width="1.0365384615384616" height="12.326786417578546" fill="#f44336" opacity="0.5"/>
<rect x="557.5934841410998" y="517.6647333723986" width="1.0365384615384616" height="18.335266627601413" fill="#4CAF50" opacity="0.5"/>
<rect x="559.0771064917742" y="514.4477671233251" width="1.0365384615384616" height="21.552232876674907" fill="#4CAF50" opacity="0.5"/>
<rect x="560.5607288424485" y="521.9840120532674" width="1.0365384615384616" height="14.015987946732594" fill="#f44336" opacity="0.5"/>
<rect x="562.044351193123" y="526.3895556468751" width="1.0365384615384616" height="9.610444353124876" fill="#4CAF50" opacity="0.5"/>
<rect x="563.5279735437973" y="523.2781888201637" width="1.0365384615384616" height="12.721811179836322" fill="#4CAF50" opacity="0.5"/>
<rect x="565.0115958944716" y="524.6950741466029" width="1.0365384615384616" height="11.304925853397094" fill="#4CAF50" opacity="0.5"/>
<rect x="566.495218245146" y="518.2663200816679" width="1.0365384615384616" height="17.733679918332086" fill="#f44336" opacity="0.5"/>
<rect x="567.9788405958204" y="525.0317653817962" width="1.0365384615384616" height="10.968234618203837" fill="#4CAF50" opacity="0.5"/>
<rect x="569.4624629464947" y="523.903848474675" width="1.0365384615384616" height="12.096151525325013" fill="#4CAF50" opacity="0.5"/>
<rect x="570.9460852971692" y="512.4747840695572" width="1.0365384615384616" height="23.525215930442755" fill="#4CAF50" opacity="0.5"/>
<rect x="572.4297076478435" y="525.4190140327437" width="1.0365384615384616" height="10.58098596725631" fill="#f44336" opacity="0.5"/>
<rect x="573.9133299985178" y="521.7651470966313" width="1.0365384615384616" height="14.234852903368733" fill="#4CAF50" opacity="0.5"/>
<rect x="575.3969523491922" y="518.3738148782776" width="1.0365384615384616" height="17.626185121722415" fill="#f44336" opacity="0.5"/>
<rect x="576.8805746998667" y="523.9852649523968" width="1.0365384615384616" height="12.014735047603153" fill="#4CAF50" opacity="0.5"/>
<rect x="578.364197050541" y="525.1319579106575" width="1.0365384615384616" height="10.868042089342453" fill="#f44336" opacity="0.5"/>
<rect x="579.8478194012155" y="520.3201188472132" width="1.0365384615384616" height="15.679881152786834" fill="#4CAF50" opacity="0.5"/>
<rect x="581.3314417518898" y="523.8864178007915" width="1.0365384615384616" height="12.113582199208508" fill="#f44336" opacity="0.5"/>
<rect x="582.8150641025641" y="525.4915036362194" width="1.0365384615384616" height="10.508496363780637" fill="#f44336" opacity="0.5"/>
<rect x="584.2986864532385" y="523.5935232491036" width="1.0365384615384616" height="12.406476750896445" fill="#f44336" opacity="0.5"/>
<rect x="585.7823088039129" y="526.4593798803152" width="1.0365384615384616" height="9.540620119684831" fill="#4CAF50" opacity="0.5"/>
<rect x="587.2659311545873" y="526.7769819891583" width="1.0365384615384616" height="9.223018010841656" fill="#f44336" opacity="0.5"/>
<rect x="588.7495535052617" y="523.7069918591898" width="1.0365384615384616" height="12.29300814081023" fill="#f44336" opacity="0.5"/>
<rect x="590.233175855936" y="524.2750964439168" width="1.0365384615384616" height="11.724903556083177" fill="#4CAF50" opacity="0.5"/>
<rect x="591.7167982066104" y="527.1028848218266" width="1.0365384615384616" height="8.897115178173408" fill="#f44336" opacity="0.5"/>
<rect x="593.2004205572847" y="522.6256300820235" width="1.0365384615384616" height="13.374369917976537" fill="#f44336" opacity="0.5"/>
<rect x="594.6840429079591" y="516.446066961685" width="1.0365384615384616" height="19.553933038314995" fill="#4CAF50" opacity="0.5"/>
<rect x="596.1676652586335" y="482.37552179201754" width="1.0365384615384616" height="53.62447820798246" fill="#4CAF50" opacity="0.5"/>
<rect x="597.6512876093079" y="513.5520335615258" width="1.0365384615384616" height="22.447966438474168" fill="#f44336" opacity="0.5"/>
<rect x="599.1349099599823" y="519.7486212041233" width="1.0365384615384616" height="16.25137879587669" fill="#f44336" opacity="0.5"/>
<rect x="600.6185323106566" y="519.5838759514478" width="1.0365384615384616" height="16.416124048552206" fill="#f44336" opacity="0.5"/>
<rect x="602.1021546613309" y="524.125632646112" width="1.0365384615384616" height="11.874367353888033" fill="#f44336" opacity="0.5"/>
<rect x="603.5857770120053" y="525.9623095224094" width="1.0365384615384616" height="10.037690477590559" fill="#f44336" opacity="0.5"/>
<rect x="605.0693993626797" y="525.1600077572225" width="1.0365384615384616" height="10.839992242777498" fill="#f44336" opacity="0.5"/>
<rect x="606.5530217133542" y="524.0202955300074" width="1.0365384615384616" height="11.979704469992612" fill="#f44336" opacity="0.5"/>
<rect x="608.0366440640286" y="506.5578318204071" width="1.0365384615384616" height="29.442168179592898" fill="#4CAF50" opacity="0.5"/>
<rect x="609.5202664147029" y="512.8151052848941" width="1.0365384615384616" height="23.184894715105884" fill="#4CAF50" opacity="0.5"/>
<rect x="611.0038887653773" y="524.4057164986448" width="1.0365384615384616" height="11.594283501355221" fill="#f44336" opacity="0.5"/>
<rect x="612.4875111160516" y="514.9350052273218" width="1.0365384615384616" height="21.064994772678233" fill="#4CAF50" opacity="0.5"/>
<rect x="613.971133466726" y="524.1037935348046" width="1.0365384615384616" height="11.896206465195405" fill="#f44336" opacity="0.5"/>
<rect x="615.4547558174004" y="458.21326550008615" width="1.0365384615384616" height="77.78673449991385" fill="#4CAF50" opacity="0.5"/>
<rect x="616.9383781680748" y="483.2522762268651" width="1.0365384615384616" height="52.74772377313491" fill="#4CAF50" opacity="0.5"/>
<rect x="618.4220005187492" y="501.6804415770717" width="1.0365384615384616" height="34.31955842292831" fill="#4CAF50" opacity="0.5"/>
<rect x="619.9056228694235" y="511.6505162706802" width="1.0365384615384616" height="24.349483729319786" fill="#f44336" opacity="0.5"/>
<rect x="621.3892452200978" y="512.497215485317" width="1.0365384615384616" height="23.502784514682958" fill="#f44336" opacity="0.5"/>
<rect x="622.8728675707722" y="488.4983167613442" width="1.0365384615384616" height="47.5016832386558" fill="#4CAF50" opacity="0.5"/>
<rect x="624.3564899214466" y="514.4007804572693" width="1.0365384615384616" height="21.59921954273068" fill="#f44336" opacity="0.5"/>
<rect x="625.840112272121" y="512.6908228878065" width="1.0365384615384616" height="23.309177112193538" fill="#f44336" opacity="0.5"/>
<rect x="627.3237346227954" y="521.7010512933946" width="1.0365384615384616" height="14.298948706605415" fill="#f44336" opacity="0.5"/>
<rect x="628.8073569734697" y="517.4329561787013" width="1.0365384615384616" height="18.56704382129874" fill="#f44336" opacity="0.5"/>
<rect x="630.2909793241441" y="499.2038812779144" width="1.0365384615384616" height="36.79611872208562" fill="#f44336" opacity="0.5"/>
<rect x="631.7746016748184" y="516.8204287600478" width="1.0365384615384616" height="19.179571239952224" fill="#4CAF50" opacity="0.5"/>
<rect x="633.2582240254928" y="504.30278492493716" width="1.0365384615384616" height="31.697215075062843" fill="#4CAF50" opacity="0.5"/>
<rect x="634.7418463761672" y="511.4083568260823" width="1.0365384615384616" height="24.591643173917703" fill="#4CAF50" opacity="0.5"/>
<rect x="636.2254687268417" y="500.8080194262185" width="1.0365384615384616" height="35.19198057378151" fill="#4CAF50" opacity="0.5"/>
<rect x="637.709091077516" y="508.9881162188515" width="1.0365384615384616" height="27.011883781148526" fill="#4CAF50" opacity="0.5"/>
<rect x="639.1927134281904" y="515.5441057416438" width="1.0365384615384616" height="20.45589425835624" fill="#f44336" opacity="0.5"/>
<rect x="640.6763357788647" y="520.7811940174003" width="1.0365384615384616" height="15.218805982599747" fill="#f44336" opacity="0.5"/>
<rect x="642.1599581295391" y="518.7951548812041" width="1.0365384615384616" height="17.2048451187959" fill="#f44336" opacity="0.5"/>
<rect x="643.6435804802135" y="512.9958512192753" width="1.0365384615384616" height="23.004148780724677" fill="#4CAF50" opacity="0.5"/>
<rect x="645.1272028308879" y="520.7296296840769" width="1.0365384615384616" height="15.27037031592306" fill="#f44336" opacity="0.5"/>
<rect x="646.6108251815623" y="519.2858029665479" width="1.0365384615384616" height="16.714197033452137" fill="#f44336" opacity="0.5"/>
<rect x="648.0944475322366" y="520.0256166120116" width="1.0365384615384616" height="15.974383387988382" fill="#f44336" opacity="0.5"/>
<rect x="649.578069882911" y="523.2620104471223" width="1.0365384615384616" height="12.737989552877707" fill="#f44336" opacity="0.5"/>
<rect x="651.0616922335853" y="519.9150079862811" width="1.0365384615384616" height="16.084992013718875" fill="#f44336" opacity="0.5"/>
<rect x="652.5453145842597" y="522.2270261085752" width="1.0365384615384616" height="13.77297389142484" fill="#f44336" opacity="0.5"/>
<rect x="654.0289369349341" y="521.8915110207944" width="1.0365384615384616" height="14.108488979205617" fill="#4CAF50" opacity="0.5"/>
<rect x="655.5125592856085" y="525.4798606229846" width="1.0365384615384616" height="10.520139377015425" fill="#f44336" opacity="0.5"/>
<rect x="656.9961816362828" y="522.4808370279" width="1.0365384615384616" height="13.519162972100048" fill="#4CAF50" opacity="0.5"/>
<rect x="658.4798039869572" y="526.9498079668624" width="1.0365384615384616" height="9.050192033137591" fill="#4CAF50" opacity="0.5"/>
<rect x="659.9634263376315" y="526.6782279139669" width="1.0365384615384616" height="9.321772086033093" fill="#4CAF50" opacity="0.5"/>
<rect x="661.4470486883059" y="522.55929198336" width="1.0365384615384616" height="13.440708016639974" fill="#f44336" opacity="0.5"/>
<rect x="662.9306710389803" y="526.7587728579946" width="1.0365384615384616" height="9.241227142005414" fill="#f44336" opacity="0.5"/>
<rect x="664.4142933896547" y="529.6792568826974" width="1.0365384615384616" height="6.320743117302641" fill="#4CAF50" opacity="0.5"/>
<rect x="665.897915740329" y="525.3668573949681" width="1.0365384615384616" height="10.633142605031935" fill="#4CAF50" opacity="0.5"/>
<rect x="667.3815380910034" y="526.3243090807025" width="1.0365384615384616" height="9.675690919297494" fill="#f44336" opacity="0.5"/>
<rect x="668.8651604416779" y="526.9741178338853" width="1.0365384615384616" height="9.025882166114684" fill="#f44336" opacity="0.5"/>
<rect x="670.3487827923522" y="527.36209417316" width="1.0365384615384616" height="8.637905826839983" fill="#f44336" opacity="0.5"/>
<rect x="671.8324051430266" y="527.8892282127688" width="1.0365384615384616" height="8.110771787231215" fill="#f44336" opacity="0.5"/>
<rect x="673.316027493701" y="523.5126313838966" width="1.0365384615384616" height="12.487368616103367" fill="#4CAF50" opacity="0.5"/>
<rect x="674.7996498443754" y="524.4253302375098" width="1.0365384615384616" height="11.574669762490203" fill="#4CAF50" opacity="0.5"/>
<rect x="676.2832721950497" y="525.931408152981" width="1.0365384615384616" height="10.068591847018979" fill="#4CAF50" opacity="0.5"/>
<rect x="677.7668945457241" y="520.1534020668605" width="1.0365384615384616" height="15.846597933139492" fill="#4CAF50" opacity="0.5"/>
<rect x="679.2505168963984" y="517.8497185143602" width="1.0365384615384616" height="18.150281485639766" fill="#4CAF50" opacity="0.5"/>
<rect x="680.7341392470728" y="437.0" width="1.0365384615384616" height="99.0" fill="#4CAF50" opacity="0.5"/>
<rect x="682.2177615977472" y="471.20012446085764" width="1.0365384615384616" height="64.79987553914236" fill="#f44336" opacity="0.5"/>
<rect x="683.7013839484216" y="480.59841382064235" width="1.0365384615384616" height="55.40158617935765" fill="#f44336" opacity="0.5"/>
<rect x="685.1850062990959" y="513.4392757167824" width="1.0365384615384616" height="22.56072428321761" fill="#f44336" opacity="0.5"/>
<rect x="686.6686286497703" y="506.4826091549585" width="1.0365384615384616" height="29.51739084504152" fill="#4CAF50" opacity="0.5"/>
<rect x="688.1522510004447" y="511.2658652978308" width="1.0365384615384616" height="24.73413470216917" fill="#f44336" opacity="0.5"/>
<rect x="689.635873351119" y="519.7191244423962" width="1.0365384615384616" height="16.28087555760385" fill="#f44336" opacity="0.5"/>
<rect x="691.1194957017934" y="515.5550210665514" width="1.0365384615384616" height="20.444978933448624" fill="#4CAF50" opacity="0.5"/>
<rect x="692.6031180524678" y="526.7630374500516" width="1.0365384615384616" height="9.23696254994843" fill="#f44336" opacity="0.5"/>
<rect x="694.0867404031421" y="517.7927895949971" width="1.0365384615384616" height="18.20721040500291" fill="#4CAF50" opacity="0.5"/>
<rect x="695.5703627538165" y="504.64614381596544" width="1.0365384615384616" height="31.353856184034555" fill="#4CAF50" opacity="0.5"/>
<rect x="697.053985104491" y="499.22410424421605" width="1.0365384615384616" height="36.77589575578395" fill="#4CAF50" opacity="0.5"/>
<rect x="698.5376074551652" y="505.57271951674795" width="1.0365384615384616" height="30.427280483252048" fill="#f44336" opacity="0.5"/>
<rect x="700.0212298058397" y="506.2356943517574" width="1.0365384615384616" height="29.764305648242612" fill="#f44336" opacity="0.5"/>
<rect x="701.5048521565141" y="522.7495909424085" width="1.0365384615384616" height="13.250409057591469" fill="#4CAF50" opacity="0.5"/>
<rect x="702.9884745071885" y="520.4478027641558" width="1.0365384615384616" height="15.552197235844233" fill="#f44336" opacity="0.5"/>
<rect x="704.4720968578628" y="522.6754851939271" width="1.0365384615384616" height="13.324514806072898" fill="#4CAF50" opacity="0.5"/>
<rect x="705.9557192085372" y="526.7084692870056" width="1.0365384615384616" height="9.291530712994359" fill="#f44336" opacity="0.5"/>
<rect x="707.4393415592116" y="531.1624718463079" width="1.0365384615384616" height="4.837528153692119" fill="#f44336" opacity="0.5"/>
<rect x="708.9229639098859" y="527.0475212785161" width="1.0365384615384616" height="8.952478721483885" fill="#f44336" opacity="0.5"/>
<rect x="710.4065862605603" y="519.122242322777" width="1.0365384615384616" height="16.87775767722303" fill="#4CAF50" opacity="0.5"/>
<rect x="711.8902086112347" y="528.6504071259781" width="1.0365384615384616" height="7.349592874021937" fill="#f44336" opacity="0.5"/>
<rect x="713.373830961909" y="526.022758422518" width="1.0365384615384616" height="9.977241577482005" fill="#4CAF50" opacity="0.5"/>
<rect x="714.8574533125834" y="514.488187671452" width="1.0365384615384616" height="21.51181232854799" fill="#4CAF50" opacity="0.5"/>
<rect x="716.3410756632578" y="525.2992077650174" width="1.0365384615384616" height="10.7007922349826" fill="#f44336" opacity="0.5"/>
<rect x="717.8246980139321" y="511.2422831191351" width="1.0365384615384616" height="24.757716880864905" fill="#4CAF50" opacity="0.5"/>
<rect x="719.3083203646065" y="524.6940079985887" width="1.0365384615384616" height="11.305992001411255" fill="#f44336" opacity="0.5"/>
<rect x="720.7919427152809" y="525.4265786067494" width="1.0365384615384616" height="10.573421393250555" fill="#f44336" opacity="0.5"/>
<rect x="722.2755650659552" y="525.9258912600819" width="1.0365384615384616" height="10.074108739918074" fill="#4CAF50" opacity="0.5"/>
<rect x="723.7591874166296" y="512.8991702096672" width="1.0365384615384616" height="23.100829790332796" fill="#f44336" opacity="0.5"/>
<rect x="725.242809767304" y="519.9886652756771" width="1.0365384615384616" height="16.011334724322865" fill="#f44336" opacity="0.5"/>
<rect x="726.7264321179784" y="518.2221933999678" width="1.0365384615384616" height="17.77780660003225" fill="#f44336" opacity="0.5"/>
<rect x="728.2100544686527" y="526.213658147511" width="1.0365384615384616" height="9.786341852489045" fill="#4CAF50" opacity="0.5"/>
<rect x="729.6936768193272" y="525.1952583336296" width="1.0365384615384616" height="10.804741666370433" fill="#4CAF50" opacity="0.5"/>
<rect x="731.1772991700016" y="524.3766343500344" width="1.0365384615384616" height="11.623365649965649" fill="#f44336" opacity="0.5"/>
<rect x="732.6609215206759" y="505.0519400577638" width="1.0365384615384616" height="30.948059942236227" fill="#4CAF50" opacity="0.5"/>
<rect x="734.1445438713503" y="508.48895587237814" width="1.0365384615384616" height="27.511044127621858" fill="#4CAF50" opacity="0.5"/>
<rect x="735.6281662220247" y="513.4575948473444" width="1.0365384615384616" height="22.542405152655647" fill="#4CAF50" opacity="0.5"/>
<rect x="737.111788572699" y="506.54075652919505" width="1.0365384615384616" height="29.45924347080495" fill="#4CAF50" opacity="0.5"/>
<rect x="738.5954109233734" y="506.5493534052463" width="1.0365384615384616" height="29.45064659475372" fill="#4CAF50" opacity="0.5"/>
<rect x="740.0790332740478" y="519.7912586632004" width="1.0365384615384616" height="16.208741336799562" fill="#f44336" opacity="0.5"/>
<rect x="741.5626556247221" y="520.1636658568705" width="1.0365384615384616" height="15.836334143129534" fill="#4CAF50" opacity="0.5"/>
<rect x="743.0462779753965" y="519.9327855813438" width="1.0365384615384616" height="16.06721441865625" fill="#f44336" opacity="0.5"/>
<rect x="744.5299003260709" y="518.8389515647094" width="1.0365384615384616" height="17.16104843529058" fill="#f44336" opacity="0.5"/>
<rect x="746.0135226767453" y="507.0676536470228" width="1.0365384615384616" height="28.93234635297722" fill="#f44336" opacity="0.5"/>
<rect x="747.4971450274196" y="519.6296018551693" width="1.0365384615384616" height="16.370398144830688" fill="#4CAF50" opacity="0.5"/>
<rect x="748.980767378094" y="525.5602278756766" width="1.0365384615384616" height="10.43977212432344" fill="#4CAF50" opacity="0.5"/>
<rect x="750.4643897287683" y="521.1262790528325" width="1.0365384615384616" height="14.873720947167499" fill="#f44336" opacity="0.5"/>
<rect x="751.9480120794427" y="527.3233066930231" width="1.0365384615384616" height="8.676693306976858" fill="#4CAF50" opacity="0.5"/>
<rect x="753.4316344301171" y="520.8559174548104" width="1.0365384615384616" height="15.144082545189576" fill="#4CAF50" opacity="0.5"/>
<rect x="754.9152567807915" y="527.0442466810438" width="1.0365384615384616" height="8.955753318956226" fill="#f44336" opacity="0.5"/>
<rect x="756.3988791314658" y="524.3117347050409" width="1.0365384615384616" height="11.688265294959137" fill="#4CAF50" opacity="0.5"/>
<rect x="757.8825014821402" y="527.2230972411775" width="1.0365384615384616" height="8.77690275882253" fill="#f44336" opacity="0.5"/>
<rect x="759.3661238328147" y="524.2743095251444" width="1.0365384615384616" height="11.725690474855583" fill="#f44336" opacity="0.5"/>
<rect x="760.849746183489" y="528.2735999563763" width="1.0365384615384616" height="7.726400043623698" fill="#f44336" opacity="0.5"/>
<rect x="762.3333685341634" y="526.7683428056462" width="1.0365384615384616" height="9.23165719435383" fill="#4CAF50" opacity="0.5"/>
<rect x="763.8169908848378" y="525.0957088781736" width="1.0365384615384616" height="10.904291121826418" fill="#f44336" opacity="0.5"/>
<rect x="765.3006132355122" y="521.0997776593358" width="1.0365384615384616" height="14.900222340664186" fill="#4CAF50" opacity="0.5"/>
<rect x="766.7842355861865" y="520.5868166191227" width="1.0365384615384616" height="15.413183380877285" fill="#4CAF50" opacity="0.5"/>
<rect x="768.2678579368609" y="523.1267873406505" width="1.0365384615384616" height="12.87321265934952" fill="#4CAF50" opacity="0.5"/>
<rect x="769.7514802875352" y="483.07530411799456" width="1.0365384615384616" height="52.92469588200544" fill="#4CAF50" opacity="0.5"/>
<rect x="771.2351026382096" y="504.26052823300796" width="1.0365384615384616" height="31.73947176699204" fill="#f44336" opacity="0.5"/>
<rect x="772.718724988884" y="507.29835623121375" width="1.0365384615384616" height="28.701643768786255" fill="#4CAF50" opacity="0.5"/>
<rect x="774.2023473395584" y="508.19409825450526" width="1.0365384615384616" height="27.805901745494737" fill="#4CAF50" opacity="0.5"/>
<rect x="775.6859696902327" y="513.7469609567947" width="1.0365384615384616" height="22.253039043205263" fill="#f44336" opacity="0.5"/>
<rect x="777.1695920409071" y="495.04024328413925" width="1.0365384615384616" height="40.95975671586075" fill="#4CAF50" opacity="0.5"/>
<rect x="778.6532143915814" y="505.87232403173175" width="1.0365384615384616" height="30.12767596826825" fill="#f44336" opacity="0.5"/>
<rect x="780.1368367422558" y="508.13223628520325" width="1.0365384615384616" height="27.86776371479675" fill="#f44336" opacity="0.5"/>
<rect x="781.6204590929302" y="506.3086577987949" width="1.0365384615384616" height="29.69134220120509" fill="#f44336" opacity="0.5"/>
<rect x="783.1040814436046" y="497.0407092644963" width="1.0365384615384616" height="38.959290735503714" fill="#4CAF50" opacity="0.5"/>
<rect x="784.587703794279" y="511.562990595607" width="1.0365384615384616" height="24.437009404392995" fill="#4CAF50" opacity="0.5"/>
<rect x="786.0713261449533" y="499.4454738025364" width="1.0365384615384616" height="36.55452619746359" fill="#4CAF50" opacity="0.5"/>
<rect x="787.5549484956277" y="508.82883709012185" width="1.0365384615384616" height="27.17116290987815" fill="#f44336" opacity="0.5"/>
<rect x="789.038570846302" y="515.2262920954962" width="1.0365384615384616" height="20.773707904503794" fill="#f44336" opacity="0.5"/>
<rect x="790.5221931969764" y="517.1081787244924" width="1.0365384615384616" height="18.891821275507596" fill="#f44336" opacity="0.5"/>
<rect x="792.0058155476509" y="513.0193995520024" width="1.0365384615384616" height="22.98060044799763" fill="#4CAF50" opacity="0.5"/>
<rect x="793.4894378983253" y="511.2611945541494" width="1.0365384615384616" height="24.738805445850574" fill="#4CAF50" opacity="0.5"/>
<rect x="794.9730602489997" y="510.71920213427893" width="1.0365384615384616" height="25.28079786572107" fill="#4CAF50" opacity="0.5"/>
<rect x="796.456682599674" y="496.20032232302316" width="1.0365384615384616" height="39.79967767697684" fill="#4CAF50" opacity="0.5"/>
<rect x="797.9403049503483" y="509.7257637223181" width="1.0365384615384616" height="26.274236277681894" fill="#4CAF50" opacity="0.5"/>
<rect x="799.4239273010227" y="513.3037733810687" width="1.0365384615384616" height="22.69622661893129" fill="#4CAF50" opacity="0.5"/>
<rect x="800.9075496516971" y="507.6670657528027" width="1.0365384615384616" height="28.332934247197272" fill="#4CAF50" opacity="0.5"/>
<rect x="802.3911720023715" y="514.9516659054173" width="1.0365384615384616" height="21.048334094582742" fill="#4CAF50" opacity="0.5"/>
<rect x="803.8747943530459" y="510.0940755537747" width="1.0365384615384616" height="25.9059244462253" fill="#f44336" opacity="0.5"/>
<rect x="805.3584167037202" y="516.9291166270543" width="1.0365384615384616" height="19.070883372945673" fill="#f44336" opacity="0.5"/>
<rect x="806.8420390543945" y="520.0957454591701" width="1.0365384615384616" height="15.904254540829925" fill="#4CAF50" opacity="0.5"/>
<rect x="808.3256614050689" y="520.99898436453" width="1.0365384615384616" height="15.001015635470026" fill="#f44336" opacity="0.5"/>
<rect x="809.8092837557433" y="513.2269599550908" width="1.0365384615384616" height="22.77304004490918" fill="#f44336" opacity="0.5"/>
<rect x="811.2929061064177" y="493.4828971875709" width="1.0365384615384616" height="42.51710281242907" fill="#f44336" opacity="0.5"/>
<rect x="812.7765284570921" y="507.28043479078406" width="1.0365384615384616" height="28.719565209215943" fill="#f44336" opacity="0.5"/>
<rect x="814.2601508077665" y="510.3557979682846" width="1.0365384615384616" height="25.644202031715395" fill="#4CAF50" opacity="0.5"/>
<rect x="815.7437731584408" y="515.3411060828385" width="1.0365384615384616" height="20.65889391716155" fill="#f44336" opacity="0.5"/>
<rect x="817.2273955091151" y="519.645027155407" width="1.0365384615384616" height="16.35497284459302" fill="#4CAF50" opacity="0.5"/>
<rect x="818.7110178597895" y="523.5353420288983" width="1.0365384615384616" height="12.464657971101701" fill="#f44336" opacity="0.5"/>
<rect x="820.194640210464" y="522.0357625394186" width="1.0365384615384616" height="13.964237460581444" fill="#4CAF50" opacity="0.5"/>
<rect x="821.6782625611384" y="518.4090569931925" width="1.0365384615384616" height="17.590943006807493" fill="#f44336" opacity="0.5"/>
<rect x="823.1618849118128" y="521.740871075577" width="1.0365384615384616" height="14.259128924422953" fill="#4CAF50" opacity="0.5"/>
<rect x="824.6455072624871" y="523.6793481642493" width="1.0365384615384616" height="12.32065183575071" fill="#4CAF50" opacity="0.5"/>
<rect x="826.1291296131614" y="522.1845409563572" width="1.0365384615384616" height="13.815459043642818" fill="#4CAF50" opacity="0.5"/>
<rect x="827.6127519638358" y="519.0603888149672" width="1.0365384615384616" height="16.939611185032845" fill="#4CAF50" opacity="0.5"/>
<rect x="829.0963743145102" y="511.5720951611888" width="1.0365384615384616" height="24.427904838811173" fill="#4CAF50" opacity="0.5"/>
<rect x="830.5799966651846" y="521.014765047439" width="1.0365384615384616" height="14.985234952560972" fill="#4CAF50" opacity="0.5"/>
<rect x="832.063619015859" y="513.2816211945508" width="1.0365384615384616" height="22.71837880544922" fill="#f44336" opacity="0.5"/>
<rect x="833.5472413665334" y="520.401586093888" width="1.0365384615384616" height="15.598413906112" fill="#4CAF50" opacity="0.5"/>
<rect x="835.0308637172077" y="513.5519320236197" width="1.0365384615384616" height="22.448067976380344" fill="#f44336" opacity="0.5"/>
<rect x="836.514486067882" y="518.1137086087734" width="1.0365384615384616" height="17.886291391226564" fill="#4CAF50" opacity="0.5"/>
<rect x="837.9981084185564" y="514.6194507995854" width="1.0365384615384616" height="21.380549200414634" fill="#4CAF50" opacity="0.5"/>
<rect x="839.4817307692308" y="513.3959359538546" width="1.0365384615384616" height="22.604064046145368" fill="#4CAF50" opacity="0.5"/>
<polyline points="792.52408477842,43.18428631171558 794.0077071290945,45.93547647878215 795.4913294797689,48.68666664584878 796.9749518304432,51.43785681291534 798.4585741811175,54.1890469799819 799.9421965317919,56.940237147048435 801.4258188824663,59.6914273141151 802.9094412331407,62.44261748118163 804.3930635838151,65.1938076482482 805.8766859344894,67.94499781531472 807.3603082851637,70.69618798238128 808.8439306358381,73.44737814944791 810.3275529865125,76.19856831651448 811.8111753371869,78.94975848358101 813.2947976878613,81.70094865064758 814.7784200385357,84.4521388177142 816.26204238921,87.20332898478077 817.7456647398843,89.9545191518473 819.2292870905587,92.70570931891385 820.7129094412331,95.45689948598049 822.1965317919075,98.20808965304705 823.680154142582,100.95927982011361 825.1637764932563,103.7104699871802 826.6473988439305,106.46166015424674 828.131021194605,109.21285032131334 829.6146435452794,111.96404048837991 831.0982658959538,114.7152306554465 832.5818882466282,117.46642082251303 834.0655105973026,120.21761098957963 835.5491329479769,122.96880115664618 837.0327552986512,125.71999132371272 838.5163776493256,128.47118149077932 840.0,131.2223716578459" stroke="#f85149" stroke-width="2.5" fill="none"/>
<polyline points="792.52408477842,204.7846049226641 794.0077071290945,203.65007276334362 795.4913294797689,202.51554060402313 796.9749518304432,201.38100844470267 798.4585741811175,200.2464762853822 799.9421965317919,199.1119441260617 801.4258188824663,197.9774119667412 802.9094412331407,196.84287980742067 804.3930635838151,195.70834764810024 805.8766859344894,194.57381548877976 807.3603082851637,193.43928332945924 808.8439306358381,192.30475117013876 810.3275529865125,191.1702190108183 811.8111753371869,190.03568685149781 813.2947976878613,188.90115469217733 814.7784200385357,187.76662253285681 816.26204238921,186.63209037353636 817.7456647398843,185.49755821421587 819.2292870905587,184.36302605489539 820.7129094412331,183.2284938955749 822.1965317919075,182.09396173625444 823.680154142582,180.95942957693396 825.1637764932563,179.82489741761347 826.6473988439305,178.690365258293 828.131021194605,177.55583309897253 829.6146435452794,176.42130093965199 831.0982658959538,175.2867687803315 832.5818882466282,174.152236621011 834.0655105973026,173.01770446169058 835.5491329479769,171.88317230237007 837.0327552986512,170.74864014304958 838.5163776493256,169.61410798372913 840.0,168.47957582440864" stroke="#3fb950" stroke-width="2.5" fill="none"/>
<polygon points="792.52408477842,43.18428631171558 794.0077071290945,45.93547647878215 795.4913294797689,48.68666664584878 796.9749518304432,51.43785681291534 798.4585741811175,54.1890469799819 799.9421965317919,56.940237147048435 801.4258188824663,59.6914273141151 802.9094412331407,62.44261748118163 804.3930635838151,65.1938076482482 805.8766859344894,67.94499781531472 807.3603082851637,70.69618798238128 808.8439306358381,73.44737814944791 810.3275529865125,76.19856831651448 811.8111753371869,78.94975848358101 813.2947976878613,81.70094865064758 814.7784200385357,84.4521388177142 816.26204238921,87.20332898478077 817.7456647398843,89.9545191518473 819.2292870905587,92.70570931891385 820.7129094412331,95.45689948598049 822.1965317919075,98.20808965304705 823.680154142582,100.95927982011361 825.1637764932563,103.7104699871802 826.6473988439305,106.46166015424674 828.131021194605,109.21285032131334 829.6146435452794,111.96404048837991 831.0982658959538,114.7152306554465 832.5818882466282,117.46642082251303 834.0655105973026,120.21761098957963 835.5491329479769,122.96880115664618 835.5491329479769,171.88317230237007 834.0655105973026,173.01770446169058 832.5818882466282,174.152236621011 831.0982658959538,175.2867687803315 829.6146435452794,176.42130093965199 828.131021194605,177.55583309897253 826.6473988439305,178.690365258293 825.1637764932563,179.82489741761347 823.680154142582,180.95942957693396 822.1965317919075,182.09396173625444 820.7129094412331,183.2284938955749 819.2292870905587,184.36302605489539 817.7456647398843,185.49755821421587 816.26204238921,186.63209037353636 814.7784200385357,187.76662253285681 813.2947976878613,188.90115469217733 811.8111753371869,190.03568685149781 810.3275529865125,191.1702190108183 808.8439306358381,192.30475117013876 807.3603082851637,193.43928332945924 805.8766859344894,194.57381548877976 804.3930635838151,195.70834764810024 802.9094412331407,196.84287980742067 801.4258188824663,197.9774119667412 799.9421965317919,199.1119441260617 798.4585741811175,200.2464762853822 796.9749518304432,201.38100844470267 795.4913294797689,202.51554060402313 794.0077071290945,203.65007276334362 792.52408477842,204.7846049226641" fill="#FFD700" opacity="0.12"/>
<polygon points="798.3930635838151,57.193807648248196 810.3930635838151,57.193807648248196 804.3930635838151,67.1938076482482" fill="#f85149" stroke="#fff" stroke-width="1"/>
<polygon points="826.5818882466282,109.46642082251303 838.5818882466282,109.46642082251303 832.5818882466282,119.46642082251303" fill="#f85149" stroke="#fff" stroke-width="1"/>
<polygon points="786.52408477842,212.7846049226641 798.52408477842,212.7846049226641 792.52408477842,202.7846049226641" fill="#3fb950" stroke="#fff" stroke-width="1"/>
<polygon points="829.5491329479769,179.88317230237007 841.5491329479769,179.88317230237007 835.5491329479769,169.88317230237007" fill="#3fb950" stroke="#fff" stroke-width="1"/>
<circle cx="838.5163776493256" cy="123.60309252472517" r="6" fill="#e53935" stroke="#fff" stroke-width="2"/>
<text x="838.5163776493256" y="111.60309252472517" text-anchor="middle" font-size="10" fill="#e53935">突破</text>
<polyline points="70.0,249.29395871461233 71.48362235067438,226.6696028004327 72.96724470134875,242.1961215650658 74.45086705202313,240.64346968860247 75.9344894026975,260.3843292607789 77.41811175337187,264.8204774792455 78.90173410404624,253.6561711294379 80.38535645472062,268.36939605401875 81.86897880539499,265.70770712293876 83.35260115606937,271.5486356105865 84.83622350674374,269.25662569771214 86.31984585741812,262.2327243518066 87.80346820809248,267.77790962488984 89.28709055876686,275.54116900720646 90.77071290944123,272.2140578433565 92.25433526011561,260.6061366717022 93.73795761078998,259.64497122436774 95.22157996146436,271.7704430215098 96.70520231213872,278.20285793828646 98.1888246628131,273.2491590943321 99.67244701348747,275.9847838290531 101.15606936416185,276.87201347274646 102.63969171483623,277.38956409823425 104.1233140655106,283.30442838952297 105.60693641618496,285.0788876769097 107.09055876685935,275.910848025412 108.57418111753373,277.83317892008085 110.05780346820809,278.0549863310042 111.54142581888246,272.58373686156204 113.02504816955684,277.68530731279867 114.50867052023122,276.57627025818203 115.99229287090559,279.75550981474976 117.47591522157995,281.23422588757194 118.95953757225433,276.6502060618231 120.44315992292871,286.1139889278852 121.9267822736031,290.3283297354285 123.41040462427745,280.6427394584431 124.89402697495183,289.44110009173517 126.37764932562621,289.88471491358183 127.86127167630059,284.78314446234526 129.34489402697494,300.4575348342606 130.82851637764932,303.6367743908283 132.3121387283237,308.5904732347827 133.79576107899808,301.418700281595 135.27938342967246,305.92878430370274 136.76300578034682,306.37239912554935 138.2466281310212,313.9138510969426 139.73025048169558,305.55910528549714 141.21387283236993,290.55013714635174 142.6974951830443,293.58150509563734 144.1811175337187,296.9825520631284 145.66473988439307,298.01765331410394 147.14836223506745,300.6054064415428 148.6319845857418,299.7181767978495 150.11560693641619,305.3372978745738 151.59922928709057,321.0116882464892 153.08285163776492,327.591974770548 154.56647398843933,320.1244586027958 156.05009633911368,317.6845770826392 157.53371868978803,325.595708072238 159.01734104046244,329.8839846834224 160.5009633911368,318.71967833361475 161.98458574181117,321.60317467561805 163.46820809248555,318.0542561008448 164.9518304431599,314.3574659187893 166.43545279383432,307.48143618016604 167.91907514450867,302.15805831800606 169.40269749518305,291.21555937912177 170.88631984585743,294.39479893568955 172.36994219653178,277.68530731279867 173.8535645472062,276.87201347274646 175.33718689788054,282.12145553126527 176.8208092485549,278.1289221346453 178.3044315992293,270.9571491814576 179.78805394990366,273.61883811253756 181.27167630057804,282.9347493713175 182.75529865125242,285.3746308914741 184.23892100192677,291.73311000460956 185.72254335260118,298.8309471541562 187.20616570327553,298.8309471541562 188.68978805394988,300.23572742333727 190.1734104046243,302.3798657289294 191.65703275529864,289.66290750265847 193.14065510597305,295.5038359903062 194.6242774566474,302.6016731398528 196.10789980732176,299.7181767978495 197.59152215799617,292.9900186665085 199.07514450867052,291.21555937912177 200.5587668593449,304.5979398381627 202.04238921001928,303.71071019446936 203.52601156069363,300.8272138524661 205.009633911368,299.42243358328506 206.4932562620424,294.76447795389504 207.97687861271675,298.3873323323095 209.46050096339115,299.4963693869261 210.9441233140655,296.24319402671733 212.4277456647399,299.34849777964394 213.91136801541427,308.44260162750044 215.39499036608862,309.1819596639116 216.878612716763,305.3372978745738 218.36223506743738,294.39479893568955 219.84585741811176,278.64647276013307 221.32947976878614,247.001948801738 222.8131021194605,214.6920026105728 224.29672447013488,259.64497122436774 225.78034682080926,246.9280129980968 227.2639691714836,259.64497122436774 228.747591522158,254.17372175492565 230.23121387283237,259.7189070280089 231.71483622350675,267.77790962488984 233.1984585741811,267.9997170358132 234.68208092485548,257.5008329187756 236.16570327552986,258.7577415806744 237.64932562620425,267.85184542853096 239.13294797687863,264.74654167560436 240.61657032755298,247.9631142490724 242.10019267822736,244.26632406701685 243.58381502890174,247.9631142490724 245.0674373795761,263.4156972100644 246.55105973025047,265.41196390837433 248.03468208092485,264.3029268537577 249.51830443159923,256.4657316678 251.0019267822736,262.45453176272997 252.48554913294797,258.6838057770334 253.96917148362235,265.41196390837433 255.45279383429673,265.78164292657993 256.9364161849711,253.73010693307899 258.4200385356455,241.38282772501356 259.9036608863198,245.3753611216335 261.3872832369942,250.03331675102348 262.87090558766863,253.73010693307899 264.354527938343,256.4657316678 265.83815028901734,269.99598373412323 267.32177263969174,260.1625218498555 268.8053949903661,246.33652656896794 270.28901734104045,246.11471915804464 271.77263969171486,263.19388979914106 273.2562620423892,265.41196390837433 274.73988439306356,263.2678256027822 276.22350674373797,259.9407144389322 277.7071290944124,262.89814658457664 279.1907514450867,247.74130683814903 280.6743737957611,250.69873898379348 282.1579961464355,249.66363773281793 283.6416184971098,262.6763391736533 285.1252408477842,260.6800724753433 286.6088631984586,260.90187988626667 288.09248554913296,265.2640923010922 289.5761078998073,268.36939605401875 291.0597302504817,267.9997170358132 292.5433526011561,269.55236891227656 294.0269749518304,273.3230948979731 295.51059730250483,281.8257123167008 296.99421965317924,288.99748526988856 298.47784200385354,295.42990018666507 299.96146435452795,290.99375196819847 301.44508670520236,283.67410740772857 302.92870905587665,292.2506606300974 304.41233140655106,289.2192926808118 305.89595375722547,295.5038359903062 307.37957610789977,294.9862853648184 308.8631984585742,287.1490901788608 310.3468208092486,290.6240729499929 311.8304431599229,303.56283858718723 313.3140655105973,311.8436485949915 314.7976878612717,306.37239912554935 316.2813102119461,289.88471491358183 317.7649325626204,302.97135215805827 319.2485549132948,303.85858180175165 320.7321772639692,306.4463349291905 322.2157996146435,313.6181078823782 323.6994219653179,324.48667101762135 325.18304431599233,318.9414857445381 326.66666666666663,324.0430561957747 328.15028901734104,332.8414168290668 329.63391136801545,327.37016735962465 331.1175337186898,326.8526167341369 332.60115606936415,328.8488834324468 334.08477842003856,332.1020587926557 335.5684007707129,333.21109584727236 337.05202312138726,353.54344184857763 338.5356454720617,353.54344184857763 340.019267822736,353.9131208667832 341.5028901734104,353.61737765221875 342.9865125240848,349.4769726483166 344.4701348747592,333.8025822764012 345.9537572254335,339.3477675494845 347.4373795761079,340.23499719317783 348.9210019267823,341.04829103323 350.40462427745666,339.71744656769 351.888246628131,331.80631557809124 353.3718689788054,333.2850316509134 354.8554913294798,325.29996485767356 356.3391136801541,325.22602905403244 357.82273603082854,327.0004883414191 359.3063583815029,331.3627007562446 360.78998073217724,339.79138237133117 362.27360308285165,337.7211798693801 363.757225433526,334.1722612946068 365.24084778420035,339.71744656769 366.72447013487476,331.7323797744501 368.2080924855491,325.3739006613147 369.6917148362235,328.6270760215235 371.1753371868979,327.66591057418907 372.6589595375723,318.3499993154092 374.14258188824664,317.3148980644337 375.626204238921,319.4590363700259 377.1098265895954,318.4239351190503 378.59344894026975,315.83618199161145 380.0770712909441,306.22452751826717 381.5606936416185,297.2782952776928 383.04431599229287,296.6128730449228 384.5279383429672,288.11025562619517 386.0115606936416,288.11025562619517 387.495183044316,299.2745619760028 388.9788053949904,309.99525350396374 390.46242774566474,307.70324359108935 391.9460500963391,310.88248314765707 393.4296724470135,303.0452879616994 394.91329479768785,305.7069768927794 396.3969171483622,313.6181078823782 397.8805394990366,306.96388555467826 399.36416184971097,301.5665718888772 400.8477842003854,304.08038921267496 402.33140655105973,357.0923604233509 403.8150289017341,351.25143193570324 405.2986512524085,343.56210835702774 406.78227360308284,336.4642712074812 408.26589595375725,335.8727847783523 409.7495183044316,335.7249131710701 411.23314065510596,335.42916995650563 412.71676300578036,342.4530713024111 414.2003853564547,343.2663651424633 415.68400770712907,334.985555134659 417.1676300578035,329.3664340579346 418.65125240847783,327.591974770548 420.1348747591522,329.1446266470113 421.6184971098266,327.2222957523424 423.10211946050094,325.4478364649558 424.5857418111753,343.7839157679511 426.0693641618497,350.0684590774454 427.5529865125241,345.92805407354325 429.03660886319847,342.08339228420556 430.5202312138728,343.4881725533867 432.0038535645472,331.06695754168015 433.4874759152216,336.6860786184045 434.97109826589593,335.7988489747112 436.45472061657034,338.7562811203556 437.9383429672447,331.3627007562446 439.42196531791905,336.1685279929167 440.90558766859345,333.654710669119 442.38921001926786,332.2499303999379 443.87283236994216,329.588241468858 445.35645472061657,318.71967833361475 446.840077071291,321.67711047925917 448.3236994219653,324.7084784285447 449.8073217726397,324.3387994103391 451.2909441233141,326.18719450136683 452.77456647398844,330.99302173803903 454.2581888246628,325.81751548316134 455.7418111753372,329.8839846834224 457.22543352601156,328.7749476288057 458.70905587668597,328.4052686106002 460.19267822736026,328.4792044142413 461.67630057803467,328.92281923608795 463.159922928709,327.66591057418907 464.64354527938343,334.6898119200946 466.12716763005784,334.320132901889 467.6107899807322,335.35523415286457 469.0944123314065,344.0796589825155 470.5780346820809,343.56210835702774 472.0616570327553,340.9743552295889 473.54527938342966,342.67487871333446 475.02890173410407,346.88921952087776 476.5125240847784,347.62857755728885 477.99614643545283,345.2626318407733 479.4797687861271,345.4105034480555 480.96339113680153,343.9317873752333 482.4470134874759,345.70624666262 483.9306358381503,345.4105034480555 485.4142581888247,343.4881725533867 486.89788053949906,343.41423674974556 488.38150289017335,347.4067701463655 489.86512524084776,347.1849627354422 491.34874759152217,349.25516523739327 492.8323699421965,348.1461281827766 494.31599229287093,346.44560469903104 495.7996146435453,348.1461281827766 497.28323699421964,344.37540219708 498.766859344894,346.0019898771844 500.2504816955684,347.03709112815994 501.73410404624275,347.85038496821215 503.21772639691716,346.0759256808255 504.70134874759157,344.8190170189266 506.1849710982659,338.38660210215005 507.6685934489402,339.19989594220226 509.1522157996146,338.2387304948678 510.63583815028903,338.0169230839445 512.1194605009634,332.0281229890146 513.6030828516377,328.7749476288057 515.0867052023121,330.1057920943457 516.5703275529866,332.4717378108612 518.0539499036609,332.9153526327079 519.5375722543353,334.3940687055301 521.0211946050097,332.1759945962968 522.504816955684,330.1057920943457 523.9884393063585,328.5531402178824 525.4720616570328,330.327599505269 526.9556840077071,329.2185624506524 528.4393063583815,328.99675503972907 529.9229287090559,322.1946611047469 531.4065510597302,322.93401914115805 532.8901734104047,323.5994413739281 534.373795761079,329.07069084337013 535.8574181117533,327.37016735962465 537.3410404624277,323.5255055702869 538.8246628131021,324.0430561957747 540.3082851637764,325.3739006613147 541.7919075144509,327.0744241450602 543.2755298651252,328.1095253960358 544.7591522157995,327.14835994870134 546.2427745664739,326.18719450136683 547.7263969171483,334.2461970982479 549.2100192678228,336.02065638563454 550.6936416184972,340.01318978225447 552.1772639691715,338.7562811203556 553.6608863198458,342.08339228420556 555.1445086705203,345.6323108589788 556.6281310211946,346.5934763063133 558.111753371869,344.30146639343883 559.5953757225434,343.1924293388222 561.0789980732177,346.22379728810773 562.5626204238922,345.70624666262 564.0462427745665,343.56210835702774 565.5298651252408,343.2663651424633 567.0134874759152,345.6323108589788 568.4971098265896,345.1147602334911 569.9807321772639,343.56210835702774 571.4643545279384,342.30519969512886 572.9479768786127,343.1924293388222 574.431599229287,339.2738317458434 575.9152215799614,343.2663651424633 577.3988439306358,342.30519969512886 578.8824662813101,343.11849353518113 580.3660886319847,341.5658416587178 581.849710982659,341.713713266 583.3333333333333,344.30146639343883 584.8169556840077,344.5232738043622 586.3005780346821,343.63604416066886 587.7842003853565,345.3365676444144 589.2678227360309,347.85038496821215 590.7514450867052,347.1849627354422 592.2350674373796,348.36793559369994 593.7186897880539,349.25516523739327 595.2023121387283,343.2663651424633 596.6859344894027,331.658443970809 598.1695568400771,332.0281229890146 599.6531791907515,335.35523415286457 601.1368015414258,337.79511567302114 602.6204238921001,339.2738317458434 604.1040462427745,339.6435107640489 605.5876685934489,341.27009844415335 607.0712909441233,344.30146639343883 608.5549132947978,336.6860786184045 610.038535645472,334.46800450917124 611.5221579961465,335.28129834922345 613.0057803468208,331.21482914896234 614.4894026974952,334.46800450917124 615.9730250481696,317.6845770826392 617.456647398844,316.5755400280226 618.9402697495184,312.43513502412037 620.4238921001927,317.6845770826392 621.907514450867,319.3111647627436 623.3911368015414,312.50907082776155 624.8747591522158,315.2446955624826 626.3583815028902,322.0467894974648 627.8420038535646,325.07815744675025 629.3256262042389,332.1759945962968 630.8092485549133,346.22379728810773 632.2928709055876,338.8302169239967 633.776493256262,327.0744241450602 635.2601156069364,324.8563500358269 636.7437379576108,318.64574252997363 638.2273603082851,316.2797968134581 639.7109826589596,319.8287153882314 641.1946050096338,323.67337717756914 642.6782273603083,329.2185624506524 644.1618497109827,320.7898808355659 645.6454720616571,327.14835994870134 647.1290944123315,330.9190859343979 648.6127167630058,335.1334267419412 650.0963391136802,336.61214281476344 651.5799614643545,340.53074040774226 653.0635838150289,341.5658416587178 654.5472061657033,340.38286880046 656.0308285163777,340.6046762113834 657.514450867052,339.05202433492 658.9980732177264,338.09085888758557 660.4816955684007,337.79511567302114 661.9653179190751,341.04829103323 663.4489402697495,343.2663651424633 664.9325626204239,342.37913549877 666.4161849710982,341.6397774623589 667.8998073217726,343.4881725533867 669.383429672447,346.51954050267216 670.8670520231213,347.4067701463655 672.3506743737958,348.5158072009821 673.8342967244702,344.15359478615665 675.3179190751446,343.2663651424633 676.8015414258189,342.8227503206167 678.2851637764933,337.64724406573896 679.7687861271676,334.8376835273767 681.252408477842,294.76447795389504 682.7360308285164,305.63304108913826 684.2196531791908,307.9250510020127 685.7032755298651,314.6532091333537 687.1868978805395,309.6995102893993 688.6705202312139,310.9564189512982 690.1541425818882,314.13565850786597 691.6377649325626,309.99525350396374 693.121387283237,310.29099671852816 694.6050096339113,308.73834484206486 696.0886319845857,308.146858412936 697.5722543352601,299.4963693869261 699.0558766859344,299.79211260149054 700.5394990366088,310.66067573673377 702.0231213872833,309.477702878476 703.5067437379577,315.83618199161145 704.990366088632,309.62557448575825 706.4739884393064,310.06918930760486 707.9576107899808,311.32609796950373 709.4412331406551,313.5441720787371 710.9248554913295,310.5128041294515 712.4084778420039,311.8436485949915 713.8921001926782,311.17822636222155 715.3757225433526,310.06918930760486 716.859344894027,313.2484288641726 718.3429672447013,300.6054064415428 719.8265895953757,304.00645340903384 721.3102119460501,305.0415546600094 722.7938342967244,302.23199412164723 724.2774566473988,307.55537198380716 725.7610789980732,315.76224618797033 727.2447013487476,323.8951845884925 728.7283236994219,322.93401914115805 730.2119460500963,314.3574659187893 731.6955684007708,314.87501654427706 733.179190751445,296.24319402671733 734.6628131021195,295.355964383024 736.1464354527939,290.10652232450514 737.6300578034682,282.78687776403524 739.1136801541426,275.54116900720646 740.597302504817,285.15282348055075 742.0809248554913,276.57627025818203 743.5645472061657,283.0826209785997 745.0481695568401,286.7054753570141 746.5317919075145,314.6532091333537 748.0154142581888,303.1931595689816 749.4990366088632,300.6054064415428 750.9826589595375,305.2633620709327 752.4662813102119,301.8623151034417 753.9499036608863,300.53147063790163 755.4335260115607,305.2633620709327 756.917148362235,299.79211260149054 758.4007707129094,304.9676188563683 759.8843930635838,311.9175843986326 761.3680154142581,311.99152020227376 762.8516377649325,304.89368305272717 764.335260115607,312.804814042326 765.8188824662814,305.3372978745738 767.3025048169557,300.30966322697833 768.7861271676301,292.3985322373795 770.2697495183044,252.99074889666784 771.7533718689788,266.0034503375032 773.2369942196532,250.92054639471675 774.7206165703276,240.34772647403804 776.2042389210019,241.3088919213725 777.6878612716763,214.98774582513724 779.1714836223506,217.79730636349944 780.655105973025,230.66213619705263 782.1387283236994,231.54936584074593 783.6223506743738,227.556832444126 785.1059730250482,214.83987421785505 786.5895953757225,186.81820463787435 788.0732177263969,187.18788365607986 789.5568400770712,187.927241692491 791.0404624277456,197.09528134398866 792.52408477842,181.4948267757144 794.0077071290945,174.69273284073228 795.4913294797689,154.65613005399143 796.9749518304432,128.1131765468329 798.4585741811175,127.74349752862734 799.9421965317919,123.23341350651963 801.4258188824663,92.55005499545895 802.9094412331407,84.34318079129574 804.3930635838151,87.00486972237567 805.8766859344894,87.37454874058122 807.3603082851637,86.7091265078112 808.8439306358381,93.21547722822896 810.3275529865125,117.31854921523077 811.8111753371869,153.9907078212214 813.2947976878613,168.26031792395565 814.7784200385357,146.4492558498282 816.26204238921,147.18861388623932 817.7456647398843,142.8264014714138 819.2292870905587,150.2199818355248 820.7129094412331,145.78383361705818 822.1965317919075,167.96457470939123 823.680154142582,167.00340926205683 825.1637764932563,159.24014987974024 826.6473988439305,152.88167076660477 828.131021194605,144.30511754423603 829.6146435452794,128.18711235047402 831.0982658959538,126.41265306308736 832.5818882466282,144.15724593695376 834.0655105973026,137.65089521653607 835.5491329479769,157.7614338069181 837.0327552986512,138.24238164566498 838.5163776493256,123.60309252472517 840.0,122.124376451903" stroke="#2196F3" stroke-width="1.8" fill="none"/>
<line x1="70" y1="123.60309252472517" x2="840" y2="123.60309252472517" stroke="#3fb950" stroke-width="1" stroke-dasharray="2,2"/>
<text x="845" y="127.60309252472517" font-size="10" fill="#3fb950">突破价 60.60</text>
<line x1="840.0" y1="122.124376451903" x2="840" y2="122.124376451903" stroke="#88ccff" stroke-width="1"/>
<text x="845" y="126.124376451903" font-size="10" fill="#88ccff">现价 60.80</text>
<text x="70" y="605" font-size="12" fill="#e0e0e0" font-weight="bold">上榜理由 (综合得分: 98):</text>
<text x="70" y="623" font-size="11" fill="#aaa">1. 形态刚收敛完成（距截止日仅3天），突破信号最新鲜</text>
<text x="70" y="641" font-size="11" fill="#aaa">2. 突破后日线胜率95%，表现优秀</text>
<text x="70" y="659" font-size="11" fill="#aaa">3. 量度目标涨幅31.2%（目标¥79.48 / 突破¥60.60）</text>
<text x="70" y="677" font-size="11" fill="#aaa">4. 三角收敛对称度58%，形态较好</text>
<text x="70" y="695" font-size="11" fill="#aaa">5. 收敛前强上涨趋势+40.6%，典型上涨中继</text>
<text x="70" y="713" font-size="11" fill="#aaa">6. 三角持续29个交易日，整理充分</text>
</svg>