<svg xmlns="http://www.w3.org/2000/svg" viewBox="0 0 900 700" width="900" height="700">
<rect width="900" height="700" fill="#1a1a2e"/>
<text x="450.0" y="28" text-anchor="middle" font-size="16" fill="#e0e0e0" font-weight="bold">振华风光 (688439.SH)  三角收敛上涨中继  评分:98/100</text>
<line x1="70" y1="374.0" x2="840" y2="374.0" stroke="#2a2a4a" stroke-width="0.5"/>
<text x="65" y="378.0" text-anchor="end" font-size="10" fill="#888">40.33</text>
<line x1="70" y1="309.2" x2="840" y2="309.2" stroke="#2a2a4a" stroke-width="0.5"/>
<text x="65" y="313.2" text-anchor="end" font-size="10" fill="#888">47.67</text>
<line x1="70" y1="244.4" x2="840" y2="244.4" stroke="#2a2a4a" stroke-width="0.5"/>
<text x="65" y="248.4" text-anchor="end" font-size="10" fill="#888">55.00</text>
<line x1="70" y1="179.6" x2="840" y2="179.6" stroke="#2a2a4a" stroke-width="0.5"/>
<text x="65" y="183.6" text-anchor="end" font-size="10" fill="#888">62.33</text>
<line x1="70" y1="114.79999999999998" x2="840" y2="114.79999999999998" stroke="#2a2a4a" stroke-width="0.5"/>
<text x="65" y="118.79999999999998" text-anchor="end" font-size="10" fill="#888">69.67</text>
<line x1="70" y1="50.0" x2="840" y2="50.0" stroke="#2a2a4a" stroke-width="0.5"/>
<text x="65" y="54.0" text-anchor="end" font-size="10" fill="#888">77.00</text>
<text x="70.0" y="551.0" text-anchor="middle" font-size="9" fill="#888">2024-05-06</text>
<text x="166.43545279383432" y="551.0" text-anchor="middle" font-size="9" fill="#888">2024-08-06</text>
<text x="262.87090558766863" y="551.0" text-anchor="middle" font-size="9" fill="#888">2024-11-14</text>
<text x="359.3063583815029" y="551.0" text-anchor="middle" font-size="9" fill="#888">2025-02-24</text>
<text x="455.7418111753372" y="551.0" text-anchor="middle" font-size="9" fill="#888">2025-05-30</text>
<text x="552.1772639691715" y="551.0" text-anchor="middle" font-size="9" fill="#888">2025-09-01</text>
<text x="648.6127167630058" y="551.0" text-anchor="middle" font-size="9" fill="#888">2025-12-09</text>
<text x="745.0481695568401" y="551.0" text-anchor="middle" font-size="9" fill="#888">2026-03-20</text>
<rect x="813.2947976878613" y="50" width="22.254335260115568" height="486.0" fill="#FFD700" opacity="0.06"/>
<rect x="69.48173076923077" y="508.467956482625" width="1.0365384615384616" height="27.532043517374973" fill="#4CAF50" opacity="0.5"/>
<rect x="70.96535311990515" y="510.31798127722413" width="1.0365384615384616" height="25.682018722775865" fill="#4CAF50" opacity="0.5"/>
<rect x="72.44897547057951" y="508.5742957404699" width="1.0365384615384616" height="27.425704259530107" fill="#f44336" opacity="0.5"/>
<rect x="73.93259782125389" y="493.96628689157603" width="1.0365384615384616" height="42.03371310842397" fill="#4CAF50" opacity="0.5"/>
<rect x="75.41622017192826" y="509.1072901026582" width="1.0365384615384616" height="26.892709897341774" fill="#f44336" opacity="0.5"/>
<rect x="76.89984252260264" y="505.6817969533159" width="1.0365384615384616" height="30.31820304668412" fill="#f44336" opacity="0.5"/>
<rect x="78.383464873277" y="519.3992156850908" width="1.0365384615384616" height="16.60078431490922" fill="#f44336" opacity="0.5"/>
<rect x="79.86708722395139" y="511.1100952835173" width="1.0365384615384616" height="24.889904716482704" fill="#f44336" opacity="0.5"/>
<rect x="81.35070957462575" y="524.2315957996431" width="1.0365384615384616" height="11.76840420035694" fill="#f44336" opacity="0.5"/>
<rect x="82.83433192530013" y="508.34600299459515" width="1.0365384615384616" height="27.653997005404847" fill="#4CAF50" opacity="0.5"/>
<rect x="84.3179542759745" y="502.4163683406786" width="1.0365384615384616" height="33.583631659321384" fill="#4CAF50" opacity="0.5"/>
<rect x="85.80157662664888" y="516.2195439359637" width="1.0365384615384616" height="19.780456064036343" fill="#f44336" opacity="0.5"/>
<rect x="87.28519897732325" y="520.2572138982948" width="1.0365384615384616" height="15.742786101705178" fill="#4CAF50" opacity="0.5"/>
<rect x="88.76882132799763" y="522.02578694907" width="1.0365384615384616" height="13.974213050929961" fill="#f44336" opacity="0.5"/>
<rect x="90.252443678672" y="521.321241505244" width="1.0365384615384616" height="14.678758494756039" fill="#f44336" opacity="0.5"/>
<rect x="91.73606602934638" y="520.4698643980214" width="1.0365384615384616" height="15.5301356019786" fill="#4CAF50" opacity="0.5"/>
<rect x="93.21968838002074" y="522.0991887727866" width="1.0365384615384616" height="13.900811227213353" fill="#f44336" opacity="0.5"/>
<rect x="94.70331073069512" y="523.7025983815452" width="1.0365384615384616" height="12.297401618454842" fill="#f44336" opacity="0.5"/>
<rect x="96.18693308136949" y="521.4529165325217" width="1.0365384615384616" height="14.547083467478274" fill="#4CAF50" opacity="0.5"/>
<rect x="97.67055543204387" y="522.4540016087011" width="1.0365384615384616" height="13.545998391298895" fill="#4CAF50" opacity="0.5"/>
<rect x="99.15417778271824" y="523.1415133468709" width="1.0365384615384616" height="12.858486653129148" fill="#f44336" opacity="0.5"/>
<rect x="100.63780013339262" y="520.5000189131334" width="1.0365384615384616" height="15.499981086866569" fill="#4CAF50" opacity="0.5"/>
<rect x="102.121422484067" y="514.1308324731237" width="1.0365384615384616" height="21.869167526876254" fill="#4CAF50" opacity="0.5"/>
<rect x="103.60504483474136" y="517.4771151557022" width="1.0365384615384616" height="18.522884844297778" fill="#f44336" opacity="0.5"/>
<rect x="105.08866718541573" y="516.2911247220688" width="1.0365384615384616" height="19.708875277931156" fill="#4CAF50" opacity="0.5"/>
<rect x="106.57228953609011" y="505.2309267180695" width="1.0365384615384616" height="30.769073281930503" fill="#4CAF50" opacity="0.5"/>
<rect x="108.05591188676449" y="520.3066807507411" width="1.0365384615384616" height="15.693319249258934" fill="#f44336" opacity="0.5"/>
<rect x="109.53953423743886" y="502.28471199070964" width="1.0365384615384616" height="33.71528800929036" fill="#4CAF50" opacity="0.5"/>
<rect x="111.02315658811322" y="508.8434731153817" width="1.0365384615384616" height="27.1565268846183" fill="#f44336" opacity="0.5"/>
<rect x="112.5067789387876" y="512.1960033577651" width="1.0365384615384616" height="23.803996642234893" fill="#4CAF50" opacity="0.5"/>
<rect x="113.99040128946199" y="514.1009581176442" width="1.0365384615384616" height="21.899041882355846" fill="#f44336" opacity="0.5"/>
<rect x="115.47402364013635" y="515.1743243790102" width="1.0365384615384616" height="20.82567562098984" fill="#f44336" opacity="0.5"/>
<rect x="116.95764599081072" y="502.5119588072897" width="1.0365384615384616" height="33.488041192710284" fill="#4CAF50" opacity="0.5"/>
<rect x="118.4412683414851" y="501.6048019172352" width="1.0365384615384616" height="34.39519808276481" fill="#4CAF50" opacity="0.5"/>
<rect x="119.92489069215948" y="512.7374772181639" width="1.0365384615384616" height="23.262522781836083" fill="#f44336" opacity="0.5"/>
<rect x="121.40851304283386" y="512.6580799783117" width="1.0365384615384616" height="23.34192002168834" fill="#f44336" opacity="0.5"/>
<rect x="122.89213539350821" y="519.5400799483148" width="1.0365384615384616" height="16.45992005168523" fill="#4CAF50" opacity="0.5"/>
<rect x="124.3757577441826" y="522.8250637033009" width="1.0365384615384616" height="13.174936296699116" fill="#f44336" opacity="0.5"/>
<rect x="125.85938009485697" y="517.9043492566195" width="1.0365384615384616" height="18.095650743380475" fill="#4CAF50" opacity="0.5"/>
<rect x="127.34300244553135" y="520.4938180466006" width="1.0365384615384616" height="15.506181953399391" fill="#4CAF50" opacity="0.5"/>
<rect x="128.82662479620572" y="524.3682203137618" width="1.0365384615384616" height="11.631779686238247" fill="#f44336" opacity="0.5"/>
<rect x="130.3102471468801" y="524.0150604196791" width="1.0365384615384616" height="11.984939580320884" fill="#f44336" opacity="0.5"/>
<rect x="131.79386949755448" y="513.6751621695071" width="1.0365384615384616" height="22.324837830492925" fill="#f44336" opacity="0.5"/>
<rect x="133.27749184822886" y="521.3619113452294" width="1.0365384615384616" height="14.638088654770627" fill="#4CAF50" opacity="0.5"/>
<rect x="134.76111419890324" y="521.2406115630087" width="1.0365384615384616" height="14.759388436991344" fill="#f44336" opacity="0.5"/>
<rect x="136.2447365495776" y="515.4101720963081" width="1.0365384615384616" height="20.589827903691912" fill="#4CAF50" opacity="0.5"/>
<rect x="137.72835890025198" y="518.6109772203806" width="1.0365384615384616" height="17.38902277961938" fill="#f44336" opacity="0.5"/>
<rect x="139.21198125092636" y="499.4912683109553" width="1.0365384615384616" height="36.50873168904468" fill="#f44336" opacity="0.5"/>
<rect x="140.6956036016007" y="500.1929187719122" width="1.0365384615384616" height="35.80708122808778" fill="#f44336" opacity="0.5"/>
<rect x="142.1792259522751" y="513.2654193683127" width="1.0365384615384616" height="22.734580631687322" fill="#f44336" opacity="0.5"/>
<rect x="143.66284830294947" y="522.055670643204" width="1.0365384615384616" height="13.944329356795947" fill="#4CAF50" opacity="0.5"/>
<rect x="145.14647065362385" y="524.6896567987903" width="1.0365384615384616" height="11.310343201209662" fill="#f44336" opacity="0.5"/>
<rect x="146.63009300429823" y="517.8122327694515" width="1.0365384615384616" height="18.187767230548502" fill="#f44336" opacity="0.5"/>
<rect x="148.11371535497258" y="513.0747520610835" width="1.0365384615384616" height="22.925247938916527" fill="#4CAF50" opacity="0.5"/>
<rect x="149.59733770564696" y="508.92471007015405" width="1.0365384615384616" height="27.07528992984595" fill="#4CAF50" opacity="0.5"/>
<rect x="151.08096005632135" y="519.4321811351823" width="1.0365384615384616" height="16.567818864817696" fill="#f44336" opacity="0.5"/>
<rect x="152.5645824069957" y="511.0514672110882" width="1.0365384615384616" height="24.94853278891179" fill="#f44336" opacity="0.5"/>
<rect x="154.0482047576701" y="519.9776799556348" width="1.0365384615384616" height="16.022320044365188" fill="#4CAF50" opacity="0.5"/>
<rect x="155.53182710834446" y="519.6669175526047" width="1.0365384615384616" height="16.333082447395327" fill="#4CAF50" opacity="0.5"/>
<rect x="157.0154494590188" y="522.2388390109365" width="1.0365384615384616" height="13.761160989063455" fill="#f44336" opacity="0.5"/>
<rect x="158.49907180969322" y="524.8377678578419" width="1.0365384615384616" height="11.162232142158132" fill="#4CAF50" opacity="0.5"/>
<rect x="159.98269416036757" y="515.0775198873249" width="1.0365384615384616" height="20.92248011267509" fill="#4CAF50" opacity="0.5"/>
<rect x="161.46631651104195" y="515.3912146278419" width="1.0365384615384616" height="20.60878537215808" fill="#4CAF50" opacity="0.5"/>
<rect x="162.94993886171633" y="519.2879456177138" width="1.0365384615384616" height="16.71205438228617" fill="#f44336" opacity="0.5"/>
<rect x="164.43356121239069" y="510.22497761788657" width="1.0365384615384616" height="25.775022382113434" fill="#f44336" opacity="0.5"/>
<rect x="165.9171835630651" y="517.9928143299105" width="1.0365384615384616" height="18.007185670089484" fill="#4CAF50" opacity="0.5"/>
<rect x="167.40080591373945" y="515.687707566923" width="1.0365384615384616" height="20.312292433077005" fill="#4CAF50" opacity="0.5"/>
<rect x="168.88442826441383" y="516.3528812437277" width="1.0365384615384616" height="19.647118756272334" fill="#f44336" opacity="0.5"/>
<rect x="170.3680506150882" y="518.8359267279741" width="1.0365384615384616" height="17.164073272025917" fill="#f44336" opacity="0.5"/>
<rect x="171.85167296576256" y="518.3552101532115" width="1.0365384615384616" height="17.644789846788512" fill="#f44336" opacity="0.5"/>
<rect x="173.33529531643697" y="526.3366125530947" width="1.0365384615384616" height="9.66338744690529" fill="#4CAF50" opacity="0.5"/>
<rect x="174.81891766711132" y="525.969696821056" width="1.0365384615384616" height="10.030303178943996" fill="#f44336" opacity="0.5"/>
<rect x="176.30254001778567" y="520.2559811959119" width="1.0365384615384616" height="15.744018804088114" fill="#4CAF50" opacity="0.5"/>
<rect x="177.78616236846008" y="525.2299913433503" width="1.0365384615384616" height="10.77000865664968" fill="#f44336" opacity="0.5"/>
<rect x="179.26978471913444" y="515.956530072967" width="1.0365384615384616" height="20.043469927033016" fill="#f44336" opacity="0.5"/>
<rect x="180.75340706980882" y="519.6202989897556" width="1.0365384615384616" height="16.37970101024439" fill="#f44336" opacity="0.5"/>
<rect x="182.2370294204832" y="525.9224525683611" width="1.0365384615384616" height="10.07754743163889" fill="#4CAF50" opacity="0.5"/>
<rect x="183.72065177115755" y="526.3086526217706" width="1.0365384615384616" height="9.691347378229352" fill="#f44336" opacity="0.5"/>
<rect x="185.20427412183196" y="524.647959706819" width="1.0365384615384616" height="11.352040293180949" fill="#f44336" opacity="0.5"/>
<rect x="186.6878964725063" y="505.36101417409645" width="1.0365384615384616" height="30.638985825903546" fill="#f44336" opacity="0.5"/>
<rect x="188.17151882318066" y="515.9537938472229" width="1.0365384615384616" height="20.04620615277713" fill="#4CAF50" opacity="0.5"/>
<rect x="189.65514117385507" y="521.7245032802731" width="1.0365384615384616" height="14.275496719726902" fill="#4CAF50" opacity="0.5"/>
<rect x="191.13876352452942" y="506.82665995289733" width="1.0365384615384616" height="29.17334004710267" fill="#4CAF50" opacity="0.5"/>
<rect x="192.62238587520383" y="517.5105942317867" width="1.0365384615384616" height="18.48940576821326" fill="#4CAF50" opacity="0.5"/>
<rect x="194.10600822587818" y="521.162054802054" width="1.0365384615384616" height="14.837945197946055" fill="#f44336" opacity="0.5"/>
<rect x="195.58963057655254" y="525.6089259236236" width="1.0365384615384616" height="10.391074076376412" fill="#4CAF50" opacity="0.5"/>
<rect x="197.07325292722695" y="524.9603376970633" width="1.0365384615384616" height="11.039662302936676" fill="#f44336" opacity="0.5"/>
<rect x="198.5568752779013" y="527.8243162336282" width="1.0365384615384616" height="8.175683766371776" fill="#4CAF50" opacity="0.5"/>
<rect x="200.04049762857568" y="521.9083253538147" width="1.0365384615384616" height="14.09167464618531" fill="#f44336" opacity="0.5"/>
<rect x="201.52411997925006" y="527.6387758476739" width="1.0365384615384616" height="8.361224152326145" fill="#f44336" opacity="0.5"/>
<rect x="203.0077423299244" y="524.9202001603796" width="1.0365384615384616" height="11.079799839620364" fill="#4CAF50" opacity="0.5"/>
<rect x="204.4913646805988" y="528.5808779825563" width="1.0365384615384616" height="7.419122017443669" fill="#4CAF50" opacity="0.5"/>
<rect x="205.97498703127317" y="527.8643323678045" width="1.0365384615384616" height="8.135667632195464" fill="#f44336" opacity="0.5"/>
<rect x="207.45860938194753" y="526.2311324514562" width="1.0365384615384616" height="9.768867548543767" fill="#f44336" opacity="0.5"/>
<rect x="208.94223173262193" y="527.8396689814896" width="1.0365384615384616" height="8.16033101851042" fill="#f44336" opacity="0.5"/>
<rect x="210.4258540832963" y="523.6067837872281" width="1.0365384615384616" height="12.393216212771904" fill="#4CAF50" opacity="0.5"/>
<rect x="211.90947643397067" y="522.7382982651138" width="1.0365384615384616" height="13.261701734886174" fill="#f44336" opacity="0.5"/>
<rect x="213.39309878464505" y="528.3627737086504" width="1.0365384615384616" height="7.637226291349634" fill="#f44336" opacity="0.5"/>
<rect x="214.8767211353194" y="514.4795284903952" width="1.0365384615384616" height="21.520471509604818" fill="#4CAF50" opacity="0.5"/>
<rect x="216.36034348599378" y="515.818691533774" width="1.0365384615384616" height="20.181308466226028" fill="#4CAF50" opacity="0.5"/>
<rect x="217.84396583666816" y="514.9168856927004" width="1.0365384615384616" height="21.08311430729964" fill="#4CAF50" opacity="0.5"/>
<rect x="219.32758818734254" y="516.2410321797768" width="1.0365384615384616" height="19.758967820223234" fill="#4CAF50" opacity="0.5"/>
<rect x="220.81121053801692" y="480.05961098938894" width="1.0365384615384616" height="55.94038901061106" fill="#4CAF50" opacity="0.5"/>
<rect x="222.29483288869127" y="454.9981832072316" width="1.0365384615384616" height="81.00181679276841" fill="#4CAF50" opacity="0.5"/>
<rect x="223.77845523936566" y="464.7736438457937" width="1.0365384615384616" height="71.22635615420631" fill="#f44336" opacity="0.5"/>
<rect x="225.26207759004004" y="488.1219608457576" width="1.0365384615384616" height="47.8780391542424" fill="#f44336" opacity="0.5"/>
<rect x="226.7456999407144" y="488.2131621447927" width="1.0365384615384616" height="47.786837855207295" fill="#f44336" opacity="0.5"/>
<rect x="228.22932229138877" y="503.31843566407593" width="1.0365384615384616" height="32.681564335924065" fill="#4CAF50" opacity="0.5"/>
<rect x="229.71294464206315" y="508.8043815079927" width="1.0365384615384616" height="27.195618492007327" fill="#f44336" opacity="0.5"/>
<rect x="231.19656699273753" y="516.0850112804342" width="1.0365384615384616" height="19.914988719565827" fill="#f44336" opacity="0.5"/>
<rect x="232.68018934341188" y="514.3954899392978" width="1.0365384615384616" height="21.604510060702182" fill="#f44336" opacity="0.5"/>
<rect x="234.16381169408626" y="492.88318041365335" width="1.0365384615384616" height="43.11681958634665" fill="#4CAF50" opacity="0.5"/>
<rect x="235.64743404476064" y="467.3332382802953" width="1.0365384615384616" height="68.66676171970471" fill="#4CAF50" opacity="0.5"/>
<rect x="237.13105639543502" y="506.7015966929466" width="1.0365384615384616" height="29.298403307053377" fill="#f44336" opacity="0.5"/>
<rect x="238.6146787461094" y="497.6621714409044" width="1.0365384615384616" height="38.33782855909561" fill="#4CAF50" opacity="0.5"/>
<rect x="240.09830109678376" y="513.0661604990199" width="1.0365384615384616" height="22.93383950098007" fill="#f44336" opacity="0.5"/>
<rect x="241.58192344745814" y="508.769688406834" width="1.0365384615384616" height="27.230311593165993" fill="#4CAF50" opacity="0.5"/>
<rect x="243.06554579813252" y="508.05461829948007" width="1.0365384615384616" height="27.94538170051993" fill="#4CAF50" opacity="0.5"/>
<rect x="244.54916814880687" y="507.7319491120685" width="1.0365384615384616" height="28.26805088793151" fill="#f44336" opacity="0.5"/>
<rect x="246.03279049948125" y="482.2200433181503" width="1.0365384615384616" height="53.77995668184968" fill="#f44336" opacity="0.5"/>
<rect x="247.51641285015563" y="500.9111733604223" width="1.0365384615384616" height="35.08882663957769" fill="#4CAF50" opacity="0.5"/>
<rect x="249.00003520083" y="488.983797245927" width="1.0365384615384616" height="47.01620275407299" fill="#f44336" opacity="0.5"/>
<rect x="250.4836575515044" y="515.6361115012699" width="1.0365384615384616" height="20.363888498730148" fill="#4CAF50" opacity="0.5"/>
<rect x="251.96727990217875" y="493.5626609090246" width="1.0365384615384616" height="42.4373390909754" fill="#4CAF50" opacity="0.5"/>
<rect x="253.45090225285313" y="493.5866986054936" width="1.0365384615384616" height="42.41330139450639" fill="#4CAF50" opacity="0.5"/>
<rect x="254.9345246035275" y="510.64440460371134" width="1.0365384615384616" height="25.355595396288663" fill="#4CAF50" opacity="0.5"/>
<rect x="256.41814695420186" y="494.31088323955845" width="1.0365384615384616" height="41.68911676044155" fill="#4CAF50" opacity="0.5"/>
<rect x="257.90176930487627" y="474.30805513654764" width="1.0365384615384616" height="61.69194486345236" fill="#4CAF50" opacity="0.5"/>
<rect x="259.38539165555056" y="493.0984644139254" width="1.0365384615384616" height="42.9015355860746" fill="#f44336" opacity="0.5"/>
<rect x="260.869014006225" y="500.0124119206886" width="1.0365384615384616" height="35.98758807931142" fill="#4CAF50" opacity="0.5"/>
<rect x="262.3526363568994" y="509.0371474693331" width="1.0365384615384616" height="26.962852530666908" fill="#f44336" opacity="0.5"/>
<rect x="263.83625870757373" y="505.18969655881904" width="1.0365384615384616" height="30.810303441180963" fill="#f44336" opacity="0.5"/>
<rect x="265.3198810582481" y="516.822568867624" width="1.0365384615384616" height="19.177431132376" fill="#f44336" opacity="0.5"/>
<rect x="266.8035034089225" y="519.9364591350387" width="1.0365384615384616" height="16.063540864961283" fill="#4CAF50" opacity="0.5"/>
<rect x="268.28712575959685" y="514.7751342573067" width="1.0365384615384616" height="21.224865742693282" fill="#f44336" opacity="0.5"/>
<rect x="269.7707481102712" y="522.5832392471762" width="1.0365384615384616" height="13.416760752823848" fill="#f44336" opacity="0.5"/>
<rect x="271.2543704609456" y="517.5036275955918" width="1.0365384615384616" height="18.49637240440825" fill="#f44336" opacity="0.5"/>
<rect x="272.73799281161996" y="520.2931303631822" width="1.0365384615384616" height="15.706869636817828" fill="#f44336" opacity="0.5"/>
<rect x="274.2216151622943" y="525.4532318771855" width="1.0365384615384616" height="10.546768122814456" fill="#f44336" opacity="0.5"/>
<rect x="275.7052375129687" y="520.4721243523902" width="1.0365384615384616" height="15.52787564760979" fill="#4CAF50" opacity="0.5"/>
<rect x="277.18885986364313" y="519.6975670164009" width="1.0365384615384616" height="16.302432983599147" fill="#f44336" opacity="0.5"/>
<rect x="278.6724822143174" y="497.9899395336276" width="1.0365384615384616" height="38.01006046637241" fill="#f44336" opacity="0.5"/>
<rect x="280.15610456499184" y="510.2145463409029" width="1.0365384615384616" height="25.785453659097072" fill="#4CAF50" opacity="0.5"/>
<rect x="281.63972691566624" y="512.5091004243994" width="1.0365384615384616" height="23.490899575600565" fill="#f44336" opacity="0.5"/>
<rect x="283.12334926634054" y="517.2292859447874" width="1.0365384615384616" height="18.77071405521258" fill="#f44336" opacity="0.5"/>
<rect x="284.60697161701495" y="522.6998230089164" width="1.0365384615384616" height="13.300176991083617" fill="#4CAF50" opacity="0.5"/>
<rect x="286.09059396768936" y="514.0115871948748" width="1.0365384615384616" height="21.988412805125222" fill="#4CAF50" opacity="0.5"/>
<rect x="287.5742163183637" y="515.051558428046" width="1.0365384615384616" height="20.94844157195405" fill="#f44336" opacity="0.5"/>
<rect x="289.05783866903806" y="487.2094995999943" width="1.0365384615384616" height="48.790500400005726" fill="#4CAF50" opacity="0.5"/>
<rect x="290.5414610197125" y="508.12664734099735" width="1.0365384615384616" height="27.87335265900265" fill="#4CAF50" opacity="0.5"/>
<rect x="292.0250833703868" y="504.0344396368716" width="1.0365384615384616" height="31.965560363128418" fill="#4CAF50" opacity="0.5"/>
<rect x="293.5087057210612" y="502.52903920621816" width="1.0365384615384616" height="33.47096079378184" fill="#f44336" opacity="0.5"/>
<rect x="294.9923280717356" y="518.7407284848485" width="1.0365384615384616" height="17.259271515151454" fill="#f44336" opacity="0.5"/>
<rect x="296.47595042241" y="515.5418377849315" width="1.0365384615384616" height="20.458162215068455" fill="#f44336" opacity="0.5"/>
<rect x="297.9595727730843" y="522.8280800886776" width="1.0365384615384616" height="13.171919911322448" fill="#4CAF50" opacity="0.5"/>
<rect x="299.4431951237587" y="523.8303698512767" width="1.0365384615384616" height="12.169630148723286" fill="#4CAF50" opacity="0.5"/>
<rect x="300.9268174744331" y="513.0484824262088" width="1.0365384615384616" height="22.951517573791193" fill="#4CAF50" opacity="0.5"/>
<rect x="302.4104398251074" y="519.792419729313" width="1.0365384615384616" height="16.207580270687004" fill="#f44336" opacity="0.5"/>
<rect x="303.8940621757818" y="521.8212050467598" width="1.0365384615384616" height="14.178794953240185" fill="#4CAF50" opacity="0.5"/>
<rect x="305.3776845264562" y="515.3491720056571" width="1.0365384615384616" height="20.650827994342876" fill="#f44336" opacity="0.5"/>
<rect x="306.8613068771305" y="521.2409851091853" width="1.0365384615384616" height="14.759014890814683" fill="#4CAF50" opacity="0.5"/>
<rect x="308.3449292278049" y="516.9372568825175" width="1.0365384615384616" height="19.062743117482455" fill="#4CAF50" opacity="0.5"/>
<rect x="309.82855157847933" y="523.5797763986545" width="1.0365384615384616" height="12.42022360134547" fill="#f44336" opacity="0.5"/>
<rect x="311.31217392915363" y="514.1167591209175" width="1.0365384615384616" height="21.88324087908245" fill="#f44336" opacity="0.5"/>
<rect x="312.79579627982804" y="516.5388885624028" width="1.0365384615384616" height="19.461111437597197" fill="#f44336" opacity="0.5"/>
<rect x="314.27941863050245" y="519.9449479719036" width="1.0365384615384616" height="16.055052028096384" fill="#f44336" opacity="0.5"/>
<rect x="315.76304098117686" y="523.9070868973113" width="1.0365384615384616" height="12.092913102688726" fill="#f44336" opacity="0.5"/>
<rect x="317.24666333185115" y="524.8709294196763" width="1.0365384615384616" height="11.129070580323742" fill="#4CAF50" opacity="0.5"/>
<rect x="318.73028568252556" y="513.6501906075964" width="1.0365384615384616" height="22.349809392403586" fill="#f44336" opacity="0.5"/>
<rect x="320.21390803319997" y="523.4282660693952" width="1.0365384615384616" height="12.57173393060475" fill="#f44336" opacity="0.5"/>
<rect x="321.69753038387427" y="522.7123928377614" width="1.0365384615384616" height="13.2876071622386" fill="#f44336" opacity="0.5"/>
<rect x="323.1811527345487" y="500.43098908896144" width="1.0365384615384616" height="35.56901091103856" fill="#f44336" opacity="0.5"/>
<rect x="324.6647750852231" y="509.38660925626675" width="1.0365384615384616" height="26.613390743733248" fill="#4CAF50" opacity="0.5"/>
<rect x="326.1483974358974" y="507.7937149723816" width="1.0365384615384616" height="28.206285027618378" fill="#f44336" opacity="0.5"/>
<rect x="327.6320197865718" y="510.4879167716479" width="1.0365384615384616" height="25.512083228352083" fill="#4CAF50" opacity="0.5"/>
<rect x="329.1156421372462" y="492.7862918740783" width="1.0365384615384616" height="43.2137081259217" fill="#4CAF50" opacity="0.5"/>
<rect x="330.59926448792055" y="499.17764827967363" width="1.0365384615384616" height="36.82235172032637" fill="#4CAF50" opacity="0.5"/>
<rect x="332.0828868385949" y="510.8107633934934" width="1.0365384615384616" height="25.189236606506597" fill="#4CAF50" opacity="0.5"/>
<rect x="333.5665091892693" y="515.0343005946836" width="1.0365384615384616" height="20.9656994053164" fill="#f44336" opacity="0.5"/>
<rect x="335.05013153994366" y="512.5231644379512" width="1.0365384615384616" height="23.47683556204879" fill="#4CAF50" opacity="0.5"/>
<rect x="336.533753890618" y="518.2935750340602" width="1.0365384615384616" height="17.706424965939846" fill="#4CAF50" opacity="0.5"/>
<rect x="338.0173762412924" y="513.1261239990306" width="1.0365384615384616" height="22.873876000969403" fill="#f44336" opacity="0.5"/>
<rect x="339.5009985919668" y="516.7320025970891" width="1.0365384615384616" height="19.26799740291085" fill="#4CAF50" opacity="0.5"/>
<rect x="340.98462094264113" y="504.02582939749925" width="1.0365384615384616" height="31.97417060250075" fill="#4CAF50" opacity="0.5"/>
<rect x="342.46824329331554" y="503.98398288705727" width="1.0365384615384616" height="32.016017112942734" fill="#4CAF50" opacity="0.5"/>
<rect x="343.95186564398995" y="505.7398273518623" width="1.0365384615384616" height="30.26017264813771" fill="#4CAF50" opacity="0.5"/>
<rect x="345.43548799466424" y="516.0503835498564" width="1.0365384615384616" height="19.949616450143594" fill="#f44336" opacity="0.5"/>
<rect x="346.91911034533865" y="511.4952494076322" width="1.0365384615384616" height="24.504750592367827" fill="#4CAF50" opacity="0.5"/>
<rect x="348.40273269601306" y="514.6681786482703" width="1.0365384615384616" height="21.331821351729673" fill="#f44336" opacity="0.5"/>
<rect x="349.8863550466874" y="517.7123465218087" width="1.0365384615384616" height="18.28765347819126" fill="#4CAF50" opacity="0.5"/>
<rect x="351.36997739736177" y="512.363436092805" width="1.0365384615384616" height="23.636563907194954" fill="#f44336" opacity="0.5"/>
<rect x="352.8535997480362" y="512.5199892954495" width="1.0365384615384616" height="23.480010704550523" fill="#f44336" opacity="0.5"/>
<rect x="354.3372220987105" y="508.82943711779313" width="1.0365384615384616" height="27.170562882206866" fill="#4CAF50" opacity="0.5"/>
<rect x="355.8208444493849" y="474.26300546764065" width="1.0365384615384616" height="61.73699453235935" fill="#4CAF50" opacity="0.5"/>
<rect x="357.3044668000593" y="492.39201388459816" width="1.0365384615384616" height="43.60798611540184" fill="#4CAF50" opacity="0.5"/>
<rect x="358.78808915073364" y="499.37220046714026" width="1.0365384615384616" height="36.62779953285974" fill="#4CAF50" opacity="0.5"/>
<rect x="360.271711501408" y="502.23119216224654" width="1.0365384615384616" height="33.76880783775346" fill="#4CAF50" opacity="0.5"/>
<rect x="361.7553338520824" y="489.85595285922716" width="1.0365384615384616" height="46.14404714077284" fill="#4CAF50" opacity="0.5"/>
<rect x="363.23895620275675" y="497.31557662087675" width="1.0365384615384616" height="38.684423379123245" fill="#f44336" opacity="0.5"/>
<rect x="364.7225785534311" y="494.78641686111973" width="1.0365384615384616" height="41.21358313888027" fill="#f44336" opacity="0.5"/>
<rect x="366.2062009041055" y="508.5715781920346" width="1.0365384615384616" height="27.42842180796538" fill="#f44336" opacity="0.5"/>
<rect x="367.68982325477987" y="477.73868454581924" width="1.0365384615384616" height="58.26131545418076" fill="#4CAF50" opacity="0.5"/>
<rect x="369.1734456054543" y="476.51796365640956" width="1.0365384615384616" height="59.48203634359044" fill="#4CAF50" opacity="0.5"/>
<rect x="370.6570679561286" y="492.04102989699464" width="1.0365384615384616" height="43.958970103005356" fill="#4CAF50" opacity="0.5"/>
<rect x="372.14069030680304" y="481.1849562012391" width="1.0365384615384616" height="54.81504379876088" fill="#4CAF50" opacity="0.5"/>
<rect x="373.6243126574774" y="478.1105310873901" width="1.0365384615384616" height="57.889468912609914" fill="#4CAF50" opacity="0.5"/>
<rect x="375.10793500815174" y="461.7856666558816" width="1.0365384615384616" height="74.21433334411842" fill="#4CAF50" opacity="0.5"/>
<rect x="376.59155735882615" y="474.60953491708733" width="1.0365384615384616" height="61.39046508291267" fill="#f44336" opacity="0.5"/>
<rect x="378.0751797095005" y="497.92762269270384" width="1.0365384615384616" height="38.072377307296165" fill="#4CAF50" opacity="0.5"/>
<rect x="379.55880206017486" y="490.588943844407" width="1.0365384615384616" height="45.41105615559297" fill="#f44336" opacity="0.5"/>
<rect x="381.04242441084926" y="504.4582651289267" width="1.0365384615384616" height="31.541734871073288" fill="#4CAF50" opacity="0.5"/>
<rect x="382.5260467615236" y="509.62586558242685" width="1.0365384615384616" height="26.374134417573146" fill="#f44336" opacity="0.5"/>
<rect x="384.00966911219797" y="508.5428057977762" width="1.0365384615384616" height="27.457194202223775" fill="#f44336" opacity="0.5"/>
<rect x="385.4932914628724" y="508.8460319066919" width="1.0365384615384616" height="27.153968093308094" fill="#4CAF50" opacity="0.5"/>
<rect x="386.97691381354673" y="517.7141115274935" width="1.0365384615384616" height="18.285888472506485" fill="#f44336" opacity="0.5"/>
<rect x="388.46053616422114" y="516.3834653369429" width="1.0365384615384616" height="19.61653466305711" fill="#f44336" opacity="0.5"/>
<rect x="389.9441585148955" y="482.755353666634" width="1.0365384615384616" height="53.244646333366006" fill="#4CAF50" opacity="0.5"/>
<rect x="391.42778086556984" y="511.78203948477415" width="1.0365384615384616" height="24.217960515225855" fill="#4CAF50" opacity="0.5"/>
<rect x="392.91140321624425" y="522.6808095085236" width="1.0365384615384616" height="13.319190491476434" fill="#f44336" opacity="0.5"/>
<rect x="394.3950255669186" y="524.7339780526528" width="1.0365384615384616" height="11.266021947347213" fill="#f44336" opacity="0.5"/>
<rect x="395.87864791759296" y="507.87113241749745" width="1.0365384615384616" height="28.12886758250255" fill="#f44336" opacity="0.5"/>
<rect x="397.36227026826737" y="503.6645355354195" width="1.0365384615384616" height="32.335464464580525" fill="#4CAF50" opacity="0.5"/>
<rect x="398.8458926189417" y="514.030385906216" width="1.0365384615384616" height="21.969614093784003" fill="#f44336" opacity="0.5"/>
<rect x="400.3295149696161" y="517.5812411524503" width="1.0365384615384616" height="18.418758847549725" fill="#4CAF50" opacity="0.5"/>
<rect x="401.8131373202905" y="502.01945685065294" width="1.0365384615384616" height="33.980543149347056" fill="#f44336" opacity="0.5"/>
<rect x="403.29675967096483" y="511.85366696415156" width="1.0365384615384616" height="24.146333035848443" fill="#4CAF50" opacity="0.5"/>
<rect x="404.78038202163924" y="496.5865078705519" width="1.0365384615384616" height="39.413492129448116" fill="#4CAF50" opacity="0.5"/>
<rect x="406.2640043723136" y="508.04238466219397" width="1.0365384615384616" height="27.957615337806033" fill="#f44336" opacity="0.5"/>
<rect x="407.747626722988" y="488.4575173762645" width="1.0365384615384616" height="47.54248262373551" fill="#4CAF50" opacity="0.5"/>
<rect x="409.23124907366235" y="496.83923987503556" width="1.0365384615384616" height="39.16076012496444" fill="#f44336" opacity="0.5"/>
<rect x="410.7148714243367" y="491.77853899864533" width="1.0365384615384616" height="44.22146100135467" fill="#f44336" opacity="0.5"/>
<rect x="412.1984937750111" y="514.9135704703824" width="1.0365384615384616" height="21.08642952961759" fill="#4CAF50" opacity="0.5"/>
<rect x="413.68211612568547" y="507.71333717381566" width="1.0365384615384616" height="28.28666282618434" fill="#f44336" opacity="0.5"/>
<rect x="415.1657384763598" y="506.1547531062581" width="1.0365384615384616" height="29.845246893741887" fill="#f44336" opacity="0.5"/>
<rect x="416.64936082703423" y="517.4317292952362" width="1.0365384615384616" height="18.56827070476379" fill="#4CAF50" opacity="0.5"/>
<rect x="418.1329831777086" y="523.2165307578016" width="1.0365384615384616" height="12.783469242198407" fill="#f44336" opacity="0.5"/>
<rect x="419.61660552838293" y="522.7492058134727" width="1.0365384615384616" height="13.250794186527287" fill="#f44336" opacity="0.5"/>
<rect x="421.10022787905734" y="503.1201947081147" width="1.0365384615384616" height="32.879805291885305" fill="#4CAF50" opacity="0.5"/>
<rect x="422.5838502297317" y="520.1743426789996" width="1.0365384615384616" height="15.825657321000449" fill="#4CAF50" opacity="0.5"/>
<rect x="424.06747258040605" y="502.9021091115176" width="1.0365384615384616" height="33.097890888482425" fill="#f44336" opacity="0.5"/>
<rect x="425.55109493108046" y="514.8684087376224" width="1.0365384615384616" height="21.131591262377583" fill="#f44336" opacity="0.5"/>
<rect x="427.03471728175487" y="520.1174142416744" width="1.0365384615384616" height="15.882585758325604" fill="#f44336" opacity="0.5"/>
<rect x="428.5183396324292" y="519.1070558816591" width="1.0365384615384616" height="16.892944118340893" fill="#4CAF50" opacity="0.5"/>
<rect x="430.00196198310357" y="505.8555426187417" width="1.0365384615384616" height="30.14445738125829" fill="#4CAF50" opacity="0.5"/>
<rect x="431.485584333778" y="514.6936451588651" width="1.0365384615384616" height="21.306354841134862" fill="#4CAF50" opacity="0.5"/>
<rect x="432.96920668445233" y="515.0858966603369" width="1.0365384615384616" height="20.914103339663143" fill="#f44336" opacity="0.5"/>
<rect x="434.4528290351267" y="493.586595880295" width="1.0365384615384616" height="42.41340411970498" fill="#4CAF50" opacity="0.5"/>
<rect x="435.9364513858011" y="513.100862938833" width="1.0365384615384616" height="22.89913706116704" fill="#f44336" opacity="0.5"/>
<rect x="437.42007373647544" y="520.8751433224046" width="1.0365384615384616" height="15.124856677595403" fill="#f44336" opacity="0.5"/>
<rect x="438.9036960871498" y="522.6869169885122" width="1.0365384615384616" height="13.313083011487834" fill="#f44336" opacity="0.5"/>
<rect x="440.3873184378242" y="519.3186324361276" width="1.0365384615384616" height="16.681367563872413" fill="#f44336" opacity="0.5"/>
<rect x="441.8709407884986" y="521.20703910038" width="1.0365384615384616" height="14.79296089961997" fill="#4CAF50" opacity="0.5"/>
<rect x="443.3545631391729" y="508.30961959698703" width="1.0365384615384616" height="27.690380403012966" fill="#f44336" opacity="0.5"/>
<rect x="444.8381854898473" y="519.9020648708214" width="1.0365384615384616" height="16.09793512917861" fill="#f44336" opacity="0.5"/>
<rect x="446.3218078405217" y="518.6992088273112" width="1.0365384615384616" height="17.300791172688832" fill="#4CAF50" opacity="0.5"/>
<rect x="447.805430191196" y="516.7218981730101" width="1.0365384615384616" height="19.278101826989882" fill="#f44336" opacity="0.5"/>
<rect x="449.28905254187043" y="524.0414514570612" width="1.0365384615384616" height="11.958548542938843" fill="#4CAF50" opacity="0.5"/>
<rect x="450.77267489254484" y="521.1810216091746" width="1.0365384615384616" height="14.81897839082535" fill="#f44336" opacity="0.5"/>
<rect x="452.2562972432192" y="527.3653680623113" width="1.0365384615384616" height="8.63463193768871" fill="#f44336" opacity="0.5"/>
<rect x="453.73991959389355" y="520.4287556412783" width="1.0365384615384616" height="15.571244358721742" fill="#4CAF50" opacity="0.5"/>
<rect x="455.22354194456796" y="526.1118871732072" width="1.0365384615384616" height="9.888112826792849" fill="#f44336" opacity="0.5"/>
<rect x="456.7071642952423" y="514.4677898017932" width="1.0365384615384616" height="21.532210198206826" fill="#4CAF50" opacity="0.5"/>
<rect x="458.1907866459167" y="525.3055877508549" width="1.0365384615384616" height="10.694412249145103" fill="#4CAF50" opacity="0.5"/>
<rect x="459.674408996591" y="526.3960157338404" width="1.0365384615384616" height="9.603984266159614" fill="#4CAF50" opacity="0.5"/>
<rect x="461.1580313472654" y="527.369729213924" width="1.0365384615384616" height="8.63027078607604" fill="#f44336" opacity="0.5"/>
<rect x="462.6416536979398" y="526.0074249849001" width="1.0365384615384616" height="9.992575015099874" fill="#4CAF50" opacity="0.5"/>
<rect x="464.1252760486142" y="522.0841255232123" width="1.0365384615384616" height="13.915874476787735" fill="#f44336" opacity="0.5"/>
<rect x="465.6088983992886" y="528.0750871206844" width="1.0365384615384616" height="7.9249128793155705" fill="#4CAF50" opacity="0.5"/>
<rect x="467.09252074996294" y="527.2541073335888" width="1.0365384615384616" height="8.745892666411237" fill="#f44336" opacity="0.5"/>
<rect x="468.57614310063724" y="508.7209779853956" width="1.0365384615384616" height="27.27902201460438" fill="#4CAF50" opacity="0.5"/>
<rect x="470.05976545131165" y="517.8937685611652" width="1.0365384615384616" height="18.10623143883481" fill="#4CAF50" opacity="0.5"/>
<rect x="471.54338780198606" y="518.04302827471" width="1.0365384615384616" height="17.956971725290032" fill="#f44336" opacity="0.5"/>
<rect x="473.0270101526604" y="524.4193214307309" width="1.0365384615384616" height="11.58067856926914" fill="#f44336" opacity="0.5"/>
<rect x="474.5106325033348" y="521.5695936808061" width="1.0365384615384616" height="14.430406319193935" fill="#f44336" opacity="0.5"/>
<rect x="475.99425485400917" y="528.2161755116144" width="1.0365384615384616" height="7.783824488385562" fill="#4CAF50" opacity="0.5"/>
<rect x="477.4778772046836" y="517.5876754853435" width="1.0365384615384616" height="18.41232451465646" fill="#4CAF50" opacity="0.5"/>
<rect x="478.9614995553579" y="521.0163624544964" width="1.0365384615384616" height="14.983637545503598" fill="#4CAF50" opacity="0.5"/>
<rect x="480.4451219060323" y="509.64399191065" width="1.0365384615384616" height="26.356008089349984" fill="#4CAF50" opacity="0.5"/>
<rect x="481.92874425670664" y="511.97275348527546" width="1.0365384615384616" height="24.02724651472454" fill="#4CAF50" opacity="0.5"/>
<rect x="483.41236660738105" y="520.3301394506361" width="1.0365384615384616" height="15.669860549363875" fill="#4CAF50" opacity="0.5"/>
<rect x="484.89598895805545" y="506.71943352288287" width="1.0365384615384616" height="29.280566477117134" fill="#4CAF50" opacity="0.5"/>
<rect x="486.3796113087298" y="520.4142060176969" width="1.0365384615384616" height="15.58579398230313" fill="#f44336" opacity="0.5"/>
<rect x="487.8632336594041" y="523.6243497961862" width="1.0365384615384616" height="12.375650203813848" fill="#f44336" opacity="0.5"/>
<rect x="489.3468560100785" y="516.9952686037551" width="1.0365384615384616" height="19.004731396244892" fill="#f44336" opacity="0.5"/>
<rect x="490.8304783607529" y="510.71450054376436" width="1.0365384615384616" height="25.28549945623564" fill="#f44336" opacity="0.5"/>
<rect x="492.3141007114273" y="514.6581956266987" width="1.0365384615384616" height="21.34180437330133" fill="#f44336" opacity="0.5"/>
<rect x="493.7977230621017" y="511.7360746277343" width="1.0365384615384616" height="24.263925372265703" fill="#4CAF50" opacity="0.5"/>
<rect x="495.28134541277603" y="508.65144236460765" width="1.0365384615384616" height="27.348557635392353" fill="#f44336" opacity="0.5"/>
<rect x="496.7649677634504" y="522.9473253669265" width="1.0365384615384616" height="13.05267463307348" fill="#f44336" opacity="0.5"/>
<rect x="498.24859011412474" y="516.1070878594757" width="1.0365384615384616" height="19.892912140524345" fill="#4CAF50" opacity="0.5"/>
<rect x="499.73221246479915" y="521.8343818881419" width="1.0365384615384616" height="14.165618111858066" fill="#f44336" opacity="0.5"/>
<rect x="501.2158348154735" y="511.36673084554724" width="1.0365384615384616" height="24.633269154452762" fill="#f44336" opacity="0.5"/>
<rect x="502.6994571661479" y="522.5959865104552" width="1.0365384615384616" height="13.404013489544809" fill="#f44336" opacity="0.5"/>
<rect x="504.1830795168223" y="513.4908077926638" width="1.0365384615384616" height="22.50919220733624" fill="#4CAF50" opacity="0.5"/>
<rect x="505.66670186749667" y="517.7664360081912" width="1.0365384615384616" height="18.23356399180875" fill="#4CAF50" opacity="0.5"/>
<rect x="507.15032421817097" y="515.3036180494116" width="1.0365384615384616" height="20.696381950588375" fill="#4CAF50" opacity="0.5"/>
<rect x="508.6339465688454" y="516.1396050541553" width="1.0365384615384616" height="19.860394945844746" fill="#f44336" opacity="0.5"/>
<rect x="510.1175689195198" y="506.714642793167" width="1.0365384615384616" height="29.285357206832998" fill="#4CAF50" opacity="0.5"/>
<rect x="511.6011912701942" y="511.20551765434885" width="1.0365384615384616" height="24.794482345651147" fill="#4CAF50" opacity="0.5"/>
<rect x="513.0848136208685" y="515.8212036318121" width="1.0365384615384616" height="20.178796368187932" fill="#4CAF50" opacity="0.5"/>
<rect x="514.568435971543" y="514.1127621768271" width="1.0365384615384616" height="21.88723782317288" fill="#4CAF50" opacity="0.5"/>
<rect x="516.0520583222174" y="509.07053315887345" width="1.0365384615384616" height="26.929466841126555" fill="#4CAF50" opacity="0.5"/>
<rect x="517.5356806728917" y="508.55095844308215" width="1.0365384615384616" height="27.449041556917848" fill="#f44336" opacity="0.5"/>
<rect x="519.0193030235661" y="509.4317429730634" width="1.0365384615384616" height="26.56825702693658" fill="#f44336" opacity="0.5"/>
<rect x="520.5029253742405" y="515.8759841786215" width="1.0365384615384616" height="20.12401582137852" fill="#4CAF50" opacity="0.5"/>
<rect x="521.9865477249148" y="509.1395644923229" width="1.0365384615384616" height="26.860435507677096" fill="#4CAF50" opacity="0.5"/>
<rect x="523.4701700755893" y="514.1246502838998" width="1.0365384615384616" height="21.87534971610023" fill="#4CAF50" opacity="0.5"/>
<rect x="524.9537924262636" y="509.52345789809146" width="1.0365384615384616" height="26.476542101908535" fill="#4CAF50" opacity="0.5"/>
<rect x="526.4374147769379" y="501.77991102620587" width="1.0365384615384616" height="34.220088973794134" fill="#4CAF50" opacity="0.5"/>
<rect x="527.9210371276123" y="509.91435529467276" width="1.0365384615384616" height="26.08564470532724" fill="#f44336" opacity="0.5"/>
<rect x="529.4046594782867" y="503.0046942302869" width="1.0365384615384616" height="32.99530576971313" fill="#4CAF50" opacity="0.5"/>
<rect x="530.888281828961" y="508.1987043984779" width="1.0365384615384616" height="27.8012956015221" fill="#f44336" opacity="0.5"/>
<rect x="532.3719041796355" y="506.8256420395659" width="1.0365384615384616" height="29.174357960434122" fill="#f44336" opacity="0.5"/>
<rect x="533.8555265303098" y="501.8058444695215" width="1.0365384615384616" height="34.1941555304785" fill="#f44336" opacity="0.5"/>
<rect x="535.3391488809841" y="500.16614484969904" width="1.0365384615384616" height="35.83385515030096" fill="#4CAF50" opacity="0.5"/>
<rect x="536.8227712316585" y="484.81504993020064" width="1.0365384615384616" height="51.184950069799356" fill="#4CAF50" opacity="0.5"/>
<rect x="538.3063935823329" y="506.92739601809205" width="1.0365384615384616" height="29.072603981907946" fill="#f44336" opacity="0.5"/>
<rect x="539.7900159330072" y="507.975828072165" width="1.0365384615384616" height="28.024171927835027" fill="#4CAF50" opacity="0.5"/>
<rect x="541.2736382836817" y="504.1779654166044" width="1.0365384615384616" height="31.822034583395578" fill="#f44336" opacity="0.5"/>
<rect x="542.757260634356" y="483.594375734063" width="1.0365384615384616" height="52.40562426593698" fill="#4CAF50" opacity="0.5"/>
<rect x="544.2408829850303" y="472.7141336006767" width="1.0365384615384616" height="63.28586639932331" fill="#f44336" opacity="0.5"/>
<rect x="545.7245053357047" y="501.75935664783435" width="1.0365384615384616" height="34.24064335216565" fill="#f44336" opacity="0.5"/>
<rect x="547.2081276863792" y="475.598171566929" width="1.0365384615384616" height="60.40182843307099" fill="#f44336" opacity="0.5"/>
<rect x="548.6917500370536" y="483.90587589079206" width="1.0365384615384616" height="52.09412410920794" fill="#4CAF50" opacity="0.5"/>
<rect x="550.175372387728" y="490.6933033075155" width="1.0365384615384616" height="45.30669669248448" fill="#f44336" opacity="0.5"/>
<rect x="551.6589947384023" y="504.3862174101006" width="1.0365384615384616" height="31.613782589899415" fill="#f44336" opacity="0.5"/>
<rect x="553.1426170890766" y="490.45257147395756" width="1.0365384615384616" height="45.54742852604244" fill="#f44336" opacity="0.5"/>
<rect x="554.6262394397511" y="503.60034162495793" width="1.0365384615384616" height="32.399658375042065" fill="#f44336" opacity="0.5"/>
<rect x="556.1098617904254" y="505.29281398089006" width="1.0365384615384616" height="30.70718601910994" fill="#f44336" opacity="0.5"/>
<rect x="557.5934841410998" y="510.0765023513128" width="1.0365384615384616" height="25.923497648687203" fill="#4CAF50" opacity="0.5"/>
<rect x="559.0771064917742" y="505.7478679333152" width="1.0365384615384616" height="30.252132066684794" fill="#4CAF50" opacity="0.5"/>
<rect x="560.5607288424485" y="511.06972428047317" width="1.0365384615384616" height="24.930275719526833" fill="#f44336" opacity="0.5"/>
<rect x="562.044351193123" y="513.9500454622677" width="1.0365384615384616" height="22.049954537732333" fill="#f44336" opacity="0.5"/>
<rect x="563.5279735437973" y="505.8920567575116" width="1.0365384615384616" height="30.107943242488375" fill="#4CAF50" opacity="0.5"/>
<rect x="565.0115958944716" y="508.9478979490711" width="1.0365384615384616" height="27.05210205092891" fill="#4CAF50" opacity="0.5"/>
<rect x="566.495218245146" y="501.831796590146" width="1.0365384615384616" height="34.168203409854016" fill="#f44336" opacity="0.5"/>
<rect x="567.9788405958204" y="513.9356359185024" width="1.0365384615384616" height="22.064364081497615" fill="#4CAF50" opacity="0.5"/>
<rect x="569.4624629464947" y="511.10507108744105" width="1.0365384615384616" height="24.894928912558953" fill="#4CAF50" opacity="0.5"/>
<rect x="570.9460852971692" y="470.7047446684537" width="1.0365384615384616" height="65.29525533154629" fill="#f44336" opacity="0.5"/>
<rect x="572.4297076478435" y="495.29489725546375" width="1.0365384615384616" height="40.70510274453625" fill="#4CAF50" opacity="0.5"/>
<rect x="573.9133299985178" y="509.60034303990557" width="1.0365384615384616" height="26.399656960094433" fill="#f44336" opacity="0.5"/>
<rect x="575.3969523491922" y="497.9040052356836" width="1.0365384615384616" height="38.0959947643164" fill="#f44336" opacity="0.5"/>
<rect x="576.8805746998667" y="486.8770528414082" width="1.0365384615384616" height="49.122947158591785" fill="#4CAF50" opacity="0.5"/>
<rect x="578.364197050541" y="505.9282813979947" width="1.0365384615384616" height="30.07171860200532" fill="#f44336" opacity="0.5"/>
<rect x="579.8478194012155" y="500.4508804228693" width="1.0365384615384616" height="35.54911957713068" fill="#f44336" opacity="0.5"/>
<rect x="581.3314417518898" y="508.33143469370486" width="1.0365384615384616" height="27.668565306295136" fill="#f44336" opacity="0.5"/>
<rect x="582.8150641025641" y="495.8987159727496" width="1.0365384615384616" height="40.101284027250415" fill="#4CAF50" opacity="0.5"/>
<rect x="584.2986864532385" y="490.0666515801805" width="1.0365384615384616" height="45.93334841981948" fill="#4CAF50" opacity="0.5"/>
<rect x="585.7823088039129" y="500.7365778774446" width="1.0365384615384616" height="35.263422122555426" fill="#f44336" opacity="0.5"/>
<rect x="587.2659311545873" y="497.5499208148136" width="1.0365384615384616" height="38.45007918518638" fill="#4CAF50" opacity="0.5"/>
<rect x="588.7495535052617" y="499.4876635903504" width="1.0365384615384616" height="36.512336409649606" fill="#f44336" opacity="0.5"/>
<rect x="590.233175855936" y="509.89647177146446" width="1.0365384615384616" height="26.103528228535538" fill="#4CAF50" opacity="0.5"/>
<rect x="591.7167982066104" y="510.1803762043916" width="1.0365384615384616" height="25.81962379560838" fill="#f44336" opacity="0.5"/>
<rect x="593.2004205572847" y="496.08514353087355" width="1.0365384615384616" height="39.91485646912645" fill="#f44336" opacity="0.5"/>
<rect x="594.6840429079591" y="518.6808396940733" width="1.0365384615384616" height="17.319160305926744" fill="#4CAF50" opacity="0.5"/>
<rect x="596.1676652586335" y="516.1025492734291" width="1.0365384615384616" height="19.897450726570924" fill="#4CAF50" opacity="0.5"/>
<rect x="597.6512876093079" y="520.5170526187898" width="1.0365384615384616" height="15.482947381210238" fill="#f44336" opacity="0.5"/>
<rect x="599.1349099599823" y="520.1088600342285" width="1.0365384615384616" height="15.891139965771458" fill="#4CAF50" opacity="0.5"/>
<rect x="600.6185323106566" y="469.68623366313244" width="1.0365384615384616" height="66.31376633686756" fill="#4CAF50" opacity="0.5"/>
<rect x="602.1021546613309" y="478.2910846318858" width="1.0365384615384616" height="57.70891536811422" fill="#4CAF50" opacity="0.5"/>
<rect x="603.5857770120053" y="494.90815556009807" width="1.0365384615384616" height="41.091844439901934" fill="#f44336" opacity="0.5"/>
<rect x="605.0693993626797" y="504.03522408384265" width="1.0365384615384616" height="31.96477591615735" fill="#f44336" opacity="0.5"/>
<rect x="606.5530217133542" y="500.8156295870833" width="1.0365384615384616" height="35.18437041291668" fill="#f44336" opacity="0.5"/>
<rect x="608.0366440640286" y="508.3127013529446" width="1.0365384615384616" height="27.6872986470554" fill="#f44336" opacity="0.5"/>
<rect x="609.5202664147029" y="498.458553212266" width="1.0365384615384616" height="37.541446787734" fill="#4CAF50" opacity="0.5"/>
<rect x="611.0038887653773" y="509.1842312763988" width="1.0365384615384616" height="26.815768723601195" fill="#f44336" opacity="0.5"/>
<rect x="612.4875111160516" y="504.4490572156717" width="1.0365384615384616" height="31.5509427843283" fill="#f44336" opacity="0.5"/>
<rect x="613.971133466726" y="488.66097864004473" width="1.0365384615384616" height="47.33902135995527" fill="#4CAF50" opacity="0.5"/>
<rect x="615.4547558174004" y="512.4839607667092" width="1.0365384615384616" height="23.516039233290826" fill="#f44336" opacity="0.5"/>
<rect x="616.9383781680748" y="502.62894413116976" width="1.0365384615384616" height="33.37105586883024" fill="#4CAF50" opacity="0.5"/>
<rect x="618.4220005187492" y="507.3038651935992" width="1.0365384615384616" height="28.696134806400778" fill="#f44336" opacity="0.5"/>
<rect x="619.9056228694235" y="500.25328383406287" width="1.0365384615384616" height="35.74671616593713" fill="#f44336" opacity="0.5"/>
<rect x="621.3892452200978" y="506.70878745684763" width="1.0365384615384616" height="29.29121254315237" fill="#4CAF50" opacity="0.5"/>
<rect x="622.8728675707722" y="513.7010582582051" width="1.0365384615384616" height="22.29894174179492" fill="#f44336" opacity="0.5"/>
<rect x="624.3564899214466" y="497.637498715935" width="1.0365384615384616" height="38.36250128406499" fill="#4CAF50" opacity="0.5"/>
<rect x="625.840112272121" y="501.3641914861846" width="1.0365384615384616" height="34.63580851381539" fill="#4CAF50" opacity="0.5"/>
<rect x="627.3237346227954" y="498.60762615272245" width="1.0365384615384616" height="37.392373847277554" fill="#4CAF50" opacity="0.5"/>
<rect x="628.8073569734697" y="504.57377494540896" width="1.0365384615384616" height="31.426225054591043" fill="#f44336" opacity="0.5"/>
<rect x="630.2909793241441" y="488.3420355757455" width="1.0365384615384616" height="47.65796442425449" fill="#f44336" opacity="0.5"/>
<rect x="631.7746016748184" y="495.7970740580764" width="1.0365384615384616" height="40.20292594192358" fill="#4CAF50" opacity="0.5"/>
<rect x="633.2582240254928" y="500.3682053153168" width="1.0365384615384616" height="35.6317946846832" fill="#4CAF50" opacity="0.5"/>
<rect x="634.7418463761672" y="511.3318322939914" width="1.0365384615384616" height="24.668167706008603" fill="#f44336" opacity="0.5"/>
<rect x="636.2254687268417" y="515.5367762342375" width="1.0365384615384616" height="20.46322376576245" fill="#f44336" opacity="0.5"/>
<rect x="637.709091077516" y="498.4720195519351" width="1.0365384615384616" height="37.52798044806491" fill="#4CAF50" opacity="0.5"/>
<rect x="639.1927134281904" y="508.03100084245983" width="1.0365384615384616" height="27.968999157540168" fill="#4CAF50" opacity="0.5"/>
<rect x="640.6763357788647" y="515.1491286893934" width="1.0365384615384616" height="20.850871310606635" fill="#f44336" opacity="0.5"/>
<rect x="642.1599581295391" y="510.34949923588107" width="1.0365384615384616" height="25.65050076411893" fill="#f44336" opacity="0.5"/>
<rect x="643.6435804802135" y="511.02942798666436" width="1.0365384615384616" height="24.97057201333564" fill="#4CAF50" opacity="0.5"/>
<rect x="645.1272028308879" y="486.335681706208" width="1.0365384615384616" height="49.66431829379201" fill="#4CAF50" opacity="0.5"/>
<rect x="646.6108251815623" y="484.0401470639978" width="1.0365384615384616" height="51.95985293600222" fill="#4CAF50" opacity="0.5"/>
<rect x="648.0944475322366" y="502.74016750527466" width="1.0365384615384616" height="33.259832494725345" fill="#4CAF50" opacity="0.5"/>
<rect x="649.578069882911" y="493.815766459685" width="1.0365384615384616" height="42.184233540315006" fill="#4CAF50" opacity="0.5"/>
<rect x="651.0616922335853" y="476.92216863553483" width="1.0365384615384616" height="59.07783136446517" fill="#f44336" opacity="0.5"/>
<rect x="652.5453145842597" y="486.7888679277497" width="1.0365384615384616" height="49.21113207225028" fill="#f44336" opacity="0.5"/>
<rect x="654.0289369349341" y="496.4578959219228" width="1.0365384615384616" height="39.542104078077216" fill="#4CAF50" opacity="0.5"/>
<rect x="655.5125592856085" y="492.6795790700568" width="1.0365384615384616" height="43.320420929943225" fill="#f44336" opacity="0.5"/>
<rect x="656.9961816362828" y="478.89651893638575" width="1.0365384615384616" height="57.103481063614254" fill="#f44336" opacity="0.5"/>
<rect x="658.4798039869572" y="478.31742897599577" width="1.0365384615384616" height="57.68257102400423" fill="#4CAF50" opacity="0.5"/>
<rect x="659.9634263376315" y="480.9651989855014" width="1.0365384615384616" height="55.03480101449861" fill="#f44336" opacity="0.5"/>
<rect x="661.4470486883059" y="499.3948280267923" width="1.0365384615384616" height="36.60517197320769" fill="#f44336" opacity="0.5"/>
<rect x="662.9306710389803" y="493.75376713301137" width="1.0365384615384616" height="42.246232866988635" fill="#f44336" opacity="0.5"/>
<rect x="664.4142933896547" y="479.81663787877085" width="1.0365384615384616" height="56.18336212122915" fill="#4CAF50" opacity="0.5"/>
<rect x="665.897915740329" y="480.3363713516872" width="1.0365384615384616" height="55.663628648312795" fill="#4CAF50" opacity="0.5"/>
<rect x="667.3815380910034" y="480.8117742320867" width="1.0365384615384616" height="55.18822576791331" fill="#f44336" opacity="0.5"/>
<rect x="668.8651604416779" y="499.02066549892606" width="1.0365384615384616" height="36.979334501073936" fill="#f44336" opacity="0.5"/>
<rect x="670.3487827923522" y="484.11345550117017" width="1.0365384615384616" height="51.886544498829835" fill="#4CAF50" opacity="0.5"/>
<rect x="671.8324051430266" y="466.6327177965228" width="1.0365384615384616" height="69.3672822034772" fill="#4CAF50" opacity="0.5"/>
<rect x="673.316027493701" y="459.98225108547706" width="1.0365384615384616" height="76.01774891452294" fill="#4CAF50" opacity="0.5"/>
<rect x="674.7996498443754" y="476.85604162360903" width="1.0365384615384616" height="59.14395837639097" fill="#4CAF50" opacity="0.5"/>
<rect x="676.2832721950497" y="470.9347183721235" width="1.0365384615384616" height="65.06528162787652" fill="#f44336" opacity="0.5"/>
<rect x="677.7668945457241" y="474.14318119281785" width="1.0365384615384616" height="61.85681880718215" fill="#4CAF50" opacity="0.5"/>
<rect x="679.2505168963984" y="437.0" width="1.0365384615384616" height="99.0" fill="#4CAF50" opacity="0.5"/>
<rect x="680.7341392470728" y="447.72002817821055" width="1.0365384615384616" height="88.27997182178945" fill="#4CAF50" opacity="0.5"/>
<rect x="682.2177615977472" y="445.8954885715151" width="1.0365384615384616" height="90.1045114284849" fill="#f44336" opacity="0.5"/>
<rect x="683.7013839484216" y="456.19338155412" width="1.0365384615384616" height="79.80661844588002" fill="#f44336" opacity="0.5"/>
<rect x="685.1850062990959" y="490.5580142209784" width="1.0365384615384616" height="45.44198577902159" fill="#f44336" opacity="0.5"/>
<rect x="686.6686286497703" y="486.494803038817" width="1.0365384615384616" height="49.505196961183" fill="#4CAF50" opacity="0.5"/>
<rect x="688.1522510004447" y="492.7698278263414" width="1.0365384615384616" height="43.230172173658616" fill="#4CAF50" opacity="0.5"/>
<rect x="689.635873351119" y="476.4141271579484" width="1.0365384615384616" height="59.58587284205157" fill="#f44336" opacity="0.5"/>
<rect x="691.1194957017934" y="501.2024179757212" width="1.0365384615384616" height="34.797582024278825" fill="#4CAF50" opacity="0.5"/>
<rect x="692.6031180524678" y="494.1917593638169" width="1.0365384615384616" height="41.808240636183086" fill="#4CAF50" opacity="0.5"/>
<rect x="694.0867404031421" y="478.1454950095268" width="1.0365384615384616" height="57.854504990473174" fill="#4CAF50" opacity="0.5"/>
<rect x="695.5703627538165" y="475.76249453004823" width="1.0365384615384616" height="60.23750546995177" fill="#f44336" opacity="0.5"/>
<rect x="697.053985104491" y="473.58567286278526" width="1.0365384615384616" height="62.41432713721474" fill="#4CAF50" opacity="0.5"/>
<rect x="698.5376074551652" y="495.67007769666145" width="1.0365384615384616" height="40.32992230333855" fill="#f44336" opacity="0.5"/>
<rect x="700.0212298058397" y="493.08721133535306" width="1.0365384615384616" height="42.91278866464694" fill="#f44336" opacity="0.5"/>
<rect x="701.5048521565141" y="495.11268143048187" width="1.0365384615384616" height="40.88731856951813" fill="#f44336" opacity="0.5"/>
<rect x="702.9884745071885" y="504.8061580219183" width="1.0365384615384616" height="31.193841978081707" fill="#f44336" opacity="0.5"/>
<rect x="704.4720968578628" y="512.6684552233688" width="1.0365384615384616" height="23.331544776631176" fill="#4CAF50" opacity="0.5"/>
<rect x="705.9557192085372" y="513.916921255051" width="1.0365384615384616" height="22.083078744949034" fill="#f44336" opacity="0.5"/>
<rect x="707.4393415592116" y="513.7547368437932" width="1.0365384615384616" height="22.24526315620676" fill="#f44336" opacity="0.5"/>
<rect x="708.9229639098859" y="513.6782999573912" width="1.0365384615384616" height="22.321700042608768" fill="#f44336" opacity="0.5"/>
<rect x="710.4065862605603" y="513.0584467704716" width="1.0365384615384616" height="22.94155322952838" fill="#4CAF50" opacity="0.5"/>
<rect x="711.8902086112347" y="519.0080101129138" width="1.0365384615384616" height="16.99198988708622" fill="#f44336" opacity="0.5"/>
<rect x="713.373830961909" y="520.891327210509" width="1.0365384615384616" height="15.108672789491038" fill="#4CAF50" opacity="0.5"/>
<rect x="714.8574533125834" y="513.2490673844287" width="1.0365384615384616" height="22.750932615571287" fill="#4CAF50" opacity="0.5"/>
<rect x="716.3410756632578" y="514.5855408953355" width="1.0365384615384616" height="21.414459104664502" fill="#f44336" opacity="0.5"/>
<rect x="717.8246980139321" y="511.61843559804504" width="1.0365384615384616" height="24.38156440195496" fill="#4CAF50" opacity="0.5"/>
<rect x="719.3083203646065" y="514.7330449418499" width="1.0365384615384616" height="21.266955058150074" fill="#4CAF50" opacity="0.5"/>
<rect x="720.7919427152809" y="493.79932108925686" width="1.0365384615384616" height="42.200678910743136" fill="#4CAF50" opacity="0.5"/>
<rect x="722.2755650659552" y="508.4589913743848" width="1.0365384615384616" height="27.541008625615177" fill="#4CAF50" opacity="0.5"/>
<rect x="723.7591874166296" y="489.8809524371011" width="1.0365384615384616" height="46.11904756289891" fill="#f44336" opacity="0.5"/>
<rect x="725.242809767304" y="482.85100950382594" width="1.0365384615384616" height="53.148990496174065" fill="#f44336" opacity="0.5"/>
<rect x="726.7264321179784" y="507.0006951166101" width="1.0365384615384616" height="28.999304883389925" fill="#f44336" opacity="0.5"/>
<rect x="728.2100544686527" y="509.7410205300413" width="1.0365384615384616" height="26.258979469958717" fill="#4CAF50" opacity="0.5"/>
<rect x="729.6936768193272" y="516.9654689575109" width="1.0365384615384616" height="19.034531042489107" fill="#4CAF50" opacity="0.5"/>
<rect x="731.1772991700016" y="503.04222628238824" width="1.0365384615384616" height="32.95777371761176" fill="#f44336" opacity="0.5"/>
<rect x="732.6609215206759" y="510.34214037620063" width="1.0365384615384616" height="25.657859623799368" fill="#4CAF50" opacity="0.5"/>
<rect x="734.1445438713503" y="514.5166403030478" width="1.0365384615384616" height="21.48335969695222" fill="#f44336" opacity="0.5"/>
<rect x="735.6281662220247" y="512.1319682044286" width="1.0365384615384616" height="23.86803179557137" fill="#f44336" opacity="0.5"/>
<rect x="737.111788572699" y="504.25260928135845" width="1.0365384615384616" height="31.747390718641554" fill="#4CAF50" opacity="0.5"/>
<rect x="738.5954109233734" y="507.84240671651116" width="1.0365384615384616" height="28.157593283488836" fill="#f44336" opacity="0.5"/>
<rect x="740.0790332740478" y="514.3642894948911" width="1.0365384615384616" height="21.635710505108932" fill="#f44336" opacity="0.5"/>
<rect x="741.5626556247221" y="519.796967654014" width="1.0365384615384616" height="16.203032345986003" fill="#4CAF50" opacity="0.5"/>
<rect x="743.0462779753965" y="517.1314635397707" width="1.0365384615384616" height="18.86853646022928" fill="#f44336" opacity="0.5"/>
<rect x="744.5299003260709" y="514.8280377345783" width="1.0365384615384616" height="21.171962265421712" fill="#f44336" opacity="0.5"/>
<rect x="746.0135226767453" y="497.7316883843835" width="1.0365384615384616" height="38.26831161561648" fill="#f44336" opacity="0.5"/>
<rect x="747.4971450274196" y="512.5234539362381" width="1.0365384615384616" height="23.47654606376193" fill="#4CAF50" opacity="0.5"/>
<rect x="748.980767378094" y="518.7899431936255" width="1.0365384615384616" height="17.210056806374496" fill="#4CAF50" opacity="0.5"/>
<rect x="750.4643897287683" y="517.2774547242695" width="1.0365384615384616" height="18.722545275730454" fill="#f44336" opacity="0.5"/>
<rect x="751.9480120794427" y="523.9392679004318" width="1.0365384615384616" height="12.060732099568213" fill="#4CAF50" opacity="0.5"/>
<rect x="753.4316344301171" y="521.6856077846269" width="1.0365384615384616" height="14.314392215373118" fill="#f44336" opacity="0.5"/>
<rect x="754.9152567807915" y="515.4057455741145" width="1.0365384615384616" height="20.594254425885538" fill="#f44336" opacity="0.5"/>
<rect x="756.3988791314658" y="519.9615147448392" width="1.0365384615384616" height="16.038485255160822" fill="#4CAF50" opacity="0.5"/>
<rect x="757.8825014821402" y="508.7767297522644" width="1.0365384615384616" height="27.223270247735627" fill="#f44336" opacity="0.5"/>
<rect x="759.3661238328147" y="523.1541111916792" width="1.0365384615384616" height="12.845888808320751" fill="#f44336" opacity="0.5"/>
<rect x="760.849746183489" y="525.2412724378859" width="1.0365384615384616" height="10.758727562114132" fill="#4CAF50" opacity="0.5"/>
<rect x="762.3333685341634" y="512.7415768874529" width="1.0365384615384616" height="23.25842311254712" fill="#4CAF50" opacity="0.5"/>
<rect x="763.8169908848378" y="520.3119384131777" width="1.0365384615384616" height="15.6880615868223" fill="#f44336" opacity="0.5"/>
<rect x="765.3006132355122" y="520.4802676590417" width="1.0365384615384616" height="15.519732340958285" fill="#4CAF50" opacity="0.5"/>
<rect x="766.7842355861865" y="521.2336822814314" width="1.0365384615384616" height="14.766317718568644" fill="#4CAF50" opacity="0.5"/>
<rect x="768.2678579368609" y="517.5224543228961" width="1.0365384615384616" height="18.477545677103876" fill="#4CAF50" opacity="0.5"/>
<rect x="769.7514802875352" y="519.0675253575124" width="1.0365384615384616" height="16.93247464248759" fill="#f44336" opacity="0.5"/>
<rect x="771.2351026382096" y="513.8305853949671" width="1.0365384615384616" height="22.169414605032898" fill="#f44336" opacity="0.5"/>
<rect x="772.718724988884" y="512.0475374298458" width="1.0365384615384616" height="23.95246257015424" fill="#4CAF50" opacity="0.5"/>
<rect x="774.2023473395584" y="515.4279248783546" width="1.0365384615384616" height="20.572075121645412" fill="#4CAF50" opacity="0.5"/>
<rect x="775.6859696902327" y="517.8212725869271" width="1.0365384615384616" height="18.17872741307292" fill="#f44336" opacity="0.5"/>
<rect x="777.1695920409071" y="515.5320975683748" width="1.0365384615384616" height="20.467902431625248" fill="#4CAF50" opacity="0.5"/>
<rect x="778.6532143915814" y="515.8199429134659" width="1.0365384615384616" height="20.180057086534134" fill="#f44336" opacity="0.5"/>
<rect x="780.1368367422558" y="519.1228382076235" width="1.0365384615384616" height="16.877161792376455" fill="#f44336" opacity="0.5"/>
<rect x="781.6204590929302" y="507.008175378798" width="1.0365384615384616" height="28.991824621202" fill="#4CAF50" opacity="0.5"/>
<rect x="783.1040814436046" y="495.61104806209244" width="1.0365384615384616" height="40.388951937907564" fill="#f44336" opacity="0.5"/>
<rect x="784.587703794279" y="506.9908615135091" width="1.0365384615384616" height="29.009138486490883" fill="#f44336" opacity="0.5"/>
<rect x="786.0713261449533" y="484.2738468907799" width="1.0365384615384616" height="51.72615310922009" fill="#f44336" opacity="0.5"/>
<rect x="787.5549484956277" y="495.3932332864734" width="1.0365384615384616" height="40.60676671352661" fill="#4CAF50" opacity="0.5"/>
<rect x="789.038570846302" y="508.5590550564616" width="1.0365384615384616" height="27.440944943538398" fill="#4CAF50" opacity="0.5"/>
<rect x="790.5221931969764" y="512.0741992882058" width="1.0365384615384616" height="23.92580071179418" fill="#4CAF50" opacity="0.5"/>
<rect x="792.0058155476509" y="504.77148359806847" width="1.0365384615384616" height="31.22851640193153" fill="#4CAF50" opacity="0.5"/>
<rect x="793.4894378983253" y="507.0362473739751" width="1.0365384615384616" height="28.963752626024927" fill="#f44336" opacity="0.5"/>
<rect x="794.9730602489997" y="507.58941322970384" width="1.0365384615384616" height="28.410586770296163" fill="#4CAF50" opacity="0.5"/>
<rect x="796.456682599674" y="507.0920178181526" width="1.0365384615384616" height="28.907982181847387" fill="#f44336" opacity="0.5"/>
<rect x="797.9403049503483" y="504.5062284580117" width="1.0365384615384616" height="31.49377154198828" fill="#f44336" opacity="0.5"/>
<rect x="799.4239273010227" y="513.2866181138389" width="1.0365384615384616" height="22.713381886161073" fill="#4CAF50" opacity="0.5"/>
<rect x="800.9075496516971" y="504.53163893668005" width="1.0365384615384616" height="31.468361063319946" fill="#4CAF50" opacity="0.5"/>
<rect x="802.3911720023715" y="507.6373952360977" width="1.0365384615384616" height="28.36260476390231" fill="#4CAF50" opacity="0.5"/>
<rect x="803.8747943530459" y="490.14247211539106" width="1.0365384615384616" height="45.85752788460894" fill="#f44336" opacity="0.5"/>
<rect x="805.3584167037202" y="508.07878673711093" width="1.0365384615384616" height="27.92121326288907" fill="#4CAF50" opacity="0.5"/>
<rect x="806.8420390543945" y="492.2241328941461" width="1.0365384615384616" height="43.77586710585388" fill="#4CAF50" opacity="0.5"/>
<rect x="808.3256614050689" y="497.92460630732717" width="1.0365384615384616" height="38.07539369267283" fill="#f44336" opacity="0.5"/>
<rect x="809.8092837557433" y="491.3641829021689" width="1.0365384615384616" height="44.63581709783108" fill="#4CAF50" opacity="0.5"/>
<rect x="811.2929061064177" y="497.847114152976" width="1.0365384615384616" height="38.15288584702398" fill="#4CAF50" opacity="0.5"/>
<rect x="812.7765284570921" y="479.12511985785625" width="1.0365384615384616" height="56.87488014214375" fill="#f44336" opacity="0.5"/>
<rect x="814.2601508077665" y="496.7770350979648" width="1.0365384615384616" height="39.22296490203519" fill="#f44336" opacity="0.5"/>
<rect x="815.7437731584408" y="507.0452124822153" width="1.0365384615384616" height="28.954787517784723" fill="#4CAF50" opacity="0.5"/>
<rect x="817.2273955091151" y="508.36453088495824" width="1.0365384615384616" height="27.635469115041758" fill="#f44336" opacity="0.5"/>
<rect x="818.7110178597895" y="507.6751887705227" width="1.0365384615384616" height="28.32481122947729" fill="#4CAF50" opacity="0.5"/>
<rect x="820.194640210464" y="501.3574956709677" width="1.0365384615384616" height="34.642504329032306" fill="#f44336" opacity="0.5"/>
<rect x="821.6782625611384" y="498.45846916437625" width="1.0365384615384616" height="37.541530835623746" fill="#f44336" opacity="0.5"/>
<rect x="823.1618849118128" y="514.9759620205415" width="1.0365384615384616" height="21.024037979458512" fill="#4CAF50" opacity="0.5"/>
<rect x="824.6455072624871" y="505.3139100012178" width="1.0365384615384616" height="30.686089998782222" fill="#f44336" opacity="0.5"/>
<rect x="826.1291296131614" y="515.8280955587718" width="1.0365384615384616" height="20.171904441228207" fill="#f44336" opacity="0.5"/>
<rect x="827.6127519638358" y="507.11035893542737" width="1.0365384615384616" height="28.88964106457263" fill="#4CAF50" opacity="0.5"/>
<rect x="829.0963743145102" y="512.1935286143446" width="1.0365384615384616" height="23.806471385655414" fill="#4CAF50" opacity="0.5"/>
<rect x="830.5799966651846" y="505.412348757426" width="1.0365384615384616" height="30.587651242573997" fill="#4CAF50" opacity="0.5"/>
<rect x="832.063619015859" y="512.2280442810693" width="1.0365384615384616" height="23.771955718930712" fill="#f44336" opacity="0.5"/>
<rect x="833.5472413665334" y="510.7175075904866" width="1.0365384615384616" height="25.282492409513395" fill="#4CAF50" opacity="0.5"/>
<rect x="835.0308637172077" y="502.3472156047217" width="1.0365384615384616" height="33.652784395278275" fill="#f44336" opacity="0.5"/>
<rect x="836.514486067882" y="511.10652791753" width="1.0365384615384616" height="24.893472082469998" fill="#f44336" opacity="0.5"/>
<rect x="837.9981084185564" y="511.75064292862464" width="1.0365384615384616" height="24.249357071375357" fill="#4CAF50" opacity="0.5"/>
<rect x="839.4817307692308" y="506.3310855789574" width="1.0365384615384616" height="29.668914421042587" fill="#4CAF50" opacity="0.5"/>
<polyline points="813.2947976878613,239.98825204116693 814.7784200385357,246.83577400723203 816.26204238921,253.68329597329713 817.7456647398843,260.53081793936224 819.2292870905587,267.3783399054273 820.7129094412331,274.2258618714924 822.1965317919075,281.07338383755746 823.680154142582,287.92090580362253 825.1637764932563,294.7684277696876 826.6473988439305,301.6159497357527 828.131021194605,308.4634717018178 829.6146435452794,315.3109936678829 831.0982658959538,322.158515633948 832.5818882466282,329.00603760001303 834.0655105973026,335.8535595660781 835.5491329479769,342.7010815321433 837.0327552986512,349.54860349820837 838.5163776493256,356.3961254642734 840.0,363.2436474303385" stroke="#f85149" stroke-width="2.5" fill="none"/>
<polyline points="813.2947976878613,355.5819961245293 814.7784200385357,354.9382659489176 816.26204238921,354.29453577330594 817.7456647398843,353.65080559769433 819.2292870905587,353.00707542208266 820.7129094412331,352.36334524647106 822.1965317919075,351.7196150708594 823.680154142582,351.0758848952478 825.1637764932563,350.4321547196361 826.6473988439305,349.78842454402445 828.131021194605,349.14469436841284 829.6146435452794,348.5009641928011 831.0982658959538,347.8572340171895 832.5818882466282,347.21350384157785 834.0655105973026,346.56977366596624 835.5491329479769,345.9260434903546 837.0327552986512,345.2823133147429 838.5163776493256,344.6385831391313 840.0,343.99485296351963" stroke="#3fb950" stroke-width="2.5" fill="none"/>
<polygon points="813.2947976878613,239.98825204116693 814.7784200385357,246.83577400723203 816.26204238921,253.68329597329713 817.7456647398843,260.53081793936224 819.2292870905587,267.3783399054273 820.7129094412331,274.2258618714924 822.1965317919075,281.07338383755746 823.680154142582,287.92090580362253 825.1637764932563,294.7684277696876 826.6473988439305,301.6159497357527 828.131021194605,308.4634717018178 829.6146435452794,315.3109936678829 831.0982658959538,322.158515633948 832.5818882466282,329.00603760001303 834.0655105973026,335.8535595660781 835.5491329479769,342.7010815321433 835.5491329479769,345.9260434903546 834.0655105973026,346.56977366596624 832.5818882466282,347.21350384157785 831.0982658959538,347.8572340171895 829.6146435452794,348.5009641928011 828.131021194605,349.14469436841284 826.6473988439305,349.78842454402445 825.1637764932563,350.4321547196361 823.680154142582,351.0758848952478 822.1965317919075,351.7196150708594 820.7129094412331,352.36334524647106 819.2292870905587,353.00707542208266 817.7456647398843,353.65080559769433 816.26204238921,354.29453577330594 814.7784200385357,354.9382659489176 813.2947976878613,355.5819961245293" fill="#FFD700" opacity="0.12"/>
<polygon points="807.2947976878613,231.98825204116693 819.2947976878613,231.98825204116693 813.2947976878613,241.98825204116693" fill="#f85149" stroke="#fff" stroke-width="1"/>
<polygon points="825.0982658959538,314.158515633948 837.0982658959538,314.158515633948 831.0982658959538,324.158515633948" fill="#f85149" stroke="#fff" stroke-width="1"/>
<polygon points="819.1637764932563,358.4321547196361 831.1637764932563,358.4321547196361 825.1637764932563,348.4321547196361" fill="#3fb950" stroke="#fff" stroke-width="1"/>
<polygon points="829.5491329479769,353.9260434903546 841.5491329479769,353.9260434903546 835.5491329479769,343.9260434903546" fill="#3fb950" stroke="#fff" stroke-width="1"/>
<circle cx="837.0327552986512" cy="336.73711078750597" r="6" fill="#e53935" stroke="#fff" stroke-width="2"/>
<text x="837.0327552986512" y="324.73711078750597" text-anchor="middle" font-size="10" fill="#e53935">突破</text>
<polyline points="70.0,141.1188703634014 71.48362235067438,133.0785542484089 72.96724470134875,156.6693718605298 74.45086705202313,120.79719227056313 75.9344894026975,132.19500302698106 77.41811175337187,150.57286843267832 78.90173410404624,154.10707331838938 80.38535645472062,167.71376212837677 81.86897880539499,168.95073383837564 83.35260115606937,145.80169183696853 84.83622350674374,126.18685472127243 86.31984585741812,132.81348888198056 87.80346820809248,132.63677863769493 89.28709055876686,141.0305152412586 90.77071290944123,164.88639821980797 92.25433526011561,154.99062453981708 93.73795761078998,163.1192957769524 95.22157996146436,171.15961189194502 96.70520231213872,158.61318454767095 98.1888246628131,152.60503624196218 99.67244701348747,155.1673347841027 101.15606936416185,152.07490550910552 102.63969171483623,151.63312989839164 104.1233140655106,152.51668111981937 105.60693641618496,133.9621054698366 107.09055876685935,113.81713762128382 108.57418111753373,116.29108104128153 110.05780346820809,98.53170149058364 111.54142581888246,119.3835103162786 113.02504816955684,116.114370796996 114.50867052023122,127.24711618698564 115.99229287090559,138.29150645483253 117.47591522157995,131.31145180555336 118.95953757225433,117.70476299556591 120.44315992292871,137.67302059983314 121.9267822736031,157.4645679598148 123.41040462427745,139.26341279840307 124.89402697495183,156.31595137195876 126.37764932562621,143.23939329482798 127.86127167630059,135.2874323019783 129.34489402697494,146.15511232553956 130.82851637764932,156.6693718605298 132.3121387283237,188.03544022121508 133.79576107899808,180.70196508336474 135.27938342967246,182.46906752622024 136.76300578034682,174.1636860447993 138.2466281310212,189.97925290835616 139.73025048169558,192.71826169478217 141.21387283236993,221.87545200189805 142.6974951830443,238.39785984259703 144.1811175337187,232.7431320254594 145.66473988439307,235.83556130045656 147.14836223506745,236.1889817890276 148.6319845857418,221.69874175761245 150.11560693641619,216.57414467333152 151.59922928709057,239.193055941882 153.08285163776492,259.16131354614924 154.56647398843933,257.39421110329374 156.05009633911368,247.41008230116012 157.53371868978803,252.62303450758384 159.01734104046244,252.53467938544108 160.5009633911368,229.03221689546282 161.98458574181117,227.88360030760677 163.46820809248555,240.16496228545253 164.9518304431599,268.2618911268551 166.43545279383432,255.53875353829542 167.91907514450867,246.61488620187512 169.40269749518305,261.2818364775758 170.88631984585743,270.29405893613887 172.36994219653178,281.9569350589852 173.8535645472062,277.00904821898985 175.33718689788054,286.5514014104096 176.8208092485549,285.31442970041076 178.3044315992293,290.35067166254896 179.78805394990366,304.3107809611074 181.27167630057804,313.7647790303844 182.75529865125242,312.3510970760999 184.23892100192677,320.4797683132353 185.72254335260118,324.89752442037405 187.20616570327553,342.215128360358 188.68978805394988,341.59664250535855 190.1734104046243,339.47611957393195 191.65703275529864,315.2668161068116 193.14065510597305,313.499713663956 194.6242774566474,327.7248883289429 196.10789980732176,324.6324590539457 197.59152215799617,329.4036356496556 199.07514450867052,328.69679467251336 200.5587668593449,343.2753898260713 202.04238921001928,345.8376883682118 203.52601156069363,343.9822308032135 205.009633911368,343.6288103146424 206.4932562620424,347.6047908110673 207.97687861271675,356.9704337582015 209.46050096339115,357.6772747353437 210.9441233140655,351.58077130749217 212.4277456647399,357.76562985748643 213.91136801541427,358.3841157124859 215.39499036608862,337.44395176464815 216.878612716763,336.29533517679204 218.36223506743738,313.4113585418133 219.84585741811176,280.9850287154147 221.32947976878614,197.57779341263483 222.8131021194605,91.0215161084478 224.29672447013488,110.19457761343006 225.78034682080926,154.72555917338875 227.2639691714836,206.32495050476956 228.747591522158,184.94301094621795 230.23121387283237,202.43732513048747 231.71483622350675,208.79889392476727 233.1984585741811,210.47764124548 234.68208092485548,162.14738943338187 236.16570327552986,142.09077670697192 237.64932562620425,154.90226941767438 239.13294797687863,149.7776723333934 240.61657032755298,161.26383821195418 242.10019267822736,153.5769425855327 243.58381502890174,137.31960011126202 245.0674373795761,161.26383821195418 246.55105973025047,211.8913231997644 248.03468208092485,210.1242207569089 249.51830443159923,242.55055058330743 251.0019267822736,232.12464617045998 252.48554913294797,197.48943829049202 253.96917148362235,194.39700901549492 255.45279383429673,188.7422811983573 256.9364161849711,179.81841386193696 258.4200385356455,148.27563525696624 259.9036608863198,161.17548308981137 261.3872832369942,145.6249815926829 262.87090558766863,169.56921969337506 264.354527938343,191.39293486264054 265.83815028901734,204.20442757334297 267.32177263969174,193.16003730549608 268.8053949903661,193.60181291620992 270.28901734104045,197.84285877906314 271.77263969171486,217.54605101690206 273.2562620423892,221.78709687975524 274.73988439306356,223.46584420046798 276.22350674373797,208.79889392476727 277.7071290944124,209.77080026833778 279.1907514450867,226.73498371975066 280.6743737957611,225.58636713189455 282.1579961464355,233.89174861331549 283.6416184971098,237.33759837688373 285.1252408477842,234.06845885760103 286.6088631984586,222.0521622461836 288.09248554913296,235.57049593402817 289.5761078998073,209.2406695354812 291.0597302504817,204.82291342834245 292.5433526011561,200.40515732120363 294.0269749518304,223.20077883403968 295.51059730250483,233.89174861331549 296.99421965317924,247.05666181258894 298.47784200385354,244.49436327044847 299.96146435452795,242.37384033902194 301.44508670520236,237.69101886545482 302.92870905587665,249.8840257211578 304.41233140655106,246.26146571330403 305.89595375722547,258.8078930575781 307.37957610789977,256.0688842711521 308.8631984585742,254.65520231686762 310.3468208092486,259.0729584240064 311.8304431599229,277.1857584632754 313.3140655105973,296.5355302125431 314.7976878612717,308.99360243467453 316.2813102119461,309.965508778245 317.7649325626204,305.19433218253516 319.2485549132948,311.9976765875289 320.7321772639692,312.3510970760999 322.2157996146435,320.568123435378 323.6994219653179,329.05021516108445 325.18304431599233,311.29083561038664 326.66666666666663,324.0139731989463 328.15028901734104,322.158515633948 329.63391136801545,315.090105862526 331.1175337186898,304.48749120539287 332.60115606936415,301.0416414418247 334.08477842003856,308.9052473125317 335.5684007707129,308.9052473125317 337.05202312138726,302.54367851825185 338.5356454720617,312.17438683181445 340.019267822736,307.84498584681836 341.5028901734104,295.03349313611596 342.9865125240848,290.35067166254896 344.4701348747592,281.3384492039858 345.9537572254335,287.7883731204084 347.4373795761079,285.04936433398234 348.9210019267823,291.4109331282622 350.40462427745666,286.37469116612397 351.888246628131,286.6397565325524 353.3718689788054,301.39506193039585 354.8554913294798,287.34659750969456 356.3391136801541,259.95650964543415 357.82273603082854,251.47441791972773 359.3063583815029,246.61488620187512 360.78998073217724,244.40600814830572 362.27360308285165,218.87137784904368 363.757225433526,228.32537591832065 365.24084778420035,234.68694471260045 366.72447013487476,240.87180326259474 368.2080924855491,209.0639592911956 369.6917148362235,201.5537739090597 371.1753371868979,190.5093836412128 372.6589595375723,174.8705270219416 374.14258188824664,163.6494265098091 375.626204238921,127.24711618698564 377.1098265895954,129.5443493626978 378.59344894026975,127.7772469198423 380.0770712909441,146.77359818053907 381.5606936416185,140.67709475268757 383.04431599229287,148.54070062339457 384.5279383429672,166.21172505194954 386.0115606936416,145.2715611041118 387.495183044316,163.8261367540946 388.9788053949904,171.95480799122993 390.46242774566474,145.44827134839736 391.9460500963391,140.1469640198309 393.4296724470135,147.12701866911007 394.91329479768785,157.90634357052863 396.3969171483622,182.02729191550637 397.8805394990366,162.58916504409575 399.36416184971097,163.8261367540946 400.8477842003854,156.05088600553046 402.33140655105973,200.22844707691806 403.8150289017341,195.8106909697793 405.2986512524085,152.87010160839054 406.78227360308284,153.93036307410387 408.26589595375725,112.22674542271393 409.7495183044316,131.6648722941244 411.23314065510596,173.54520018979989 412.71676300578036,167.9788274948051 414.2003853564547,187.85872997692954 415.68400770712907,203.32087635191522 417.1676300578035,197.40108316834926 418.65125240847783,199.1681856112048 420.1348747591522,201.9955495197736 421.6184971098266,194.92713974835155 423.10211946050094,191.1278694962122 424.5857418111753,202.7023904969158 426.0693641618497,224.17268517761016 427.5529865125241,226.73498371975066 429.03660886319847,218.9597329711864 430.5202312138728,206.50166074905513 432.0038535645472,196.8709524354926 433.4874759152216,219.22479833761474 434.97109826589593,195.19220511477988 436.45472061657034,212.50980905476388 437.9383429672447,219.22479833761474 439.42196531791905,230.09247836117615 440.90558766859345,241.7553544840225 442.38921001926786,239.81154179688141 443.87283236994216,248.2936335225878 445.35645472061657,253.24152036258326 446.840077071291,248.64705401115893 448.3236994219653,262.96058379828855 449.8073217726397,259.95650964543415 451.2909441233141,268.2618911268551 452.77456647398844,273.1214228447077 454.2581888246628,261.19348135543305 455.7418111753372,265.25781697400066 457.22543352601156,254.65520231686762 458.70905587668597,252.71138962972657 460.19267822736026,250.41415645401446 461.67630057803467,253.1531652404405 463.159922928709,251.03264230901388 464.64354527938343,261.90032233257523 466.12716763005784,256.864080370437 467.6107899807322,258.01269695829313 469.0944123314065,257.57092134757926 470.5780346820809,249.8840257211578 472.0616570327553,255.89217402686648 473.54527938342966,259.5147340347203 475.02890173410407,264.0208452640019 476.5125240847784,262.16538769900353 477.99614643545283,253.5065857290116 479.4797687861271,251.7394832861561 480.96339113680153,238.30950472045427 482.4470134874759,236.80746764402704 483.9306358381503,236.7191125218843 485.4142581888247,215.6905934519038 486.89788053949906,220.6384802918992 488.38150289017335,228.59044128474895 489.86512524084776,233.71503836902988 491.34874759152217,244.1409427818774 492.8323699421965,244.8477837590196 494.31599229287093,240.69509301830914 495.7996146435453,243.4341018047352 497.28323699421964,244.8477837590196 498.766859344894,242.02041985045076 500.2504816955684,243.61081204902075 501.73410404624275,254.56684719472486 503.21772639691716,254.74355743901046 504.70134874759157,246.61488620187512 506.1849710982659,242.02041985045076 507.6685934489402,239.28141106402478 509.1522157996146,240.87180326259474 510.63583815028903,238.9279905754537 512.1194605009634,232.47806665903104 513.6030828516377,230.53425397189 515.0867052023121,227.53017981903568 516.5703275529866,218.07618174975872 518.0539499036609,225.58636713189455 519.5375722543353,230.8876744604611 521.0211946050097,229.38563738403388 522.504816955684,217.54605101690206 523.9884393063585,216.1323690626176 525.4720616570328,211.36119246690774 526.9556840077071,204.46949293977127 528.4393063583815,207.5619222147684 529.9229287090559,197.48943829049202 531.4065510597302,204.82291342834245 532.8901734104047,206.2365953826268 534.373795761079,219.7549290704714 535.8574181117533,204.3811378176285 537.3410404624277,187.77037485478678 538.8246628131021,195.36891535906545 540.3082851637764,192.71826169478217 541.7919075144509,203.58594171834355 543.2755298651252,188.21215046550063 544.7591522157995,192.71826169478217 546.2427745664739,193.24839242763883 547.7263969171483,203.76265196262906 549.2100192678228,191.3045797404978 550.6936416184972,201.9955495197736 552.1772639691715,204.91126855048518 553.6608863198458,224.7911710326096 555.1445086705203,235.57049593402817 556.6281310211946,247.7635027897312 558.111753371869,242.63890570545018 559.5953757225434,227.61853494117844 561.0789980732177,243.34574668259245 562.5626204238922,245.64297985830459 564.0462427745665,237.33759837688373 565.5298651252408,233.18490763617322 567.0134874759152,235.2170754454571 568.4971098265896,230.35754372760442 569.9807321772639,227.79524518546395 571.4643545279384,232.91984226974498 572.9479768786127,223.20077883403968 574.431599229287,223.28913395618244 575.9152215799614,224.96788127689513 577.3988439306358,208.88724904691003 578.8824662813101,212.86322954333494 580.3660886319847,215.07210759690435 581.849710982659,216.1323690626176 583.3333333333333,206.05988513834123 584.8169556840077,199.60996122191864 586.3005780346821,213.30500515404879 587.7842003853565,205.97153001619847 589.2678227360309,219.4898637040431 590.7514450867052,216.83921003975988 592.2350674373796,226.11649786475124 593.7186897880539,248.91211937758723 595.2023121387283,246.70324132401788 596.6859344894027,242.02041985045076 598.1695568400771,245.90804522473292 599.6531791907515,245.73133498044731 601.1368015414258,216.30907930690321 602.6204238921001,200.93528805406027 604.1040462427745,202.17225976405913 605.5876685934489,207.38521197048289 607.0712909441233,207.73863245905397 608.5549132947978,215.7789485740465 610.038535645472,212.24474368833552 611.5221579961465,212.33309881047828 613.0057803468208,219.22479833761474 614.4894026974952,204.99962367262793 615.9730250481696,209.50573490190945 617.456647398844,204.99962367262793 618.9402697495184,214.54197686404765 620.4238921001927,220.99190078047027 621.907514450867,208.2687631919106 623.3911368015414,218.69466760475817 624.8747591522158,209.85915539048062 626.3583815028902,207.12014660405455 627.8420038535646,206.41330562691235 629.3256262042389,213.57007052047712 630.8092485549133,241.31357887330856 632.2928709055876,224.7911710326096 633.776493256262,219.13644321547199 635.2601156069364,228.0603105518923 636.7437379576108,234.15681397974382 638.2273603082851,214.01184613119102 639.7109826589596,208.97560416905284 641.1946050096338,209.77080026833778 642.6782273603083,212.24474368833552 644.1618497109827,209.68244514619502 645.6454720616571,197.40108316834926 647.1290944123315,193.3367475497816 648.6127167630058,192.01142071763996 650.0963391136802,184.4128802133613 651.5799614643545,185.64985192336016 653.0635838150289,187.85872997692954 654.5472061657033,187.77037485478678 656.0308285163777,207.91534270333952 657.514450867052,221.6103866354697 658.9980732177264,205.97153001619847 660.4816955684007,208.09205294762506 661.9653179190751,209.2406695354812 663.4489402697495,217.19263052833094 664.9325626204239,195.10384999263712 666.4161849710982,173.98697580051382 667.8998073217726,180.5252548390792 669.383429672447,182.02729191550637 670.8670520231213,174.60546165551324 672.3506743737958,159.58509089124146 673.8342967244702,156.13924112767324 675.3179190751446,145.44827134839736 676.8015414258189,158.25976405909984 678.2851637764933,146.68524305839622 679.7687861271676,133.69704010340826 681.252408477842,107.01379321629014 682.7360308285164,148.0105698905379 684.2196531791908,152.33997087553382 685.7032755298651,161.26383821195418 687.1868978805395,153.31187721910436 688.6705202312139,151.19135428767783 690.1541425818882,169.39250944908946 691.6377649325626,160.38028699052637 693.121387283237,155.1673347841027 694.6050096339113,135.37578742412097 696.0886319845857,164.4446226090941 697.5722543352601,157.19950259338646 699.0558766859344,163.0309406548097 700.5394990366088,178.31637678550982 702.0231213872833,189.36076705335674 703.5067437379577,203.85100708477185 704.990366088632,189.97925290835616 706.4739884393064,193.69016803835268 707.9576107899808,199.07983048906198 709.4412331406551,202.8791007412013 710.9248554913295,192.45319632835384 712.4084778420039,196.34082170263596 713.8921001926782,196.25246658049318 715.3757225433526,193.16003730549608 716.859344894027,194.92713974835155 718.3429672447013,191.03951437406946 719.8265895953757,187.50530948835845 721.3102119460501,173.45684506765716 722.7938342967244,172.39658360194386 724.2774566473988,178.31637678550982 725.7610789980732,213.65842564261996 727.2447013487476,216.30907930690321 728.7283236994219,214.45362174190493 730.2119460500963,212.42145393262112 731.6955684007708,225.93978762046567 733.179190751445,217.9878266276159 734.6628131021195,221.96380712404084 736.1464354527939,226.73498371975066 737.6300578034682,226.29320810903684 739.1136801541426,233.27326275831606 740.597302504817,243.61081204902075 742.0809248554913,235.57049593402817 743.5645472061657,246.96830669044618 745.0481695568401,257.7476315918648 746.5317919075145,290.4390267846917 748.0154142581888,282.31035554755636 749.4990366088632,276.8323379747043 750.9826589595375,287.169887265409 752.4662813102119,280.1898326161297 753.9499036608863,282.13364530327084 755.4335260115607,292.4711945939755 756.917148362235,285.6678501889818 758.4007707129094,302.8087438846802 759.8843930635838,307.84498584681836 761.3680154142581,304.92926681610686 762.8516377649325,281.9569350589852 764.335260115607,287.34659750969456 765.8188824662814,284.60758872326846 767.3025048169557,282.4870657918419 768.7861271676301,274.4467496768493 770.2697495183044,278.42273017327426 771.7533718689788,279.57134676113026 773.2369942196532,278.511085295417 774.7206165703276,273.56319845542157 776.2042389210019,276.6556277304187 777.6878612716763,270.02899356971056 779.1714836223506,275.50701114256265 780.655105973025,278.95286090613087 782.1387283236994,265.6112374625718 783.6223506743738,286.10962579969566 785.1059730250482,289.64383068540667 786.5895953757225,297.9492121668276 788.0732177263969,291.6759984946906 789.5568400770712,282.045290181128 791.0404624277456,277.27411358541815 792.52408477842,271.79609601256607 794.0077071290945,274.2700394325638 795.4913294797689,270.47076918042444 796.9749518304432,277.9809545625603 798.4585741811175,280.54325310470085 799.9421965317919,279.1295711504164 801.4258188824663,266.5831438061423 802.9094412331407,264.5509759968585 804.3930635838151,277.62753407398924 805.8766859344894,266.84820917257065 807.3603082851637,247.49843742330287 808.8439306358381,257.8359867140076 810.3275529865125,255.45039841615264 811.8111753371869,244.317653026163 813.2947976878613,281.6918696925569 814.7784200385357,293.08968044897495 816.26204238921,289.99725117397776 817.7456647398843,300.2464453425397 819.2292870905587,295.7403341132582 820.7129094412331,309.17031267896 822.1965317919075,337.9740824975048 823.680154142582,333.2912610239377 825.1637764932563,345.4842678796407 826.6473988439305,346.19110885678293 828.131021194605,344.33565129178464 829.6146435452794,334.08645712322266 831.0982658959538,326.66462686322956 832.5818882466282,329.5803458939411 834.0655105973026,328.3433741839423 835.5491329479769,332.6727751689383 837.0327552986512,336.73711078750597 838.5163776493256,336.1186249325065 840.0,333.82139175679436" stroke="#2196F3" stroke-width="1.8" fill="none"/>
<line x1="70" y1="226.29320810903684" x2="840" y2="226.29320810903684" stroke="#FFD700" stroke-width="1" stroke-dasharray="5,5"/>
<text x="845" y="230.29320810903684" font-size="10" fill="#FFD700">目标 57.05</text>
<line x1="70" y1="336.73711078750597" x2="840" y2="336.73711078750597" stroke="#3fb950" stroke-width="1" stroke-dasharray="2,2"/>
<text x="845" y="340.73711078750597" font-size="10" fill="#3fb950">突破价 44.55</text>
<line x1="840.0" y1="333.82139175679436" x2="840" y2="333.82139175679436" stroke="#88ccff" stroke-width="1"/>
<text x="845" y="337.82139175679436" font-size="10" fill="#88ccff">现价 44.88</text>
<text x="70" y="605" font-size="12" fill="#e0e0e0" font-weight="bold">上榜理由 (综合得分: 98):</text>
<text x="70" y="623" font-size="11" fill="#aaa">1. 形态刚收敛完成（距截止日仅3天），突破信号最新鲜</text>
<text x="70" y="641" font-size="11" fill="#aaa">2. 突破后日线胜率95%，表现优秀</text>
<text x="70" y="659" font-size="11" fill="#aaa">3. 量度目标涨幅28.1%（目标¥57.05 / 突破¥44.55）</text>
<text x="70" y="677" font-size="11" fill="#aaa">4. 收敛前上涨趋势+7.1%，确认中继属性</text>
<text x="70" y="695" font-size="11" fill="#aaa">5. 三角持续15个交易日，整理充分</text>
</svg>