<svg xmlns="http://www.w3.org/2000/svg" viewBox="0 0 900 700" width="900" height="700">
<rect width="900" height="700" fill="#1a1a2e"/>
<text x="450.0" y="28" text-anchor="middle" font-size="16" fill="#e0e0e0" font-weight="bold">长高电气 (002452.SZ)  三角收敛上涨中继  评分:94/100</text>
<line x1="70" y1="374.0" x2="840" y2="374.0" stroke="#2a2a4a" stroke-width="0.5"/>
<text x="65" y="378.0" text-anchor="end" font-size="10" fill="#888">6.20</text>
<line x1="70" y1="309.2" x2="840" y2="309.2" stroke="#2a2a4a" stroke-width="0.5"/>
<text x="65" y="313.2" text-anchor="end" font-size="10" fill="#888">7.69</text>
<line x1="70" y1="244.40000000000003" x2="840" y2="244.40000000000003" stroke="#2a2a4a" stroke-width="0.5"/>
<text x="65" y="248.40000000000003" text-anchor="end" font-size="10" fill="#888">9.19</text>
<line x1="70" y1="179.59999999999997" x2="840" y2="179.59999999999997" stroke="#2a2a4a" stroke-width="0.5"/>
<text x="65" y="183.59999999999997" text-anchor="end" font-size="10" fill="#888">10.69</text>
<line x1="70" y1="114.79999999999998" x2="840" y2="114.79999999999998" stroke="#2a2a4a" stroke-width="0.5"/>
<text x="65" y="118.79999999999998" text-anchor="end" font-size="10" fill="#888">12.18</text>
<line x1="70" y1="50.0" x2="840" y2="50.0" stroke="#2a2a4a" stroke-width="0.5"/>
<text x="65" y="54.0" text-anchor="end" font-size="10" fill="#888">13.68</text>
<text x="70.0" y="551.0" text-anchor="middle" font-size="9" fill="#888">2024-05-06</text>
<text x="166.43545279383432" y="551.0" text-anchor="middle" font-size="9" fill="#888">2024-08-06</text>
<text x="262.87090558766863" y="551.0" text-anchor="middle" font-size="9" fill="#888">2024-11-14</text>
<text x="359.3063583815029" y="551.0" text-anchor="middle" font-size="9" fill="#888">2025-02-24</text>
<text x="455.7418111753372" y="551.0" text-anchor="middle" font-size="9" fill="#888">2025-05-30</text>
<text x="552.1772639691715" y="551.0" text-anchor="middle" font-size="9" fill="#888">2025-09-01</text>
<text x="648.6127167630058" y="551.0" text-anchor="middle" font-size="9" fill="#888">2025-12-09</text>
<text x="745.0481695568401" y="551.0" text-anchor="middle" font-size="9" fill="#888">2026-03-20</text>
<rect x="798.4585741811175" y="50" width="37.09055876685943" height="486.0" fill="#FFD700" opacity="0.06"/>
<rect x="69.48173076923077" y="522.4892264324137" width="1.0365384615384616" height="13.510773567586284" fill="#4CAF50" opacity="0.5"/>
<rect x="70.96535311990515" y="513.9358181339522" width="1.0365384615384616" height="22.06418186604776" fill="#4CAF50" opacity="0.5"/>
<rect x="72.44897547057951" y="520.2756190105003" width="1.0365384615384616" height="15.72438098949965" fill="#f44336" opacity="0.5"/>
<rect x="73.93259782125389" y="524.3074642193073" width="1.0365384615384616" height="11.692535780692651" fill="#4CAF50" opacity="0.5"/>
<rect x="75.41622017192826" y="519.9663384638676" width="1.0365384615384616" height="16.0336615361324" fill="#4CAF50" opacity="0.5"/>
<rect x="76.89984252260264" y="501.636755879546" width="1.0365384615384616" height="34.363244120454" fill="#4CAF50" opacity="0.5"/>
<rect x="78.383464873277" y="509.6038771388634" width="1.0365384615384616" height="26.396122861136575" fill="#f44336" opacity="0.5"/>
<rect x="79.86708722395139" y="518.9580290583576" width="1.0365384615384616" height="17.041970941642376" fill="#f44336" opacity="0.5"/>
<rect x="81.35070957462575" y="524.6543069614237" width="1.0365384615384616" height="11.345693038576314" fill="#f44336" opacity="0.5"/>
<rect x="82.83433192530013" y="526.487783789109" width="1.0365384615384616" height="9.512216210890983" fill="#f44336" opacity="0.5"/>
<rect x="84.3179542759745" y="524.9088076730674" width="1.0365384615384616" height="11.091192326932628" fill="#4CAF50" opacity="0.5"/>
<rect x="85.80157662664888" y="528.9167457791801" width="1.0365384615384616" height="7.083254220819867" fill="#f44336" opacity="0.5"/>
<rect x="87.28519897732325" y="528.6254534654286" width="1.0365384615384616" height="7.3745465345714365" fill="#f44336" opacity="0.5"/>
<rect x="88.76882132799763" y="529.3803534620524" width="1.0365384615384616" height="6.619646537947574" fill="#f44336" opacity="0.5"/>
<rect x="90.252443678672" y="527.491223757172" width="1.0365384615384616" height="8.508776242828048" fill="#4CAF50" opacity="0.5"/>
<rect x="91.73606602934638" y="521.0565668449417" width="1.0365384615384616" height="14.943433155058301" fill="#4CAF50" opacity="0.5"/>
<rect x="93.21968838002074" y="519.8027508442287" width="1.0365384615384616" height="16.19724915577126" fill="#4CAF50" opacity="0.5"/>
<rect x="94.70331073069512" y="525.7219262219405" width="1.0365384615384616" height="10.278073778059479" fill="#f44336" opacity="0.5"/>
<rect x="96.18693308136949" y="528.6966456030311" width="1.0365384615384616" height="7.303354396968871" fill="#f44336" opacity="0.5"/>
<rect x="97.67055543204387" y="528.9142825529561" width="1.0365384615384616" height="7.085717447043862" fill="#f44336" opacity="0.5"/>
<rect x="99.15417778271824" y="529.3249687335349" width="1.0365384615384616" height="6.675031266465112" fill="#f44336" opacity="0.5"/>
<rect x="100.63780013339262" y="508.01124058487596" width="1.0365384615384616" height="27.988759415124036" fill="#4CAF50" opacity="0.5"/>
<rect x="102.121422484067" y="510.60928412446805" width="1.0365384615384616" height="25.390715875531953" fill="#f44336" opacity="0.5"/>
<rect x="103.60504483474136" y="520.9247401444135" width="1.0365384615384616" height="15.075259855586523" fill="#f44336" opacity="0.5"/>
<rect x="105.08866718541573" y="525.4328931276118" width="1.0365384615384616" height="10.567106872388194" fill="#f44336" opacity="0.5"/>
<rect x="106.57228953609011" y="528.3417272205093" width="1.0365384615384616" height="7.658272779490744" fill="#4CAF50" opacity="0.5"/>
<rect x="108.05591188676449" y="529.7945407200491" width="1.0365384615384616" height="6.205459279950901" fill="#4CAF50" opacity="0.5"/>
<rect x="109.53953423743886" y="521.0979677535535" width="1.0365384615384616" height="14.902032246446538" fill="#4CAF50" opacity="0.5"/>
<rect x="111.02315658811322" y="523.9265576865472" width="1.0365384615384616" height="12.073442313452801" fill="#4CAF50" opacity="0.5"/>
<rect x="112.5067789387876" y="503.2774240086138" width="1.0365384615384616" height="32.72257599138618" fill="#4CAF50" opacity="0.5"/>
<rect x="113.99040128946199" y="510.85701697729644" width="1.0365384615384616" height="25.14298302270356" fill="#4CAF50" opacity="0.5"/>
<rect x="115.47402364013635" y="514.966043571411" width="1.0365384615384616" height="21.033956428589022" fill="#f44336" opacity="0.5"/>
<rect x="116.95764599081072" y="518.5618015257415" width="1.0365384615384616" height="17.438198474258456" fill="#f44336" opacity="0.5"/>
<rect x="118.4412683414851" y="521.041895281584" width="1.0365384615384616" height="14.958104718416052" fill="#f44336" opacity="0.5"/>
<rect x="119.92489069215948" y="522.7625420944562" width="1.0365384615384616" height="13.237457905543806" fill="#f44336" opacity="0.5"/>
<rect x="121.40851304283386" y="527.5819854030799" width="1.0365384615384616" height="8.418014596920102" fill="#f44336" opacity="0.5"/>
<rect x="122.89213539350821" y="523.1177108084677" width="1.0365384615384616" height="12.882289191532323" fill="#4CAF50" opacity="0.5"/>
<rect x="124.3757577441826" y="528.8267244374285" width="1.0365384615384616" height="7.173275562571462" fill="#f44336" opacity="0.5"/>
<rect x="125.85938009485697" y="511.1240975144411" width="1.0365384615384616" height="24.875902485558925" fill="#4CAF50" opacity="0.5"/>
<rect x="127.34300244553135" y="502.7414019290507" width="1.0365384615384616" height="33.25859807094929" fill="#4CAF50" opacity="0.5"/>
<rect x="128.82662479620572" y="516.039231593999" width="1.0365384615384616" height="19.960768406000966" fill="#f44336" opacity="0.5"/>
<rect x="130.3102471468801" y="525.1980091398215" width="1.0365384615384616" height="10.801990860178535" fill="#f44336" opacity="0.5"/>
<rect x="131.79386949755448" y="505.9118609361647" width="1.0365384615384616" height="30.088139063835285" fill="#4CAF50" opacity="0.5"/>
<rect x="133.27749184822886" y="520.6021278869514" width="1.0365384615384616" height="15.397872113048606" fill="#f44336" opacity="0.5"/>
<rect x="134.76111419890324" y="509.9995781735777" width="1.0365384615384616" height="26.000421826422325" fill="#4CAF50" opacity="0.5"/>
<rect x="136.2447365495776" y="506.5264746314559" width="1.0365384615384616" height="29.473525368544074" fill="#4CAF50" opacity="0.5"/>
<rect x="137.72835890025198" y="518.3306573656866" width="1.0365384615384616" height="17.669342634313352" fill="#4CAF50" opacity="0.5"/>
<rect x="139.21198125092636" y="516.5587709930566" width="1.0365384615384616" height="19.441229006943445" fill="#f44336" opacity="0.5"/>
<rect x="140.6956036016007" y="514.7193343160262" width="1.0365384615384616" height="21.28066568397378" fill="#f44336" opacity="0.5"/>
<rect x="142.1792259522751" y="495.0186050945207" width="1.0365384615384616" height="40.981394905479306" fill="#f44336" opacity="0.5"/>
<rect x="143.66284830294947" y="518.5031651604364" width="1.0365384615384616" height="17.496834839563576" fill="#f44336" opacity="0.5"/>
<rect x="145.14647065362385" y="509.40200750935077" width="1.0365384615384616" height="26.597992490649233" fill="#f44336" opacity="0.5"/>
<rect x="146.63009300429823" y="519.4768548790407" width="1.0365384615384616" height="16.52314512095927" fill="#4CAF50" opacity="0.5"/>
<rect x="148.11371535497258" y="526.3837964446395" width="1.0365384615384616" height="9.616203555360471" fill="#f44336" opacity="0.5"/>
<rect x="149.59733770564696" y="517.4167621295995" width="1.0365384615384616" height="18.583237870400467" fill="#4CAF50" opacity="0.5"/>
<rect x="151.08096005632135" y="520.9222047585786" width="1.0365384615384616" height="15.077795241421427" fill="#f44336" opacity="0.5"/>
<rect x="152.5645824069957" y="525.1297737645472" width="1.0365384615384616" height="10.870226235452833" fill="#f44336" opacity="0.5"/>
<rect x="154.0482047576701" y="523.9990397885521" width="1.0365384615384616" height="12.000960211447932" fill="#4CAF50" opacity="0.5"/>
<rect x="155.53182710834446" y="524.2738850561739" width="1.0365384615384616" height="11.726114943826133" fill="#4CAF50" opacity="0.5"/>
<rect x="157.0154494590188" y="521.4002621808195" width="1.0365384615384616" height="14.599737819180518" fill="#4CAF50" opacity="0.5"/>
<rect x="158.49907180969322" y="524.7884855307517" width="1.0365384615384616" height="11.2115144692483" fill="#f44336" opacity="0.5"/>
<rect x="159.98269416036757" y="520.1602037217261" width="1.0365384615384616" height="15.839796278273866" fill="#4CAF50" opacity="0.5"/>
<rect x="161.46631651104195" y="528.9168660451983" width="1.0365384615384616" height="7.083133954801724" fill="#f44336" opacity="0.5"/>
<rect x="162.94993886171633" y="529.4943211043114" width="1.0365384615384616" height="6.505678895688561" fill="#f44336" opacity="0.5"/>
<rect x="164.43356121239069" y="526.0836659148413" width="1.0365384615384616" height="9.916334085158724" fill="#f44336" opacity="0.5"/>
<rect x="165.9171835630651" y="528.2154158304886" width="1.0365384615384616" height="7.78458416951139" fill="#4CAF50" opacity="0.5"/>
<rect x="167.40080591373945" y="523.2100350217524" width="1.0365384615384616" height="12.789964978247554" fill="#4CAF50" opacity="0.5"/>
<rect x="168.88442826441383" y="529.0830095404382" width="1.0365384615384616" height="6.916990459561816" fill="#f44336" opacity="0.5"/>
<rect x="170.3680506150882" y="528.8723230755044" width="1.0365384615384616" height="7.127676924495631" fill="#4CAF50" opacity="0.5"/>
<rect x="171.85167296576256" y="530.3319961923769" width="1.0365384615384616" height="5.6680038076231085" fill="#f44336" opacity="0.5"/>
<rect x="173.33529531643697" y="527.3893094425121" width="1.0365384615384616" height="8.610690557487942" fill="#4CAF50" opacity="0.5"/>
<rect x="174.81891766711132" y="528.5699653972214" width="1.0365384615384616" height="7.430034602778619" fill="#f44336" opacity="0.5"/>
<rect x="176.30254001778567" y="528.8232358320422" width="1.0365384615384616" height="7.176764167957799" fill="#f44336" opacity="0.5"/>
<rect x="177.78616236846008" y="527.9467860888581" width="1.0365384615384616" height="8.053213911141938" fill="#f44336" opacity="0.5"/>
<rect x="179.26978471913444" y="531.491449693512" width="1.0365384615384616" height="4.508550306488019" fill="#f44336" opacity="0.5"/>
<rect x="180.75340706980882" y="523.9136883317432" width="1.0365384615384616" height="12.086311668256826" fill="#f44336" opacity="0.5"/>
<rect x="182.2370294204832" y="531.0181360975434" width="1.0365384615384616" height="4.981863902456553" fill="#4CAF50" opacity="0.5"/>
<rect x="183.72065177115755" y="530.087722546575" width="1.0365384615384616" height="5.912277453424963" fill="#4CAF50" opacity="0.5"/>
<rect x="185.20427412183196" y="531.5016054906022" width="1.0365384615384616" height="4.498394509397826" fill="#f44336" opacity="0.5"/>
<rect x="186.6878964725063" y="531.3723417925502" width="1.0365384615384616" height="4.6276582074498265" fill="#4CAF50" opacity="0.5"/>
<rect x="188.17151882318066" y="531.2307842348627" width="1.0365384615384616" height="4.769215765137346" fill="#f44336" opacity="0.5"/>
<rect x="189.65514117385507" y="533.3337469200561" width="1.0365384615384616" height="2.6662530799438855" fill="#4CAF50" opacity="0.5"/>
<rect x="191.13876352452942" y="526.9170648778162" width="1.0365384615384616" height="9.082935122183812" fill="#4CAF50" opacity="0.5"/>
<rect x="192.62238587520383" y="526.0692339926604" width="1.0365384615384616" height="9.930766007339571" fill="#4CAF50" opacity="0.5"/>
<rect x="194.10600822587818" y="529.9055418005265" width="1.0365384615384616" height="6.094458199473479" fill="#f44336" opacity="0.5"/>
<rect x="195.58963057655254" y="530.4510613320879" width="1.0365384615384616" height="5.548938667912125" fill="#4CAF50" opacity="0.5"/>
<rect x="197.07325292722695" y="530.5867365451976" width="1.0365384615384616" height="5.413263454802404" fill="#f44336" opacity="0.5"/>
<rect x="198.5568752779013" y="532.2275668106752" width="1.0365384615384616" height="3.772433189324829" fill="#f44336" opacity="0.5"/>
<rect x="200.04049762857568" y="531.7565694491307" width="1.0365384615384616" height="4.243430550869334" fill="#f44336" opacity="0.5"/>
<rect x="201.52411997925006" y="530.170127040509" width="1.0365384615384616" height="5.829872959491013" fill="#f44336" opacity="0.5"/>
<rect x="203.0077423299244" y="531.3498921358243" width="1.0365384615384616" height="4.650107864175652" fill="#4CAF50" opacity="0.5"/>
<rect x="204.4913646805988" y="532.4760274956283" width="1.0365384615384616" height="3.523972504371727" fill="#4CAF50" opacity="0.5"/>
<rect x="205.97498703127317" y="526.081523397999" width="1.0365384615384616" height="9.918476602000965" fill="#4CAF50" opacity="0.5"/>
<rect x="207.45860938194753" y="531.420982715456" width="1.0365384615384616" height="4.579017284543966" fill="#f44336" opacity="0.5"/>
<rect x="208.94223173262193" y="523.9253808612879" width="1.0365384615384616" height="12.074619138712137" fill="#4CAF50" opacity="0.5"/>
<rect x="210.4258540832963" y="526.4481628175662" width="1.0365384615384616" height="9.551837182433815" fill="#4CAF50" opacity="0.5"/>
<rect x="211.90947643397067" y="529.6834505536322" width="1.0365384615384616" height="6.316549446367844" fill="#f44336" opacity="0.5"/>
<rect x="213.39309878464505" y="530.3292363099747" width="1.0365384615384616" height="5.6707636900252965" fill="#f44336" opacity="0.5"/>
<rect x="214.8767211353194" y="524.31228109605" width="1.0365384615384616" height="11.687718903949985" fill="#4CAF50" opacity="0.5"/>
<rect x="216.36034348599378" y="518.3719905689845" width="1.0365384615384616" height="17.62800943101547" fill="#4CAF50" opacity="0.5"/>
<rect x="217.84396583666816" y="518.7657254770165" width="1.0365384615384616" height="17.23427452298347" fill="#4CAF50" opacity="0.5"/>
<rect x="219.32758818734254" y="506.91382831364956" width="1.0365384615384616" height="29.08617168635044" fill="#4CAF50" opacity="0.5"/>
<rect x="220.81121053801692" y="499.1868604754374" width="1.0365384615384616" height="36.81313952456259" fill="#4CAF50" opacity="0.5"/>
<rect x="222.29483288869127" y="492.07718158327634" width="1.0365384615384616" height="43.92281841672366" fill="#4CAF50" opacity="0.5"/>
<rect x="223.77845523936566" y="493.732236200696" width="1.0365384615384616" height="42.26776379930402" fill="#4CAF50" opacity="0.5"/>
<rect x="225.26207759004004" y="504.47420808179004" width="1.0365384615384616" height="31.52579191820996" fill="#f44336" opacity="0.5"/>
<rect x="226.7456999407144" y="517.942745114653" width="1.0365384615384616" height="18.057254885346993" fill="#f44336" opacity="0.5"/>
<rect x="228.22932229138877" y="518.9529556141094" width="1.0365384615384616" height="17.04704438589056" fill="#4CAF50" opacity="0.5"/>
<rect x="229.71294464206315" y="506.7432786278476" width="1.0365384615384616" height="29.256721372152413" fill="#f44336" opacity="0.5"/>
<rect x="231.19656699273753" y="512.3505338425425" width="1.0365384615384616" height="23.649466157457482" fill="#f44336" opacity="0.5"/>
<rect x="232.68018934341188" y="513.0032852284858" width="1.0365384615384616" height="22.996714771514235" fill="#f44336" opacity="0.5"/>
<rect x="234.16381169408626" y="504.1144826219788" width="1.0365384615384616" height="31.885517378021177" fill="#4CAF50" opacity="0.5"/>
<rect x="235.64743404476064" y="513.052263787102" width="1.0365384615384616" height="22.947736212898008" fill="#4CAF50" opacity="0.5"/>
<rect x="237.13105639543502" y="511.47549432977894" width="1.0365384615384616" height="24.52450567022106" fill="#4CAF50" opacity="0.5"/>
<rect x="238.6146787461094" y="512.009779233524" width="1.0365384615384616" height="23.990220766476" fill="#f44336" opacity="0.5"/>
<rect x="240.09830109678376" y="517.363765795117" width="1.0365384615384616" height="18.636234204882953" fill="#4CAF50" opacity="0.5"/>
<rect x="241.58192344745814" y="515.5731286139646" width="1.0365384615384616" height="20.426871386035373" fill="#4CAF50" opacity="0.5"/>
<rect x="243.06554579813252" y="488.72635472898037" width="1.0365384615384616" height="47.27364527101963" fill="#f44336" opacity="0.5"/>
<rect x="244.54916814880687" y="503.0545799855317" width="1.0365384615384616" height="32.94542001446831" fill="#f44336" opacity="0.5"/>
<rect x="246.03279049948125" y="510.77852335610163" width="1.0365384615384616" height="25.22147664389837" fill="#f44336" opacity="0.5"/>
<rect x="247.51641285015563" y="511.76777817003585" width="1.0365384615384616" height="24.232221829964146" fill="#4CAF50" opacity="0.5"/>
<rect x="249.00003520083" y="514.4110025346479" width="1.0365384615384616" height="21.588997465352122" fill="#f44336" opacity="0.5"/>
<rect x="250.4836575515044" y="520.5270195314533" width="1.0365384615384616" height="15.472980468546666" fill="#4CAF50" opacity="0.5"/>
<rect x="251.96727990217875" y="508.1848744258996" width="1.0365384615384616" height="27.81512557410042" fill="#4CAF50" opacity="0.5"/>
<rect x="253.45090225285313" y="512.7607835020183" width="1.0365384615384616" height="23.239216497981715" fill="#4CAF50" opacity="0.5"/>
<rect x="254.9345246035275" y="470.3629194876914" width="1.0365384615384616" height="65.63708051230861" fill="#4CAF50" opacity="0.5"/>
<rect x="256.41814695420186" y="498.11852050967093" width="1.0365384615384616" height="37.88147949032907" fill="#f44336" opacity="0.5"/>
<rect x="257.90176930487627" y="506.752862493207" width="1.0365384615384616" height="29.247137506793024" fill="#4CAF50" opacity="0.5"/>
<rect x="259.38539165555056" y="504.3676604074226" width="1.0365384615384616" height="31.63233959257741" fill="#f44336" opacity="0.5"/>
<rect x="260.869014006225" y="517.541421866304" width="1.0365384615384616" height="18.45857813369605" fill="#4CAF50" opacity="0.5"/>
<rect x="262.3526363568994" y="517.35119487821" width="1.0365384615384616" height="18.64880512179002" fill="#f44336" opacity="0.5"/>
<rect x="263.83625870757373" y="519.316372795249" width="1.0365384615384616" height="16.68362720475102" fill="#f44336" opacity="0.5"/>
<rect x="265.3198810582481" y="520.9963242601493" width="1.0365384615384616" height="15.003675739850678" fill="#f44336" opacity="0.5"/>
<rect x="266.8035034089225" y="523.2415999517964" width="1.0365384615384616" height="12.758400048203612" fill="#4CAF50" opacity="0.5"/>
<rect x="268.28712575959685" y="523.1602012381181" width="1.0365384615384616" height="12.839798761881866" fill="#4CAF50" opacity="0.5"/>
<rect x="269.7707481102712" y="479.5858424733107" width="1.0365384615384616" height="56.41415752668928" fill="#4CAF50" opacity="0.5"/>
<rect x="271.2543704609456" y="499.6526694718719" width="1.0365384615384616" height="36.34733052812811" fill="#f44336" opacity="0.5"/>
<rect x="272.73799281161996" y="511.2978943827338" width="1.0365384615384616" height="24.702105617266227" fill="#4CAF50" opacity="0.5"/>
<rect x="274.2216151622943" y="505.442566006922" width="1.0365384615384616" height="30.557433993078007" fill="#4CAF50" opacity="0.5"/>
<rect x="275.7052375129687" y="514.8755857085564" width="1.0365384615384616" height="21.1244142914436" fill="#f44336" opacity="0.5"/>
<rect x="277.18885986364313" y="519.1172345406379" width="1.0365384615384616" height="16.882765459362076" fill="#f44336" opacity="0.5"/>
<rect x="278.6724822143174" y="514.5936589996128" width="1.0365384615384616" height="21.406341000387215" fill="#4CAF50" opacity="0.5"/>
<rect x="280.15610456499184" y="514.290057681616" width="1.0365384615384616" height="21.709942318384037" fill="#4CAF50" opacity="0.5"/>
<rect x="281.63972691566624" y="518.6688552082447" width="1.0365384615384616" height="17.331144791755264" fill="#f44336" opacity="0.5"/>
<rect x="283.12334926634054" y="517.3630433081486" width="1.0365384615384616" height="18.636956691851424" fill="#f44336" opacity="0.5"/>
<rect x="284.60697161701495" y="525.5487939347556" width="1.0365384615384616" height="10.451206065244378" fill="#4CAF50" opacity="0.5"/>
<rect x="286.09059396768936" y="523.3648708387058" width="1.0365384615384616" height="12.63512916129423" fill="#4CAF50" opacity="0.5"/>
<rect x="287.5742163183637" y="518.5658103930141" width="1.0365384615384616" height="17.43418960698591" fill="#4CAF50" opacity="0.5"/>
<rect x="289.05783866903806" y="510.18990048362684" width="1.0365384615384616" height="25.810099516373157" fill="#4CAF50" opacity="0.5"/>
<rect x="290.5414610197125" y="520.5707607276928" width="1.0365384615384616" height="15.4292392723072" fill="#4CAF50" opacity="0.5"/>
<rect x="292.0250833703868" y="520.989820986574" width="1.0365384615384616" height="15.010179013425955" fill="#f44336" opacity="0.5"/>
<rect x="293.5087057210612" y="522.7709161727586" width="1.0365384615384616" height="13.229083827241425" fill="#f44336" opacity="0.5"/>
<rect x="294.9923280717356" y="525.1622500437511" width="1.0365384615384616" height="10.8377499562489" fill="#f44336" opacity="0.5"/>
<rect x="296.47595042241" y="520.8797490724444" width="1.0365384615384616" height="15.120250927555617" fill="#f44336" opacity="0.5"/>
<rect x="297.9595727730843" y="522.0463802277159" width="1.0365384615384616" height="13.953619772284128" fill="#4CAF50" opacity="0.5"/>
<rect x="299.4431951237587" y="525.5790831541476" width="1.0365384615384616" height="10.420916845852389" fill="#4CAF50" opacity="0.5"/>
<rect x="300.9268174744331" y="526.1417499473223" width="1.0365384615384616" height="9.858250052677704" fill="#4CAF50" opacity="0.5"/>
<rect x="302.4104398251074" y="525.2739638117437" width="1.0365384615384616" height="10.72603618825633" fill="#f44336" opacity="0.5"/>
<rect x="303.8940621757818" y="526.2537309731331" width="1.0365384615384616" height="9.746269026866912" fill="#4CAF50" opacity="0.5"/>
<rect x="305.3776845264562" y="526.0391977773364" width="1.0365384615384616" height="9.960802222663574" fill="#f44336" opacity="0.5"/>
<rect x="306.8613068771305" y="527.332552790528" width="1.0365384615384616" height="8.667447209472016" fill="#f44336" opacity="0.5"/>
<rect x="308.3449292278049" y="523.2801224937066" width="1.0365384615384616" height="12.719877506293415" fill="#4CAF50" opacity="0.5"/>
<rect x="309.82855157847933" y="528.485155582924" width="1.0365384615384616" height="7.514844417076006" fill="#f44336" opacity="0.5"/>
<rect x="311.31217392915363" y="525.72429323535" width="1.0365384615384616" height="10.275706764649954" fill="#f44336" opacity="0.5"/>
<rect x="312.79579627982804" y="526.1169172417178" width="1.0365384615384616" height="9.883082758282171" fill="#f44336" opacity="0.5"/>
<rect x="314.27941863050245" y="526.8505176810934" width="1.0365384615384616" height="9.149482318906621" fill="#f44336" opacity="0.5"/>
<rect x="315.76304098117686" y="526.0374258580019" width="1.0365384615384616" height="9.962574141998061" fill="#4CAF50" opacity="0.5"/>
<rect x="317.24666333185115" y="524.6522597665365" width="1.0365384615384616" height="11.347740233463469" fill="#4CAF50" opacity="0.5"/>
<rect x="318.73028568252556" y="525.9439078931294" width="1.0365384615384616" height="10.056092106870551" fill="#f44336" opacity="0.5"/>
<rect x="320.21390803319997" y="528.5620732738511" width="1.0365384615384616" height="7.43792672614893" fill="#4CAF50" opacity="0.5"/>
<rect x="321.69753038387427" y="528.5713016863123" width="1.0365384615384616" height="7.4286983136877325" fill="#f44336" opacity="0.5"/>
<rect x="323.1811527345487" y="529.9351316952942" width="1.0365384615384616" height="6.064868304705783" fill="#f44336" opacity="0.5"/>
<rect x="324.6647750852231" y="527.2530970411877" width="1.0365384615384616" height="8.746902958812257" fill="#4CAF50" opacity="0.5"/>
<rect x="326.1483974358974" y="531.2225473489068" width="1.0365384615384616" height="4.777452651093199" fill="#f44336" opacity="0.5"/>
<rect x="327.6320197865718" y="528.0130482105748" width="1.0365384615384616" height="7.986951789425234" fill="#4CAF50" opacity="0.5"/>
<rect x="329.1156421372462" y="526.1983916784446" width="1.0365384615384616" height="9.801608321555364" fill="#4CAF50" opacity="0.5"/>
<rect x="330.59926448792055" y="513.3483854496277" width="1.0365384615384616" height="22.6516145503723" fill="#4CAF50" opacity="0.5"/>
<rect x="332.0828868385949" y="522.9135846321103" width="1.0365384615384616" height="13.086415367889686" fill="#f44336" opacity="0.5"/>
<rect x="333.5665091892693" y="524.1906787887854" width="1.0365384615384616" height="11.809321211214638" fill="#4CAF50" opacity="0.5"/>
<rect x="335.05013153994366" y="524.5068447876735" width="1.0365384615384616" height="11.493155212326542" fill="#f44336" opacity="0.5"/>
<rect x="336.533753890618" y="520.5288903361804" width="1.0365384615384616" height="15.471109663819561" fill="#4CAF50" opacity="0.5"/>
<rect x="338.0173762412924" y="524.2940184784754" width="1.0365384615384616" height="11.705981521524564" fill="#f44336" opacity="0.5"/>
<rect x="339.5009985919668" y="525.6835809610498" width="1.0365384615384616" height="10.316419038950244" fill="#f44336" opacity="0.5"/>
<rect x="340.98462094264113" y="526.0051812022405" width="1.0365384615384616" height="9.994818797759535" fill="#4CAF50" opacity="0.5"/>
<rect x="342.46824329331554" y="521.9541103568541" width="1.0365384615384616" height="14.04588964314587" fill="#4CAF50" opacity="0.5"/>
<rect x="343.95186564398995" y="525.6641602262631" width="1.0365384615384616" height="10.335839773736893" fill="#4CAF50" opacity="0.5"/>
<rect x="345.43548799466424" y="527.5105554060192" width="1.0365384615384616" height="8.489444593980807" fill="#f44336" opacity="0.5"/>
<rect x="346.91911034533865" y="520.5382889027859" width="1.0365384615384616" height="15.461711097214106" fill="#4CAF50" opacity="0.5"/>
<rect x="348.40273269601306" y="523.8962497591081" width="1.0365384615384616" height="12.10375024089194" fill="#f44336" opacity="0.5"/>
<rect x="349.8863550466874" y="522.6854827568854" width="1.0365384615384616" height="13.314517243114551" fill="#f44336" opacity="0.5"/>
<rect x="351.36997739736177" y="524.559316405973" width="1.0365384615384616" height="11.44068359402695" fill="#4CAF50" opacity="0.5"/>
<rect x="352.8535997480362" y="520.1297496933464" width="1.0365384615384616" height="15.870250306653588" fill="#f44336" opacity="0.5"/>
<rect x="354.3372220987105" y="524.1964257227353" width="1.0365384615384616" height="11.803574277264715" fill="#4CAF50" opacity="0.5"/>
<rect x="355.8208444493849" y="523.2399536436365" width="1.0365384615384616" height="12.760046356363546" fill="#f44336" opacity="0.5"/>
<rect x="357.3044668000593" y="519.2991774272283" width="1.0365384615384616" height="16.7008225727717" fill="#4CAF50" opacity="0.5"/>
<rect x="358.78808915073364" y="522.9559833032433" width="1.0365384615384616" height="13.044016696756671" fill="#4CAF50" opacity="0.5"/>
<rect x="360.271711501408" y="522.4981314629149" width="1.0365384615384616" height="13.501868537085102" fill="#4CAF50" opacity="0.5"/>
<rect x="361.7553338520824" y="521.1177626492855" width="1.0365384615384616" height="14.88223735071449" fill="#4CAF50" opacity="0.5"/>
<rect x="363.23895620275675" y="514.7621062572453" width="1.0365384615384616" height="21.23789374275475" fill="#f44336" opacity="0.5"/>
<rect x="364.7225785534311" y="522.8054521188811" width="1.0365384615384616" height="13.194547881118865" fill="#f44336" opacity="0.5"/>
<rect x="366.2062009041055" y="523.2470947725378" width="1.0365384615384616" height="12.752905227462179" fill="#4CAF50" opacity="0.5"/>
<rect x="367.68982325477987" y="513.6788051988178" width="1.0365384615384616" height="22.321194801182173" fill="#4CAF50" opacity="0.5"/>
<rect x="369.1734456054543" y="506.8668907139048" width="1.0365384615384616" height="29.13310928609519" fill="#4CAF50" opacity="0.5"/>
<rect x="370.6570679561286" y="520.0641485892999" width="1.0365384615384616" height="15.935851410700138" fill="#f44336" opacity="0.5"/>
<rect x="372.14069030680304" y="521.4007387905951" width="1.0365384615384616" height="14.599261209404858" fill="#4CAF50" opacity="0.5"/>
<rect x="373.6243126574774" y="520.3691583559984" width="1.0365384615384616" height="15.630841644001634" fill="#4CAF50" opacity="0.5"/>
<rect x="375.10793500815174" y="526.065804183994" width="1.0365384615384616" height="9.934195816005968" fill="#f44336" opacity="0.5"/>
<rect x="376.59155735882615" y="516.648160715498" width="1.0365384615384616" height="19.351839284502034" fill="#4CAF50" opacity="0.5"/>
<rect x="378.0751797095005" y="524.2503984391135" width="1.0365384615384616" height="11.749601560886504" fill="#f44336" opacity="0.5"/>
<rect x="379.55880206017486" y="522.333415124424" width="1.0365384615384616" height="13.66658487557595" fill="#4CAF50" opacity="0.5"/>
<rect x="381.04242441084926" y="524.5665519659701" width="1.0365384615384616" height="11.43344803402988" fill="#f44336" opacity="0.5"/>
<rect x="382.5260467615236" y="525.7946533102787" width="1.0365384615384616" height="10.205346689721296" fill="#4CAF50" opacity="0.5"/>
<rect x="384.00966911219797" y="516.7525373655225" width="1.0365384615384616" height="19.24746263447753" fill="#4CAF50" opacity="0.5"/>
<rect x="385.4932914628724" y="523.8517958753534" width="1.0365384615384616" height="12.148204124646554" fill="#4CAF50" opacity="0.5"/>
<rect x="386.97691381354673" y="522.1899867620093" width="1.0365384615384616" height="13.810013237990688" fill="#f44336" opacity="0.5"/>
<rect x="388.46053616422114" y="521.3652291351551" width="1.0365384615384616" height="14.634770864844882" fill="#f44336" opacity="0.5"/>
<rect x="389.9441585148955" y="522.5022329795644" width="1.0365384615384616" height="13.497767020435617" fill="#4CAF50" opacity="0.5"/>
<rect x="391.42778086556984" y="524.0215019173094" width="1.0365384615384616" height="11.978498082690635" fill="#f44336" opacity="0.5"/>
<rect x="392.91140321624425" y="524.8658611234072" width="1.0365384615384616" height="11.134138876592829" fill="#f44336" opacity="0.5"/>
<rect x="394.3950255669186" y="524.5920109457284" width="1.0365384615384616" height="11.407989054271638" fill="#f44336" opacity="0.5"/>
<rect x="395.87864791759296" y="525.0023407825496" width="1.0365384615384616" height="10.997659217450405" fill="#f44336" opacity="0.5"/>
<rect x="397.36227026826737" y="526.463350188513" width="1.0365384615384616" height="9.536649811486996" fill="#4CAF50" opacity="0.5"/>
<rect x="398.8458926189417" y="528.6839063136987" width="1.0365384615384616" height="7.316093686301315" fill="#4CAF50" opacity="0.5"/>
<rect x="400.3295149696161" y="517.0458973639272" width="1.0365384615384616" height="18.954102636072776" fill="#4CAF50" opacity="0.5"/>
<rect x="401.8131373202905" y="513.8356837563614" width="1.0365384615384616" height="22.16431624363861" fill="#f44336" opacity="0.5"/>
<rect x="403.29675967096483" y="515.7442047976683" width="1.0365384615384616" height="20.255795202331683" fill="#f44336" opacity="0.5"/>
<rect x="404.78038202163924" y="519.5238227680048" width="1.0365384615384616" height="16.476177231995166" fill="#4CAF50" opacity="0.5"/>
<rect x="406.2640043723136" y="521.4840697782987" width="1.0365384615384616" height="14.515930221701296" fill="#4CAF50" opacity="0.5"/>
<rect x="407.747626722988" y="528.3613581981128" width="1.0365384615384616" height="7.638641801887161" fill="#f44336" opacity="0.5"/>
<rect x="409.23124907366235" y="527.2644964779919" width="1.0365384615384616" height="8.735503522008116" fill="#4CAF50" opacity="0.5"/>
<rect x="410.7148714243367" y="528.4642203871679" width="1.0365384615384616" height="7.53577961283213" fill="#4CAF50" opacity="0.5"/>
<rect x="412.1984937750111" y="528.0040906193693" width="1.0365384615384616" height="7.995909380630678" fill="#f44336" opacity="0.5"/>
<rect x="413.68211612568547" y="531.5293112177519" width="1.0365384615384616" height="4.470688782248089" fill="#4CAF50" opacity="0.5"/>
<rect x="415.1657384763598" y="531.2031194872451" width="1.0365384615384616" height="4.79688051275491" fill="#4CAF50" opacity="0.5"/>
<rect x="416.64936082703423" y="530.7218362631389" width="1.0365384615384616" height="5.2781637368610745" fill="#4CAF50" opacity="0.5"/>
<rect x="418.1329831777086" y="530.3784990527375" width="1.0365384615384616" height="5.6215009472624615" fill="#4CAF50" opacity="0.5"/>
<rect x="419.61660552838293" y="528.7258657911505" width="1.0365384615384616" height="7.274134208849546" fill="#4CAF50" opacity="0.5"/>
<rect x="421.10022787905734" y="521.480655114242" width="1.0365384615384616" height="14.51934488575796" fill="#4CAF50" opacity="0.5"/>
<rect x="422.5838502297317" y="528.1985661159127" width="1.0365384615384616" height="7.80143388408726" fill="#4CAF50" opacity="0.5"/>
<rect x="424.06747258040605" y="527.5346976955933" width="1.0365384615384616" height="8.465302304406691" fill="#f44336" opacity="0.5"/>
<rect x="425.55109493108046" y="521.2707855673723" width="1.0365384615384616" height="14.729214432627714" fill="#f44336" opacity="0.5"/>
<rect x="427.03471728175487" y="524.7925433952909" width="1.0365384615384616" height="11.207456604709137" fill="#f44336" opacity="0.5"/>
<rect x="428.5183396324292" y="522.7875752434242" width="1.0365384615384616" height="13.212424756575842" fill="#4CAF50" opacity="0.5"/>
<rect x="430.00196198310357" y="522.3829094906292" width="1.0365384615384616" height="13.617090509370769" fill="#4CAF50" opacity="0.5"/>
<rect x="431.485584333778" y="523.2412899327273" width="1.0365384615384616" height="12.75871006727266" fill="#4CAF50" opacity="0.5"/>
<rect x="432.96920668445233" y="529.1671084489393" width="1.0365384615384616" height="6.832891551060698" fill="#f44336" opacity="0.5"/>
<rect x="434.4528290351267" y="528.5495647171016" width="1.0365384615384616" height="7.450435282898411" fill="#4CAF50" opacity="0.5"/>
<rect x="435.9364513858011" y="528.6746413760023" width="1.0365384615384616" height="7.3253586239976585" fill="#f44336" opacity="0.5"/>
<rect x="437.42007373647544" y="528.6428376956408" width="1.0365384615384616" height="7.357162304359235" fill="#4CAF50" opacity="0.5"/>
<rect x="438.9036960871498" y="529.5953445595775" width="1.0365384615384616" height="6.404655440422516" fill="#f44336" opacity="0.5"/>
<rect x="440.3873184378242" y="530.0983522808627" width="1.0365384615384616" height="5.901647719137259" fill="#f44336" opacity="0.5"/>
<rect x="441.8709407884986" y="529.0222547114944" width="1.0365384615384616" height="6.977745288505616" fill="#4CAF50" opacity="0.5"/>
<rect x="443.3545631391729" y="529.5605627362622" width="1.0365384615384616" height="6.439437263737773" fill="#4CAF50" opacity="0.5"/>
<rect x="444.8381854898473" y="529.8302410193994" width="1.0365384615384616" height="6.169758980600591" fill="#4CAF50" opacity="0.5"/>
<rect x="446.3218078405217" y="527.9240852097831" width="1.0365384615384616" height="8.07591479021687" fill="#f44336" opacity="0.5"/>
<rect x="447.805430191196" y="525.6792121865822" width="1.0365384615384616" height="10.320787813417837" fill="#f44336" opacity="0.5"/>
<rect x="449.28905254187043" y="526.7704427844744" width="1.0365384615384616" height="9.229557215525574" fill="#f44336" opacity="0.5"/>
<rect x="450.77267489254484" y="530.4234785435345" width="1.0365384615384616" height="5.576521456465457" fill="#4CAF50" opacity="0.5"/>
<rect x="452.2562972432192" y="528.6997591566128" width="1.0365384615384616" height="7.300240843387201" fill="#f44336" opacity="0.5"/>
<rect x="453.73991959389355" y="529.8821968301099" width="1.0365384615384616" height="6.117803169890067" fill="#4CAF50" opacity="0.5"/>
<rect x="455.22354194456796" y="527.3980042301963" width="1.0365384615384616" height="8.601995769803693" fill="#4CAF50" opacity="0.5"/>
<rect x="456.7071642952423" y="528.8592568407743" width="1.0365384615384616" height="7.140743159225735" fill="#f44336" opacity="0.5"/>
<rect x="458.1907866459167" y="527.2435639548139" width="1.0365384615384616" height="8.756436045186092" fill="#4CAF50" opacity="0.5"/>
<rect x="459.674408996591" y="525.5204654968896" width="1.0365384615384616" height="10.479534503110358" fill="#4CAF50" opacity="0.5"/>
<rect x="461.1580313472654" y="522.1073150102573" width="1.0365384615384616" height="13.892684989742747" fill="#4CAF50" opacity="0.5"/>
<rect x="462.6416536979398" y="528.4852446688634" width="1.0365384615384616" height="7.514755331136598" fill="#4CAF50" opacity="0.5"/>
<rect x="464.1252760486142" y="527.243566627392" width="1.0365384615384616" height="8.756433372607944" fill="#f44336" opacity="0.5"/>
<rect x="465.6088983992886" y="527.3466372775451" width="1.0365384615384616" height="8.653362722454858" fill="#4CAF50" opacity="0.5"/>
<rect x="467.09252074996294" y="524.9550361487345" width="1.0365384615384616" height="11.044963851265493" fill="#4CAF50" opacity="0.5"/>
<rect x="468.57614310063724" y="527.0870408501685" width="1.0365384615384616" height="8.912959149831522" fill="#f44336" opacity="0.5"/>
<rect x="470.05976545131165" y="529.460023017647" width="1.0365384615384616" height="6.539976982352982" fill="#4CAF50" opacity="0.5"/>
<rect x="471.54338780198606" y="526.6720242020762" width="1.0365384615384616" height="9.327975797923841" fill="#4CAF50" opacity="0.5"/>
<rect x="473.0270101526604" y="524.1718282040109" width="1.0365384615384616" height="11.828171795989078" fill="#4CAF50" opacity="0.5"/>
<rect x="474.5106325033348" y="521.3038141794004" width="1.0365384615384616" height="14.696185820599567" fill="#f44336" opacity="0.5"/>
<rect x="475.99425485400917" y="529.6316025369084" width="1.0365384615384616" height="6.368397463091583" fill="#f44336" opacity="0.5"/>
<rect x="477.4778772046836" y="529.8585044245297" width="1.0365384615384616" height="6.141495575470344" fill="#4CAF50" opacity="0.5"/>
<rect x="478.9614995553579" y="525.0861403622944" width="1.0365384615384616" height="10.913859637705627" fill="#4CAF50" opacity="0.5"/>
<rect x="480.4451219060323" y="524.7751716371101" width="1.0365384615384616" height="11.224828362889866" fill="#f44336" opacity="0.5"/>
<rect x="481.92874425670664" y="528.7599857059361" width="1.0365384615384616" height="7.24001429406394" fill="#f44336" opacity="0.5"/>
<rect x="483.41236660738105" y="527.2263676959338" width="1.0365384615384616" height="8.773632304066155" fill="#4CAF50" opacity="0.5"/>
<rect x="484.89598895805545" y="527.2215606186444" width="1.0365384615384616" height="8.77843938135561" fill="#4CAF50" opacity="0.5"/>
<rect x="486.3796113087298" y="524.3087728917569" width="1.0365384615384616" height="11.691227108243083" fill="#4CAF50" opacity="0.5"/>
<rect x="487.8632336594041" y="526.1494113381096" width="1.0365384615384616" height="9.850588661890356" fill="#4CAF50" opacity="0.5"/>
<rect x="489.3468560100785" y="526.8950570873498" width="1.0365384615384616" height="9.104942912650245" fill="#4CAF50" opacity="0.5"/>
<rect x="490.8304783607529" y="523.9345567130448" width="1.0365384615384616" height="12.065443286955201" fill="#4CAF50" opacity="0.5"/>
<rect x="492.3141007114273" y="516.4462563424689" width="1.0365384615384616" height="19.553743657531072" fill="#4CAF50" opacity="0.5"/>
<rect x="493.7977230621017" y="522.9612037392914" width="1.0365384615384616" height="13.038796260708637" fill="#f44336" opacity="0.5"/>
<rect x="495.28134541277603" y="523.3064669877024" width="1.0365384615384616" height="12.693533012297621" fill="#4CAF50" opacity="0.5"/>
<rect x="496.7649677634504" y="525.6700933498264" width="1.0365384615384616" height="10.329906650173598" fill="#4CAF50" opacity="0.5"/>
<rect x="498.24859011412474" y="523.8138782269716" width="1.0365384615384616" height="12.18612177302839" fill="#4CAF50" opacity="0.5"/>
<rect x="499.73221246479915" y="523.031405241248" width="1.0365384615384616" height="12.968594758752033" fill="#4CAF50" opacity="0.5"/>
<rect x="501.2158348154735" y="525.8766301917036" width="1.0365384615384616" height="10.123369808296388" fill="#f44336" opacity="0.5"/>
<rect x="502.6994571661479" y="522.9012310848954" width="1.0365384615384616" height="13.098768915104642" fill="#4CAF50" opacity="0.5"/>
<rect x="504.1830795168223" y="526.7700730778259" width="1.0365384615384616" height="9.229926922174059" fill="#f44336" opacity="0.5"/>
<rect x="505.66670186749667" y="521.9921268906286" width="1.0365384615384616" height="14.007873109371417" fill="#4CAF50" opacity="0.5"/>
<rect x="507.15032421817097" y="466.5655404536191" width="1.0365384615384616" height="69.43445954638088" fill="#4CAF50" opacity="0.5"/>
<rect x="508.6339465688454" y="437.22804842366116" width="1.0365384615384616" height="98.77195157633884" fill="#4CAF50" opacity="0.5"/>
<rect x="510.1175689195198" y="480.1837347377789" width="1.0365384615384616" height="55.81626526222112" fill="#f44336" opacity="0.5"/>
<rect x="511.6011912701942" y="501.144700383649" width="1.0365384615384616" height="34.855299616350976" fill="#f44336" opacity="0.5"/>
<rect x="513.0848136208685" y="512.3900666190053" width="1.0365384615384616" height="23.609933380994676" fill="#f44336" opacity="0.5"/>
<rect x="514.568435971543" y="520.2566330150979" width="1.0365384615384616" height="15.743366984902082" fill="#f44336" opacity="0.5"/>
<rect x="516.0520583222174" y="522.8408432900218" width="1.0365384615384616" height="13.15915670997822" fill="#4CAF50" opacity="0.5"/>
<rect x="517.5356806728917" y="523.8475197502628" width="1.0365384615384616" height="12.15248024973721" fill="#f44336" opacity="0.5"/>
<rect x="519.0193030235661" y="524.70538705735" width="1.0365384615384616" height="11.29461294265002" fill="#f44336" opacity="0.5"/>
<rect x="520.5029253742405" y="524.290500474729" width="1.0365384615384616" height="11.709499525270985" fill="#4CAF50" opacity="0.5"/>
<rect x="521.9865477249148" y="527.9841362598058" width="1.0365384615384616" height="8.015863740194163" fill="#4CAF50" opacity="0.5"/>
<rect x="523.4701700755893" y="529.0738256709467" width="1.0365384615384616" height="6.92617432905331" fill="#4CAF50" opacity="0.5"/>
<rect x="524.9537924262636" y="527.1563283303869" width="1.0365384615384616" height="8.843671669613059" fill="#4CAF50" opacity="0.5"/>
<rect x="526.4374147769379" y="524.3809066677388" width="1.0365384615384616" height="11.619093332261173" fill="#f44336" opacity="0.5"/>
<rect x="527.9210371276123" y="527.4498424474668" width="1.0365384615384616" height="8.550157552533165" fill="#4CAF50" opacity="0.5"/>
<rect x="529.4046594782867" y="526.4093641092439" width="1.0365384615384616" height="9.590635890756062" fill="#4CAF50" opacity="0.5"/>
<rect x="530.888281828961" y="527.5387065628657" width="1.0365384615384616" height="8.461293437134259" fill="#f44336" opacity="0.5"/>
<rect x="532.3719041796355" y="525.9258893710288" width="1.0365384615384616" height="10.074110628971198" fill="#4CAF50" opacity="0.5"/>
<rect x="533.8555265303098" y="524.5847949846379" width="1.0365384615384616" height="11.415205015362062" fill="#f44336" opacity="0.5"/>
<rect x="535.3391488809841" y="525.5618004819063" width="1.0365384615384616" height="10.438199518093711" fill="#4CAF50" opacity="0.5"/>
<rect x="536.8227712316585" y="518.6860167236084" width="1.0365384615384616" height="17.313983276391582" fill="#4CAF50" opacity="0.5"/>
<rect x="538.3063935823329" y="523.3912224595767" width="1.0365384615384616" height="12.608777540423262" fill="#4CAF50" opacity="0.5"/>
<rect x="539.7900159330072" y="525.5383690981284" width="1.0365384615384616" height="10.461630901871558" fill="#4CAF50" opacity="0.5"/>
<rect x="541.2736382836817" y="526.863078798547" width="1.0365384615384616" height="9.136921201452992" fill="#f44336" opacity="0.5"/>
<rect x="542.757260634356" y="522.6095815365269" width="1.0365384615384616" height="13.390418463473111" fill="#4CAF50" opacity="0.5"/>
<rect x="544.2408829850303" y="519.0864072421721" width="1.0365384615384616" height="16.913592757827928" fill="#4CAF50" opacity="0.5"/>
<rect x="545.7245053357047" y="522.3911356862724" width="1.0365384615384616" height="13.608864313727622" fill="#f44336" opacity="0.5"/>
<rect x="547.2081276863792" y="518.7420179268265" width="1.0365384615384616" height="17.25798207317348" fill="#f44336" opacity="0.5"/>
<rect x="548.6917500370536" y="520.4957298769621" width="1.0365384615384616" height="15.50427012303794" fill="#f44336" opacity="0.5"/>
<rect x="550.175372387728" y="526.6281716484124" width="1.0365384615384616" height="9.371828351587624" fill="#4CAF50" opacity="0.5"/>
<rect x="551.6589947384023" y="525.6633744882778" width="1.0365384615384616" height="10.336625511722218" fill="#f44336" opacity="0.5"/>
<rect x="553.1426170890766" y="522.7489778693249" width="1.0365384615384616" height="13.251022130675096" fill="#4CAF50" opacity="0.5"/>
<rect x="554.6262394397511" y="527.1089738084459" width="1.0365384615384616" height="8.891026191554147" fill="#f44336" opacity="0.5"/>
<rect x="556.1098617904254" y="528.9292293918666" width="1.0365384615384616" height="7.070770608133444" fill="#4CAF50" opacity="0.5"/>
<rect x="557.5934841410998" y="522.3733879854275" width="1.0365384615384616" height="13.626612014572515" fill="#4CAF50" opacity="0.5"/>
<rect x="559.0771064917742" y="526.7594442343976" width="1.0365384615384616" height="9.24055576560238" fill="#4CAF50" opacity="0.5"/>
<rect x="560.5607288424485" y="528.2580479067827" width="1.0365384615384616" height="7.7419520932172645" fill="#4CAF50" opacity="0.5"/>
<rect x="562.044351193123" y="529.8439834164094" width="1.0365384615384616" height="6.156016583590599" fill="#4CAF50" opacity="0.5"/>
<rect x="563.5279735437973" y="529.5344988629754" width="1.0365384615384616" height="6.465501137024603" fill="#4CAF50" opacity="0.5"/>
<rect x="565.0115958944716" y="529.5292427925515" width="1.0365384615384616" height="6.470757207448514" fill="#f44336" opacity="0.5"/>
<rect x="566.495218245146" y="517.0575186247204" width="1.0365384615384616" height="18.942481375279613" fill="#4CAF50" opacity="0.5"/>
<rect x="567.9788405958204" y="525.508886106488" width="1.0365384615384616" height="10.491113893511965" fill="#f44336" opacity="0.5"/>
<rect x="569.4624629464947" y="526.7107445147717" width="1.0365384615384616" height="9.289255485228296" fill="#4CAF50" opacity="0.5"/>
<rect x="570.9460852971692" y="524.3289401667156" width="1.0365384615384616" height="11.671059833284403" fill="#f44336" opacity="0.5"/>
<rect x="572.4297076478435" y="529.0303909303386" width="1.0365384615384616" height="6.969609069661374" fill="#f44336" opacity="0.5"/>
<rect x="573.9133299985178" y="483.73060500115145" width="1.0365384615384616" height="52.269394998848554" fill="#4CAF50" opacity="0.5"/>
<rect x="575.3969523491922" y="510.01372947504944" width="1.0365384615384616" height="25.986270524950555" fill="#f44336" opacity="0.5"/>
<rect x="576.8805746998667" y="523.0260128693368" width="1.0365384615384616" height="12.973987130663204" fill="#4CAF50" opacity="0.5"/>
<rect x="578.364197050541" y="517.2857861997925" width="1.0365384615384616" height="18.714213800207517" fill="#f44336" opacity="0.5"/>
<rect x="579.8478194012155" y="522.5390949595643" width="1.0365384615384616" height="13.460905040435705" fill="#f44336" opacity="0.5"/>
<rect x="581.3314417518898" y="522.072596437959" width="1.0365384615384616" height="13.927403562041036" fill="#f44336" opacity="0.5"/>
<rect x="582.8150641025641" y="521.1888389751668" width="1.0365384615384616" height="14.811161024833154" fill="#4CAF50" opacity="0.5"/>
<rect x="584.2986864532385" y="515.6460855440264" width="1.0365384615384616" height="20.35391445597361" fill="#4CAF50" opacity="0.5"/>
<rect x="585.7823088039129" y="514.4869687877423" width="1.0365384615384616" height="21.513031212257715" fill="#4CAF50" opacity="0.5"/>
<rect x="587.2659311545873" y="518.5988434593392" width="1.0365384615384616" height="17.40115654066085" fill="#f44336" opacity="0.5"/>
<rect x="588.7495535052617" y="518.0271460244886" width="1.0365384615384616" height="17.972853975511384" fill="#f44336" opacity="0.5"/>
<rect x="590.233175855936" y="513.383128965989" width="1.0365384615384616" height="22.616871034010956" fill="#4CAF50" opacity="0.5"/>
<rect x="591.7167982066104" y="519.6647870133361" width="1.0365384615384616" height="16.33521298666392" fill="#f44336" opacity="0.5"/>
<rect x="593.2004205572847" y="514.0431907441184" width="1.0365384615384616" height="21.95680925588158" fill="#f44336" opacity="0.5"/>
<rect x="594.6840429079591" y="517.1913747029479" width="1.0365384615384616" height="18.808625297052117" fill="#4CAF50" opacity="0.5"/>
<rect x="596.1676652586335" y="522.274190791919" width="1.0365384615384616" height="13.725809208081046" fill="#4CAF50" opacity="0.5"/>
<rect x="597.6512876093079" y="526.1046153643479" width="1.0365384615384616" height="9.895384635652135" fill="#f44336" opacity="0.5"/>
<rect x="599.1349099599823" y="525.5511101691798" width="1.0365384615384616" height="10.448889830820235" fill="#f44336" opacity="0.5"/>
<rect x="600.6185323106566" y="527.4317143496608" width="1.0365384615384616" height="8.568285650339249" fill="#f44336" opacity="0.5"/>
<rect x="602.1021546613309" y="522.2096489196917" width="1.0365384615384616" height="13.790351080308255" fill="#4CAF50" opacity="0.5"/>
<rect x="603.5857770120053" y="525.5594842474823" width="1.0365384615384616" height="10.44051575251774" fill="#4CAF50" opacity="0.5"/>
<rect x="605.0693993626797" y="437.0" width="1.0365384615384616" height="99.0" fill="#4CAF50" opacity="0.5"/>
<rect x="606.5530217133542" y="445.1585161640768" width="1.0365384615384616" height="90.84148383592321" fill="#f44336" opacity="0.5"/>
<rect x="608.0366440640286" y="477.2706717353386" width="1.0365384615384616" height="58.729328264661376" fill="#4CAF50" opacity="0.5"/>
<rect x="609.5202664147029" y="472.33714408187524" width="1.0365384615384616" height="63.66285591812476" fill="#4CAF50" opacity="0.5"/>
<rect x="611.0038887653773" y="484.65828806807764" width="1.0365384615384616" height="51.34171193192236" fill="#f44336" opacity="0.5"/>
<rect x="612.4875111160516" y="465.47515082699465" width="1.0365384615384616" height="70.52484917300535" fill="#4CAF50" opacity="0.5"/>
<rect x="613.971133466726" y="470.1731539647634" width="1.0365384615384616" height="65.8268460352366" fill="#4CAF50" opacity="0.5"/>
<rect x="615.4547558174004" y="494.7868195157022" width="1.0365384615384616" height="41.21318048429782" fill="#f44336" opacity="0.5"/>
<rect x="616.9383781680748" y="502.45091584305067" width="1.0365384615384616" height="33.549084156949334" fill="#f44336" opacity="0.5"/>
<rect x="618.4220005187492" y="512.6020234494349" width="1.0365384615384616" height="23.39797655056509" fill="#f44336" opacity="0.5"/>
<rect x="619.9056228694235" y="511.8028192334347" width="1.0365384615384616" height="24.197180766565282" fill="#f44336" opacity="0.5"/>
<rect x="621.3892452200978" y="516.5392807712373" width="1.0365384615384616" height="19.46071922876274" fill="#4CAF50" opacity="0.5"/>
<rect x="622.8728675707722" y="519.5371099358646" width="1.0365384615384616" height="16.462890064135422" fill="#f44336" opacity="0.5"/>
<rect x="624.3564899214466" y="513.5490060942701" width="1.0365384615384616" height="22.450993905729888" fill="#f44336" opacity="0.5"/>
<rect x="625.840112272121" y="522.7799325606841" width="1.0365384615384616" height="13.220067439315926" fill="#f44336" opacity="0.5"/>
<rect x="627.3237346227954" y="521.5467862796279" width="1.0365384615384616" height="14.453213720372105" fill="#f44336" opacity="0.5"/>
<rect x="628.8073569734697" y="525.8724119724735" width="1.0365384615384616" height="10.127588027526485" fill="#f44336" opacity="0.5"/>
<rect x="630.2909793241441" y="514.317013305156" width="1.0365384615384616" height="21.682986694843976" fill="#f44336" opacity="0.5"/>
<rect x="631.7746016748184" y="522.350163281029" width="1.0365384615384616" height="13.64983671897096" fill="#4CAF50" opacity="0.5"/>
<rect x="633.2582240254928" y="521.3951620107895" width="1.0365384615384616" height="14.604837989210523" fill="#4CAF50" opacity="0.5"/>
<rect x="634.7418463761672" y="524.3626146518043" width="1.0365384615384616" height="11.637385348195721" fill="#f44336" opacity="0.5"/>
<rect x="636.2254687268417" y="524.0942833480706" width="1.0365384615384616" height="11.905716651929424" fill="#4CAF50" opacity="0.5"/>
<rect x="637.709091077516" y="524.2865352595669" width="1.0365384615384616" height="11.713464740433096" fill="#4CAF50" opacity="0.5"/>
<rect x="639.1927134281904" y="522.5998292987421" width="1.0365384615384616" height="13.400170701257935" fill="#4CAF50" opacity="0.5"/>
<rect x="640.6763357788647" y="524.715216799902" width="1.0365384615384616" height="11.28478320009799" fill="#f44336" opacity="0.5"/>
<rect x="642.1599581295391" y="526.6134136716934" width="1.0365384615384616" height="9.386586328306635" fill="#f44336" opacity="0.5"/>
<rect x="643.6435804802135" y="528.0537863197976" width="1.0365384615384616" height="7.946213680202391" fill="#f44336" opacity="0.5"/>
<rect x="645.1272028308879" y="520.9875047521499" width="1.0365384615384616" height="15.012495247850097" fill="#4CAF50" opacity="0.5"/>
<rect x="646.6108251815623" y="524.8127160154058" width="1.0365384615384616" height="11.18728398459416" fill="#4CAF50" opacity="0.5"/>
<rect x="648.0944475322366" y="523.746376919838" width="1.0365384615384616" height="12.253623080162015" fill="#f44336" opacity="0.5"/>
<rect x="649.578069882911" y="524.7026556824483" width="1.0365384615384616" height="11.297344317551733" fill="#f44336" opacity="0.5"/>
<rect x="651.0616922335853" y="524.4834490382714" width="1.0365384615384616" height="11.516550961728626" fill="#f44336" opacity="0.5"/>
<rect x="652.5453145842597" y="512.5736112707859" width="1.0365384615384616" height="23.426388729214068" fill="#4CAF50" opacity="0.5"/>
<rect x="654.0289369349341" y="517.7965631058519" width="1.0365384615384616" height="18.203436894148126" fill="#4CAF50" opacity="0.5"/>
<rect x="655.5125592856085" y="521.7215728927072" width="1.0365384615384616" height="14.278427107292828" fill="#f44336" opacity="0.5"/>
<rect x="656.9961816362828" y="518.8164180491065" width="1.0365384615384616" height="17.18358195089354" fill="#4CAF50" opacity="0.5"/>
<rect x="658.4798039869572" y="526.5936080856486" width="1.0365384615384616" height="9.406391914351389" fill="#4CAF50" opacity="0.5"/>
<rect x="659.9634263376315" y="523.5417768062831" width="1.0365384615384616" height="12.45822319371689" fill="#4CAF50" opacity="0.5"/>
<rect x="661.4470486883059" y="524.1491772130621" width="1.0365384615384616" height="11.850822786937897" fill="#4CAF50" opacity="0.5"/>
<rect x="662.9306710389803" y="524.7492476287482" width="1.0365384615384616" height="11.250752371251792" fill="#4CAF50" opacity="0.5"/>
<rect x="664.4142933896547" y="519.6530713214472" width="1.0365384615384616" height="16.346928678552786" fill="#4CAF50" opacity="0.5"/>
<rect x="665.897915740329" y="523.3294814492839" width="1.0365384615384616" height="12.67051855071611" fill="#4CAF50" opacity="0.5"/>
<rect x="667.3815380910034" y="524.4076556118995" width="1.0365384615384616" height="11.592344388100514" fill="#f44336" opacity="0.5"/>
<rect x="668.8651604416779" y="525.7590367517114" width="1.0365384615384616" height="10.240963248288608" fill="#f44336" opacity="0.5"/>
<rect x="670.3487827923522" y="527.3183079488198" width="1.0365384615384616" height="8.681692051180221" fill="#f44336" opacity="0.5"/>
<rect x="671.8324051430266" y="523.9959333618456" width="1.0365384615384616" height="12.004066638154427" fill="#4CAF50" opacity="0.5"/>
<rect x="673.316027493701" y="515.2923680399675" width="1.0365384615384616" height="20.707631960032472" fill="#4CAF50" opacity="0.5"/>
<rect x="674.7996498443754" y="516.7430212054771" width="1.0365384615384616" height="19.256978794522865" fill="#4CAF50" opacity="0.5"/>
<rect x="676.2832721950497" y="523.9906095861078" width="1.0365384615384616" height="12.00939041389222" fill="#f44336" opacity="0.5"/>
<rect x="677.7668945457241" y="524.4987130231261" width="1.0365384615384616" height="11.501286976873871" fill="#4CAF50" opacity="0.5"/>
<rect x="679.2505168963984" y="523.6356359703035" width="1.0365384615384616" height="12.364364029696503" fill="#4CAF50" opacity="0.5"/>
<rect x="680.7341392470728" y="520.9217593288815" width="1.0365384615384616" height="15.078240671118465" fill="#f44336" opacity="0.5"/>
<rect x="682.2177615977472" y="509.9289312419242" width="1.0365384615384616" height="26.071068758075796" fill="#4CAF50" opacity="0.5"/>
<rect x="683.7013839484216" y="513.4415835959778" width="1.0365384615384616" height="22.558416404022182" fill="#f44336" opacity="0.5"/>
<rect x="685.1850062990959" y="515.012778055214" width="1.0365384615384616" height="20.98722194478603" fill="#4CAF50" opacity="0.5"/>
<rect x="686.6686286497703" y="456.4106939103587" width="1.0365384615384616" height="79.5893060896413" fill="#4CAF50" opacity="0.5"/>
<rect x="688.1522510004447" y="455.1330901821104" width="1.0365384615384616" height="80.86690981788962" fill="#4CAF50" opacity="0.5"/>
<rect x="689.635873351119" y="476.0752417684412" width="1.0365384615384616" height="59.924758231558826" fill="#f44336" opacity="0.5"/>
<rect x="691.1194957017934" y="498.8006114588922" width="1.0365384615384616" height="37.199388541107794" fill="#f44336" opacity="0.5"/>
<rect x="692.6031180524678" y="512.1209976836935" width="1.0365384615384616" height="23.87900231630647" fill="#4CAF50" opacity="0.5"/>
<rect x="694.0867404031421" y="500.4186303787301" width="1.0365384615384616" height="35.581369621269914" fill="#4CAF50" opacity="0.5"/>
<rect x="695.5703627538165" y="506.84484461648447" width="1.0365384615384616" height="29.155155383515535" fill="#f44336" opacity="0.5"/>
<rect x="697.053985104491" y="511.4751219505523" width="1.0365384615384616" height="24.524878049447693" fill="#4CAF50" opacity="0.5"/>
<rect x="698.5376074551652" y="519.5332142077351" width="1.0365384615384616" height="16.466785792264886" fill="#4CAF50" opacity="0.5"/>
<rect x="700.0212298058397" y="515.7455099066804" width="1.0365384615384616" height="20.254490093319646" fill="#f44336" opacity="0.5"/>
<rect x="701.5048521565141" y="514.9171371724058" width="1.0365384615384616" height="21.082862827594226" fill="#f44336" opacity="0.5"/>
<rect x="702.9884745071885" y="503.25067150101563" width="1.0365384615384616" height="32.74932849898437" fill="#4CAF50" opacity="0.5"/>
<rect x="704.4720968578628" y="502.0681153432191" width="1.0365384615384616" height="33.93188465678088" fill="#4CAF50" opacity="0.5"/>
<rect x="705.9557192085372" y="491.2448275983705" width="1.0365384615384616" height="44.75517240162952" fill="#4CAF50" opacity="0.5"/>
<rect x="707.4393415592116" y="482.44298890417525" width="1.0365384615384616" height="53.55701109582475" fill="#f44336" opacity="0.5"/>
<rect x="708.9229639098859" y="506.54505261325596" width="1.0365384615384616" height="29.45494738674404" fill="#4CAF50" opacity="0.5"/>
<rect x="710.4065862605603" y="516.077735427862" width="1.0365384615384616" height="19.922264572138033" fill="#4CAF50" opacity="0.5"/>
<rect x="711.8902086112347" y="520.2504620320765" width="1.0365384615384616" height="15.749537967923516" fill="#f44336" opacity="0.5"/>
<rect x="713.373830961909" y="513.4843011947738" width="1.0365384615384616" height="22.51569880522618" fill="#4CAF50" opacity="0.5"/>
<rect x="714.8574533125834" y="512.6617395363255" width="1.0365384615384616" height="23.338260463674487" fill="#4CAF50" opacity="0.5"/>
<rect x="716.3410756632578" y="521.6642906336807" width="1.0365384615384616" height="14.335709366319293" fill="#f44336" opacity="0.5"/>
<rect x="717.8246980139321" y="510.1483196214175" width="1.0365384615384616" height="25.8516803785825" fill="#4CAF50" opacity="0.5"/>
<rect x="719.3083203646065" y="508.8356383045351" width="1.0365384615384616" height="27.16436169546489" fill="#4CAF50" opacity="0.5"/>
<rect x="720.7919427152809" y="496.83717784454643" width="1.0365384615384616" height="39.16282215545357" fill="#4CAF50" opacity="0.5"/>
<rect x="722.2755650659552" y="505.1052518968826" width="1.0365384615384616" height="30.894748103117422" fill="#f44336" opacity="0.5"/>
<rect x="723.7591874166296" y="492.46836239742606" width="1.0365384615384616" height="43.53163760257394" fill="#4CAF50" opacity="0.5"/>
<rect x="725.242809767304" y="503.2255492661082" width="1.0365384615384616" height="32.7744507338918" fill="#f44336" opacity="0.5"/>
<rect x="726.7264321179784" y="507.8634131587743" width="1.0365384615384616" height="28.13658684122572" fill="#4CAF50" opacity="0.5"/>
<rect x="728.2100544686527" y="484.78890498154897" width="1.0365384615384616" height="51.21109501845103" fill="#4CAF50" opacity="0.5"/>
<rect x="729.6936768193272" y="462.6980677115769" width="1.0365384615384616" height="73.30193228842307" fill="#4CAF50" opacity="0.5"/>
<rect x="731.1772991700016" y="463.09623731767164" width="1.0365384615384616" height="72.90376268232836" fill="#f44336" opacity="0.5"/>
<rect x="732.6609215206759" y="477.60113959093604" width="1.0365384615384616" height="58.39886040906396" fill="#4CAF50" opacity="0.5"/>
<rect x="734.1445438713503" y="446.41703590238944" width="1.0365384615384616" height="89.58296409761056" fill="#4CAF50" opacity="0.5"/>
<rect x="735.6281662220247" y="474.6605632869753" width="1.0365384615384616" height="61.339436713024725" fill="#f44336" opacity="0.5"/>
<rect x="737.111788572699" y="501.89651177075416" width="1.0365384615384616" height="34.10348822924584" fill="#f44336" opacity="0.5"/>
<rect x="738.5954109233734" y="505.6296838957313" width="1.0365384615384616" height="30.37031610426868" fill="#f44336" opacity="0.5"/>
<rect x="740.0790332740478" y="495.67021618043975" width="1.0365384615384616" height="40.32978381956025" fill="#f44336" opacity="0.5"/>
<rect x="741.5626556247221" y="509.6112196019878" width="1.0365384615384616" height="26.388780398012216" fill="#f44336" opacity="0.5"/>
<rect x="743.0462779753965" y="509.25342463448305" width="1.0365384615384616" height="26.746575365516946" fill="#f44336" opacity="0.5"/>
<rect x="744.5299003260709" y="514.2182544144692" width="1.0365384615384616" height="21.781745585530757" fill="#f44336" opacity="0.5"/>
<rect x="746.0135226767453" y="515.1860341718545" width="1.0365384615384616" height="20.813965828145456" fill="#f44336" opacity="0.5"/>
<rect x="747.4971450274196" y="514.3519884449597" width="1.0365384615384616" height="21.648011555040284" fill="#4CAF50" opacity="0.5"/>
<rect x="748.980767378094" y="511.9861803681801" width="1.0365384615384616" height="24.0138196318199" fill="#4CAF50" opacity="0.5"/>
<rect x="750.4643897287683" y="518.5907794001057" width="1.0365384615384616" height="17.409220599894297" fill="#f44336" opacity="0.5"/>
<rect x="751.9480120794427" y="472.419163724551" width="1.0365384615384616" height="63.58083627544897" fill="#4CAF50" opacity="0.5"/>
<rect x="753.4316344301171" y="495.22614949837237" width="1.0365384615384616" height="40.773850501627635" fill="#f44336" opacity="0.5"/>
<rect x="754.9152567807915" y="501.2531224261812" width="1.0365384615384616" height="34.74687757381878" fill="#f44336" opacity="0.5"/>
<rect x="756.3988791314658" y="512.1288906979233" width="1.0365384615384616" height="23.87110930207666" fill="#4CAF50" opacity="0.5"/>
<rect x="757.8825014821402" y="519.3466593420627" width="1.0365384615384616" height="16.653340657937292" fill="#f44336" opacity="0.5"/>
<rect x="759.3661238328147" y="522.1726711279705" width="1.0365384615384616" height="13.827328872029511" fill="#f44336" opacity="0.5"/>
<rect x="760.849746183489" y="525.2681402638858" width="1.0365384615384616" height="10.731859736114188" fill="#f44336" opacity="0.5"/>
<rect x="762.3333685341634" y="512.6096242617834" width="1.0365384615384616" height="23.390375738216562" fill="#4CAF50" opacity="0.5"/>
<rect x="763.8169908848378" y="525.2247883732015" width="1.0365384615384616" height="10.775211626798523" fill="#f44336" opacity="0.5"/>
<rect x="765.3006132355122" y="524.0925595351434" width="1.0365384615384616" height="11.907440464856563" fill="#4CAF50" opacity="0.5"/>
<rect x="766.7842355861865" y="521.6488698575727" width="1.0365384615384616" height="14.351130142427337" fill="#f44336" opacity="0.5"/>
<rect x="768.2678579368609" y="513.7569121870357" width="1.0365384615384616" height="22.24308781296429" fill="#4CAF50" opacity="0.5"/>
<rect x="769.7514802875352" y="509.0572244341531" width="1.0365384615384616" height="26.942775565846887" fill="#4CAF50" opacity="0.5"/>
<rect x="771.2351026382096" y="517.8583611311459" width="1.0365384615384616" height="18.141638868854102" fill="#f44336" opacity="0.5"/>
<rect x="772.718724988884" y="521.1335878755584" width="1.0365384615384616" height="14.866412124441581" fill="#f44336" opacity="0.5"/>
<rect x="774.2023473395584" y="510.705397162755" width="1.0365384615384616" height="25.29460283724501" fill="#4CAF50" opacity="0.5"/>
<rect x="775.6859696902327" y="519.9086864981927" width="1.0365384615384616" height="16.09131350180735" fill="#f44336" opacity="0.5"/>
<rect x="777.1695920409071" y="516.238256709467" width="1.0365384615384616" height="19.76174329053299" fill="#4CAF50" opacity="0.5"/>
<rect x="778.6532143915814" y="519.0930521623911" width="1.0365384615384616" height="16.906947837608868" fill="#f44336" opacity="0.5"/>
<rect x="780.1368367422558" y="521.7866947143998" width="1.0365384615384616" height="14.2133052856002" fill="#f44336" opacity="0.5"/>
<rect x="781.6204590929302" y="521.6706103902209" width="1.0365384615384616" height="14.329389609779128" fill="#f44336" opacity="0.5"/>
<rect x="783.1040814436046" y="514.5270378615602" width="1.0365384615384616" height="21.47296213843981" fill="#4CAF50" opacity="0.5"/>
<rect x="784.587703794279" y="521.7340885763318" width="1.0365384615384616" height="14.265911423668172" fill="#f44336" opacity="0.5"/>
<rect x="786.0713261449533" y="511.88759252249696" width="1.0365384615384616" height="24.11240747750304" fill="#4CAF50" opacity="0.5"/>
<rect x="787.5549484956277" y="510.7686348168296" width="1.0365384615384616" height="25.231365183170396" fill="#4CAF50" opacity="0.5"/>
<rect x="789.038570846302" y="511.0251239266404" width="1.0365384615384616" height="24.97487607335961" fill="#f44336" opacity="0.5"/>
<rect x="790.5221931969764" y="500.09501679530916" width="1.0365384615384616" height="35.904983204690836" fill="#4CAF50" opacity="0.5"/>
<rect x="792.0058155476509" y="502.57599072023265" width="1.0365384615384616" height="33.42400927976735" fill="#f44336" opacity="0.5"/>
<rect x="793.4894378983253" y="511.29495543759333" width="1.0365384615384616" height="24.70504456240667" fill="#f44336" opacity="0.5"/>
<rect x="794.9730602489997" y="497.61805975539266" width="1.0365384615384616" height="38.381940244607335" fill="#4CAF50" opacity="0.5"/>
<rect x="796.456682599674" y="504.91042718345676" width="1.0365384615384616" height="31.08957281654324" fill="#f44336" opacity="0.5"/>
<rect x="797.9403049503483" y="510.22069838373267" width="1.0365384615384616" height="25.779301616267333" fill="#f44336" opacity="0.5"/>
<rect x="799.4239273010227" y="483.1264660306134" width="1.0365384615384616" height="52.873533969386585" fill="#4CAF50" opacity="0.5"/>
<rect x="800.9075496516971" y="499.5830978075068" width="1.0365384615384616" height="36.41690219249318" fill="#4CAF50" opacity="0.5"/>
<rect x="802.3911720023715" y="515.4912657625422" width="1.0365384615384616" height="20.508734237457816" fill="#f44336" opacity="0.5"/>
<rect x="803.8747943530459" y="508.91954122396953" width="1.0365384615384616" height="27.08045877603047" fill="#f44336" opacity="0.5"/>
<rect x="805.3584167037202" y="520.2876162139577" width="1.0365384615384616" height="15.712383786042324" fill="#4CAF50" opacity="0.5"/>
<rect x="806.8420390543945" y="474.6792918240128" width="1.0365384615384616" height="61.32070817598719" fill="#4CAF50" opacity="0.5"/>
<rect x="808.3256614050689" y="503.2986995126585" width="1.0365384615384616" height="32.701300487341484" fill="#f44336" opacity="0.5"/>
<rect x="809.8092837557433" y="491.12343998821973" width="1.0365384615384616" height="44.87656001178027" fill="#4CAF50" opacity="0.5"/>
<rect x="811.2929061064177" y="500.4705505550648" width="1.0365384615384616" height="35.52944944493521" fill="#4CAF50" opacity="0.5"/>
<rect x="812.7765284570921" y="502.84952553368595" width="1.0365384615384616" height="33.15047446631405" fill="#f44336" opacity="0.5"/>
<rect x="814.2601508077665" y="510.787763349735" width="1.0365384615384616" height="25.212236650265027" fill="#4CAF50" opacity="0.5"/>
<rect x="815.7437731584408" y="507.26411868162023" width="1.0365384615384616" height="28.735881318379768" fill="#f44336" opacity="0.5"/>
<rect x="817.2273955091151" y="516.3459384478429" width="1.0365384615384616" height="19.654061552157145" fill="#f44336" opacity="0.5"/>
<rect x="818.7110178597895" y="518.4684448064193" width="1.0365384615384616" height="17.531555193580743" fill="#f44336" opacity="0.5"/>
<rect x="820.194640210464" y="512.0180152286205" width="1.0365384615384616" height="23.98198477137953" fill="#4CAF50" opacity="0.5"/>
<rect x="821.6782625611384" y="518.6641790872862" width="1.0365384615384616" height="17.335820912713757" fill="#f44336" opacity="0.5"/>
<rect x="823.1618849118128" y="518.8269034641725" width="1.0365384615384616" height="17.17309653582754" fill="#4CAF50" opacity="0.5"/>
<rect x="824.6455072624871" y="512.1526757528806" width="1.0365384615384616" height="23.847324247119445" fill="#f44336" opacity="0.5"/>
<rect x="826.1291296131614" y="519.6992935610987" width="1.0365384615384616" height="16.30070643890133" fill="#f44336" opacity="0.5"/>
<rect x="827.6127519638358" y="523.4147331298407" width="1.0365384615384616" height="12.58526687015933" fill="#f44336" opacity="0.5"/>
<rect x="829.0963743145102" y="519.8999222234756" width="1.0365384615384616" height="16.10007777652436" fill="#4CAF50" opacity="0.5"/>
<rect x="830.5799966651846" y="522.4503368564333" width="1.0365384615384616" height="13.549663143566704" fill="#4CAF50" opacity="0.5"/>
<rect x="832.063619015859" y="523.4914539408416" width="1.0365384615384616" height="12.508546059158448" fill="#4CAF50" opacity="0.5"/>
<rect x="833.5472413665334" y="521.8654110504431" width="1.0365384615384616" height="14.134588949556928" fill="#f44336" opacity="0.5"/>
<rect x="835.0308637172077" y="516.3112875808586" width="1.0365384615384616" height="19.68871241914144" fill="#4CAF50" opacity="0.5"/>
<rect x="836.514486067882" y="519.6249807430394" width="1.0365384615384616" height="16.375019256960627" fill="#f44336" opacity="0.5"/>
<rect x="837.9981084185564" y="466.17969232380113" width="1.0365384615384616" height="69.82030767619887" fill="#4CAF50" opacity="0.5"/>
<rect x="839.4817307692308" y="450.78689098242245" width="1.0365384615384616" height="85.21310901757755" fill="#4CAF50" opacity="0.5"/>
<polyline points="798.4585741811175,73.2443196339779 799.9421965317919,76.50567898982162 801.4258188824663,79.76703834566544 802.9094412331407,83.02839770150916 804.3930635838151,86.289757057353 805.8766859344894,89.55111641319672 807.3603082851637,92.81247576904052 808.8439306358381,96.07383512488434 810.3275529865125,99.33519448072806 811.8111753371869,102.5965538365719 813.2947976878613,105.85791319241562 814.7784200385357,109.11927254825946 816.26204238921,112.38063190410318 817.7456647398843,115.641991259947 819.2292870905587,118.90335061579073 820.7129094412331,122.16470997163457 822.1965317919075,125.42606932747829 823.680154142582,128.6874286833221 825.1637764932563,131.94878803916583 826.6473988439305,135.21014739500967 828.131021194605,138.4715067508534 829.6146435452794,141.7328661066972 831.0982658959538,144.994225462541 832.5818882466282,148.25558481838476 834.0655105973026,151.5169441742285 835.5491329479769,154.77830353007232 837.0327552986512,158.03966288591613 838.5163776493256,161.30102224175988 840.0,164.5623815976037" stroke="#f85149" stroke-width="2.5" fill="none"/>
<polyline points="798.4585741811175,185.939573000361 799.9421965317919,185.40246788144546 801.4258188824663,184.8653627625299 802.9094412331407,184.32825764361442 804.3930635838151,183.7911525246989 805.8766859344894,183.2540474057834 807.3603082851637,182.7169422868678 808.8439306358381,182.17983716795231 810.3275529865125,181.64273204903682 811.8111753371869,181.10562693012125 813.2947976878613,180.56852181120576 814.7784200385357,180.03141669229024 816.26204238921,179.49431157337474 817.7456647398843,178.95720645445917 819.2292870905587,178.42010133554365 820.7129094412331,177.88299621662816 822.1965317919075,177.34589109771264 823.680154142582,176.80878597879706 825.1637764932563,176.2716808598816 826.6473988439305,175.73457574096608 828.131021194605,175.1974706220505 829.6146435452794,174.66036550313498 831.0982658959538,174.12326038421946 832.5818882466282,173.586155265304 834.0655105973026,173.0490501463884 835.5491329479769,172.5119450274729 837.0327552986512,171.97483990855739 838.5163776493256,171.4377347896418 840.0,170.90062967072635" stroke="#3fb950" stroke-width="2.5" fill="none"/>
<polygon points="798.4585741811175,73.2443196339779 799.9421965317919,76.50567898982162 801.4258188824663,79.76703834566544 802.9094412331407,83.02839770150916 804.3930635838151,86.289757057353 805.8766859344894,89.55111641319672 807.3603082851637,92.81247576904052 808.8439306358381,96.07383512488434 810.3275529865125,99.33519448072806 811.8111753371869,102.5965538365719 813.2947976878613,105.85791319241562 814.7784200385357,109.11927254825946 816.26204238921,112.38063190410318 817.7456647398843,115.641991259947 819.2292870905587,118.90335061579073 820.7129094412331,122.16470997163457 822.1965317919075,125.42606932747829 823.680154142582,128.6874286833221 825.1637764932563,131.94878803916583 826.6473988439305,135.21014739500967 828.131021194605,138.4715067508534 829.6146435452794,141.7328661066972 831.0982658959538,144.994225462541 832.5818882466282,148.25558481838476 834.0655105973026,151.5169441742285 835.5491329479769,154.77830353007232 835.5491329479769,172.5119450274729 834.0655105973026,173.0490501463884 832.5818882466282,173.586155265304 831.0982658959538,174.12326038421946 829.6146435452794,174.66036550313498 828.131021194605,175.1974706220505 826.6473988439305,175.73457574096608 825.1637764932563,176.2716808598816 823.680154142582,176.80878597879706 822.1965317919075,177.34589109771264 820.7129094412331,177.88299621662816 819.2292870905587,178.42010133554365 817.7456647398843,178.95720645445917 816.26204238921,179.49431157337474 814.7784200385357,180.03141669229024 813.2947976878613,180.56852181120576 811.8111753371869,181.10562693012125 810.3275529865125,181.64273204903682 808.8439306358381,182.17983716795231 807.3603082851637,182.7169422868678 805.8766859344894,183.2540474057834 804.3930635838151,183.7911525246989 802.9094412331407,184.32825764361442 801.4258188824663,184.8653627625299 799.9421965317919,185.40246788144546 798.4585741811175,185.939573000361" fill="#FFD700" opacity="0.12"/>
<polygon points="801.3603082851637,84.81247576904052 813.3603082851637,84.81247576904052 807.3603082851637,94.81247576904052" fill="#f85149" stroke="#fff" stroke-width="1"/>
<polygon points="826.5818882466282,140.25558481838476 838.5818882466282,140.25558481838476 832.5818882466282,150.25558481838476" fill="#f85149" stroke="#fff" stroke-width="1"/>
<polygon points="792.4585741811175,193.939573000361 804.4585741811175,193.939573000361 798.4585741811175,183.939573000361" fill="#3fb950" stroke="#fff" stroke-width="1"/>
<polygon points="829.5491329479769,180.5119450274729 841.5491329479769,180.5119450274729 835.5491329479769,170.5119450274729" fill="#3fb950" stroke="#fff" stroke-width="1"/>
<circle cx="838.5163776493256" cy="117.50198526757664" r="6" fill="#e53935" stroke="#fff" stroke-width="2"/>
<text x="838.5163776493256" y="105.50198526757664" text-anchor="middle" font-size="10" fill="#e53935">突破</text>
<polyline points="70.0,338.84127217550565 71.48362235067438,328.87883851820163 72.96724470134875,334.94292857047367 74.45086705202313,328.4456892287536 75.9344894026975,325.4136442026176 77.41811175337187,303.75617973021747 78.90173410404624,312.4191655191775 80.38535645472062,321.08215130813755 81.86897880539499,325.8467934920656 83.35260115606937,329.74513709709765 84.83622350674374,324.11419633427363 86.31984585741812,331.0445849654416 87.80346820809248,331.47773425488964 89.28709055876686,336.67552572826565 90.77071290944123,334.94292857047367 92.25433526011561,322.8147484659296 93.73795761078998,315.88435983476154 95.22157996146436,319.7827034397936 96.70520231213872,325.8467934920656 98.1888246628131,329.3119878076496 99.67244701348747,334.5097792810256 101.15606936416185,311.11971765083354 102.63969171483623,319.34955415034557 104.1233140655106,324.11419633427363 105.60693641618496,335.3760778599216 107.09055876685935,332.34403283378566 108.57418111753373,330.6114356759936 110.05780346820809,319.7827034397936 111.54142581888246,314.15176267696955 113.02504816955684,296.8257910990494 114.50867052023122,287.2965067311935 115.99229287090559,290.32855175732936 117.47591522157995,290.7617010467775 118.95953757225433,298.55838825684145 120.44315992292871,306.35507546690553 121.9267822736031,309.3871204930415 123.41040462427745,308.52082191414553 124.89402697495183,316.31750912420955 126.37764932562621,283.83131241560943 127.86127167630059,274.3020280477533 129.34489402697494,281.2324166789214 130.82851637764932,292.06114891512146 132.3121387283237,274.3020280477533 133.79576107899808,276.03462520554535 135.27938342967246,269.1042365743774 136.76300578034682,253.51086215424925 138.2466281310212,253.51086215424925 139.73025048169558,254.37716073314525 141.21387283236993,276.03462520554535 142.6974951830443,300.7241347040815 144.1811175337187,307.2213740458015 145.66473988439307,326.2799427815136 147.14836223506745,321.51530059758556 148.6319845857418,324.11419633427363 150.11560693641619,317.6169569925536 151.59922928709057,333.64348070212964 153.08285163776492,338.84127217550565 154.56647398843933,337.10867501771367 156.05009633911368,326.2799427815136 157.53371868978803,317.1838077031056 159.01734104046244,331.0445849654416 160.5009633911368,317.1838077031056 161.98458574181117,320.6490020186896 163.46820809248555,327.57939064985766 164.9518304431599,338.4081228860577 166.43545279383432,329.74513709709765 167.91907514450867,319.7827034397936 169.40269749518305,326.71309207096164 170.88631984585743,326.71309207096164 172.36994219653178,331.47773425488964 173.8535645472062,321.51530059758556 175.33718689788054,329.74513709709765 176.8208092485549,330.6114356759936 178.3044315992293,336.24237643881764 179.78805394990366,338.4081228860577 181.27167630057804,351.83575085894574 182.75529865125242,349.67000441170575 184.23892100192677,348.80370583280967 185.72254335260118,352.7020494378417 187.20616570327553,347.9374072539137 188.68978805394988,355.3009451745297 190.1734104046243,352.7020494378417 191.65703275529864,341.87331720164167 193.14065510597305,332.7771821232336 194.6242774566474,335.80922714936963 196.10789980732176,328.4456892287536 197.59152215799617,330.6114356759936 199.07514450867052,331.47773425488964 200.5587668593449,335.80922714936963 202.04238921001928,341.87331720164167 203.52601156069363,341.0070186227457 205.009633911368,339.7075707544017 206.4932562620424,331.0445849654416 207.97687861271675,340.1407200438497 209.46050096339115,328.87883851820163 210.9441233140655,327.57939064985766 212.4277456647399,332.34403283378566 213.91136801541427,334.94292857047367 215.39499036608862,329.3119878076496 216.878612716763,324.5473456237216 218.36223506743738,321.51530059758556 219.84585741811176,301.5904332829775 221.32947976878614,277.3340730738894 222.8131021194605,271.26998302161735 224.29672447013488,267.8047887060333 225.78034682080926,283.3981631261614 227.2639691714836,295.95949252015345 228.747591522158,295.0931939412575 230.23121387283237,314.58491196641756 231.71483622350675,320.6490020186896 233.1984585741811,327.1462413604096 234.68208092485548,319.7827034397936 236.16570327552986,319.34955415034557 237.64932562620425,306.78822475635354 239.13294797687863,314.58491196641756 240.61657032755298,309.8202697824895 242.10019267822736,306.35507546690553 243.58381502890174,314.15176267696955 245.0674373795761,317.6169569925536 246.55105973025047,318.9164048608976 248.03468208092485,315.88435983476154 249.51830443159923,326.71309207096164 251.0019267822736,324.5473456237216 252.48554913294797,319.7827034397936 253.96917148362235,319.34955415034557 255.45279383429673,295.5263432307055 256.9364161849711,303.32303044076946 258.4200385356455,294.66004465180947 259.9036608863198,300.2909854146335 261.3872832369942,299.8578361251855 262.87090558766863,311.11971765083354 264.354527938343,318.48325557144955 265.83815028901734,322.8147484659296 267.32177263969174,315.0180612558656 268.8053949903661,312.8523148086255 270.28901734104045,289.8954024678814 271.77263969171486,304.6224783091135 273.2562620423892,298.99153754628946 274.73988439306356,294.22689536236146 276.22350674373797,296.3926418096014 277.7071290944124,300.2909854146335 279.1907514450867,299.8578361251855 280.6743737957611,294.22689536236146 282.1579961464355,297.69208967794543 283.6416184971098,305.4887768880095 285.1252408477842,303.32303044076946 286.6088631984586,300.7241347040815 288.09248554913296,296.3926418096014 289.5761078998073,295.95949252015345 291.0597302504817,294.66004465180947 292.5433526011561,296.8257910990494 294.0269749518304,303.75617973021747 295.51059730250483,306.78822475635354 296.99421965317924,315.4512105453136 298.47784200385354,314.58491196641756 299.96146435452795,311.98601622972956 301.44508670520236,310.6865683613855 302.92870905587665,318.9164048608976 304.41233140655106,315.4512105453136 305.89595375722547,321.08215130813755 307.37957610789977,321.51530059758556 308.8631984585742,315.4512105453136 310.3468208092486,316.75065841365756 311.8304431599229,321.08215130813755 313.3140655105973,327.57939064985766 314.7976878612717,332.34403283378566 316.2813102119461,326.2799427815136 317.7649325626204,320.2158527292416 319.2485549132948,323.68104704482556 320.7321772639692,321.51530059758556 322.2157996146435,325.4136442026176 323.6994219653179,331.47773425488964 325.18304431599233,324.11419633427363 326.66666666666663,327.1462413604096 328.15028901734104,323.24789775537755 329.63391136801545,319.34955415034557 331.1175337186898,308.52082191414553 332.60115606936415,308.9539712035935 334.08477842003856,306.35507546690553 335.5684007707129,312.4191655191775 337.05202312138726,311.11971765083354 338.5356454720617,315.4512105453136 340.019267822736,316.31750912420955 341.5028901734104,311.98601622972956 342.9865125240848,311.11971765083354 344.4701348747592,310.2534190719375 345.9537572254335,312.8523148086255 347.4373795761079,307.2213740458015 348.9210019267823,311.98601622972956 350.40462427745666,314.58491196641756 351.888246628131,314.58491196641756 353.3718689788054,316.31750912420955 354.8554913294798,313.28546409807353 356.3391136801541,315.4512105453136 357.82273603082854,315.0180612558656 359.3063583815029,314.58491196641756 360.78998073217724,314.58491196641756 362.27360308285165,311.11971765083354 363.757225433526,318.48325557144955 365.24084778420035,322.3815991764816 366.72447013487476,319.7827034397936 368.2080924855491,310.2534190719375 369.6917148362235,304.6224783091135 371.1753371868979,306.35507546690553 372.6589595375723,306.35507546690553 374.14258188824664,304.18932901966554 375.626204238921,305.0556275985615 377.1098265895954,301.5904332829775 378.59344894026975,303.32303044076946 380.0770712909441,302.8898811513215 381.5606936416185,304.18932901966554 383.04431599229287,303.32303044076946 384.5279383429672,301.5904332829775 386.0115606936416,299.8578361251855 387.495183044316,302.0235825724255 388.9788053949904,303.75617973021747 390.46242774566474,303.75617973021747 391.9460500963391,304.18932901966554 393.4296724470135,305.4887768880095 394.91329479768785,309.3871204930415 396.3969171483622,312.8523148086255 397.8805394990366,309.3871204930415 399.36416184971097,309.3871204930415 400.8477842003854,306.35507546690553 402.33140655105973,340.1407200438497 403.8150289017341,347.0711086750177 405.2986512524085,344.9053622277777 406.78227360308284,339.27442146495366 408.26589595375725,340.5738693332977 409.7495183044316,337.97497359660963 411.23314065510596,335.80922714936963 412.71676300578036,343.17276506998564 414.2003853564547,342.3064664910897 415.68400770712907,342.3064664910897 417.1676300578035,339.27442146495366 418.65125240847783,337.97497359660963 420.1348747591522,333.64348070212964 421.6184971098266,329.74513709709765 423.10211946050094,329.3119878076496 424.5857418111753,334.94292857047367 426.0693641618497,341.0070186227457 427.5529865125241,343.60591435943365 429.03660886319847,337.5418243071617 430.5202312138728,336.24237643881764 432.0038535645472,330.1782863865456 433.4874759152216,332.7771821232336 434.97109826589593,331.47773425488964 436.45472061657034,332.34403283378566 437.9383429672447,332.34403283378566 439.42196531791905,335.3760778599216 440.90558766859345,335.80922714936963 442.38921001926786,334.94292857047367 443.87283236994216,334.07662999157765 445.35645472061657,334.07662999157765 446.840077071291,337.10867501771367 448.3236994219653,341.87331720164167 449.8073217726397,342.3064664910897 451.2909441233141,341.87331720164167 452.77456647398844,344.9053622277777 454.2581888246628,341.87331720164167 455.7418111753372,341.87331720164167 457.22543352601156,343.60591435943365 458.70905587668597,343.60591435943365 460.19267822736026,342.7396157805377 461.67630057803467,338.84127217550565 463.159922928709,338.84127217550565 464.64354527938343,341.0070186227457 466.12716763005784,340.1407200438497 467.6107899807322,338.4081228860577 469.0944123314065,340.5738693332977 470.5780346820809,340.1407200438497 472.0616570327553,337.97497359660963 473.54527938342966,337.10867501771367 475.02890173410407,345.7716608066737 476.5125240847784,349.23685512225774 477.99614643545283,347.0711086750177 479.4797687861271,341.0070186227457 480.96339113680153,341.44016791219366 482.4470134874759,343.60591435943365 483.9306358381503,341.87331720164167 485.4142581888247,341.44016791219366 486.89788053949906,340.1407200438497 488.38150289017335,339.7075707544017 489.86512524084776,339.27442146495366 491.34874759152217,339.27442146495366 492.8323699421965,334.5097792810256 494.31599229287093,335.3760778599216 495.7996146435453,334.07662999157765 497.28323699421964,334.07662999157765 498.766859344894,333.64348070212964 500.2504816955684,330.1782863865456 501.73410404624275,332.7771821232336 503.21772639691716,329.3119878076496 504.70134874759157,331.91088354433765 506.1849710982659,329.74513709709765 507.6685934489402,309.8202697824895 509.1522157996146,298.55838825684145 510.63583815028903,308.9539712035935 512.1194605009634,312.8523148086255 513.6030828516377,321.08215130813755 515.0867052023121,321.9484498870336 516.5703275529866,321.9484498870336 518.0539499036609,324.11419633427363 519.5375722543353,324.9804949131696 521.0211946050097,322.3815991764816 522.504816955684,321.9484498870336 523.9884393063585,321.08215130813755 525.4720616570328,319.34955415034557 526.9556840077071,321.9484498870336 528.4393063583815,320.6490020186896 529.9229287090559,319.34955415034557 531.4065510597302,320.2158527292416 532.8901734104047,319.34955415034557 534.373795761079,324.5473456237216 535.8574181117533,320.2158527292416 537.3410404624277,315.88435983476154 538.8246628131021,314.58491196641756 540.3082851637764,313.28546409807353 541.7919075144509,314.58491196641756 543.2755298651252,314.58491196641756 544.7591522157995,311.55286694028155 546.2427745664739,313.28546409807353 547.7263969171483,319.34955415034557 549.2100192678228,321.08215130813755 550.6936416184972,321.08215130813755 552.1772639691715,323.68104704482556 553.6608863198458,323.68104704482556 555.1445086705203,330.6114356759936 556.6281310211946,329.74513709709765 558.111753371869,324.11419633427363 559.5953757225434,322.3815991764816 561.0789980732177,321.9484498870336 562.5626204238922,321.9484498870336 564.0462427745665,320.6490020186896 565.5298651252408,321.51530059758556 567.0134874759152,315.88435983476154 568.4971098265896,319.34955415034557 569.9807321772639,316.31750912420955 571.4643545279384,319.34955415034557 572.9479768786127,319.7827034397936 574.431599229287,303.75617973021747 575.9152215799614,311.98601622972956 577.3988439306358,311.55286694028155 578.8824662813101,311.98601622972956 580.3660886319847,312.8523148086255 581.849710982659,313.28546409807353 583.3333333333333,308.9539712035935 584.8169556840077,305.0556275985615 586.3005780346821,301.1572839935295 587.7842003853565,302.45673186187355 589.2678227360309,304.18932901966554 590.7514450867052,298.12523896739344 592.2350674373796,301.5904332829775 593.7186897880539,314.58491196641756 595.2023121387283,309.3871204930415 596.6859344894027,308.9539712035935 598.1695568400771,313.28546409807353 599.6531791907515,315.0180612558656 601.1368015414258,317.1838077031056 602.6204238921001,313.71861338752154 604.1040462427745,311.55286694028155 605.5876685934489,278.63352094223336 607.0712909441233,288.59595459953744 608.5549132947978,285.13076028395346 610.038535645472,271.7031323110653 611.5221579961465,275.60147591609734 613.0057803468208,255.2434593120413 614.4894026974952,254.37716073314525 615.9730250481696,256.9760564698333 617.456647398844,258.7086536276253 618.9402697495184,259.14180291707333 620.4238921001927,266.07219154824134 621.907514450867,266.07219154824134 623.3911368015414,270.4036844427213 624.8747591522158,276.46777449499336 626.3583815028902,282.5318645472654 627.8420038535646,287.7296560206414 629.3256262042389,291.1948503362255 630.8092485549133,307.6545233352495 632.2928709055876,306.35507546690553 633.776493256262,302.45673186187355 635.2601156069364,305.0556275985615 636.7437379576108,302.8898811513215 638.2273603082851,298.99153754628946 639.7109826589596,298.99153754628946 641.1946050096338,299.8578361251855 642.6782273603083,300.2909854146335 644.1618497109827,302.0235825724255 645.6454720616571,293.7937460729134 647.1290944123315,292.92744749401743 648.6127167630058,295.95949252015345 650.0963391136802,297.69208967794543 651.5799614643545,299.8578361251855 653.0635838150289,291.62799962567345 654.5472061657033,291.1948503362255 656.0308285163777,296.8257910990494 657.514450867052,296.8257910990494 658.9980732177264,296.3926418096014 660.4816955684007,291.1948503362255 661.9653179190751,289.8954024678814 663.4489402697495,289.8954024678814 664.9325626204239,282.5318645472654 666.4161849710982,280.7992673894734 667.8998073217726,284.26446170505744 669.383429672447,285.9970588628494 670.8670520231213,286.4302081522974 672.3506743737958,285.9970588628494 673.8342967244702,277.7672223633374 675.3179190751446,269.9705351532733 676.8015414258189,271.26998302161735 678.2851637764933,267.8047887060333 679.7687861271676,265.6390422587933 681.252408477842,266.07219154824134 682.7360308285164,262.60699723265736 684.2196531791908,265.2058929693453 685.7032755298651,254.8103100225933 687.1868978805395,230.98709910295315 688.6705202312139,199.80035026269698 690.1541425818882,206.29758960441703 691.6377649325626,213.6611275250331 693.121387283237,211.9285303672411 694.6050096339113,198.93405168380102 696.0886319845857,204.13184315717706 697.5722543352601,203.265544578281 699.0558766859344,201.966096709937 700.5394990366088,206.73073889386504 702.0231213872833,208.0301867622091 703.5067437379577,200.66664884159303 704.990366088632,192.00366305263296 706.4739884393064,177.27658721140088 707.9576107899808,214.52742610392903 709.4412331406551,211.9285303672411 710.9248554913295,204.13184315717706 712.4084778420039,208.89648534110506 713.8921001926782,204.56499244662507 715.3757225433526,192.00366305263296 716.859344894027,201.53294742048902 718.3429672447013,182.0412293953289 719.8265895953757,178.57603507974488 721.3102119460501,158.21801847568884 722.7938342967244,162.11636208072088 724.2774566473988,152.15392842341674 725.7610789980732,174.6776914747129 727.2447013487476,166.88100426464882 728.7283236994219,153.88652558120882 730.2119460500963,119.23458242536863 731.6955684007708,130.92961324046468 733.179190751445,127.03126963543268 734.6628131021195,84.58263926952844 736.1464354527939,97.57711795296854 737.6300578034682,104.94065587358455 739.1136801541426,114.03679095199266 740.597302504817,139.15944973997676 742.0809248554913,143.49094263445676 743.5645472061657,157.35171989679284 745.0481695568401,164.71525781740885 746.5317919075145,181.6080801058809 748.0154142581888,179.44233365864093 749.4990366088632,172.94509431692092 750.9826589595375,182.47437868477698 752.4662813102119,153.02022700231277 753.9499036608863,166.44785497520084 755.4335260115607,200.23349955214496 756.917148362235,187.67217015815297 758.4007707129094,200.23349955214496 759.8843930635838,210.62908249889705 761.3680154142581,213.6611275250331 762.8516377649325,187.67217015815297 764.335260115607,194.169409499873 765.8188824662814,190.27106589484097 767.3025048169557,196.76830523656105 768.7861271676301,176.8434379219529 770.2697495183044,167.31415355409683 771.7533718689788,171.21249715912887 773.2369942196532,172.94509431692092 774.7206165703276,159.5174663440328 776.2042389210019,167.74730284354484 777.6878612716763,153.02022700231277 779.1714836223506,156.91857060734478 780.655105973025,165.14840710685684 782.1387283236994,169.04675071188888 783.6223506743738,166.88100426464882 785.1059730250482,169.4799000013369 786.5895953757225,167.74730284354484 788.0732177263969,156.91857060734478 789.5568400770712,158.65116776513685 791.0404624277456,147.3892862394888 792.52408477842,153.02022700231277 794.0077071290945,153.88652558120882 795.4913294797689,141.75834547666472 796.9749518304432,166.01470568575286 798.4585741811175,174.6776914747129 799.9421965317919,141.75834547666472 801.4258188824663,127.03126963543268 802.9094412331407,139.15944973997676 804.3930635838151,153.88652558120882 805.8766859344894,142.62464405556076 807.3603082851637,112.7373430836486 808.8439306358381,122.26662745150466 810.3275529865125,108.40585018916858 811.8111753371869,104.0743572946886 813.2947976878613,141.3251961872167 814.7784200385357,129.1970160826727 816.26204238921,148.68873410783277 817.7456647398843,154.7528241601048 819.2292870905587,162.98266065961684 820.7129094412331,154.3196748706568 822.1965317919075,159.95061563348082 823.680154142582,148.68873410783277 825.1637764932563,171.64564644857694 826.6473988439305,177.27658721140088 828.131021194605,179.44233365864093 829.6146435452794,160.3837649229288 831.0982658959538,156.4854213178968 832.5818882466282,156.4854213178968 834.0655105973026,163.8489592385128 835.5491329479769,153.45337629176083 837.0327552986512,165.14840710685684 838.5163776493256,117.50198526757664 840.0,82.41689282228847" stroke="#2196F3" stroke-width="1.8" fill="none"/>
<line x1="70" y1="24.374888036256245" x2="840" y2="24.374888036256245" stroke="#FFD700" stroke-width="1" stroke-dasharray="5,5"/>
<text x="845" y="28.374888036256245" font-size="10" fill="#FFD700">目标 14.27</text>
<line x1="70" y1="117.50198526757664" x2="840" y2="117.50198526757664" stroke="#3fb950" stroke-width="1" stroke-dasharray="2,2"/>
<text x="845" y="121.50198526757664" font-size="10" fill="#3fb950">突破价 12.12</text>
<line x1="840.0" y1="82.41689282228847" x2="840" y2="82.41689282228847" stroke="#88ccff" stroke-width="1"/>
<text x="845" y="86.41689282228847" font-size="10" fill="#88ccff">现价 12.93</text>
<text x="70" y="605" font-size="12" fill="#e0e0e0" font-weight="bold">上榜理由 (综合得分: 94):</text>
<text x="70" y="623" font-size="11" fill="#aaa">1. 形态刚收敛完成（距截止日仅3天），突破信号最新鲜</text>
<text x="70" y="641" font-size="11" fill="#aaa">2. 突破后日线胜率95%，表现优秀</text>
<text x="70" y="659" font-size="11" fill="#aaa">3. 量度目标涨幅17.7%（目标¥14.27 / 突破¥12.12）</text>
<text x="70" y="677" font-size="11" fill="#aaa">4. 收敛前强上涨趋势+11.1%，典型上涨中继</text>
<text x="70" y="695" font-size="11" fill="#aaa">5. 三角持续25个交易日，整理充分</text>
</svg>